<svg xmlns="http://www.w3.org/2000/svg" width="83.289" height="83.236" viewBox="0 0 83.289 83.236">
  <g id="katman_2" data-name="katman 2" transform="translate(0.008)">
    <g id="Layer_1" data-name="Layer 1">
      <path id="Path_291" data-name="Path 291" d="M1.81,39.66q31,.63,62-.24,8.84-.24,17.66-.61c2.41-.1,2.42-3.85,0-3.75q-31,1.29-62,1.09-8.84-.06-17.67-.24c-2.41,0-2.41,3.7,0,3.75Z" fill="#fff"/>
      <path id="Path_292" data-name="Path 292" d="M40.65,1.8a478.322,478.322,0,0,1,1.17,62.09q-.41,8.79-1.14,17.55c-.2,2.4,3.55,2.39,3.75,0a478.448,478.448,0,0,0,1.12-62.1Q45.13,10.57,44.4,1.8C44.2-.59,40.45-.61,40.65,1.8Z" fill="#fff"/>
    </g>
  </g>
</svg>
