<svg xmlns="http://www.w3.org/2000/svg" width="79.426" height="51.34" viewBox="0 0 79.426 51.34">
  <g id="katman_2" data-name="katman 2" transform="translate(-0.001 -0.003)">
    <g id="Layer_1" data-name="Layer 1">
      <path id="Path_259" data-name="Path 259" d="M33.83.2A122.51,122.51,0,0,0,4.71,19a13.68,13.68,0,0,0-4.5,6.44A6.88,6.88,0,0,0,2.47,32.4a60.17,60.17,0,0,0,7,5q3.68,2.45,7.53,4.7a163.309,163.309,0,0,0,18,9.08c1.33.57,3.37-.4,2.75-2.12L33.08,35.9c-.73-2.06-1.6-4.12-2.19-6.22-.15-.53-.4-1.32,0-1.76s2.11-.35,2.71-.37q14-.66,27.94-.78c5.36-.05,10.72,0,16.08,0,2.41,0,2.41-3.72,0-3.75q-15.47-.19-30.92.25c-5,.14-10.05.08-15,.61-2.07.22-4.11,1.16-4.66,3.36s.51,4.39,1.22,6.39l5.86,16.4,2.76-2.12a162.089,162.089,0,0,1-28.84-16c-1.55-1.09-4.36-2.49-4.36-4.7s2-4.09,3.48-5.41A105.13,105.13,0,0,1,20,12.23a127.35,127.35,0,0,1,15.77-8.8C37.91,2.41,36-.82,33.83.2Z" fill="#fff"/>
    </g>
  </g>
</svg>
