<svg xmlns="http://www.w3.org/2000/svg" width="148.883" height="150" viewBox="0 0 148.883 150">
  <g id="Group_1" data-name="Group 1" transform="translate(-0.187 0)">
    <path id="Path_1" data-name="Path 1" d="M125.869,83.75Q127,63.157,127.132,42.527c.03-5.125.1-10.495-2.148-15.231a12.394,12.394,0,0,0-4.725-5.313c-2.686-1.62-5.876-1.943-8.934-2.188-6.821-.546-13.669-.544-20.506-.533L70.064,19.3l-41.026.072c-3.806.007-7.612-.008-11.418.023a26.577,26.577,0,0,0-9.8,1.454c-5.5,2.23-9.8,8.8-6.448,14.542,1.612,2.76,5.908.261,4.29-2.508-.909-1.557-.447-3.365.593-4.866a8.347,8.347,0,0,1,5.214-3.122,35.955,35.955,0,0,1,8.181-.537l9.392-.017,38.555-.068c12.774-.023,25.6-.386,38.369.167a52.668,52.668,0,0,1,8.917.775,7.65,7.65,0,0,1,4.957,3.052c2.381,3.5,2.35,8.235,2.336,12.3q-.07,21.6-1.272,43.187c-.176,3.195,4.793,3.185,4.969,0Z" fill="#fff"/>
    <path id="Path_2" data-name="Path 2" d="M.451,33.256.6,103.04c.011,5.075-.628,10.9,1.972,15.5,2.145,3.793,6.2,5.858,10.321,6.78,4.713,1.055,9.664,1.045,14.466,1.212q8.746.306,17.5.266c13.053-.056,26.108-.466,39.158-.749,3.193-.069,3.2-5.038,0-4.969-11.257.244-22.514.549-33.773.7-5.573.075-11.146.073-16.718-.044-5.206-.11-10.462-.167-15.649-.647-3.418-.317-7.393-1.008-9.9-3.561-3.1-3.155-2.4-8.482-2.406-12.511L5.5,71.365,5.42,33.256c-.007-3.2-4.976-3.2-4.969,0Z" fill="#fff"/>
    <path id="Path_3" data-name="Path 3" d="M19.069,7.62a40.681,40.681,0,0,0-.66,16.523,8.959,8.959,0,0,0,3.032,5.511,6.025,6.025,0,0,0,6.965.15c2.2-1.423,3.294-3.862,4.016-6.285a29.831,29.831,0,0,0,1.217-8.247c.035-4.666-.683-11.22-4.873-14.108a6.168,6.168,0,0,0-7.647.336c-1.842,1.663-2.438,4.351-2.407,6.735.041,3.2,5.01,3.2,4.969,0-.023-1.75.724-4.712,2.766-2.572,1.032,1.082,1.369,2.8,1.679,4.2a24.235,24.235,0,0,1,.544,5.405,24.318,24.318,0,0,1-.633,5.395c-.355,1.514-.747,3.5-1.916,4.631-1.994,1.928-2.8-1.473-3.008-3.025A37.669,37.669,0,0,1,23.86,8.941c.715-3.112-4.074-4.441-4.791-1.321Z" fill="#fff"/>
    <path id="Path_4" data-name="Path 4" d="M93.682,7.62a40.7,40.7,0,0,0-.661,16.523,8.965,8.965,0,0,0,3.033,5.511,6.025,6.025,0,0,0,6.965.15c2.2-1.423,3.293-3.862,4.016-6.285a29.868,29.868,0,0,0,1.217-8.247c.035-4.666-.683-11.22-4.873-14.108a6.168,6.168,0,0,0-7.647.336c-1.842,1.663-2.438,4.351-2.407,6.735.041,3.2,5.01,3.2,4.969,0-.023-1.75.724-4.712,2.766-2.572,1.032,1.082,1.369,2.8,1.678,4.2a24.236,24.236,0,0,1,.545,5.405,24.377,24.377,0,0,1-.633,5.395c-.356,1.514-.747,3.5-1.916,4.631-1.994,1.928-2.8-1.473-3.009-3.025a37.692,37.692,0,0,1,.748-13.332C99.188,5.829,94.4,4.5,93.682,7.62Z" fill="#fff"/>
    <path id="Path_5" data-name="Path 5" d="M17.937,58.775a85.33,85.33,0,0,0,.171,8.657,43.842,43.842,0,0,0,.984,7.834,6.68,6.68,0,0,0,5.1,5.22,47.937,47.937,0,0,0,8.375.538Q34.782,81.06,37,81c1.466-.039,2.965-.094,4.044-1.244a5.747,5.747,0,0,0,1.226-3.629c.137-1.458.234-2.92.3-4.383q.2-4.389-.007-8.784c-.13-2.757.116-6.373-3.22-7.218a29.493,29.493,0,0,0-4.838-.6q-2.35-.186-4.713-.157a56.412,56.412,0,0,0-10.03,1.062,2.508,2.508,0,0,0-1.735,3.056,2.535,2.535,0,0,0,3.056,1.735,49.991,49.991,0,0,1,13.814-.7,28.036,28.036,0,0,1,2.988.362c.408.081.69.329-.036-.277-.66-.551-.369-.505-.442-.261a7.633,7.633,0,0,0,.135,1.992q.207,3.59.141,7.186c-.042,2.333-.2,4.653-.383,6.978-.028.361-.062.386-.046.4l-.028.13a.7.7,0,0,1,.4-.381c.412-.328.457-.215.32-.271a3.379,3.379,0,0,0-.944.031q-1.816.048-3.633.032c-2.421-.021-4.845-.116-7.258-.314a3.533,3.533,0,0,1-1.523-.355,2.586,2.586,0,0,1-.739-1.592,40.555,40.555,0,0,1-.812-6.961c-.174-2.686-.212-5.377-.131-8.068.1-3.2-4.873-3.195-4.969,0Z" fill="#fff"/>
    <path id="Path_6" data-name="Path 6" d="M45.8,58.775a85.041,85.041,0,0,0,.171,8.657,43.751,43.751,0,0,0,.984,7.834,6.677,6.677,0,0,0,5.095,5.22,47.932,47.932,0,0,0,8.374.538q2.22.036,4.441-.022c1.466-.039,2.965-.094,4.044-1.244a5.747,5.747,0,0,0,1.226-3.629q.2-2.187.3-4.383.2-4.389-.006-8.784c-.13-2.757.115-6.373-3.22-7.218a29.506,29.506,0,0,0-4.838-.6q-2.352-.186-4.713-.157a56.433,56.433,0,0,0-10.031,1.062,2.508,2.508,0,0,0-1.735,3.056,2.536,2.536,0,0,0,3.056,1.735,50,50,0,0,1,13.814-.7,28.005,28.005,0,0,1,2.988.362c.409.081.691.329-.035-.277-.66-.551-.369-.505-.442-.261a7.59,7.59,0,0,0,.135,1.992q.206,3.59.141,7.186c-.042,2.333-.2,4.653-.383,6.978-.028.361-.062.386-.046.4l-.029.13a.705.705,0,0,1,.4-.381c.413-.328.457-.215.321-.271a3.379,3.379,0,0,0-.944.031q-1.816.048-3.633.032c-2.421-.021-4.846-.116-7.259-.314a3.525,3.525,0,0,1-1.522-.355,2.581,2.581,0,0,1-.739-1.592,40.555,40.555,0,0,1-.812-6.961c-.174-2.686-.212-5.377-.131-8.068.1-3.2-4.873-3.195-4.969,0Z" fill="#fff"/>
    <path id="Path_7" data-name="Path 7" d="M17.937,86.949a85.311,85.311,0,0,0,.171,8.656,43.831,43.831,0,0,0,.984,7.834,6.68,6.68,0,0,0,5.1,5.22,47.839,47.839,0,0,0,8.375.538q2.22.036,4.44-.022c1.466-.038,2.965-.094,4.044-1.244a5.745,5.745,0,0,0,1.226-3.629c.137-1.458.234-2.92.3-4.383q.2-4.389-.007-8.784c-.13-2.756.116-6.373-3.22-7.218a29.6,29.6,0,0,0-4.838-.6q-2.35-.186-4.713-.157a56.413,56.413,0,0,0-10.03,1.062,2.508,2.508,0,0,0-1.735,3.056,2.535,2.535,0,0,0,3.056,1.735A50.029,50.029,0,0,1,34.9,88.322a28.035,28.035,0,0,1,2.988.362c.408.081.69.33-.036-.277-.66-.551-.369-.5-.442-.261a7.631,7.631,0,0,0,.135,1.992q.207,3.589.141,7.187c-.042,2.332-.2,4.652-.383,6.977-.028.362-.062.387-.046.395l-.028.131a.693.693,0,0,1,.4-.381c.412-.329.457-.216.32-.271a3.34,3.34,0,0,0-.944.03q-1.816.048-3.633.032c-2.421-.02-4.845-.115-7.258-.314a3.533,3.533,0,0,1-1.523-.355,2.583,2.583,0,0,1-.739-1.591,40.578,40.578,0,0,1-.812-6.962c-.174-2.686-.212-5.377-.131-8.067.1-3.2-4.873-3.2-4.969,0Z" fill="#fff"/>
    <path id="Path_8" data-name="Path 8" d="M45.8,86.949a85.022,85.022,0,0,0,.171,8.656,43.74,43.74,0,0,0,.984,7.834,6.677,6.677,0,0,0,5.095,5.22,47.834,47.834,0,0,0,8.374.538q2.22.036,4.441-.022c1.466-.038,2.965-.094,4.044-1.244a5.745,5.745,0,0,0,1.226-3.629q.2-2.187.3-4.383.2-4.389-.006-8.784c-.13-2.756.115-6.373-3.22-7.218a29.615,29.615,0,0,0-4.838-.6q-2.352-.186-4.713-.157a56.434,56.434,0,0,0-10.031,1.062,2.508,2.508,0,0,0-1.735,3.056,2.536,2.536,0,0,0,3.056,1.735,50.033,50.033,0,0,1,13.814-.695,28,28,0,0,1,2.988.362c.409.081.691.33-.035-.277-.66-.551-.369-.5-.442-.261a7.588,7.588,0,0,0,.135,1.992q.206,3.589.141,7.187c-.042,2.332-.2,4.652-.383,6.977-.028.362-.062.387-.046.395l-.029.131a.7.7,0,0,1,.4-.381c.413-.329.457-.216.321-.271a3.34,3.34,0,0,0-.944.03q-1.816.048-3.633.032c-2.421-.02-4.846-.115-7.259-.314a3.525,3.525,0,0,1-1.522-.355,2.578,2.578,0,0,1-.739-1.591,40.578,40.578,0,0,1-.812-6.962c-.174-2.686-.212-5.377-.131-8.067.1-3.2-4.873-3.2-4.969,0Z" fill="#fff"/>
    <path id="Path_9" data-name="Path 9" d="M74.9,58.775a85.041,85.041,0,0,0,.171,8.657,43.843,43.843,0,0,0,.984,7.834,6.677,6.677,0,0,0,5.1,5.22,47.932,47.932,0,0,0,8.374.538q2.222.036,4.441-.022c1.466-.039,2.965-.094,4.044-1.244a5.747,5.747,0,0,0,1.226-3.629q.2-2.187.3-4.383.2-4.389-.006-8.784c-.13-2.757.115-6.373-3.22-7.218a29.506,29.506,0,0,0-4.838-.6q-2.352-.186-4.713-.157a56.412,56.412,0,0,0-10.03,1.062A2.509,2.509,0,0,0,75,59.109a2.536,2.536,0,0,0,3.056,1.735,50,50,0,0,1,13.815-.7,28.018,28.018,0,0,1,2.987.362c.409.081.691.329-.035-.277-.66-.551-.369-.505-.442-.261a7.633,7.633,0,0,0,.135,1.992q.206,3.59.141,7.186c-.042,2.333-.2,4.653-.383,6.978-.028.361-.062.386-.046.4l-.028.13a.7.7,0,0,1,.4-.381c.413-.328.457-.215.321-.271a3.379,3.379,0,0,0-.944.031q-1.816.048-3.633.032c-2.421-.021-4.845-.116-7.259-.314a3.528,3.528,0,0,1-1.522-.355,2.586,2.586,0,0,1-.739-1.592A40.555,40.555,0,0,1,80,66.843c-.174-2.686-.212-5.377-.131-8.068.1-3.2-4.873-3.195-4.969,0Z" fill="#fff"/>
    <path id="Path_10" data-name="Path 10" d="M121.315,81.91a29.934,29.934,0,0,0-20.983,4.1,39.837,39.837,0,0,0-13.919,15.233c-3.567,6.65-5.886,14.386-4.94,21.983a29.511,29.511,0,0,0,8.552,17.138c10.334,10.33,26.638,12.044,39.83,6.625a29.4,29.4,0,0,0,9.353-5.82,28.008,28.008,0,0,0,5.956-8.594,43.261,43.261,0,0,0,3.771-21.233,35.121,35.121,0,0,0-7.626-19.607,29.72,29.72,0,0,0-16.194-10.173,27.966,27.966,0,0,0-4.873-.625c-3.2-.132-3.191,4.837,0,4.969,11.758.487,20.706,10.316,23.1,21.314a37.634,37.634,0,0,1-.951,18.687c-1.739,5.8-4.885,11.165-10.151,14.382-10.5,6.416-25.257,6.6-35.39-.6a25.683,25.683,0,0,1-9.516-12.744c-2.015-6.232-1.026-12.811,1.315-18.808C93.5,95.712,105.678,84.084,119.994,86.7a2.553,2.553,0,0,0,3.056-1.736,2.506,2.506,0,0,0-1.735-3.056Z" fill="#fff"/>
    <path id="Path_11" data-name="Path 11" d="M104.481,98.14a10.36,10.36,0,0,0-1.113,5.433q0,3.148.005,6.3l0,6.054c0,1.955-.122,4.036.854,5.808,1.723,3.126,5.443,3.712,8.657,4.06a71.692,71.692,0,0,0,12.266.273c3.269-.208,7.939-.137,9.717-3.5,1.638-3.1.806-7.934-2.435-9.657-3.138-1.67-6.93-.394-10.264-.279q-1.453.05-2.909-.017a10.022,10.022,0,0,0-1.452-.1,2.131,2.131,0,0,0-.392-.055c.313-.11.28.746.176.071a20.727,20.727,0,0,1-.229-4.794c.287-3.932.449-8.458-2.876-11.255a6.922,6.922,0,0,0-5.739-1.677c-2.043.368-3.543,1.893-4.776,3.452a2.563,2.563,0,0,0,0,3.514,2.5,2.5,0,0,0,3.513,0c.549-.694,1.407-2.076,2.417-2.149a2.528,2.528,0,0,1,1.859,1.178c1.544,2.165.675,5.6.563,8.042-.134,2.911.125,7.142,3.388,8.282a15.418,15.418,0,0,0,4.76.492,37.848,37.848,0,0,0,5.32-.326c1.4-.181,4.489-1.04,4.824.969a3.267,3.267,0,0,1-.159,2.011c-.607.731-2.806.628-3.625.7a71.622,71.622,0,0,1-10.106.166c-1.6-.087-3.216-.183-4.8-.423a6.624,6.624,0,0,1-2.9-.9c-.932-.683-.688-2.094-.689-3.166l0-5.569-.005-5.812c0-1.444-.327-3.323.433-4.62,1.621-2.765-2.672-5.268-4.29-2.508Z" fill="#fff"/>
  </g>
</svg>
