<svg xmlns="http://www.w3.org/2000/svg" width="87.419" height="83.731" viewBox="0 0 87.419 83.731">
  <g id="katman_2" data-name="katman 2" transform="translate(0.002 -0.017)">
    <g id="Layer_1" data-name="Layer 1">
      <path id="Path_260" data-name="Path 260" d="M9,81.76A14.79,14.79,0,0,0,12.44,70c-.51-4.7-2.63-8.93-4.55-13.18C4.46,49.24,2.81,40.74,4.21,32.45A31.65,31.65,0,0,1,8.3,21.23a30.83,30.83,0,0,1,9.2-9.31A47.77,47.77,0,0,1,41.79,3.81,42.27,42.27,0,0,1,66,9.67a37.83,37.83,0,0,1,14.57,17,34.62,34.62,0,0,1,2.18,22A34.92,34.92,0,0,1,69.42,68.05a44.84,44.84,0,0,1-25.58,8.34A62.49,62.49,0,0,1,29.67,75a17.43,17.43,0,0,0-7.5-.31,48.1,48.1,0,0,0-7.06,2.58L7.9,80.07a1.93,1.93,0,0,0-1.31,2.3A1.88,1.88,0,0,0,8.9,83.68l7.65-3c2.32-.91,4.76-2.2,7.25-2.53s5.08.52,7.54,1a62.679,62.679,0,0,0,7.59.94c9.78.61,19.87-1.25,28.42-6.16A40.88,40.88,0,0,0,84.53,55.15a36.59,36.59,0,0,0,1.59-23.9A42.31,42.31,0,0,0,73.67,10.74,42.93,42.93,0,0,0,50.24.38,51.28,51.28,0,0,0,23.75,4.25C15.36,7.84,7.55,13.73,3.56,22.12A40.755,40.755,0,0,0,.87,47.41a58.38,58.38,0,0,0,4.53,13c1.91,4.19,3.92,8.7,3.31,13.42a9.66,9.66,0,0,1-2.35,5.33c-1.63,1.77,1,4.43,2.65,2.65Z" fill="#fff"/>
      <path id="Path_261" data-name="Path 261" d="M20,34.8q15.65-1.35,31.35-1.62c2.41,0,2.42-3.79,0-3.75Q35.65,29.7,20,31.05C17.62,31.25,17.59,35,20,34.8Z" fill="#fff"/>
      <path id="Path_262" data-name="Path 262" d="M19.83,51.29,67.39,48.5c2.4-.15,2.42-3.9,0-3.75L19.83,47.54C17.43,47.68,17.41,51.43,19.83,51.29Z" fill="#fff"/>
    </g>
  </g>
</svg>
