<svg xmlns="http://www.w3.org/2000/svg" width="130.066" height="150.001" viewBox="0 0 130.066 150.001">
  <g id="Group_1" data-name="Group 1" transform="translate(-10.254 0)">
    <path id="Path_1" data-name="Path 1" d="M65.028,38.412C55.936,39.6,46.78,40.069,37.643,40.768c-4.618.353-9.229.781-13.821,1.384-3.87.507-8.249,1.125-11.063,4.112-2.382,2.528-3.442,6.755-1.487,9.834,2.373,3.737,7.069,3.359,10.936,3.152q6.9-.369,13.765-1.172,3.521-.412,7.029-.928c1.259-.184,3.038-.581,3.908.587.984,1.322,1.129,3.354,1.441,4.914q.669,3.355,1.259,6.726,1.162,6.651,2.006,13.352Q53.305,96.308,53.7,110q.2,6.839.064,13.68c-.086,4.455-.528,8.933-.462,13.386.061,4.1,1.139,8.294,4.517,10.944a8.3,8.3,0,0,0,10.168.453c2.564-1.923,3.782-5.081,4.309-8.133.68-3.94.554-8,.666-11.985l.389-13.919c.086-3.051-.065-6.565,1.332-9.333a3.842,3.842,0,0,1,2.265-2.187l-3.109-2.346q1.764,15.682,3.529,31.365c.46,4.089.651,8.309,2.529,12.062,1.68,3.355,5.159,5.631,9.011,4.664,3.507-.881,5.435-4.337,6.29-7.559,1.092-4.113.766-8.486.786-12.693l.146-31.7c.048-10.4-.153-20.831.156-31.224.089-2.982.508-6.8,4.206-6.934a60.361,60.361,0,0,1,7.565.571l7.968.731,7.969.73a61.684,61.684,0,0,0,6.41.465c3.873-.05,8.051-1.265,9.515-5.2,1.5-4.031-1.419-7.64-4.625-9.76-3.441-2.276-7.745-3.282-11.707-4.273-17.187-4.3-35.347-4.836-52.968-3.794q-2.8.165-5.587.4a2.508,2.508,0,0,0-2.457,2.433,2.464,2.464,0,0,0,2.457,2.433c16.19-1.325,32.766-1.337,48.806,1.449a111.131,111.131,0,0,1,12.334,2.832c3,.881,6.7,1.874,8.638,4.535a2.155,2.155,0,0,1,.262,2.621,4.51,4.51,0,0,1-3.211,1.381,26.584,26.584,0,0,1-5.452-.165l-7.486-.687-14.971-1.373c-2.249-.206-4.576-.422-6.731.409a8.1,8.1,0,0,0-4.256,3.786c-1.861,3.509-1.6,7.694-1.622,11.531l-.068,14.762-.139,30.008-.069,15c-.018,3.757.312,7.607-.817,11.164a6.22,6.22,0,0,1-1.837,3.062,2.563,2.563,0,0,1-.444.253c.242-.119-.478.145-.623.169.266-.043-.466,0-.592-.014a4.538,4.538,0,0,0-.508-.108A4.6,4.6,0,0,1,84,141.271a17.267,17.267,0,0,1-1.187-4.541c-.636-4.512-1.065-9.462-1.591-14.139l-1.644-14.605-.835-7.422a2.485,2.485,0,0,0-3.109-2.346c-7.2,2.342-7.058,11.034-7.23,17.172l-.37,13.2c-.1,3.594.116,7.423-.569,10.922a11.762,11.762,0,0,1-1.272,3.735,4.209,4.209,0,0,1-.914,1.153,3.212,3.212,0,0,1-1.05.619c-3.035.982-5.178-2.464-5.725-4.919a21.666,21.666,0,0,1-.24-5.671c.1-2.167.217-4.332.291-6.5q.222-6.483.148-12.971a290.819,290.819,0,0,0-5.346-52.211c-.669-3.44-1.134-7.745-4.509-9.714-1.873-1.093-4.056-1-6.128-.721-2.093.286-4.18.595-6.278.845q-6.505.776-13.049,1.161a33.5,33.5,0,0,1-6,.161c-1.147-.144-2.034-.638-2.2-1.593-.5-2.828,2.472-4.543,4.946-5.191,3.969-1.038,8.241-1.256,12.313-1.628,8.6-.787,17.237-1.167,25.833-2.017q3.375-.333,6.737-.771a2.525,2.525,0,0,0,2.456-2.433,2.459,2.459,0,0,0-2.456-2.433Z" fill="#fff"/>
    <path id="Path_2" data-name="Path 2" d="M78.9,4.476C74.645-1.124,66.584-1.337,61.375,3.1,56.256,7.451,54.809,15.173,56.9,21.348c2.123,6.281,7.492,11.021,14.316,11.33A14.1,14.1,0,0,0,85.734,22.335a21.7,21.7,0,0,0-.689-11.589C83.9,7.065,82.308,3.024,78.376,1.605a2.481,2.481,0,0,0-3.021,1.7A2.48,2.48,0,0,0,77.07,6.3c1.837.663,2.666,3.94,3.18,5.558a19.312,19.312,0,0,1,1.021,7.65,9.013,9.013,0,0,1-8.244,8.268c-10.071,1.008-15.094-11.338-10.161-19a8.329,8.329,0,0,1,5.827-3.921c2.093-.249,4.636.334,5.964,2.082a2.548,2.548,0,0,0,3.361.873A2.437,2.437,0,0,0,78.9,4.476Z" fill="#fff"/>
    <path id="Path_3" data-name="Path 3" d="M123.5,42.552c-9.65-13.139-23.93-21.79-39.072-27.476a2.435,2.435,0,1,0-1.306,4.692c13.834,5.195,27.307,13.219,36.136,25.24a2.542,2.542,0,0,0,3.361.872,2.439,2.439,0,0,0,.881-3.328Z" fill="#fff"/>
    <path id="Path_4" data-name="Path 4" d="M93.891,129.1a57.566,57.566,0,0,0,28.539-21.342,60.578,60.578,0,0,0,11.128-31.142,51.868,51.868,0,0,0-2.222-18.694c-.934-2.981-5.678-1.709-4.737,1.294,6.228,19.881-1.658,42.361-17.317,55.779a50.411,50.411,0,0,1-16.7,9.413c-2.976,1-1.7,5.707,1.306,4.692Z" fill="#fff"/>
    <path id="Path_5" data-name="Path 5" d="M70.465,132.067a64.766,64.766,0,0,0,9.092-.1,2.433,2.433,0,1,0,0-4.866,64.765,64.765,0,0,1-9.092.1,2.459,2.459,0,0,0-2.456,2.433,2.5,2.5,0,0,0,2.456,2.433Z" fill="#fff"/>
    <path id="Path_6" data-name="Path 6" d="M18.733,56.225A89.519,89.519,0,0,0,13.5,75.445c-.992,6.521-1.118,13.2,1.108,19.5,3.9,11.036,12.868,20.141,22.63,26.388a69.873,69.873,0,0,0,18.045,8.126c3.039.888,4.337-3.807,1.306-4.692a62.573,62.573,0,0,1-27.482-16.311,44.3,44.3,0,0,1-9.116-13.128c-2.365-5.541-2.656-11.479-1.921-17.391a84.955,84.955,0,0,1,5.4-20.421,2.448,2.448,0,0,0-1.715-2.993,2.516,2.516,0,0,0-3.022,1.7Z" fill="#fff"/>
    <path id="Path_7" data-name="Path 7" d="M57.856,14.147C43.85,19.573,32.883,30.267,25.245,42.922c-1.626,2.695,2.62,5.144,4.242,2.456C36.417,33.9,46.4,23.782,59.162,18.839a2.5,2.5,0,0,0,1.716-2.993,2.478,2.478,0,0,0-3.022-1.7Z" fill="#fff"/>
  </g>
</svg>
