<svg xmlns="http://www.w3.org/2000/svg" width="80.323" height="150" viewBox="0 0 80.323 150">
  <g id="Group_2" data-name="Group 2" transform="translate(-32.401 0)">
    <g id="Group_1" data-name="Group 1">
      <path id="Path_1" data-name="Path 1" d="M99.01,14.163C95.077,3.336,82.786-1.25,72.028.29,59.4,2.1,48.711,11.935,45.145,24.043c-3.52,11.949-.129,25.74,9.768,33.675A25.2,25.2,0,0,0,72.4,63.367,34.368,34.368,0,0,0,90.7,56.321a34.946,34.946,0,0,0,12.441-17.16,30.436,30.436,0,0,0-1.667-22.523c-1.379-2.793-5.555-.343-4.179,2.443C102.451,29.524,99,41.972,90.9,49.824c-7.749,7.512-20.306,11.871-30.235,6.036-8.93-5.249-13.2-16.093-11.819-26.129A29.219,29.219,0,0,1,68.881,5.972c8.959-2.81,21.874-.4,25.462,9.478a2.484,2.484,0,0,0,2.977,1.69,2.439,2.439,0,0,0,1.69-2.977Z" fill="#fff"/>
      <path id="Path_2" data-name="Path 2" d="M37.246,142.451A158.2,158.2,0,0,1,44.99,104.23C48.515,93.7,52.883,82.487,60.712,74.348c3.766-3.915,8.554-7.3,14-8.254,5.562-.972,10.268,2.056,13.943,5.931,7.793,8.219,11.582,19.357,13.654,30.282,2.764,14.576,2.57,29.543,5.6,44.085a2.421,2.421,0,1,0,4.667-1.287c-5.214-25-1.284-53.893-18.932-74.747-3.947-4.665-9.022-8.646-15.3-9.222C72,60.553,65.834,63.708,61,67.548c-9.375,7.445-14.6,18.927-18.711,29.863a163,163,0,0,0-9.882,45.04,2.441,2.441,0,0,0,2.42,2.42,2.468,2.468,0,0,0,2.42-2.42Z" fill="#fff"/>
      <path id="Path_3" data-name="Path 3" d="M35.094,145.157a283.251,283.251,0,0,0,58.516,4.767q8.359-.2,16.694-.9a2.482,2.482,0,0,0,2.42-2.42,2.439,2.439,0,0,0-2.42-2.42,280.064,280.064,0,0,1-57.816-1.174c-5.394-.673-10.764-1.528-16.107-2.524a2.486,2.486,0,0,0-2.977,1.69,2.442,2.442,0,0,0,1.69,2.977Z" fill="#fff"/>
    </g>
    <path id="Path_4" data-name="Path 4" d="M53.416,75.5a37.642,37.642,0,0,0,1.507,26.22,2.434,2.434,0,0,0,3.31.868,2.483,2.483,0,0,0,.869-3.311,32.51,32.51,0,0,1-1.019-22.49c.935-2.979-3.736-4.253-4.667-1.287Z" fill="#fff"/>
    <path id="Path_5" data-name="Path 5" d="M59.7,117.933a4.056,4.056,0,0,1-.931-1.017,8.529,8.529,0,0,1-.434-.761c-.058-.112-.113-.226-.166-.34.135.292-.074-.191-.094-.246a21.317,21.317,0,0,1-.91-3.62c-.049-.274-.093-.549-.137-.824s-.005-.006,0,.044c-.022-.16-.04-.322-.058-.484-.061-.566-.1-1.135-.108-1.7a11.158,11.158,0,0,1,.084-1.675c-.06.433.071-.276.1-.39a8.064,8.064,0,0,1,.264-.874c.131-.361-.156.295.023-.043.053-.1.1-.2.157-.3.079-.141.4-.6.319-.5s.339-.33.442-.427c.072-.068.364-.241.036-.03.122-.079.244-.158.371-.228s.255-.138.385-.195c-.04.018-.339.128-.077.049.242-.073.483-.134.728-.191.04-.009.388-.045.107-.019-.31.03.151,0,.222,0,.295,0,.587,0,.882.028s-.049-.005-.089-.013c.148.028.3.055.442.089.258.059.514.132.765.216.109.036.216.076.323.115-.1-.035-.376-.188.056.025.275.136.547.276.809.435.12.073.621.414.511.33s.367.322.449.4a7.406,7.406,0,0,1,.943,1.085c1.6,2.426,2.25,5.034,2.95,7.986a2.439,2.439,0,0,0,3.555,1.446A3.59,3.59,0,0,0,72.9,111.47a2.42,2.42,0,1,0-4.179,2.443,1.388,1.388,0,0,1,.459-1.79l3.555,1.446c-.737-3.107-1.549-6.352-3.363-9.032a11.3,11.3,0,0,0-7.487-5.064,8.173,8.173,0,0,0-8.334,3.4c-1.665,2.46-1.7,5.7-1.325,8.536.463,3.537,1.251,7.473,4.055,9.945a2.478,2.478,0,0,0,3.423,0,2.443,2.443,0,0,0,0-3.422Z" fill="#fff"/>
    <path id="Path_6" data-name="Path 6" d="M88.656,77.42a36.914,36.914,0,0,1-4.643,16.029,2.42,2.42,0,1,0,4.179,2.442A42.242,42.242,0,0,0,93.5,77.42a2.42,2.42,0,0,0-4.84,0Z" fill="#fff"/>
    <path id="Path_7" data-name="Path 7" d="M87.059,96.412a5.179,5.179,0,0,0-1.764-1.627,5.865,5.865,0,0,0-2.369-.632,6.07,6.07,0,0,0-4.144,1.429,7.591,7.591,0,0,0-2.315,3.662,11.05,11.05,0,0,0-.483,4.06,6.846,6.846,0,0,0,1.849,4.493,6.261,6.261,0,0,0,3.893,1.674,7.606,7.606,0,0,0,3.772-.748,7.408,7.408,0,0,0,2.956-2.538c1.921-2.663,1.9-6.177,1.448-9.279a2.419,2.419,0,0,0-1.113-1.446,2.42,2.42,0,0,0-3.311.868,2.834,2.834,0,0,0-.244,1.865c.077.526-.067-.6-.009-.07.011.1.022.193.032.29q.037.363.058.728a13.48,13.48,0,0,1,0,1.608c-.014.206-.158,1.014,0,.221-.046.235-.077.472-.13.706s-.112.461-.183.687c-.029.09-.059.18-.09.268s-.065.177-.1.265l.134-.318a4.019,4.019,0,0,0-.319.628c-.119.205-.269.391-.389.594.343-.584.053-.081-.1.074-.081.081-.167.154-.251.232-.3.278.492-.334.129-.1-.161.1-.318.212-.487.305-.067.037-.135.073-.2.107-.205.1-.5.125.156-.056-.184.051-.36.132-.545.183-.074.02-.148.039-.223.056-.1.024-.621.1-.127.04s-.112,0-.241.007c-.186.006-.37-.007-.556-.016-.447-.021.64.131.208.026-.071-.017-.142-.029-.213-.047-.105-.026-.207-.061-.311-.091-.381-.108.552.28.181.083-.16-.085-.309-.173-.463-.268-.314-.192.259.174.233.182s-.215-.2-.238-.224c-.047-.05-.1-.12-.147-.166.477.415.228.316.077.065-.051-.084-.1-.171-.142-.258-.225-.413.178.535,0-.035-.048-.154-.055-.532-.156-.648l.044.348c-.012-.1-.022-.2-.03-.3s-.013-.2-.016-.3c-.009-.251,0-.5.008-.753.007-.146.018-.292.031-.437.018-.2.156-.6-.021.087.117-.454.165-.918.308-1.37.028-.088.058-.177.09-.264.074-.207.3-.483-.035.064.131-.214.225-.45.36-.664a2.072,2.072,0,0,0,.193-.282q-.364.46-.122.171l.092-.1c.1-.1.2-.19.3-.287.319-.314-.476.294-.1.081.084-.048.171-.1.253-.151.447-.286-.5.152-.094.027.208-.064.421-.106.628-.168.294-.086-.675.041-.234.037.117,0,.234-.009.351,0,.286.009.4.158-.184-.04.106.036.225.045.333.076.089.026.448.169.029-.007-.437-.184.019.036.108.085.2.108.069.211-.221-.178.1.14.5.59,0-.069a2.641,2.641,0,0,0,1.447,1.112,2.42,2.42,0,0,0,2.732-3.555Z" fill="#fff"/>
    <path id="Path_8" data-name="Path 8" d="M49.279,25.287a67.276,67.276,0,0,0,47.132.331A2.486,2.486,0,0,0,98.1,22.641a2.44,2.44,0,0,0-2.977-1.69,63.105,63.105,0,0,1-44.559-.331,2.439,2.439,0,0,0-2.977,1.69,2.475,2.475,0,0,0,1.69,2.977Z" fill="#fff"/>
    <path id="Path_9" data-name="Path 9" d="M71.61,10.665c1.778-1.075,4.376-.531,6.053,1.133a6.14,6.14,0,0,1,1.7,3.264,6.918,6.918,0,0,1-2.6,6.636,6.15,6.15,0,0,1-3.462,1.244c-2.359.092-4.637-1.259-5.233-3.25a6.275,6.275,0,0,0,4.64-.134,4.26,4.26,0,0,0,2.207-2.412,4.213,4.213,0,0,0,.023-3.265A6.161,6.161,0,0,0,71.61,10.665Z" fill="#fff"/>
  </g>
</svg>
