<svg xmlns="http://www.w3.org/2000/svg" width="149.697" height="147.406" viewBox="0 0 149.697 147.406">
  <g id="Group_1" data-name="Group 1" transform="translate(0 -1.381)">
    <path id="Path_1" data-name="Path 1" d="M88.137,25c4.8.326,9.6.793,14.371,1.44a18.209,18.209,0,0,1,5.609,1.279,8.276,8.276,0,0,1,3.443,3.743c4,7.371,5.148,16.187,5.56,24.441.456,9.157.176,18.368.107,27.532-.073,9.659-.2,19.318-.472,28.973-.311,10.849-.821,21.692-1.661,32.513l2.415-2.414Q84.081,144.6,50.558,143.67q-9.48-.266-18.95-.774c-3.106-.165-3.1,4.665,0,4.83q33.445,1.785,66.958.559,9.477-.351,18.943-.944a2.486,2.486,0,0,0,2.415-2.415c1.55-19.977,1.96-40.018,2.121-60.049.078-9.57.375-19.19-.086-28.753-.432-8.978-1.787-18.112-5.795-26.252a14.793,14.793,0,0,0-4.462-5.613,14.815,14.815,0,0,0-6.615-2.288c-5.62-.835-11.282-1.41-16.95-1.8a2.415,2.415,0,0,0,0,4.83Z" fill="#fff"/>
    <path id="Path_2" data-name="Path 2" d="M33.448,143.662a264.182,264.182,0,0,0,1.126-32.27c-.286-10.684-1.265-21.331-2.008-31.988A241.36,241.36,0,0,1,31.985,47.5c.273-4.345.53-8.857,1.959-13.007a11.038,11.038,0,0,1,7.947-7.441,49.785,49.785,0,0,1,7.691-1.224q4.5-.495,9.022-.8,9.039-.616,18.106-.483c3.109.042,3.11-4.787,0-4.83A193.207,193.207,0,0,0,43.731,21.74c-4.741.758-9.1,2.561-12,6.538-2.578,3.536-3.433,8.013-3.959,12.261-2.689,21.726.762,43.672,1.768,65.389a266.31,266.31,0,0,1-.924,37.734,2.431,2.431,0,0,0,2.415,2.414,2.467,2.467,0,0,0,2.414-2.414Z" fill="#fff"/>
    <path id="Path_3" data-name="Path 3" d="M30.215,77.754c-4.313.01-8.626-.022-12.939-.023-3.253,0-6.634-.07-9.776.906A9.938,9.938,0,0,0,.523,85.3a20.525,20.525,0,0,0-.491,5.819c.023,2.134.08,4.269.156,6.4.312,8.695.955,17.38.984,26.083.015,4.252-.118,8.508-.51,12.742a47.846,47.846,0,0,0-.654,6.139,4.856,4.856,0,0,0,3.372,4.494c1.822.633,3.8.364,5.687.307,2.439-.073,4.878-.062,7.317-.027,4.877.068,9.754.212,14.629-.03,3.093-.154,3.112-4.984,0-4.83-7.866.392-15.739-.231-23.605.121a10.322,10.322,0,0,1-2.042.007c-.083-.013-.683-.343-.489-.024-.247-.406.077-1.521.131-1.927.146-1.1.28-2.19.392-3.289.4-3.917.569-7.854.6-11.791.059-7.909-.447-15.807-.805-23.7C5.015,97.869,4.848,93.935,4.854,90c0-2.8.421-5.28,3.186-6.453s6.049-.989,9-.989c4.392,0,8.784.032,13.176.022,3.107-.007,3.113-4.836,0-4.829Z" fill="#fff"/>
    <path id="Path_4" data-name="Path 4" d="M119.607,82.583c3.963.009,7.926-.017,11.889-.022,2.974,0,6.065-.187,8.965.6,2.568.695,4.136,2.234,4.337,4.992a103.025,103.025,0,0,1-.2,11.746c-.337,8.059-.885,16.114-.892,24.184,0,4.094.134,8.191.512,12.268.174,1.88.659,3.848.655,5.729a1.338,1.338,0,0,1-.038.4c.077-.1.1-.129-.072-.055a4.419,4.419,0,0,1-1.834.133c-8.436-.29-16.884.27-25.314-.151-3.106-.155-3.1,4.675,0,4.83,8.241.411,16.493-.255,24.735.123a9.062,9.062,0,0,0,4.952-.795,4.946,4.946,0,0,0,2.37-4.9c-.39-4.378-.958-8.689-1.079-13.094-.244-8.853.337-17.7.741-26.539.2-4.271.443-8.576.343-12.853-.088-3.815-1.333-7.358-4.755-9.377-3.144-1.855-7.021-2.059-10.579-2.07-4.911-.015-9.822.032-14.733.021-3.107-.007-3.112,4.822,0,4.829Z" fill="#fff"/>
    <path id="Path_5" data-name="Path 5" d="M45.329,51.156c-.344,4.816-.307,9.887,3.093,13.7,3.539,3.967,9.11,3.046,13.874,2.939,2.5-.057,5.688.407,7.12-2.157a9.924,9.924,0,0,0,.858-3.485,36.063,36.063,0,0,0,.361-4.178c.092-4.083-.109-11.449-5.869-11.282-1.4.04-2.817.411-4.211.571q-2.165.25-4.341.359a68.764,68.764,0,0,1-8.708-.129,2.435,2.435,0,0,0-2.414,2.414,2.462,2.462,0,0,0,2.414,2.415,68.256,68.256,0,0,0,12.656-.185q1.7-.186,3.391-.444a10.067,10.067,0,0,1,1.175-.176c.534-.016.48.12.23-.062.267.194.341.581.471,1.128a15.617,15.617,0,0,1,.321,2.633,30.6,30.6,0,0,1-.188,6.043c-.07.519-.157,1.041-.266,1.554-.079.373-.348.743.155.294s.3-.132.146-.219-.543.014-.744.018l-1.771.04c-2.094.048-4.188.107-6.283.142-1.6.026-3.2-.037-4.334-1.019-3.021-2.609-2.569-7.248-2.307-10.913a2.415,2.415,0,0,0-4.829,0Z" fill="#fff"/>
    <path id="Path_6" data-name="Path 6" d="M79.25,51.156c-.344,4.816-.307,9.887,3.093,13.7,3.539,3.967,9.11,3.046,13.874,2.939,2.5-.057,5.688.407,7.12-2.157a9.924,9.924,0,0,0,.858-3.485,35.843,35.843,0,0,0,.361-4.178c.093-4.083-.109-11.449-5.869-11.282-1.4.04-2.817.411-4.211.571q-2.165.25-4.341.359a68.746,68.746,0,0,1-8.707-.129,2.435,2.435,0,0,0-2.415,2.414,2.462,2.462,0,0,0,2.415,2.415,68.245,68.245,0,0,0,12.655-.185q1.7-.186,3.391-.444a10.068,10.068,0,0,1,1.175-.176c.534-.016.48.12.23-.062.267.194.341.581.472,1.128a15.719,15.719,0,0,1,.32,2.633,30.674,30.674,0,0,1-.187,6.043c-.071.519-.158,1.041-.267,1.554-.079.373-.348.743.155.294s.3-.132.146-.219-.543.014-.744.018l-1.77.04c-2.1.048-4.189.107-6.284.142-1.6.026-3.2-.037-4.334-1.019-3.02-2.609-2.569-7.248-2.307-10.913a2.415,2.415,0,0,0-4.829,0Z" fill="#fff"/>
    <path id="Path_7" data-name="Path 7" d="M44.93,81.885c-.345,4.816-.307,9.887,3.093,13.7,3.539,3.967,9.109,3.046,13.873,2.939,2.5-.056,5.689.407,7.121-2.156a9.935,9.935,0,0,0,.858-3.485,36.1,36.1,0,0,0,.361-4.178c.092-4.084-.109-11.449-5.869-11.283-1.4.041-2.817.411-4.211.572q-2.164.249-4.342.358a68.75,68.75,0,0,1-8.707-.129,2.435,2.435,0,0,0-2.414,2.415,2.463,2.463,0,0,0,2.414,2.415,68.158,68.158,0,0,0,12.655-.186q1.7-.186,3.392-.444a10.065,10.065,0,0,1,1.175-.175c.534-.016.48.119.23-.063.267.195.341.581.471,1.129a15.617,15.617,0,0,1,.321,2.632,30.607,30.607,0,0,1-.188,6.044c-.07.519-.158,1.041-.266,1.554-.079.372-.348.743.155.293s.3-.132.146-.219-.543.014-.744.019l-1.771.04c-2.094.047-4.188.107-6.283.141-1.6.027-3.2-.037-4.334-1.019-3.021-2.609-2.569-7.247-2.307-10.912a2.436,2.436,0,0,0-2.415-2.415,2.461,2.461,0,0,0-2.414,2.415Z" fill="#fff"/>
    <path id="Path_8" data-name="Path 8" d="M78.851,81.885c-.344,4.816-.307,9.887,3.093,13.7,3.539,3.967,9.11,3.046,13.874,2.939,2.5-.056,5.688.407,7.12-2.156a9.935,9.935,0,0,0,.858-3.485,35.88,35.88,0,0,0,.361-4.178c.092-4.084-.109-11.449-5.869-11.283-1.4.041-2.817.411-4.211.572q-2.165.249-4.341.358a68.763,68.763,0,0,1-8.708-.129,2.436,2.436,0,0,0-2.414,2.415,2.463,2.463,0,0,0,2.414,2.415,68.169,68.169,0,0,0,12.656-.186q1.7-.186,3.391-.444a10.065,10.065,0,0,1,1.175-.175c.534-.016.48.119.23-.063.267.195.341.581.472,1.129a15.72,15.72,0,0,1,.32,2.632,30.682,30.682,0,0,1-.187,6.044c-.071.519-.158,1.041-.267,1.554-.079.372-.348.743.155.293s.3-.132.146-.219-.543.014-.744.019l-1.771.04c-2.094.047-4.188.107-6.283.141-1.6.027-3.2-.037-4.334-1.019-3.021-2.609-2.569-7.247-2.307-10.912a2.436,2.436,0,0,0-2.415-2.415,2.461,2.461,0,0,0-2.414,2.415Z" fill="#fff"/>
    <path id="Path_9" data-name="Path 9" d="M13.988,143.57q-.2-7.226-.251-14.454-.024-3.613-.01-7.228a30.153,30.153,0,0,1,.158-5.735c.126-.622.26-1.068.855-1.336a8.275,8.275,0,0,1,2.754-.5,14.3,14.3,0,0,1,3.067.106c.058.009,1.42.362,1.454.317l-.425-.59-.018.025a10.16,10.16,0,0,0,.045,1.1c.177,4.455.319,8.911.461,13.367.163,5.129.324,10.257.535,15.384.127,3.1,4.957,3.113,4.829,0-.214-5.2-.377-10.409-.542-15.614q-.127-4-.263-8-.063-1.8-.131-3.59a18.647,18.647,0,0,0-.259-3.956c-.763-2.875-4.212-3.219-6.716-3.378-2.475-.158-5.611.053-7.732,1.467-2.063,1.375-2.709,3.723-2.846,6.071-.15,2.574-.061,5.179-.06,7.756q0,9.4.266,18.791c.085,3.1,4.915,3.114,4.829,0Z" fill="#fff"/>
    <path id="Path_10" data-name="Path 10" d="M128.522,143.969q-.19-6.864-.246-13.731-.027-3.494-.018-6.987c.005-2.036-.128-4.141.081-6.169a2.78,2.78,0,0,1,.491-1.6,3.98,3.98,0,0,1,2.04-.642,13.783,13.783,0,0,1,2.969-.138,11.865,11.865,0,0,1,1.383.141c.223.037.445.085.666.134,1.345.3.008-.238.236-.431-.255.216.084,2.494.1,2.911l.14,3.368.288,6.976.648,15.636c.128,3.1,4.958,3.113,4.829,0l-.667-16.117-.329-7.938-.159-3.849c-.058-1.39-.061-2.846-1.084-3.924-1.645-1.734-5.19-1.822-7.411-1.747-2.4.081-5.245.441-7.038,2.2-1.553,1.523-1.915,3.792-1.975,5.869-.074,2.573-.043,5.155-.04,7.729q.009,9.156.265,18.309c.086,3.1,4.916,3.114,4.83,0Z" fill="#fff"/>
    <path id="Path_11" data-name="Path 11" d="M63.859,145.356q-.53-10.2-.736-20.421c-.066-3.326-.116-6.653-.119-9.98,0-2.094-.124-4.873,2-6.03,2.054-1.121,4.814-.836,7.061-.825q5.124.025,10.244.269c.671.032,1.985-.124,2.472.423.613.689.395,2.844.437,3.642q.269,5,.363,10.009.213,11.447-.486,22.883c-.188,3.1,4.642,3.093,4.829,0q.683-11.309.49-22.644-.1-5.6-.419-11.2c-.19-3.336-.832-6.885-4.7-7.668a30.726,30.726,0,0,0-4.851-.356q-2.792-.111-5.587-.157c-3.22-.054-6.676-.318-9.831.487a8.592,8.592,0,0,0-6.323,5.961c-.961,3.277-.527,7.069-.486,10.434q.155,12.593.813,25.173c.161,3.092,4.991,3.111,4.829,0Z" fill="#fff"/>
    <path id="Path_12" data-name="Path 12" d="M64.271,30.92c7.539-.874,14.854-5.006,17.086-12.694,2-6.895-1.9-15.176-9.384-16.426V6.457a16,16,0,0,1,9.219.844,9.428,9.428,0,0,1,5.13,7.081c.636,3.2.251,7.173-1.691,9.876-1.975,2.748-5.544,4.238-8.761,4.866a17.293,17.293,0,0,1-11.063-1.57l.866,3.3.683-1.134c1.606-2.67-2.568-5.1-4.17-2.438L61.5,28.421a2.437,2.437,0,0,0,.867,3.3A22.533,22.533,0,0,0,75.822,34c4.341-.6,8.926-2.517,11.867-5.871,5.9-6.728,4.855-19.329-2.822-24.3-4.165-2.7-9.44-2.8-14.178-2.024-2.309.377-2.3,4.272,0,4.657,5.121.855,7.4,6.179,5.9,10.842-1.685,5.257-7.114,8.188-12.32,8.791A2.489,2.489,0,0,0,61.856,28.5,2.43,2.43,0,0,0,64.271,30.92Z" fill="#fff"/>
  </g>
</svg>
