<svg xmlns="http://www.w3.org/2000/svg" width="62.481" height="83.724" viewBox="0 0 62.481 83.724">
  <g id="katman_2" data-name="katman 2" transform="translate(0.007 0.003)">
    <g id="Layer_1" data-name="Layer 1">
      <path id="Path_263" data-name="Path 263" d="M36.85,8C34.64,2.13,28.13-.64,22.13.12a18.74,18.74,0,0,0-15.2,13c-2,6.58-.24,14.29,5.17,18.75,6,4.91,14.19,3.88,20.11-.61,6.76-5.14,9.7-14.16,5.9-22-1-2.17-4.29-.27-3.24,1.9,2.61,5.38.84,11.71-3.31,15.76s-10.6,6.2-15.74,3C11.33,27.15,9.24,21.58,10,16.48A15.11,15.11,0,0,1,20.17,4.38C24.7,2.93,31.35,4,33.23,9,34.07,11.24,37.69,10.27,36.85,8Z" fill="#fff"/>
      <path id="Path_264" data-name="Path 264" d="M3.76,77a78.49,78.49,0,0,1,7.77-29.28c1.94-3.81,4.48-7.49,8.23-9.7a8.22,8.22,0,0,1,6.47-1.21,11.43,11.43,0,0,1,5.05,3.92c3.31,4,5,9,6,14,.5,2.36,4.12,1.36,3.62-1a36.26,36.26,0,0,0-6-14.33c-3.21-4.29-7.68-7.67-13.31-6.24-5,1.27-8.84,5.23-11.52,9.39a60.43,60.43,0,0,0-6.39,14.7A88.48,88.48,0,0,0,0,77c-.19,2.41,3.56,2.4,3.75,0Z" fill="#fff"/>
      <path id="Path_265" data-name="Path 265" d="M1.87,79a153.911,153.911,0,0,0,29.21,2.61c2.42,0,2.42-3.76,0-3.75A149.16,149.16,0,0,1,2.87,75.34C.51,74.91-.5,78.52,1.87,79Z" fill="#fff"/>
      <path id="Path_266" data-name="Path 266" d="M57.09,29.39c-1.72-4.56-6.66-6.73-11.33-6.13A14.2,14.2,0,0,0,34.23,33.2a13.46,13.46,0,0,0,4,14.11c4.46,3.66,10.62,3,15.1-.31,5.28-3.9,7.54-10.79,4.63-16.86-1-2.18-4.28-.28-3.24,1.89,1.82,3.8.49,8.21-2.46,11-2.77,2.63-7.24,4.18-10.73,2.05a9.37,9.37,0,0,1-4-9.33,10.5,10.5,0,0,1,7.16-8.43c3-.95,7.55-.3,8.82,3.06a1.93,1.93,0,0,0,2.31,1.31,1.89,1.89,0,0,0,1.31-2.31Z" fill="#fff"/>
      <path id="Path_267" data-name="Path 267" d="M33,79.86a61.27,61.27,0,0,1,2.88-14.37c1.29-3.93,2.88-8.16,5.69-11.27a10,10,0,0,1,5-3.27c2.05-.48,3.7.66,5.05,2.1,2.94,3.16,4.3,7.48,5.06,11.64,1,5.61,1,11.36,2.14,17,.48,2.36,4.09,1.36,3.61-1-2.08-10.16-.51-22-8.16-30.25a9.49,9.49,0,0,0-6.38-3.32A10.82,10.82,0,0,0,41,49.59c-3.82,2.95-6,7.41-7.7,11.86a65,65,0,0,0-4.1,18.41c-.19,2.4,3.56,2.39,3.75,0Z" fill="#fff"/>
      <path id="Path_268" data-name="Path 268" d="M30.93,81.81a112.79,112.79,0,0,0,29.69,1.55c2.38-.2,2.41-4,0-3.75a109,109,0,0,1-28.69-1.42c-2.36-.43-3.37,3.18-1,3.62Z" fill="#fff"/>
    </g>
  </g>
</svg>
