<svg xmlns="http://www.w3.org/2000/svg" width="90.544" height="66.471" viewBox="0 0 90.544 66.471">
  <g id="katman_2" data-name="katman 2" transform="translate(0.014 0.003)">
    <g id="Layer_1" data-name="Layer 1">
      <path id="Path_284" data-name="Path 284" d="M19.92,66.46a146.2,146.2,0,0,0,23.27-1.62c3.89-.51,7.79-.93,11.71-1.13a34,34,0,0,1,4.94-.11,6.473,6.473,0,0,1,1.13.16l1.83.31c2.77.49,5.53,1.05,8.32,1.43a19.391,19.391,0,0,0,3.31.29,11.92,11.92,0,0,0,4.42-1.33,17.77,17.77,0,0,0,8.35-8.27A31.14,31.14,0,0,0,90.53,43.1c0-8.63-6.42-16.15-14.08-19.42l.86,2.12C80,13,69.9-.22,56.58,0A22.32,22.32,0,0,0,40,7.69a17.95,17.95,0,0,0-1.41,1.87,4.65,4.65,0,0,1-.52.83c.39-.36.49-.14,0-.46a5,5,0,0,0-.85-.29,20.26,20.26,0,0,0-6-1A17,17,0,0,0,15.83,33L18,30.21C9.9,28.79,3.17,34.57.89,42a16.74,16.74,0,0,0,.44,12A22.79,22.79,0,0,0,8.1,62.79,20.46,20.46,0,0,0,20,66.36c2.41,0,2.41-3.72,0-3.75-3.56,0-7.72-.93-10.41-3.43s-5.35-6.25-5.8-9.93C2.89,41.93,8.65,32.37,17,33.82a1.9,1.9,0,0,0,2.12-2.75A13.28,13.28,0,0,1,23.22,15a13.63,13.63,0,0,1,8.17-2.62,17.26,17.26,0,0,1,5.22,1c1.78.6,3.27.83,4.52-.87a34.45,34.45,0,0,1,2.32-3.08,16.85,16.85,0,0,1,3-2.52A19.36,19.36,0,0,1,53.86,4,16.62,16.62,0,0,1,68.39,8.41,18.18,18.18,0,0,1,73.7,24.8a1.91,1.91,0,0,0,.86,2.12c6,2.55,11.51,7.95,12.16,14.73.37,3.93-.84,8.26-2.39,11.85a14.65,14.65,0,0,1-7.49,7.78,16,16,0,0,1-2.31.76c-.26.07.41,0,0,0h-.64a25.479,25.479,0,0,1-2.9-.33c-2.61-.4-5.2-.92-7.81-1.37-6.17-1.07-12.54-.19-18.71.59-8.18,1-16.25,2-24.52,1.78-2.42-.07-2.41,3.68,0,3.75Z" fill="#fff"/>
      <path id="Path_285" data-name="Path 285" d="M29.85,32.33q16.13.48,32.23-.51c2.4-.14,2.42-3.89,0-3.75q-16.09,1-32.23.51c-2.41-.07-2.41,3.68,0,3.75Z" fill="#fff"/>
      <path id="Path_286" data-name="Path 286" d="M62,27.79c-.42-.16-.84-.34-1.26-.51-.12-.05-.11,0,0,0l-.33-.15-.67-.29c-.77-.34-1.54-.69-2.3-1.06-1.58-.77-3.12-1.59-4.64-2.47L51,26.57l.42.19A1.93,1.93,0,0,0,54,26.09a1.9,1.9,0,0,0-.68-2.57l-.42-.19a1.93,1.93,0,0,0-2.6.67,1.9,1.9,0,0,0,.7,2.57,76.849,76.849,0,0,0,10,4.84,1.89,1.89,0,0,0,2.31-1.31A1.94,1.94,0,0,0,62,27.79Z" fill="#fff"/>
      <path id="Path_287" data-name="Path 287" d="M60.19,28.82,50.4,35.63a1.88,1.88,0,0,0,1.44,3.43l.47-.12a1.89,1.89,0,0,0,1.31-2.3,1.92,1.92,0,0,0-2.31-1.31l-.47.11,1.45,3.43,9.8-6.81a1.88,1.88,0,1,0-1.9-3.24Z" fill="#fff"/>
      <path id="Path_288" data-name="Path 288" d="M29.85,49.36q16.13.48,32.23-.5c2.4-.15,2.42-3.9,0-3.75q-16.09,1-32.23.5c-2.41-.07-2.41,3.68,0,3.75Z" fill="#fff"/>
      <path id="Path_289" data-name="Path 289" d="M30.27,48.44A75.6,75.6,0,0,0,40.33,43.6,1.9,1.9,0,0,0,41,41a2,2,0,0,0-2.57-.68l-.42.19a1.89,1.89,0,0,0-.68,2.57,1.94,1.94,0,0,0,2.57.67l.42-.19-1.89-3.24c-1.52.88-3.06,1.7-4.64,2.47-.76.37-1.53.72-2.3,1.07l-.67.29-.22.09-1.34.55A1.92,1.92,0,0,0,28,47.13a1.9,1.9,0,0,0,2.31,1.31Z" fill="#fff"/>
      <path id="Path_290" data-name="Path 290" d="M29.22,49.09,39,55.9l1.44-3.43L40,52.36A1.887,1.887,0,1,0,39,56l.47.11a1.88,1.88,0,0,0,1.44-3.43l-9.79-6.81a1.89,1.89,0,0,0-2.57.67,1.93,1.93,0,0,0,.67,2.57Z" fill="#fff"/>
    </g>
  </g>
</svg>
