<svg xmlns="http://www.w3.org/2000/svg" xmlns:xlink="http://www.w3.org/1999/xlink" width="906.228" height="608.172" viewBox="0 0 906.228 608.172">
  <defs>
    <clipPath id="clip-path">
      <rect id="Rectangle_756" data-name="Rectangle 756" width="481.428" height="572.811" fill="none"/>
    </clipPath>
  </defs>
  <g id="oopps" transform="translate(-39.964 -20.56)">
    <g id="katman_2" data-name="katman 2" transform="translate(39.964 20.559)">
      <g id="Layer_2" data-name="Layer 2" transform="translate(0)">
        <path id="Path_624" data-name="Path 624" d="M237.753,849.513c0,9.8,5.22,17.743,11.663,17.743H509.468c6.44,0,11.663-7.947,11.663-17.743h0c0-9.8-5.224-17.743-11.663-17.743H249.413c-6.443,0-11.663,7.947-11.663,17.743Z" transform="translate(-237.75 -499.088)" fill="#009e47"/>
        <path id="Path_625" data-name="Path 625" d="M1725.2,969.853c0,9.8,5.22,17.739,11.66,17.739h260.055c6.439,0,11.66-7.943,11.66-17.739h0c0-9.8-5.221-17.743-11.66-17.743H1736.86C1730.421,952.11,1725.2,960.053,1725.2,969.853Z" transform="translate(-1119.149 -567.236)" fill="#009e47"/>
        <path id="Path_626" data-name="Path 626" d="M702.13,725.873c0,9.8,5.22,17.739,11.66,17.739H909.153c6.44,0,11.66-7.943,11.66-17.739h0c0-9.8-5.22-17.743-11.66-17.743H713.79C707.35,708.13,702.13,716.073,702.13,725.873Z" transform="translate(-512.275 -429.072)" fill="#00a651"/>
        <path id="Path_627" data-name="Path 627" d="M429,725.873c0,9.8,5.224,17.739,11.663,17.739h31.551c6.443,0,11.663-7.943,11.663-17.739h0c0-9.8-5.22-17.743-11.663-17.743H440.677c-6.44,0-11.663,7.943-11.663,17.743Z" transform="translate(-331.068 -429.072)" fill="#009e47"/>
        <path id="Path_628" data-name="Path 628" d="M495.13,1218.933c0,9.8,5.22,17.739,11.66,17.739h31.544c6.44,0,11.66-7.943,11.66-17.739h0c0-9.8-5.22-17.743-11.66-17.743H506.79C500.35,1201.19,495.13,1209.133,495.13,1218.933Z" transform="translate(-389.171 -708.288)" fill="#009e47"/>
        <path id="Path_629" data-name="Path 629" d="M1827.558,1087.553c0,9.8-5.224,17.743-11.663,17.743H1555.844c-6.443,0-11.663-7.947-11.663-17.743h0c0-9.8,5.22-17.743,11.663-17.743h260.051C1822.334,1069.81,1827.558,1077.757,1827.558,1087.553Z" transform="translate(-1022.859 -633.889)" fill="#009e47"/>
        <path id="Path_630" data-name="Path 630" d="M2500.415,1094.349c0,9.8-5.221,17.743-11.66,17.743H2457.2c-6.439,0-11.66-7.943-11.66-17.743h0c0-9.8,5.221-17.739,11.66-17.739h31.554C2495.194,1076.61,2500.415,1084.553,2500.415,1094.349Z" transform="translate(-1594.187 -637.74)" fill="#009e47"/>
        <path id="Path_631" data-name="Path 631" d="M502.035,861.68c0,16.515-8.8,29.881-19.659,29.881S462.72,878.175,462.72,861.68s8.8-29.91,19.656-29.91S502.035,845.16,502.035,861.68Z" transform="translate(-351.315 -498.193)" fill="#009e47"/>
        <path id="Path_632" data-name="Path 632" d="M524.492,642.353c0,22.209-11.837,40.227-26.439,40.227s-26.443-18.01-26.443-40.227,11.84-40.223,26.443-40.223S524.492,620.14,524.492,642.353Z" transform="translate(-374.569 -367.818)" fill="#00a651"/>
        <path id="Path_633" data-name="Path 633" d="M1689.641,492.553c0,9.8-5.22,17.743-11.66,17.743H1646.42c-6.439,0-11.66-7.947-11.66-17.743h0c0-9.8,5.221-17.743,11.66-17.743h31.554c6.44,0,11.66,7.947,11.66,17.743Z" transform="translate(-1098.389 -296.945)" fill="#a2d9d2"/>
        <ellipse id="Ellipse_102" data-name="Ellipse 102" cx="26.443" cy="40.227" rx="26.443" ry="40.227" transform="translate(522.378 132.632)" fill="#009e47"/>
        <path id="Path_634" data-name="Path 634" d="M2412.125,921.765c0,16.516-8.8,29.906-19.656,29.906s-19.659-13.39-19.659-29.906,8.8-29.905,19.659-29.905S2412.125,905.242,2412.125,921.765Z" transform="translate(-1546.224 -532.154)" fill="#009e47"/>
        <path id="Path_635" data-name="Path 635" d="M2275.292,843.392c0,27.458-14.623,49.667-32.661,49.667s-32.661-22.245-32.661-49.667,14.623-49.692,32.661-49.692S2275.292,815.949,2275.292,843.392Z" transform="translate(-1455.397 -475.142)" fill="#009e47"/>
        <ellipse id="Ellipse_103" data-name="Ellipse 103" cx="50.379" cy="76.645" rx="50.379" ry="76.645" transform="translate(658.813 257.855)" fill="#009e47"/>
        <ellipse id="Ellipse_104" data-name="Ellipse 104" cx="59.795" cy="90.968" rx="59.795" ry="90.968" transform="translate(544.655 239.351)" fill="#009e47"/>
        <path id="Path_636" data-name="Path 636" d="M2143.329,1119.5c0,27.459-14.623,49.688-32.661,49.688S2078,1146.944,2078,1119.5s14.623-49.692,32.661-49.692S2143.329,1092.059,2143.329,1119.5Z" transform="translate(-1373.35 -628.839)" fill="#009e47"/>
        <path id="Path_637" data-name="Path 637" d="M607.592,906.557c0,27.458-14.623,49.692-32.661,49.692S542.27,934,542.27,906.557s14.623-49.667,32.661-49.667S607.592,879.115,607.592,906.557Z" transform="translate(-418.283 -510.731)" fill="#009e47"/>
        <ellipse id="Ellipse_105" data-name="Ellipse 105" cx="59.638" cy="90.73" rx="59.638" ry="90.73" transform="translate(181.169 364.034)" fill="#009e47"/>
        <path id="Path_638" data-name="Path 638" d="M875.7,500.43c0,38.042-20.272,68.876-45.274,68.876S785.13,538.472,785.13,500.43s20.269-68.88,45.291-68.88S875.7,462.388,875.7,500.43Z" transform="translate(-568.435 -270.277)" fill="#00a651"/>
        <ellipse id="Ellipse_106" data-name="Ellipse 106" cx="59.318" cy="90.241" rx="59.318" ry="90.241" transform="translate(286.215 115.68)" fill="#009e47"/>
        <path id="Path_639" data-name="Path 639" d="M772.082,645.489c0,17.767-9.474,32.183-21.158,32.183s-21.144-14.416-21.144-32.183,9.47-32.179,21.151-32.179S772.082,627.722,772.082,645.489Z" transform="translate(-535.539 -374.593)" fill="#009e47"/>
        <path id="Path_640" data-name="Path 640" d="M1258.315,645.489c0,17.767-9.47,32.183-21.154,32.183S1216,663.256,1216,645.489s9.47-32.179,21.154-32.179S1258.315,627.722,1258.315,645.489Z" transform="translate(-838.385 -374.593)" fill="#009e47"/>
        <path id="Path_641" data-name="Path 641" d="M980.73,912.8c0,25.1-13.376,45.444-29.872,45.444S921,937.88,921,912.8s13.373-45.44,29.869-45.44S980.73,887.7,980.73,912.8Z" transform="translate(-653.996 -517.005)" fill="#009e47"/>
        <path id="Path_642" data-name="Path 642" d="M692.232,868.71,664.73,883.7l36.6,29.9Z" transform="translate(-495.171 -519.653)" fill="#009e47"/>
        <g id="Group_174" data-name="Group 174" transform="translate(217.4)" clip-path="url(#clip-path)">
          <path id="Path_643" data-name="Path 643" d="M1142.01,859.989c-21.76,0-42.867-6.608-62.74-19.634-19.193-12.586-36.437-30.6-51.23-53.546s-26.426-49.666-34.544-79.41a379.879,379.879,0,0,1-.007-194.517c8.118-29.752,19.751-56.471,34.544-79.41s32.045-40.968,51.237-53.558c19.874-13.026,40.98-19.634,62.74-19.634s42.86,6.612,62.737,19.634c19.193,12.586,36.438,30.6,51.234,53.546s26.422,49.666,34.541,79.41a379.748,379.748,0,0,1,0,194.508c-8.118,29.752-19.751,56.471-34.541,79.41s-32.041,40.96-51.234,53.546C1184.87,853.381,1163.756,859.989,1142.01,859.989Zm0-499.137c-88.676,0-160.815,111.828-160.815,249.285s72.139,249.289,160.815,249.289,160.812-111.832,160.812-249.289-72.139-249.285-160.812-249.285Z" transform="translate(-894.575 -240.125)" fill="#00a651"/>
          <path id="Path_644" data-name="Path 644" d="M1105.667,847.5h-2.132v-1.131c1.451.029,2.911.029,4.362,0V847.5C1107.169,847.489,1106.416,847.5,1105.667,847.5Zm-6.511-.177c-1.451-.082-2.925-.189-4.376-.325l.044-1.127c1.444.132,2.912.239,4.359.321Zm13.138,0-.027-1.131c1.447-.078,2.915-.189,4.359-.325l.044,1.127c-1.451.128-2.922.239-4.376.3Zm-21.886-.823c-1.451-.189-2.918-.411-4.359-.65l.078-1.123c1.437.239,2.9.457,4.342.646Zm30.648,0-.061-1.127c1.44-.189,2.9-.411,4.342-.65l.082,1.123c-1.464.239-2.932.461-4.379.65Zm-39.342-1.448c-1.437-.3-2.9-.625-4.335-.979l.116-1.115c1.43.35,2.884.675,4.315.975Zm48.053-.025-.1-1.119c1.437-.3,2.888-.629,4.318-.979l.116,1.115c-1.454.35-2.911.679-4.352.979Zm-56.706-2.094c-1.43-.411-2.877-.848-4.3-1.3l.15-1.111c1.417.461,2.857.9,4.281,1.3Zm65.359-.033-.129-1.111c1.427-.411,2.867-.848,4.281-1.3l.15,1.107c-1.437.453-2.884.9-4.318,1.3Zm-73.937-2.74c-1.417-.514-2.847-1.066-4.253-1.646l.184-1.095c1.4.564,2.823,1.111,4.236,1.621Zm82.516-.041-.167-1.1c1.41-.51,2.833-1.057,4.236-1.625l.184,1.09c-1.423.564-2.857,1.115-4.27,1.634Zm-91-3.382c-1.393-.621-2.806-1.275-4.2-1.954l.218-1.074c1.383.671,2.789,1.325,4.178,1.942Zm99.474-.049-.2-1.086c1.389-.617,2.8-1.275,4.182-1.95l.218,1.078c-1.406.675-2.82,1.333-4.216,1.954Zm-107.848-4.02c-1.383-.732-2.779-1.5-4.144-2.279l.252-1.057c1.362.778,2.748,1.539,4.124,2.267Zm116.212-.053-.238-1.066c1.362-.724,2.752-1.485,4.114-2.263l.252,1.057c-1.389.778-2.772,1.543-4.144,2.267Zm-124.48-4.654c-1.362-.823-2.724-1.708-4.063-2.588l.283-1.041c1.338.881,2.7,1.749,4.049,2.58Zm132.683-.041-.269-1.053c1.338-.823,2.694-1.683,4.022-2.563l.286,1.041c-1.331.872-2.693,1.736-4.039,2.567Zm-140.768-5.308c-1.328-.934-2.666-1.909-3.978-2.88l.317-1.016c1.308.979,2.639,1.95,3.961,2.88Zm148.815,0-.3-1.024c1.311-.93,2.636-1.893,3.937-2.88l.317,1.016c-1.318.987-2.65,1.959-3.967,2.888Zm7.863-5.9-.34-1c1.284-1.025,2.578-2.086,3.845-3.16l.341.988c-1.27,1.078-2.571,2.148-3.858,3.172Zm-164.568-.021c-1.294-1.033-2.6-2.1-3.879-3.189l.34-.992c1.274,1.082,2.574,2.148,3.862,3.176Zm172.24-6.476-.364-.975c1.25-1.123,2.51-2.284,3.746-3.452l.381.967c-1.257,1.169-2.5,2.333-3.776,3.456Zm-179.947-.049c-1.26-1.131-2.527-2.3-3.77-3.481l.381-.963c1.236,1.173,2.5,2.337,3.746,3.464Zm187.408-7.019-.395-.95c1.216-1.214,2.438-2.469,3.633-3.728l.409.934c-1.212,1.259-2.438,2.522-3.661,3.74Zm-194.893-.078c-1.223-1.234-2.452-2.469-3.654-3.761l.409-.934c1.2,1.267,2.425,2.526,3.64,3.744Zm202.129-7.546-.422-.922c1.172-1.3,2.353-2.646,3.511-4l.439.905c-1.178,1.354-2.364,2.72-3.542,4.012Zm-209.379-.107c-1.185-1.317-2.384-2.67-3.535-4.028l.439-.905c1.158,1.354,2.343,2.7,3.518,4.012Zm216.374-8.06-.453-.885c1.134-1.395,2.275-2.827,3.385-4.263l.467.868C1219.58,784.513,1218.436,785.949,1217.315,787.348Zm-223.392-.123c-1.141-1.4-2.285-2.847-3.406-4.287l.467-.868c1.114,1.436,2.251,2.88,3.388,4.271Zm230.1-8.55-.48-.852c1.09-1.477,2.183-3,3.252-4.526l.49.823c-1.066,1.539-2.162,3.061-3.259,4.546Zm-236.833-.152c-1.1-1.485-2.193-3.012-3.262-4.526l.49-.823c1.066,1.518,2.159,3.041,3.252,4.526Zm243.286-9.027-.5-.823c1.042-1.559,2.088-3.156,3.106-4.752l.518.794c-1.018,1.6-2.067,3.209-3.116,4.773Zm-249.74-.165c-1.045-1.563-2.094-3.168-3.116-4.777l.518-.794c1.022,1.6,2.064,3.2,3.1,4.756Zm255.9-9.492-.531-.773c.991-1.646,1.985-3.292,2.956-4.983l.541.757c-.97,1.67-1.968,3.349-2.963,4.991Zm-262.06-.173c-.994-1.646-1.992-3.32-2.963-5l.542-.757c.97,1.675,1.961,3.349,2.952,4.983Zm267.935-9.949-.555-.732c.943-1.708,1.883-3.456,2.8-5.2l.569.712C1244.388,746.248,1243.445,748,1242.515,749.716Zm-273.758-.169c-.943-1.708-1.887-3.464-2.8-5.213l.565-.712c.913,1.745,1.852,3.489,2.789,5.192Zm279.292-10.368-.576-.691c.885-1.777,1.771-3.6,2.632-5.406l.582.654c-.875,1.835-1.764,3.662-2.656,5.443Zm-284.815-.165c-.889-1.782-1.774-3.6-2.632-5.419l.586-.667c.855,1.8,1.74,3.617,2.626,5.394Zm290.015-10.788-.6-.646c.828-1.839,1.655-3.7,2.459-5.6l.606.625c-.821,1.88-1.652,3.769-2.486,5.616Zm-295.2-.144c-.831-1.843-1.659-3.732-2.462-5.608l.61-.621c.8,1.868,1.624,3.744,2.452,5.583ZM1258.1,716.9l-.616-.6c.77-1.9,1.536-3.843,2.281-5.76l.623.58c-.763,1.926-1.529,3.876-2.305,5.785Zm-304.883-.119c-.773-1.9-1.539-3.847-2.282-5.76l.627-.58c.739,1.926,1.5,3.863,2.271,5.76Zm309.371-11.574-.634-.551c.708-1.954,1.417-3.958,2.1-5.945l.644.531c-.7,1.991-1.41,4.007-2.125,5.966Zm-313.842-.074c-.715-1.963-1.42-3.962-2.1-5.945l.644-.531c.681,1.975,1.379,3.966,2.088,5.921ZM1266.71,693.2l-.65-.5c.65-2.016,1.291-4.069,1.907-6.1l.661.481c-.637,2.028-1.28,4.09-1.934,6.11Zm-322.063-.025c-.65-2.012-1.291-4.061-1.907-6.094l.661-.477c.613,2.024,1.253,4.065,1.9,6.069Zm-3.719-12.253c-.579-2.057-1.154-4.143-1.7-6.229l.681-.411c.552,2.057,1.124,4.16,1.7,6.2Zm329.517-.045-.681-.453c.589-2.057,1.165-4.164,1.7-6.242l.681.411c-.552,2.09-1.131,4.2-1.71,6.271ZM937.6,668.381c-.521-2.107-1.022-4.254-1.519-6.373l.681-.374c.484,2.111.991,4.246,1.512,6.345Zm336.189-.1-.681-.411c.521-2.107,1.022-4.25,1.515-6.365l.681.379c-.5,2.119-1.011,4.271-1.532,6.386ZM934.649,655.56c-.453-2.135-.9-4.316-1.314-6.48l.681-.321c.419,2.152.858,4.32,1.308,6.452Zm342.063-.144-.681-.354c.453-2.14.892-4.32,1.311-6.476l.681.325c-.412,2.172-.855,4.361-1.311,6.513Zm-344.59-12.862c-.385-2.172-.756-4.382-1.107-6.583l.708-.272c.341,2.177.719,4.382,1.1,6.542Zm347.116-.173-.7-.3c.381-2.164.753-4.365,1.1-6.542l.708.267c-.351,2.2-.712,4.407-1.107,6.587Zm-349.227-13c-.317-2.2-.616-4.435-.9-6.649l.715-.218c.279,2.205.582,4.431.9,6.62Zm351.336-.177-.712-.243c.313-2.193.613-4.419.892-6.62l.715.214c-.283,2.214-.565,4.452-.906,6.649ZM928.318,616.061c-.245-2.218-.477-4.477-.681-6.711l.722-.16c.211,2.222.439,4.472.681,6.678Zm354.714-.181-.719-.185c.245-2.214.473-4.464.681-6.682l.722.16c-.208,2.222-.439,4.481-.678,6.7ZM927.048,602.611c-.174-2.234-.341-4.526-.477-6.752l.725-.107c.14,2.234.3,4.5.477,6.723Zm357.251-.177-.725-.136c.174-2.234.341-4.493.47-6.727l.729.111C1284.633,597.921,1284.473,600.2,1284.3,602.434ZM926.2,589.095c-.106-2.242-.194-4.526-.266-6.781l.729-.053c.071,2.247.16,4.526.266,6.752Zm358.926-.181-.729-.082c.105-2.234.194-4.526.262-6.752l.729.054c-.058,2.246-.146,4.534-.248,6.772ZM925.775,575.525c-.034-2.247-.051-4.526-.055-6.793h.729c0,2.251.02,4.526.054,6.764Zm359.784-.2-.729-.025c.034-2.242.051-4.526.051-6.764v-.378h.729v.383C1285.61,570.8,1285.593,573.1,1285.559,575.328ZM926.5,561.968l-.729-.025c.034-2.255.085-4.526.153-6.789l.729.054C926.585,557.45,926.534,559.722,926.5,561.968Zm358.323-.556c-.037-2.251-.092-4.526-.164-6.76l.729-.058c.072,2.247.126,4.526.163,6.789Zm-357.9-12.956-.729-.082c.106-2.247.228-4.526.368-6.768l.725.111c-.143,2.23-.266,4.5-.368,6.739ZM1284.4,547.9c-.109-2.246-.232-4.526-.375-6.744l.725-.107c.143,2.234.269,4.526.375,6.764ZM927.743,535.006l-.722-.136c.174-2.242.368-4.526.576-6.731l.722.165C928.111,530.5,927.917,532.755,927.743,535.006Zm355.8-.555c-.177-2.226-.371-4.481-.582-6.7l.722-.165c.211,2.23.409,4.5.586,6.731ZM929,521.6l-.719-.193c.242-2.226.507-4.472.787-6.682l.715.218C929.507,517.149,929.241,519.371,929,521.6Zm353.273-.551c-.249-2.218-.514-4.456-.793-6.653l.715-.218c.279,2.205.548,4.452.8,6.678Zm-351.6-12.726-.712-.247c.317-2.2.65-4.423,1-6.612l.7.272C931.322,503.921,930.985,506.134,930.672,508.327Zm349.909-.547c-.317-2.193-.654-4.407-1-6.583l.7-.272c.34,2.185.681,4.407,1.022,6.608ZM932.766,495.194l-.7-.3c.381-2.168.79-4.365,1.206-6.53l.681.325C933.549,490.841,933.144,493.038,932.766,495.194Zm345.706-.539c-.385-2.16-.79-4.345-1.212-6.5l.681-.329c.422,2.164.831,4.361,1.216,6.53Zm-343.2-12.422-.681-.35c.453-2.152.93-4.324,1.417-6.456l.681.379C936.2,477.93,935.722,480.09,935.269,482.233Zm340.68-.531c-.453-2.131-.926-4.283-1.413-6.4l.681-.379c.49,2.123.967,4.287,1.424,6.427ZM938.194,469.437l-.681-.411c.518-2.111,1.062-4.242,1.618-6.332l.681.411C939.253,465.212,938.712,467.335,938.194,469.437Zm334.826-.477c-.517-2.094-1.062-4.209-1.614-6.287l.681-.432c.555,2.086,1.1,4.209,1.621,6.316ZM941.514,456.884l-.681-.453c.589-2.057,1.2-4.156,1.818-6.2l.661.481C942.71,452.749,942.1,454.827,941.514,456.884Zm328.182-.411c-.582-2.057-1.188-4.114-1.8-6.131l.661-.486c.617,2.033,1.226,4.115,1.812,6.172ZM945.226,444.611l-.65-.506c.65-2.02,1.328-4.057,2.009-6.052l.644.531C946.554,440.566,945.88,442.594,945.226,444.611Zm320.762-.337c-.647-2-1.321-4.024-2-5.995l.644-.531c.681,1.983,1.362,4.007,2.006,6.02Zm-316.676-11.64-.633-.555c.712-1.963,1.451-3.946,2.2-5.888l.627.576C950.773,428.7,950.038,430.675,949.313,432.633Zm312.579-.276c-.712-1.95-1.444-3.913-2.186-5.838l.627-.58c.742,1.934,1.481,3.909,2.193,5.867ZM953.78,420.989l-.616-.6c.773-1.909,1.573-3.835,2.384-5.715l.606.621c-.79,1.88-1.59,3.794-2.36,5.694Zm303.65-.226c-.773-1.9-1.567-3.81-2.367-5.674l.61-.625c.8,1.872,1.6,3.785,2.384,5.694ZM958.609,409.695l-.6-.646c.831-1.847,1.7-3.7,2.554-5.526l.589.671c-.848,1.81-1.7,3.674-2.53,5.5Zm294-.185c-.831-1.839-1.7-3.7-2.54-5.489l.616-.679c.862,1.81,1.7,3.666,2.551,5.509Zm-288.83-10.722-.579-.691c.889-1.782,1.8-3.571,2.724-5.349l.565.712c-.9,1.769-1.815,3.555-2.7,5.328Zm283.667-.16c-.885-1.773-1.8-3.555-2.724-5.291l.565-.716c.916,1.745,1.832,3.534,2.724,5.316ZM969.3,388.283l-.555-.736c.943-1.712,1.914-3.436,2.884-5.114l.545.757C971.209,384.86,970.242,386.572,969.3,388.283Zm272.651-.14c-.94-1.708-1.907-3.415-2.874-5.086l.545-.753c.97,1.675,1.941,3.39,2.884,5.1Zm-266.824-9.937-.531-.773c.994-1.646,2.016-3.292,3.041-4.892l.518.794C977.138,374.952,976.12,376.6,975.129,378.207Zm261-.128c-.991-1.646-2.009-3.267-3.031-4.863l.521-.794c1.022,1.6,2.043,3.25,3.041,4.884Zm-254.865-9.5-.507-.823c1.045-1.563,2.118-3.131,3.188-4.654l.494.823c-1.069,1.535-2.132,3.094-3.174,4.653Zm248.728-.119c-1.022-1.555-2.108-3.115-3.177-4.633l.494-.823c1.073,1.526,2.146,3.094,3.191,4.654Zm-242.306-9.052-.48-.852c1.093-1.481,2.21-2.967,3.33-4.407l.467.868c-1.114,1.457-2.231,2.934-3.317,4.411Zm235.876-.115c-1.086-1.477-2.207-2.954-3.32-4.394l.466-.868c1.117,1.444,2.241,2.93,3.334,4.411Zm-229.181-8.542-.453-.885c1.141-1.4,2.309-2.8,3.463-4.152l.439.905c-1.148,1.366-2.309,2.753-3.446,4.151Zm222.466-.119c-1.137-1.395-2.3-2.79-3.453-4.139l.436-.9c1.161,1.354,2.329,2.753,3.47,4.156Zm-215.505-8.019-.426-.918c1.178-1.308,2.384-2.617,3.586-3.888l.412.938c-1.2,1.284-2.4,2.588-3.569,3.888Zm208.531-.128c-1.178-1.308-2.384-2.609-3.582-3.876l.409-.934c1.2,1.271,2.414,2.58,3.6,3.892Zm-201.326-7.447-.4-.946c1.219-1.234,2.465-2.44,3.7-3.613l.378.967C1011,332.606,1009.761,333.807,1008.546,335.042Zm194.106-.14c-1.219-1.214-2.462-2.428-3.7-3.6l.378-.963c1.246,1.177,2.5,2.395,3.719,3.617Zm-186.676-6.908-.364-.975c1.253-1.127,2.537-2.247,3.811-3.329l.341.992c-1.263,1.07-2.54,2.181-3.79,3.3Zm179.215-.152c-1.257-1.127-2.54-2.242-3.811-3.316l.341-.992c1.277,1.078,2.564,2.2,3.828,3.329Zm-171.576-6.324-.34-1c1.284-1.029,2.6-2.057,3.906-3.032l.32,1.012c-1.3.975-2.609,1.991-3.889,3.016Zm163.9-.169c-1.291-1.025-2.605-2.057-3.916-3.024l.32-1.016c1.314.983,2.636,2.008,3.926,3.036Zm-156.075-5.723-.3-1.029c1.318-.93,2.663-1.852,4-2.732l.283,1.041c-1.314.868-2.677,1.786-3.981,2.711Zm148.2-.181c-1.318-.926-2.666-1.843-4-2.724l.283-1.041c1.362.885,2.7,1.806,4.025,2.736Zm-140.2-5.106-.269-1.049c1.362-.823,2.724-1.646,4.086-2.436l.252,1.057c-1.359.774-2.728,1.588-4.073,2.419Zm132.128-.189c-1.362-.823-2.724-1.646-4.086-2.419l.249-1.062c1.362.778,2.755,1.6,4.107,2.428Zm-123.955-4.526-.238-1.066c1.362-.732,2.775-1.444,4.165-2.123l.218,1.078c-1.372.671-2.769,1.4-4.134,2.123Zm115.738-.177c-1.362-.728-2.776-1.436-4.161-2.107l.215-1.078c1.4.675,2.8,1.387,4.182,2.111Zm-107.416-3.884-.2-1.086c1.4-.625,2.816-1.234,4.223-1.8l.187,1.094c-1.393.58-2.806,1.185-4.2,1.806Zm99.073-.165c-1.393-.617-2.809-1.214-4.209-1.777l.18-1.094c1.406.568,2.83,1.169,4.23,1.786Zm-90.631-3.263-.167-1.1c1.413-.514,2.85-1.012,4.277-1.477l.15,1.107c-1.41.473-2.843.967-4.25,1.481Zm82.182-.132c-1.41-.51-2.844-1-4.26-1.457l.146-1.107c1.423.457,2.864.95,4.28,1.461Zm-73.634-2.637-.133-1.111c1.43-.411,2.884-.794,4.318-1.148l.116,1.115C1075.8,294.576,1074.354,294.958,1072.927,295.366Zm65.1-.1c-1.42-.411-2.867-.786-4.3-1.131l.112-1.119c1.44.35,2.891.732,4.321,1.14Zm-56.478-2.024-.1-1.119c1.437-.3,2.9-.58,4.349-.823l.082,1.123c-1.44.243-2.9.522-4.328.819Zm47.859-.078c-1.437-.3-2.895-.564-4.335-.823l.078-1.123c1.447.243,2.912.514,4.352.823Zm-39.186-1.4-.061-1.127c1.447-.189,2.918-.358,4.369-.494l.044,1.127c-1.444.136-2.915.3-4.349.494Zm30.509-.049c-1.444-.185-2.908-.346-4.352-.477l.041-1.131c1.451.132,2.922.3,4.369.481Zm-21.794-.774-.027-1.131c1.447-.082,2.918-.14,4.376-.169v1.131C1101.843,290.794,1100.375,290.852,1098.934,290.938Zm13.083-.025c-1.441-.078-2.908-.128-4.362-.152V289.63c1.457.025,2.928.078,4.379.156Z" transform="translate(-858.232 -198.543)" fill="#a2d9d2"/>
          <path id="Path_645" data-name="Path 645" d="M1034.292,823.611c-1.454-.025-2.922-.066-4.369-.136l.021-1.127c1.44.066,2.908.111,4.355.132Zm4.373,0v-1.127c1.444-.025,2.908-.07,4.352-.136l.02,1.127c-1.454.062-2.922.111-4.372.132Zm-13.111-.411c-1.447-.111-2.915-.247-4.362-.411l.051-1.127c1.441.156,2.9.292,4.349.411Zm21.846,0-.038-1.127c1.444-.111,2.9-.251,4.349-.411l.051,1.127C1050.331,822.953,1048.846,823.088,1047.4,823.2Zm-30.567-.934c-1.444-.2-2.908-.411-4.349-.675l.078-1.123c1.437.247,2.895.473,4.335.675Zm39.288,0-.065-1.123c1.437-.206,2.894-.432,4.335-.679l.082,1.123c-1.447.23-2.912.461-4.352.662Zm-47.978-1.469c-1.44-.292-2.9-.613-4.328-.946l.109-1.119c1.427.333,2.878.65,4.315.942Zm56.669-.025-.1-1.123c1.434-.292,2.885-.609,4.315-.946l.109,1.119c-1.44.321-2.891.638-4.328.934ZM999.5,818.764c-1.43-.383-2.877-.794-4.3-1.234l.14-1.111c1.417.411,2.857.823,4.284,1.234Zm73.955-.033-.126-1.111c1.427-.383,2.867-.794,4.287-1.234l.136,1.111c-1.42.424-2.871.835-4.3,1.218Zm-82.539-2.543c-1.41-.469-2.847-.971-4.264-1.485l.167-1.1c1.413.518,2.844,1.016,4.25,1.485Zm91.121-.037-.153-1.107c1.413-.473,2.843-.971,4.25-1.489l.167,1.1c-1.41.5-2.844,1.008-4.264,1.477Zm-99.628-3.078c-1.4-.56-2.823-1.152-4.223-1.757l.194-1.09c1.4.609,2.813,1.2,4.209,1.753Zm108.134-.045-.181-1.094c1.4-.564,2.816-1.152,4.206-1.757l.2,1.09c-1.4.588-2.816,1.16-4.223,1.745Zm-116.556-3.6c-1.4-.654-2.806-1.337-4.189-2.033l.225-1.074c1.362.691,2.782,1.374,4.175,2.024Zm124.977-.053-.208-1.082c1.362-.65,2.775-1.325,4.154-2.024l.225,1.078c-1.383.679-2.789,1.382-4.175,2.012Zm-133.324-4.147c-1.362-.736-2.762-1.514-4.127-2.292l.252-1.061c1.362.782,2.745,1.551,4.117,2.288Zm141.639-.045-.238-1.066c1.362-.732,2.745-1.5,4.086-2.284l.252,1.062c-1.349.765-2.734,1.535-4.1,2.271ZM957.412,800.5c-1.362-.823-2.724-1.691-4.066-2.559l.283-1.041c1.335.868,2.7,1.72,4.049,2.547Zm158.064-.033-.269-1.053c1.338-.823,2.693-1.671,4.022-2.53l.283,1.045c-1.335.852-2.694,1.708-4.035,2.53Zm-166.155-5.209c-1.331-.909-2.673-1.852-3.991-2.806l.306-1.025c1.315.95,2.653,1.893,3.978,2.8Zm174.192,0-.3-1.029c1.321-.905,2.649-1.843,3.953-2.786l.31,1.024c-1.311.938-2.646,1.86-3.967,2.781Zm7.9-5.707-.32-1.012c1.291-.987,2.595-2.008,3.879-3.032l.341,1c-1.294,1.02-2.6,2.057-3.9,3.032Zm-190.02-.033c-1.308-1-2.622-2.028-3.913-3.061l.341-1c1.287,1.033,2.6,2.057,3.9,3.049Zm197.777-6.172-.34-.992c1.267-1.066,2.544-2.168,3.8-3.292l.361.983c-1.28,1.115-2.561,2.222-3.834,3.292Zm-205.558-.07c-1.274-1.07-2.561-2.185-3.828-3.292l.361-.983c1.26,1.115,2.544,2.222,3.814,3.292Zm213.125-6.641-.371-.967c1.233-1.144,2.483-2.321,3.712-3.51l.385.959C1149.226,774.315,1147.973,775.5,1146.734,776.632Zm-220.75-.1c-1.246-1.152-2.5-2.341-3.746-3.538l.385-.959c1.229,1.193,2.483,2.378,3.725,3.53Zm228.16-7.056-.4-.946c1.212-1.234,2.428-2.469,3.62-3.74l.409.934c-1.2,1.271-2.421,2.535-3.637,3.765Zm-235.577-.136c-1.216-1.234-2.442-2.5-3.64-3.769l.409-.934c1.2,1.267,2.418,2.53,3.63,3.756Zm242.8-7.484-.422-.922c1.178-1.3,2.36-2.633,3.518-3.966l.436.909c-1.171,1.345-2.37,2.687-3.555,3.991Zm-250.019-.169c-1.185-1.308-2.384-2.654-3.538-4l.436-.905c1.158,1.337,2.343,2.674,3.525,3.983Zm257.031-7.9-.449-.893c1.144-1.374,2.292-2.781,3.405-4.188l.46.88c-1.141,1.424-2.278,2.835-3.436,4.213Zm-264.052-.2c-1.144-1.378-2.3-2.794-3.429-4.209l.46-.876c1.124,1.407,2.275,2.818,3.405,4.193Zm270.85-8.307-.47-.864c1.1-1.44,2.214-2.917,3.3-4.4l.48.852c-1.114,1.5-2.227,2.979-3.334,4.423Zm-277.65-.218c-1.11-1.444-2.224-2.934-3.317-4.419l.48-.848c1.09,1.477,2.2,2.962,3.307,4.4Zm284.223-8.706-.49-.823c1.063-1.506,2.135-3.053,3.188-4.6l.5.823c-1.076,1.551-2.149,3.1-3.218,4.612Zm-290.795-.234c-1.069-1.514-2.145-3.069-3.2-4.625l.5-.823c1.052,1.551,2.125,3.1,3.187,4.608Zm297.132-9.093-.514-.823c1.022-1.58,2.043-3.193,3.065-4.8l.521.786c-1.025,1.646-2.06,3.263-3.092,4.847Zm-303.466-.251c-1.022-1.58-2.064-3.2-3.065-4.814l.524-.79c1.022,1.613,2.043,3.226,3.065,4.8Zm309.548-9.463-.535-.769c.988-1.646,1.975-3.316,2.942-4.987l.542.757c-.977,1.679-1.972,3.362-2.959,5Zm-315.644-.255c-.984-1.646-1.975-3.324-2.946-5l.545-.753c.964,1.671,1.951,3.349,2.935,4.987Zm321.467-9.838-.552-.736c.947-1.708,1.89-3.444,2.81-5.168l.562.72c-.923,1.732-1.87,3.477-2.82,5.188Zm-327.3-.259c-.943-1.7-1.89-3.448-2.813-5.18l.562-.72c.919,1.728,1.863,3.464,2.8,5.164Zm332.872-10.2-.572-.7c.9-1.757,1.8-3.555,2.673-5.349l.582.683c-.878,1.806-1.781,3.608-2.683,5.373Zm-338.443-.251c-.9-1.753-1.795-3.551-2.673-5.349l.582-.683c.875,1.79,1.774,3.584,2.663,5.349Zm343.725-10.541-.589-.667c.851-1.815,1.7-3.666,2.53-5.505l.6.65c-.817,1.839-1.672,3.7-2.527,5.522Zm-349-.243c-.855-1.819-1.7-3.674-2.534-5.513l.6-.642c.821,1.831,1.672,3.678,2.523,5.493Zm354.009-10.883-.606-.63c.807-1.872,1.611-3.777,2.384-5.662l.616.613c-.766,1.889-1.57,3.8-2.38,5.678Zm-359-.218c-.807-1.872-1.611-3.777-2.384-5.666l.616-.6c.773,1.88,1.573,3.777,2.384,5.645ZM1220.6,663.413l-.62-.588c.756-1.93,1.512-3.88,2.237-5.81l.63.572C1222.1,659.521,1221.349,661.479,1220.6,663.413Zm-368.414-.185c-.756-1.913-1.509-3.868-2.237-5.806l.63-.568c.729,1.93,1.478,3.88,2.227,5.785Zm372.83-11.541-.637-.547c.7-1.967,1.406-3.966,2.084-5.945l.644.531c-.695,1.987-1.4,3.991-2.1,5.962Zm-377.24-.136c-.7-1.958-1.4-3.958-2.081-5.937l.647-.531c.681,1.975,1.362,3.966,2.074,5.921Zm381.337-11.862-.65-.506c.654-2.008,1.3-4.053,1.927-6.077l.657.49C1230.414,635.624,1229.763,637.677,1229.113,639.689Zm-385.42-.07c-.654-2.008-1.3-4.049-1.921-6.061l.657-.49c.62,2.008,1.263,4.04,1.917,6.044Zm389.2-12.162-.664-.469c.6-2.057,1.2-4.115,1.768-6.172l.681.444c-.586,2.028-1.182,4.123-1.784,6.18Zm-392.98,0c-.6-2.057-1.192-4.115-1.764-6.172l.681-.444c.569,2.057,1.161,4.114,1.757,6.172Zm-3.443-12.442c-.545-2.086-1.086-4.2-1.6-6.3l.681-.411c.518,2.09,1.056,4.205,1.6,6.283Zm399.873-.062-.681-.411c.548-2.09,1.086-4.209,1.6-6.3l.681.411c-.5,2.082-1.042,4.226-1.59,6.3ZM833.361,602.358c-.49-2.119-.974-4.271-1.434-6.4l.681-.362c.46,2.123.943,4.271,1.43,6.382Zm406.131-.107-.681-.378c.49-2.119.974-4.275,1.437-6.406l.681.362c-.463,2.14-.947,4.291-1.437,6.423ZM830.575,589.5c-.439-2.156-.865-4.341-1.267-6.489l.681-.313c.405,2.135.828,4.312,1.263,6.46Zm411.71-.152-.7-.341c.432-2.135.858-4.312,1.26-6.464l.7.317c-.4,2.172-.814,4.357-1.26,6.505ZM828.124,576.482c-.378-2.168-.746-4.374-1.1-6.559l.708-.272c.341,2.177.715,4.374,1.093,6.538Zm416.6-.156-.705-.292c.378-2.156.742-4.357,1.09-6.538l.708.272c-.361,2.205-.7,4.431-1.09,6.575Zm-418.7-12.981c-.32-2.185-.63-4.415-.923-6.624l.715-.226c.289,2.2.6,4.423.916,6.583Zm420.805-.156-.712-.251c.316-2.189.626-4.411.916-6.6l.712.226c-.289,2.2-.586,4.427-.926,6.628ZM824.269,550.067c-.262-2.214-.514-4.46-.746-6.678l.719-.181c.232,2.209.484,4.448.746,6.657Zm424.309-.16-.719-.2c.259-2.205.511-4.444.742-6.653l.719.181c-.228,2.214-.48,4.46-.739,6.69ZM822.852,536.691c-.2-2.23-.4-4.489-.569-6.719l.725-.136c.174,2.222.364,4.472.569,6.694Zm427.119-.16-.722-.156c.2-2.226.395-4.477.565-6.7l.725.136c-.163,2.226-.354,4.477-.558,6.719ZM821.8,523.241c-.146-2.238-.279-4.526-.395-6.748l.729-.095c.116,2.234.249,4.5.392,6.727Zm429.22-.165-.725-.111c.146-2.226.276-4.489.392-6.727l.729.091c-.105,2.247-.242,4.518-.385,6.748ZM821.108,509.729c-.089-2.238-.163-4.526-.221-6.768l.729-.045c.058,2.246.133,4.526.221,6.748Zm430.62-.161L1251,509.5c.085-2.23.156-4.5.215-6.744l.729.041Q1251.859,506.213,1251.728,509.568ZM820.754,496.2c-.027-2.251-.044-4.526-.044-6.781h.729c0,2.238,0,4.526.044,6.756Zm431.324-.177-.732-.025c.031-2.234.044-4.526.044-6.752v-.35h.729v.35c0,2.246-.013,4.534-.041,6.772ZM821.49,482.672h-.729c.027-2.251.071-4.526.129-6.772l.729.045C821.551,478.163,821.507,480.434,821.49,482.672Zm429.863-.523c-.031-2.234-.075-4.5-.133-6.74l.729-.045c.058,2.247.1,4.526.133,6.76ZM821.831,469.176l-.729-.066c.085-2.247.187-4.526.3-6.76l.725.086C822.011,464.671,821.909,466.938,821.831,469.176Zm429.165-.51c-.088-2.242-.194-4.526-.31-6.74l.725-.09c.119,2.238.221,4.526.31,6.76ZM822.512,455.7l-.725-.111c.143-2.242.307-4.526.477-6.735l.725.136C822.818,451.217,822.658,453.476,822.512,455.7Zm427.769-.506c-.146-2.226-.31-4.481-.483-6.711l.722-.136c.177,2.234.341,4.5.487,6.731ZM823.557,442.3l-.722-.16c.2-2.222.422-4.477.654-6.7l.719.181C823.976,437.841,823.758,440.087,823.557,442.3Zm425.672-.51c-.2-2.214-.426-4.456-.657-6.674l.719-.181c.235,2.222.456,4.477.661,6.694ZM824.946,428.957l-.715-.206c.259-2.209.538-4.452.828-6.653l.715.226C825.484,424.534,825.205,426.764,824.946,428.957Zm422.9-.49c-.266-2.209-.545-4.44-.834-6.628l.715-.23c.29,2.2.572,4.44.834,6.653Zm-421.156-12.73-.712-.251c.32-2.193.657-4.415,1.022-6.583l.708.272C827.34,411.335,827.007,413.549,826.687,415.738Zm419.385-.5c-.32-2.189-.661-4.4-1.022-6.583l.708-.272c.34,2.177.681,4.4,1.022,6.583Zm-417.3-12.611-.7-.292c.378-2.168.773-4.365,1.178-6.53l.7.317C829.544,398.267,829.149,400.456,828.774,402.625Zm415.2-.494c-.378-2.168-.773-4.353-1.182-6.5l.7-.317c.405,2.156.8,4.349,1.185,6.521ZM831.205,389.652l-.681-.337c.432-2.156.889-4.333,1.362-6.472l.681.358C832.091,385.344,831.638,387.5,831.205,389.652Zm410.32-.49c-.433-2.135-.885-4.3-1.362-6.419l.681-.362c.463,2.131.919,4.3,1.362,6.443ZM833.988,376.819l-.681-.383c.494-2.127,1.022-4.271,1.522-6.377l.681.411c-.525,2.07-1.032,4.205-1.522,6.328Zm404.756-.436c-.49-2.107-1-4.234-1.515-6.328l.681-.411c.521,2.1,1.022,4.242,1.522,6.353ZM837.1,364.134l-.681-.411c.542-2.082,1.11-4.193,1.7-6.275l.681.444C838.214,359.957,837.648,362.06,837.1,364.134Zm398.52-.383c-.541-2.057-1.107-4.16-1.675-6.2l.681-.448c.569,2.057,1.134,4.147,1.682,6.225ZM840.56,351.687l-.681-.465c.6-2.057,1.219-4.115,1.849-6.172l.657.49C841.769,347.585,841.149,349.651,840.56,351.687Zm391.618-.3c-.6-2.033-1.216-4.086-1.839-6.1l.657-.486c.627,2.02,1.246,4.077,1.846,6.118ZM844.306,339.459l-.65-.51c.654-2.008,1.328-4.036,2.009-6.032l.647.531c-.664,2-1.325,4.024-1.989,6.028Zm384.126-.2c-.654-2-1.325-4.008-2-5.978l.644-.531c.681,1.979,1.362,4,2.006,6ZM848.392,327.527l-.637-.547c.708-1.971,1.437-3.954,2.169-5.9l.63.572c-.712,1.922-1.44,3.9-2.145,5.863Zm375.953-.165c-.7-1.946-1.427-3.917-2.156-5.851l.63-.572c.732,1.942,1.458,3.917,2.162,5.875ZM852.819,315.829l-.62-.588c.756-1.921,1.536-3.859,2.319-5.76l.613.609C854.338,311.982,853.562,313.912,852.819,315.829Zm367.174-.115c-.749-1.905-1.526-3.826-2.306-5.715l.613-.609c.783,1.893,1.56,3.826,2.312,5.731ZM857.505,304.428l-.6-.625c.807-1.876,1.635-3.761,2.466-5.6l.6.646C859.136,300.684,858.309,302.564,857.505,304.428Zm357.789-.074c-.8-1.86-1.628-3.736-2.452-5.567l.6-.646c.831,1.839,1.658,3.7,2.462,5.587ZM862.5,293.34l-.589-.667c.855-1.819,1.733-3.65,2.608-5.444l.582.683c-.879,1.79-1.754,3.621-2.605,5.427Zm347.821-.045c-.848-1.806-1.723-3.629-2.595-5.411l.579-.687c.875,1.79,1.754,3.617,2.605,5.431Zm-342.55-10.722-.572-.7c.9-1.765,1.825-3.538,2.748-5.275l.562.72C869.587,279.046,868.665,280.836,867.769,282.572Zm337.281-.025c-.892-1.749-1.815-3.514-2.724-5.246l.562-.72c.923,1.74,1.846,3.51,2.745,5.267Zm-331.734-10.4-.555-.741c.947-1.7,1.917-3.419,2.884-5.094l.545.753C875.223,268.739,874.273,270.447,873.316,272.15Zm326.194,0c-.94-1.7-1.907-3.407-2.871-5.077l.545-.753c.967,1.675,1.934,3.39,2.881,5.094Zm-5.789-10.06c-.991-1.646-2-3.292-3-4.892l.524-.786c1.022,1.609,2.019,3.259,3.01,4.909Zm-314.575,0-.535-.769c.988-1.646,2-3.292,3.014-4.913l.521.79c-1.025,1.6-2.033,3.246-3.017,4.884Zm308.506-9.69c-1.021-1.576-2.081-3.156-3.126-4.7l.5-.823c1.052,1.551,2.108,3.139,3.14,4.719Zm-302.441,0-.511-.8c1.022-1.58,2.084-3.168,3.136-4.715l.5.823c-1.066,1.526-2.118,3.094-3.147,4.682Zm6.314-9.3-.49-.823c1.069-1.514,2.166-3.037,3.255-4.526l.48.848c-1.086,1.465-2.193,2.983-3.262,4.489Zm289.814,0c-1.073-1.514-2.166-3.032-3.249-4.5l.48-.852c1.09,1.477,2.186,3,3.259,4.526Zm-283.266-8.9-.47-.864c1.107-1.444,2.241-2.88,3.371-4.308l.456.876c-1.141,1.4-2.271,2.843-3.375,4.283Zm276.71,0c-1.1-1.444-2.234-2.88-3.365-4.3l.46-.88c1.13,1.415,2.268,2.88,3.375,4.312ZM904.83,225.7l-.45-.893c1.148-1.378,2.319-2.757,3.48-4.115l.432.909C907.138,222.961,905.97,224.336,904.83,225.7Zm263.153-.025c-1.144-1.374-2.312-2.748-3.47-4.082l.433-.909c1.161,1.341,2.336,2.72,3.487,4.114Zm-256.172-8.023-.422-.922c1.182-1.3,2.384-2.6,3.583-3.872l.409.934c-1.192,1.271-2.391,2.567-3.569,3.868Zm249.174-.037c-1.178-1.3-2.384-2.6-3.579-3.868l.412-.934c1.2,1.271,2.408,2.576,3.589,3.88ZM919,210.066l-.4-.946c1.212-1.234,2.452-2.469,3.678-3.641l.388.959C921.438,207.6,920.2,208.832,919,210.066Zm234.783-.053c-1.212-1.234-2.448-2.469-3.678-3.641l.385-.959c1.236,1.2,2.476,2.423,3.692,3.654Zm-227.4-7.1-.375-.971c1.246-1.152,2.517-2.3,3.77-3.407l.361.983C928.878,200.624,927.615,201.768,926.375,202.915Zm220-.074c-1.243-1.152-2.51-2.3-3.77-3.407l.361-.983c1.263,1.115,2.537,2.267,3.783,3.419Zm-212.451-6.583-.341-1c1.274-1.07,2.568-2.14,3.852-3.164l.341,1c-1.294,1.008-2.585,2.07-3.855,3.143Zm204.864-.1c-1.27-1.07-2.571-2.135-3.858-3.168l.341-1c1.291,1.033,2.591,2.1,3.868,3.176Zm-197.147-6.094-.32-1.012c1.3-.992,2.619-1.975,3.93-2.921l.307,1.025c-1.308.93-2.626,1.926-3.92,2.9Zm189.39-.119c-1.3-.987-2.625-1.971-3.94-2.921l.31-1.025c1.314.95,2.646,1.938,3.95,2.934Zm-181.506-5.579-.3-1.033c1.325-.905,2.67-1.806,4-2.666l.283,1.041c-1.345.848-2.687,1.745-4,2.646Zm173.6-.14c-1.325-.905-2.677-1.8-4.015-2.67l.279-1.041c1.362.868,2.7,1.769,4.029,2.679Zm-165.614-5.061-.266-1.053c1.362-.823,2.724-1.646,4.086-2.423l.252,1.057C960.238,177.525,958.869,178.34,957.518,179.167ZM1115.047,179c-1.362-.823-2.724-1.646-4.086-2.415l.252-1.062c1.362.782,2.724,1.6,4.086,2.423Zm-149.36-4.526-.238-1.066c1.362-.741,2.765-1.469,4.141-2.16l.228,1.074c-1.372.675-2.765,1.4-4.131,2.135Zm141.16-.156c-1.362-.741-2.772-1.465-4.144-2.156l.225-1.074c1.362.691,2.779,1.419,4.158,2.16ZM973.972,170.3l-.211-1.086c1.393-.65,2.8-1.288,4.2-1.9l.2,1.086c-1.379.588-2.8,1.226-4.182,1.88Zm124.555-.156c-1.386-.65-2.8-1.28-4.185-1.884l.194-1.086c1.4.6,2.809,1.234,4.2,1.889Zm-116.167-3.5-.181-1.094c1.41-.568,2.837-1.115,4.243-1.646l.167,1.1c-1.4.514-2.823,1.062-4.229,1.625Zm107.773-.136c-1.4-.56-2.826-1.1-4.229-1.617l.167-1.1c1.41.514,2.837,1.062,4.243,1.621Zm-99.294-2.983-.153-1.1c1.413-.473,2.854-.934,4.281-1.366l.14,1.111c-1.42.411-2.857.868-4.267,1.341Zm90.814-.115c-1.41-.465-2.847-.918-4.27-1.345l.14-1.111c1.427.411,2.871.885,4.281,1.354Zm-82.264-2.469-.123-1.115c1.427-.383,2.877-.749,4.314-1.09l.109,1.115c-1.43.329-2.878.7-4.3,1.078Zm73.706-.095c-1.42-.379-2.867-.741-4.3-1.074l.109-1.119c1.437.337,2.888.7,4.318,1.082Zm-65.09-1.946-.1-1.119c1.437-.3,2.9-.572,4.338-.823l.082,1.123c-1.437.239-2.891.514-4.325.806Zm56.475-.07c-1.434-.288-2.888-.56-4.325-.823l.078-1.123c1.444.247,2.9.518,4.342.823Zm-47.815-1.432-.068-1.123c1.447-.206,2.915-.391,4.359-.547l.051,1.127C1019.567,156.99,1018.106,157.191,1016.665,157.4Zm39.162-.045c-1.444-.2-2.9-.383-4.342-.535l.048-1.127c1.444.152,2.908.333,4.359.535Zm-30.465-.909-.037-1.127c1.447-.115,2.918-.206,4.369-.276l.021,1.131c-1.451.058-2.915.152-4.359.263Zm21.774-.025c-1.444-.111-2.908-.2-4.355-.263l.02-1.131c1.454.066,2.922.156,4.369.267Zm-13.07-.387V154.9c1.454-.025,2.915-.025,4.373,0v1.127q-2.2-.037-4.379,0Z" transform="translate(-788.982 -119.239)" fill="#a2d9d2"/>
          <path id="Path_646" data-name="Path 646" d="M1068.473,834.657c-26.9,0-52.964-8.163-77.513-24.275-23.712-15.549-45.009-37.8-63.3-66.153s-32.644-61.364-42.676-98.122a468.562,468.562,0,0,1,0-240.286c10.032-36.759,24.389-69.769,42.676-98.118s39.588-50.608,63.3-66.157c24.549-16.1,50.628-24.275,77.513-24.275s52.96,8.163,77.51,24.275c23.715,15.524,45.012,37.8,63.3,66.132s32.647,61.376,42.693,98.135a468.562,468.562,0,0,1,0,240.286c-10.029,36.759-24.389,69.774-42.676,98.122s-39.584,50.608-63.3,66.153C1121.433,826.515,1095.355,834.657,1068.473,834.657Zm0-616.811c-109.6,0-198.772,138.222-198.772,308.122s89.17,308.122,198.772,308.122,198.768-138.222,198.768-308.122-89.163-308.122-198.768-308.122Z" transform="translate(-821.039 -155.956)" fill="#a2d9d2"/>
        </g>
        <path id="Path_647" data-name="Path 647" d="M959.006,820.6a34.435,34.435,0,0,1,.17,5.883l4.189,1.95q.163-.83.32-1.672c1.172-6.3,4.563-12.829,2.646-19.568a23.911,23.911,0,0,0-1.362-3.549c-1.308-2.762-3.232-5.463-5.033-4.4-1.362.808-2.139,3.824-2.316,5.871-.283,3.295.388,6.683.841,9.869q.4,2.789.545,5.617Z" transform="translate(-678.613 -480.738)" fill="#62c5b7"/>
        <path id="Path_648" data-name="Path 648" d="M959.512,871.81a17.589,17.589,0,0,0-.575,7.357c.262,1.373.991,2.851,2.043,2.5.9-.3,1.212-1.688,1.536-2.827.477-1.68.875-3.356,1.233-5.056Z" transform="translate(-679.509 -522.682)" fill="#62c5b7"/>
        <path id="Path_649" data-name="Path 649" d="M894.9,728.868a34.387,34.387,0,0,0-.17,5.879l-4.189,1.95c-.109-.553-.215-1.106-.32-1.668-1.172-6.3-4.563-12.829-2.646-19.568a24.543,24.543,0,0,1,1.362-3.553c1.308-2.758,3.232-5.459,5.033-4.4,1.383.808,2.139,3.824,2.316,5.871.283,3.3-.388,6.679-.841,9.869Q895.048,726.04,894.9,728.868Z" transform="translate(-634.58 -428.768)" fill="#62c5b7"/>
        <path id="Path_650" data-name="Path 650" d="M902.79,780.08a17.584,17.584,0,0,1,.576,7.357c-.262,1.373-.991,2.851-2.043,2.5-.9-.307-1.216-1.688-1.539-2.827-.477-1.68-.872-3.356-1.233-5.056Z" transform="translate(-641.931 -470.637)" fill="#62c5b7"/>
        <path id="Path_651" data-name="Path 651" d="M998.489,618.313a28.889,28.889,0,0,1-1.679,5.3l3.085,4.733.8-1.24c2.99-4.712,8.009-8.019,8.415-15.344a30.352,30.352,0,0,0-.1-4.111c-.293-3.376-1.148-7.139-3.065-7.5-1.471-.275-3.065,1.829-3.865,3.5-1.277,2.7-1.737,6.166-2.329,9.287Q999.247,615.669,998.489,618.313Z" transform="translate(-703.004 -368.095)" fill="#62c5b7"/>
        <path id="Path_652" data-name="Path 652" d="M988.376,661.71a13.081,13.081,0,0,0-2.8,6.057c-.194,1.4,0,3.23,1.022,3.662.892.38,1.6-.614,2.237-1.385.94-1.135,1.812-2.326,2.656-3.566Z" transform="translate(-696.185 -403.48)" fill="#62c5b7"/>
        <path id="Path_653" data-name="Path 653" d="M977.926,502.3a26.141,26.141,0,0,0-1.978,5.056l-4.3-1.3c.078-.561.157-1.127.238-1.7.93-6.392-.031-14.585,3.746-19.144a13.987,13.987,0,0,1,2.305-2.148c2.013-1.486,4.546-2.483,5.789-.25.964,1.712.7,4.906.215,6.836-.773,3.109-2.418,5.609-3.807,8.076A44.581,44.581,0,0,0,977.926,502.3Z" transform="translate(-687.29 -300.932)" fill="#62c5b7"/>
        <path id="Path_654" data-name="Path 654" d="M974.185,548.582c-.245,2.479-.579,5.031-1.781,6.9-.657,1.018-1.757,1.8-2.571.731-.681-.921-.545-2.362-.477-3.6.106-1.825.276-3.582.487-5.342Z" transform="translate(-686.102 -338.557)" fill="#62c5b7"/>
        <path id="Path_655" data-name="Path 655" d="M1110.458,462.365c-.756,1.07-1.914,3.138-2.918,3.86l1.6,6.2c.341-.214.7-.432,1.056-.662,3.971-2.528,9.44-2.548,11.715-9.025a27.561,27.561,0,0,0,.981-3.836c.6-3.275.8-7.248-.872-8.73-1.277-1.139-3.3-.17-4.461.9-1.873,1.712-3.2,4.619-4.556,7.143A40.346,40.346,0,0,1,1110.458,462.365Z" transform="translate(-771.958 -282.939)" fill="#62c5b7"/>
        <path id="Path_656" data-name="Path 656" d="M1094.783,492.35a8.177,8.177,0,0,0-4.145,3.893c-.541,1.167-.848,2.956,0,3.981.715.884,1.624.4,2.411.073a29.344,29.344,0,0,0,3.368-1.68Z" transform="translate(-761.467 -307.416)" fill="#62c5b7"/>
        <path id="Path_657" data-name="Path 657" d="M1301.833,292.377c-1.022-.073-2.816.109-3.858-.481l-1.795,6.081,1.049.69c3.964,2.556,7.8,8.48,12.43,6.461a11.509,11.509,0,0,0,2.486-1.615c1.965-1.615,3.967-4.2,3.5-7.05a5.892,5.892,0,0,0-3.538-4.228c-2.115-.844-4.406-.254-6.542.032A18.042,18.042,0,0,1,1301.833,292.377Z" transform="translate(-889.464 -201.53)" fill="#62c5b7"/>
        <path id="Path_658" data-name="Path 658" d="M1285.118,287.03c-1.471-1.135-3.031-2.2-4.727-1.793a2.556,2.556,0,0,0-1.883,2.766,3.713,3.713,0,0,0,1.652,2.673,35.122,35.122,0,0,0,3.143,2.5Z" transform="translate(-879.05 -197.564)" fill="#62c5b7"/>
        <path id="Path_659" data-name="Path 659" d="M1553.793,295.656c-1.022-.077-2.813.105-3.855-.481l-1.8,6.057c.34.234.681.464,1.049.69,3.964,2.556,7.8,8.48,12.43,6.461a11.574,11.574,0,0,0,2.49-1.615c1.965-1.615,3.964-4.2,3.5-7.046a5.891,5.891,0,0,0-3.538-4.232c-2.111-.84-4.406-.25-6.542.036a18.326,18.326,0,0,1-3.732.129Z" transform="translate(-1046.621 -203.472)" fill="#62c5b7"/>
        <path id="Path_660" data-name="Path 660" d="M1537.084,290.335c-1.468-1.135-3.027-2.2-4.723-1.789a2.554,2.554,0,0,0-1.883,2.762,3.7,3.7,0,0,0,1.652,2.677,35.288,35.288,0,0,0,3.143,2.5Z" transform="translate(-1036.335 -199.537)" fill="#62c5b7"/>
        <path id="Path_661" data-name="Path 661" d="M1793.484,432.331a25.008,25.008,0,0,1-2.254-4.781l-4.209,1.857c.109.553.218,1.1.341,1.66,1.287,6.251.793,14.537,4.822,18.575a12.313,12.313,0,0,0,2.421,1.837c2.088,1.211,4.669,1.878,5.789-.509.862-1.833.416-4.983-.174-6.84-.947-3-2.724-5.27-4.253-7.563a41.466,41.466,0,0,1-2.483-4.236Z" transform="translate(-1195.999 -270.366)" fill="#62c5b7"/>
        <path id="Path_662" data-name="Path 662" d="M1788.318,411.338c-.381-2.423-.858-4.938-2.162-6.638-.715-.933-1.856-1.559-2.605-.4-.644,1.005-.408,2.423-.269,3.634.208,1.8.477,3.533.786,5.249Z" transform="translate(-1194.137 -257.079)" fill="#62c5b7"/>
        <path id="Path_663" data-name="Path 663" d="M1215.3,239.777a17.247,17.247,0,0,0-3.133,3.457l-3.61-3.776c.218-.472.436-.945.661-1.417,2.513-5.314,3.746-13.418,8.418-15.344a9.042,9.042,0,0,1,2.677-.59c2.237-.158,4.822.452,5.4,3.259.439,2.148-.637,4.926-1.58,6.408-1.519,2.39-3.678,3.7-5.6,5.144a27.479,27.479,0,0,0-3.232,2.859Z" transform="translate(-834.916 -159.965)" fill="#62c5b7"/>
        <path id="Path_664" data-name="Path 664" d="M1205.194,273.068c-.868,2.132-1.839,4.276-3.429,5.249a1.571,1.571,0,0,1-2.551-.872,5.6,5.6,0,0,1,.5-3.594c.569-1.615,1.182-3.125,1.832-4.611Z" transform="translate(-829.488 -188.08)" fill="#62c5b7"/>
        <path id="Path_665" data-name="Path 665" d="M1536.2,164.556c-1.022-.028-2.806-.4-3.869.093l-1.532-6.243,1.076-.586c4.066-2.156,8.142-7.7,12.678-5.193a12.364,12.364,0,0,1,2.414,1.857c1.89,1.825,3.777,4.583,3.187,7.381a5.487,5.487,0,0,1-3.712,3.868c-2.146.63-4.407-.186-6.528-.682a18.175,18.175,0,0,0-3.715-.5Z" transform="translate(-1035.809 -118.175)" fill="#62c5b7"/>
        <path id="Path_666" data-name="Path 666" d="M1518.937,175.961c-1.512.985-3.116,1.894-4.791,1.316a2.735,2.735,0,0,1-1.761-2.948,3.413,3.413,0,0,1,1.764-2.5,32.735,32.735,0,0,1,3.242-2.177Z" transform="translate(-1025.036 -128.705)" fill="#62c5b7"/>
        <path id="Path_667" data-name="Path 667" d="M1769,301.909c-.93-.682-2.438-2.14-3.538-2.382l.341-6.647,1.137.158c4.284.638,9.515-1.789,12.94,3.384a21.084,21.084,0,0,1,1.679,3.23c1.212,2.859,2.162,6.57.858,8.734-1.021,1.66-3.123,1.635-4.427,1.139-2.121-.808-3.95-2.984-5.738-4.789a27.833,27.833,0,0,0-3.252-2.827Z" transform="translate(-1182.301 -202.174)" fill="#62c5b7"/>
        <path id="Path_668" data-name="Path 668" d="M1750.427,299.048c-1.648-.073-3.354-.271-4.713-1.866a3.79,3.79,0,0,1-.783-3.8c.514-1.167,1.474-1.106,2.288-1.147a24.072,24.072,0,0,1,3.545.093Z" transform="translate(-1170.09 -201.776)" fill="#62c5b7"/>
        <path id="Path_669" data-name="Path 669" d="M1916.225,494.429c-.93-.682-2.438-2.14-3.535-2.382l.341-6.647,1.141.158c4.284.638,9.515-1.789,12.941,3.384a21.119,21.119,0,0,1,1.675,3.23c1.212,2.859,2.166,6.57.858,8.734-1,1.66-3.119,1.635-4.427,1.139-2.122-.808-3.95-2.984-5.735-4.789a27.574,27.574,0,0,0-3.259-2.827Z" transform="translate(-1274.145 -303.309)" fill="#62c5b7"/>
        <path id="Path_670" data-name="Path 670" d="M1897.651,491.566c-1.648-.073-3.354-.271-4.716-1.866a3.815,3.815,0,0,1-.783-3.8c.518-1.163,1.478-1.1,2.292-1.147a24.661,24.661,0,0,1,3.545.1Z" transform="translate(-1261.991 -303.121)" fill="#62c5b7"/>
        <path id="Path_671" data-name="Path 671" d="M1478.9,567.7l-4-10.9c-.3-.808-.981-1.118-1.522-.658l-.1.081a2.117,2.117,0,0,0-.552,1.837l-3.555,2.108-.2-.081-.044.226-52.2,30.963h-3.909v-14.23c0-2.859-1.519-5.177-3.405-5.177h-3.9c-1.876,0-3.405,2.318-3.405,5.177v14.222h-8.33c-1.88,0-3.406,2.314-3.406,5.173v25.334c0,2.859,1.522,5.173,3.406,5.173h8.33V634.6h-13.485c-1.277,0-2.316,1.575-2.316,3.517V642.7c0,1.946,1.022,3.521,2.316,3.521h4.628v53.9h-233.98V646.228h5.326c1.277,0,2.312-1.575,2.312-3.521v-4.579c0-1.942-1.021-3.517-2.312-3.517h-36.339c-1.277,0-2.312,1.575-2.312,3.517v4.579c0,1.946,1.022,3.521,2.312,3.521h4.628V919.6h5.558V834.052l6.933-9.162,8,10.568a1.584,1.584,0,0,0,.341.323v83.809h5.554V811.011h86.9l-22.084,105.945,1.969.945,1.362-6.461h16.37l-1.151,5.536,1.965.945,22.295-106.87h126.339V919.625h5.554V860.456l6.944-9.166,8.006,10.567a1.453,1.453,0,0,0,.341.319v57.408h5.557V811.011h5.316c1.277,0,2.315-1.579,2.315-3.521v-4.579c0-1.942-1.021-3.521-2.315-3.521h-5.323V711.72h5.323c1.277,0,2.315-1.579,2.315-3.521V703.62c0-1.946-1.021-3.521-2.315-3.521h-5.323V646.228h5.323c1.277,0,2.315-1.575,2.315-3.521v-4.579c0-1.942-1.021-3.517-2.315-3.517h-12.144v-7.652H1429.3c1.876,0,3.405-2.314,3.405-5.173v-.145l39.267-45.02V826.149h-2.547V849.61h3.065a1.224,1.224,0,0,0-.075.4v9.138a.791.791,0,0,0,.582.884c2.356,0,4.27,2.915,4.27,6.493s-1.914,6.5-4.27,6.5-4.267-2.915-4.267-6.5a.78.78,0,0,0-.243-.753.523.523,0,0,0-.68,0,.779.779,0,0,0-.242.753c0,4.559,2.435,8.27,5.432,8.27s5.448-3.711,5.448-8.27c0-4.256-2.128-7.773-4.853-8.217v-8.3a1.224,1.224,0,0,0-.075-.4h3.065V826.149h-2.595V574.295l.214.093.078-.428,3.232-3.7a.792.792,0,0,0,.838-.153l.1-.085A2.233,2.233,0,0,0,1478.9,567.7Zm-64.818,97.8-6.211-8.193,6.211-8.2Zm-8.33-11-6.269-8.278h12.532Zm-6.943-3.57,4.825,6.376-4.825,6.368ZM1414.079,731l-6.211-8.2,6.211-8.2Zm-8.33-11-6.269-8.278h12.532Zm-6.943-3.574,4.825,6.372-4.825,6.368Zm-245.095-50.915-6.211-8.2,6.211-8.2Zm-8.34-11-6.273-8.278h12.542ZM1153.7,731l-6.211-8.2,6.211-8.205Zm-8.33-11-6.273-8.278h12.542Zm-6.943-3.57,4.825,6.368-4.825,6.368Zm4.835-59.116-4.825,6.368V650.936ZM1138.438,799.4v-64.64l6.944-9.166,8,10.567a1.55,1.55,0,0,0,.341.315v62.916Zm13.216,11.621-6.273,8.278-6.273-8.278Zm-13.216-110.9V669.269l6.944-9.166,8,10.567a1.417,1.417,0,0,0,.341.311v29.134Zm0,128.356V815.735l4.822,6.368Zm9.062-6.368,6.211-8.2v16.4Zm96.968,86.155h-16.393l1.869-8.964h16.394Zm2.527-12.114H1230.6l1.87-8.968h16.394Zm2.523-12.114h-16.39l1.869-8.964h16.394Zm2.527-12.114h-16.394l1.873-8.964h16.39Zm2.523-12.114h-16.39l1.87-8.968h16.393Zm2.53-12.114H1240.7l1.869-8.964h16.394Zm2.523-12.114h-16.393l1.873-8.968h16.393Zm2.523-12.114h-16.39l1.87-8.968h16.393Zm2.53-12.114h-16.393l.078-.4h16.393Zm-105.4-12.009V711.72h233.987v87.669Zm239.541,55.474V842.067l4.825,6.372Zm9.062-6.372,6.212-8.2v16.4Zm6.212-13.685a1.479,1.479,0,0,0-.341.323l-8.006,10.567-6.944-9.166v-25.52h15.273Zm-15.273-35.417v-64.58l6.944-9.166,8.006,10.567a1.427,1.427,0,0,0,.341.311v62.92Zm0-99.29V669.269l6.944-9.166,8.006,10.567a1.426,1.426,0,0,0,.341.311v29.134Zm31.615-108.538a2.37,2.37,0,0,0-1.114-.291h-7.492l9.116-5.407Zm37.875-27.862-.991,5.318-4.611-1.995Zm-8.912,5.286-1.5,8.023-6.957-3.008Zm-13.175,7.814-2.244,12.021-10.424-4.506Zm-13.516,41.4V605.27l7.046,4.8Zm0-15.369v-6.332a6.847,6.847,0,0,0-.885-3.477l.6-6.752,11.136,4.809-3.16,16.96Zm9.365,4.636,2.936-15.748,7.832,3.384Zm12.283-14.089-8.936-3.86,2.554-13.693.626-.367,8.875,3.832-2.5,13.374Zm2.622-3,1.951-10.462,5.21,2.253Zm8.245-10.135-5.874-2.556,1.672-8.948,5.881,2.54Zm1.839-1.429,1.287-6.893,3.429,1.458Zm6.232-7.143-4.532-1.958,1.3-6.99,3.525-2.092,2.762,7.535Z" transform="translate(-761.477 -326.299)" fill="#5aa69b"/>
        <path id="Path_672" data-name="Path 672" d="M1395.775,989.319H1307.78L1334.373,740h34.81Zm-81.242-9.954h74.486l-24.468-229.431h-25.54Z" transform="translate(-893.067 -435.101)" fill="#817ca0"/>
        <path id="Path_673" data-name="Path 673" d="M1321.082,1255.661l-2.122-9.207,73.658-53.774,2.122,9.211Z" transform="translate(-900.704 -700.591)" fill="#817ca0"/>
        <path id="Path_674" data-name="Path 674" d="M1410.313,1142.018l-64.722-40.53,1.856-9.388,64.723,40.525Z" transform="translate(-917.776 -645.82)" fill="#817ca0"/>
        <path id="Path_675" data-name="Path 675" d="M1347.229,1035.363l-2.309-9.065,55.593-44.838,2.309,9.065Z" transform="translate(-917.841 -583.06)" fill="#817ca0"/>
        <path id="Path_676" data-name="Path 676" d="M1418.31,926.923,1372.13,883.8l2.6-8.815,46.184,43.118Z" transform="translate(-935.279 -522.933)" fill="#817ca0"/>
        <path id="Path_677" data-name="Path 677" d="M1374.783,834.409l-2.483-8.92,37.994-33.439,2.479,8.92Z" transform="translate(-935.837 -476.361)" fill="#817ca0"/>
        <path id="Path_678" data-name="Path 678" d="M1408.708,1255.661l-73.658-53.77,2.121-9.211,73.658,53.774Z" transform="translate(-910.704 -700.591)" fill="#817ca0"/>
        <path id="Path_679" data-name="Path 679" d="M1337.3,1142.018l-1.856-9.392,64.722-40.525,1.856,9.388Z" transform="translate(-911.464 -645.82)" fill="#817ca0"/>
        <path id="Path_680" data-name="Path 680" d="M1417.183,1035.363l-55.593-44.838,2.309-9.065,55.593,44.838Z" transform="translate(-928.214 -583.06)" fill="#817ca0"/>
        <path id="Path_681" data-name="Path 681" d="M1363.762,926.923l-2.6-8.815,46.184-43.118,2.6,8.815Z" transform="translate(-928.448 -522.933)" fill="#817ca0"/>
        <path id="Path_682" data-name="Path 682" d="M1423.384,834.409,1385.39,800.97l2.482-8.92,37.99,33.439Z" transform="translate(-943.991 -476.361)" fill="#817ca0"/>
        <path id="Path_683" data-name="Path 683" d="M1429.258,690.329a16.294,16.294,0,0,0,4-.477l-2.677-41.482h-2.642l-2.677,41.482A16.3,16.3,0,0,0,1429.258,690.329Z" transform="translate(-970.588 -395.051)" fill="#817ca0"/>
        <path id="Path_684" data-name="Path 684" d="M1433.367,638.235c0,3.8-1.726,6.865-3.858,6.865s-3.858-3.073-3.858-6.865,1.727-6.865,3.858-6.865S1433.367,634.451,1433.367,638.235Z" transform="translate(-970.846 -386.167)" fill="#817ca0"/>
        <rect id="Rectangle_757" data-name="Rectangle 757" width="110.647" height="38.244" transform="translate(403.401 559.148)" fill="#817ca0"/>
        <path id="Path_685" data-name="Path 685" d="M1419.776,536.616l5.285-7.923c-3.1-4.951-7.444-8.076-12.3-8.209-4.767-.121-9.126,2.706-12.314,7.378l5.21,8.044c1.815-2.629,4.284-4.216,6.984-4.147C1415.471,531.823,1418,533.693,1419.776,536.616Z" transform="translate(-954.232 -323.22)" fill="#bbd642"/>
        <path id="Path_686" data-name="Path 686" d="M1375.185,415.127c-12.6-.3-24.055,7.236-32.405,19.637l5.68,8.758c6.855-10.172,16.267-16.346,26.6-16.091,10.267.25,19.5,6.8,26.126,17.2l5.755-8.633C1398.874,423.385,1387.66,415.438,1375.185,415.127Z" transform="translate(-916.164 -263.244)" fill="#bbd642"/>
        <path id="Path_687" data-name="Path 687" d="M1372.65,482.994l5.05,7.781c4.349-6.408,10.3-10.3,16.833-10.139s12.46,4.377,16.669,11.052l5.108-7.672c-5.489-8.653-13.148-14.1-21.672-14.315S1378.323,474.591,1372.65,482.994Z" transform="translate(-935.882 -294.308)" fill="#bbd642"/>
        <path id="Path_689" data-name="Path 689" d="M1729.633,900.194l-15.944,20.259a3.042,3.042,0,0,1-2.132,1.211,2.275,2.275,0,0,1-2.132-1L1696.315,903a46.213,46.213,0,0,1-8.874,4.038q-1.495,8.387-3.494,24.281a6.7,6.7,0,0,1-1.2,3.38,2.548,2.548,0,0,1-2.193,1.115q-4.281.424-13.7-.965t-10.737-3.788a9.277,9.277,0,0,1-.913-3.662l-.525-24.935a51.011,51.011,0,0,1-8.173-6.461q-10.727,10.66-15.1,13.806-2.431,1.793-4.172-1.381l-13.318-24.252a7.247,7.247,0,0,1-.858-3.453,5.538,5.538,0,0,1,.855-3.23l11.537-19.855a123.1,123.1,0,0,1-2.724-13.212l-16.145-5.653a3.381,3.381,0,0,1-2.149-1.91,6.814,6.814,0,0,1-.708-3.735q.63-24.171,2.169-33.362a6.3,6.3,0,0,1,1.233-2.863,3.007,3.007,0,0,1,2.132-1.211q2.407-.271,7.832-.493t8.306-.533a87.8,87.8,0,0,1,4.621-13.5l-9.041-22.471a6.564,6.564,0,0,1-.361-3.44,6.266,6.266,0,0,1,1.209-3.016l15.944-20.259a3.034,3.034,0,0,1,2.132-1.211,2.188,2.188,0,0,1,2.074.892l13.169,17.767a35.582,35.582,0,0,1,8.946-4.131q1.7-9.582,3.494-24.289a6.593,6.593,0,0,1,1.124-3.287,3.219,3.219,0,0,1,2.193-1.115q4.148-.448,13.621.953t10.805,3.8a8.223,8.223,0,0,1,.841,3.751l.6,24.842a50.925,50.925,0,0,1,8.173,6.461q10.727-10.66,15.1-13.806,2.432-1.793,4.172,1.377l13.315,24.256a7.208,7.208,0,0,1,.858,3.453,5.53,5.53,0,0,1-.855,3.23L1726,794.781a123.668,123.668,0,0,1,2.724,13.208l16.206,5.75a3.025,3.025,0,0,1,2.084,1.8,7.551,7.551,0,0,1,.783,3.634q-.814,24.955-2.312,33.544a5.321,5.321,0,0,1-1.161,2.774,3.031,3.031,0,0,1-2.132,1.211q-2.411.279-7.833.5t-8.3.537a107.8,107.8,0,0,1-4.58,13.422l8.97,22.552a6.615,6.615,0,0,1,.361,3.432,6.354,6.354,0,0,1-1.175,3.045Zm-56.042-37.675q9.875,1.353,17.5-8.322t8.513-24.717q.889-15.038-5.472-26.618t-16.243-12.922q-9.876-1.353-17.5,8.322t-8.513,24.717q-.889,15.041,5.469,26.619T1673.591,862.519Z" transform="translate(-1072.621 -426.102)" fill="#b9d877"/>
        <path id="Path_690" data-name="Path 690" d="M1858.8,584.742l-3.766,4.785a.723.723,0,0,1-.5.287.536.536,0,0,1-.5-.234l-3.1-4.171a11.1,11.1,0,0,1-2.094.957q-.358,1.981-.828,5.734a1.548,1.548,0,0,1-.283.808.593.593,0,0,1-.517.267,14.85,14.85,0,0,1-3.235-.23q-2.22-.327-2.534-.892a2.175,2.175,0,0,1-.218-.868l-.123-5.887a12.111,12.111,0,0,1-1.934-1.53,37.414,37.414,0,0,1-3.566,3.263c-.381.279-.712.174-.984-.327l-3.147-5.73a1.732,1.732,0,0,1-.2-.808,1.315,1.315,0,0,1,.2-.759l2.724-4.688a28.942,28.942,0,0,1-.647-3.121l-3.814-1.333a.8.8,0,0,1-.507-.448,1.616,1.616,0,0,1-.167-.884,66.306,66.306,0,0,1,.511-7.878,1.5,1.5,0,0,1,.293-.678.729.729,0,0,1,.5-.291c.378-.04.994-.081,1.849-.113s1.509-.077,1.962-.129a20.676,20.676,0,0,1,1.1-3.19l-2.135-5.342a1.512,1.512,0,0,1-.085-.808,1.464,1.464,0,0,1,.283-.711L1837.1,545a.714.714,0,0,1,.5-.291.518.518,0,0,1,.49.21l3.109,4.2a8.588,8.588,0,0,1,2.115-.977q.4-2.261.824-5.734a1.55,1.55,0,0,1,.266-.775.748.748,0,0,1,.518-.263,14.4,14.4,0,0,1,3.218.222q2.24.331,2.554.9a1.947,1.947,0,0,1,.2.884l.14,5.867a11.966,11.966,0,0,1,1.934,1.53,36.637,36.637,0,0,1,3.565-3.259c.385-.283.712-.178.988.323l3.143,5.73a1.7,1.7,0,0,1,.2.808,1.308,1.308,0,0,1-.2.759l-2.724,4.688a30.046,30.046,0,0,1,.647,3.121l3.824,1.357a.734.734,0,0,1,.494.428,1.773,1.773,0,0,1,.184.86,68.225,68.225,0,0,1-.545,7.923,1.242,1.242,0,0,1-.276.654.706.706,0,0,1-.5.291c-.381.044-1,.081-1.853.117s-1.509.077-1.961.125a25.882,25.882,0,0,1-1.08,3.17l2.118,5.338a1.585,1.585,0,0,1,.085.808,1.537,1.537,0,0,1-.286.727Zm-13.237-8.884a4.363,4.363,0,0,0,4.134-1.967,10.165,10.165,0,0,0,2.006-5.835,11.4,11.4,0,0,0-1.291-6.287,5.259,5.259,0,0,0-3.838-3.057,4.363,4.363,0,0,0-4.134,1.966,10.2,10.2,0,0,0-2.006,5.835,11.422,11.422,0,0,0,1.291,6.291,5.222,5.222,0,0,0,3.838,3.037Z" transform="translate(-1220.82 -334.247)" fill="#fff371"/>
        <path id="Path_691" data-name="Path 691" d="M869.316,1077.353v34.828H794.6c-5.789,0-8.067,6.889-14.4,11.335s-17.241-6.982-20.994-.242l-31.1,55.6-.463.844c0-.372,0-.957-.044-1.752s-.048-1.381-.048-1.757v-134.8q0-12.922,6.092-22.209t14.585-9.287h29.538q8.493,0,14.585,9.287t6.092,22.209v4.478h50.212q8.49,0,14.582,9.287T869.316,1077.353Z" transform="translate(-530.941 -591.742)" fill="#fbc436"/>
        <path id="Path_692" data-name="Path 692" d="M894.237,1244a18.543,18.543,0,0,1-2.861,9.263l-31.013,55.611a35.95,35.95,0,0,1-11.122,12.142q-7.155,4.983-13.254,4.987H735.57a9.078,9.078,0,0,1-5.585-1.825q-2.448-1.825-2.445-6.057a18.542,18.542,0,0,1,2.86-9.263l31.009-55.6a35.942,35.942,0,0,1,11.125-12.142q7.158-4.983,13.247-4.987H886.2a9.1,9.1,0,0,1,5.585,1.825Q894.24,1239.788,894.237,1244Z" transform="translate(-530.015 -724.391)" fill="#e6e52c"/>
        <path id="Path_693" data-name="Path 693" d="M1408.681,222.012c0,.727-.385,1.316-.865,1.316H1374.2c-.477,0-.865-.59-.865-1.316V160.056c0-.727.388-1.316.865-1.316h33.621c.48,0,.865.59.865,1.316Z" transform="translate(-936.754 -122.2)" fill="#d1cdc9"/>
        <path id="Path_694" data-name="Path 694" d="M1409.764,173.928c0,.727-.385,1.316-.865,1.316h-31.384c-.477,0-.865-.59-.865-1.316v-9.982c0-.727.388-1.316.865-1.316H1408.9c.48,0,.865.59.865,1.316Z" transform="translate(-938.942 -124.519)" fill="#eae7e5"/>
        <path id="Path_695" data-name="Path 695" d="M1385.534,175.527c0,1.014-.541,1.837-1.209,1.837s-1.205-.808-1.205-1.837.541-1.837,1.205-1.837S1385.534,174.514,1385.534,175.527Z" transform="translate(-944.567 -131.113)" fill="#b3d997"/>
        <path id="Path_696" data-name="Path 696" d="M1394.934,175.527c0,1.014-.542,1.837-1.206,1.837s-1.209-.808-1.209-1.837.542-1.837,1.209-1.837S1394.934,174.514,1394.934,175.527Z" transform="translate(-950.436 -131.113)" fill="#f47f6e"/>
        <path id="Path_697" data-name="Path 697" d="M1430.818,177.024a.94.94,0,0,1-.681,1.05h-18.7a.94.94,0,0,1-.681-1.05h0a.945.945,0,0,1,.681-1.054h18.7A.945.945,0,0,1,1430.818,177.024Z" transform="translate(-960.901 -132.473)" fill="#9e9893"/>
        <path id="Path_698" data-name="Path 698" d="M1409.764,208.792c0,.727-.385,1.316-.865,1.316h-31.384c-.477,0-.865-.59-.865-1.316v-9.986c0-.727.388-1.316.865-1.316H1408.9c.48,0,.865.59.865,1.316Z" transform="translate(-938.942 -145.303)" fill="#eae7e5"/>
        <path id="Path_699" data-name="Path 699" d="M1385.534,210.387c0,1.018-.541,1.837-1.209,1.837s-1.205-.808-1.205-1.837.541-1.837,1.205-1.837S1385.534,209.374,1385.534,210.387Z" transform="translate(-944.567 -151.897)" fill="#b3d997"/>
        <path id="Path_700" data-name="Path 700" d="M1394.934,210.387c0,1.018-.542,1.837-1.206,1.837s-1.209-.808-1.209-1.837.542-1.837,1.209-1.837S1394.934,209.374,1394.934,210.387Z" transform="translate(-950.436 -151.897)" fill="#f47f6e"/>
        <path id="Path_701" data-name="Path 701" d="M1430.818,211.884a.945.945,0,0,1-.681,1.054h-18.7a.945.945,0,0,1-.681-1.054h0a.945.945,0,0,1,.681-1.054h18.7a.945.945,0,0,1,.681,1.054Z" transform="translate(-960.901 -153.256)" fill="#9e9893"/>
        <path id="Path_702" data-name="Path 702" d="M1409.764,243.658c0,.727-.385,1.316-.865,1.316h-31.384c-.477,0-.865-.59-.865-1.316v-9.982c0-.727.388-1.316.865-1.316H1408.9c.48,0,.865.59.865,1.316Z" transform="translate(-938.942 -166.092)" fill="#eae7e5"/>
        <path id="Path_703" data-name="Path 703" d="M1385.534,245.287c0,1.014-.541,1.837-1.209,1.837s-1.205-.808-1.205-1.837.541-1.837,1.205-1.837S1385.534,244.258,1385.534,245.287Z" transform="translate(-944.567 -172.704)" fill="#b3d997"/>
        <path id="Path_704" data-name="Path 704" d="M1394.934,245.287c0,1.014-.542,1.837-1.206,1.837s-1.209-.808-1.209-1.837.542-1.837,1.209-1.837S1394.934,244.258,1394.934,245.287Z" transform="translate(-950.436 -172.704)" fill="#f47f6e"/>
        <path id="Path_705" data-name="Path 705" d="M1430.818,246.754a.94.94,0,0,1-.681,1.05h-18.7a.94.94,0,0,1-.681-1.05h0a.941.941,0,0,1,.681-1.054h18.7A.941.941,0,0,1,1430.818,246.754Z" transform="translate(-960.901 -174.046)" fill="#9e9893"/>
        <path id="Path_706" data-name="Path 706" d="M1409.764,278.522c0,.727-.385,1.312-.865,1.312h-31.384c-.477,0-.865-.586-.865-1.312v-9.986c0-.727.388-1.316.865-1.316H1408.9c.48,0,.865.59.865,1.316Z" transform="translate(-938.942 -186.876)" fill="#eae7e5"/>
        <path id="Path_707" data-name="Path 707" d="M1385.534,280.117c0,1.018-.541,1.837-1.209,1.837s-1.205-.808-1.205-1.837.541-1.837,1.205-1.837S1385.534,279.1,1385.534,280.117Z" transform="translate(-944.567 -193.47)" fill="#b3d997"/>
        <path id="Path_708" data-name="Path 708" d="M1394.934,280.117c0,1.018-.542,1.837-1.206,1.837s-1.209-.808-1.209-1.837.542-1.837,1.209-1.837S1394.934,279.1,1394.934,280.117Z" transform="translate(-950.436 -193.47)" fill="#f47f6e"/>
        <path id="Path_709" data-name="Path 709" d="M1430.818,281.614a.945.945,0,0,1-.681,1.054h-18.7a.945.945,0,0,1-.681-1.054h0a.945.945,0,0,1,.681-1.054h18.7A.945.945,0,0,1,1430.818,281.614Z" transform="translate(-960.901 -194.829)" fill="#9e9893"/>
        <rect id="Rectangle_758" data-name="Rectangle 758" width="2.156" height="7.846" transform="translate(453.17 101.128)" fill="#d1cdc9"/>
        <path id="Path_710" data-name="Path 710" d="M1408.461,336.009c0,.787-.419,1.429-.94,1.429H1373.58c-.518,0-.94-.642-.94-1.429h0c0-.808.422-1.429.94-1.429h33.941C1408.042,334.58,1408.461,335.218,1408.461,336.009Z" transform="translate(-936.299 -227.036)" fill="#d1cdc9"/>
        <rect id="Rectangle_759" data-name="Rectangle 759" width="10.894" height="4.345" transform="translate(448.802 106.801)" fill="#9e9893"/>
        <rect id="Rectangle_760" data-name="Rectangle 760" width="2.156" height="0.828" transform="translate(453.17 101.128)" fill="#231f20" opacity="0.1"/>
        <path id="Path_711" data-name="Path 711" d="M1685.352,320.457c-.753-7.24-2.98-13.249-6.6-18.054-2.894-3.848-6.266-6.166-10.073-7.022-.46-.1-.926-.182-1.39-.271H1664.7c-.528.113-1.052.214-1.577.339-3.892.913-7.291,3.408-10.2,7.434a34.982,34.982,0,0,0-6.13,16.532c-1.086,9.077.341,17.246,4.2,24.357,2.99,5.536,6.838,9.049,11.476,10.329,5.762,1.615,10.993-.44,15.59-5.936,3.957-4.733,6.361-10.951,7.247-18.506.112-.949.174-1.91.259-2.863v-3.953C1685.5,322.052,1685.454,321.252,1685.352,320.457Zm-20.122-6.966v9.643c0,.376-.044.553-.341.549h-7.216a1.167,1.167,0,0,1-.269-.028c.037-1.191.02-2.338.119-3.461.245-2.657.545-5.3.817-7.951.031-.3.106-.452.341-.38a25.043,25.043,0,0,0,6.354,1.1.539.539,0,0,1,.163.057A4.447,4.447,0,0,1,1665.23,313.491Zm-2.367-14.133a4.174,4.174,0,0,1,2.326-1.676v12.841a21.249,21.249,0,0,1-6.354-1.082c.34-1.312.681-2.629,1.056-3.9a18.943,18.943,0,0,1,2.973-6.174Zm-1.628-.86a35.283,35.283,0,0,0-3.814,10.471,18.18,18.18,0,0,1-4.669-2.705c2.36-3.844,5.169-6.416,8.483-7.753Zm-9.6,9.8c1.8,1.054,3.535,2.067,5.312,3.113a79.195,79.195,0,0,0-1.1,12.231h-7.795a37.018,37.018,0,0,1,3.579-15.332Zm.031,33.168a37.012,37.012,0,0,1-3.61-15.344h7.795a79.052,79.052,0,0,0,1.12,12.235Zm1.137,2.019a18.368,18.368,0,0,1,4.642-2.709,34.1,34.1,0,0,0,3.858,10.418c-1.944-.052-6.691-4.357-8.5-7.7Zm12.433,8.645a10.067,10.067,0,0,1-.964-.493,8.07,8.07,0,0,1-2.473-2.936,31.583,31.583,0,0,1-2.9-8.443,23.491,23.491,0,0,1,6.324-1.1c0,4.308.007,8.573.01,12.974Zm0-15.781c0,.113-.017.226-.027.384-.743.073-1.478.1-2.207.23q-2.081.38-4.151.88c-.34.081-.429-.02-.5-.5a77.035,77.035,0,0,1-.906-10.85,2.524,2.524,0,0,1,.021-.376c.105,0,.2-.04.3-.04,2.384,0,4.734,0,7.1-.02.232,0,.371.028.371.485,0,3.259.01,6.546.01,9.816Zm14.013-30.132a18.259,18.259,0,0,1-4.587,2.7c-.552-1.849-1.062-3.687-1.645-5.48a24.678,24.678,0,0,0-2.261-4.938c3.324,1.312,6.13,3.885,8.5,7.721Zm-4.669,16.96v.456h-7.737V312.974c.719-.073,1.444-.093,2.159-.226,1.41-.262,2.82-.569,4.223-.9.292-.069.391,0,.463.456a77.485,77.485,0,0,1,.9,10.866ZM1666.8,297.6a9.251,9.251,0,0,1,.964.493,9.027,9.027,0,0,1,2.806,3.574,33.115,33.115,0,0,1,2.551,7.777,21.314,21.314,0,0,1-6.31,1.09c.007-4.264,0-8.536,0-12.934Zm0,29.013c0-.359.02-.569.32-.565h7.213a1.772,1.772,0,0,1,.276.048c-.034,1.155-.017,2.3-.119,3.42-.242,2.657-.542,5.3-.814,7.951-.034.331-.123.468-.341.4a23.683,23.683,0,0,0-6.089-1.078c-.126,0-.249-.028-.391-.04,0-.186-.027-.335-.027-.485-.017-3.242-.017-6.445-.027-9.655Zm2.609,23.441a5.483,5.483,0,0,1-2.309,1.958c-.072.024-.143.032-.249.057V339.144a23.716,23.716,0,0,1,6.361,1.086c-.34,1.32-.681,2.613-1.049,3.868a19.5,19.5,0,0,1-2.755,5.952Zm1.4,1.163a35.37,35.37,0,0,0,3.811-10.471,18.2,18.2,0,0,1,4.672,2.706c-2.35,3.856-5.169,6.424-8.479,7.765Zm9.6-9.8L1675.1,338.3a79.683,79.683,0,0,0,1.1-12.219h7.792A36.907,36.907,0,0,1,1680.408,341.418Zm-4.212-17.8a79.441,79.441,0,0,0-1.127-12.239l5.309-3.133a37.163,37.163,0,0,1,3.61,15.344Z" transform="translate(-1106.697 -194.882)" fill="#daeef0" fill-rule="evenodd"/>
        <path id="Path_712" data-name="Path 712" d="M1168.446,253.39l-19.356,6.465,29.45,19.475Z" transform="translate(-797.285 -178.63)" fill="#f5c24a"/>
        <path id="Path_713" data-name="Path 713" d="M1155.423,315.8l-29.113-19.233,7.758-27.168,29.112,19.229Z" transform="translate(-782.761 -188.176)" fill="#dd9c42"/>
        <path id="Path_714" data-name="Path 714" d="M1159.524,310.841,1139.16,297.39l8.98-31.46,20.364,13.451Z" transform="translate(-791.1 -186.107)" fill="#fff"/>
        <path id="Path_715" data-name="Path 715" d="M1144.446,292.857l-18.536,4.163,7.894-27.62Z" transform="translate(-783.303 -188.176)" fill="#f1a948"/>
        <path id="Path_716" data-name="Path 716" d="M1181.14,321.793l10.638,23.457,7.894-27.62Z" transform="translate(-817.754 -208.036)" fill="#f1a948"/>
        <path id="Path_717" data-name="Path 717" d="M1145.526,320.04,1126,327.1l29.446,19.475Z" transform="translate(-782.892 -209.416)" fill="#231f20" opacity="0.2"/>
        <path id="Path_718" data-name="Path 718" d="M1145.353,321.52,1126,327.985l29.446,19.475Z" transform="translate(-782.892 -210.262)" fill="#f1b25c"/>
        <path id="Path_719" data-name="Path 719" d="M986.539,1089.917H964.333v43.558H933.548v-43.558H860.121l-10.461-2.334L924.4,926.063,953.422,913l4.086,13.051-59.594,124.774h36.618l26.156-46.251,3.647,7.434v38.817l20.01-4.89,2.2,4.89Z" transform="translate(-606.672 -534.337)" fill="#f7941d"/>
        <path id="Path_720" data-name="Path 720" d="M984.342,1087.583H960.685v46.409H927.9v-46.409H849.66v-34.412L918.146,913h35.276l-63.5,132.911h39.012V1004.55h31.752v41.361h23.657Z" transform="translate(-606.763 -534.312)" fill="#67c590"/>
        <path id="Path_721" data-name="Path 721" d="M1754.426,1089.917h-22.207v43.558h-30.774v-43.558h-73.433l-10.461-2.334,74.741-161.52L1721.312,913l4.086,13.051L1665.8,1050.825h36.622l26.157-46.251,3.644,7.434v38.817l20.013-4.89,2.193,4.89Z" transform="translate(-1081.76 -534.337)" fill="#f7941d"/>
        <path id="Path_722" data-name="Path 722" d="M1752.233,1087.583h-23.657v46.409h-32.79v-46.409H1617.55v-34.412L1686.032,913h35.28l-63.5,132.915h39.015V1004.55h31.752v41.361h23.657Z" transform="translate(-1081.934 -534.312)" fill="#67c590"/>
        <path id="Path_723" data-name="Path 723" d="M1284.817,1138.3q-13.25-12.736-20.745-36.9t-7.492-57.634q0-33.483,7.492-57.639t20.745-36.891q13.24-12.736,30.192-12.744t30.192,12.744q13.24,12.744,20.742,36.891t7.492,57.639q0,33.487-7.492,57.634t-20.742,36.9q-13.25,12.744-30.192,12.744T1284.817,1138.3Zm49.766-44.152q7.11-16.293,7.11-50.378t-7.11-50.378q-7.111-16.293-19.574-16.3-12.259,0-19.384,16.3t-7.11,50.378q0,34.081,7.11,50.378t19.384,16.3Q1327.473,1110.449,1334.584,1094.152Z" transform="translate(-859.635 -547.946)" fill="#f7941d"/>
        <path id="Path_724" data-name="Path 724" d="M1282,1118.61q-14.112-13.572-22.1-39.306t-7.989-61.406q0-35.676,7.989-61.406t22.1-39.306q14.115-13.576,32.167-13.576t32.167,13.576q14.109,13.576,22.1,39.306t7.989,61.406q0,35.676-7.989,61.406t-22.1,39.306q-14.119,13.576-32.167,13.576T1282,1118.61Zm53.032-47.043q7.57-17.363,7.574-53.669t-7.574-53.673q-7.58-17.363-20.858-17.363-13.07,0-20.647,17.363t-7.577,53.673q0,36.306,7.577,53.669t20.647,17.363Q1327.448,1088.93,1335.032,1071.567Z" transform="translate(-856.289 -528.622)" fill="#67c590"/>
        <path id="Path_725" data-name="Path 725" d="M915,661.65l42.189,43.929q3.341,3.7,7.533,2.524t6.535-6.36a21.305,21.305,0,0,0,1.567-11.561q-.777-6.384-4.243-9.8L926.51,636.17a49.778,49.778,0,0,1-4.049,14.537A33.848,33.848,0,0,1,915,661.65Zm41.205,29.3a7.95,7.95,0,0,1,.6-4.321,3.948,3.948,0,0,1,2.438-2.4,2.717,2.717,0,0,1,2.84.913,6.277,6.277,0,0,1,1.577,3.711,7.957,7.957,0,0,1-.6,4.321,3.948,3.948,0,0,1-2.438,2.4,2.717,2.717,0,0,1-2.84-.913A6.322,6.322,0,0,1,956.205,690.95Z" transform="translate(-650.327 -387.274)" fill="#e0e3e5"/>
        <path id="Path_726" data-name="Path 726" d="M930.34,675.2,967.3,713.658q3.341,3.7,7.533,2.524t6.535-6.36a21.3,21.3,0,0,0,1.566-11.561q-.776-6.384-4.243-9.8L941.857,649.72a50.122,50.122,0,0,1-4.008,14.569A33.889,33.889,0,0,1,930.34,675.2Zm35.985,23.824a7.951,7.951,0,0,1,.6-4.321,3.947,3.947,0,0,1,2.438-2.4,2.717,2.717,0,0,1,2.84.913,6.277,6.277,0,0,1,1.577,3.711,7.954,7.954,0,0,1-.6,4.321,3.948,3.948,0,0,1-2.438,2.4,2.717,2.717,0,0,1-2.84-.913,6.319,6.319,0,0,1-1.58-3.707Z" transform="translate(-660.07 -395.092)" fill="#ebedef"/>
        <path id="Path_727" data-name="Path 727" d="M832.482,600.88a3.5,3.5,0,0,0,.422,2.827,24.932,24.932,0,0,0,9.46,9.8,14.948,14.948,0,0,0,11.65,1.361,20.463,20.463,0,0,0,10.635-7.636,38.1,38.1,0,0,0,6.657-14.581,49.947,49.947,0,0,0,.96-17.86,43.389,43.389,0,0,0-5.108-16.277,25.742,25.742,0,0,0-9.675-10.224,14.959,14.959,0,0,0-11.742-1.462,20.12,20.12,0,0,0-10.557,7.616,38.088,38.088,0,0,0-6.531,14.282,3.608,3.608,0,0,0,.266,2.859c.477.844,1.08,1.163,1.8.957l16.322-4.6,7.832,11.476-4.6,14.981-16.3,4.591A2.3,2.3,0,0,0,832.482,600.88Z" transform="translate(-596.951 -336.571)" fill="#ebedef"/>
        <path id="Path_728" data-name="Path 728" d="M1876.822,767.328c1.516-.961,3.194-2.019,3.038-4.979-.17-2.326-.957-4.365-1.073-6.727a5.452,5.452,0,0,1,1.3-4.422c.569-.654,1.13-.9,1.491-1.809a5.49,5.49,0,0,0,.112-2.928c-.535-4.967,2.939-6.865,5.448-4.805l1.832-2.318c1.3.727,2.472,4.381,2.486,6.408.034,1.757.681,5.33-.037,6.663-.776,1.51-1.311,1.559-.487,3.634.463,1.3,1.281,1.9.474,3.533-.6,1.131-2.881,2.076-2.408,4.082.375,1.672,2.646,2.108,1.876,4.531-.262.9-1.076.86-1.233,1.886-.187,1.147.681,1.849,1.045,2.673.933,2.193.341,4.789-1.342,5.165-.766.129-1.536,3.315-1.573,4.409a2.681,2.681,0,0,1-3.065,2.455,24.586,24.586,0,0,0-3.8-.735,6.162,6.162,0,0,1-4.539-2.657,18.153,18.153,0,0,1-2.22-8.161C1874.122,770.34,1875.14,768.406,1876.822,767.328Z" transform="translate(-1250.1 -446.428)" fill="#8a5e3c"/>
        <path id="Path_729" data-name="Path 729" d="M1881.852,826.358h11.023L1890.8,809.12l-.2-19.1h-9.784l-1.117,17.323,1.652,3.889Z" transform="translate(-1253.874 -475.417)" fill="#bad4df"/>
        <path id="Path_730" data-name="Path 730" d="M1892.8,782.6c0,1.429.763,2.592,1.7,2.592h0c.943,0,1.7-1.163,1.7-2.592v-3.1c0-1.433-.763-2.592-1.7-2.592h0c-.94,0-1.7,1.159-1.7,2.592Z" transform="translate(-1262.729 -468.888)" fill="#eedbc7"/>
        <path id="Path_731" data-name="Path 731" d="M1881.088,744.11c-1.182,4.882.46,10.293,3.667,12.09s6.767-.7,7.948-5.581-.415-10.5-3.667-12.09C1882.184,735.186,1884.428,747.131,1881.088,744.11Z" transform="translate(-1254.556 -446.46)" fill="#eedbc7"/>
        <path id="Path_732" data-name="Path 732" d="M1866.465,806.922c1.223-5.431,2.724-11,3.457-13.834s1.406-4.442,3.947-2.544c1.484,1.1,1.273,4.26.613,6.542l-4.529,14.028c-.657,2.277-1.618,3.339-2.843,2.516A10.523,10.523,0,0,1,1866.465,806.922Z" transform="translate(-1245.746 -475.65)" fill="#bad4df"/>
        <rect id="Rectangle_761" data-name="Rectangle 761" width="11.027" height="8.427" transform="translate(628.052 352.629)" fill="#0098ce"/>
        <path id="Path_733" data-name="Path 733" d="M1861.544,897.953l-3.334-2.556L1878.7,880s4.086,13.253-1.883,14.569Z" transform="translate(-1239.86 -527.044)" fill="#0098ce"/>
        <path id="Path_734" data-name="Path 734" d="M1865.758,945.642l-2.421.949-5.2-30.721,3.657-1.429Z" transform="translate(-1240.803 -546.034)" fill="#0098ce"/>
        <path id="Path_735" data-name="Path 735" d="M1883.13,765.12l2.5,1.4C1885.327,768.274,1883.239,769.154,1883.13,765.12Z" transform="translate(-1256.754 -462.36)" fill="#fff"/>
        <path id="Path_736" data-name="Path 736" d="M1862.693,992.361c-1.362,5.249-6.208,5.568-5.448,10.006l6.705-2.625v-.048s-.153-3.23.272-3.384.858.222.971.872l.31,1.958.878-.343-1.28-7.587Z" transform="translate(-1240.085 -590.376)" fill="#f26d78"/>
        <path id="Path_737" data-name="Path 737" d="M1839.74,889.766l-.63-5.661,15.975-4.095,1.325,9.74Z" transform="translate(-1228.264 -527.339)" fill="#0098ce"/>
        <path id="Path_738" data-name="Path 738" d="M1842.158,921.127l-2.5.137-.552-31.585,3.566-.319Z" transform="translate(-1229.197 -531.837)" fill="#0098ce"/>
        <path id="Path_739" data-name="Path 739" d="M1827.476,968.705c-2.063,4.7-6.848,3.424-6.739,8l6.923-.384a.29.29,0,0,1,0-.052s.3-3.194.739-3.23.811.5.828,1.167l.027,2.019.909-.048-.187-7.83Z" transform="translate(-1217.334 -577.515)" fill="#f26d78"/>
        <path id="Path_740" data-name="Path 740" d="M1885.2,729.013a1.264,1.264,0,0,1,0-.7c.467-1.547,1.471-2.1,1.852-.283.187.937.32,1.086,1.137.985,3.467-.4,6.671,2.245,6.927,2.9,2.479,1.53,3.7,7.918,2.776,11.71-1.212,5-4.543,7.882-7.832,6.332a13.2,13.2,0,0,0,.661-3.461,2,2,0,0,0,.712.739c.926.517,1.951-.206,2.3-1.615a3.271,3.271,0,0,0-1.059-3.493,1.429,1.429,0,0,0-1.965.767c.031-.921-.821-2.14-.187-5.609a2.06,2.06,0,0,1-.34-.783c-.514,1.938-2.946.089-2.9-1.615,0,1.175-.807.868-1.26.476a2.4,2.4,0,0,1-.919-2.257c-.909,1.3-1.723-.618-1.669-1.979A2.041,2.041,0,0,1,1885.2,729.013Z" transform="translate(-1256.085 -440.06)" fill="#8a5e3c"/>
        <path id="Path_741" data-name="Path 741" d="M1910.609,815.642a17.162,17.162,0,0,1-4.7-6.929,40.7,40.7,0,0,0-5.918-9.457c-1.7-3.7.5-8.823,2.6-9.207a3.76,3.76,0,0,1,3.858,2.94l4.948,16.834C1913.089,814.641,1910.609,815.642,1910.609,815.642Z" transform="translate(-1266.2 -475.77)" fill="#bad4df"/>
        <path id="Path_742" data-name="Path 742" d="M1902.92,846.853l9.3-13.653.715,8.189-9.5,8.383Z" transform="translate(-1268.586 -500.553)" fill="#bad4df"/>
        <path id="Path_743" data-name="Path 743" d="M1891.975,870.959c-.6,2.2-.95-1.284-.79-3.658s1.461-2.185,3.02-1.942,1.478-.359,1.8,2.019C1896.429,870.471,1892.6,868.67,1891.975,870.959Z" transform="translate(-1261.593 -519.063)" fill="#eedbc7"/>
        <path id="Path_744" data-name="Path 744" d="M1846.368,841.871V821.022a.424.424,0,0,0-.31-.472h-22.339a.423.423,0,0,0-.313.472v21.757a.423.423,0,0,0,.313.476h26.964a.424.424,0,0,0,.31-.476v-.909Zm-12.726-14.331a4.525,4.525,0,0,0-.232,1.446c0,1.728.919,3.129,2.043,3.129h.078c-.34,1-1.022,1.684-1.825,1.684-1.137,0-2.043-1.4-2.043-3.129S1832.542,827.6,1833.642,827.54Z" transform="translate(-1217.755 -493.174)" fill="#fff"/>
        <path id="Path_745" data-name="Path 745" d="M1849.744,844.109c.793,0,1.481-.682,1.825-1.684h-.078c-1.137,0-2.043-1.4-2.043-3.13a4.542,4.542,0,0,1,.232-1.446c-1.1.065-1.979,1.438-1.979,3.125S1848.606,844.109,1849.744,844.109Z" transform="translate(-1234.54 -503.534)" fill="#cfc7be"/>
        <rect id="Rectangle_762" data-name="Rectangle 762" width="15.287" height="14.908" rx="7.454" transform="translate(608.883 271.613)" fill="#ec6065"/>
        <path id="Path_746" data-name="Path 746" d="M1862.161,734.362l-3.361-5.112h3.361Z" transform="translate(-1241.504 -441.934)" fill="#ec6065"/>
        <path id="Path_747" data-name="Path 747" d="M1846.284,707.2a2.881,2.881,0,0,1,.32-.533,2.619,2.619,0,0,0,.225-.359.71.71,0,0,0,.075-.331.591.591,0,0,0-.14-.4.464.464,0,0,0-.368-.158.609.609,0,0,0-.392.141,1.119,1.119,0,0,0-.286.4l-.569-.5a1.724,1.724,0,0,1,.531-.707,1.3,1.3,0,0,1,.793-.25,1.115,1.115,0,0,1,.865.351,1.357,1.357,0,0,1,.341.969,1.8,1.8,0,0,1-.065.513,1.511,1.511,0,0,1-.153.371,3.937,3.937,0,0,1-.238.355,2.621,2.621,0,0,0-.252.4.88.88,0,0,0-.078.4h-.708A1.478,1.478,0,0,1,1846.284,707.2Zm-.078,2.213a.8.8,0,0,1-.126-.46.766.766,0,0,1,.126-.452.373.373,0,0,1,.341-.182.382.382,0,0,1,.34.182.879.879,0,0,1,0,.913.4.4,0,0,1-.678,0Z" transform="translate(-1233.037 -427.885)" fill="#f1f2f2"/>
        <path id="Path_748" data-name="Path 748" d="M1854.137,707.157a3.067,3.067,0,0,1,.32-.533,2.706,2.706,0,0,0,.229-.359.749.749,0,0,0,.072-.331.594.594,0,0,0-.136-.4.463.463,0,0,0-.368-.158.609.609,0,0,0-.392.141,1.085,1.085,0,0,0-.289.4l-.572-.533a1.4,1.4,0,0,1,1.325-.957,1.124,1.124,0,0,1,.865.351,1.371,1.371,0,0,1,.341.969,1.947,1.947,0,0,1-.061.513,1.652,1.652,0,0,1-.157.371c-.061.105-.14.222-.235.355a2.372,2.372,0,0,0-.252.4.838.838,0,0,0-.082.4h-.722A1.47,1.47,0,0,1,1854.137,707.157Zm-.075,2.213a.8.8,0,0,1-.13-.46.765.765,0,0,1,.126-.452.382.382,0,0,1,.341-.182.376.376,0,0,1,.34.182.764.764,0,0,1,.126.452.776.776,0,0,1-.129.46.394.394,0,0,1-.674,0Z" transform="translate(-1237.939 -427.845)" fill="#f1f2f2"/>
        <path id="Path_749" data-name="Path 749" d="M1862.044,707.2a3.082,3.082,0,0,1,.34-.533,2.587,2.587,0,0,0,.225-.359.706.706,0,0,0,.075-.331.591.591,0,0,0-.14-.4.463.463,0,0,0-.368-.158.61.61,0,0,0-.392.141,1.119,1.119,0,0,0-.286.4l-.569-.5a1.725,1.725,0,0,1,.531-.707,1.307,1.307,0,0,1,.8-.25,1.112,1.112,0,0,1,.862.351,1.356,1.356,0,0,1,.34.969,1.8,1.8,0,0,1-.065.513,1.5,1.5,0,0,1-.153.371,3.954,3.954,0,0,1-.238.355,2.926,2.926,0,0,0-.252.4.882.882,0,0,0-.078.4h-.708a1.541,1.541,0,0,1,.078-.666Zm-.075,2.213a.8.8,0,0,1-.126-.46.764.764,0,0,1,.126-.452.376.376,0,0,1,.341-.182.382.382,0,0,1,.341.182.794.794,0,0,1,.126.452.8.8,0,0,1-.13.46.391.391,0,0,1-.671,0Z" transform="translate(-1242.89 -427.885)" fill="#f1f2f2"/>
        <path id="Path_750" data-name="Path 750" d="M1097,704.61l-13.758.028-.61-34.17,13.237-.028Z" transform="translate(-756.474 -407.765)" fill="#f3714e"/>
        <path id="Path_751" data-name="Path 751" d="M1102.8,663.278c0,1.393-.739,2.524-1.652,2.524h0c-.916,0-1.658-1.123-1.658-2.516v-3.012c0-1.393.739-2.524,1.655-2.524h0c.913,0,1.655,1.123,1.658,2.516Z" transform="translate(-767.441 -401.278)" fill="#fee1c6"/>
        <path id="Path_752" data-name="Path 752" d="M1077.385,897.238l-7.625-4.733,1.7-6.336,1.979,1.425C1074.2,892.4,1078.832,889.267,1077.385,897.238Z" transform="translate(-748.7 -530.788)" fill="#f3f9fd"/>
        <path id="Path_753" data-name="Path 753" d="M1104.388,632.326c0,5.056-2.687,9.162-6.01,9.17s-6.024-4.091-6.027-9.146,2.69-9.376,6.01-9.17C1105.352,623.616,1100.673,633.376,1104.388,632.326Z" transform="translate(-762.634 -381.403)" fill="#fee1c6"/>
        <path id="Path_754" data-name="Path 754" d="M1116.609,694.388c1.182-.84,1.556-2.75.736-6.461-1.165-5.225-.953-12.922-.953-12.922-.756-6.259-4.744-5.06-6.276-2.875a8.259,8.259,0,0,0-.995,6.348l4.8,15.623a1.863,1.863,0,0,0,2.687.258Z" transform="translate(-773.062 -407.998)" fill="#f3714e"/>
        <rect id="Rectangle_763" data-name="Rectangle 763" width="13.755" height="8.528" transform="translate(326.824 298.569) rotate(-0.1)" fill="#2e4955"/>
        <path id="Path_755" data-name="Path 755" d="M1086.7,796.422l3.3-.008.289-20.194-5.857.012Z" transform="translate(-757.938 -468.125)" fill="#2e4955"/>
        <path id="Path_756" data-name="Path 756" d="M1074.63,847.766l2.019,1.256,6.879-25.658-3.051-1.894Z" transform="translate(-751.701 -493.531)" fill="#2e4955"/>
        <path id="Path_757" data-name="Path 757" d="M1069.76,900.572l7.625,4.732.235-.876L1070,899.7Z" transform="translate(-748.702 -538.658)" fill="#2e4955"/>
        <path id="Path_758" data-name="Path 758" d="M1125.9,901.145h-8.231V894.28l2.186.178C1121.75,898.5,1125.254,892.956,1125.9,901.145Z" transform="translate(-778.591 -535.538)" fill="#f3f9fd"/>
        <path id="Path_759" data-name="Path 759" d="M1109.915,796.388l3.3-.008.286-20.19-5.857.008Z" transform="translate(-772.427 -468.109)" fill="#2e4955"/>
        <path id="Path_760" data-name="Path 760" d="M1115.458,853.9l2.183,0-.024-27.709-3.3.008Z" transform="translate(-776.7 -496.2)" fill="#2e4955"/>
        <rect id="Rectangle_764" data-name="Rectangle 764" width="8.234" height="0.942" transform="translate(339.11 364.848) rotate(-0.1)" fill="#2e4955"/>
        <path id="Path_761" data-name="Path 761" d="M1114.905,656.44h-2.595C1112.2,658.2,1113.9,660.074,1114.905,656.44Z" transform="translate(-775.471 -400.687)" fill="#fff"/>
        <path id="Path_762" data-name="Path 762" d="M1097.564,617.658c-1.022.808-1.226,1.361-3.378.63-3.034-1.03-7.281-.941-7.209-.351-2.224,1.522-3.77,4.918-3.766,8.884,0,5.185,2.677,9.413,6.038,9.691a13.048,13.048,0,0,1-.106-3.4,1.291,1.291,0,0,1-.814.311c-.96,0-1.737-1.179-1.74-2.641s.776-2.641,1.737-2.645c.739,0,1.362.707,1.621,1.7a11.889,11.889,0,0,0,.163-4.151c1.778.295,3.324.759,5.789-.38C1098.122,624.131,1099.2,621.309,1097.564,617.658Z" transform="translate(-756.805 -378.17)" fill="#f9a05c"/>
        <path id="Path_763" data-name="Path 763" d="M1095.026,705.789l2.469,5.964s-1.178-5.859-2.111-10.656c-.817-4.183-9.821,1.446-9.821,1.446l-1.7,8.71,5.258-5.589Z" transform="translate(-757.271 -424.883)" fill="#231f20" opacity="0.2"/>
        <path id="Path_764" data-name="Path 764" d="M1074.4,695.263c1.3.089,2.217-1.337,2.612-5.189a58.159,58.159,0,0,1,3.092-12.114c1.236-6.057-2.659-7.826-4.682-6.97a5.736,5.736,0,0,0-2.816,4.922l-.436,14.807C1072.1,693.143,1073.1,695.162,1074.4,695.263Z" transform="translate(-750.193 -408.234)" fill="#f3714e"/>
        <path id="Path_765" data-name="Path 765" d="M1080.23,699.39l-8.05,8.383,4.029,3.113,4.723-10.039Z" transform="translate(-750.177 -424.811)" fill="#f3714e"/>
        <path id="Path_766" data-name="Path 766" d="M1099.477,684.257c-.031.723.34,1.349.8,1.4l3.29.347c.473.048.885-.5.92-1.211l.6-13.115c.034-.723-.341-1.349-.8-1.4l-3.286-.347c-.477-.048-.889.5-.919,1.211Z" transform="translate(-767.34 -407.972)" fill="#2e4955"/>
        <path id="Path_767" data-name="Path 767" d="M1107.54,674.673a.5.5,0,0,0,.32.557c.187.02.34-.194.364-.485a.5.5,0,0,0-.32-.557C1107.717,674.168,1107.554,674.386,1107.54,674.673Z" transform="translate(-772.57 -410.789)" fill="#c9e8e2"/>
        <path id="Path_768" data-name="Path 768" d="M1108.047,677.484a.2.2,0,0,0,.126.222c.075,0,.139-.077.146-.194a.2.2,0,0,0-.126-.222.144.144,0,0,0-.108.06A.2.2,0,0,0,1108.047,677.484Z" transform="translate(-772.904 -412.567)" fill="#c9e8e2"/>
        <path id="Path_769" data-name="Path 769" d="M1096.675,687.976c.422-1.958,3.667.973,3.317,2.96s-1.665,4.01-2.973,3.477-1.757-1.975-1.815-4.038C1095.132,687.624,1096.225,690.047,1096.675,687.976Z" transform="translate(-764.703 -418.087)" fill="#fee1c6"/>
        <path id="Path_770" data-name="Path 770" d="M1116.95,708.382l2.367,7.733,3.725-1.954-4.444-7.281Z" transform="translate(-778.229 -429.124)" fill="#f3714e"/>
        <path id="Path_771" data-name="Path 771" d="M1109.826,697.946c-1.311-.509.388-5.653,1.7-5.249a4.144,4.144,0,0,1,2.479,4.272c-.245,2.019-1.172,2.8-2.534,3.037C1109.7,700.32,1111.215,698.487,1109.826,697.946Z" transform="translate(-773.544 -421.114)" fill="#fee1c6"/>
        <path id="Path_772" data-name="Path 772" d="M1876.29,409.446l3.746-5.726a2.594,2.594,0,0,0,0-2.641l-1.737-2.641a.958.958,0,0,0-1.733,0l-3.746,5.722-3.746-5.722a.961.961,0,0,0-1.737,0l-1.737,2.641a2.594,2.594,0,0,0,0,2.641l3.746,5.726-3.746,5.722a2.594,2.594,0,0,0,0,2.641l1.737,2.641a.961.961,0,0,0,1.737,0l3.746-5.722,3.746,5.722a.958.958,0,0,0,1.733,0l1.737-2.641a2.594,2.594,0,0,0,0-2.641Z" transform="translate(-1244.714 -253.586)" fill="#f0598f"/>
        <path id="Path_773" data-name="Path 773" d="M1624.682,1177.2c-1.362,1.962-3.259,1.712-6.078-1.942-3.991-5.173-10.9-8.851-10.9-8.851-5.108-4.886-1.931-12.393.817-14.355a4.21,4.21,0,0,1,6.13,1.365l9.644,15.607c1.577,2.552,1.74,6.215.368,8.177Z" transform="translate(-1082.018 -680.424)" fill="#a97c50"/>
        <path id="Path_774" data-name="Path 774" d="M1657.192,1238.719l-8.752-34.081,5.592-2.8,5.03,35.9Z" transform="translate(-1109.73 -708.584)" fill="#a97c50"/>
        <path id="Path_775" data-name="Path 775" d="M1669.331,1299.138c-.637,3.3,5.643,3.949,6.4.711s.208-7.9-1.917-9.049-3.644.174-5.023,2.948C1666.984,1297.385,1670,1295.645,1669.331,1299.138Z" transform="translate(-1122.235 -758.59)" fill="#8b5e3c"/>
        <path id="Path_776" data-name="Path 776" d="M1547.2,1199.654c-1.529-1.68-1.723-4.539.1-9.449,2.581-6.941,3.647-17.941,3.647-17.941,2.183-8.573,7.631-5.249,9.419-1.5,1.1,2.294,1.631,6.582.283,9.417l-8.241,17.363c-1.362,2.827-3.681,3.78-5.21,2.1Z" transform="translate(-1045.52 -688.946)" fill="#a97c50"/>
        <path id="Path_777" data-name="Path 777" d="M1605.877,1259.59l-10.679.84-1.607,26.655,7.117,1.05L1603.1,1281l.266,7.135,7.5-3.986Z" transform="translate(-1075.105 -740.277)" fill="#57402a"/>
        <path id="Path_778" data-name="Path 778" d="M1577.783,1206.045l19.227-7.733-7.23-45.856-2.857-1.167-15.893,6.392Z" transform="translate(-1060.515 -679.048)" fill="#a97c50"/>
        <path id="Path_779" data-name="Path 779" d="M1586.9,1149.714c.341,1.942,1.648,3.1,2.929,2.588h0c1.277-.513,2.043-2.507,1.7-4.442l-.732-4.208c-.341-1.946-1.648-3.105-2.929-2.592h0c-1.277.517-2.043,2.508-1.7,4.442Z" transform="translate(-1071.111 -675.306)" fill="#eedbc7"/>
        <path id="Path_780" data-name="Path 780" d="M1555.24,1111.009c1.229,7.067,5.99,11.282,10.635,9.413s7.413-9.11,6.188-16.176-6.045-11.581-10.635-9.413C1551.773,1099.387,1560.689,1110.379,1555.24,1111.009Z" transform="translate(-1051.191 -648.162)" fill="#eedbc7"/>
        <path id="Path_781" data-name="Path 781" d="M1519.171,1205.43l15.9,12.8-6.3,4.41-10.734-14.751Z" transform="translate(-1027.983 -711.612)" fill="#a97c50"/>
        <path id="Path_782" data-name="Path 782" d="M1507.594,1184.7c-.266-3.408-6.208-.258-6.068,3.17s1.849,7.394,4.086,7.18,3.307-2.338,3.858-5.714C1510.2,1184.919,1507.877,1188.323,1507.594,1184.7Z" transform="translate(-1018.184 -699.286)" fill="#8b5e3c"/>
        <path id="Path_783" data-name="Path 783" d="M1592.05,1280.681h19.887l-.79-15.381-19.1,3.049Z" transform="translate(-1073.988 -744.036)" fill="#8b5e3c"/>
        <path id="Path_784" data-name="Path 784" d="M1513.81,1445.818l10.806,7.587,2.724-8.977-2.939-1.781C1520.311,1446.157,1517.92,1435.634,1513.81,1445.818Z" transform="translate(-1025.548 -845.276)" fill="#64442b"/>
        <path id="Path_785" data-name="Path 785" d="M1581.628,1318.177l-4.328-3.036,7.638-26.78,7.689,5.395Z" transform="translate(-1065.058 -756.751)" fill="#8b5e3c"/>
        <path id="Path_786" data-name="Path 786" d="M1547.767,1393.053l-2.867-2.015,11.033-36.358,4.328,3.036Z" transform="translate(-1044.841 -794.492)" fill="#8b5e3c"/>
        <path id="Path_787" data-name="Path 787" d="M1524.616,1458.327l-10.806-7.588.375-1.24,10.805,7.588Z" transform="translate(-1025.68 -850.155)" fill="#64442b"/>
        <path id="Path_788" data-name="Path 788" d="M1706.308,1425.473c2.258-5.047,6.688-14.977,6.688-14.977l-5.377-5.556-1.631,4.123C1707.6,1415.77,1700.376,1417.64,1706.308,1425.473Z" transform="translate(-1144.455 -824.076)" fill="#64442b"/>
        <path id="Path_789" data-name="Path 789" d="M1635.388,1309.932l-4.4,2.782-7.768-26.7,7.819-4.938Z" transform="translate(-1093.898 -752.503)" fill="#8b5e3c"/>
        <path id="Path_790" data-name="Path 790" d="M1669.578,1369.1l-1.774,3.969-21.774-22.5,2.677-6Z" transform="translate(-1107.429 -789.082)" fill="#8b5e3c"/>
        <path id="Path_791" data-name="Path 791" d="M1716.171,1417.567l-6.688,14.977-.742-.767,6.688-14.977Z" transform="translate(-1147.562 -831.083)" fill="#64442b"/>
        <path id="Path_792" data-name="Path 792" d="M1565.53,1142.306l5.789-2.326C1572.256,1143.8,1569.157,1149.522,1565.53,1142.306Z" transform="translate(-1058.256 -675.02)" fill="#fff"/>
        <path id="Path_793" data-name="Path 793" d="M1549.6,1087.016c1.641.513,2.043,1.211,4.87-1.026,3.988-3.15,9.944-5.427,9.985-4.563,3.477.868,6.47,4.745,7.427,10.265,1.256,7.24-1.444,14.654-6.072,16.935a18.569,18.569,0,0,0-.272-3.021,17.679,17.679,0,0,0-.409-1.793,1.675,1.675,0,0,0,1.212-.024c1.338-.541,2.139-2.633,1.785-4.668s-1.727-3.255-3.065-2.718a3.737,3.737,0,0,0-1.853,3.287,15.982,15.982,0,0,1-1.24-5.706c-2.411,1.421-4.458,2.944-8.173,2.742C1550.387,1096.38,1548.211,1093.037,1549.6,1087.016Z" transform="translate(-1047.064 -640.735)" fill="#ec008c"/>
        <path id="Path_794" data-name="Path 794" d="M1578.152,1161.3l-7.972,2.253,5.718,44.9-1.345,14.884,8.285,3.626,2.561-14.953Z" transform="translate(-1060.622 -682.503)" fill="#a97c50"/>
        <path id="Path_795" data-name="Path 795" d="M1597.3,1156.674l5.984,49.389,4.624,14.347,10.69-7.684-5.282-17.687-9.038-43.719Z" transform="translate(-1077.178 -676.654)" fill="#a97c50"/>
        <path id="Path_796" data-name="Path 796" d="M1633.937,1218.094l-5.367-22.774,2.285,3.23Z" transform="translate(-1097.644 -705.606)" fill="#231f20" opacity="0.2"/>
        <path id="Path_797" data-name="Path 797" d="M1513.842,1118.077c-.657,6.441-4.618,10.854-8.854,9.857s-7.131-7.022-6.47-13.463,4.614-10.85,8.854-9.857S1514.5,1111.636,1513.842,1118.077Z" transform="translate(-1015.837 -654.073)" fill="#58595b"/>
        <path id="Path_798" data-name="Path 798" d="M1514.823,1162.775l-1.563-.368.732-7.208,1.566.368Z" transform="translate(-1025.829 -683.576)" fill="#58595b"/>
        <path id="Path_799" data-name="Path 799" d="M1507.307,1192.764c-.133,1.316-.943,2.217-1.808,2.019h0c-.865-.2-1.458-1.438-1.325-2.75l2.043-19.144c.133-1.316.943-2.217,1.808-2.019h0c.865.2,1.454,1.438,1.321,2.75Z" transform="translate(-1019.985 -691.673)" fill="#414042"/>
        <path id="Path_800" data-name="Path 800" d="M1515.215,1121.005c-.531,5.249-3.746,8.819-7.192,8.007s-5.789-5.706-5.265-10.939,3.746-8.819,7.192-8.011S1515.733,1115.768,1515.215,1121.005Z" transform="translate(-1018.658 -657.378)" fill="#e1f2ee"/>
        <path id="Path_801" data-name="Path 801" d="M1598.44,1172.7h3.654l3.828,30.156-2.864-32.013Z" transform="translate(-1078.711 -691.275)" fill="#231f20" opacity="0.2"/>
        <path id="Path_802" data-name="Path 802" d="M1616.2,1266.827c0,.642-.341,1.163-.766,1.163s-.766-.521-.766-1.163.34-1.167.766-1.167S1616.2,1266.2,1616.2,1266.827Z" transform="translate(-1089.192 -744.702)" fill="#8b5e3c"/>
        <path id="Path_803" data-name="Path 803" d="M1598.2,1150.443l-2.568,7.527-1.447-7.022,2.588-3.808Z" transform="translate(-1076.26 -678.853)" fill="#8b5e3c"/>
        <path id="Path_804" data-name="Path 804" d="M1586.722,1164.714l-1.628-7.264h-3.834l.582,2.266Z" transform="translate(-1068.105 -684.867)" fill="#8b5e3c"/>
        <path id="Path_805" data-name="Path 805" d="M1598.829,1181.013c0,.642-.34,1.163-.763,1.163s-.766-.521-.766-1.163.341-1.163.766-1.163S1598.829,1180.371,1598.829,1181.013Z" transform="translate(-1078.346 -697.808)" fill="#8b5e3c"/>
        <path id="Path_806" data-name="Path 806" d="M1603.323,1198.8c0,.642-.341,1.163-.766,1.163s-.766-.521-.766-1.163.34-1.167.766-1.167S1603.323,1198.151,1603.323,1198.8Z" transform="translate(-1081.15 -707.901)" fill="#8b5e3c"/>
        <path id="Path_807" data-name="Path 807" d="M1607.033,1214.487c0,.642-.341,1.163-.766,1.163s-.766-.521-.766-1.163.341-1.167.766-1.167S1607.033,1213.841,1607.033,1214.487Z" transform="translate(-1083.466 -716.808)" fill="#8b5e3c"/>
        <path id="Path_808" data-name="Path 808" d="M1612.819,1248.4c0,.646-.341,1.167-.763,1.167s-.766-.521-.766-1.167.341-1.163.766-1.163S1612.819,1247.761,1612.819,1248.4Z" transform="translate(-1087.082 -734.11)" fill="#8b5e3c"/>
        <path id="Path_809" data-name="Path 809" d="M1619.689,1283.517c0,.642-.341,1.163-.763,1.163s-.766-.521-.766-1.163.341-1.167.766-1.167S1619.689,1282.871,1619.689,1283.517Z" transform="translate(-1091.371 -754.299)" fill="#8b5e3c"/>
        <path id="Path_810" data-name="Path 810" d="M1610.722,1231.353c0,.646-.341,1.167-.766,1.167s-.766-.521-.766-1.167.341-1.163.766-1.163S1610.722,1230.711,1610.722,1231.353Z" transform="translate(-1085.77 -724.305)" fill="#8b5e3c"/>
        <path id="Path_811" data-name="Path 811" d="M1606.591,1258.486l-21.015,4.6-.436-4.62,21.014-4.591Z" transform="translate(-1069.585 -737.684)" fill="#8b5e3c"/>
        <path id="Path_812" data-name="Path 812" d="M1584.389,1089.294c-.283,1.643-6.811-5.391-10.829-5.459-2.86-.048-8.173.166-8.3-3.335s3.674-1.708,7.573-.141S1584.675,1087.647,1584.389,1089.294Z" transform="translate(-1057.324 -639.891)" fill="#6e4b30"/>
        <path id="Path_813" data-name="Path 813" d="M1585.61,1070.276c-3.776,1.034-5.653-3.751-8.98,5.851,0,0,10.86,7.559,13.444,5.4C1590.064,1081.53,1590.912,1068.822,1585.61,1070.276Z" transform="translate(-1064.748 -635.027)" fill="#8b5e3c"/>
        <path id="Path_814" data-name="Path 814" d="M1074.887,467.593c.1-1.757-.317-3.671.208-5.423h.419c.105,1.433,1.26,2.71,1.784,2.072.524-.808.419-2.71,1.049-3.509.838-.953.943.957,1.675,1.615,1.26,1.119.419-2.71,1.26-3.505.524-.48,1.362,1.434,1.887.634.313-.634-.106-2.391.419-2.867.838-.642,1.468,2.072,2.306,1.272.419-.476-.313-2.391,0-2.71.943-.957,2.516.808,3.354-.319.422-.481.106-2.552-.524-3.509a7.055,7.055,0,0,0,3.157,1.668l-13.536-43.489-1.761,1.264-1.147-3.687-1.921,1.385,1.148,3.691-1.747,1.256-1.148-3.691-1.924,1.385,1.151,3.691-1.747,1.256-1.148-3.687-1.924,1.385,1.147,3.687-1.747,1.26-1.148-3.687-1.921,1.385,1.148,3.687-1.747,1.26-1.148-3.691-1.924,1.385,1.151,3.687-1.747,1.26-1.148-3.687-1.924,1.385,1.148,3.687-1.757,1.268,14.3,45.993.375-.271c.133-2.342.116-4.7.184-7C1071.321,466.015,1073,467.274,1074.887,467.593Zm12.174-16.2-16.686,12.025-.572-1.837,16.686-12.029Zm-25.84-17.283,16.686-12.029.572,1.841-16.686,12.025Zm2.138,6.865,16.686-12.029.572,1.837-16.686,12.029Zm2.139,6.865,16.686-12.025.572,1.837-16.686,12.029Zm2.724,8.714-.572-1.849,16.687-12.029.572,1.837Z" transform="translate(-738.037 -258.068)" fill="#fff"/>
        <path id="Path_815" data-name="Path 815" d="M1606.991,189.467c.552,0,1-.682,1-1.526,0-6.558,3.494-11.864,7.809-11.876s7.8,5.318,7.805,11.876c0,6.2-3.123,11.278-7.1,11.827v-6.493l-5.186,7.882,5.186,7.886v-6.219c5.088-.549,9.106-7,9.106-14.884,0-8.242-4.39-14.92-9.808-14.941s-9.8,6.7-9.8,14.941C1606,188.785,1606.436,189.467,1606.991,189.467Z" transform="translate(-1082.706 -130.702)" fill="#fcf5b6"/>
      </g>
    </g>
  </g>
</svg>
