<svg xmlns="http://www.w3.org/2000/svg" width="80" height="78.793" viewBox="0 0 80 78.793">
  <path id="Path_1" data-name="Path 1" d="M.094,16.332C-.473,33.591,7.732,50.4,20.643,61.635c3.614,3.146,7.511,5.96,11.39,8.768a40.294,40.294,0,0,0,12.376,6.458A79.431,79.431,0,0,0,58.359,79.2c4.387.461,8.69.289,12.632-1.879,6.287-3.459,12.691-13.72,6.473-20.054a14.826,14.826,0,0,0-4.646-2.989c-2.092-.929-4.237-1.789-6.4-2.525-4.161-1.415-8.749-2.168-13.047-.879a14.177,14.177,0,0,0-5.312,3.008,4.578,4.578,0,0,1-2.4,1.437,6.17,6.17,0,0,1-3.144-.757,36.912,36.912,0,0,1-10.072-7.12c-2.85-2.791-5.757-6.209-7.249-9.954-.763-1.914-1-3.84.286-5.568a17.464,17.464,0,0,0,3.237-5.48c1.186-3.966.413-8.3-.717-12.187-1.071-3.683-2.3-7.762-4.9-10.681C20.251.375,15.9-.1,12.1,1.52,8.168,3.195,5.131,6.531,2.885,10.088A29.646,29.646,0,0,0,.123,15.852c-.84,2.326,2.866,3.328,3.7,1.02A23.7,23.7,0,0,1,10.3,7.143c2.437-2.136,6.319-3.983,9.246-1.68,2.638,2.075,3.649,6.16,4.578,9.217,1.037,3.409,1.939,7.222.893,10.738-.562,1.889-1.884,3.14-2.968,4.72a8.149,8.149,0,0,0-1.2,5.949c.59,3.854,3.106,7.3,5.475,10.285a42.767,42.767,0,0,0,8.466,8.017c2.965,2.144,6.9,4.883,10.713,4.778,2.17-.06,3.7-1.207,5.27-2.575a10.227,10.227,0,0,1,4.779-2.312c4.089-.842,8.274.515,12.054,1.976,2.83,1.1,7.456,2.368,8.322,5.742.847,3.3-1.285,7.164-3.519,9.458a13.514,13.514,0,0,1-9.039,4.134,59.439,59.439,0,0,1-13.232-1.337,34.315,34.315,0,0,1-12.176-4.435,128.722,128.722,0,0,1-10.586-7.613A62.333,62.333,0,0,1,11.086,44.089,52.971,52.971,0,0,1,4.06,22.12a51.044,51.044,0,0,1-.13-5.788c.081-2.469-3.755-2.466-3.836,0Z" transform="translate(0 -0.613)" fill="#fff"/>
</svg>
