<svg xmlns="http://www.w3.org/2000/svg" width="79.875" height="78.405" viewBox="0 0 79.875 78.405">
  <g id="Group_1" data-name="Group 1" transform="translate(0 -0.964)">
    <path id="Path_1" data-name="Path 1" d="M22.073,14.389Q11.705,15.52,1.448,17.466A1.945,1.945,0,0,0,.1,19.836a1.965,1.965,0,0,0,2.369,1.345q9.741-1.857,19.6-2.94A1.982,1.982,0,0,0,24,16.315a1.938,1.938,0,0,0-1.926-1.926Z" fill="#333"/>
    <path id="Path_2" data-name="Path 2" d="M0,19.669C.042,33.334.112,47.236,3.679,60.53c1.568,5.844,3.923,11.443,9.51,14.451,5.328,2.869,11.8,3.454,17.723,3.974A109.33,109.33,0,0,0,51.3,78.826a98.45,98.45,0,0,0,20.074-3.862,8.557,8.557,0,0,0,6.081-5.849,55.691,55.691,0,0,0,1.71-9.767,97.711,97.711,0,0,0,.3-20.742,93.193,93.193,0,0,0-1.736-11.527,19.258,19.258,0,0,0-3.947-8.733c-4.42-5.051-11.9-5.155-18.072-5.325-2.48-.069-2.479,3.784,0,3.852,4.733.131,10.765-.063,14.521,3.356a13.01,13.01,0,0,1,3.494,6.651,70.893,70.893,0,0,1,1.628,9.266,97.625,97.625,0,0,1,.4,18.77,92.092,92.092,0,0,1-1.264,9.789c-.44,2.388-.693,5.129-3.192,6.213a46.378,46.378,0,0,1-8.742,2.3c-3.081.653-6.191,1.179-9.318,1.547a109.517,109.517,0,0,1-18.684.6c-5.63-.3-11.6-.749-16.961-2.628a14.025,14.025,0,0,1-6.239-4.1A20.147,20.147,0,0,1,7.9,61.311c-4-13.48-4.007-27.707-4.049-41.642-.008-2.479-3.861-2.484-3.853,0Z" fill="#333"/>
    <path id="Path_3" data-name="Path 3" d="M45.471,27.356A18.694,18.694,0,0,0,21.2,52.181c2.958,6.683,9.948,10.783,17.2,9.236A17.306,17.306,0,0,0,51.653,47.756c1.314-8.143-2.939-16.3-9.752-20.7-2.088-1.35-4.022,1.984-1.944,3.327a17.593,17.593,0,0,1,8.108,14.328,13.33,13.33,0,0,1-8.438,12.317,11.261,11.261,0,0,1-13.932-4.592,15,15,0,0,1,.679-16.643c4.035-5.666,11.81-7.328,18.073-4.719a1.939,1.939,0,0,0,2.369-1.345,1.973,1.973,0,0,0-1.345-2.37Z" fill="#333"/>
    <path id="Path_4" data-name="Path 4" d="M24.047,16.706A25.243,25.243,0,0,0,25.97,11.5a11.385,11.385,0,0,1,1.7-4.21C28.88,5.781,30.761,5.4,32.587,5.2c1.773-.194,3.555-.335,5.339-.378,3.333-.08,6.956.111,9.941,1.755,3.5,1.929,4.48,5.755,6.676,8.831,1.428,2,4.771.079,3.326-1.944-2.041-2.86-3.1-6.359-5.862-8.682a16.483,16.483,0,0,0-8.436-3.5,42.05,42.05,0,0,0-9.858-.046c-3.561.337-7.008.914-9.268,3.974-2.078,2.814-2.113,6.521-3.724,9.557-1.162,2.188,2.162,4.137,3.326,1.944Z" fill="#333"/>
  </g>
</svg>
