<svg xmlns="http://www.w3.org/2000/svg" width="77.772" height="80" viewBox="0 0 77.772 80">
  <g id="Group_1" data-name="Group 1" transform="translate(-1.498 0.002)">
    <path id="Path_1" data-name="Path 1" d="M16.5,18.868l-.182,6.354a12.257,12.257,0,0,0,.8,5.866c1.909,3.92,6.871,3.911,10.594,3.572,2.388-.218,4.934-.439,6.221-2.775a7.7,7.7,0,0,0,.783-2.648,29.837,29.837,0,0,0,.322-3.544,36,36,0,0,0-.4-6.411,5.251,5.251,0,0,0-4.249-4.524,43.31,43.31,0,0,0-6.968-.224,14.818,14.818,0,0,0-3.566.153,4.092,4.092,0,0,0-3.135,3.06,2.74,2.74,0,0,0,1.869,3.291,2.707,2.707,0,0,0,3.29-1.869c.1-.61-.263.372-.323.439a1.129,1.129,0,0,1-.4.264c-.291.143-.209,0,.03,0,.167,0,.334,0,.5,0,.867,0,1.734.016,2.6.023,1.572.015,3.145.039,4.718.055.129,0,.516.068-.041-.029.146.025.288.062.433.089.2.038.322.208-.036-.04.129.089.323.281-.018-.043-.063-.06-.285-.448-.015,0-.061-.1-.135-.494-.016-.01.037.15.072.3.108.45.119.5,0-.22.017.094.084,1.609.271,3.2.254,4.812-.008.758-.044,1.517-.117,2.272-.005.054-.066.634-.032.35s-.044.3-.053.349c-.055.335-.143.657-.213.988-.133.631.174-.263-.018.051-.171.281.193-.141.23-.19.214-.283-.278.089,0,0,.305-.1-.194.018-.264.032-.167.033-.336.057-.5.082-.475.07.329-.037-.147.018-.43.05-.861.094-1.293.127q-1.151.089-2.306.1c-.316,0-.633,0-.949-.016-.148-.007-.3-.021-.445-.028-.716-.035.526.126-.173-.016-.288-.059-.568-.134-.852-.206-.458-.116-.07-.015.038.039-.126-.063-.249-.135-.376-.2-.4-.192-.075-.037.025.054-.1-.09-.2-.208-.307-.293.3.241.135.161.013,0-.348-.447.058.364-.1-.179-.043-.146-.087-.289-.122-.438-.017-.075-.1-.694-.066-.327s0-.145,0-.227c-.011-.2-.016-.393-.018-.589-.007-.842.035-1.684.059-2.525l.162-5.632a2.7,2.7,0,0,0-2.676-2.675A2.728,2.728,0,0,0,16.5,18.868Z" fill="#333"/>
    <path id="Path_2" data-name="Path 2" d="M16.5,47.538l-.182,6.354a12.253,12.253,0,0,0,.8,5.865c1.909,3.921,6.871,3.912,10.594,3.573,2.388-.218,4.934-.439,6.221-2.775a7.7,7.7,0,0,0,.783-2.648,29.854,29.854,0,0,0,.322-3.545,35.993,35.993,0,0,0-.4-6.41,5.251,5.251,0,0,0-4.249-4.524,43.2,43.2,0,0,0-6.968-.224,14.767,14.767,0,0,0-3.566.153,4.093,4.093,0,0,0-3.135,3.059,2.74,2.74,0,0,0,1.869,3.291,2.707,2.707,0,0,0,3.29-1.868c.1-.611-.263.372-.323.439a1.143,1.143,0,0,1-.4.264c-.291.142-.209,0,.03,0,.167,0,.334,0,.5,0,.867,0,1.734.015,2.6.023,1.572.014,3.145.039,4.718.054.129,0,.516.069-.041-.029.146.026.288.063.433.09.2.038.322.208-.036-.041.129.089.323.281-.018-.042-.063-.06-.285-.448-.015,0-.061-.1-.135-.495-.016-.011.037.15.072.3.108.45.119.505,0-.219.017.1.084,1.609.271,3.2.254,4.811-.008.759-.044,1.517-.117,2.272-.005.054-.066.635-.032.351s-.044.3-.053.349c-.055.335-.143.656-.213.987-.133.632.174-.262-.018.052-.171.281.193-.141.23-.19.214-.283-.278.088,0,0,.305-.1-.194.018-.264.031-.167.034-.336.058-.5.083-.475.07.329-.037-.147.018-.43.049-.861.093-1.293.127-.767.059-1.536.092-2.306.1-.316,0-.633,0-.949-.015-.148-.007-.3-.021-.445-.028-.716-.035.526.126-.173-.016-.288-.059-.568-.135-.852-.207-.458-.115-.07-.014.038.039-.126-.062-.249-.134-.376-.195-.4-.193-.075-.037.025.054-.1-.09-.2-.209-.307-.294.3.241.135.162.013.006-.348-.447.058.364-.1-.179-.043-.146-.087-.289-.122-.438-.017-.075-.1-.694-.066-.328s0-.144,0-.227c-.011-.2-.016-.392-.018-.589-.007-.841.035-1.683.059-2.524l.162-5.632a2.7,2.7,0,0,0-2.676-2.676A2.729,2.729,0,0,0,16.5,47.538Z" fill="#333"/>
    <path id="Path_3" data-name="Path 3" d="M46.308,18.868l-.182,6.354a12.257,12.257,0,0,0,.8,5.866c1.909,3.92,6.871,3.911,10.594,3.572,2.388-.218,4.934-.439,6.221-2.775a7.7,7.7,0,0,0,.783-2.648,29.838,29.838,0,0,0,.322-3.544,36,36,0,0,0-.4-6.411,5.251,5.251,0,0,0-4.249-4.524,43.31,43.31,0,0,0-6.968-.224,14.818,14.818,0,0,0-3.566.153,4.092,4.092,0,0,0-3.135,3.06,2.74,2.74,0,0,0,1.869,3.291,2.707,2.707,0,0,0,3.29-1.869c.1-.61-.263.372-.323.439a1.134,1.134,0,0,1-.4.264c-.292.143-.21,0,.029,0,.167,0,.334,0,.5,0,.867,0,1.734.016,2.6.023,1.572.015,3.145.039,4.718.055.129,0,.516.068-.041-.029.146.025.288.062.433.089.2.038.322.208-.036-.04.129.089.323.281-.018-.043-.063-.06-.285-.448-.015,0-.061-.1-.135-.494-.016-.01.037.15.072.3.108.45.119.5,0-.22.017.094.084,1.609.271,3.2.254,4.812-.008.758-.044,1.517-.117,2.272-.005.054-.066.634-.032.35s-.044.3-.053.349c-.055.335-.143.657-.213.988-.133.631.174-.263-.018.051-.171.281.193-.141.23-.19.214-.283-.278.089,0,0,.305-.1-.194.018-.264.032-.167.033-.336.057-.5.082-.475.07.329-.037-.147.018-.43.05-.861.094-1.293.127q-1.15.089-2.306.1c-.316,0-.633,0-.949-.016-.148-.007-.3-.021-.445-.028-.716-.035.527.126-.173-.016-.288-.059-.568-.134-.852-.206-.458-.116-.07-.015.038.039-.126-.063-.249-.135-.376-.2-.4-.192-.075-.037.025.054-.1-.09-.2-.208-.307-.293.3.241.135.161.013,0-.348-.447.058.364-.1-.179-.043-.146-.087-.289-.122-.438-.017-.075-.1-.694-.066-.327s0-.145,0-.227c-.011-.2-.016-.393-.018-.589-.007-.842.035-1.684.059-2.525l.162-5.632a2.7,2.7,0,0,0-2.676-2.675,2.728,2.728,0,0,0-2.675,2.675Z" fill="#333"/>
    <path id="Path_4" data-name="Path 4" d="M43.11,46.1a6.447,6.447,0,0,0,.609,3.975,4.833,4.833,0,0,0,4.665,2.258,4.656,4.656,0,0,0,3.166-1.076,3.4,3.4,0,0,0,.927-1.7c.1-.532.166-1.073.213-1.611a9.294,9.294,0,0,0-.089-2.3,3.835,3.835,0,0,0-1.713-2.576c-1.147-.752-2.513-.513-3.771-.29a15.849,15.849,0,0,0-2.106.525,2.821,2.821,0,0,0-1.6,1.229,2.673,2.673,0,0,0,.96,3.66,2.7,2.7,0,0,0,2.061.27,16.094,16.094,0,0,1,2.766-.627l-.711.095A3.025,3.025,0,0,1,49.1,47.9l-.711-.095a1.274,1.274,0,0,1,.29.074l-.639-.27a1.153,1.153,0,0,1,.187.114l-.542-.418a1.2,1.2,0,0,1,.15.153l-.419-.541a1.442,1.442,0,0,1,.162.286l-.269-.639a2.386,2.386,0,0,1,.129.505l-.1-.711a8.15,8.15,0,0,1-.062,2.087l.1-.711a2.916,2.916,0,0,1-.151.711l.27-.639a.68.68,0,0,1-.064.111l.418-.541a.784.784,0,0,1-.135.135l.542-.418a1.127,1.127,0,0,1-.168.089l.639-.269a2.007,2.007,0,0,1-.383.088l.711-.1a6.281,6.281,0,0,1-1.555.065l.711.1a2.552,2.552,0,0,1-.631-.165l.639.27a2.032,2.032,0,0,1-.394-.233l.542.419a1.939,1.939,0,0,1-.29-.29l.418.542a2.17,2.17,0,0,1-.26-.444l.27.639a2.99,2.99,0,0,1-.182-.684l.1.712A6.857,6.857,0,0,1,48.46,46.1a2.968,2.968,0,0,0-.784-1.891,2.674,2.674,0,0,0-3.783,0l-.418.541a2.656,2.656,0,0,0-.365,1.35Z" fill="#333"/>
    <path id="Path_5" data-name="Path 5" d="M43.11,60.006a6.447,6.447,0,0,0,.609,3.975,4.833,4.833,0,0,0,4.665,2.258,4.656,4.656,0,0,0,3.166-1.076,3.4,3.4,0,0,0,.927-1.7c.1-.532.166-1.073.213-1.611a9.294,9.294,0,0,0-.089-2.3,3.835,3.835,0,0,0-1.713-2.576c-1.147-.752-2.513-.513-3.771-.29a15.849,15.849,0,0,0-2.106.525,2.821,2.821,0,0,0-1.6,1.229,2.673,2.673,0,0,0,.96,3.66,2.7,2.7,0,0,0,2.061.27,16.094,16.094,0,0,1,2.766-.627l-.711.1a3.025,3.025,0,0,1,.616-.033l-.711-.095a1.274,1.274,0,0,1,.29.074l-.639-.27a1.153,1.153,0,0,1,.187.114l-.542-.418a1.2,1.2,0,0,1,.15.153l-.419-.541a1.442,1.442,0,0,1,.162.286l-.269-.639a2.386,2.386,0,0,1,.129.505l-.1-.711a8.15,8.15,0,0,1-.062,2.087l.1-.711a2.917,2.917,0,0,1-.151.711l.27-.639a.68.68,0,0,1-.064.111l.418-.541a.784.784,0,0,1-.135.135L48.259,61a1.127,1.127,0,0,1-.168.089l.639-.269a2.007,2.007,0,0,1-.383.088l.711-.1a6.281,6.281,0,0,1-1.555.065l.711.1a2.552,2.552,0,0,1-.631-.165l.639.27a2.032,2.032,0,0,1-.394-.233l.542.419a1.939,1.939,0,0,1-.29-.29l.418.542a2.17,2.17,0,0,1-.26-.444l.27.639a2.99,2.99,0,0,1-.182-.684l.1.712a6.857,6.857,0,0,1,.038-1.735,2.968,2.968,0,0,0-.784-1.891,2.674,2.674,0,0,0-3.783,0l-.418.541a2.659,2.659,0,0,0-.365,1.35Z" fill="#333"/>
    <path id="Path_6" data-name="Path 6" d="M49.031,51.376l.15,2.932a12.48,12.48,0,0,0,.307,3.073,3.71,3.71,0,0,0,3.484,2.538c.911.059,1.837.005,2.75,0,.417,0,.841.018,1.258,0l.212.009a1.216,1.216,0,0,1-.945-.444l-.4-.706q.1.437.008-.14c.147.188.047.924.065,1.16.053.664.141,1.328.242,1.987a9.532,9.532,0,0,0,.789,2.919,4.083,4.083,0,0,0,3.062,2.077c2.128.382,5.181.978,6.936-.663,1.7-1.589,1.322-4.234,1.343-6.342l.063-6.147a6.411,6.411,0,0,0-.471-3.4,4.6,4.6,0,0,0-3.3-1.9,24.087,24.087,0,0,0-6.386-.178c-.975.069-1.951.14-2.929.142-.483,0-.967-.015-1.449-.056-.087-.007-.858-.136-.244-.022-.317-.059-.63-.122-.943-.2a2.676,2.676,0,1,0-1.423,5.159,22.892,22.892,0,0,0,7.233.31,32.267,32.267,0,0,1,3.406-.118c.24.009.48.022.719.041q.239.02.477.048c-.316-.043-.316-.04,0,.011.234.054.47.094.7.154.156.04.31.084.464.132a2.06,2.06,0,0,1-.524-.283l-.688-1.18c.028.069.1.384.054.075-.056-.35-.03.1-.034.15-.022.323-.006.654-.01.978l-.019,1.956-.037,3.633c-.013,1.231-.053,2.465-.04,3.7.006.479.153-.34-.015.1a2.256,2.256,0,0,1,1.087-1.043c.027-.008.506-.011.2-.016-.588-.011-1.171-.014-1.759-.065-.131-.011-.262-.024-.392-.037-.019,0-.448-.056-.166-.018s-.146-.024-.165-.027c-.172-.031-.345-.057-.517-.092a2.73,2.73,0,0,0-.292-.066c-.267-.022.129.058.181.091.2.123.427.532.606.62.066.152.075.156.029.011-.021-.076-.04-.153-.058-.23-.134-.541-.234-1.088-.322-1.638.071.446-.014-.162-.028-.308-.032-.342-.05-.683-.067-1.025-.076-1.552-.512-3.125-1.987-3.917a7.913,7.913,0,0,0-3.91-.538c-.648,0-1.321-.045-1.966.009-.19.016-.241-.1-.034.028a.843.843,0,0,1,.447.174l.813,1c.007.021.026.526.031.227,0-.164-.019-.333-.027-.5l-.212-4.132a2.675,2.675,0,0,0-5.35,0Z" fill="#333"/>
    <path id="Path_7" data-name="Path 7" d="M60.722,5.35q3.77.173,7.525.552c1.251.128,2.5.271,3.747.438.286.038.926.129,1.4.2a5.725,5.725,0,0,0,.973.148q.791.21-.436-.848-.707-1.508-.629-.678a6.959,6.959,0,0,0,0,1.846l0,1.846.011,4.027.009,3.692c0,1.416-.263,3.176.417,4.454a2.662,2.662,0,0,0,2.31,1.325,2.942,2.942,0,0,0,2.561-1.465,2.673,2.673,0,0,0,0-2.7l-.047-.081a2.676,2.676,0,1,0-4.62,2.7l.047.081v-2.7l-.052.083.96-.96-.1.056L76.157,17h-.1l2.31,1.325-.044-.083.365,1.35L78.669,11.2l-.012-4.363c0-1.551.168-3.206-1.047-4.394-1.066-1.043-2.7-1.059-4.091-1.251C72.036.99,70.551.8,69.063.637Q64.9.185,60.722,0a2.694,2.694,0,0,0-2.675,2.675A2.732,2.732,0,0,0,60.722,5.35Z" fill="#333"/>
    <path id="Path_8" data-name="Path 8" d="M73.915,61.048c-.314,4.867-.732,9.739-.943,14.611-.02.468.022-.122.141-.3l.915-.707q.414-.045.114-.03a11.6,11.6,0,0,0-1.728.016q-1.929.011-3.858-.007-3.7-.035-7.392-.171a2.7,2.7,0,0,0-2.675,2.675,2.731,2.731,0,0,0,2.675,2.676q4.176.151,8.357.177c1.393.008,2.786.009,4.179-.009,1.705-.023,3.3-.477,4.117-2.113.663-1.323.556-2.988.649-4.434l.267-4.13.533-8.258a2.69,2.69,0,0,0-2.675-2.675,2.738,2.738,0,0,0-2.676,2.675Z" fill="#333"/>
    <path id="Path_9" data-name="Path 9" d="M1.733,61.047q-.045,3.985-.015,7.97.015,1.992.049,3.985c.024,1.4-.123,2.983.559,4.255,1.492,2.782,5.216,2.182,7.857,2.1q4.038-.125,8.055-.578A2.741,2.741,0,0,0,20.913,76.1c-.059-1.316-1.186-2.841-2.675-2.675q-3.552.4-7.123.546-1.785.072-3.572.079c-.127,0-1.525-.008-1.524-.016a.568.568,0,0,1,.4.1,1.357,1.357,0,0,1,.622.6c.074.152.131.807.12.315q-.156-7-.077-14.011a2.7,2.7,0,0,0-2.675-2.675,2.723,2.723,0,0,0-2.675,2.675Z" fill="#333"/>
    <path id="Path_10" data-name="Path 10" d="M6.849,18.043l.244-7.193L7.21,7.4l.061-1.8c.01-.3.019-.6.031-.9,0-.126.009-.253.015-.379a1.149,1.149,0,0,1-.469.971.8.8,0,0,1-.535.38l.2-.058c.1-.014.724-.146.315-.086A10.529,10.529,0,0,1,8.5,5.461c1.159.017,2.318.123,3.474.2l7.255.494A2.688,2.688,0,0,0,21.9,3.481,2.739,2.739,0,0,0,19.229.806L11.067.25A28.355,28.355,0,0,0,7.381.134,6.476,6.476,0,0,0,3.1,1.551C1.88,2.765,1.959,4.46,1.9,6.055l-.132,3.9L1.5,18.043a2.7,2.7,0,0,0,2.675,2.675,2.729,2.729,0,0,0,2.675-2.675Z" fill="#333"/>
  </g>
</svg>
