<svg xmlns="http://www.w3.org/2000/svg" width="102.418" height="149.5" viewBox="0 0 102.418 149.5">
  <g id="Group_1" data-name="Group 1" transform="translate(-24.383 -0.5)">
    <path id="Path_1" data-name="Path 1" d="M46.561,13.325c-6.191.139-14.229-.656-18.931,4.272-4.625,4.848-3.4,12.094-1.857,17.955.815,3.1,5.623,1.785,4.8-1.324a28.8,28.8,0,0,1-1.233-7.6,8.817,8.817,0,0,1,.44-3.132,6.145,6.145,0,0,1,1.569-2.579,7.214,7.214,0,0,1,2.587-1.548,15.968,15.968,0,0,1,3.423-.74c3.046-.311,6.139-.253,9.2-.321,3.2-.072,3.213-5.055,0-4.984Z" fill="#fff"/>
    <path id="Path_2" data-name="Path 2" d="M25.8,33.565,27.9,107.421c.277,9.724-.266,20.343,4.032,29.35a20.372,20.372,0,0,0,9.744,9.789c4.729,2.169,9.914,2.721,15.055,3a299.174,299.174,0,0,0,36.355-.247c5.577-.374,11.369-.591,16.841-1.806,4.777-1.061,9.208-3.606,11.265-8.233,2.178-4.9,2-10.533,2.258-15.782q.448-9.164.854-18.327.822-18.576,1.469-37.159.318-9.167.594-18.336c.173-5.741.552-11.529.393-17.273-.142-5.12-1.174-10.342-4.777-14.2-3.327-3.566-8.123-5.075-12.827-5.689a53.646,53.646,0,0,0-6.787-.4c-3.207-.01-3.211,4.973,0,4.983,4.153.013,8.692.17,12.5,2.032,3.922,1.92,5.94,5.349,6.618,9.583.8,4.973.209,10.263.066,15.268q-.252,8.8-.543,17.594-.582,17.592-1.323,35.18-.371,8.793-.78,17.585c-.262,5.613-.38,11.263-.86,16.862-.366,4.276-1.59,8.268-5.667,10.287s-9.244,2.043-13.68,2.424a302.46,302.46,0,0,1-34.718.975c-8.631-.253-20.213.353-25.919-7.505-5.053-6.959-4.8-16.559-5.029-24.75L31.026,42.239l-.247-8.674c-.091-3.2-5.075-3.213-4.983,0Z" fill="#fff"/>
    <path id="Path_3" data-name="Path 3" d="M44.584,9.14c-.688,5.2-1.049,10.987.2,16.132,1.2,4.936,5.021,7.885,9.847,8.92,5.14,1.1,10.646,1.126,15.881,1.181a149.852,149.852,0,0,0,17-.792C90.252,34.3,93.02,34,95.732,33.5a11.226,11.226,0,0,0,6.714-3.528C106,25.81,105.829,20.314,105,15.223c-.778-4.745-1.808-9.772-6.4-12.282C94.335.615,88.923.7,84.207.558A129.985,129.985,0,0,0,46.913,4.907c-3.095.824-1.782,5.632,1.325,4.8A124.725,124.725,0,0,1,77.328,5.52a94.285,94.285,0,0,1,14.445.5,11.707,11.707,0,0,1,4.776,1.5,6.916,6.916,0,0,1,2.722,4.334,42.377,42.377,0,0,1,1.16,6.4,13.546,13.546,0,0,1-.511,6.39,5.86,5.86,0,0,1-3.211,3.466,27.686,27.686,0,0,1-6.782,1.22,149.214,149.214,0,0,1-30.347.549c-3.665-.309-8.392-.916-9.719-4.963a24.28,24.28,0,0,1-.821-7.237,59.431,59.431,0,0,1,.527-8.536,2.505,2.505,0,0,0-2.492-2.492A2.556,2.556,0,0,0,44.584,9.14Z" fill="#fff"/>
    <path id="Path_4" data-name="Path 4" d="M46.173,59.169q25.895-.918,51.711-3.24a2.559,2.559,0,0,0,2.492-2.492,2.51,2.51,0,0,0-2.492-2.491q-25.806,2.321-51.711,3.24c-3.2.113-3.212,5.1,0,4.983Z" fill="#fff"/>
    <path id="Path_5" data-name="Path 5" d="M46.173,74.449q25.895-.918,51.711-3.24a2.558,2.558,0,0,0,2.492-2.491,2.511,2.511,0,0,0-2.492-2.492q-25.806,2.322-51.711,3.24c-3.2.113-3.212,5.1,0,4.983Z" fill="#fff"/>
    <path id="Path_6" data-name="Path 6" d="M46.173,89.73q25.895-.918,51.711-3.24A2.559,2.559,0,0,0,100.376,84a2.51,2.51,0,0,0-2.492-2.491q-25.806,2.32-51.711,3.239c-3.2.114-3.212,5.1,0,4.984Z" fill="#fff"/>
    <path id="Path_7" data-name="Path 7" d="M46.173,105.01q25.895-.918,51.711-3.24a2.558,2.558,0,0,0,2.492-2.491,2.511,2.511,0,0,0-2.492-2.492q-25.806,2.322-51.711,3.24c-3.2.113-3.212,5.1,0,4.983Z" fill="#fff"/>
    <path id="Path_8" data-name="Path 8" d="M46.173,120.291q25.895-.919,51.711-3.24a2.559,2.559,0,0,0,2.492-2.492,2.51,2.51,0,0,0-2.492-2.491q-25.806,2.32-51.711,3.239c-3.2.114-3.212,5.1,0,4.984Z" fill="#fff"/>
  </g>
</svg>
