<svg xmlns="http://www.w3.org/2000/svg" width="150" height="106.534" viewBox="0 0 150 106.534">
  <path id="Path_1" data-name="Path 1" d="M1.443,45.835A337.226,337.226,0,0,0,.887,91.348c.37,6.641.439,13.766,2.548,20.138a21.105,21.105,0,0,0,11.4,12.9c5.3,2.39,11.126,3.111,16.886,3.371,7.346.331,14.728.287,22.08.228,14.9-.121,29.919-.534,44.762-1.949,3.642-.347,7.372-.946,10.562-2.854a15.864,15.864,0,0,0,6.14-6.84c2.68-5.7,2.742-12.209,2.446-18.38l-3.737,2.145,13.262,6.993,6.739,3.555c2.087,1.1,4.149,2.316,6.315,3.251,2.219.958,4.719,1.32,6.838-.1a6.87,6.87,0,0,0,2.726-5.017,41.3,41.3,0,0,0,.016-6.627l-.215-7.392-.878-30.061-.438-15.03c-.064-2.174.2-4.72-.609-6.782a5.277,5.277,0,0,0-5.074-3.315c-2.317-.008-4.614,1-6.75,1.779-2.517.922-5,1.942-7.445,3.04a105.627,105.627,0,0,0-13.59,7.361l3.648,2.8a26.169,26.169,0,0,0-8.079-25.423C102.82,22.611,92.541,21.41,82.871,21.5c-11.468.1-22.958.918-34.415,1.421l-18.026.792a74.5,74.5,0,0,0-13.308,1.451c-4.51,1.025-9.1,2.96-12.233,6.483C.873,36.164.261,42.014,0,47.811c-.142,3.2,4.825,3.189,4.967,0,.187-4.216.37-8.837,3.117-12.289,2.2-2.761,5.53-4.284,8.859-5.2a52.367,52.367,0,0,1,11.328-1.552c5.491-.269,10.986-.484,16.478-.725,11.057-.485,22.113-1.019,33.173-1.453,8.452-.332,17.776-.551,25.422,3.642a21.09,21.09,0,0,1,10.379,23.009c-.472,2.011,1.743,4.021,3.647,2.8A102.339,102.339,0,0,1,139.335,45.4a23.391,23.391,0,0,1,2.437-.75,5.636,5.636,0,0,1,1.191-.132c.278.16.263.754.285,1.109.069,1.1.066,2.21.1,3.312l.4,13.552.791,27.1.4,13.551a27.244,27.244,0,0,1,.007,5.148c-.206,1.253-.6,1.771-1.936,1.361-2.2-.675-4.28-2.1-6.3-3.173l-6.739-3.554L116.477,95.82a2.508,2.508,0,0,0-3.737,2.144c.24,4.981.335,10.178-1.384,14.934a11.818,11.818,0,0,1-3.75,5.34,15.474,15.474,0,0,1-7.415,2.654c-3.316.463-6.7.578-10.041.8q-5.4.352-10.8.613-10.8.521-21.621.675T36.1,122.918c-5.327-.1-10.718-.275-15.864-1.789-4.905-1.443-8.991-4.275-11.231-8.97-2.583-5.413-2.595-12.017-2.974-17.878a337.081,337.081,0,0,1,.379-48.446,2.5,2.5,0,0,0-2.483-2.484,2.533,2.533,0,0,0-2.483,2.484Z" transform="translate(0 -21.494)" fill="#fff"/>
</svg>
