<svg xmlns="http://www.w3.org/2000/svg" width="80" height="57.156" viewBox="0 0 80 57.156">
  <path id="Path_1" data-name="Path 1" d="M.759,25.24a178.209,178.209,0,0,0-.24,24.823c.214,3.514.282,7.288,1.588,10.6a11.539,11.539,0,0,0,6.082,6.412,24.766,24.766,0,0,0,9.136,1.807c3.931.173,7.88.149,11.814.114a228.259,228.259,0,0,0,23.839-1.084c3.714-.426,7.087-1.881,8.741-5.435,1.421-3.055,1.465-6.534,1.311-9.837L60.2,54.268l7.383,3.894,3.474,1.832a24.139,24.139,0,0,0,3.689,1.817,3.808,3.808,0,0,0,5.037-2.636,10.833,10.833,0,0,0,.185-3.24l-.122-4.2-.483-16.544-.245-8.4c-.068-2.344-.226-5.152-3.2-5.4a8.6,8.6,0,0,0-3.538.748c-1.351.48-2.681,1.017-4,1.59a56.088,56.088,0,0,0-7.707,4.119l2.763,2.124a14.409,14.409,0,0,0-4.129-13.689c-4-3.659-9.554-4.438-14.776-4.425-6.168.014-12.355.48-18.516.75q-4.86.213-9.72.427a36.515,36.515,0,0,0-7.258.864,12.33,12.33,0,0,0-6.386,3.569C.491,19.952.145,23.126,0,26.279c-.109,2.42,3.653,2.415,3.762,0,.1-2.151.17-4.549,1.651-6.264a8.718,8.718,0,0,1,4.62-2.478,29.286,29.286,0,0,1,5.759-.707c2.825-.132,5.65-.248,8.474-.372,5.616-.247,11.231-.507,16.847-.74,4.364-.18,9.229-.4,13.224,1.674a10.529,10.529,0,0,1,5.467,11.591,1.9,1.9,0,0,0,2.763,2.124,53.543,53.543,0,0,1,11.017-5.4c.461-.162.929-.349,1.4-.464.039-.01.459-.077.467-.093.028-.058-.208-.308-.195-.33-.115.2.064,1.034.07,1.243l.051,1.728.2,6.914.4,13.58.194,6.667a21.442,21.442,0,0,1,.05,2.776c-.02.193-.013.553-.166.7.255-.246-.306-.235-.589-.358-2.2-.955-4.3-2.263-6.424-3.382L62.1,51.02a1.9,1.9,0,0,0-2.83,1.624c.119,2.562.229,5.345-.736,7.776-1.033,2.6-3.331,3.5-5.969,3.779-7.261.765-14.648.925-21.944,1.022q-5.427.072-10.854-.031a31.4,31.4,0,0,1-8.462-.942A8.356,8.356,0,0,1,5.7,59.578c-1.174-2.787-1.2-6.051-1.386-9.019A178.153,178.153,0,0,1,4.521,25.24c.191-2.414-3.572-2.4-3.762,0Z" transform="translate(0 -11.869)" fill="#fff"/>
</svg>
