<svg xmlns="http://www.w3.org/2000/svg" width="96.64" height="28.632" viewBox="0 0 96.64 28.632">
  <g id="Group_362" data-name="Group 362" transform="translate(-35 -75.585)">
    <g id="Group_361" data-name="Group 361" transform="translate(21.725 60.804)">
      <path id="Path_275" data-name="Path 275" d="M22.33,25.634h9.414V24.571h-8.86V23.135l.048-.024c1.85-.963,2.788-2.281,2.788-3.919a4.5,4.5,0,0,0-9,0,4.47,4.47,0,0,0,3.038,4.058l.052.023.021,1.3H13.275v1.063h7.113a.566.566,0,0,0,.4-.16.516.516,0,0,0,.158-.379l-.036-2.189a.531.531,0,0,0-.356-.487c-1.018-.371-2.728-1.285-2.728-3.227a3.4,3.4,0,0,1,6.794,0c0,1.306-.805,2.306-2.533,3.148a.525.525,0,0,0-.3.471V25.1a.515.515,0,0,0,.16.373.571.571,0,0,0,.392.158" fill="#fff"/>
      <path id="Path_276" data-name="Path 276" d="M27.926,35.992h3.818V34.974h-3.28l.01-.593.05-.023a2.968,2.968,0,0,0,1.858-2.77,3.133,3.133,0,0,0-6.265,0,3.2,3.2,0,0,0,1.695,2.749l.045.025v.612H23.394v1.018h2.992a.533.533,0,0,0,.375-.151.491.491,0,0,0,.155-.359V34.055a.5.5,0,0,0-.291-.454,2.153,2.153,0,0,1-1.448-2.013,2.072,2.072,0,0,1,4.144,0,1.993,1.993,0,0,1-1.56,1.977.51.51,0,0,0-.34.469l-.024,1.44a.5.5,0,0,0,.151.363.539.539,0,0,0,.378.155" fill="#fff"/>
      <path id="Path_277" data-name="Path 277" d="M20.721,26.61a.562.562,0,0,0-.445-.216h-7v1.063h6.257L14.5,43.349h1.156l5.15-16.271a.516.516,0,0,0-.084-.468" fill="#fff"/>
      <path id="Path_278" data-name="Path 278" d="M31.744,26.394H22.126a.543.543,0,0,0-.552.531V43.349H22.68V27.457h9.064V26.394" fill="#fff"/>
      <path id="Path_279" data-name="Path 279" d="M26.92,43.413v-6.37a.521.521,0,0,0-.531-.509h-3v1.017h2.465v5.862H26.92" fill="#fff"/>
      <path id="Path_280" data-name="Path 280" d="M31.744,37.551V36.534H28a.539.539,0,0,0-.427.208.5.5,0,0,0-.082.447l1.84,6.224h1.1l-1.724-5.862h3.033" fill="#fff"/>
    </g>
    <rect id="Rectangle_1518" data-name="Rectangle 1518" width="1.032" height="7.496" transform="translate(130.609 96.63)" fill="#fff"/>
    <rect id="Rectangle_1519" data-name="Rectangle 1519" width="1.032" height="1.411" transform="translate(130.609 94.37)" fill="#fff"/>
    <path id="Path_281" data-name="Path 281" d="M52.276,28.284H44.684v1.74h5.928v.093a4.316,4.316,0,0,1-1.882,3.816,5.939,5.939,0,0,1-3.493,1.074,6.374,6.374,0,0,1-4.206-1.349,6.444,6.444,0,0,1-2-5.2A6.507,6.507,0,0,1,41,23.289a6.015,6.015,0,0,1,4.116-1.426c3.039,0,4.708,1.238,5.253,3.895l.108.529h1.788l-.149-.782a6.132,6.132,0,0,0-2.88-4.358,8,8,0,0,0-4.149-1.023,7.73,7.73,0,0,0-5.259,1.844,8.244,8.244,0,0,0-2.539,6.512c0,2.877.884,5.07,2.626,6.523a8.059,8.059,0,0,0,5.323,1.744,7.539,7.539,0,0,0,4.729-1.531,6.419,6.419,0,0,0,2.417-5.365,9.713,9.713,0,0,0-.049-.971l-.058-.6" transform="translate(21.725 55.462)" fill="#fff"/>
    <path id="Path_282" data-name="Path 282" d="M61.779,30.4c0,3.125-1.433,4.582-4.514,4.582s-4.527-1.485-4.527-4.669V20.249H51V30.331c0,2.43.681,4.191,2.025,5.232a6.84,6.84,0,0,0,4.243,1.154,6.825,6.825,0,0,0,4.227-1.151c1.346-1.028,2.028-2.773,2.028-5.193V20.249H61.779V30.4" transform="translate(24.87 55.491)" fill="#fff"/>
    <path id="Path_283" data-name="Path 283" d="M69.483,33.622,64.115,20.249H62.274L68.79,36.565h1.365l6.367-16.316H74.667L69.483,33.622" transform="translate(27.456 55.491)" fill="#fff"/>
    <path id="Path_284" data-name="Path 284" d="M76.98,28.934H85.4V27.216H76.98V21.989h9.514v-1.74H75.255V36.565H86.6V34.824H76.98v-5.89" transform="translate(30.434 55.491)" fill="#fff"/>
    <path id="Path_285" data-name="Path 285" d="M43.882,39.6H38.319V35.478H37.289v9.665h1.031v-4.52h5.563v4.52h1.031V35.478H43.882V39.6" transform="translate(21.725 58.984)" fill="#fff"/>
    <path id="Path_286" data-name="Path 286" d="M58.773,40.568a8.991,8.991,0,0,0-3.018-.977,5.9,5.9,0,0,1-1.607-.5,1.2,1.2,0,0,1-.616-1.12c0-.658.25-1.534,2.414-1.534a3.862,3.862,0,0,1,1.7.294,1.8,1.8,0,0,1,.9,1.667l.02.371h1.025l-.006-.4c-.018-1.352-.664-2.965-3.632-2.965-2.855,0-3.455,1.394-3.455,2.564a2.229,2.229,0,0,0,1.2,2.044,9.211,9.211,0,0,0,2.161.708c1.114.268,1.539.385,1.7.436a2.263,2.263,0,0,1,.824.416,1.357,1.357,0,0,1,.333,1,1.375,1.375,0,0,1-.9,1.347,3.893,3.893,0,0,1-1.62.3c-2,0-2.925-.734-2.925-2.308v-.47h-1.03v.522a2.915,2.915,0,0,0,1.49,2.751,5.045,5.045,0,0,0,2.448.534,4.722,4.722,0,0,0,2.274-.519,2.487,2.487,0,0,0,.328-4.164" transform="translate(25.153 58.967)" fill="#fff"/>
    <path id="Path_287" data-name="Path 287" d="M59.322,36.508h3.135v8.635h1.032V36.508h3.135V35.478h-7.3v1.031" transform="translate(26.779 58.984)" fill="#fff"/>
    <path id="Path_288" data-name="Path 288" d="M82.486,40.622h4.989V39.6H82.486v-3.1h5.636v-1.03H81.464v9.665h6.72V44.111h-5.7V40.622" transform="translate(31.857 58.984)" fill="#fff"/>
    <path id="Path_289" data-name="Path 289" d="M94.446,40.568a9.006,9.006,0,0,0-3.018-.979,5.663,5.663,0,0,1-1.607-.5,1.2,1.2,0,0,1-.616-1.12c0-.658.25-1.534,2.414-1.534a3.866,3.866,0,0,1,1.7.294,1.8,1.8,0,0,1,.895,1.667l.02.371h1.027l-.006-.4c-.018-1.352-.664-2.965-3.632-2.965-2.856,0-3.455,1.394-3.455,2.564a2.229,2.229,0,0,0,1.2,2.044,9.272,9.272,0,0,0,2.162.708c1.113.268,1.539.385,1.7.436a2.287,2.287,0,0,1,.824.416,1.357,1.357,0,0,1,.333,1,1.375,1.375,0,0,1-.9,1.347,3.9,3.9,0,0,1-1.62.3c-2,0-2.925-.734-2.925-2.308v-.47H87.9v.522A2.912,2.912,0,0,0,89.4,44.717a5.04,5.04,0,0,0,2.446.534,4.741,4.741,0,0,0,2.276-.519,2.488,2.488,0,0,0,.328-4.164" transform="translate(33.335 58.967)" fill="#fff"/>
    <path id="Path_290" data-name="Path 290" d="M49.272,35.478h-.857l-4.006,9.665H45.55l3.289-7.916,3.183,7.916h1.119L49.37,35.724l-.1-.246" transform="translate(23.358 58.984)" fill="#fff"/>
    <path id="Path_291" data-name="Path 291" d="M70.511,35.478h-.857l-4.005,9.665h1.141l3.289-7.916,3.183,7.916h1.119l-3.772-9.419-.1-.246" transform="translate(28.23 58.984)" fill="#fff"/>
    <path id="Path_292" data-name="Path 292" d="M80.652,45.142H81.3V35.478H80.268v7.75c-.632-.888-1.438-1.992-2.4-3.295-1.388-1.872-2.432-3.314-3.1-4.288l-.117-.167h-.97v9.664h1.031V37.35l5.628,7.792h.317" transform="translate(30.071 58.984)" fill="#fff"/>
    <path id="Path_293" data-name="Path 293" d="M97.676,36.565h1.089V20.249H97.025V33.334c-1.062-1.492-2.424-3.357-4.059-5.565-2.346-3.167-4.107-5.6-5.237-7.237l-.2-.283H85.894V36.565h1.741V23.41l9.5,13.155h.54" transform="translate(32.874 55.491)" fill="#fff"/>
    <rect id="Rectangle_1520" data-name="Rectangle 1520" width="4.495" height="0.956" transform="translate(69.92 99.595)" fill="#fff"/>
    <rect id="Rectangle_1521" data-name="Rectangle 1521" width="4.495" height="0.956" transform="translate(96.138 99.595)" fill="#fff"/>
    <rect id="Rectangle_1522" data-name="Rectangle 1522" width="1.671" height="2.072" transform="translate(79.786 75.767)" fill="#fff"/>
    <rect id="Rectangle_1523" data-name="Rectangle 1523" width="1.671" height="2.072" transform="translate(82.676 75.767)" fill="#fff"/>
  </g>
</svg>
