<svg xmlns="http://www.w3.org/2000/svg" width="129.094" height="47.092" viewBox="0 0 129.094 47.092">
  <g id="Group_17" data-name="Group 17" transform="translate(0.094 -0.492)">
    <g id="Group_8" data-name="Group 8">
      <g id="Group_1" data-name="Group 1">
        <path id="Path_1" data-name="Path 1" d="M54.215,10.916H43.971v2.779h7.582a5.229,5.229,0,0,1-2.287,4.489A7.372,7.372,0,0,1,44.957,19.5a7.913,7.913,0,0,1-5.2-1.656c-1.634-1.375-2.463-3.54-2.463-6.435,0-2.842.816-4.991,2.429-6.39A7.419,7.419,0,0,1,44.8,3.272c3.736,0,5.786,1.51,6.45,4.754l.184.892h2.852l-.253-1.324a8.087,8.087,0,0,0-3.818-5.755A10.481,10.481,0,0,0,44.764.492a10.222,10.222,0,0,0-6.919,2.422c-2.217,1.951-3.342,4.82-3.342,8.53,0,3.76,1.166,6.636,3.464,8.547a10.559,10.559,0,0,0,6.99,2.3,9.9,9.9,0,0,0,6.221-2.017,8.463,8.463,0,0,0,3.2-7.069,12.553,12.553,0,0,0-.057-1.271Z" fill="#fff"/>
      </g>
      <g id="Group_2" data-name="Group 2">
        <path id="Path_2" data-name="Path 2" d="M69.861,13.928c0,3.857-1.694,5.577-5.494,5.577s-5.512-1.754-5.512-5.688V.693H56.069V13.845c0,3.2.908,5.521,2.7,6.911a9.054,9.054,0,0,0,5.6,1.53,9.037,9.037,0,0,0,5.58-1.528c1.792-1.368,2.7-3.675,2.7-6.857V.693H69.861Z" fill="#fff"/>
      </g>
      <g id="Group_3" data-name="Group 3">
        <path id="Path_3" data-name="Path 3" d="M83.309,17.293,76.636.693H73.674l8.561,21.4h2.13L92.724.693H89.756Z" fill="#fff"/>
      </g>
      <g id="Group_4" data-name="Group 4">
        <path id="Path_4" data-name="Path 4" d="M96.995,12.344h10.774V9.59H96.995V3.47h12.173V.693H94.225v21.4H109.3V19.306h-12.3Z" fill="#fff"/>
      </g>
      <g id="Group_5" data-name="Group 5">
        <path id="Path_5" data-name="Path 5" d="M125.206.693V16.815c-1.419-1.975-2.994-4.127-4.691-6.406-3.027-4.079-5.278-7.188-6.695-9.243l-.339-.473h-2.519v21.4h2.788V5.869L125.4,21.975l.083.116h2.506V.693Z" fill="#fff"/>
      </g>
      <g id="Group_6" data-name="Group 6">
        <rect id="Rectangle_1" data-name="Rectangle 1" width="2.698" height="3.204" transform="translate(61.082 0.724)" fill="#fff"/>
      </g>
      <g id="Group_7" data-name="Group 7">
        <rect id="Rectangle_2" data-name="Rectangle 2" width="2.693" height="3.204" transform="translate(64.783 0.724)" fill="#fff"/>
      </g>
    </g>
    <g id="Group_15" data-name="Group 15">
      <g id="Group_9" data-name="Group 9">
        <path id="Path_6" data-name="Path 6" d="M14.666,18.377H30.013V16.648H15.571V14.311l.076-.041c3.018-1.565,4.547-3.71,4.547-6.375a7.342,7.342,0,0,0-14.68,0c0,2.842,1.806,5.248,4.953,6.6l.086.037.033,2.113H-.093v1.729H11.5a.922.922,0,0,0,.646-.261A.824.824,0,0,0,12.4,17.5l-.056-3.562a.87.87,0,0,0-.582-.8c-1.661-.605-4.448-2.09-4.448-5.249a5.539,5.539,0,0,1,11.076,0c0,2.124-1.311,3.75-4.128,5.121a.859.859,0,0,0-.5.767v3.728a.835.835,0,0,0,.263.609.927.927,0,0,0,.637.257" fill="#fff"/>
      </g>
      <g id="Group_10" data-name="Group 10">
        <path id="Path_7" data-name="Path 7" d="M23.79,35.234h6.223V33.579H24.667l.016-.968.081-.036a4.827,4.827,0,0,0,3.028-4.509,5.108,5.108,0,0,0-10.213,0,5.211,5.211,0,0,0,2.763,4.476l.074.04v1H16.4v1.655h4.877a.875.875,0,0,0,.612-.245.8.8,0,0,0,.251-.584V32.081a.815.815,0,0,0-.473-.738c-1.656-.8-2.362-1.875-2.362-3.277a3.378,3.378,0,0,1,6.755,0,3.244,3.244,0,0,1-2.541,3.219.83.83,0,0,0-.555.762l-.04,2.343a.807.807,0,0,0,.248.592.881.881,0,0,0,.616.252" fill="#fff"/>
      </g>
      <g id="Group_11" data-name="Group 11">
        <path id="Path_8" data-name="Path 8" d="M12.045,19.966a.919.919,0,0,0-.726-.351H-.094v1.729h10.2L1.9,47.208H3.786l8.4-26.481a.843.843,0,0,0-.137-.761" fill="#fff"/>
      </g>
      <g id="Group_12" data-name="Group 12">
        <path id="Path_9" data-name="Path 9" d="M30.013,19.615H14.335a.883.883,0,0,0-.9.863v26.73h1.8V21.344H30.013Z" fill="#fff"/>
      </g>
      <g id="Group_13" data-name="Group 13">
        <path id="Path_10" data-name="Path 10" d="M22.151,47.311V36.943a.849.849,0,0,0-.865-.828H16.4v1.657H20.42v9.539Z" fill="#fff"/>
      </g>
      <g id="Group_14" data-name="Group 14">
        <path id="Path_11" data-name="Path 11" d="M30.013,37.772V36.115h-6.1a.874.874,0,0,0-.7.339.825.825,0,0,0-.133.729l3,10.128h1.8l-2.813-9.539Z" fill="#fff"/>
      </g>
    </g>
    <g id="Group_16" data-name="Group 16">
      <path id="Path_12" data-name="Path 12" d="M35,37.578a10.584,10.584,0,0,1,2.392-7.357,8.467,8.467,0,0,1,6.621-2.649,8.419,8.419,0,0,1,6.6,2.643q2.379,2.643,2.379,7.363a10.622,10.622,0,0,1-2.379,7.356,8.41,8.41,0,0,1-6.6,2.65,8.467,8.467,0,0,1-6.621-2.65A10.583,10.583,0,0,1,35,37.578Zm2.669,0a8.764,8.764,0,0,0,1.683,5.705,5.692,5.692,0,0,0,4.661,2.057,5.643,5.643,0,0,0,4.636-2.057,8.813,8.813,0,0,0,1.669-5.705,8.81,8.81,0,0,0-1.669-5.713,5.653,5.653,0,0,0-4.636-2.05,5.7,5.7,0,0,0-4.661,2.05A8.761,8.761,0,0,0,37.669,37.578Z" fill="#fff"/>
      <path id="Path_13" data-name="Path 13" d="M56.211,47.055V28.062h2.824l8.871,13.8q.3.451.516.851a5.715,5.715,0,0,1,.348.748v-15.4h2.463V47.055h-2.8L59.37,33.065a7.443,7.443,0,0,1-.38-.671q-.174-.348-.329-.735v15.4Z" fill="#fff"/>
      <path id="Path_14" data-name="Path 14" d="M75.282,47.055V28.062h2.6v16.6h9.465v2.4Z" fill="#fff"/>
      <path id="Path_15" data-name="Path 15" d="M89.465,47.055V28.062h2.579V47.055Z" fill="#fff"/>
      <path id="Path_16" data-name="Path 16" d="M96.17,47.055V28.062h2.824l8.871,13.8q.3.451.516.851a5.715,5.715,0,0,1,.348.748v-15.4h2.464V47.055h-2.8l-9.065-13.99a7.444,7.444,0,0,1-.38-.671q-.174-.348-.329-.735v15.4Z" fill="#fff"/>
      <path id="Path_17" data-name="Path 17" d="M115.242,47.055V28.062h13.539v2.359H117.795V36.1h10.148v2.218H117.795v6.369H129v2.373Z" fill="#fff"/>
    </g>
  </g>
</svg>
