<svg width="448" height="448" viewBox="0 0 448 448" fill="none" xmlns="http://www.w3.org/2000/svg">
<path d="M224 448C347.712 448 448 347.712 448 224C448 100.288 347.712 0 224 0C100.288 0 0 100.288 0 224C0 347.712 100.288 448 224 448Z" fill="#862734"/>
<path d="M224 408C325.62 408 408 325.62 408 224C408 122.38 325.62 40 224 40C122.38 40 40 122.38 40 224C40 325.62 122.38 408 224 408Z" fill="white"/>
<path d="M97.2339 212.541H127.627V209.088H99.0224V204.424L99.1774 204.346C105.15 201.218 108.178 196.937 108.178 191.617C108.178 187.74 106.648 184.022 103.923 181.281C101.199 178.54 97.5034 177 93.6502 177C89.7971 177 86.1019 178.54 83.3773 181.281C80.6527 184.022 79.1221 187.74 79.1221 191.617C79.2382 194.554 80.2381 197.387 81.9895 199.741C83.7408 202.095 86.1611 203.858 88.9302 204.797L89.0981 204.872L89.1659 209.095H68V212.547H90.9642C91.4459 212.552 91.91 212.365 92.2555 212.028C92.4198 211.869 92.5498 211.677 92.6376 211.465C92.7253 211.254 92.7689 211.026 92.7656 210.797L92.6494 203.687C92.64 203.337 92.525 202.998 92.3197 202.715C92.1144 202.433 91.8286 202.22 91.5001 202.105C88.2135 200.9 82.6928 197.931 82.6928 191.623C82.8117 188.777 84.0192 186.087 86.0629 184.116C88.1066 182.144 90.8285 181.043 93.6599 181.043C96.4914 181.043 99.2133 182.144 101.257 184.116C103.301 186.087 104.508 188.777 104.627 191.623C104.627 195.865 102.028 199.113 96.4493 201.848C96.1612 201.986 95.9175 202.202 95.7461 202.473C95.5748 202.743 95.4828 203.057 95.4808 203.378V210.806C95.4808 211.033 95.5267 211.257 95.6154 211.466C95.7042 211.674 95.8342 211.862 95.9974 212.018C96.3384 212.346 96.7913 212.529 97.2629 212.531" fill="#862734"/>
<path d="M115.301 246.185H127.628V242.878H117.038L117.071 240.952L117.232 240.878C119.013 240.155 120.537 238.911 121.606 237.307C122.676 235.703 123.242 233.812 123.231 231.88C123.183 229.213 122.097 226.672 120.205 224.802C118.314 222.933 115.769 221.886 113.117 221.886C110.466 221.886 107.921 222.933 106.029 224.802C104.138 226.672 103.051 229.213 103.004 231.88C103.047 233.723 103.577 235.521 104.539 237.09C105.5 238.659 106.859 239.943 108.476 240.809L108.622 240.891V242.878H100.67V246.185H110.33C110.781 246.188 111.216 246.012 111.54 245.695C111.699 245.545 111.825 245.364 111.911 245.164C111.997 244.963 112.041 244.747 112.041 244.528V239.893C112.04 239.583 111.952 239.279 111.785 239.018C111.619 238.756 111.381 238.549 111.101 238.419C109.747 237.947 108.571 237.065 107.734 235.895C106.897 234.724 106.441 233.322 106.426 231.88C106.426 230.095 107.131 228.384 108.386 227.121C109.64 225.859 111.342 225.15 113.116 225.15C114.89 225.15 116.591 225.859 117.846 227.121C119.1 228.384 119.805 230.095 119.805 231.88C119.829 233.37 119.34 234.823 118.423 235.993C117.505 237.163 116.215 237.978 114.769 238.302C114.454 238.414 114.18 238.619 113.984 238.891C113.788 239.164 113.679 239.489 113.671 239.825L113.594 244.502C113.591 244.722 113.633 244.94 113.717 245.142C113.801 245.345 113.925 245.528 114.081 245.682C114.406 246.004 114.845 246.185 115.301 246.185Z" fill="#862734"/>
<path d="M92.0399 215.711C91.8695 215.492 91.6514 215.315 91.4024 215.193C91.1534 215.071 90.88 215.009 90.6032 215.01H68.0039V218.463H88.2045L71.9556 270.082H75.6877L92.3143 217.231C92.3936 216.975 92.4103 216.703 92.3631 216.438C92.3159 216.174 92.2062 215.924 92.0431 215.711" fill="#862734"/>
<path d="M127.627 215.009H96.5751C96.1118 215.001 95.6642 215.178 95.3303 215.501C94.9963 215.825 94.8031 216.268 94.793 216.734V270.081H98.3637V218.462H127.627V215.009Z" fill="#862734"/>
<path d="M112.052 270.289V249.599C112.042 249.151 111.856 248.726 111.534 248.416C111.213 248.106 110.783 247.937 110.338 247.946H100.652V251.249H108.611V270.289H112.052" fill="#862734"/>
<path d="M127.626 251.249V247.945H115.539C115.273 247.945 115.011 248.005 114.772 248.122C114.533 248.239 114.324 248.41 114.16 248.621C114.005 248.825 113.901 249.063 113.855 249.315C113.809 249.567 113.823 249.827 113.896 250.073L119.836 270.289H123.387L117.822 251.249H127.613" fill="#862734"/>
<path d="M380.004 245.646H376.672V269.993H380.004V245.646Z" fill="#862734"/>
<path d="M380.004 238.305H376.672V242.888H380.004V238.305Z" fill="#862734"/>
<path d="M193.914 203.797H169.403V209.449H188.542V209.751C188.679 212.169 188.192 214.582 187.127 216.754C186.062 218.926 184.456 220.784 182.466 222.146C179.164 224.472 175.219 225.693 171.189 225.634C166.288 225.849 161.472 224.295 157.61 221.253C155.346 219.103 153.591 216.469 152.473 213.546C151.356 210.623 150.904 207.485 151.153 204.363C150.921 201.266 151.371 198.156 152.47 195.254C153.568 192.353 155.289 189.73 157.51 187.573C161.208 184.413 165.949 182.761 170.798 182.941C180.609 182.941 185.998 186.962 187.757 195.593L188.106 197.311H193.878L193.397 194.771C192.979 191.868 191.929 189.094 190.321 186.647C188.714 184.2 186.589 182.141 184.099 180.616C180.016 178.307 175.386 177.158 170.704 177.293C164.501 177.096 158.448 179.231 153.726 183.282C150.903 185.989 148.705 189.286 147.289 192.941C145.872 196.596 145.271 200.519 145.529 204.434C145.529 213.779 148.383 220.902 154.007 225.621C158.878 229.516 164.974 231.526 171.192 231.286C176.693 231.413 182.075 229.66 186.459 226.313C189.047 224.245 191.105 221.584 192.463 218.553C193.82 215.521 194.437 212.207 194.262 208.887C194.262 207.834 194.209 206.781 194.104 205.733L193.917 203.784" fill="#862734"/>
<path d="M234.747 210.765C234.747 220.915 230.121 225.647 220.174 225.647C210.227 225.647 205.558 220.824 205.558 210.482V177.793H199.947V210.54C199.947 218.433 202.146 224.153 206.485 227.535C210.517 230.267 215.332 231.584 220.183 231.283C225.017 231.579 229.813 230.265 233.83 227.544C238.176 224.205 240.377 218.537 240.377 210.677V177.793H234.747V210.765Z" fill="#862734"/>
<path d="M267.969 221.23L250.639 177.793H244.695L265.732 230.789H270.139L290.695 177.793H284.706L267.969 221.23Z" fill="#862734"/>
<path d="M301.788 206.003H328.972V200.423H301.788V183.445H332.504V177.793H296.219V230.789H332.846V225.134H301.788V206.003" fill="#862734"/>
<path d="M166.815 251.992H148.855V238.604H145.529V269.997H148.858V255.315H166.818V269.997H170.146V238.604H166.815V251.992Z" fill="#862734"/>
<path d="M225.957 255.082C222.922 253.451 219.623 252.377 216.214 251.908C214.416 251.619 212.669 251.072 211.025 250.284C210.387 249.928 209.861 249.398 209.51 248.754C209.158 248.11 208.994 247.38 209.037 246.647C209.037 244.509 209.844 241.664 216.83 241.664C218.708 241.562 220.584 241.888 222.319 242.619C223.255 243.16 224.024 243.954 224.537 244.91C225.05 245.867 225.288 246.948 225.224 248.033L225.289 249.239H228.598L228.579 247.939C228.521 243.548 226.435 238.309 216.853 238.309C207.636 238.309 205.699 242.836 205.699 246.637C205.658 247.998 206 249.343 206.686 250.517C207.371 251.692 208.372 252.648 209.573 253.276C211.795 254.329 214.138 255.102 216.549 255.576C220.146 256.446 221.518 256.826 222.038 256.992C223.007 257.253 223.913 257.713 224.698 258.343C225.084 258.785 225.377 259.3 225.562 259.858C225.747 260.416 225.818 261.005 225.773 261.591C225.812 262.536 225.551 263.469 225.029 264.255C224.507 265.041 223.75 265.64 222.868 265.966C221.213 266.663 219.43 266.995 217.637 266.941C211.18 266.941 208.194 264.557 208.194 259.444V257.917H204.869V259.613C204.744 261.408 205.13 263.202 205.982 264.785C206.834 266.368 208.116 267.673 209.679 268.549C212.127 269.786 214.845 270.383 217.583 270.283C220.131 270.348 222.656 269.768 224.924 268.597C226.104 267.956 227.105 267.028 227.837 265.897C228.568 264.766 229.006 263.469 229.112 262.125C229.217 260.78 228.986 259.43 228.439 258.198C227.893 256.966 227.048 255.891 225.983 255.072" fill="#862734"/>
<path d="M232.979 241.949H243.1V269.997H246.432V241.949H256.553V238.604H232.985V241.952" fill="#862734"/>
<path d="M324.157 255.312H340.264V251.993H324.157V241.924H342.353V238.578H320.857V269.971H342.553V266.645H324.15V255.312" fill="#862734"/>
<path d="M367.542 255.082C364.507 253.45 361.208 252.373 357.798 251.902C355.998 251.623 354.249 251.076 352.61 250.278C351.972 249.921 351.446 249.391 351.094 248.747C350.742 248.104 350.578 247.373 350.621 246.64C350.621 244.502 351.428 241.657 358.415 241.657C360.292 241.555 362.169 241.882 363.903 242.612C364.837 243.156 365.602 243.95 366.112 244.907C366.622 245.863 366.858 246.943 366.793 248.027L366.857 249.232H370.173L370.154 247.932C370.095 243.541 368.01 238.302 358.428 238.302C349.207 238.302 347.273 242.83 347.273 246.63C347.233 247.991 347.575 249.336 348.261 250.511C348.946 251.685 349.947 252.641 351.148 253.269C353.372 254.321 355.716 255.093 358.127 255.569C361.721 256.439 363.096 256.819 363.616 256.985C364.585 257.249 365.49 257.708 366.276 258.336C366.662 258.778 366.955 259.293 367.14 259.851C367.325 260.409 367.396 260.998 367.351 261.584C367.39 262.529 367.129 263.462 366.607 264.248C366.085 265.034 365.328 265.634 364.446 265.959C362.791 266.655 361.008 266.987 359.215 266.934C352.759 266.934 349.772 264.55 349.772 259.437V257.911H346.408V259.606C346.282 261.408 346.67 263.208 347.529 264.794C348.387 266.381 349.678 267.687 351.251 268.558C353.696 269.795 356.412 270.392 359.148 270.292C361.698 270.355 364.224 269.776 366.496 268.607C367.675 267.965 368.675 267.036 369.406 265.906C370.137 264.775 370.575 263.478 370.681 262.134C370.786 260.789 370.555 259.44 370.009 258.208C369.463 256.976 368.619 255.901 367.555 255.082" fill="#862734"/>
<path d="M189.487 238.604H186.72L173.787 269.997H177.471L188.089 244.284L198.366 269.997H201.978L189.804 239.403L189.481 238.604" fill="#862734"/>
<path d="M273.787 238.604H271.02L258.09 269.997H261.774L272.392 244.284L282.668 269.997H286.281L274.103 239.403L273.78 238.604" fill="#862734"/>
<path d="M312.471 269.993H314.563V238.604H311.231V263.776C309.19 260.892 306.588 257.306 303.482 253.074C299.001 246.993 295.631 242.31 293.474 239.146L293.096 238.604H289.965V269.993H293.293V244.684L311.463 269.993H312.487" fill="#862734"/>
<path d="M376.481 230.789H379.997V177.793H374.38V220.295C370.951 215.448 366.554 209.391 361.275 202.219C353.701 191.932 348.016 184.029 344.368 178.712L343.722 177.793H338.443V230.789H344.064V188.06L374.735 230.789H376.478" fill="#862734"/>
<path d="M195.25 255.276H180.738V258.382H195.25V255.276Z" fill="#862734"/>
<path d="M279.895 255.276H265.383V258.382H279.895V255.276Z" fill="#862734"/>
<path d="M217.985 177.88H212.59V184.61H217.985V177.88Z" fill="#862734"/>
<path d="M227.315 177.88H221.92V184.61H227.315V177.88Z" fill="#862734"/>
</svg>
