<svg xmlns="http://www.w3.org/2000/svg" width="176" height="134.671" viewBox="0 0 176 134.671">
  <g id="Group_4" data-name="Group 4" transform="translate(-1 -0.494)">
    <g id="Group_1" data-name="Group 1">
      <path id="Path_1" data-name="Path 1" d="M30.23,4.615c-3.153-3.3-9.183-2.911-12.141.568s-2.566,9.19.592,12.489A7.685,7.685,0,0,0,26.1,20.043a8.133,8.133,0,0,0,3.917-2.789,12.684,12.684,0,0,0,.462-14.976" fill="#fff"/>
      <path id="Path_2" data-name="Path 2" d="M31.5,3.35a10.2,10.2,0,0,0-17.176,8.389A11.09,11.09,0,0,0,21.9,21.69c4.881,1.478,9.329-1.838,11.273-6.175a14.566,14.566,0,0,0-1.149-14.14A1.838,1.838,0,0,0,29.574.733a1.8,1.8,0,0,0-.641,2.448,10.963,10.963,0,0,1,1.64,9c-.751,2.954-3.051,6.462-6.475,6.3-6.26-.3-8.539-9.986-3.366-13.251a6.688,6.688,0,0,1,8.233.652c1.621,1.641,4.15-.89,2.53-2.53Z"/>
    </g>
    <path id="Path_3" data-name="Path 3" d="M15.893,9.184c-5.117-2.26-10.742.467-13.244,5.31-3.227,6.246-.927,14.019.26,20.493C5.124,47.062,6.848,61.067,15.96,70.194c9.133,9.149,26.307,11.682,38.153,7.145,12.32-4.719,19.845-16.895,22.773-29.263A98.326,98.326,0,0,0,79.078,22.17C78.852,15.861,75.9,7.678,68.122,8.458c-2.269.228-2.293,3.808,0,3.578,7.871-.789,7.453,9.931,7.383,15.082A95.783,95.783,0,0,1,73.8,45.5c-2.2,10.474-7.459,21.008-16.989,26.6-9.809,5.75-24.028,4.712-33.731-.9C14.1,66,10.712,55.461,8.627,45.915,7.285,39.77,6.138,33.534,5.142,27.324c-.589-3.678-1.089-7.981.8-11.386,1.52-2.74,4.994-5.056,8.146-3.665,2.087.922,3.91-2.16,1.8-3.089Z"/>
    <path id="Path_4" data-name="Path 4" d="M14.75,51.024c1.827,5.222,4.513,10.181,9.095,13.477,5.12,3.682,12.253,5.155,18.472,5.02C54.37,69.259,63.1,60.915,67.228,50.093c.822-2.153-2.636-3.084-3.45-.951-3.55,9.3-11.107,16.576-21.461,16.8-5.256.114-11.187-1.027-15.682-3.869-4.314-2.728-6.794-7.311-8.435-12-.756-2.16-4.214-1.231-3.45.951Z"/>
    <g id="Group_2" data-name="Group 2">
      <path id="Path_5" data-name="Path 5" d="M125.7,53.93c-2.836-3.894-8.823-4.638-13.008-2.251s-6.555,7.254-6.822,12.064c-.321,5.772,3.391,12.469,9.172,12.458,4.973-.01,8.612-4.93,9.8-9.759,1.377-5.609.216-12.3-4.442-15.717" fill="#fff"/>
      <path id="Path_6" data-name="Path 6" d="M127.241,53.027a12.084,12.084,0,0,0-15.456-2.892c-5.375,3.047-8.313,9.893-7.629,15.926.611,5.388,4.069,11.22,9.92,11.868,6.306.7,10.913-5.166,12.4-10.667,1.736-6.44.32-13.91-5.177-18.082a1.8,1.8,0,0,0-2.447.642,1.831,1.831,0,0,0,.642,2.448c3.56,2.7,4.528,7.744,3.961,11.95-.545,4.044-2.991,9.378-7.5,10.124-4.195.693-7.025-3.366-7.934-6.938a13.587,13.587,0,0,1,3.542-12.648c3.269-3.19,9.563-3.911,12.6.075a1.851,1.851,0,0,0,2.448.642,1.8,1.8,0,0,0,.642-2.448Z"/>
    </g>
    <path id="Path_7" data-name="Path 7" d="M148.437,51.1c-4.1-1.829-8.992-3.449-12.977-.452a6.411,6.411,0,0,0-.659,9.96c2.856,2.752,6.724,3.126,10.288,4.379,1.412.5,3.072,1.238,3.836,2.607.9,1.6.115,3.338-1.115,4.507-1.826,1.735-4.52,1.932-6.912,1.9a19.129,19.129,0,0,1-3.324-.2,9.086,9.086,0,0,1-1.272-.426.732.732,0,0,1-.283-.212c-.06-.069,0,.511.018-.143.058-2.3-3.52-2.3-3.578,0-.121,4.846,6.932,4.718,10.174,4.528,4.462-.262,9.431-2.54,10.177-7.456.667-4.4-2.909-7.165-6.612-8.5-1.821-.657-3.742-.957-5.561-1.614-1.5-.541-3.382-1.433-4.12-2.947-.87-1.789.5-3.475,2.15-4.141,2.6-1.051,5.587.237,7.964,1.3a1.849,1.849,0,0,0,2.448-.642,1.8,1.8,0,0,0-.642-2.448Z"/>
    <path id="Path_8" data-name="Path 8" d="M154.74,51.253l2.541,11.07q.648,2.822,1.295,5.643a13.091,13.091,0,0,0,1.608,4.439c1.672,2.491,4.521,3.428,7.421,3.383a23.524,23.524,0,0,0,4.389-.556c1.339-.276,2.861-.8,3.3-2.256a2.189,2.189,0,0,0-2.729-2.812c-1.685.513-2.4,2.844-.622,3.766,2.04,1.06,3.852-2.027,1.8-3.089l-.134-.07.641.642-.047-.087.18,1.378.025-.1-.46.79a1.193,1.193,0,0,1-.941.215l-.79-.46.1.1-.46-.79-.063-.326.46-.789c-.458.572-1.978.6-2.668.7a12.6,12.6,0,0,1-3.268.117c-2.347-.275-3.426-1.713-4-3.9-1.556-5.936-2.762-11.985-4.135-17.966-.515-2.243-3.965-1.294-3.45.951Z"/>
    <path id="Path_9" data-name="Path 9" d="M158.156,64.276a37.376,37.376,0,0,1,11.16-3.425,1.793,1.793,0,0,0,1.249-2.2,1.845,1.845,0,0,0-2.2-1.25,39.939,39.939,0,0,0-12.015,3.786,1.789,1.789,0,0,0,1.806,3.089Z"/>
    <path id="Path_10" data-name="Path 10" d="M155.31,52.6q10.185-.966,20.309-2.46a1.8,1.8,0,0,0,1.25-2.2,1.835,1.835,0,0,0-2.2-1.25Q165.02,48.1,155.31,49.018a1.838,1.838,0,0,0-1.789,1.789A1.8,1.8,0,0,0,155.31,52.6Z"/>
    <path id="Path_11" data-name="Path 11" d="M154.816,17.344l2.541,11.069q.648,2.822,1.295,5.644a13.079,13.079,0,0,0,1.608,4.438c1.672,2.492,4.521,3.429,7.421,3.384a23.693,23.693,0,0,0,4.389-.556c1.339-.276,2.861-.8,3.3-2.256a2.189,2.189,0,0,0-2.729-2.812c-1.685.513-2.4,2.843-.622,3.766,2.04,1.06,3.852-2.027,1.8-3.09l-.134-.07.641.642-.047-.087.18,1.379.025-.095-.46.789a1.19,1.19,0,0,1-.941.216l-.79-.46.1.1-.46-.789-.063-.326.46-.789c-.458.571-1.978.6-2.668.7a12.644,12.644,0,0,1-3.268.117c-2.347-.275-3.426-1.713-4-3.9-1.556-5.936-2.762-11.985-4.135-17.966-.515-2.244-3.965-1.294-3.45.951Z"/>
    <path id="Path_12" data-name="Path 12" d="M158.232,30.367a37.347,37.347,0,0,1,11.16-3.425,1.794,1.794,0,0,0,1.249-2.2,1.844,1.844,0,0,0-2.2-1.249,39.911,39.911,0,0,0-12.015,3.786,1.789,1.789,0,0,0,1.806,3.089Z"/>
    <path id="Path_13" data-name="Path 13" d="M155.386,18.687q10.185-.968,20.309-2.46a1.8,1.8,0,0,0,1.25-2.2,1.836,1.836,0,0,0-2.2-1.249q-9.648,1.417-19.358,2.332A1.838,1.838,0,0,0,153.6,16.9a1.8,1.8,0,0,0,1.789,1.789Z"/>
    <path id="Path_14" data-name="Path 14" d="M127.92,20.93a12.083,12.083,0,0,0-15.455-2.893c-5.375,3.048-8.314,9.893-7.629,15.927.611,5.387,4.068,11.22,9.92,11.867,6.306.7,10.912-5.165,12.4-10.666,1.736-6.441.321-13.91-5.176-18.082a1.8,1.8,0,0,0-2.448.642,1.83,1.83,0,0,0,.642,2.447c3.56,2.7,4.529,7.744,3.962,11.951-.546,4.044-2.992,9.377-7.506,10.123-4.194.694-7.025-3.365-7.934-6.938a13.583,13.583,0,0,1,3.543-12.647c3.268-3.191,9.562-3.911,12.6.075a1.851,1.851,0,0,0,2.447.642,1.8,1.8,0,0,0,.642-2.448Z"/>
    <path id="Path_15" data-name="Path 15" d="M135.7,40.958a92.366,92.366,0,0,1,.788-20.349l-3.27.428a202.053,202.053,0,0,0,14.849,21.082c.978,1.218,3.117.2,3.054-1.265q-.516-11.915-1.855-23.77a1.842,1.842,0,0,0-1.789-1.789,1.8,1.8,0,0,0-1.788,1.789q1.338,11.85,1.854,23.77l3.054-1.265A194.931,194.931,0,0,1,136.3,19.231c-.727-1.188-3.025-1.178-3.27.427a96.467,96.467,0,0,0-.916,21.3c.16,2.284,3.739,2.3,3.578,0Z"/>
    <path id="Path_16" data-name="Path 16" d="M81.012,51.786l1.449,18.621c.2,2.564-.11,5.866,2.915,6.783a10.492,10.492,0,0,0,6.856-.528c10-4.119,10.287-18.39,3.2-25.348-3.957-3.885-10.183-4.752-14.639-1.219a1.8,1.8,0,0,0,0,2.53,1.831,1.831,0,0,0,2.53,0c2.761-2.19,6.9-1.263,9.312.965A13.836,13.836,0,0,1,96.763,63.6c.015,3.833-1.631,7.538-5.1,9.4A7.587,7.587,0,0,1,87,73.893c-.536-.084-.573-.038-.716-.314a4.729,4.729,0,0,1-.116-1.456l-.286-3.676-1.3-16.661c-.178-2.281-3.757-2.3-3.578,0Z"/>
    <path id="Path_17" data-name="Path 17" d="M112.838,93.957q-.795,19.212-.321,38.444c.057,2.3,3.625,2.308,3.578,0l-.07-3.412c-.047-2.3-3.626-2.308-3.578,0l.07,3.412H116.1q-.474-19.224.321-38.444c.1-2.3-3.483-2.3-3.578,0Z" fill="#fff"/>
    <path id="Path_18" data-name="Path 18" d="M132.8,93.953q-.795,19.213-.321,38.448c.056,2.3,3.625,2.308,3.578,0l-.07-3.413c-.047-2.3-3.626-2.307-3.578,0l.07,3.413h3.578q-.474-19.226.321-38.448c.1-2.3-3.483-2.3-3.578,0Z" fill="#fff"/>
    <path id="Path_19" data-name="Path 19" d="M126.37,113.089a82.331,82.331,0,0,1,17.159-1.366v-3.578l-1.788.024c-2.3.031-2.307,3.609,0,3.578l1.788-.024a1.79,1.79,0,0,0,0-3.578,86.956,86.956,0,0,0-18.11,1.494,1.806,1.806,0,0,0-1.249,2.2,1.825,1.825,0,0,0,2.2,1.249Z" fill="#fff"/>
    <path id="Path_20" data-name="Path 20" d="M154.017,93.957,151.193,132.4h3.578a28.377,28.377,0,0,1,.948-11.772c.969-3.191,2.591-7.5,6.182-8.48,4.5-1.224,5.018,3.271,5.327,6.536l1.278,13.521c.215,2.273,3.795,2.3,3.578,0-.528-5.59-.792-11.282-1.639-16.832-.667-4.367-3.733-7.558-8.383-6.889-4.514.649-7.14,4.4-8.763,8.333a30.986,30.986,0,0,0-2.106,15.583,1.79,1.79,0,0,0,3.578,0L157.6,93.957c.168-2.3-3.411-2.286-3.578,0Z" fill="#fff"/>
    <path id="Path_21" data-name="Path 21" d="M76.98,129.113c-2.6,1.679-5.874,3.291-8.993,2.036-3.149-1.266-3.331-5.214-3.423-8.118a29.3,29.3,0,0,1,.3-5.631,4.818,4.818,0,0,1,2.084-3.579c2.2-1.377,5.748-.347,6.262,2.432.3,1.619-2,2.7-3.188,3.273a5.256,5.256,0,0,1-4.71.306c-2.029-1.087-3.838,2-1.806,3.09a8.311,8.311,0,0,0,6.922.293c2.05-.762,4.395-2.04,5.607-3.931,2.832-4.417-2.066-9.344-6.393-9.688a7.827,7.827,0,0,0-5.97,2.291c-1.817,1.8-2.274,4.163-2.524,6.613a33.832,33.832,0,0,0,.123,7.944,10.332,10.332,0,0,0,2.8,6.376c4.285,3.968,10.368,2.189,14.717-.617,1.929-1.244.137-4.343-1.806-3.09Z" fill="#fff"/>
    <path id="Path_22" data-name="Path 22" d="M36.74,78.212c2.985,18.819,22,28.666,39.63,28.352,9.175-.164,19.024-2.088,26.446-7.762a33.512,33.512,0,0,0,12.8-21.562c.336-2.252-3.111-3.224-3.45-.951a30.353,30.353,0,0,1-10.835,19.162c-6.865,5.574-16.311,7.389-24.959,7.535-16.187.273-33.435-8.415-36.18-25.725-.36-2.268-3.808-1.306-3.45.951Z"/>
    <path id="Path_23" data-name="Path 23" d="M34.9,93.955,32.079,132.4h3.578a28.377,28.377,0,0,1,.948-11.772c.969-3.191,2.591-7.5,6.183-8.48,4.5-1.224,5.017,3.271,5.326,6.536L49.392,132.2c.215,2.272,3.8,2.295,3.578,0-.528-5.59-.791-11.282-1.639-16.832-.667-4.368-3.733-7.558-8.383-6.889-4.514.649-7.14,4.4-8.763,8.333A30.986,30.986,0,0,0,32.079,132.4a1.79,1.79,0,0,0,3.578,0l2.824-38.444c.169-2.3-3.41-2.287-3.578,0Z" fill="#fff"/>
    <path id="Path_24" data-name="Path 24" d="M87.377,115.627c2.6-1.679,5.874-3.29,8.993-2.036,3.149,1.266,3.331,5.214,3.423,8.118a29.3,29.3,0,0,1-.3,5.631,4.817,4.817,0,0,1-2.084,3.579c-2.2,1.378-5.748.347-6.262-2.431-.3-1.619,2-2.705,3.188-3.274a5.259,5.259,0,0,1,4.71-.306c2.029,1.088,3.838-2,1.806-3.09a8.315,8.315,0,0,0-6.922-.292c-2.05.761-4.395,2.04-5.607,3.931-2.832,4.417,2.066,9.343,6.393,9.687a7.826,7.826,0,0,0,5.97-2.29c1.817-1.8,2.274-4.164,2.524-6.613a33.831,33.831,0,0,0-.123-7.944,10.332,10.332,0,0,0-2.8-6.377c-4.285-3.968-10.368-2.188-14.717.618-1.929,1.244-.137,4.343,1.806,3.089Z" fill="#fff"/>
    <g id="Group_3" data-name="Group 3">
      <path id="Path_25" data-name="Path 25" d="M66.151,4.615C63,1.311,56.969,1.7,54.01,5.183s-2.566,9.19.592,12.489a7.686,7.686,0,0,0,7.417,2.371,8.133,8.133,0,0,0,3.917-2.789A12.684,12.684,0,0,0,66.4,2.278" fill="#fff"/>
      <path id="Path_26" data-name="Path 26" d="M67.416,3.35A10.2,10.2,0,0,0,50.24,11.739a11.09,11.09,0,0,0,7.579,9.951c4.881,1.478,9.329-1.838,11.273-6.175a14.566,14.566,0,0,0-1.149-14.14A1.838,1.838,0,0,0,65.5.733a1.8,1.8,0,0,0-.641,2.448,10.963,10.963,0,0,1,1.64,9c-.751,2.954-3.051,6.462-6.474,6.3-6.261-.3-8.54-9.986-3.367-13.251a6.688,6.688,0,0,1,8.233.652c1.621,1.641,4.15-.89,2.53-2.53Z"/>
    </g>
  </g>
</svg>
