<svg id="katman_2" data-name="katman 2" xmlns="http://www.w3.org/2000/svg" width="448" height="448" viewBox="0 0 448 448">
  <g id="Layer_1" data-name="Layer 1">
    <circle id="Ellipse_6" data-name="Ellipse 6" cx="224" cy="224" r="224" fill="#009e47"/>
    <circle id="Ellipse_7" data-name="Ellipse 7" cx="184" cy="184" r="184" transform="translate(40 40)" fill="#fff"/>
    <path id="Path_528" data-name="Path 528" d="M8610.64,1432.2c-5.9-6.18-17.19-5.45-22.73,1.07s-4.81,17.21,1.1,23.39c3.54,3.69,9,5.86,13.9,4.44a15.253,15.253,0,0,0,7.33-5.23,23.75,23.75,0,0,0,.87-28" transform="translate(-8428 -1339)" fill="#009f46"/>
    <path id="Path_529" data-name="Path 529" d="M8612.72,1430.13c-5.41-5.53-14-6.37-20.87-3.34-7.09,3.12-11,10.71-10.62,18.3.45,8.37,5.63,16.09,13.8,18.65,8.91,2.8,17.15-3.26,20.71-11.21,3.75-8.37,3.25-18.59-2.1-26.18a2.926,2.926,0,1,0-5.06,2.94,20.862,20.862,0,0,1,3,17.52c-1.51,5.57-6,12.07-12.44,11.76-6.25-.3-10.7-5.93-11.82-11.53-1-5.16.77-11.22,5.34-14.09a12.079,12.079,0,0,1,4-1.69q.558-.13,1.109-.24c.6-.11.32-.06.18,0a2.312,2.312,0,0,0,.64-.06,16.421,16.421,0,0,1,2.43,0,11.678,11.678,0,0,1,7.49,3.37c2.65,2.7,6.79-1.45,4.15-4.15Z" transform="translate(-8428 -1339)"/>
    <path id="Path_530" data-name="Path 530" d="M8583.15,1442.18c-10.7-5.41-22.51,3.26-25.76,13.57-2,6.33-1.52,13.06-.57,19.53,1,6.91,2.44,13.78,3.7,20.65,2,10.94,4,21.93,7.52,32.5,3.37,10,8.2,19.82,15.75,27.38,9,9,21.18,13.39,33.46,15.64,12.94,2.36,26.68,2.17,39-3,21.69-9,35.09-30.5,40.63-52.56,3.29-13.12,4.24-26.73,4.43-40.21.17-11.85.67-28-12.28-33.66a14.791,14.791,0,0,0-8.61-1.09,2.9,2.9,0,0,0-2,3.61,3,3,0,0,0,3.6,2.05,9,9,0,0,1,6,1.5,13.832,13.832,0,0,1,4.56,4.84c2.87,5,2.9,11.16,2.91,16.76,0,12.51-.42,25.12-2.71,37.44-3.84,20.71-13.72,41.68-32.47,52.77-10,5.9-21.58,7.74-33.08,6.92a87.508,87.508,0,0,1-17.8-3.29,53.545,53.545,0,0,1-16.08-7.35c-16.1-11.3-21.46-32.49-25.1-50.92-1.16-5.89-2.2-11.8-3.28-17.7-1.12-6.11-2.52-12.25-3-18.46-.39-5.45,0-11.32,2.93-15.85a15.2,15.2,0,0,1,10.26-6.89h.19a6.966,6.966,0,0,0,1-.05h.65s1,.1.5,0a9.067,9.067,0,0,1,2.72.84,2.9,2.9,0,1,0,2.95-5Z" transform="translate(-8428 -1339)"/>
    <path id="Path_531" data-name="Path 531" d="M8582.05,1519c2.6,7.58,6.22,15,11.87,20.73,6.24,6.39,14.51,9.85,23.09,11.81,9,2.07,18.61,2.6,27.67.3a45.372,45.372,0,0,0,20.75-12,62.48,62.48,0,0,0,14.1-22.54,2.94,2.94,0,0,0-2.05-3.61,3,3,0,0,0-3.6,2c-4.791,12.81-14.291,25-27.571,29.54-7.83,2.68-16.35,2.79-24.44,1.32-7.71-1.39-15.73-3.79-21.74-9s-9.84-12.56-12.42-20.09a2.94,2.94,0,1,0-5.66,1.56Z" transform="translate(-8428 -1339)"/>
    <path id="Path_532" data-name="Path 532" d="M8677.92,1432.2c-5.91-6.18-17.2-5.45-22.74,1.07s-4.81,17.21,1.11,23.39c3.53,3.69,9,5.86,13.89,4.44a15.235,15.235,0,0,0,7.34-5.23,23.729,23.729,0,0,0,.859-28" transform="translate(-8428 -1339)" fill="#009f46"/>
    <path id="Path_533" data-name="Path 533" d="M8680,1430.13c-5.41-5.53-14-6.37-20.86-3.34-7.1,3.12-11,10.71-10.62,18.3.45,8.37,5.63,16.09,13.79,18.65,8.91,2.8,17.15-3.26,20.71-11.21,3.75-8.37,3.26-18.59-2.1-26.18a2.9,2.9,0,1,0-5,2.94,20.94,20.94,0,0,1,3,17.52c-1.51,5.57-6,12.07-12.44,11.76-6.26-.3-10.7-5.93-11.82-11.53-1-5.16.77-11.22,5.33-14.09a12.242,12.242,0,0,1,4-1.69q.56-.13,1.11-.24c.61-.11.33-.06.18,0l.65-.06a16.273,16.273,0,0,1,2.42,0,11.7,11.7,0,0,1,7.5,3.37c2.64,2.7,6.79-1.45,4.14-4.15Z" transform="translate(-8428 -1339)"/>
    <path id="Path_534" data-name="Path 534" d="M8626.85,1571.24c-1.17,11.48,1.12,24,7.57,33.66a32.692,32.692,0,0,0,32.18,15c14.41-1.7,27.66-9.91,38.35-19.37,5.53-4.9,10.63-10.68,13.47-17.58,2.75-6.7,2.5-14.19-2.14-20-4.16-5.15-11.38-7.35-17.34-4-5.14,2.94-7.67,9-8.67,14.59a44.491,44.491,0,0,0-.57,4.59l4.41-2.53c-4.61-3.28-9.42-6.42-15.19-7-5.07-.49-10.45,1.52-13.18,6-2.61,4.26-2.12,9.63-.22,14,2.06,4.76,6.08,8.15,10.41,10.81s9,4.71,13.26,7.56a59.368,59.368,0,0,1,10.5,9.07,63.19,63.19,0,0,1,13.75,23.76,59.272,59.272,0,0,1,2.749,15.28c.06,1.48-.21,3.26.61,4.58a4.1,4.1,0,0,0,4.43,1.78,3.791,3.791,0,0,0,2.67-4.55,4,4,0,0,0-3.85-3.08,2.93,2.93,0,1,0,0,5.86l-1.439-3.22,1.29-.75.83.07,1.38,1.57a3.951,3.951,0,0,0,0-.76c0-.5,0-1-.05-1.5,0-1.07-.12-2.13-.22-3.19-.21-2.2-.52-4.39-.94-6.55a64.887,64.887,0,0,0-3.5-11.89,70.632,70.632,0,0,0-13.549-21.55,67.265,67.265,0,0,0-9.54-8.48,88.418,88.418,0,0,0-11.111-6.65c-3.79-2-7.74-4.16-10.52-7.53a13.645,13.645,0,0,1-2.27-4.22,16.91,16.91,0,0,1-.539-2.27,14.666,14.666,0,0,1,0-2.57,7,7,0,0,1,.78-2.38,5.615,5.615,0,0,1,1.45-1.76,8.5,8.5,0,0,1,5.549-1.67c5,0,9.511,3.4,13.521,6.25,2,1.39,4.26-.53,4.41-2.54.33-4.35,1.57-9.73,4.64-12.81a6.827,6.827,0,0,1,5.239-2.2,8.164,8.164,0,0,1,2.65.62,9.821,9.821,0,0,1,3.091,2.23c3.93,4,3.83,9.91,1.71,15-2.45,5.89-7.07,10.82-11.76,15-9.24,8.27-20.72,15.57-33.1,17.72a33.149,33.149,0,0,1-8.841.33,25.462,25.462,0,0,1-3.768-.68,30.334,30.334,0,0,1-3.912-1.29,27.493,27.493,0,0,1-11-8.781c-6.791-9.17-9-20.92-7.8-32.18a2.935,2.935,0,0,0-5.869,0Z" transform="translate(-8428 -1339)"/>
    <path id="Path_535" data-name="Path 535" d="M8736,1663c-5.31-7.29-16.52-8.69-24.36-4.22s-12.28,13.59-12.78,22.6c-.6,10.81,6.35,23.35,17.18,23.33,9.31,0,16.13-9.23,18.35-18.28,2.58-10.5.4-23-8.32-29.43" transform="translate(-8428 -1339)" fill="#009f46"/>
    <path id="Path_536" data-name="Path 536" d="M8738.53,1661.5c-6.55-8.79-19.41-10.58-28.69-5.08-9.58,5.67-15,17.95-13.81,28.88,1,10,7.27,20.86,18.1,22.19,11.64,1.44,20.17-9.5,22.91-19.61,3.2-11.8.7-25.82-9.49-33.44a2.942,2.942,0,0,0-3,5.06c6.8,5.08,8.76,15,7.59,23a28.489,28.489,0,0,1-4.93,12.59c-2.38,3.34-5.79,6.08-9.91,6.61a11.54,11.54,0,0,1-9.47-3.5,22.83,22.83,0,0,1-6.1-16.19,26.55,26.55,0,0,1,1-6.66,24.66,24.66,0,0,1,6.9-11.59,17.277,17.277,0,0,1,12.549-4.61c4.18.15,8.71,2,11.2,5.31a3,3,0,0,0,4,1c1.249-.73,2-2.73,1.049-4Z" transform="translate(-8428 -1339)"/>
  </g>
</svg>
