<svg xmlns="http://www.w3.org/2000/svg" width="69.711" height="66.865" viewBox="0 0 69.711 66.865">
  <g id="Group_2" data-name="Group 2" transform="translate(-0.142 -1.896)">
    <g id="Group_1" data-name="Group 1">
      <path id="Path_1" data-name="Path 1" d="M6.592,65.721c2.444-2.556,2.781-6.538,1.97-9.98S5.974,49.176,4.631,45.9C.548,35.958.913,23.6,7.885,15.415a29.774,29.774,0,0,1,7.269-6C26.6,2.454,41.93,1.635,53.346,8.641s17.66,22.1,13.212,34.735C63.758,51.329,57.181,57.686,49.43,61a41.932,41.932,0,0,1-24.824,2.042,16.934,16.934,0,0,0-5.367-.614,14.463,14.463,0,0,0-3.558,1.062L7.156,66.857" fill="#00a439"/>
      <path id="Path_2" data-name="Path 2" d="M7.918,67.047A11.891,11.891,0,0,0,10.8,58.115c-.259-3.754-1.848-7.148-3.388-10.522-2.7-5.916-4.165-12.313-3.291-18.832a23.474,23.474,0,0,1,9.82-16.315A37.211,37.211,0,0,1,32.884,5.731,33.2,33.2,0,0,1,51.893,9.957,29.439,29.439,0,0,1,63.6,23.222,26.955,26.955,0,0,1,65.53,40.184,27.116,27.116,0,0,1,55.194,55.527a34.813,34.813,0,0,1-19.982,6.6A48.64,48.64,0,0,1,23.993,61a14.5,14.5,0,0,0-5.939-.264,34.682,34.682,0,0,0-5.564,2.008l-5.832,2.3a1.931,1.931,0,0,0-1.31,2.306,1.888,1.888,0,0,0,2.306,1.31l6.058-2.39c1.884-.743,3.932-1.848,5.977-2.008,1.992-.156,4,.54,5.945.876a51.391,51.391,0,0,0,6.022.692,40.336,40.336,0,0,0,22.431-5.086,32.5,32.5,0,0,0,13.548-15.02A29.243,29.243,0,0,0,68.8,26.735,33.719,33.719,0,0,0,58.765,10.36,34.428,34.428,0,0,0,39.944,2.174,40.809,40.809,0,0,0,18.939,5.357C12.3,8.223,6.118,12.939,2.968,19.595A32.56,32.56,0,0,0,.827,39.715,45.083,45.083,0,0,0,4.355,49.889c1.493,3.262,3.1,6.763,2.662,10.446a7.21,7.21,0,0,1-1.751,4.06c-1.622,1.781,1.022,4.441,2.652,2.652Z"/>
      <path id="Path_3" data-name="Path 3" d="M16.3,30.13q12.338-1.057,24.723-1.27c2.41-.042,2.418-3.792,0-3.75Q28.64,25.323,16.3,26.38c-2.386.2-2.408,3.956,0,3.75Z"/>
      <path id="Path_4" data-name="Path 4" d="M16.168,43.139l37.507-2.206c2.4-.141,2.415-3.892,0-3.75L16.168,39.389c-2.4.141-2.415,3.892,0,3.75Z"/>
    </g>
  </g>
</svg>
