<svg xmlns="http://www.w3.org/2000/svg" width="69.771" height="65.301" viewBox="0 0 69.771 65.301">
  <g id="Group_5" data-name="Group 5" transform="translate(-0.107 -3.633)">
    <g id="Group_4" data-name="Group 4">
      <g id="Group_1" data-name="Group 1">
        <path id="Path_1" data-name="Path 1" d="M23.354,17.256a7.793,7.793,0,0,0-7.143,4.412,7.6,7.6,0,0,0,1.4,8.252,7.411,7.411,0,0,0,8.2,1.544,5.088,5.088,0,0,0,1.819-1.343,7.193,7.193,0,0,0,1.215-4.429,10.643,10.643,0,0,0-1.016-5.638c-.962-1.679-3-2.881-4.849-2.314" fill="#00a439"/>
        <path id="Path_2" data-name="Path 2" d="M23.354,15.381a9.676,9.676,0,0,0-8.717,5.247A9.561,9.561,0,0,0,16,30.94a9.258,9.258,0,0,0,9.727,2.565A6.908,6.908,0,0,0,30.1,29.486a13.5,13.5,0,0,0,.607-5.5,9.5,9.5,0,0,0-2.309-6.26,6.1,6.1,0,0,0-5.919-1.795c-2.326.633-1.339,4.252,1,3.616-.042.012.57-.1.35-.083-.193.015.216.011.253.012.325.012-.353-.125.2.03.131.036.261.068.39.113-.2-.071.1.043.119.054.124.062.244.133.362.2a3.312,3.312,0,0,1,.668.577,5.716,5.716,0,0,1,1.115,3.166,13.57,13.57,0,0,1-.178,4.027,3.119,3.119,0,0,1-.529,1.232,2.536,2.536,0,0,1-.565.523c-.123.086-.261.163-.391.236.009-.006-.543.261-.34.177a5.824,5.824,0,0,1-.785.25,3.342,3.342,0,0,1-.719.128c-.275.011-.548.024-.824.013a2.959,2.959,0,0,1-.73-.081,5.618,5.618,0,0,1-2.862-1.46,5.689,5.689,0,0,1-1.221-5.927,5.926,5.926,0,0,1,5.567-3.609c2.414.034,2.415-3.716,0-3.75Z"/>
      </g>
      <g id="Group_2" data-name="Group 2">
        <path id="Path_3" data-name="Path 3" d="M39.334,39.45a7.793,7.793,0,0,0-7.143,4.412,7.6,7.6,0,0,0,1.4,8.252,7.412,7.412,0,0,0,8.2,1.544A5.073,5.073,0,0,0,43.6,52.315a7.192,7.192,0,0,0,1.216-4.429A10.634,10.634,0,0,0,43.8,42.248c-.961-1.679-3-2.881-4.848-2.314" fill="#00a439"/>
        <path id="Path_4" data-name="Path 4" d="M39.334,37.575a9.677,9.677,0,0,0-8.718,5.247,9.559,9.559,0,0,0,1.368,10.312A9.257,9.257,0,0,0,41.711,55.7a6.908,6.908,0,0,0,4.367-4.019,13.534,13.534,0,0,0,.607-5.5,9.5,9.5,0,0,0-2.31-6.26,6.093,6.093,0,0,0-5.918-1.8c-2.326.633-1.339,4.252,1,3.616-.042.012.57-.1.35-.083-.193.015.216.011.253.012.324.012-.354-.125.2.03.132.036.261.068.391.113-.2-.071.1.043.119.054.124.062.243.133.362.205a3.338,3.338,0,0,1,.667.577,5.716,5.716,0,0,1,1.116,3.166,13.568,13.568,0,0,1-.179,4.027,3.118,3.118,0,0,1-.528,1.232,2.557,2.557,0,0,1-.565.523,4.575,4.575,0,0,1-.392.236c.01-.006-.543.261-.34.177a5.856,5.856,0,0,1-.784.25,3.342,3.342,0,0,1-.719.128c-.275.011-.548.024-.824.014a2.959,2.959,0,0,1-.73-.081,5.405,5.405,0,0,1-4.083-7.387,5.925,5.925,0,0,1,5.567-3.61c2.414.034,2.415-3.716,0-3.75Z"/>
      </g>
      <g id="Group_3" data-name="Group 3">
        <path id="Path_5" data-name="Path 5" d="M58.865,7.491A7.791,7.791,0,0,0,51.722,11.9a7.6,7.6,0,0,0,1.4,8.251,7.412,7.412,0,0,0,8.2,1.545,5.076,5.076,0,0,0,1.818-1.344,7.2,7.2,0,0,0,1.216-4.428,10.653,10.653,0,0,0-1.017-5.638c-.961-1.68-3-2.882-4.848-2.314" fill="#00a439"/>
        <path id="Path_6" data-name="Path 6" d="M58.865,5.616a9.676,9.676,0,0,0-8.718,5.247,9.559,9.559,0,0,0,1.368,10.312,9.257,9.257,0,0,0,9.727,2.564,6.912,6.912,0,0,0,4.367-4.018,13.517,13.517,0,0,0,.606-5.5,9.5,9.5,0,0,0-2.309-6.26,6.092,6.092,0,0,0-5.919-1.8c-2.325.633-1.338,4.252,1,3.616-.041.011.571-.1.351-.083-.194.015.216.011.253.012.324.012-.354-.126.2.029.132.037.261.069.391.114-.205-.071.1.043.119.053.124.062.243.133.361.2a3.29,3.29,0,0,1,.668.578,5.714,5.714,0,0,1,1.116,3.166,13.561,13.561,0,0,1-.179,4.026,3.12,3.12,0,0,1-.528,1.232,2.533,2.533,0,0,1-.565.523,4.242,4.242,0,0,1-.392.236c.01-.005-.543.261-.34.178a5.852,5.852,0,0,1-.784.249,3.288,3.288,0,0,1-.719.128c-.276.012-.549.025-.824.014a2.975,2.975,0,0,1-.731-.081A5.62,5.62,0,0,1,54.518,18.9,5.689,5.689,0,0,1,53.3,12.975a5.926,5.926,0,0,1,5.568-3.609c2.414.034,2.415-3.716,0-3.75Z"/>
      </g>
      <path id="Path_7" data-name="Path 7" d="M6.542,6.344,6.106,51.722l-.05,5.236c-.015,1.558-.144,3.264,1.118,4.409,1.131,1.026,2.7.95,4.125.952l5.994.006,22.476.022,25.474.025a1.876,1.876,0,0,0,0-3.75L22.287,58.58,11.8,58.569c-.734,0-1.47-.014-2.2-.047L9.538,58.5q.348.469.257.049c.135-.155.006-1.134.008-1.342l.053-5.485.2-21.193.232-24.185c.024-2.414-3.726-2.416-3.75,0Z"/>
      <path id="Path_8" data-name="Path 8" d="M3.619,14.3,9.454,6.457,6.889,7.13a15.1,15.1,0,0,1,3.3,2.674,15.036,15.036,0,0,1,2.5,3.435,1.875,1.875,0,0,0,3.238-1.893A20.374,20.374,0,0,0,8.782,3.892a1.925,1.925,0,0,0-2.566.673L.381,12.4a1.887,1.887,0,0,0,.673,2.565A1.92,1.92,0,0,0,3.619,14.3Z"/>
      <path id="Path_9" data-name="Path 9" d="M59.213,56.389l7.841,5.836-.673-2.565a16.293,16.293,0,0,1-6.109,5.793,1.875,1.875,0,0,0,1.893,3.238,20.367,20.367,0,0,0,7.454-7.139,1.924,1.924,0,0,0-.673-2.565l-7.84-5.836a1.888,1.888,0,0,0-2.565.673,1.92,1.92,0,0,0,.672,2.565Z"/>
      <path id="Path_10" data-name="Path 10" d="M44.352,42.063a158.235,158.235,0,0,1,11.3-20.181c1.358-2-1.889-3.881-3.238-1.893a158.235,158.235,0,0,0-11.3,20.181,1.924,1.924,0,0,0,.672,2.565,1.893,1.893,0,0,0,2.566-.672Z"/>
      <path id="Path_11" data-name="Path 11" d="M24.875,32.027q3.606,5.3,7.354,10.5a1.92,1.92,0,0,0,2.566.672,1.9,1.9,0,0,0,.673-2.565q-3.748-5.2-7.355-10.5a1.875,1.875,0,0,0-3.238,1.893Z"/>
      <path id="Path_12" data-name="Path 12" d="M9.953,49.015q4.989-8.605,10.564-16.849a1.876,1.876,0,1,0-3.239-1.893Q11.705,38.512,6.715,47.122C5.5,49.214,8.742,51.1,9.953,49.015Z"/>
    </g>
  </g>
</svg>
