<svg xmlns="http://www.w3.org/2000/svg" width="100.531" height="110.666" viewBox="0 0 100.531 110.666">
  <g id="Group_5" data-name="Group 5" transform="translate(-7.152 -2.276)">
    <g id="Group_4" data-name="Group 4">
      <g id="Group_1" data-name="Group 1">
        <path id="Path_1" data-name="Path 1" d="M32.184,11.193c-2.7-2.83-7.864-2.493-10.4.487a8.277,8.277,0,0,0,.507,10.7,6.584,6.584,0,0,0,6.352,2.03A6.971,6.971,0,0,0,32,22.017a10.864,10.864,0,0,0,.4-12.826" fill="#fff"/>
        <path id="Path_2" data-name="Path 2" d="M33.267,10.109a8.733,8.733,0,0,0-14.71,7.185,9.5,9.5,0,0,0,6.491,8.523c4.18,1.265,7.99-1.575,9.655-5.289a12.477,12.477,0,0,0-.984-12.11,1.574,1.574,0,0,0-2.1-.55,1.547,1.547,0,0,0-.549,2.1,9.392,9.392,0,0,1,1.405,7.71c-.644,2.529-2.613,5.534-5.545,5.392-5.362-.259-7.313-8.552-2.883-11.349a5.729,5.729,0,0,1,7.051.558c1.387,1.4,3.554-.762,2.166-2.167Z"/>
      </g>
      <path id="Path_3" data-name="Path 3" d="M19.906,15.106C15.351,12.9,10.14,15.911,8.272,20.3c-2.465,5.791-.249,12.749.829,18.623,1.812,9.882,3.48,21.185,10.993,28.57,4.1,4.035,9.625,6.038,15.194,7.064,6,1.107,12.34,1.013,18.041-1.36C63.436,68.988,69.61,58.9,72.094,48.612A87.53,87.53,0,0,0,74.037,27.2c-.033-3.161-.317-6.587-2.237-9.23a7.88,7.88,0,0,0-7.572-3.433,1.544,1.544,0,0,0-1.07,1.885,1.571,1.571,0,0,0,1.885,1.07c2.2-.312,4.146,1.627,4.963,3.476,1.069,2.421.978,5.2.968,7.8a88.614,88.614,0,0,1-1.345,16.793C67.8,54.826,63.252,64.175,54.8,69.069A25.7,25.7,0,0,1,39.936,72.1c-5.113-.373-10.658-1.688-14.97-4.556C17.535,62.6,15,53.113,13.327,44.873c-.589-2.9-1.1-5.817-1.631-8.728a63.189,63.189,0,0,1-1.424-9.474c-.076-2.613.349-5.381,2.254-7.314,1.471-1.493,3.791-2.6,5.833-1.6,1.767.856,3.323-1.786,1.547-2.646Z"/>
      <path id="Path_4" data-name="Path 4" d="M18.926,50.939a25.313,25.313,0,0,0,5.417,9.5A20.948,20.948,0,0,0,34.9,65.919a27.5,27.5,0,0,0,12.706.218,20.967,20.967,0,0,0,9.736-5.572A28.954,28.954,0,0,0,63.87,50.142c.7-1.848-2.265-2.646-2.955-.815-2.178,5.776-6.42,11.284-12.427,13.358a22.2,22.2,0,0,1-11.246.6c-3.41-.63-6.963-1.686-9.644-3.983a20.62,20.62,0,0,1-5.717-9.178c-.641-1.852-3.6-1.056-2.955.815Z"/>
      <g id="Group_2" data-name="Group 2">
        <path id="Path_5" data-name="Path 5" d="M106.134,6.9c-2.429-3.335-7.557-3.973-11.14-1.928S89.38,11.18,89.151,15.3c-.275,4.943,2.9,10.678,7.855,10.669,4.259-.008,7.376-4.222,8.391-8.358,1.178-4.8.184-10.536-3.805-13.46" fill="#fff"/>
        <path id="Path_6" data-name="Path 6" d="M107.457,6.122A10.35,10.35,0,0,0,94.22,3.645c-4.6,2.61-7.119,8.473-6.533,13.64.523,4.614,3.484,9.609,8.5,10.164,5.4.6,9.346-4.425,10.616-9.135,1.487-5.516.275-11.914-4.433-15.486a1.543,1.543,0,0,0-2.1.549,1.569,1.569,0,0,0,.55,2.1c3.049,2.314,3.878,6.632,3.392,10.234-.467,3.464-2.562,8.031-6.427,8.67-3.593.594-6.017-2.882-6.795-5.942A11.63,11.63,0,0,1,94.023,7.605c2.8-2.733,8.189-3.35,10.788.064a1.586,1.586,0,0,0,2.1.55,1.543,1.543,0,0,0,.55-2.1Z"/>
      </g>
      <path id="Path_7" data-name="Path 7" d="M40.2,75.163c-.01,10.226,2.478,21.017,9.554,28.743,6.607,7.213,16.973,11.111,26.505,7.9,9.513-3.206,16.72-11.692,19.572-21.165,3.317-11.025-.372-21.88-3.491-32.468-2.905-9.862-5.457-22.513,1.921-31.134,1.276-1.49-.882-3.668-2.167-2.166C86,32,85.645,41.765,87.275,50.592c1.944,10.53,7.111,20.494,6.864,31.392a30.182,30.182,0,0,1-12.83,23.884,21.512,21.512,0,0,1-13.653,3.994A23.3,23.3,0,0,1,55.2,104.789C46.274,97.78,43.255,86.05,43.266,75.163a1.533,1.533,0,0,0-3.064,0Z"/>
      <g id="Group_3" data-name="Group 3">
        <path id="Path_8" data-name="Path 8" d="M62.948,11.193c-2.7-2.83-7.864-2.493-10.4.487a8.277,8.277,0,0,0,.507,10.7,6.584,6.584,0,0,0,6.352,2.03,6.971,6.971,0,0,0,3.355-2.389,10.863,10.863,0,0,0,.4-12.826" fill="#fff"/>
        <path id="Path_9" data-name="Path 9" d="M64.031,10.109a8.733,8.733,0,0,0-14.71,7.185,9.5,9.5,0,0,0,6.491,8.523c4.18,1.265,7.99-1.575,9.654-5.289a12.472,12.472,0,0,0-.984-12.11,1.573,1.573,0,0,0-2.1-.55,1.545,1.545,0,0,0-.549,2.1,9.392,9.392,0,0,1,1.4,7.71C62.6,20.2,60.628,23.209,57.7,23.067c-5.361-.259-7.313-8.552-2.883-11.349a5.728,5.728,0,0,1,7.051.558c1.388,1.4,3.555-.762,2.167-2.167Z"/>
      </g>
    </g>
  </g>
</svg>
