<svg xmlns="http://www.w3.org/2000/svg" width="63.169" height="69.713" viewBox="0 0 63.169 69.713">
  <g id="Group_3" data-name="Group 3" transform="translate(-3.668 0.121)">
    <g id="Group_2" data-name="Group 2">
      <path id="Path_1" data-name="Path 1" d="M35.312,60.481c8.186.271,17.64.523,26.266-1.113,1.523-.289,3.319-1.051,3.447-2.6.124-1.477-1.363-2.509-2.605-3.319a15.662,15.662,0,0,1-3.535-3.013,14.836,14.836,0,0,1-2.619-5.034c-1.6-5.019-1.393-10.4-1.837-15.655s-1.744-10.792-5.579-14.4a21.087,21.087,0,0,0-7.7-4.228c-1.647-.571-4.167-1.528-5.881-1.528-1.737,0-4.187.957-5.834,1.528a21.083,21.083,0,0,0-7.7,4.228c-3.835,3.612-5.135,9.154-5.579,14.4s-.237,10.636-1.838,15.655a14.816,14.816,0,0,1-2.618,5.034,15.684,15.684,0,0,1-3.535,3.013c-1.242.81-2.729,1.842-2.606,3.319.129,1.545,1.925,2.307,3.448,2.6C17.624,61,26.42,60.916,35.264,60.481" fill="none" stroke="#000" stroke-miterlimit="10" stroke-width="0.75"/>
      <path id="Path_2" data-name="Path 2" d="M34.86,8.783c-.251-1.272-.526-2.543-.752-3.82a1.819,1.819,0,0,0-.035-.211c.009,0,.036.37.019.147-.01-.142-.026-.282-.03-.424a3.09,3.09,0,0,0,.014-.469c0,.006-.081.4-.025.211.022-.074.032-.152.053-.226a.707.707,0,0,0,.052-.166c0,.01-.177.345-.078.182.042-.069.249-.37.063-.15s0,.029.04-.027c.1-.142-.13.1-.161.109.067-.023.462-.236.171-.124s.081-.02.152-.039c.131-.037.263-.062.4-.089.344-.069-.384.034-.033.006.136-.011.272-.024.408-.034.251-.017.5-.033.753-.031a1.846,1.846,0,0,0,.347.016s-.409-.079-.215-.03c.089.022.182.045.273.063.306.058-.308-.179-.043-.018s-.235-.262-.029-.018c0,0-.212-.335-.12-.163.034.064.072.132.112.192.1.152-.077-.178-.077-.191a1.046,1.046,0,0,0,.068.217c.031.111.052.224.075.337.069.343-.032-.387-.009-.04.021.323.045.645.05.969q.01.535-.02,1.07c-.01.166-.022.333-.037.5-.006.072-.013.143-.021.214s-.015.141-.024.212l.03-.215c-.057.044-.064.413-.078.493-.029.165-.06.328-.1.491-.078.373-.174.741-.28,1.107a1.9,1.9,0,0,0,1.31,2.306,1.919,1.919,0,0,0,2.306-1.309l.086-.254a1.89,1.89,0,0,0-1.31-2.307,1.918,1.918,0,0,0-2.306,1.31l-.086.254,3.616,1a16.524,16.524,0,0,0,.659-4.867c-.029-1.7-.305-3.672-1.976-4.567a4.887,4.887,0,0,0-2.5-.512A10.059,10.059,0,0,0,33.4.144a4.19,4.19,0,0,0-3.09,4.119,13.558,13.558,0,0,0,.418,2.91l.515,2.607a1.887,1.887,0,0,0,2.307,1.31A1.923,1.923,0,0,0,34.86,8.783Z"/>
      <path id="Path_3" data-name="Path 3" d="M29.019,59.891a6.177,6.177,0,0,0-.819,5.475,6.006,6.006,0,0,0,4.225,3.753c3.452.983,8.008.621,9.921-2.9a5.423,5.423,0,0,0-.528-6.043,1.878,1.878,0,0,0-2.652,0,1.932,1.932,0,0,0,0,2.651c-.341-.439.171.358.015.06-.106-.2.082.3.1.364.112.366.021-.294.013.122,0,.159-.005.313-.013.472.022-.434-.014.014-.043.124s-.059.2-.1.3q.123-.269.035-.085c-.1.162-.181.327-.284.485.172-.265-.027.031-.116.125-.113.118-.233.224-.354.334.283-.257-.067.045-.145.095a5.724,5.724,0,0,1-.5.283c-.073.037-.148.072-.223.1q.292-.125-.012-.009a7.821,7.821,0,0,1-1.033.253c.292-.039-.257.009-.312.012-.239.01-.477.007-.715,0a8.019,8.019,0,0,1-2.151-.391c-.173-.051-.346-.106-.514-.171.319.123-.216-.117-.282-.155s-.154-.092-.228-.143q.219.181-.021-.025a4.171,4.171,0,0,1-.34-.363c.235.31-.061-.137-.079-.17-.063-.112-.178-.463-.084-.16-.058-.187-.1-.376-.15-.564-.026-.137-.022-.109.009.086-.01-.123-.014-.247-.012-.371,0-.082.075-.588.006-.24.037-.185.089-.359.136-.541.1-.373-.078.071.094-.241a6.882,6.882,0,0,1,.387-.637,1.884,1.884,0,0,0-.673-2.565,1.922,1.922,0,0,0-2.565.673Z"/>
      <g id="Group_1" data-name="Group 1">
        <path id="Path_4" data-name="Path 4" d="M35.312,62.356a151.221,151.221,0,0,0,20.824-.324c1.687-.178,3.373-.4,5.045-.694a8.894,8.894,0,0,0,3.96-1.449c2.535-1.906,2.038-5.065-.233-6.944-1.131-.936-2.436-1.62-3.524-2.612A11.345,11.345,0,0,1,58.6,46.371a30.362,30.362,0,0,1-1.912-10.1c-.388-6.248-.4-12.807-3.559-18.423-3.1-5.5-9.1-8.117-14.961-9.671-3.055-.811-5.68-.119-8.589.905a27.225,27.225,0,0,0-8.39,4.251c-4.77,3.874-6.344,10.185-6.888,16.034-.328,3.531-.3,7.09-.744,10.611-.391,3.1-1.139,6.484-3.094,9a16.531,16.531,0,0,1-3.842,3.243,6.049,6.049,0,0,0-2.885,3.716C3.061,59.778,7.29,61,10.179,61.472c8.3,1.362,16.71,1.29,25.085.884,2.4-.116,2.416-3.867,0-3.75a133.893,133.893,0,0,1-20.008-.212q-2.412-.245-4.8-.659c-.619-.109-2.74-.256-3-1.033-.155-.471.907-1.136,1.352-1.439A22.315,22.315,0,0,0,12.451,52.4c4.3-4.467,4.91-11.177,5.236-17.057.3-5.432.35-11.292,3.28-16.089a13.612,13.612,0,0,1,5.883-5.078,28.163,28.163,0,0,1,7.685-2.647c2.265-.338,4.827.918,6.908,1.687A16.8,16.8,0,0,1,48.326,17.5c3.592,4.014,4.13,9.916,4.415,15.044.332,5.965.335,12.708,3.794,17.868A15.051,15.051,0,0,0,59.9,53.946c.6.467,1.233.89,1.865,1.317.363.245,1.227.735,1.354,1.212.322,1.207-6.07,1.711-6.981,1.807a151.221,151.221,0,0,1-20.824.324c-2.414-.079-2.411,3.671,0,3.75Z"/>
      </g>
    </g>
  </g>
</svg>
