<svg xmlns="http://www.w3.org/2000/svg" width="66.22" height="69.71" viewBox="0 0 66.22 69.71">
  <g id="Group_3" data-name="Group 3" transform="translate(-1.754 -0.161)">
    <g id="Group_1" data-name="Group 1">
      <path id="Path_1" data-name="Path 1" d="M31.257,2.584C22.1.324,11.756,4.8,6.95,12.921a23.8,23.8,0,0,0,2.14,26.49,24.926,24.926,0,0,0,25.552,7.856c10.2-2.915,17.949-13.133,17.561-23.73S42.987,3.157,32.434,2.12" fill="#00a13a"/>
    </g>
    <g id="Group_2" data-name="Group 2">
      <path id="Path_2" data-name="Path 2" d="M31.483.776A24.7,24.7,0,0,0,4.872,12.3a25.68,25.68,0,0,0,3.84,29.81A26.768,26.768,0,0,0,38,47.928c9.36-4.076,16.185-14.075,15.8-24.391A24.833,24.833,0,0,0,32.162.245,1.887,1.887,0,0,0,30.287,2.12a1.918,1.918,0,0,0,1.875,1.875c8.685.935,15.863,8.329,17.564,16.722C51.485,29.4,46.593,38.478,39.262,43.04c-7.76,4.83-17.913,4.072-25.24-1.25C6.544,36.359,3.714,26.112,6.638,17.459,9.866,7.907,20.725,2.078,30.486,4.392c2.347.556,3.348-3.059,1-3.616Z"/>
      <path id="Path_3" data-name="Path 3" d="M44.4,43.659,64.789,69.326a1.889,1.889,0,0,0,2.652,0,1.92,1.92,0,0,0,0-2.652L47.055,41.007a1.889,1.889,0,0,0-2.652,0,1.919,1.919,0,0,0,0,2.652Z"/>
      <path id="Path_4" data-name="Path 4" d="M14.675,14.472a18.354,18.354,0,0,0,1.634,21.28,1.891,1.891,0,0,0,2.652,0,1.915,1.915,0,0,0,0-2.652,14.531,14.531,0,0,1-1.048-16.735c1.287-2.049-1.956-3.933-3.238-1.893Z"/>
    </g>
  </g>
</svg>
