<svg xmlns="http://www.w3.org/2000/svg" width="57.215" height="41.802" viewBox="0 0 57.215 41.802">
  <g id="Group_1" data-name="Group 1" transform="translate(-0.189 -0.151)">
    <path id="Path_1" data-name="Path 1" d="M.215,6.187q6.563.135,13.125-.14" fill="none" stroke="#272727" stroke-linecap="round" stroke-miterlimit="10" stroke-width="2.5"/>
    <path id="Path_2" data-name="Path 2" d="M6.925.256a78.594,78.594,0,0,1,0,13.126" fill="none" stroke="#272727" stroke-linecap="round" stroke-miterlimit="10" stroke-width="2.5"/>
    <path id="Path_3" data-name="Path 3" d="M6.605,20.962,6.64,37.069A4.017,4.017,0,0,0,7.3,39.764a4.023,4.023,0,0,0,3.1.916q22.878.155,45.746-.737.1-17.925-1.293-35.817A195.051,195.051,0,0,0,22.077,5.513" fill="none" stroke="#272727" stroke-linecap="round" stroke-linejoin="round" stroke-miterlimit="10" stroke-width="2.5"/>
    <path id="Path_4" data-name="Path 4" d="M13.369,35.6l7.7-11.45a1,1,0,0,1,.566-.5,1,1,0,0,1,.768.314,41.924,41.924,0,0,1,4.257,3.979c.334.358.815.757,1.254.538a1.133,1.133,0,0,0,.347-.319l10.193-12.4A91.753,91.753,0,0,1,50.472,34.812" fill="none" stroke="#272727" stroke-linecap="round" stroke-linejoin="round" stroke-miterlimit="10" stroke-width="2.5"/>
    <path id="Path_5" data-name="Path 5" d="M24.516,13.416a2.061,2.061,0,0,0-2.579-.408,3.627,3.627,0,0,0-1.843,1.76,2.481,2.481,0,0,0,2.051,3.594,3.088,3.088,0,0,0,2.759-5" fill="none" stroke="#272727" stroke-linecap="round" stroke-linejoin="round" stroke-miterlimit="10" stroke-width="2.5"/>
  </g>
</svg>
