<svg xmlns="http://www.w3.org/2000/svg" width="28.635" height="62.676" viewBox="0 0 28.635 62.676">
  <g id="Group_1" data-name="Group 1" transform="translate(0.642 2.426)">
    <path id="Path_1" data-name="Path 1" d="M4.708,58.695a5.243,5.243,0,0,0,2.013.3c2.4-.133,4.5-1.829,6.924-1.829" fill="none" stroke="#333" stroke-linecap="round" stroke-linejoin="round" stroke-miterlimit="10" stroke-width="2.5"/>
    <path id="Path_2" data-name="Path 2" d="M13.655,21.863c-1.474,0-2.85-1.163-4.23-1.736a11.311,11.311,0,0,0-9.289.521" fill="none" stroke="#333" stroke-linecap="round" stroke-linejoin="round" stroke-miterlimit="10" stroke-width="2.5"/>
    <path id="Path_3" data-name="Path 3" d="M22.629,58.724a5.231,5.231,0,0,1-1.927.269c-2.4-.133-4.636-1.824-7.047-1.824" fill="none" stroke="#333" stroke-linecap="round" stroke-linejoin="round" stroke-miterlimit="10" stroke-width="2.5"/>
    <path id="Path_4" data-name="Path 4" d="M13.655,21.863c1.473,0,2.963-1.163,4.343-1.736a11.3,11.3,0,0,1,9.206.479" fill="none" stroke="#333" stroke-linecap="round" stroke-linejoin="round" stroke-miterlimit="10" stroke-width="2.5"/>
    <path id="Path_5" data-name="Path 5" d="M13.639,21.644a13.674,13.674,0,0,1,3.042-9.657,22.274,22.274,0,0,1,8.2-6.207" fill="none" stroke="#333" stroke-linecap="round" stroke-linejoin="round" stroke-miterlimit="10" stroke-width="2.5"/>
    <path id="Path_6" data-name="Path 6" d="M15.538,12.9A6.25,6.25,0,0,0,13.8,5.99a14.764,14.764,0,0,0-3.641-1.672,15.959,15.959,0,0,1-5.7-3.9A16.765,16.765,0,0,0,4.975,7.3a9.647,9.647,0,0,0,4.091,5.428A6.816,6.816,0,0,0,15.7,13" fill="none" stroke="#333" stroke-linecap="round" stroke-linejoin="round" stroke-miterlimit="10" stroke-width="2.5"/>
    <path id="Path_7" data-name="Path 7" d="M27.2,20.6A27.3,27.3,0,0,0,17.625,40.86a33.263,33.263,0,0,0,5,17.865" fill="none" stroke="#333" stroke-linecap="round" stroke-linejoin="round" stroke-miterlimit="10" stroke-width="2.5"/>
    <path id="Path_8" data-name="Path 8" d="M.152,20.628A27.31,27.31,0,0,1,9.7,40.86,33.261,33.261,0,0,1,4.71,58.7" fill="none" stroke="#333" stroke-linecap="round" stroke-linejoin="round" stroke-miterlimit="10" stroke-width="2.5"/>
  </g>
</svg>
