<svg xmlns="http://www.w3.org/2000/svg" width="160" height="160" viewBox="0 0 160 160">
  <g id="Group_201" data-name="Group 201" transform="translate(17600 6436)">
    <circle id="Ellipse_121" data-name="Ellipse 121" cx="80" cy="80" r="80" transform="translate(-17600 -6436)"/>
    <path id="path4" d="M397.22,98.62a35.871,35.871,0,0,1-3.6,6.48,32.619,32.619,0,0,1-4.64,5.61,9,9,0,0,1-6,2.63,15,15,0,0,1-5.51-1.32,15.77,15.77,0,0,0-5.93-1.31,16.25,16.25,0,0,0-6.1,1.31,16.61,16.61,0,0,1-5.27,1.39,8.56,8.56,0,0,1-6.1-2.7,35,35,0,0,1-4.85-5.81,40.188,40.188,0,0,1-5.13-10.19A37.21,37.21,0,0,1,342,82.56,22.24,22.24,0,0,1,344.88,71,17.05,17.05,0,0,1,351,64.78a16.41,16.41,0,0,1,8.25-2.33,19.31,19.31,0,0,1,6.38,1.49,20.69,20.69,0,0,0,5.06,1.48,30,30,0,0,0,5.61-1.75,18.54,18.54,0,0,1,7.63-1.35q8.46.68,12.69,6.68-7.56,4.57-7.49,12.82a14.18,14.18,0,0,0,4.65,10.66,15.21,15.21,0,0,0,4.64,3c-.38,1.08-.77,2.11-1.19,3.1ZM384.3,47.75a14.32,14.32,0,0,1-3.67,9.38c-2.94,3.44-6.5,5.43-10.37,5.11a10.136,10.136,0,0,1-.08-1.26,14.74,14.74,0,0,1,3.89-9.48,14.9,14.9,0,0,1,4.74-3.5,14,14,0,0,1,5.42-1.54c0,.45.07.9.07,1.34Z" transform="translate(-17891 -6437)" fill="#fff"/>
  </g>
</svg>
