<svg xmlns="http://www.w3.org/2000/svg" width="75.989" height="80" viewBox="0 0 75.989 80">
  <g id="Group_2" data-name="Group 2" transform="translate(-1.926 0)">
    <g id="Group_1" data-name="Group 1">
      <path id="Path_1" data-name="Path 1" d="M32.842,24.638l5.549-.236c.925-.039,1.85-.088,2.775-.118a2.37,2.37,0,0,1,1.723.281c1,.887.887,2.79.74,3.97a54.315,54.315,0,0,1-1.187,5.443l-5.29,22.811,2.229-1.266c-.623-.165-.987-1.725-1.2-2.259q-.7-1.779-1.335-3.586-1.3-3.719-2.277-7.539A91.593,91.593,0,0,1,32,26.878c-.19-2.308-3.816-2.328-3.624,0a97.169,97.169,0,0,0,3.041,17.53q1.153,4.236,2.7,8.35c.856,2.277,1.615,5.547,4.3,6.26a1.834,1.834,0,0,0,2.229-1.266c2.015-8.687,4.064-17.368,6.045-26.063.754-3.311,1.382-7.9-1.847-10.187-1.618-1.144-3.664-.842-5.528-.763l-6.474.275c-2.323.1-2.336,3.723,0,3.624Z" fill="#333"/>
      <path id="Path_2" data-name="Path 2" d="M39.523,62.1c-2.348-.1-4.179,1.965-4.649,4.121a8.1,8.1,0,0,0,1.77,6.832,5.116,5.116,0,0,0,2.878,1.773,4.172,4.172,0,0,0,3.658-1.079,7.6,7.6,0,0,0,1.923-6.13,6.642,6.642,0,0,0-4.608-6,1.813,1.813,0,1,0-.963,3.495c.093.025.183.054.276.082.038.011.253.107.049.014s.228.13.292.17c.082.05.158.108.239.159-.022-.014-.226-.2-.085-.062s.284.258.415.4c.037.042.237.278.09.1s.012.02.031.049c.092.143.184.284.265.433.064.119.194.485.1.18.067.213.144.421.2.64.027.108.046.218.071.327.017.071.036.349.008.016.014.168.029.335.035.5.007.225,0,.451-.009.675-.005.085-.012.169-.02.253s-.075.448-.008.105a8.615,8.615,0,0,1-.231.99c-.025.076-.215.509-.1.3s0,0-.024.034c-.057.1-.107.2-.165.3-.035.059-.073.115-.109.172-.2.324.027-.06.044-.046s-.311.318-.317.326c-.137.172.12-.111.115-.085s-.178.108-.217.133c-.071.046-.214.054-.015.014.319-.064-.148.028-.153.024.014.01.456-.045.061-.019-.036,0-.29,0-.045.012s-.04-.015-.11-.034-.137-.044-.206-.065c.337.1-.028-.029-.156-.109-.047-.029-.3-.212-.121-.073s-.076-.073-.1-.1c-.129-.119-.247-.247-.365-.378-.22-.245-.038-.052,0,.005-.046-.067-.093-.133-.137-.2q-.157-.237-.291-.489c-.051-.1-.1-.192-.145-.29-.07-.144-.061-.184-.007-.016a10.881,10.881,0,0,1-.306-1.094c-.073-.348-.014-.077-.006,0-.011-.108-.021-.215-.027-.324a6.11,6.11,0,0,1,0-.649c0-.081.015-.163.017-.243.006-.268-.082.351,0,0,.044-.176.083-.352.14-.524a1.188,1.188,0,0,1,.094-.257c-.043.022-.153.3-.013.06.092-.156.178-.312.277-.464.207-.316-.028.06-.04.052s.164-.177.178-.191.151-.166.191-.173c-.141.025-.256.176-.007.029a.789.789,0,0,1,.164-.09c-.032-.019-.4.117-.027.032a.78.78,0,0,1,.183-.041q-.379.045-.166.036a1.588,1.588,0,0,1,.195,0,1.827,1.827,0,0,0,1.812-1.812A1.851,1.851,0,0,0,39.523,62.1Z" fill="#333"/>
      <path id="Path_3" data-name="Path 3" d="M35.749.881Q23.515,22.2,12.446,44.15q-2.789,5.529-5.5,11.095-1.335,2.736-2.651,5.482a23.423,23.423,0,0,0-2.2,5.611,7.836,7.836,0,0,0,3.53,8.435c2.821,1.765,6.525,2.253,9.726,2.87,15.981,3.08,32.472,2.553,48.643,1.688,5.413-.29,11.194-2.02,13.231-7.594,2.714-7.422-3.21-14.887-6.884-20.8Q56.959,29.39,43.487,7.9q-1.651-2.634-3.3-5.267C38.946.663,35.809,2.48,37.054,4.463Q49.771,24.727,62.409,45.039q3.162,5.08,6.318,10.166c1.871,3.015,4,6.037,5.018,9.477.8,2.705.782,5.929-1.276,8.09a10.492,10.492,0,0,1-6.124,2.708,82.658,82.658,0,0,1-9.548.535c-3.85.151-7.7.27-11.554.305a163.719,163.719,0,0,1-22.564-1.143,102.276,102.276,0,0,1-11.357-2.123C9.155,72.519,6.255,71.8,5.643,69.29A7.789,7.789,0,0,1,6.549,64.4c.817-1.831,1.728-3.624,2.6-5.427q2.55-5.26,5.166-10.487Q25.943,25.253,38.878,2.71C40.041.684,36.911-1.143,35.749.881Z" fill="#333"/>
    </g>
  </g>
</svg>
