<svg xmlns="http://www.w3.org/2000/svg" width="60.288" height="38.809" viewBox="0 0 60.288 38.809">
  <path id="Path_1" data-name="Path 1" d="M26.637.313A90.449,90.449,0,0,0,4.174,14.9c-2.7,2.462-4.849,6.416-1.71,9.465a35.666,35.666,0,0,0,5.16,3.745q2.957,1.974,6.024,3.773A124.257,124.257,0,0,0,27.561,38.9c.831.357,2.1-.249,1.717-1.32l-4.722-13.2a7.827,7.827,0,0,1-.719-2.511c.007-1.007.977-1.011,1.763-1.063,2.325-.156,4.662-.21,6.99-.293q13.732-.49,27.477-.312a1.17,1.17,0,0,0,0-2.338q-15.489-.2-30.972.448c-1.865.078-4.392-.241-6.085.738-1.723,1-1.687,3-1.159,4.68C23.389,28.6,25.3,33.385,27.024,38.2l1.717-1.32A123.982,123.982,0,0,1,7.1,24.928C5.749,24,3.323,22.805,3.19,20.953c-.131-1.808,1.556-3.436,2.784-4.538A81.471,81.471,0,0,1,15.7,9.09,97.89,97.89,0,0,1,27.817,2.332c1.361-.639.175-2.655-1.18-2.019Z" transform="translate(-0.908 -0.19)" fill="#fff"/>
</svg>
