<svg id="Symbols" xmlns="http://www.w3.org/2000/svg" width="24" height="16" viewBox="0 0 24 16">
  <g id="header" transform="translate(-16 -66)">
    <g id="ic_back_grey">
      <g id="Group_363" data-name="Group 363" transform="translate(16 62)">
        <path id="Path_294" data-name="Path 294" d="M15.919,10.842a1.157,1.157,0,0,1,0,2.312H3.8l4.677,4.868a1.2,1.2,0,0,1,0,1.637,1.074,1.074,0,0,1-1.569,0L.324,12.82a1.2,1.2,0,0,1,0-1.637L6.9,4.337a1.089,1.089,0,0,1,1.576,0,1.2,1.2,0,0,1,0,1.638L3.8,10.842Zm6.969,0a1.157,1.157,0,0,1,0,2.312H20.342a1.157,1.157,0,0,1,0-2.312Z" fill="#c74852" fill-rule="evenodd"/>
      </g>
    </g>
  </g>
</svg>
