<svg id="Group_5" data-name="Group 5" xmlns="http://www.w3.org/2000/svg" xmlns:xlink="http://www.w3.org/1999/xlink" width="1125" height="381" viewBox="0 0 1125 381">
	<defs>
		<clipPath id="clip-path">
			<rect id="Rectangle_1" data-name="Rectangle 1" width="1125" height="381" fill="none"/>
		</clipPath>
		<filter id="Path_1" x="-3" y="-3" width="1143" height="366.451" filterUnits="userSpaceOnUse">
			<feOffset dx="6" dy="6" input="SourceAlpha"/>
			<feGaussianBlur stdDeviation="3" result="blur"/>
			<feFlood flood-color="#878787" flood-opacity="0.502"/>
			<feComposite operator="in" in2="blur"/>
			<feComposite in="SourceGraphic"/>
		</filter>
		<filter id="Path_2" x="-3" y="-3" width="1143" height="342.451" filterUnits="userSpaceOnUse">
			<feOffset dx="6" dy="6" input="SourceAlpha"/>
			<feGaussianBlur stdDeviation="3" result="blur-2"/>
			<feFlood flood-color="#878787" flood-opacity="0.502"/>
			<feComposite operator="in" in2="blur-2"/>
			<feComposite in="SourceGraphic"/>
		</filter>
		<filter id="Path_3" x="-3" y="-3" width="1143" height="318.451" filterUnits="userSpaceOnUse">
			<feOffset dx="6" dy="6" input="SourceAlpha"/>
			<feGaussianBlur stdDeviation="3" result="blur-3"/>
			<feFlood flood-color="#878787" flood-opacity="0.502"/>
			<feComposite operator="in" in2="blur-3"/>
			<feComposite in="SourceGraphic"/>
		</filter>
	</defs>
	<g id="Group_2" data-name="Group 2">
		<g id="Group_1" data-name="Group 1" clip-path="url(#clip-path)">
			<g transform="matrix(1, 0, 0, 1, 0, 0)" filter="url(#Path_1)">
				<path id="Path_1-2" data-name="Path 1" d="M1125,282.763a1389,1389,0,0,0-541.077,8.927c-71.873,15.577-142.576,36.9-215.282,47.955a776.385,776.385,0,0,1-197,4.631C109.7,337.816,43.068,319.828,0,277.678V0H1125Z" fill="#ccecda"/>
			</g>
			<g transform="matrix(1, 0, 0, 1, 0, 0)" filter="url(#Path_2)">
				<path id="Path_2-2" data-name="Path 2" d="M1125,258.763a1389,1389,0,0,0-541.077,8.927c-71.873,15.577-142.576,36.9-215.282,47.955a776.385,776.385,0,0,1-197,4.631C109.7,313.816,43.068,295.828,0,253.678V0H1125Z" fill="#66c791"/>
			</g>
			<g transform="matrix(1, 0, 0, 1, 0, 0)" filter="url(#Path_3)">
				<path id="Path_3-2" data-name="Path 3" d="M1125,234.763a1389,1389,0,0,0-541.077,8.927c-71.873,15.577-142.576,36.9-215.282,47.955a776.385,776.385,0,0,1-197,4.631C109.7,289.816,43.068,271.828,0,229.678V0H1125Z" fill="#00a147"/>
			</g>
		</g>
	</g>
</svg>
