<svg xmlns="http://www.w3.org/2000/svg" width="45.514" height="62.495" viewBox="0 0 45.514 62.495">
  <g id="Group_1" data-name="Group 1" transform="translate(1.257 2.731)">
    <path id="Path_1" data-name="Path 1" d="M21.443,21.491c-1.469,0-2.841-1.159-4.217-1.73a11.423,11.423,0,0,0-10.365,1.15A15.181,15.181,0,0,0,.728,29.572,22.81,22.81,0,0,0,.555,40.314,30.679,30.679,0,0,0,8.5,55.372c1.626,1.681,3.695,3.263,6.03,3.135,2.4-.132,4.489-1.823,6.9-1.823" fill="none" stroke="#333" stroke-linecap="round" stroke-linejoin="round" stroke-miterlimit="10" stroke-width="2.5"/>
    <path id="Path_2" data-name="Path 2" d="M21.443,21.491c1.469,0,2.955-1.159,4.331-1.73a11.423,11.423,0,0,1,10.365,1.15,15.181,15.181,0,0,1,6.133,8.661,22.81,22.81,0,0,1,.173,10.742A30.679,30.679,0,0,1,34.5,55.372c-1.626,1.681-3.695,3.263-6.03,3.135-2.4-.132-4.622-1.819-7.026-1.819" fill="none" stroke="#333" stroke-linecap="round" stroke-linejoin="round" stroke-miterlimit="10" stroke-width="2.5"/>
    <path id="Path_3" data-name="Path 3" d="M21.427,21.273a13.638,13.638,0,0,1,3.033-9.628,22.211,22.211,0,0,1,8.175-6.188" fill="none" stroke="#333" stroke-linecap="round" stroke-linejoin="round" stroke-miterlimit="10" stroke-width="2.5"/>
    <path id="Path_4" data-name="Path 4" d="M23.32,12.554a6.23,6.23,0,0,0-1.728-6.888A14.765,14.765,0,0,0,17.962,4,15.915,15.915,0,0,1,12.284.113a16.7,16.7,0,0,0,.507,6.859,9.615,9.615,0,0,0,4.078,5.411,6.8,6.8,0,0,0,6.613.271" fill="none" stroke="#333" stroke-linecap="round" stroke-linejoin="round" stroke-miterlimit="10" stroke-width="2.5"/>
  </g>
</svg>
