<svg xmlns="http://www.w3.org/2000/svg" width="49.082" height="80" viewBox="0 0 49.082 80">
  <g id="Group_1" data-name="Group 1" transform="translate(-15.727 0)">
    <path id="Path_1" data-name="Path 1" d="M39.728,1.49C29.848,10.933,21.566,23.01,17.66,36.2,14.03,48.454,15.09,63.02,24.49,72.52a25.455,25.455,0,0,0,16.049,7.423,21.041,21.041,0,0,0,15.973-5.729,27.108,27.108,0,0,0,7.85-14.968,36.526,36.526,0,0,0-2.377-19.421c-2.749-7.032-7.108-13-11.311-19.194C46.851,14.99,43.162,8.84,43.238,1.8,43.264-.6,39.527-.6,39.5,1.8c-.135,12.417,9.365,21.589,15.232,31.621,5.889,10.069,9.22,22.858,2.842,33.516A18.642,18.642,0,0,1,45.6,75.919a20.428,20.428,0,0,1-15.363-3.444C20.109,65.619,17.89,51.8,20.372,40.625a64.929,64.929,0,0,1,8.435-19.769A84.213,84.213,0,0,1,42.371,4.132c1.742-1.665-.9-4.3-2.643-2.642Z" fill="#fff"/>
    <path id="Path_2" data-name="Path 2" d="M51.565,45.154a14,14,0,0,1-1.838,18.138c-1.778,1.627.87,4.265,2.643,2.643a17.715,17.715,0,0,0,2.422-22.668,1.922,1.922,0,0,0-2.557-.67,1.883,1.883,0,0,0-.67,2.557Z" fill="#fff"/>
  </g>
</svg>
