<svg xmlns="http://www.w3.org/2000/svg" width="58.424" height="57.167" viewBox="0 0 58.424 57.167">
  <g id="Group_1" data-name="Group 1" transform="translate(0.041 0)">
    <path id="Path_1" data-name="Path 1" d="M.729,11.711A133.3,133.3,0,0,0,.262,34.973C.5,38.534.854,42.108,1.428,45.632c.469,2.881,1.349,5.923,3.637,7.9,2.251,1.949,5.225,2.505,8.1,2.761,3.755.334,7.541.454,11.306.592q5.609.207,11.222.252a70.361,70.361,0,0,0,9.642-.3,16.2,16.2,0,0,0,7.622-2.691,11.368,11.368,0,0,0,4.252-7.017A66.747,66.747,0,0,0,58.217,36.29c.163-3.777.19-7.559.149-11.339-.043-3.94-.155-7.88-.281-11.818-.1-3-.436-5.937-2.556-8.224C51.624.7,44.752.564,39.456.254a248.555,248.555,0,0,0-25.91.231C10.057.645,6.005.532,3.3,3.127,1.022,5.308,1.181,8.521.768,11.4c-.215,1.5,2.081,2.148,2.3.634.319-2.224.072-5.224,1.692-7,2.022-2.216,5.58-2.023,8.317-2.149,7.063-.326,14.135-.624,21.206-.461,3.4.079,6.806.244,10.188.6A19.9,19.9,0,0,1,51.383,4.8,7.34,7.34,0,0,1,55.6,11.03c.324,3.347.253,6.778.324,10.139a195.625,195.625,0,0,1-.482,21.248c-.247,2.828-.491,6-2.314,8.318a10.468,10.468,0,0,1-6.1,3.41,35.316,35.316,0,0,1-7.818.625q-5.262,0-10.523-.132-5.142-.135-10.281-.4c-3.025-.158-6.243-.1-9.151-1.054C6.011,52.12,4.61,49.413,3.956,46.257A83.475,83.475,0,0,1,2.662,35.205a133.321,133.321,0,0,1,.45-23.494c.163-1.523-2.222-1.512-2.383,0Z" fill="#333"/>
    <path id="Path_2" data-name="Path 2" d="M10.586,17.953C17.958,25.5,29.411,26.52,38.98,23.075a41.413,41.413,0,0,0,7.272-3.462c.853-.513,1.807-1.085,1.97-2.156.2-1.3-.926-2.217-1.708-3.085l-3.021-3.348a12.193,12.193,0,0,0-2.748-2.745c-2.262-1.242-4.457.985-6.468,1.769a15.607,15.607,0,0,1-15.123-2.17,1.215,1.215,0,0,0-1.872.242c-1.861,2.876-3.6,5.94-6.432,7.988-1.231.891-.042,2.96,1.2,2.058,3.2-2.314,5.179-5.586,7.287-8.843l-1.871.241a17.912,17.912,0,0,0,11.4,3.911,17.508,17.508,0,0,0,6.042-1.128,18.284,18.284,0,0,0,2.675-1.289,4.565,4.565,0,0,1,1.471-.746c.706-.1,1.128.6,1.544,1.058q1.211,1.338,2.416,2.678l1.359,1.507c.209.232,1.367,1.221,1.359,1.507l.106-.011a4.451,4.451,0,0,1-.434.286c-.235.15-.477.29-.717.432q-.723.425-1.463.82a37.1,37.1,0,0,1-3.705,1.742,29.51,29.51,0,0,1-13.892,2.181,21.739,21.739,0,0,1-13.358-6.244c-1.073-1.1-2.758.587-1.685,1.685Z" fill="#333"/>
    <path id="Path_3" data-name="Path 3" d="M23.426,17.6l2.829-4.713a1.192,1.192,0,0,0-2.058-1.2L21.368,16.4a1.192,1.192,0,0,0,2.058,1.2Z" fill="#333"/>
  </g>
</svg>
