<svg xmlns="http://www.w3.org/2000/svg" width="25.245" height="84" viewBox="0 0 25.245 84">
  <g id="Group_1" data-name="Group 1" transform="translate(-0.966 0)">
    <path id="Path_1" data-name="Path 1" d="M.966,65.069V35.363A11.908,11.908,0,0,1,12.874,23.455h1.017a12.32,12.32,0,0,1,12.32,12.319v43.7A4.523,4.523,0,0,1,21.688,84h-.379a4.523,4.523,0,0,1-4.523-4.522V61.9A1.585,1.585,0,0,0,15.2,60.312H11.982A1.591,1.591,0,0,0,10.391,61.9v3.166h0V79.478A4.523,4.523,0,0,1,5.87,84H5.49A4.523,4.523,0,0,1,.968,79.478V65.069" fill="#757575"/>
    <path id="Path_2" data-name="Path 2" d="M20.918,7.675A13.044,13.044,0,0,0,22.382,6.9a1.56,1.56,0,0,0,.688-.688,1.317,1.317,0,0,0,0-1.031,1.559,1.559,0,0,0-1.032-.688A16.312,16.312,0,0,0,18.6,3.806a15.819,15.819,0,0,0-2.751,0,11.386,11.386,0,0,0,1.375-1.72,1.521,1.521,0,0,0,.344-1.031,1.215,1.215,0,0,0-.344-.688C17.059.2,16.67-.084,15.505.023A6.734,6.734,0,0,0,13.1.711,14.557,14.557,0,0,0,9.144,3.977,28.551,28.551,0,0,0,6.671,7.218a9.592,9.592,0,1,0,14.247.457Z" fill="#757575"/>
  </g>
</svg>
