<svg xmlns="http://www.w3.org/2000/svg" width="24" height="24" viewBox="0 0 24 24">
  <g id="Screen" transform="translate(43.249)">
    <g id="_21_Appointment-Details" data-name="21_Appointment-Details">
      <g id="calendar">
        <path id="ic_calendar_grey" data-name="ic calendar grey" d="M-36.315,5.02a.493.493,0,0,1-.519.459.493.493,0,0,1-.519-.459V1.811a.493.493,0,0,1,.519-.46.493.493,0,0,1,.519.46Zm11.147,0a.492.492,0,0,1-.518.459A.493.493,0,0,1-26.2,5.02V1.811a.493.493,0,0,1,.519-.46.492.492,0,0,1,.518.46ZM-36.834,6.83a1.942,1.942,0,0,0,2.047-1.81V4.277h7.054V5.02a1.942,1.942,0,0,0,2.047,1.81,1.942,1.942,0,0,0,2.047-1.81V4.277h1.446A1.343,1.343,0,0,1-20.777,5.53V8.952H-41.721V5.53A1.344,1.344,0,0,1-40.3,4.277h1.424V5.02a1.941,1.941,0,0,0,2.046,1.81Zm14.641-3.9A2.793,2.793,0,0,1-19.249,5.53v4.892a.725.725,0,0,1-.764.676.724.724,0,0,1-.764-.676V10.3H-41.721v4.433a.725.725,0,0,1-.764.676.725.725,0,0,1-.764-.676V5.53A2.794,2.794,0,0,1-40.3,2.925h1.424V1.811A1.941,1.941,0,0,1-36.834,0a1.942,1.942,0,0,1,2.047,1.811V2.925h7.054V1.811A1.942,1.942,0,0,1-25.686,0a1.942,1.942,0,0,1,2.047,1.811V2.925ZM-20.013,16a.725.725,0,0,1,.764.675V21.4A2.793,2.793,0,0,1-22.193,24H-40.3a2.793,2.793,0,0,1-2.945-2.6V17.851a.725.725,0,0,1,.764-.675.725.725,0,0,1,.764.675V21.4A1.344,1.344,0,0,0-40.3,22.649h18.111A1.344,1.344,0,0,0-20.777,21.4V16.673A.725.725,0,0,1-20.013,16Zm0-4.055a.726.726,0,0,1,.764.676v.36a.725.725,0,0,1-.764.675.725.725,0,0,1-.764-.675v-.36A.726.726,0,0,1-20.013,11.943Z" fill="#696969" fill-rule="evenodd"/>
      </g>
    </g>
  </g>
</svg>
