<svg viewBox="0 0 18 18" xmlns="http://www.w3.org/2000/svg"><path d="m5.2 3.76a.37.37 0 0 1 -.39.35.38.38 0 0 1 -.39-.35v-2.4a.38.38 0 0 1 .39-.36.37.37 0 0 1 .39.35zm8.36 0a.37.37 0 0 1 -.39.35.38.38 0 0 1 -.39-.35v-2.4a.38.38 0 0 1 .39-.36.37.37 0 0 1 .39.35zm-8.75 1.36a1.46 1.46 0 0 0 1.54-1.36v-.55h5.29v.55a1.46 1.46 0 0 0 1.53 1.36 1.46 1.46 0 0 0 1.54-1.36v-.55h1.08a1 1 0 0 1 1.06.94v2.56h-15.7v-2.56a1 1 0 0 1 1.06-.94h1.07v.55a1.45 1.45 0 0 0 1.53 1.36zm11-2.93a2.1 2.1 0 0 1 2.21 2v3.63a.58.58 0 0 1 -1.15 0v-.09h-15.72v3.32a.55.55 0 0 1 -.58.51.55.55 0 0 1 -.57-.51v-6.9a2.1 2.1 0 0 1 2.21-2h1.07v-.79a1.45 1.45 0 0 1 1.53-1.36 1.46 1.46 0 0 1 1.54 1.36v.83h5.29v-.83a1.46 1.46 0 0 1 1.53-1.36 1.46 1.46 0 0 1 1.54 1.36v.83zm1.62 9.81a.55.55 0 0 1 .57.5v3.55a2.1 2.1 0 0 1 -2.21 1.95h-13.58a2.1 2.1 0 0 1 -2.21-1.95v-2.66a.55.55 0 0 1 .57-.51.55.55 0 0 1 .58.51v2.66a1 1 0 0 0 1.06.95h13.58a1 1 0 0 0 1.06-.94v-3.56a.55.55 0 0 1 .58-.5zm0-3a.55.55 0 0 1 .57.5v.27a.58.58 0 0 1 -1.15 0v-.31a.55.55 0 0 1 .58-.46z" fill="#696969" fill-rule="evenodd"/></svg>