<svg xmlns="http://www.w3.org/2000/svg" width="62.168" height="61.694" viewBox="0 0 62.168 61.694">
  <g id="Group_1" data-name="Group 1" transform="translate(-0.832 -0.306)">
    <path id="Path_1" data-name="Path 1" d="M13.777,10.561l-.31,32.312-.036,3.747c-.01,1-.129,2.13.6,2.933a3.223,3.223,0,0,0,2.513.784c1.417.011,2.834,0,4.25,0l16.292.017,18.416.018a1.185,1.185,0,0,0,0-2.368l-30.458-.03-7.555-.008c-.3,0-1.21.162-1.5-.008-.38-.225-.192-.912-.188-1.342l.039-3.981.144-14.985.164-17.093a1.185,1.185,0,0,0-2.368,0Z" fill="#00a147"/>
    <path id="Path_2" data-name="Path 2" d="M20.157,30.521q5.379-6.936,11.3-13.421H29.784A27.129,27.129,0,0,0,32.4,19.515a3.547,3.547,0,0,0,2.514,1.156c1.055-.121,1.591-.992,2.176-1.772l2.541-3.378,2.4-3.19c.479-.638,1.576-2.655,2.461-2.3.471.188.912.878,1.253,1.238l1.415,1.495,2.831,2.989c1.049,1.109,2.722-.568,1.674-1.674-1.786-1.887-3.49-3.982-5.432-5.707-1.762-1.564-3.658-.6-4.933,1.021-1.607,2.049-3.136,4.164-4.7,6.246l-1.27,1.689a3.634,3.634,0,0,1-.575.76c-.269.189-.163.18-.515-.117a35.388,35.388,0,0,1-2.777-2.546,1.2,1.2,0,0,0-1.674,0q-5.919,6.482-11.3,13.421c-.922,1.19.742,2.877,1.675,1.674Z" fill="#00a147"/>
    <path id="Path_3" data-name="Path 3" d="M42.888,20.1a6.807,6.807,0,0,1,.711-.855c.065-.065.132-.13.2-.191.005,0,.164-.124.081-.066a1.777,1.777,0,0,0,.2-.13c-.056.026.127-.042.154-.048.083-.02.081-.021-.008,0l.126,0c-.125-.049.046.021.069.036-.092-.06.056.05.071.061-.073-.054.108.093.128.111.355.33.677.7,1.01,1.051l4.357,4.6a1.184,1.184,0,1,0,1.674-1.674c-1.723-1.82-3.419-3.671-5.173-5.461a2.894,2.894,0,0,0-3.121-.927,6.058,6.058,0,0,0-2.524,2.3,1.192,1.192,0,0,0,.425,1.62,1.213,1.213,0,0,0,1.62-.424Z" fill="#00a147"/>
    <path id="Path_4" data-name="Path 4" d="M29.784,26.013a26.115,26.115,0,0,0,2.288,2.15c.888.737,1.951,1.747,3.21,1.358a2.839,2.839,0,0,0,1.382-1.146c.345-.454.685-.911,1.027-1.366l2.1-2.8a1.192,1.192,0,0,0-.424-1.62,1.213,1.213,0,0,0-1.62.425l-1.712,2.276-.88,1.171-.441.585c-.016.022-.157.194-.065.086l-.082.094c-.1.091-.118.114-.062.07-.008,0,.257-.081.241-.057a4.537,4.537,0,0,1-.423-.286c-.306-.232-.623-.5-.922-.757a26.3,26.3,0,0,1-1.946-1.861,1.184,1.184,0,1,0-1.674,1.675Z" fill="#00a147"/>
    <path id="Path_5" data-name="Path 5" d="M20.157,39.434q3.87-5,8.029-9.762a1.214,1.214,0,0,0,0-1.675,1.2,1.2,0,0,0-1.674,0q-4.158,4.763-8.03,9.762a1.225,1.225,0,0,0,0,1.675,1.193,1.193,0,0,0,1.675,0Z" fill="#00a147"/>
    <path id="Path_6" data-name="Path 6" d="M18.16,38.569c.009,1.569.006,3.138.008,4.707,0,1.2-.4,3.263,1.051,3.791a7,7,0,0,0,2.268.149q1.143,0,2.285-.047Q25,47.116,26.216,47c.692-.065,1.356-.094,1.783-.721a4.341,4.341,0,0,0,.468-1.825,18.278,18.278,0,0,0,.192-2.527c.009-1.433-.044-2.868-.057-4.3-.025-2.931-.022-5.861-.069-8.791a1.185,1.185,0,0,0-2.368,0c.039,2.438.044,4.877.059,7.316.015,2.379.213,4.818.007,7.189q-.042.483-.121.961c-.025.159-.054.317-.085.475q-.2.591.144.078.474-.374-.116-.206c-.163.015-.325.029-.488.042q-.57.045-1.14.079-1.956.111-3.917.066c-.164,0-.327-.008-.49-.014q-.681-.073.527.591a3.736,3.736,0,0,0-.006-.9c0-.624,0-1.248,0-1.871,0-1.359,0-2.717-.007-4.076a1.185,1.185,0,0,0-2.368,0Z" fill="#00a147"/>
    <path id="Path_7" data-name="Path 7" d="M30.477,25.382" fill="none" stroke="#00a147" stroke-miterlimit="10" stroke-width="0.474"/>
    <path id="Path_8" data-name="Path 8" d="M29.388,25.229c-.2,5.088.178,10.172.3,15.257.029,1.183.043,2.367.03,3.55-.012,1-.184,2.184,1,2.552a14.958,14.958,0,0,0,3.835.208c1.429.03,2.858.022,4.286-.013A1.206,1.206,0,0,0,40.021,45.6c.054-1.951.112-3.9.162-5.853.051-2,.129-4.078.012-6.071-.2-3.348-.077-6.707-.239-10.061-.073-1.517-2.442-1.526-2.368,0,.162,3.354.043,6.714.239,10.061.113,1.925.041,3.938-.007,5.867-.05,2.019-.111,4.038-.166,6.057l1.183-1.184c-1.285.032-2.571.042-3.857.021a14.9,14.9,0,0,1-3.729-.16l.827.827a11.322,11.322,0,0,1,.01-2.434q-.006-1.192-.038-2.383c-.042-1.689-.112-3.376-.179-5.064-.13-3.329-.249-6.661-.115-9.993.061-1.524-2.307-1.521-2.368,0Z" fill="#00a147"/>
    <path id="Path_9" data-name="Path 9" d="M49.55,23.735c0,3.506-.326,7-.471,10.5-.15,3.635.27,7.331-.228,10.944l1.142-.869c-1.414.105-2.83.162-4.249.154q-1.006-.006-2.013-.052c-.109-.005-1.167-.064-.845.078q.112.332,0-.162a3.065,3.065,0,0,1-.067-.514,25.913,25.913,0,0,1,.172-4.312c.1-1.456.09-2.912.054-4.37-.033-1.383-.083-2.766-.044-4.149.039-1.362.232-2.715.255-4.077.04-2.461-.125-4.945-.206-7.405-.051-1.52-2.419-1.527-2.368,0,.09,2.721.334,5.507.174,8.227-.192,3.253-.121,6.453-.152,9.709-.015,1.6-.224,3.193-.28,4.795-.041,1.165-.162,3.031.72,3.943.859.887,2.793.626,3.929.649,1.642.032,3.282-.025,4.92-.146a1.207,1.207,0,0,0,1.142-.869c.51-3.7.16-7.428.3-11.151.133-3.643.485-7.275.487-10.922a1.185,1.185,0,0,0-2.368,0Z" fill="#00a147"/>
    <path id="Path_10" data-name="Path 10" d="M41.018,3.114c2.4-.376,4.974-.775,7.349-.026a13.169,13.169,0,0,1,5.589,4.139,15.537,15.537,0,0,1,3.988,11.9L59.725,18.1,56.852,16.57a1.189,1.189,0,0,0-1.435,1.859c1.018,1.048,2.624,2.362,4.158,2.434,1.848.087,2.534-2.122,3.267-3.448s-1.306-2.53-2.045-1.2L60,17.668l-.4.724q.336.281-.235-.01a6.155,6.155,0,0,1-2.27-1.627l-1.435,1.859,2.874,1.535a1.2,1.2,0,0,0,1.781-1.022c.588-5.084-1.532-10.092-4.9-13.826A15.155,15.155,0,0,0,49,.805C46.2-.075,43.214.389,40.388.831c-1.5.234-.863,2.516.63,2.283Z" fill="#00a147"/>
    <path id="Path_11" data-name="Path 11" d="M22.814,59.192c-2.4.376-4.974.775-7.349.026a13.175,13.175,0,0,1-5.589-4.139,15.532,15.532,0,0,1-3.987-11.9L4.107,44.2l2.874,1.535a1.189,1.189,0,0,0,1.434-1.859C7.4,42.829,5.791,41.515,4.257,41.443,2.409,41.356,1.724,43.565.99,44.891s1.306,2.53,2.045,1.195l.8-1.448.4-.724q-.335-.281.235.01a6.155,6.155,0,0,1,2.27,1.627l1.435-1.859L5.3,42.157a1.2,1.2,0,0,0-1.781,1.022c-.587,5.084,1.532,10.092,4.9,13.826a15.147,15.147,0,0,0,6.411,4.5c2.793.881,5.782.416,8.608-.026,1.5-.234.863-2.516-.63-2.283Z" fill="#00a147"/>
  </g>
</svg>
