<svg xmlns="http://www.w3.org/2000/svg" width="89.774" height="75.902" viewBox="0 0 89.774 75.902">
  <g id="katman_2" data-name="katman 2" transform="translate(0.032 -0.001)">
    <g id="Layer_1" data-name="Layer 1" transform="translate(-0.032 0.001)">
      <path id="Path_618" data-name="Path 618" d="M3.283,74.526A519.668,519.668,0,0,1,17.21,19.735c1.4-4.46,2.678-9.063,4.373-13.413.208-.525.394-1.257.864-1.017.776.415,1.388,1.913,1.826,2.646a47.379,47.379,0,0,1,2.952,5.761c1.76,4.11,3.127,8.4,4.624,12.6q2.383,6.658,4.832,13.293,5.663,15.25,11.828,30.3c.809,1.957,4.023,1.093,3.214-.885q-5.87-14.31-11.271-28.751-2.656-7.117-5.2-14.288c-1.607-4.5-3.083-9.052-4.952-13.457a49.643,49.643,0,0,0-3.1-6.253C26.174,4.572,25,2.32,22.818,1.9,20.9,1.544,19.451,3,18.729,4.561a64.816,64.816,0,0,0-2.263,6.559q-4.8,14.474-8.746,29.243Q3.359,56.86,0,73.651c-.4,2.088,2.8,2.984,3.214.875Z" transform="translate(0.032 0.171)" fill="#fff"/>
      <path id="Path_619" data-name="Path 619" d="M7.648,49.916l31.331-4.58c2.11-.317,1.213-3.52-.885-3.214L6.763,46.7C4.653,47.019,5.549,50.222,7.648,49.916Z" transform="translate(0.553 3.922)" fill="#fff"/>
      <path id="Path_620" data-name="Path 620" d="M61.757,32.1q1.662-7.948,3.925-15.8,1.093-3.782,2.263-7.543c.426-1.334.853-2.667,1.3-3.99a9.981,9.981,0,0,0,.645-1.76c-1.028-.109-1.279.087-.765.6.131.2.251.394.372.6a37.322,37.322,0,0,1,2.864,6.723c.864,2.482,1.76,4.952,2.667,7.423q2.82,7.652,5.914,15.2c.8,1.957,4.023,1.093,3.214-.885q-2.733-6.69-5.28-13.468c-1.629-4.373-3.017-8.833-4.788-13.118A16.4,16.4,0,0,0,71.147.8c-1.509-1.5-3.6-.743-4.373,1.093A61.592,61.592,0,0,0,64.588,8.45c-.743,2.263-1.454,4.668-2.121,6.964q-2.186,7.838-3.914,15.8c-.448,2.088,2.755,2.984,3.2.885Z" transform="translate(5.488 -0.001)" fill="#fff"/>
      <path id="Path_621" data-name="Path 621" d="M62.569,24.624l14.966-2.186a1.662,1.662,0,0,0,1.159-2.044,1.705,1.705,0,0,0-2.044-1.159L61.684,21.421a1.673,1.673,0,0,0-1.159,2.044,1.705,1.705,0,0,0,2.044,1.17Z" transform="translate(5.671 1.787)" fill="#fff"/>
      <path id="Path_622" data-name="Path 622" d="M38.56,44.9A354.161,354.161,0,0,1,47.9,10.427c.437-1.334.875-2.656,1.323-3.99a9.576,9.576,0,0,0,.623-1.782l.186-.317-.492.077a7.194,7.194,0,0,0,.776,1.093,38.831,38.831,0,0,1,3.454,7.346c2.011,5.466,3.9,11.019,5.958,16.5q3.608,9.664,7.521,19.207c.8,1.957,4.023,1.093,3.2-.885Q66.59,38.26,63.026,28.716c-2.252-6-4.242-12.113-6.559-18.081a32.02,32.02,0,0,0-4-7.937C50.531.217,47.732.982,46.65,3.715c-2.383,6.013-4.1,12.419-5.87,18.65Q37.73,33.1,35.314,44.021c-.448,2.077,2.755,2.973,3.214.875Z" transform="translate(3.322 0.11)" fill="#fff"/>
      <path id="Path_623" data-name="Path 623" d="M39.919,35.166l21.536-3.148a1.684,1.684,0,0,0,1.17-2.044,1.705,1.705,0,0,0-2.055-1.159L39.034,31.952a1.684,1.684,0,0,0-1.159,2.055,1.705,1.705,0,0,0,2.044,1.159Z" transform="translate(3.56 2.679)" fill="#fff"/>
    </g>
  </g>
</svg>
