<svg xmlns="http://www.w3.org/2000/svg" width="25.36" height="26.5" viewBox="0 0 25.36 26.5">
  <g id="Group_1" data-name="Group 1" transform="translate(0.18 0.75)">
    <path id="Path_1" data-name="Path 1" d="M8.458,19.6l2.87,4.872a1.077,1.077,0,0,0,1.857,0l2.87-4.872H18.43a6,6,0,0,0,6-6V6a6,6,0,0,0-6-6H6.57a6,6,0,0,0-6,6v7.6a6,6,0,0,0,6,6Z" fill="none" stroke="#fff" stroke-miterlimit="10" stroke-width="1.5"/>
    <circle id="Ellipse_1" data-name="Ellipse 1" cx="1.273" cy="1.273" r="1.273" transform="translate(11.227 8.399)" fill="#fff"/>
    <circle id="Ellipse_2" data-name="Ellipse 2" cx="1.273" cy="1.273" r="1.273" transform="translate(16.319 8.399)" fill="#fff"/>
    <circle id="Ellipse_3" data-name="Ellipse 3" cx="1.273" cy="1.273" r="1.273" transform="translate(6.136 8.399)" fill="#fff"/>
  </g>
</svg>
