<svg xmlns="http://www.w3.org/2000/svg" width="49.834" height="48.339" viewBox="0 0 49.834 48.339">
  <g id="Group_3" data-name="Group 3" transform="translate(-0.165 -0.535)">
    <g id="Group_2" data-name="Group 2">
      <path id="Path_1" data-name="Path 1" d="M43.755,11.84C39.183,2.876,27.619.451,18.723,3.719c-8.806,3.235-15.885,11.426-16,21.069A23.751,23.751,0,0,0,16.953,46.436c8.463,3.544,18.584.727,24.781-5.833a20.249,20.249,0,0,0,5.525-11.774A28.8,28.8,0,0,0,45.3,14.952,17.678,17.678,0,0,0,43.69,11.9c-.957-1.421-3.278-.083-2.312,1.352,2.347,3.487,3.214,7.929,3.329,12.073a18.254,18.254,0,0,1-3,11.07c-4.379,6.457-12.971,10.23-20.665,8.541-8.068-1.772-14.124-9-15.433-17.014C4.242,19.544,9.234,11.649,16.437,7.68c7.3-4.024,17.554-3.871,23.275,2.848a13.578,13.578,0,0,1,1.731,2.663c.783,1.535,3.094.182,2.312-1.351Z" fill="#333"/>
      <path id="Path_2" data-name="Path 2" d="M39.765,3.009a21.661,21.661,0,0,1,2.31,1.326c.37.244.732.5,1.087.767s-.189-.155.15.116l.208.167q.283.231.559.471a21.441,21.441,0,0,1,1.887,1.866q.443.495.851,1.017c.082.1-.058-.082.074.1.065.089.131.177.2.267.143.2.281.4.417.6A1.338,1.338,0,0,0,50,9.024l-.015-.3a1.339,1.339,0,1,0-2.677,0l.015.3,2.5-.675A22.8,22.8,0,0,0,41.116.7a1.365,1.365,0,0,0-1.831.481,1.356,1.356,0,0,0,.48,1.831Z" fill="#333"/>
      <path id="Path_3" data-name="Path 3" d="M2.663,10.452c.233-.345.472-.686.72-1.02.074-.1.15-.2.225-.3-.114.15.008-.008.06-.074q.193-.244.393-.485.82-.987,1.733-1.89.889-.88,1.861-1.675c.162-.132.325-.263.49-.391-.2.157.118-.088.128-.1l.252-.186q.533-.388,1.083-.751a1.363,1.363,0,0,0,.48-1.831,1.357,1.357,0,0,0-1.831-.48A28.316,28.316,0,0,0,.351,9.1a1.347,1.347,0,0,0,.481,1.831,1.37,1.37,0,0,0,1.831-.48Z" fill="#333"/>
      <path id="Path_4" data-name="Path 4" d="M3.868,48.49A88.433,88.433,0,0,0,10.4,40.758a1.341,1.341,0,0,0-.48-1.831,1.378,1.378,0,0,0-1.831.48c-.127.167-.253.334-.381.5l-.108.141-.109.141q-.365.469-.736.933-.765.954-1.557,1.887Q3.64,44.849,1.975,46.6A1.339,1.339,0,0,0,3.868,48.49Z" fill="#333"/>
      <path id="Path_5" data-name="Path 5" d="M39.82,41.774,43.771,45.7l1.975,1.962a2.642,2.642,0,0,0,.6.483,1.452,1.452,0,0,0,1.565-.112,1.42,1.42,0,0,0-.165-2.343,1.338,1.338,0,0,0-1.351,0l-.03.02a1.339,1.339,0,1,0,1.351,2.312l.03-.02H46.391l.032.018-.481-.48.023.04-.183-.676,0,.045L46.177,46l-.027.034.946-.392-.079.007.676.182c.1.049.179.172.036.025-.073-.075-.149-.148-.224-.223l-.359-.356-.764-.758-1.571-1.561-3.1-3.077a1.339,1.339,0,0,0-1.893,1.893Z" fill="#333"/>
      <g id="Group_1" data-name="Group 1">
        <path id="Path_6" data-name="Path 6" d="M42.6,12.515c-2.66-5.336-8.227-8.278-14-8.811C17.67,2.7,6.557,10.68,4.424,21.292S9.673,43.586,20.335,46.149s22.8-4.661,25.239-15.21c1.155-5,.275-13.529-3.04-18.36" fill="#00a147"/>
        <path id="Path_7" data-name="Path 7" d="M43.755,11.84C39.183,2.876,27.619.451,18.723,3.719c-8.806,3.235-15.885,11.426-16,21.069A23.751,23.751,0,0,0,16.953,46.436c8.463,3.544,18.584.727,24.781-5.833a20.249,20.249,0,0,0,5.525-11.774A28.8,28.8,0,0,0,45.3,14.952,17.678,17.678,0,0,0,43.69,11.9c-.957-1.421-3.278-.083-2.312,1.352,2.347,3.487,3.214,7.929,3.329,12.073a18.254,18.254,0,0,1-3,11.07c-4.379,6.457-12.971,10.23-20.665,8.541-8.068-1.772-14.124-9-15.433-17.014C4.242,19.544,9.234,11.649,16.437,7.68c7.3-4.024,17.554-3.871,23.275,2.848a13.578,13.578,0,0,1,1.731,2.663c.783,1.535,3.094.182,2.312-1.351Z" fill="#333"/>
      </g>
      <path id="Path_8" data-name="Path 8" d="M23.4,12.28q.408,6.621.572,13.254a1.357,1.357,0,0,0,1.338,1.338l7.585-.148a1.339,1.339,0,0,0,0-2.677l-7.585.148,1.339,1.339q-.164-6.633-.572-13.254c-.106-1.712-2.783-1.724-2.677,0Z" fill="#333"/>
    </g>
  </g>
</svg>
