<svg xmlns="http://www.w3.org/2000/svg" width="50" height="48.499" viewBox="0 0 50 48.499">
  <g id="Group_1" data-name="Group 1" transform="translate(0 -0.654)">
    <path id="Path_1" data-name="Path 1" d="M43.734,12C39.147,3,27.544.569,18.619,3.848,9.784,7.094,2.682,15.312,2.562,24.987A23.832,23.832,0,0,0,16.843,46.708c8.491,3.556,18.646.729,24.864-5.852A20.325,20.325,0,0,0,47.25,29.042a28.893,28.893,0,0,0-1.968-13.923,17.618,17.618,0,0,0-1.613-3.059c-.961-1.426-3.289-.084-2.32,1.356,2.355,3.5,3.225,7.955,3.34,12.113a18.319,18.319,0,0,1-3.006,11.107C37.289,43.115,28.668,46.9,20.948,45.205c-8.094-1.777-14.171-9.031-15.484-17.07C4.09,19.726,9.1,11.805,16.325,7.822c7.325-4.036,17.613-3.883,23.353,2.859a13.633,13.633,0,0,1,1.737,2.671c.785,1.54,3.1.183,2.319-1.356Z" fill="#333"/>
    <path id="Path_2" data-name="Path 2" d="M39.731,3.136a21.708,21.708,0,0,1,2.318,1.33c.371.245.734.5,1.09.77s-.189-.155.151.117l.208.167c.19.155.377.312.561.473a21.588,21.588,0,0,1,1.894,1.872q.443.5.854,1.02c.082.1-.059-.083.073.1.066.089.132.177.2.267.143.2.282.4.419.6A1.342,1.342,0,0,0,50,9.172l-.015-.3a1.343,1.343,0,0,0-2.686,0l.015.3,2.5-.678A22.87,22.87,0,0,0,41.086.817a1.37,1.37,0,0,0-1.837.482,1.36,1.36,0,0,0,.482,1.837Z" fill="#333"/>
    <path id="Path_3" data-name="Path 3" d="M2.506,10.6q.35-.519.722-1.024l.226-.3c-.114.15.008-.009.06-.074.129-.164.261-.327.395-.487q.822-.99,1.738-1.9.893-.885,1.867-1.681c.163-.133.326-.264.492-.393-.2.158.118-.088.128-.1.084-.063.168-.126.253-.187.356-.261.719-.511,1.086-.754a1.366,1.366,0,0,0,.482-1.837,1.361,1.361,0,0,0-1.837-.482A28.408,28.408,0,0,0,.186,9.248a1.353,1.353,0,0,0,.482,1.838A1.376,1.376,0,0,0,2.506,10.6Z" fill="#333"/>
    <path id="Path_4" data-name="Path 4" d="M3.714,48.768a88.841,88.841,0,0,0,6.558-7.757,1.347,1.347,0,0,0-.481-1.838,1.385,1.385,0,0,0-1.838.482q-.189.252-.381.5l-.109.142-.109.141c-.244.314-.49.625-.739.936q-.766.957-1.562,1.893-1.568,1.845-3.238,3.6a1.343,1.343,0,1,0,1.9,1.9Z" fill="#333"/>
    <path id="Path_5" data-name="Path 5" d="M39.786,42.03l3.964,3.937,1.982,1.969a2.608,2.608,0,0,0,.6.484,1.454,1.454,0,0,0,1.57-.112,1.425,1.425,0,0,0-.165-2.351,1.343,1.343,0,0,0-1.356,0l-.03.02A1.343,1.343,0,1,0,47.7,48.3l.031-.019H46.379l.032.018-.482-.482.023.04-.184-.678,0,.045.394-.95-.028.034.95-.393-.08.007.678.183c.1.049.18.172.037.025-.074-.076-.15-.149-.226-.224l-.36-.358-.766-.76-1.576-1.566-3.109-3.087a1.343,1.343,0,1,0-1.9,1.9Z" fill="#333"/>
    <path id="Path_6" data-name="Path 6" d="M23.31,12.437q.41,6.643.574,13.3a1.363,1.363,0,0,0,1.343,1.343l7.61-.149a1.344,1.344,0,0,0,0-2.686l-7.61.149,1.343,1.343q-.163-6.654-.574-13.3c-.1-1.717-2.792-1.729-2.686,0Z" fill="#333"/>
  </g>
</svg>
