<svg width="28" height="28" viewBox="0 0 28 28" fill="none" xmlns="http://www.w3.org/2000/svg">
<path d="M13.5953 14.176V14.276H13.6953H14.5H14.6V14.176V4.2664V4.1664H14.5H13.6953H13.5953V4.2664V14.176ZM14.4 14.076H13.7953V4.3664H14.4V14.076ZM13.6953 25.3253H13.5953V25.4253V26.2844C7.13862 26.0744 1.92561 20.8614 1.71564 14.4047H2.57452H2.67452V14.3047V13.6953V13.5953H2.57452H1.71564C1.92562 7.13945 7.13945 1.92562 13.5953 1.71564V2.38613V2.48613H13.6953H14.3047H14.4047V2.38613V1.71564C20.8605 1.92562 26.0744 7.13945 26.2844 13.5953H25.4261H25.3261V13.6953V14.3047V14.4047H25.4261H26.2844C26.0744 20.8614 20.8614 26.0752 14.4047 26.2844V25.4253V25.3253H14.3047H13.6953ZM0.9 14C0.9 21.2238 6.77615 27.1 14 27.1C21.2238 27.1 27.1 21.2238 27.1 14C27.1 6.77615 21.2238 0.9 14 0.9C6.77615 0.9 0.9 6.77615 0.9 14Z" fill="#555353" stroke="#555353" stroke-width="0.2"/>
<rect x="13.5" y="4" width="1.1" height="10.3" fill="#555353"/>
</svg>
