<svg width="28" height="28" viewBox="0 0 28 28" fill="none" xmlns="http://www.w3.org/2000/svg">
<path d="M14.3047 2.67475L14.4047 2.67475L14.4047 2.57475L14.4047 1.71564C20.8614 1.92561 26.0744 7.13862 26.2844 13.5953L25.4255 13.5953L25.3255 13.5953L25.3255 13.6953L25.3255 14.3047L25.3255 14.4047L25.4255 14.4047L26.2844 14.4047C26.0744 20.8606 20.8605 26.0744 14.4047 26.2844L14.4047 25.6139L14.4047 25.5139L14.3047 25.5139L13.6953 25.5139L13.5953 25.5139L13.5953 25.6139L13.5953 26.2844C7.13945 26.0744 1.92563 20.8606 1.71564 14.4047L2.57392 14.4047L2.67392 14.4047L2.67392 14.3047L2.67392 13.6953L2.67392 13.5953L2.57392 13.5953L1.71564 13.5953C1.92561 7.1386 7.13863 1.92478 13.5953 1.71563L13.5953 2.57475L13.5953 2.67475L13.6953 2.67475L14.3047 2.67475ZM8.3388 10.2639L8.25217 10.2139L8.20218 10.3006L7.8975 10.8287L7.84754 10.9153L7.93411 10.9653L13.5953 14.2338L13.5953 23.7336L13.5953 23.8336L13.6953 23.8336L14.3047 23.8336L14.4047 23.8336L14.4047 23.7336L14.4047 18.7788L14.4047 13.824L14.4047 13.7662L14.3547 13.7374L8.3388 10.2639ZM27.1 14C27.1 6.77615 21.2238 0.9 14 0.900001C6.77615 0.900001 0.899998 6.77615 0.899998 14C0.899999 21.2239 6.77615 27.1 14 27.1C21.2238 27.1 27.1 21.2238 27.1 14Z" fill="#555353" stroke="#555353" stroke-width="0.2"/>
</svg>
