<svg width="28" height="28" viewBox="0 0 28 28" fill="none" xmlns="http://www.w3.org/2000/svg">
<path d="M14.3047 25.3253H14.4047V25.4253V26.2844C20.8614 26.0744 26.0744 20.8614 26.2844 14.4047H25.4255H25.3255V14.3047V13.6953V13.5953H25.4255H26.2844C26.0744 7.13945 20.8605 1.92562 14.4047 1.71564V2.38613V2.48613H14.3047H13.6953H13.5953V2.38613V1.71564C7.13945 1.92562 1.92563 7.13945 1.71564 13.5953H2.57392H2.67392V13.6953V14.3047V14.4047H2.57392H1.71564C1.92561 20.8614 7.13864 26.0752 13.5953 26.2844V25.4253V25.3253H13.6953H14.3047ZM8.3388 17.7361L8.25217 17.7861L8.20218 17.6995L7.8975 17.1713L7.84754 17.0847L7.93411 17.0347L13.5953 13.7662V9.04518V4.2664V4.1664H13.6953H14.3047H14.4047V4.2664V14.176V14.2338L14.3547 14.2626L11.3467 15.9994L8.3388 17.7361ZM27.1 14C27.1 21.2238 21.2238 27.1 14 27.1C6.77615 27.1 0.9 21.2238 0.9 14C0.9 6.77615 6.77615 0.9 14 0.9C21.2238 0.9 27.1 6.77615 27.1 14Z" fill="#555353" stroke="#555353" stroke-width="0.2"/>
</svg>
