<svg xmlns="http://www.w3.org/2000/svg" width="76.032" height="56.026" viewBox="0 0 76.032 56.026">
  <g id="Group_1" data-name="Group 1" transform="translate(0.705 1.54)">
    <path id="Path_1" data-name="Path 1" d="M16.007,52.95c13.535.443,19.4-2.187,32.941-2.453,1.924-.038,11.545,2.284,13.415,1.831a13.349,13.349,0,0,0,7.769-5.355,21.328,21.328,0,0,0,2.744-6.428,21.733,21.733,0,0,0,.951-5.735c.018-6.6-4.98-12.482-11.064-15.033a16.918,16.918,0,0,0-9.91-18.7,16.916,16.916,0,0,0-20.075,6.7c-.216.356-.472.759-.883.825a1.448,1.448,0,0,1-.72-.141A16.6,16.6,0,0,0,25.657,7.3a12.951,12.951,0,0,0-10.917,5.81,12.954,12.954,0,0,0-.806,12.341,10.237,10.237,0,0,0-8.773,2.763,14.624,14.624,0,0,0-4.178,8.4,11.162,11.162,0,0,0,.358,5.578A20.4,20.4,0,0,0,5.787,49.1c2.243,2.416,6.5,3.766,10.271,3.766" fill="none" stroke="#fff" stroke-linecap="round" stroke-linejoin="round" stroke-miterlimit="10" stroke-width="3"/>
    <path id="Path_2" data-name="Path 2" d="M24.361,24.134q13.555.414,27.112-.43" fill="none" stroke="#fff" stroke-linecap="round" stroke-miterlimit="10" stroke-width="3"/>
    <path id="Path_3" data-name="Path 3" d="M51.018,23.412a60.654,60.654,0,0,1-8.09-3.926l.357.159" fill="none" stroke="#fff" stroke-linecap="round" stroke-linejoin="round" stroke-miterlimit="10" stroke-width="3"/>
    <path id="Path_4" data-name="Path 4" d="M50.68,24.116l-8.24,5.753.391-.1" fill="none" stroke="#fff" stroke-linecap="round" stroke-linejoin="round" stroke-miterlimit="10" stroke-width="3"/>
    <path id="Path_5" data-name="Path 5" d="M24.361,38.514q13.555.414,27.112-.429" fill="none" stroke="#fff" stroke-linecap="round" stroke-miterlimit="10" stroke-width="3"/>
    <path id="Path_6" data-name="Path 6" d="M24.294,37.793a60.9,60.9,0,0,0,8.09-3.927l-.358.159" fill="none" stroke="#fff" stroke-linecap="round" stroke-linejoin="round" stroke-miterlimit="10" stroke-width="3"/>
    <path id="Path_7" data-name="Path 7" d="M24.631,38.5l8.24,5.753-.391-.1" fill="none" stroke="#fff" stroke-linecap="round" stroke-linejoin="round" stroke-miterlimit="10" stroke-width="3"/>
  </g>
</svg>
