<svg xmlns="http://www.w3.org/2000/svg" width="35.479" height="66" viewBox="0 0 35.479 66">
  <g id="Group_2" data-name="Group 2" transform="translate(-0.261 0)">
    <g id="Group_1" data-name="Group 1">
      <path id="Path_1" data-name="Path 1" d="M29.771,6.338C27.974,1.587,22.695-.551,17.878.121A15,15,0,0,0,5.81,10.794,14.117,14.117,0,0,0,10.393,25.75c4.869,3.786,11.457,2.577,16.048-1.06A14.268,14.268,0,0,0,30.83,7.377C30.139,5.938,28,7.2,28.687,8.63A11.565,11.565,0,0,1,26.1,21.684C22.821,24.972,17.4,27,13.07,24.571A11.273,11.273,0,0,1,7.8,13.366,12.6,12.6,0,0,1,16.275,3.037c3.9-1.281,9.478-.333,11.1,3.96.56,1.48,2.961.839,2.394-.659Z" fill="#333"/>
      <path id="Path_2" data-name="Path 2" d="M2.747,62.529A69.551,69.551,0,0,1,6.026,46.163c1.519-4.61,3.4-9.529,6.769-13.132a11.467,11.467,0,0,1,6.19-3.738c2.532-.419,4.579,1.031,6.2,2.815,3.307,3.636,4.878,8.5,5.743,13.249,1.143,6.27,1.1,12.691,2.388,18.944.321,1.564,2.714.9,2.394-.659-2.285-11.125-.532-24.23-8.769-33.289a10,10,0,0,0-6.392-3.59,11.045,11.045,0,0,0-7.42,2.626c-4.212,3.239-6.566,8.226-8.416,13.072A71.929,71.929,0,0,0,.265,62.529c-.124,1.593,2.359,1.584,2.482,0Z" fill="#333"/>
      <path id="Path_3" data-name="Path 3" d="M1.575,63.888a124.965,124.965,0,0,0,32.963,1.7c1.581-.13,1.6-2.613,0-2.482a122.475,122.475,0,0,1-32.3-1.612C.674,61.206,0,63.6,1.575,63.888Z" fill="#333"/>
    </g>
    <path id="Path_4" data-name="Path 4" d="M9.467,33.18a16.67,16.67,0,0,0,.677,11.615,1.25,1.25,0,0,0,1.7.445,1.273,1.273,0,0,0,.445-1.7,14.041,14.041,0,0,1-.427-9.7c.48-1.528-1.916-2.181-2.393-.66Z" fill="#333"/>
    <path id="Path_5" data-name="Path 5" d="M12.522,51.67c-.1-.084-.178-.188-.275-.269s0,.015.021.04c-.044-.056-.085-.119-.124-.179a3.66,3.66,0,0,1-.19-.333c-.025-.049-.048-.1-.073-.149.106.206,0-.014-.023-.064a9.394,9.394,0,0,1-.4-1.584c-.021-.12-.038-.241-.06-.361-.027-.144.005.052.007.068-.009-.071-.017-.141-.025-.212-.026-.248-.044-.5-.047-.746a5.461,5.461,0,0,1,.037-.734c-.036.3.019-.052.036-.122.031-.13.077-.254.115-.382.051-.169-.1.172-.008.024.026-.04.045-.088.069-.13.035-.061.211-.294.125-.2s.142-.132.18-.169c.067-.064.161-.074-.022.015.056-.027.108-.069.163-.1s.112-.058.168-.085c-.037.018-.187.04-.077.039a1.685,1.685,0,0,0,.319-.083c.041-.01.178-.006.022-.005-.179,0,.029,0,.073,0,.129,0,.257.008.386.013s-.075-.01-.087-.013c.063.016.13.024.193.039.113.026.225.058.335.1l.142.05c-.043-.014-.228-.11-.02-.007.121.059.24.12.355.19.045.027.321.215.2.13s.146.131.178.161c.076.073.148.149.218.228.051.059.1.119.151.18-.08-.1-.03-.038.015.03a6.785,6.785,0,0,1,.492.861c.026.053.05.107.074.16-.073-.161.005.012.033.085q.086.222.16.447c.208.622.363,1.261.514,1.9a1.25,1.25,0,0,0,1.823.741,1.757,1.757,0,0,0,.624-2.364,1.25,1.25,0,0,0-1.7-.445,1.269,1.269,0,0,0-.445,1.7.8.8,0,0,1,.266-1.032l1.823.742a11.928,11.928,0,0,0-1.49-4,5.107,5.107,0,0,0-3.385-2.3,3.771,3.771,0,0,0-3.853,1.572,5.571,5.571,0,0,0-.6,3.827c.209,1.6.563,3.366,1.828,4.481a1.241,1.241,0,1,0,1.755-1.755Z" fill="#333"/>
    <path id="Path_6" data-name="Path 6" d="M24.882,34.069c-.016.313-.038.626-.071.938-.038.372-.039.368-.1.735a17.159,17.159,0,0,1-.433,1.9,16.424,16.424,0,0,1-.619,1.775c-.032.078-.034.083-.006.013-.035.082-.072.164-.109.245q-.1.215-.2.426c-.148.3-.305.6-.469.892a1.241,1.241,0,1,0,2.143,1.252,18.682,18.682,0,0,0,2.346-8.175,1.249,1.249,0,0,0-1.241-1.241,1.269,1.269,0,0,0-1.241,1.241Z" fill="#333"/>
    <path id="Path_7" data-name="Path 7" d="M24.523,42.289a2.468,2.468,0,0,0-.838-.778,2.774,2.774,0,0,0-1.129-.3,2.842,2.842,0,0,0-1.942.679,3.5,3.5,0,0,0-1.06,1.682,4.971,4.971,0,0,0-.217,1.825,3.184,3.184,0,0,0,.862,2.1,2.928,2.928,0,0,0,1.832.786,3.494,3.494,0,0,0,1.743-.352,3.418,3.418,0,0,0,1.359-1.176,4.367,4.367,0,0,0,.715-1.99,7.805,7.805,0,0,0-.063-2.211,1.234,1.234,0,0,0-.571-.741,1.242,1.242,0,0,0-1.7.445,1.452,1.452,0,0,0-.125.956c.007.042.012.084.018.125L23.365,43a6.277,6.277,0,0,1,.023,1.591l.045-.33a3.951,3.951,0,0,1-.252.963l.125-.3a3.1,3.1,0,0,1-.373.642l.195-.252a2.332,2.332,0,0,1-.36.363l.251-.195a2.516,2.516,0,0,1-.521.3l.3-.125a2.525,2.525,0,0,1-.579.16l.33-.044a2.3,2.3,0,0,1-.586,0l.33.044a1.972,1.972,0,0,1-.412-.109l.3.125a1.614,1.614,0,0,1-.364-.211l.251.194a1.609,1.609,0,0,1-.236-.238l.194.251a1.813,1.813,0,0,1-.216-.378l.125.3a2.41,2.41,0,0,1-.132-.5l.044.33a3.991,3.991,0,0,1,.009-1.03l-.044.33a3.762,3.762,0,0,1,.249-.946l-.125.3a2.567,2.567,0,0,1,.3-.516l-.195.251a2.057,2.057,0,0,1,.333-.333l-.252.194a1.786,1.786,0,0,1,.31-.182l-.3.125a1.838,1.838,0,0,1,.448-.123l-.33.044a1.787,1.787,0,0,1,.407,0l-.33-.044a1.483,1.483,0,0,1,.335.091l-.3-.126a1.4,1.4,0,0,1,.253.148l-.251-.194a1.259,1.259,0,0,1,.175.175l-.194-.251.03.04a1.359,1.359,0,0,0,.742.571,1.242,1.242,0,0,0,1.527-.867,1.209,1.209,0,0,0-.125-.956Z" fill="#333"/>
    <path id="Path_8" data-name="Path 8" d="M7.783,11.43a29.738,29.738,0,0,0,20.724.145c1.487-.546.844-2.945-.66-2.394a27.585,27.585,0,0,1-19.4-.145C6.95,8.464,6.3,10.863,7.783,11.43Z" fill="#333"/>
    <path id="Path_9" data-name="Path 9" d="M17.432,4.359a2.344,2.344,0,0,1,2.751.515,2.787,2.787,0,0,1,.774,1.483,3.144,3.144,0,0,1-1.179,3.017,2.794,2.794,0,0,1-1.574.565,2.355,2.355,0,0,1-2.379-1.477A2.855,2.855,0,0,0,17.934,8.4a1.94,1.94,0,0,0,1-1.1,1.918,1.918,0,0,0,.01-1.484A2.8,2.8,0,0,0,17.432,4.359Z" fill="#333"/>
  </g>
</svg>
