<svg xmlns="http://www.w3.org/2000/svg" width="26.026" height="25.496" viewBox="0 0 26.026 25.496">
  <g id="Group_2" data-name="Group 2" transform="translate(0.5 0.218)">
    <g id="Group_1" data-name="Group 1">
      <path id="Path_1" data-name="Path 1" d="M8.532,5.536" fill="none" stroke="#fff" stroke-miterlimit="10" stroke-width="1"/>
      <path id="Path_2" data-name="Path 2" d="M19.488,6.594a9.075,9.075,0,0,0-.692-.762l.522-1.24h0a1.18,1.18,0,0,0,1.66-.175h0a1.18,1.18,0,0,0-.176-1.66l-1.145-.927A1.18,1.18,0,0,0,18,2.005h0a1.18,1.18,0,0,0,.175,1.66l.159.128-1.113.8a8.859,8.859,0,0,0-2.894-1.141L14.272,2.7h.005A1.179,1.179,0,0,0,15.3,1.613h0A1.18,1.18,0,0,0,14.214.348L13.377.286a1.18,1.18,0,0,0-1.265,1.089h0a1.181,1.181,0,0,0,.938,1.244l-.256.663h0c-.081,0-.163,0-.245,0a8.933,8.933,0,0,0-2.333.309L9.544,2.547a1.18,1.18,0,0,0,.545-1.462h0A1.181,1.181,0,0,0,8.564.4L7.292.891a1.18,1.18,0,0,0-.68,1.524h0A1.18,1.18,0,0,0,8.136,3.1l.109-.042L8.39,4.307A8.963,8.963,0,0,0,5.9,6.252l-.569-.175A1.212,1.212,0,0,0,4.96,4.715h0a1.211,1.211,0,0,0-1.7.18l-.5.617a1.211,1.211,0,0,0,.18,1.7h0a1.211,1.211,0,0,0,1.62-.088" fill="none" stroke="#fff" stroke-miterlimit="10" stroke-width="1"/>
      <path id="Path_3" data-name="Path 3" d="M4.348,15.7a8.962,8.962,0,0,0,.517,1.021l-.764.989L4.09,17.7A1.144,1.144,0,0,0,2.5,17.428h0a1.144,1.144,0,0,0-.274,1.6l.511.724a1.145,1.145,0,0,0,1.6.274h0A1.145,1.145,0,0,0,4.7,18.6l1.17-.493a8.955,8.955,0,0,0,2.8,2.125L8.558,21.8h.019a1.252,1.252,0,0,0-1.629.695h0a1.252,1.252,0,0,0,.7,1.629l1.248.5a1.252,1.252,0,0,0,1.629-.7h0a1.252,1.252,0,0,0-.7-1.629l-.144-.058.881-1.354a8.966,8.966,0,0,0,4.433-.117l.775,1.133a1.135,1.135,0,0,0-.508,1.42h0a1.134,1.134,0,0,0,1.477.627l1.384-.558a1.134,1.134,0,0,0,.627-1.477h0a1.136,1.136,0,0,0-1.477-.628l-.1.039L17,19.928A8.933,8.933,0,0,0,19.2,18.135l.869.307a1.24,1.24,0,0,0,.4,1.346h0a1.24,1.24,0,0,0,1.742-.184l.313-.387a1.24,1.24,0,0,0-.184-1.742h0a1.239,1.239,0,0,0-1.644.076l-.553-.692.017-.015a8.829,8.829,0,0,0,.909-2.009l1.338-.041a1.124,1.124,0,0,0,.866,1.241h0a1.125,1.125,0,0,0,1.345-.847l.353-1.558a1.124,1.124,0,0,0-.847-1.345h0a1.124,1.124,0,0,0-1.345.848l-.052.229-1.281-.569q.019-.3.02-.6a8.925,8.925,0,0,0-.349-2.477l.486-.364a1.277,1.277,0,0,0,1.472.543h0A1.275,1.275,0,0,0,23.9,8.3l-.282-.886a1.275,1.275,0,0,0-1.6-.828h0a1.275,1.275,0,0,0-.828,1.6V8.2l-.648.044v0a8.809,8.809,0,0,0-.432-.772" fill="none" stroke="#fff" stroke-miterlimit="10" stroke-width="1"/>
      <path id="Path_4" data-name="Path 4" d="M4.554,7.131l.367.446a8.871,8.871,0,0,0-1.242,3.708l0-.041-1.268.267a1.212,1.212,0,0,0-1.2-1.076h0A1.211,1.211,0,0,0,0,11.646v1.321a1.211,1.211,0,0,0,1.211,1.211h0a1.211,1.211,0,0,0,1.211-1.211v-.1l1.261.287a8.842,8.842,0,0,0,.3,1.534" fill="none" stroke="#fff" stroke-miterlimit="10" stroke-width="1"/>
      <circle id="Ellipse_1" data-name="Ellipse 1" cx="1.376" cy="1.376" r="1.376" transform="translate(6.44 14.894)" fill="none" stroke="#fff" stroke-miterlimit="10" stroke-width="1"/>
      <circle id="Ellipse_2" data-name="Ellipse 2" cx="1.596" cy="1.596" r="1.596" transform="translate(10.293 13.132)" fill="none" stroke="#fff" stroke-miterlimit="10" stroke-width="1"/>
      <circle id="Ellipse_3" data-name="Ellipse 3" cx="1.156" cy="1.156" r="1.156" transform="translate(12.385 17.316)" fill="none" stroke="#fff" stroke-miterlimit="10" stroke-width="1"/>
      <circle id="Ellipse_4" data-name="Ellipse 4" cx="1.266" cy="1.266" r="1.266" transform="translate(15.908 12.692)" fill="none" stroke="#fff" stroke-miterlimit="10" stroke-width="1"/>
      <ellipse id="Ellipse_5" data-name="Ellipse 5" cx="1.651" cy="1.349" rx="1.651" ry="1.349" transform="translate(14.697 7.132)" fill="none" stroke="#fff" stroke-miterlimit="10" stroke-width="1"/>
      <path id="Path_5" data-name="Path 5" d="M11.139,11.3a2.566,2.566,0,0,1-3.391-.031,2.656,2.656,0,0,1,.514-3.683,2.656,2.656,0,0,1,3.711-.232,2.516,2.516,0,0,1-.083,3.2" fill="none" stroke="#fff" stroke-miterlimit="10" stroke-width="1"/>
    </g>
  </g>
</svg>
