<svg viewBox="0 0 512 512" xmlns="http://www.w3.org/2000/svg"><g fill="#696969"><path d="m487.33 74h-462.66a24.75 24.75 0 0 0 -24.67 24.7v314.6a24.75 24.75 0 0 0 24.67 24.7h462.65a24.75 24.75 0 0 0 24.68-24.7v-314.6a24.75 24.75 0 0 0 -24.67-24.7zm-468.82 24.7a6.24 6.24 0 0 1 6.16-6.17h462.65a6.25 6.25 0 0 1 6.17 6.17v30.84h-475zm475 314.6a6.25 6.25 0 0 1 -6.17 6.17h-462.67a6.25 6.25 0 0 1 -6.16-6.17v-191.23h475zm0-209.73h-475v-55.52h475z"/><path d="m416.39 283.76a52.27 52.27 0 0 0 -37 15.3 52.43 52.43 0 1 0 0 74.26 52.43 52.43 0 1 0 37-89.56zm0 86.36a33.72 33.72 0 0 1 -23.95-9.9 18.51 18.51 0 0 0 -26.13 0 33.93 33.93 0 1 1 0-48.06 18.51 18.51 0 0 0 26.13 0 33.93 33.93 0 1 1 23.95 58z"/><path d="m203.57 302.27h-148a9.25 9.25 0 1 0 0 18.5h148a9.25 9.25 0 0 0 0-18.5z"/><path d="m123.39 345.45h-67.87a9.25 9.25 0 1 0 0 18.5h67.87a9.25 9.25 0 0 0 0-18.5z"/></g></svg>