<svg width="24" height="24" viewBox="0 0 24 24" fill="none" xmlns="http://www.w3.org/2000/svg">
<path d="M17.032 4.45903L8.81862 9.20103C8.65784 9.29386 8.54053 9.44675 8.49248 9.62608C8.44443 9.8054 8.46958 9.99647 8.56241 10.1572L11.8549 15.86C11.9477 16.0208 12.1006 16.1381 12.2799 16.1862C12.4593 16.2342 12.6503 16.2091 12.8111 16.1162L21.0271 11.3727C21.1879 11.2799 21.3052 11.127 21.3533 10.9477C21.4013 10.7684 21.3761 10.5773 21.2833 10.4165L17.9908 4.71375C17.9447 4.63392 17.8833 4.56398 17.8101 4.50794C17.737 4.45191 17.6534 4.41088 17.5643 4.38721C17.4752 4.36354 17.3824 4.3577 17.291 4.37003C17.1997 4.38235 17.1116 4.4126 17.032 4.45903V4.45903ZM20.9482 10.61C20.9901 10.6826 21.0014 10.7689 20.9797 10.8498C20.958 10.9308 20.9051 10.9998 20.8325 11.0417L12.6191 15.7837C12.5465 15.8256 12.4603 15.8369 12.3793 15.8153C12.2984 15.7936 12.2294 15.7406 12.1875 15.668L9.85396 11.6263L18.6147 6.56829L20.9482 10.61ZM17.9482 5.41387L9.18573 10.4729L8.89323 9.96625C8.87208 9.93015 8.85831 9.89021 8.85272 9.84876C8.84713 9.8073 8.84982 9.76514 8.86065 9.72473C8.87148 9.68432 8.89022 9.64646 8.91579 9.61335C8.94137 9.58024 8.97326 9.55254 9.00962 9.53185L17.2256 4.78835C17.2984 4.74722 17.3846 4.73664 17.4652 4.75893C17.5458 4.78121 17.6143 4.83455 17.6557 4.90725L17.9482 5.41387Z" fill="#999999"/>
<path d="M19.4512 11.3809C19.5594 11.318 19.6454 11.2232 19.6974 11.1094C19.8224 11.1216 19.948 11.0943 20.0566 11.0314C20.1397 10.9836 20.2103 10.9168 20.2628 10.8365C20.3153 10.7563 20.3481 10.6648 20.3586 10.5694C20.3691 10.4741 20.357 10.3777 20.3232 10.2879C20.2895 10.1981 20.235 10.1176 20.1643 10.0528C20.0936 9.98806 20.0086 9.94088 19.9162 9.91511C19.8238 9.88935 19.7267 9.88572 19.6326 9.90454C19.5386 9.92335 19.4503 9.96407 19.375 10.0234C19.2996 10.0827 19.2393 10.159 19.1989 10.246C19.1038 10.2379 19.008 10.2524 18.9195 10.2883C18.8309 10.3241 18.7521 10.3802 18.6892 10.4521C18.6264 10.5241 18.5813 10.6098 18.5577 10.7023C18.5341 10.7949 18.5326 10.8917 18.5534 10.985C18.5741 11.0782 18.6165 11.1653 18.677 11.2391C18.7376 11.3129 18.8147 11.3715 18.9021 11.41C18.9895 11.4486 19.0848 11.466 19.1801 11.461C19.2755 11.4559 19.3684 11.4285 19.4512 11.3809V11.3809ZM19.4377 10.3194C19.4691 10.264 19.5145 10.2179 19.5694 10.1856C19.6535 10.1371 19.7534 10.124 19.8472 10.1491C19.9409 10.1742 20.0209 10.2355 20.0694 10.3196C20.1179 10.4037 20.1311 10.5036 20.106 10.5973C20.0808 10.6911 20.0195 10.771 19.9354 10.8196C19.8801 10.8511 19.8174 10.8673 19.7537 10.8668C19.7571 10.7552 19.7294 10.6448 19.6736 10.5481C19.6178 10.4514 19.5361 10.3722 19.4377 10.3194V10.3194Z" fill="#999999"/>
<path d="M14.1493 10.4309H4.66533C4.47968 10.4309 4.30163 10.5047 4.17036 10.6359C4.03908 10.7672 3.96533 10.9453 3.96533 11.1309V17.7179C3.96533 17.9036 4.03908 18.0816 4.17036 18.2129C4.30163 18.3442 4.47968 18.4179 4.66533 18.4179H14.1523C14.338 18.4179 14.516 18.3442 14.6473 18.2129C14.7786 18.0816 14.8523 17.9036 14.8523 17.7179V11.1279C14.8519 11.036 14.8334 10.945 14.7979 10.8603C14.7624 10.7755 14.7105 10.6985 14.6452 10.6338C14.5799 10.5691 14.5025 10.5179 14.4174 10.483C14.3324 10.4482 14.2413 10.4305 14.1493 10.4309ZM14.4653 17.7159C14.4653 17.7997 14.432 17.8801 14.3728 17.9394C14.3135 17.9986 14.2331 18.0319 14.1493 18.0319H4.66533C4.58152 18.0319 4.50115 17.9986 4.44189 17.9394C4.38263 17.8801 4.34933 17.7997 4.34933 17.7159V18.2009H14.4653V17.7159ZM14.4653 10.6689L4.34733 10.8129V11.1289C4.34733 11.0451 4.38062 10.9647 4.43989 10.9055C4.49915 10.8462 4.57952 10.8129 4.66333 10.8129H14.1503C14.2341 10.8129 14.3145 10.8462 14.3738 10.9055C14.433 10.9647 14.4663 11.0451 14.4663 11.1289L14.4653 10.6689Z" fill="#999999"/>
<path d="M3.2832 12.2791H15.5232" stroke="white"/>
</svg>
