<svg xmlns="http://www.w3.org/2000/svg" width="163.48" height="149.161" viewBox="0 0 163.48 149.161">
  <g id="Group_204" data-name="Group 204" transform="translate(18654.738 -3188.254)">
    <path id="Path_1325" data-name="Path 1325" d="M4757.181,3519.217c-21.956-14.032-50.2-11.815-76.036-8.416-18.194,2.393-37.295,4.98-55.145,2.239v119.572c19.486,13.432,40.717,23.577,64.058,24.7,27.334,1.317,54.166-10.361,75.28-27.769,8.455-6.971,16.33-15.136,20.5-25.271,4.139-10.066,4.308-21.376,2.7-32.14C4785.414,3551.223,4775,3530.6,4757.181,3519.217Z" transform="translate(-23280.738 -320)" fill="#ffd9ad"/>
    <path id="Path_1323" data-name="Path 1323" d="M42.57,472.05c-2.91-3.16-6.12-6.26-10-8.22a23.58,23.58,0,0,0-12.27-2.48A21.9,21.9,0,0,0,1.44,475,23.29,23.29,0,0,0,.2,486.5a53.341,53.341,0,0,0,.91,6.17,25.911,25.911,0,0,0,2.13,5.76,85.32,85.32,0,0,0,13.42,20,81.469,81.469,0,0,0,18.51,15.29c1.86,1.12,4,2.71,6.28,2.3,2-.36,3.88-2,5.51-3.2a117.225,117.225,0,0,0,10.55-8.58,132.643,132.643,0,0,0,9.42-9.55,96.146,96.146,0,0,0,8.59-10.71,33,33,0,0,0,4.89-25.4A27.39,27.39,0,0,0,75.08,467c-2.92-3.55-7.38-5.12-11.81-5.68a26.43,26.43,0,0,0-21,6.88,24.08,24.08,0,0,0-3.6,4.33c-1.78,2.69,2.55,5.2,4.32,2.52a20.78,20.78,0,0,1,15.63-8.87,18.37,18.37,0,0,1,9.8,1.73c3.17,1.68,5,5.09,6.16,8.37a27.43,27.43,0,0,1-1.22,21.48,52.429,52.429,0,0,1-6.93,9.86q-3.9,4.64-8.16,8.93a120.66,120.66,0,0,1-8.93,8.14q-2.31,1.89-4.71,3.63c-.78.56-1.55,1.1-2.34,1.64-.42.28-.83.57-1.25.83a2.36,2.36,0,0,1-.48.29h.15a11.185,11.185,0,0,1-2.16-1.2c-.8-.46-1.58-.94-2.35-1.43q-2.235-1.41-4.37-3a73.847,73.847,0,0,1-8-6.8,79.6,79.6,0,0,1-13-16.68c-1.74-3-3.68-6.15-4.59-9.49a38.11,38.11,0,0,1-1.29-10,16.69,16.69,0,0,1,10.27-14.91c6.92-2.75,14.38-.8,19.83,4a54.459,54.459,0,0,1,4,4c2.19,2.37,5.72-1.17,3.54-3.54Z" transform="translate(-18624.699 2770.011)" fill="#fff"/>
    <path id="Path_1324" data-name="Path 1324" d="M4.63,507c5.49-.42,11.05-.61,16.51-1.31,2.38-.3,4.65-1.07,6.05-3.15a14.191,14.191,0,0,0,1.24-2.75c.11-.28.19-.35.33-.72s0-.14,0-.05-.63.18.07.08L26,497.92a46.352,46.352,0,0,0,5.52,8c1.35,1.59,3.53.47,4.17-1.1a184.278,184.278,0,0,1,8.49-17.91l-4.57-.6L46.1,515c.57,2.56,4.07,2.19,4.82,0l5.19-15.14-4.57.59,2,3.74a9.53,9.53,0,0,0,2.31,3.28,5.15,5.15,0,0,0,3.88.83l4.62-.53,18-2.06a2.57,2.57,0,0,0,2.5-2.5,2.52,2.52,0,0,0-2.5-2.5l-16.07,1.84a71.533,71.533,0,0,1-7.57.84c.15,0,.11.34,0-.18a9.939,9.939,0,0,0-.95-1.75l-1.92-3.53c-1.08-2-3.9-1.34-4.57.6L46.1,513.65h4.82l-6.47-28.71a2.53,2.53,0,0,0-4.57-.6,199.09,199.09,0,0,0-9,19.11l4.18-1.1a40.69,40.69,0,0,1-4.74-7,2.56,2.56,0,0,0-2.82-1.14c-2.19.32-3.19,2.33-3.9,4.18a3.8,3.8,0,0,1-.79,1.58,4,4,0,0,1-2,.7c-2.51.38-5.11.41-7.63.6L4.63,502a2.5,2.5,0,1,0,0,5Z" transform="translate(-18624.699 2770.011)" fill="#fff"/>
  </g>
</svg>
