<svg xmlns="http://www.w3.org/2000/svg" width="163.48" height="149.161" viewBox="0 0 163.48 149.161">
  <g id="Group_206" data-name="Group 206" transform="translate(18654.738 -2749.254)">
    <path id="Path_1318" data-name="Path 1318" d="M4757.181,3080.217c-21.956-14.032-50.2-11.815-76.036-8.416-18.194,2.393-37.295,4.98-55.145,2.239v119.572c19.486,13.432,40.717,23.577,64.058,24.7,27.334,1.317,54.166-10.361,75.28-27.769,8.455-6.971,16.33-15.136,20.5-25.271,4.139-10.066,4.308-21.376,2.7-32.14C4785.414,3112.223,4775,3091.6,4757.181,3080.217Z" transform="translate(-23280.738 -320)" fill="#ffc4cf"/>
    <g id="Group_203" data-name="Group 203" transform="translate(-23280.738 -320)">
      <path id="Path_74" data-name="Path 74" d="M4699.264,3092.971a100.27,100.27,0,0,0-19.554,25.83c-4.543,8.612-7.851,18.065-8.078,27.8s2.888,19.786,9.73,26.713,17.648,10.167,26.79,6.816c10.056-3.686,16.282-14.54,16.805-25.236s-3.783-21.121-9.6-30.112c-6.735-10.408-15.969-20.6-15.716-32.992" fill="none" stroke="#fff" stroke-miterlimit="10" stroke-width="1"/>
      <path id="Path_75" data-name="Path 75" d="M4713.513,3141.607c5.2,7.107,4.055,18.091-2.5,23.97" fill="none" stroke="#fff" stroke-miterlimit="10" stroke-width="1"/>
    </g>
    <path id="Path_1317" data-name="Path 1317" d="M41.71,1.83c-11.54,11-21.17,25.07-25.86,40.41-4.48,14.67-3.29,32.25,8.09,43.6a30.21,30.21,0,0,0,18.93,8.68,25.07,25.07,0,0,0,19.05-6.88,32.17,32.17,0,0,0,9.27-17.86,43.38,43.38,0,0,0-2.86-22.87c-2.91-7.39-7.26-13.83-11.76-20.32-4.08-5.88-8.32-12.06-9.78-19.19a23.22,23.22,0,0,1-.44-5c0-3.21-5-3.22-5,0C41.17,17.18,52.53,28.06,59.46,40,66.24,51.72,70,66.56,62.56,78.89a21.58,21.58,0,0,1-13.9,10.32c-6.09,1.26-12.55-.55-17.63-4-11.7-7.85-14.41-23.75-11.65-36.68A73.06,73.06,0,0,1,28,27.27,97.441,97.441,0,0,1,41.27,9.36q1.92-2.055,4-4C47.57,3.14,44-.39,41.71,1.83Z" transform="translate(-18624.699 2768.011)" fill="#fff"/>
  </g>
</svg>
