<svg xmlns="http://www.w3.org/2000/svg" width="163.48" height="149.161" viewBox="0 0 163.48 149.161">
  <g id="Group_205" data-name="Group 205" transform="translate(18654.738 -2964.254)">
    <path id="Path_1322" data-name="Path 1322" d="M4757.181,3295.217c-21.956-14.032-50.2-11.815-76.036-8.416-18.194,2.393-37.295,4.98-55.145,2.239v119.572c19.486,13.432,40.717,23.577,64.058,24.7,27.334,1.317,54.166-10.361,75.28-27.769,8.455-6.971,16.33-15.136,20.5-25.271,4.139-10.066,4.308-21.376,2.7-32.14C4785.414,3327.223,4775,3306.6,4757.181,3295.217Z" transform="translate(-23280.738 -320)" fill="#baecff"/>
    <path id="Path_1319" data-name="Path 1319" d="M6,243a165.542,165.542,0,0,0-.69,28c.3,4.69.77,9.38,1.49,14,.57,3.73,1.67,7.66,4.5,10.35,3,2.84,7.08,3.67,11.05,4,4.62.42,9.28.57,13.91.74s9.47.28,14.21.32a87.839,87.839,0,0,0,11.81-.35,21.92,21.92,0,0,0,9.83-3.25,15.23,15.23,0,0,0,6.13-9.71,87.111,87.111,0,0,0,1.26-13.49c.21-4.78.24-9.57.19-14.36s-.19-9.41-.34-14.11c-.12-4.23-.54-8.38-3.61-11.57-5.18-5.4-14-5.59-20.9-6a282.2,282.2,0,0,0-28.35.14c-2.32.1-4.64.19-7,.32a20.8,20.8,0,0,0-6.17,1,10.13,10.13,0,0,0-6.71,8c-.3,1.7-.37,3.43-.62,5.13a2.59,2.59,0,0,0,1.75,3.08,2.53,2.53,0,0,0,3.08-1.75c.36-2.49.08-6.2,1.76-8.18,2.16-2.56,6.41-2.3,9.43-2.44,8.71-.4,17.42-.77,26.14-.6,4.33.09,8.66.31,13,.74a24.079,24.079,0,0,1,8.16,2,8.06,8.06,0,0,1,4.84,6.4,57.217,57.217,0,0,1,.28,6.14c.06,2.23.13,4.46.17,6.69a246.624,246.624,0,0,1-.54,26.22c-.29,3.45-.48,7.49-2.73,10.32a12,12,0,0,1-6.92,3.81,40.531,40.531,0,0,1-9.2.78q-6.62,0-13.22-.16t-13.21-.52c-3.62-.19-7.47-.12-11-1.27-3.14-1-4.75-3.5-5.56-6.58a69.309,69.309,0,0,1-1.62-11.57,165.181,165.181,0,0,1-.27-26.13q.22-3.17.57-6.33a2.52,2.52,0,0,0-2.5-2.5A2.56,2.56,0,0,0,6,243Z" transform="translate(-18623.699 2769.528)" fill="#fff"/>
    <path id="Path_1321" data-name="Path 1321" d="M18.51,251.46c9.46,9.71,24.27,11,36.55,6.55a52.15,52.15,0,0,0,9.34-4.5c1.4-.86,2.72-2,2.72-3.78,0-1.95-1.76-3.38-3-4.7l-3.54-3.93c-1.12-1.24-2.19-2.72-3.73-3.44-3.31-1.53-6.18,1.5-9.16,2.52a18.36,18.36,0,0,1-17.12-2.69,2.55,2.55,0,0,0-3.93.5c-2.21,3.41-4.27,7.15-7.64,9.58a2.57,2.57,0,0,0-.89,3.42,2.51,2.51,0,0,0,3.42.89c4.13-3,6.71-7.16,9.43-11.36l-3.93.5a23.55,23.55,0,0,0,19.32,4.69,22,22,0,0,0,4.81-1.56A20.461,20.461,0,0,0,53.33,243a8.05,8.05,0,0,0,1.14-.66c.05,0,.56-.24.24-.27.44,0,1.45,1.5,1.73,1.81l2.09,2.32,2.1,2.33c.36.4,1.51,1.4,1.58,1.82v-1.33a.49.49,0,0,0,.31-.27l-.64.4-1.14.68c-.9.51-1.81,1-2.73,1.46a41.14,41.14,0,0,1-5.54,2.29,35.74,35.74,0,0,1-11.41,1.94,26.6,26.6,0,0,1-19-7.64c-2.25-2.3-5.79,1.23-3.54,3.54Z" transform="translate(-18623.699 2769.528)" fill="#fff"/>
    <path id="Path_1320" data-name="Path 1320" d="M36.08,250.81,39.6,245a2.58,2.58,0,0,0,.25-1.92,2.5,2.5,0,0,0-4.57-.6l-3.52,5.86a2.6,2.6,0,0,0-.25,1.93,2.5,2.5,0,0,0,4.57.59Z" transform="translate(-18623.699 2769.528)" fill="#fff"/>
  </g>
</svg>
