<svg viewBox="0 0 24 24" xmlns="http://www.w3.org/2000/svg"><path d="m19.7 10.46h-.35v-3.13a7.35 7.35 0 0 0 -14.7 0 .67.67 0 0 0 1.35 0 6 6 0 0 1 12 0v3.13h-13.7a1.3 1.3 0 0 0 -1.3 1.3v8.35a3.9 3.9 0 0 0 3.9 3.89h10.2a3.9 3.9 0 0 0 3.9-3.89v-8.35a1.3 1.3 0 0 0 -1.3-1.3zm-.05 9.65a2.55 2.55 0 0 1 -2.55 2.55h-10.2a2.55 2.55 0 0 1 -2.55-2.55v-8.31h15.3zm-7.15-.11a2.5 2.5 0 1 0 -2.5-2.5 2.5 2.5 0 0 0 2.5 2.5zm0-3.67a1.17 1.17 0 1 1 -1.16 1.17 1.17 1.17 0 0 1 1.16-1.17z" fill="#696969" fill-rule="evenodd"/></svg>