<svg xmlns="http://www.w3.org/2000/svg" width="70.674" height="74.752" viewBox="0 0 70.674 74.752">
  <g id="Group_10" data-name="Group 10" transform="translate(-1.415 -0.492)">
    <g id="Group_9" data-name="Group 9">
      <path id="Path_1" data-name="Path 1" d="M59.886,75.244H13.4a7.262,7.262,0,0,1-7.34-7.34V31.2a7.289,7.289,0,0,1,2.316-5.269L31.618,2.691a7.121,7.121,0,0,1,10.293,0L65.244,26.036A8.2,8.2,0,0,1,67.226,31.2V67.9A7.262,7.262,0,0,1,59.886,75.244ZM36.765,2.937a4.824,4.824,0,0,0-3.417,1.484L10.1,27.665a4.933,4.933,0,0,0-1.6,3.539V67.9A4.841,4.841,0,0,0,13.4,72.8H59.886A4.841,4.841,0,0,0,64.779,67.9V31.2a5.72,5.72,0,0,0-1.4-3.588L40.182,4.421A4.825,4.825,0,0,0,36.765,2.937Z" fill="#262626"/>
      <path id="Path_2" data-name="Path 2" d="M1.782,34.511h0a1.182,1.182,0,0,1,0-1.712l7.585-7.83a1.182,1.182,0,0,1,1.712,0h0a1.182,1.182,0,0,1,0,1.713L3.495,34.511A1.182,1.182,0,0,1,1.782,34.511Z" fill="#262626"/>
      <path id="Path_3" data-name="Path 3" d="M71.722,34.385h0a1.182,1.182,0,0,0,0-1.713l-7.584-7.83a1.184,1.184,0,0,0-1.713,0h0a1.184,1.184,0,0,0,0,1.713l7.585,7.83A1.182,1.182,0,0,0,71.722,34.385Z" fill="#262626"/>
      <g id="Group_8" data-name="Group 8">
        <g id="Group_7" data-name="Group 7">
          <g id="Group_1" data-name="Group 1">
            <path id="Path_4" data-name="Path 4" d="M36.349,37.507H51.677V35.781H37.253V33.447l.076-.042c3.014-1.563,4.541-3.7,4.541-6.367a7.333,7.333,0,0,0-14.662,0c0,2.839,1.8,5.242,4.948,6.595l.085.037.033,2.111H21.609v1.726H33.188a.918.918,0,0,0,.644-.26.824.824,0,0,0,.256-.614l-.056-3.558a.868.868,0,0,0-.581-.794c-1.659-.6-4.442-2.087-4.442-5.243a5.532,5.532,0,0,1,11.062,0c0,2.122-1.31,3.746-4.124,5.116a.855.855,0,0,0-.5.765v3.724a.833.833,0,0,0,.262.608.926.926,0,0,0,.636.256" fill="#262626"/>
          </g>
          <g id="Group_2" data-name="Group 2">
            <path id="Path_5" data-name="Path 5" d="M45.461,54.343h6.216V52.69h-5.34l.016-.966.082-.037a4.819,4.819,0,0,0,3.024-4.5,5.1,5.1,0,0,0-10.2,0,5.207,5.207,0,0,0,2.759,4.471l.074.039v1H38.083v1.653h4.871a.877.877,0,0,0,.611-.244.807.807,0,0,0,.251-.584V51.194a.816.816,0,0,0-.472-.737c-1.654-.8-2.36-1.872-2.36-3.273a3.374,3.374,0,0,1,6.747,0A3.241,3.241,0,0,1,45.193,50.4a.828.828,0,0,0-.554.762L44.6,53.5a.8.8,0,0,0,.247.59.881.881,0,0,0,.615.252" fill="#262626"/>
          </g>
          <g id="Group_3" data-name="Group 3">
            <path id="Path_6" data-name="Path 6" d="M33.731,39.1a.915.915,0,0,0-.724-.351h-11.4V40.47H31.8L23.6,66.3h1.882l8.385-26.447a.84.84,0,0,0-.137-.76" fill="#262626"/>
          </g>
          <g id="Group_4" data-name="Group 4">
            <path id="Path_7" data-name="Path 7" d="M51.676,38.744H36.019a.881.881,0,0,0-.9.862V66.3h1.8V40.47H51.676Z" fill="#262626"/>
          </g>
          <g id="Group_5" data-name="Group 5">
            <path id="Path_8" data-name="Path 8" d="M43.824,66.4V56.05a.847.847,0,0,0-.863-.827H38.083v1.655H42.1V66.4Z" fill="#262626"/>
          </g>
          <g id="Group_6" data-name="Group 6">
            <path id="Path_9" data-name="Path 9" d="M51.676,56.878V55.223H45.581a.873.873,0,0,0-.695.338.827.827,0,0,0-.133.729l3,10.115h1.8l-2.809-9.527Z" fill="#262626"/>
          </g>
        </g>
      </g>
    </g>
  </g>
</svg>
