<svg xmlns="http://www.w3.org/2000/svg" width="67.222" height="78.782" viewBox="0 0 67.222 78.782">
  <g id="Group_1" data-name="Group 1" transform="translate(0.97 0.982)">
    <path id="Path_1" data-name="Path 1" d="M27.857,22.493a4.081,4.081,0,0,0-5.769.215l-.054.058a4.632,4.632,0,0,0,.286,5.989,3.677,3.677,0,0,0,3.557,1.138,3.883,3.883,0,0,0,1.878-1.337,6.081,6.081,0,0,0,.222-7.185" fill="#00a147" stroke="#333" stroke-linecap="round" stroke-linejoin="round" stroke-width="2.5"/>
    <path id="Path_2" data-name="Path 2" d="M45.087,22.493a4.083,4.083,0,0,0-5.77.215l-.053.058a4.636,4.636,0,0,0,.283,5.989,3.682,3.682,0,0,0,3.572,1.138A3.9,3.9,0,0,0,45,28.556a6.089,6.089,0,0,0,.209-7.185" fill="#00a147" stroke="#333" stroke-linecap="round" stroke-linejoin="round" stroke-width="2.5"/>
    <path id="Path_3" data-name="Path 3" d="M20.549,25.425a4.172,4.172,0,0,0-5.322,2.547l-.019.054a12.1,12.1,0,0,0-.03,6.614l.908,4.942c1.044,5.693,2.478,11.994,7.3,15.211A15.516,15.516,0,0,0,28.233,56.8a18,18,0,0,0,10.857-.255A17.269,17.269,0,0,0,48.5,46.174a40.935,40.935,0,0,0,1.95-14.224,10.249,10.249,0,0,0-.712-4.532,3.684,3.684,0,0,0-3.7-2.22" fill="none" stroke="#333" stroke-linecap="round" stroke-linejoin="round" stroke-width="2.5"/>
    <path id="Path_4" data-name="Path 4" d="M23.515,45.273a9.294,9.294,0,0,0,3.451,4.981,9.679,9.679,0,0,0,3,1.237,11.15,11.15,0,0,0,6.726-.156,10.707,10.707,0,0,0,5.827-6.421" fill="none" stroke="#333" stroke-linecap="round" stroke-linejoin="round" stroke-width="2.5"/>
    <path id="Path_5" data-name="Path 5" d="M26.712,65.868a4.92,4.92,0,0,0-6.239-1.079A7.093,7.093,0,0,0,17.2,70.576c-.153,2.769,1.628,5.981,4.4,5.974,2.385,0,4.131-2.363,4.7-4.68a7.234,7.234,0,0,0-2.131-7.538" fill="#00a147" stroke="#333" stroke-linecap="round" stroke-linejoin="round" stroke-width="2.5"/>
    <path id="Path_6" data-name="Path 6" d="M34.951,58.437c-.24,1.965-.826,7.6-1.066,9.564a2.289,2.289,0,0,0,.074,1.225,2.1,2.1,0,0,0,1.168.934,21.546,21.546,0,0,0,9.011,1.161q7.767-.168,15.522-.957A5.333,5.333,0,0,0,63.031,69.2a5.087,5.087,0,0,0,1.133-2.766,88.72,88.72,0,0,0,.454-20.373l-.663-12.1a23.588,23.588,0,0,0-1.361-7.946c-1.714-4.065-5.5-6.8-8.979-9.516A119.8,119.8,0,0,1,39.657,3.667a8.037,8.037,0,0,0-5.563-3.4,7.616,7.616,0,0,0-4.052,1.868q-13.5,9.9-26.181,20.87a10.429,10.429,0,0,0-2.789,3.182A10.561,10.561,0,0,0,.36,30.7Q.2,48.34.311,65.98a5.949,5.949,0,0,0,.312,2.269c.839,2,3.432,2.449,5.6,2.551q5.061.231,10.126,0" fill="none" stroke="#333" stroke-linecap="round" stroke-linejoin="round" stroke-width="2.5"/>
  </g>
</svg>
