<svg xmlns="http://www.w3.org/2000/svg" width="183.301" height="158.169" viewBox="0 0 183.301 158.169">
  <g id="Group_4" data-name="Group 4" transform="translate(0 0)">
    <g id="Group_1" data-name="Group 1">
      <path id="Path_1" data-name="Path 1" d="M44.819,6.333c-4.846-5.078-14.111-4.473-18.657.873S22.218,21.328,27.07,26.4c2.9,3.03,7.37,4.809,11.4,3.644a12.512,12.512,0,0,0,6.019-4.287A19.492,19.492,0,0,0,45.2,2.741" fill="#fff"/>
      <path id="Path_2" data-name="Path 2" d="M46.763,4.389C42.21-.235,35.087-.96,29.294,1.565c-6.01,2.618-9.359,9.089-8.941,15.513.453,6.972,4.79,13.387,11.625,15.482,7.47,2.29,14.353-2.762,17.336-9.423A22.405,22.405,0,0,0,47.572,1.354,2.822,2.822,0,0,0,43.811.368a2.771,2.771,0,0,0-.986,3.761A16.857,16.857,0,0,1,45.26,18.292c-1.2,4.389-4.69,9.551-9.77,9.353-4.953-.193-8.5-4.628-9.432-9.079-.864-4.1.5-8.978,4.16-11.288,3.939-2.489,9.374-2.336,12.657,1,2.486,2.526,6.373-1.362,3.888-3.887Z" fill="#040506"/>
    </g>
    <path id="Path_3" data-name="Path 3" d="M22.787,13.354C14.17,9.03,4.545,15.481,1.476,23.745-.5,29.066-.168,34.885.61,40.4c.8,5.642,1.974,11.242,3,16.845C6.788,74.559,9.9,94.1,22.892,107.12c7.411,7.424,17.5,11.084,27.642,12.935,10.63,1.939,21.93,1.807,32.031-2.387,18.017-7.478,29.144-25.22,33.709-43.553,2.708-10.873,3.476-22.151,3.62-33.322.126-9.725.383-22.763-10.146-27.486a12.715,12.715,0,0,0-7.431-.97,2.77,2.77,0,0,0-1.92,3.382,2.817,2.817,0,0,0,3.382,1.92c3.541-.56,6.891,2.418,8.478,5.357,2.215,4.1,2.169,9.1,2.167,13.629-.006,10.236-.363,20.55-2.272,30.629-3.185,16.812-11.266,33.842-26.536,42.8-8.1,4.756-17.478,6.229-26.766,5.568A70.818,70.818,0,0,1,44.156,112.9a43.67,43.67,0,0,1-12.889-5.871c-13.293-9.249-17.6-26.679-20.56-41.642-.931-4.711-1.763-9.442-2.63-14.165A147.617,147.617,0,0,1,5.61,36.073C5.268,31.644,5.5,26.8,7.893,23.041a12.151,12.151,0,0,1,8.149-5.57,7.209,7.209,0,0,1,3.97.63,2.815,2.815,0,0,0,3.761-.986,2.775,2.775,0,0,0-.986-3.761Z" fill="#040506"/>
    <path id="Path_4" data-name="Path 4" d="M21.029,77.65c2.158,6.289,5.158,12.388,9.852,17.186,5.176,5.292,12.044,8.157,19.161,9.776,7.462,1.7,15.354,2.123,22.821.219a37.665,37.665,0,0,0,17.092-9.9A51.653,51.653,0,0,0,101.674,76.22a2.773,2.773,0,0,0-1.921-3.382,2.808,2.808,0,0,0-3.381,1.92c-3.893,10.41-11.6,20.33-22.428,24.017a39.654,39.654,0,0,1-19.6,1.11c-6.41-1.129-13.11-3.1-18.075-7.505-4.851-4.3-7.862-10.134-9.941-16.191a2.816,2.816,0,0,0-3.382-1.921,2.776,2.776,0,0,0-1.92,3.382Z" fill="#040506"/>
    <g id="Group_2" data-name="Group 2">
      <path id="Path_5" data-name="Path 5" d="M180.523,37.117c-4.359-5.984-13.559-7.128-19.989-3.459S150.461,44.805,150.05,52.2c-.494,8.871,5.21,19.162,14.094,19.145,7.642-.015,13.236-7.576,15.056-15,2.115-8.62.331-18.905-6.827-24.153" fill="#fff"/>
      <path id="Path_6" data-name="Path 6" d="M182.9,35.729c-5.521-7.364-16.263-8.928-24.07-4.259-7.989,4.78-12.447,15.038-11.417,24.179.941,8.356,6.226,17.344,15.3,18.351,9.669,1.074,16.746-7.989,19.008-16.412,2.646-9.853.516-21.418-7.958-27.77A2.767,2.767,0,0,0,170,30.8a2.815,2.815,0,0,0,.987,3.761c5.474,4.1,6.931,11.893,6.1,18.278-.833,6.4-4.712,14.488-11.61,15.656a8.916,8.916,0,0,1-7.6-2.541,16.806,16.806,0,0,1-4.558-8.244,21,21,0,0,1,5.64-19.485c5.159-4.9,14.728-5.678,19.191.275a2.835,2.835,0,0,0,3.761.987,2.769,2.769,0,0,0,.987-3.762Z" fill="#040506"/>
    </g>
    <g id="Group_3" data-name="Group 3">
      <path id="Path_7" data-name="Path 7" d="M100.019,6.333c-4.845-5.078-14.111-4.473-18.657.873s-3.943,14.122.909,19.192c2.9,3.03,7.37,4.809,11.4,3.644a12.515,12.515,0,0,0,6.02-4.287,19.492,19.492,0,0,0,.71-23.014" fill="#fff"/>
      <path id="Path_8" data-name="Path 8" d="M101.963,4.389C97.411-.235,90.288-.96,84.5,1.565c-6.01,2.618-9.359,9.089-8.942,15.513.454,6.972,4.791,13.387,11.626,15.482,7.47,2.29,14.353-2.762,17.336-9.423a22.405,22.405,0,0,0-1.742-21.783A2.822,2.822,0,0,0,99.012.368a2.773,2.773,0,0,0-.987,3.761,16.85,16.85,0,0,1,2.435,14.163c-1.2,4.389-4.69,9.551-9.77,9.353-4.953-.193-8.5-4.628-9.432-9.079-.863-4.1.5-8.978,4.161-11.288,3.939-2.489,9.374-2.336,12.656,1,2.487,2.526,6.374-1.362,3.888-3.887Z" fill="#040506"/>
    </g>
    <path id="Path_9" data-name="Path 9" d="M61.691,121.506a57.781,57.781,0,0,0,17.056,26.522,42.016,42.016,0,0,0,30.43,10.023,40.125,40.125,0,0,0,28.116-14.846c7.121-8.688,11.164-19.272,13.545-30.152,1.515-6.921,2.436-13.952,3.434-20.961.918-6.44,1.432-13.537,4.669-19.316,1.732-3.091-3.016-5.866-4.747-2.775-2.873,5.128-3.785,10.922-4.645,16.655-.9,6-1.65,12.017-2.673,18-1.819,10.624-4.544,21.215-10.4,30.387-5.25,8.218-12.931,14.618-22.573,16.8a36.625,36.625,0,0,1-28.684-5.675c-8.683-6.114-15.137-16.047-18.222-26.116-1.034-3.374-6.343-1.935-5.3,1.461Z" fill="#040506"/>
  </g>
</svg>
