<svg xmlns="http://www.w3.org/2000/svg" width="11.815" height="16" viewBox="0 0 11.815 16">
  <g id="Group_1" data-name="Group 1" transform="translate(-1.593 0.5)">
    <path id="Rectangle_1" data-name="Rectangle 1" d="M0,0H8.619a0,0,0,0,1,0,0V7.214a3.5,3.5,0,0,1-3.5,3.5H3.468A3.468,3.468,0,0,1,0,7.242V0A0,0,0,0,1,0,0Z" transform="translate(3.19 4.289)" fill="none" stroke="#fff" stroke-miterlimit="10" stroke-width="1"/>
    <rect id="Rectangle_2" data-name="Rectangle 2" width="10.815" height="2.622" rx="1.311" transform="translate(2.093 1.667)" fill="none" stroke="#fff" stroke-miterlimit="10" stroke-width="1"/>
    <path id="Path_1" data-name="Path 1" d="M9.621,1.423H5.379C5.379.637,6.329,0,7.5,0S9.621.637,9.621,1.423Z" fill="none" stroke="#fff" stroke-miterlimit="10" stroke-width="1"/>
    <rect id="Rectangle_3" data-name="Rectangle 3" width="0.898" height="6.37" rx="0.449" transform="translate(7.024 6.173)" fill="#fff"/>
    <rect id="Rectangle_4" data-name="Rectangle 4" width="0.898" height="6.37" rx="0.449" transform="translate(9.131 6.173)" fill="#fff"/>
    <rect id="Rectangle_5" data-name="Rectangle 5" width="0.898" height="6.37" rx="0.449" transform="translate(4.967 6.173)" fill="#fff"/>
  </g>
</svg>
