<svg xmlns="http://www.w3.org/2000/svg" width="45.193" height="56.374" viewBox="0 0 45.193 56.374">
  <g id="Group_1" data-name="Group 1" transform="translate(0.939 1.309)">
    <path id="Path_1" data-name="Path 1" d="M7.088,5.887A6.96,6.96,0,0,0,1.754,7.922a5,5,0,0,0-1.03,5.154,6.021,6.021,0,0,0,3.951,3.229,17.824,17.824,0,0,0,5.234.484l26.871-.178a8.383,8.383,0,0,0,3.049-.4c2.193-.868,3.263-3.47,3.165-5.827a3.6,3.6,0,0,0-.658-2.151,3.636,3.636,0,0,0-1.347-.941c-2.411-1.105-5.146-1.2-7.8-1.275-8.836-.251-17.264-.053-26.1-.131" fill="none" stroke="#fff" stroke-linecap="round" stroke-linejoin="round" stroke-miterlimit="10" stroke-width="2.5"/>
    <path id="Path_2" data-name="Path 2" d="M4.018,16.151a208.333,208.333,0,0,0,.391,23.291,20.186,20.186,0,0,0,.756,5.274c1.246,3.769,4.671,6.516,8.417,7.83s7.806,1.384,11.772,1.216a23.446,23.446,0,0,0,6.4-.935,9.238,9.238,0,0,0,5.1-3.783,13.685,13.685,0,0,0,1.466-6.124,226.827,226.827,0,0,0,.436-26.333" fill="none" stroke="#fff" stroke-linecap="round" stroke-linejoin="round" stroke-miterlimit="10" stroke-width="2.5"/>
    <path id="Path_3" data-name="Path 3" d="M13.568,24.684l.259,20.046" fill="none" stroke="#fff" stroke-linecap="round" stroke-miterlimit="10" stroke-width="2.5"/>
    <path id="Path_4" data-name="Path 4" d="M21.684,24.684l.258,20.046" fill="none" stroke="#fff" stroke-linecap="round" stroke-miterlimit="10" stroke-width="2.5"/>
    <path id="Path_5" data-name="Path 5" d="M30.551,24.684,30.81,44.73" fill="none" stroke="#fff" stroke-linecap="round" stroke-miterlimit="10" stroke-width="2.5"/>
    <path id="Path_6" data-name="Path 6" d="M14.939,5.7A6.7,6.7,0,0,1,18.709.653,7.407,7.407,0,0,1,25.06.782a8.286,8.286,0,0,1,4.112,4.9" fill="none" stroke="#fff" stroke-linecap="round" stroke-linejoin="round" stroke-miterlimit="10" stroke-width="2.5"/>
  </g>
</svg>
