<svg xmlns="http://www.w3.org/2000/svg" width="228.557" height="237.429" viewBox="0 0 228.557 237.429">
  <g id="Group_2" data-name="Group 2" transform="translate(0 -0.041)">
    <path id="Path_1" data-name="Path 1" d="M198.557.041H52.846C25.057,19.154,8.594,54.452,2.588,88.7-.526,106.452-1.545,125,3.623,142.275c10.244,34.232,42.311,56.912,73.915,73.583,13.476,7.109,27.365,13.67,42.114,17.491a138.189,138.189,0,0,0,43.952,3.765c22.858-1.553,45.753-8.6,64.953-20.89V30.041A30,30,0,0,0,198.557.041Z" fill="#badbc9"/>
    <g id="Group_1" data-name="Group 1">
      <path id="Path_2" data-name="Path 2" d="M103.362,42.163a18.847,18.847,0,0,0,.309,7.955,9.166,9.166,0,0,0,5.479,5.833c2.615,1.042,5.546,1.024,8.318,1.131,3.366.131,6.734.244,10.1.236s6.717-.144,10.061-.482c3.306-.335,6.6-.816,9.924-.96a36.421,36.421,0,0,1,4.81.077c1.427.128,2.812.525,4.239.646a5.247,5.247,0,0,0,3.99-1.149,6.344,6.344,0,0,0,1.765-4.118,30.353,30.353,0,0,0-.208-9.722c-.565-3.1-2.122-5.965-5.637-6.093a29.73,29.73,0,0,0-3.544.454,8.939,8.939,0,0,1-.948-.037,1.73,1.73,0,0,1-.745-.578c-1.216-1.543-1.548-3.684-2.237-5.5-3.863-10.211-16.521-14.287-25.764-8.657a20.6,20.6,0,0,0-6.306,6.06c-1.606,2.37-2.31,4.971-3.16,7.657a4.558,4.558,0,0,1-1.1,2.11c-.959.578-3-.273-4.157-.255-3.378.05-6.332,3.344-4.635,6.616,1.482,2.857,5.8.332,4.317-2.524l.08.871a.285.285,0,0,0-.02.115c.018.013.007.026,0,.02.009,0,.692-.085.864-.067a13.676,13.676,0,0,0,4.249.252c2.413-.477,3.907-2.415,4.782-4.574.73-1.8,1-3.764,1.844-5.524a15.642,15.642,0,0,1,3.695-4.907,12.808,12.808,0,0,1,19.857,2.828c1.93,3.4,1.959,8.044,5.674,10.246a6.531,6.531,0,0,0,3.338.87c1.147,0,2.251-.42,3.383-.466,1.181-.049.177-.013.393-.041.448-.058.386.186.162-.022a1.978,1.978,0,0,1,.478,1.01,19.934,19.934,0,0,1,.622,4.057,26.925,26.925,0,0,1-.057,3.976,14.113,14.113,0,0,1-.237,1.763,2.264,2.264,0,0,1-.175.664c.011-.014.181-.274.128-.277-2.319-.143-4.694-.765-7.085-.814-5.846-.118-11.637,1.086-17.467,1.359a138.918,138.918,0,0,1-19.084-.31c-1.974-.181-4.193-.749-5.04-2.746-.907-2.137-.517-4.752-.255-6.979a2.514,2.514,0,0,0-2.5-2.5,2.56,2.56,0,0,0-2.5,2.5Z" fill="#fff"/>
      <path id="Path_3" data-name="Path 3" d="M100.951,44.787a9.3,9.3,0,0,1-5.363,2.023,58,58,0,0,1-7.281-.059c-4.641-.192-10.228-.252-13.589,3.543-2.27,2.564-2.846,5.835-2.884,9.163-.046,4.062.057,8.131.093,12.193q.108,12.206.249,24.409.277,24.159.681,48.317.2,12.2.44,24.407c.132,6.56.9,13.389,6.289,17.858,4.416,3.665,10.068,5.022,15.663,5.589,6.67.676,13.46.211,20.148.1l48.694-.849c3.81-.067,7.626-.075,11.435-.208a26.206,26.206,0,0,0,8.652-1.461,11.054,11.054,0,0,0,6.318-5.572c1.523-3.393,1.16-7.366,1.2-11l.6-48.96.605-48.954.148-11.977c.043-3.449.38-7.136-1.083-10.365-1.479-3.266-4.715-4.817-7.94-5.9a69.093,69.093,0,0,0-11.074-2.7,75.829,75.829,0,0,0-11.556-.96c-3.218-.015-3.222,4.985,0,5a67.414,67.414,0,0,1,21.658,3.6,10.523,10.523,0,0,1,3.226,1.581,5.162,5.162,0,0,1,1.72,3.56,34.665,34.665,0,0,1,.068,4.682L188,67.838l-.574,46.447-.58,46.962-.142,11.491c-.022,1.777-.026,3.556-.069,5.333a9.115,9.115,0,0,1-.942,4.59c-1.114,1.848-3.316,2.636-5.39,3.09a42.014,42.014,0,0,1-8.265.586l-46.707.814c-7.509.131-15.022.335-22.532.387-5.139.036-10.417-.228-15.287-2.014a14.675,14.675,0,0,1-5.747-3.7,13.229,13.229,0,0,1-3.146-7.28,85.458,85.458,0,0,1-.41-10.248q-.112-5.978-.218-11.954-.407-23.161-.7-46.324-.148-11.706-.266-23.413c-.077-7.712-.285-15.44-.2-23.152a11.789,11.789,0,0,1,.574-4.178,5.8,5.8,0,0,1,.739-1.327c-.229.308.306-.338.283-.314.065-.069.737-.669.45-.448a8.541,8.541,0,0,1,4.968-1.472c4.808-.254,9.623.671,14.4-.268a12.782,12.782,0,0,0,6.239-3.127c2.37-2.187-1.172-5.716-3.536-3.536Z" fill="#fff"/>
      <path id="Path_4" data-name="Path 4" d="M133.683,75.676c-3.046-3.151-6.37-6.238-10.9-6.81A9.1,9.1,0,0,0,112.777,75.1c-3,8.613,4.038,16.929,9.767,22.439q2.443,2.349,5.083,4.485c1.809,1.463,3.729,3.368,6.266,2.644a18.242,18.242,0,0,0,5.113-3.042,45.6,45.6,0,0,0,4.819-3.963c5.385-5.143,10.076-12.79,8.791-20.522-.676-4.067-3.657-7.643-8.012-7.684-5.327-.05-8.216,4.624-12.551,6.772-2.884,1.428-.354,5.742,2.523,4.317,2.987-1.48,5.078-4.387,8.148-5.682a3.534,3.534,0,0,1,3.345.046,4.176,4.176,0,0,1,1.406,2.18c1.472,5.2-1.7,11.033-5.186,14.967a36.715,36.715,0,0,1-6.755,5.917q-.952.653-1.936,1.256a8.269,8.269,0,0,0-.969.577l-.065.039q.921.256.183-.122c-1.306-1.3-2.959-2.345-4.343-3.574-4.579-4.063-10.573-9.428-11.208-15.939-.283-2.9.682-6.329,4.1-6.447,3.686-.128,6.507,3.024,8.849,5.446,2.24,2.318,5.774-1.22,3.535-3.535Z" fill="#fff"/>
      <path id="Path_5" data-name="Path 5" d="M106.052,107.412a10.367,10.367,0,0,0-4.328,18.091c3.465,2.83,8.668,3.221,11.533-.661a12.53,12.53,0,0,0,2.125-5.388,10.97,10.97,0,0,0-.8-6.554c-1.809-3.79-7.016-5.887-10.714-3.5a2.5,2.5,0,0,0,2.523,4.318,2.47,2.47,0,0,0,.4-.238c.192-.2-.367.051-.091.036a2.214,2.214,0,0,0,.437-.125c.355-.109-.064-.052-.125.007.1-.1.6-.006.732-.005.546.005-.3-.148-.021,0a2.819,2.819,0,0,0,.544.141c.08.021.473.143.146.036-.37-.12.186.1.22.113.227.119.43.275.653.4-.4-.222-.171-.15-.053-.038s.237.213.349.327.216.233.32.354c-.211-.243-.141-.213,0,.032.087.151.172.3.258.454.042.075.174.436.033.049a7.772,7.772,0,0,1,.272.9c-.006-.025.133.724.08.36s.026.4.024.371c.021.4-.007.789-.017,1.187,0,.081-.05.5.008.05-.021.159-.051.318-.081.475q-.1.534-.256,1.055c-.1.348-.221.687-.346,1.027-.028.076-.2.437-.02.055-.1.208-.194.416-.3.62a6.425,6.425,0,0,1-.48.78c.331-.449-.7.549-.212.217-.119.081-.243.149-.366.223s-.39.1.013,0c-.125.032-.283.076-.407.121-.51.184.323.034-.183.038-.181,0-.36.012-.542,0-.077,0-.537-.041-.212,0,.382.045-.319-.071-.318-.071-.143-.034-.286-.074-.426-.118s-.279-.094-.417-.146c.429.159.083.035,0-.016-.155-.091-.315-.169-.468-.263-.062-.037-.6-.4-.359-.224s-.1-.089-.159-.138c-.133-.116-.262-.236-.387-.362a8.449,8.449,0,0,1-.565-.631c.3.366.062.079.011,0-.092-.152-.195-.3-.285-.448s-.177-.307-.258-.465c-.029-.058-.265-.59-.139-.281.141.348-.1-.3-.1-.3-.045-.134-.086-.27-.123-.407-.075-.273-.131-.549-.182-.828.1.538.015.074,0-.072-.012-.176-.019-.353-.018-.529,0-.142,0-.283.013-.424s.133-.749.009-.175a10.262,10.262,0,0,1,.254-1c.043-.131.1-.259.14-.39-.183.532.043-.069.089-.158a10.111,10.111,0,0,1,.535-.889c.252-.385.045-.07-.018.007.132-.161.268-.319.41-.47.239-.253.5-.484.757-.712-.381.331-.038.031.074-.047q.214-.147.436-.281c.149-.088.3-.172.454-.25.092-.048.185-.094.279-.137q-.374.15-.119.051c.364-.119.717-.239,1.093-.324a2.521,2.521,0,0,0,1.746-3.076,2.555,2.555,0,0,0-3.075-1.746Z" fill="#fff"/>
      <path id="Path_6" data-name="Path 6" d="M106.866,138.735a10.367,10.367,0,0,0-4.329,18.091c3.466,2.83,8.669,3.221,11.534-.661a12.547,12.547,0,0,0,2.125-5.388,10.977,10.977,0,0,0-.8-6.554c-1.81-3.79-7.017-5.887-10.715-3.5a2.51,2.51,0,1,0,2.926,4.08c.193-.2-.367.05-.091.035a2.154,2.154,0,0,0,.438-.124c.355-.109-.064-.052-.125.007.1-.1.6-.006.732,0,.546,0-.3-.148-.022,0a2.848,2.848,0,0,0,.545.141c.08.021.473.143.145.036-.369-.12.186.1.221.113.226.119.43.275.652.4-.4-.222-.171-.15-.052-.038s.237.213.349.327.215.233.32.354c-.211-.243-.141-.213,0,.032l.257.454c.043.075.175.436.034.049a7.772,7.772,0,0,1,.272.9c-.006-.026.133.724.079.36s.026.4.025.37c.02.4-.008.79-.018,1.188,0,.081-.049.495.008.05-.02.159-.05.318-.081.475q-.1.534-.256,1.055c-.1.348-.221.687-.346,1.026-.028.077-.2.438-.019.056-.1.208-.194.416-.3.62a6.3,6.3,0,0,1-.479.78c.331-.449-.7.548-.212.217-.119.081-.243.149-.367.223s-.389.1.014,0c-.125.031-.283.076-.408.121-.509.184.323.034-.182.038-.181,0-.361.012-.542,0-.077,0-.537-.041-.213,0,.383.045-.319-.072-.317-.071-.144-.035-.286-.074-.426-.118s-.279-.094-.417-.146c.428.159.083.035,0-.016-.154-.091-.315-.169-.468-.263-.061-.038-.6-.4-.358-.225s-.1-.089-.159-.137c-.133-.116-.262-.236-.387-.362a8.462,8.462,0,0,1-.566-.631c.3.366.063.079.012-.005-.092-.152-.195-.3-.286-.448s-.176-.307-.257-.465c-.029-.058-.266-.59-.14-.281.142.347-.1-.3-.1-.3-.044-.135-.085-.27-.123-.407-.075-.273-.131-.55-.181-.828.1.538.014.074,0-.072-.012-.176-.018-.353-.018-.529,0-.142,0-.283.013-.424s.134-.749.01-.175a9.987,9.987,0,0,1,.254-1.005c.043-.131.094-.259.139-.39-.183.532.044-.069.09-.158a9.868,9.868,0,0,1,.534-.889c.252-.386.045-.07-.017.007.131-.161.267-.319.41-.47.238-.253.5-.484.757-.712-.381.331-.038.031.074-.047.142-.1.288-.192.436-.281s.3-.172.454-.25c.091-.049.184-.094.279-.137-.249.1-.289.117-.12.051.365-.119.718-.239,1.094-.325a2.52,2.52,0,0,0,1.746-3.075,2.556,2.556,0,0,0-3.075-1.746Z" fill="#fff"/>
      <path id="Path_7" data-name="Path 7" d="M128.163,118.618l37.233-.849c3.213-.074,3.224-5.074,0-5l-37.233.849c-3.212.073-3.224,5.073,0,5Z" fill="#fff"/>
      <path id="Path_8" data-name="Path 8" d="M127.349,127.974l37.233-.849c3.213-.073,3.225-5.074,0-5l-37.233.849c-3.212.073-3.224,5.073,0,5Z" fill="#fff"/>
      <path id="Path_9" data-name="Path 9" d="M128.57,147.093l37.233-.849c3.212-.073,3.224-5.073,0-5l-37.233.849c-3.213.073-3.224,5.074,0,5Z" fill="#fff"/>
      <path id="Path_10" data-name="Path 10" d="M127.756,156.449l37.233-.849c3.213-.073,3.224-5.073,0-5l-37.233.849c-3.212.073-3.224,5.074,0,5Z" fill="#fff"/>
    </g>
  </g>
</svg>
