<svg xmlns="http://www.w3.org/2000/svg" width="80" height="59.121" viewBox="0 0 80 59.121">
  <g id="Group_1" data-name="Group 1" transform="translate(0 -8.906)">
    <path id="Path_1" data-name="Path 1" d="M18.118,67.993a127.27,127.27,0,0,0,20.245-1.42c3.439-.444,6.886-.808,10.351-.979a29.31,29.31,0,0,1,4.03-.06c.41.037-.493-.083.169.023.214.034.43.066.644.1.577.094,1.153.2,1.728.3,2.507.45,5.007.937,7.533,1.264a11.311,11.311,0,0,0,7.032-1.251,16.192,16.192,0,0,0,7.27-7.519A27.729,27.729,0,0,0,80,46.769c-.083-7.684-5.743-14.408-12.593-17.345l1.138,2.8a19.879,19.879,0,0,0-6.736-19.132C56,8.333,48.239,7.735,41.478,10.776a19.546,19.546,0,0,0-4.866,3.182,16.3,16.3,0,0,0-1.854,1.926,17.692,17.692,0,0,1-1.779,2.379l1.093-.637c.357,0,.383-.037.078-.112-.21-.078-.421-.153-.634-.223-.426-.141-.856-.269-1.29-.381a19.948,19.948,0,0,0-2.634-.476,15.535,15.535,0,0,0-4.853.2,15.463,15.463,0,0,0-10.89,21.986l2.8-3.638C6.941,33.307-.6,42.692.038,51.906c.307,4.434,3.053,8.924,6.3,11.887,3.15,2.875,7.65,4.067,11.833,4.115,3.188.036,3.19-4.917,0-4.953-2.8-.032-6.009-.691-8.2-2.554-2.223-1.887-4.5-5.119-4.936-8.053-.848-5.724,3.7-13.73,10.3-12.592a2.514,2.514,0,0,0,2.8-3.638A10.578,10.578,0,0,1,21.62,23.265a11.042,11.042,0,0,1,6.859-1.983,15.239,15.239,0,0,1,4.144.931,3.718,3.718,0,0,0,4.688-1.408,15.442,15.442,0,0,1,10.41-6.834,13.515,13.515,0,0,1,11.6,3.521A14.85,14.85,0,0,1,63.768,30.9a2.524,2.524,0,0,0,1.138,2.8c4.956,2.125,9.6,6.522,10.1,12.17a21.119,21.119,0,0,1-1.988,9.7A11.835,11.835,0,0,1,66.9,61.913c-.617.268-1.295.354-1.912.6.642-.255.239-.043-.175-.052a15.951,15.951,0,0,1-2.485-.27c-2.216-.345-4.416-.784-6.625-1.168-5.435-.943-11.012-.2-16.449.485-7.055.887-14.005,1.749-21.136,1.533-3.189-.1-3.186,4.857,0,4.953Z" fill="#fff"/>
    <path id="Path_2" data-name="Path 2" d="M26.7,38.5q13.93.411,27.855-.44c3.167-.194,3.189-5.148,0-4.953q-13.911.852-27.855.44c-3.189-.1-3.186,4.858,0,4.953Z" fill="#fff"/>
    <path id="Path_3" data-name="Path 3" d="M54.748,32.9q-.656-.26-1.306-.533l.592.25a63.733,63.733,0,0,1-7.007-3.486l-2.5,4.277.367.163a2.7,2.7,0,0,0,1.909.25,2.533,2.533,0,0,0,1.48-1.138,2.5,2.5,0,0,0,.249-1.909,2.4,2.4,0,0,0-1.138-1.48l-.367-.163a2.7,2.7,0,0,0-1.908-.25,2.477,2.477,0,0,0-.592,4.527,67.878,67.878,0,0,0,8.9,4.269,2.486,2.486,0,0,0,1.908-.25,2.477,2.477,0,0,0,.889-3.388,2.873,2.873,0,0,0-1.48-1.139Z" fill="#fff"/>
    <path id="Path_4" data-name="Path 4" d="M52.493,33.865l-8.467,5.889a2.48,2.48,0,0,0,1.908,4.526l.4-.1a2.5,2.5,0,0,0,1.729-3.046,2.527,2.527,0,0,0-3.046-1.73l-.4.1,1.908,4.527,8.467-5.889a2.658,2.658,0,0,0,1.138-1.48,2.478,2.478,0,0,0-3.638-2.8Z" fill="#fff"/>
    <path id="Path_5" data-name="Path 5" d="M26.7,53.218q13.93.411,27.855-.44c3.167-.194,3.189-5.148,0-4.953q-13.911.852-27.855.44c-3.189-.1-3.186,4.858,0,4.953Z" fill="#fff"/>
    <path id="Path_6" data-name="Path 6" d="M27.29,52.391a67.939,67.939,0,0,0,8.9-4.269A2.478,2.478,0,0,0,35.6,43.6a2.86,2.86,0,0,0-1.908.25l-.368.163a2.481,2.481,0,0,0-1.138,1.48,2.535,2.535,0,0,0,.25,1.909,2.5,2.5,0,0,0,1.48,1.138,2.86,2.86,0,0,0,1.908-.25l.368-.163-2.5-4.277a63.822,63.822,0,0,1-7.007,3.486l.591-.25q-.65.273-1.305.533a2.7,2.7,0,0,0-1.48,1.139,2.476,2.476,0,0,0,.888,3.388,2.407,2.407,0,0,0,1.909.25Z" fill="#fff"/>
    <path id="Path_7" data-name="Path 7" d="M25.728,52.861l8.467,5.889L36.1,54.223l-.4-.1A2.477,2.477,0,1,0,34.384,58.9l.4.1a2.48,2.48,0,0,0,1.909-4.526l-8.467-5.889a2.49,2.49,0,0,0-3.388.889,2.539,2.539,0,0,0,.888,3.388Z" fill="#fff"/>
  </g>
</svg>
