<svg xmlns="http://www.w3.org/2000/svg" width="76.833" height="56.47" viewBox="0 0 76.833 56.47">
  <g id="Group_1" data-name="Group 1" transform="translate(1.184 1.29)">
    <path id="Path_1" data-name="Path 1" d="M15.549,53.893c13.776.451,19.747-2.225,33.527-2.5,1.958-.038,11.751,2.326,13.654,1.864a13.581,13.581,0,0,0,7.908-5.45,21.684,21.684,0,0,0,2.793-6.543A22.129,22.129,0,0,0,74.4,35.43c.018-6.715-5.069-12.7-11.262-15.3A17.218,17.218,0,0,0,53.051,1.1,17.217,17.217,0,0,0,32.619,7.915c-.221.362-.481.772-.9.839a1.464,1.464,0,0,1-.733-.143A16.892,16.892,0,0,0,25.37,7.428a13.182,13.182,0,0,0-11.111,5.914,13.184,13.184,0,0,0-.82,12.56A10.421,10.421,0,0,0,4.51,28.715,14.881,14.881,0,0,0,.257,37.263a11.362,11.362,0,0,0,.365,5.678,20.771,20.771,0,0,0,4.524,7.034c2.284,2.459,6.621,3.833,10.455,3.833" fill="none" stroke="#333" stroke-linecap="round" stroke-linejoin="round" stroke-miterlimit="10" stroke-width="2.5"/>
    <path id="Path_2" data-name="Path 2" d="M24.051,24.564q13.8.422,27.595-.437" fill="none" stroke="#333" stroke-linecap="round" stroke-miterlimit="10" stroke-width="2.5"/>
    <path id="Path_3" data-name="Path 3" d="M51.183,23.83a61.966,61.966,0,0,1-8.234-4l.364.162" fill="none" stroke="#333" stroke-linecap="round" stroke-linejoin="round" stroke-miterlimit="10" stroke-width="2.5"/>
    <path id="Path_4" data-name="Path 4" d="M50.84,24.546,42.453,30.4l.4-.1" fill="none" stroke="#333" stroke-linecap="round" stroke-linejoin="round" stroke-miterlimit="10" stroke-width="2.5"/>
    <path id="Path_5" data-name="Path 5" d="M24.051,39.2q13.8.421,27.595-.437" fill="none" stroke="#333" stroke-linecap="round" stroke-miterlimit="10" stroke-width="2.5"/>
    <path id="Path_6" data-name="Path 6" d="M23.983,38.466a61.72,61.72,0,0,0,8.234-4l-.364.163" fill="none" stroke="#333" stroke-linecap="round" stroke-linejoin="round" stroke-miterlimit="10" stroke-width="2.5"/>
    <path id="Path_7" data-name="Path 7" d="M24.326,39.182l8.387,5.856-.4-.1" fill="none" stroke="#333" stroke-linecap="round" stroke-linejoin="round" stroke-miterlimit="10" stroke-width="2.5"/>
  </g>
</svg>
