<svg xmlns="http://www.w3.org/2000/svg" width="85.688" height="82.596" viewBox="0 0 85.688 82.596">
  <g id="Group_1" data-name="Group 1" transform="translate(1.774 2.002)">
    <path id="Path_1" data-name="Path 1" d="M5.914,76.6c3.021-3.16,3.438-8.083,2.435-12.339s-3.2-8.117-4.86-12.162c-5.048-12.3-4.6-27.578,4.024-37.7A36.769,36.769,0,0,1,16.5,6.972c14.152-8.6,33.106-9.616,47.222-.952S85.558,33.344,80.058,48.967C76.6,58.8,68.465,66.661,58.88,70.763S38.4,75.393,28.187,73.288a20.933,20.933,0,0,0-6.635-.76,17.923,17.923,0,0,0-4.4,1.314L6.611,78" fill="none" stroke="#fff" stroke-linecap="round" stroke-linejoin="round" stroke-miterlimit="10" stroke-width="4"/>
    <path id="Path_2" data-name="Path 2" d="M17.915,30.271Q33.172,28.954,48.483,28.7" fill="none" stroke="#fff" stroke-linecap="round" stroke-miterlimit="10" stroke-width="4"/>
    <path id="Path_3" data-name="Path 3" d="M17.754,46.356,64.13,43.628" fill="none" stroke="#fff" stroke-linecap="round" stroke-miterlimit="10" stroke-width="4"/>
  </g>
</svg>
