<svg xmlns="http://www.w3.org/2000/svg" width="56" height="56" viewBox="0 0 56 56">
  <g id="Group_349" data-name="Group 349" transform="translate(-13.317 -13.79)">
    <path id="Path_254" data-name="Path 254" d="M56.685,64.939A1.485,1.485,0,1,0,55.2,63.454,1.486,1.486,0,0,0,56.685,64.939Zm0-2.228a.743.743,0,1,1-.744.743A.745.745,0,0,1,56.685,62.711Z" transform="translate(-9.931 -10.264)" fill="#862634"/>
    <path id="Path_255" data-name="Path 255" d="M61.8,84.146c.418-.15.83-.312,1.24-.477V64.79a7.213,7.213,0,0,0-1.24-4.074Z" transform="translate(-11.216 -14.356)" fill="#862634"/>
    <path id="Path_256" data-name="Path 256" d="M41.317,13.79A28.365,28.365,0,0,0,24.841,64.976V53.624c0-7.674,6.633-11.542,11.131-12.856v7.46a2.765,2.765,0,0,0-1.76.927A4.1,4.1,0,0,0,33.436,52a1.159,1.159,0,1,0,1.986.8,1.155,1.155,0,0,0-.791-1.092,2.755,2.755,0,0,1,.5-1.763,1.785,1.785,0,0,1,1.449-.555A1.736,1.736,0,0,1,38,49.938a2.671,2.671,0,0,1,.45,1.773,1.158,1.158,0,1,0,1.507,1.1,1.166,1.166,0,0,0-.319-.794,4.03,4.03,0,0,0-.714-2.853,2.7,2.7,0,0,0-1.743-.929V40.457h0a9.224,9.224,0,0,1,7.979-.116.626.626,0,0,0,.08.215c.022.035,2.11,3.472,1.34,9.248a2.744,2.744,0,1,0,1.194.165,17.161,17.161,0,0,0-1.064-9.176c4.5,1.336,11.051,5.2,11.051,12.833V65A28.365,28.365,0,0,0,41.317,13.79ZM34.266,53.1a.3.3,0,1,1,.293-.3A.3.3,0,0,1,34.266,53.1Zm4.533-.594a.3.3,0,1,1-.294.3A.295.295,0,0,1,38.8,52.508Zm9.55.051A1.545,1.545,0,1,1,46.8,51,1.555,1.555,0,0,1,48.349,52.559ZM41.305,37.748A9.248,9.248,0,1,1,50.454,28.5,9.2,9.2,0,0,1,41.305,37.748Z" fill="#862634"/>
    <path id="Path_257" data-name="Path 257" d="M36.032,83.652c.415.167.831.332,1.253.483V60.695a7.211,7.211,0,0,0-1.253,4.1Z" transform="translate(-5.256 -14.356)" fill="#862634"/>
  </g>
</svg>
