<svg xmlns="http://www.w3.org/2000/svg" width="76.396" height="67.492" viewBox="0 0 76.396 67.492">
  <g id="Group_1" data-name="Group 1" transform="translate(1.516 1.528)">
    <path id="Path_1" data-name="Path 1" d="M48.369,7.5C41.9-.516,29.442-1.991,20.179,2.521S4.712,16.372,1.776,26.248C-1.43,37.032-.692,49.964,7.283,57.9c7.592,7.557,20.4,8.47,29.777,3.286s15.251-15.54,16.49-26.18S51.8,13.544,46.7,4.12" fill="none" stroke="#fff" stroke-linecap="round" stroke-linejoin="round" stroke-miterlimit="10" stroke-width="3"/>
    <path id="Path_2" data-name="Path 2" d="M12.994,28.218A42.452,42.452,0,0,0,20.65,41.024a2.983,2.983,0,0,0,1.83,1.227,3.092,3.092,0,0,0,1.922-.758L72.792,7.964" fill="none" stroke="#fff" stroke-linecap="round" stroke-linejoin="round" stroke-miterlimit="10" stroke-width="3"/>
  </g>
</svg>
