<svg xmlns="http://www.w3.org/2000/svg" width="50.331" height="54.49" viewBox="0 0 50.331 54.49">
  <g id="Group_1" data-name="Group 1" transform="translate(1.044 1.298)">
    <path id="Path_1" data-name="Path 1" d="M41.813.47q-11.9,11.87-24.4,23.109" fill="none" stroke="#fff" stroke-linecap="round" stroke-miterlimit="10" stroke-width="2.5"/>
    <path id="Path_2" data-name="Path 2" d="M47.416,6.073q-11.87,11.9-23.109,24.4" fill="none" stroke="#fff" stroke-linecap="round" stroke-miterlimit="10" stroke-width="2.5"/>
    <path id="Path_3" data-name="Path 3" d="M24.135,30.51c-2.667.924-5.3,1.791-8.025,2.537a.8.8,0,0,1-.991-.979c.72-2.755,1.3-5.681,2.222-8.351" fill="none" stroke="#fff" stroke-linecap="round" stroke-linejoin="round" stroke-miterlimit="10" stroke-width="2.5"/>
    <path id="Path_4" data-name="Path 4" d="M41.906.387A1.859,1.859,0,0,1,43.541.058a4.966,4.966,0,0,1,1.552.75A5.94,5.94,0,0,1,47.923,4a1.906,1.906,0,0,1-.627,2.1" fill="none" stroke="#fff" stroke-linecap="round" stroke-linejoin="round" stroke-miterlimit="10" stroke-width="2.5"/>
    <path id="Path_5" data-name="Path 5" d="M15.669,29.8a22.807,22.807,0,0,0,2.61,2.544" fill="none" stroke="#fff" stroke-linecap="round" stroke-miterlimit="10" stroke-width="2.5"/>
    <path id="Path_6" data-name="Path 6" d="M24.626,8.5A90.523,90.523,0,0,0,.663,8.749L.206,49.81a2.018,2.018,0,0,0,.463,1.611,2,2,0,0,0,1.271.325q17.611.434,35.23-.094a1.178,1.178,0,0,0,1.377-1.436l1.044-28.1" fill="none" stroke="#fff" stroke-linecap="round" stroke-linejoin="round" stroke-miterlimit="10" stroke-width="2.5"/>
  </g>
</svg>
