<svg xmlns="http://www.w3.org/2000/svg" width="225.605" height="405.341" viewBox="0 0 225.605 405.341">
  <g id="Group_4" data-name="Group 4" transform="translate(-0.395 -3.593)">
    <path id="Path_1" data-name="Path 1" d="M36.231,34.079c-6.6-3.37-14.13-2.588-20.48.993A29.545,29.545,0,0,0,2.223,52.022C-.46,60.578.247,69.689,1.573,78.413,2.951,87.479,4.8,96.487,6.454,105.506,9.1,119.9,11.69,134.377,16.4,148.274c4.505,13.287,10.963,26.251,21.068,36.19,11.866,11.67,27.914,17.392,44.017,20.3,16.94,3.062,34.961,2.825,51.048-3.874,13.847-5.766,25.313-15.526,34.333-27.412,9.386-12.369,15.636-26.881,19.415-41.884,4.353-17.279,5.626-35.206,5.89-52.969.127-8.62.542-17.594-1.606-26.02C188.6,44.9,183.83,37.553,176.414,34.129A19.7,19.7,0,0,0,164.6,32.5c-2,.335-3.3,2.915-2.7,4.763a3.983,3.983,0,0,0,4.763,2.7c.166-.028.742-.051.021-.009.175-.011.349-.031.524-.042q.609-.038,1.219-.022c.346.009.69.049,1.036.065-.729-.034-.183-.032,0,0,.227.043.453.083.679.133a17.136,17.136,0,0,1,2.324.7c.043.016.565.25.184.073-.421-.194.242.126.334.172q.635.312,1.243.672a18.563,18.563,0,0,1,1.923,1.293c-.538-.417.327.3.468.421q.541.48,1.051.993c.554.557,1.073,1.145,1.571,1.754-.409-.5.267.371.37.52q.413.593.785,1.21a19.64,19.64,0,0,1,2.059,4.531,38.007,38.007,0,0,1,1.408,5.964c.215,1.366.394,3.458.489,5.353.1,2,.129,4,.135,6.008.027,8.393-.132,16.795-.643,25.174-.259,4.234-.612,8.462-1.09,12.677-.451,3.978-.97,7.562-1.732,11.734A142.8,142.8,0,0,1,174.5,143.5q-.443,1.192-.913,2.375-.235.591-.478,1.181l-.21.5c-.258.62.357-.818-.107.25-.68,1.563-1.385,3.115-2.133,4.647q-2.246,4.6-4.922,8.979-1.386,2.259-2.888,4.444-.672.978-1.367,1.939-.375.518-.756,1.029-.162.219-.327.438c.017-.022-.6.8-.36.477s-.129.165-.144.184q-.225.287-.451.571-.341.427-.685.85-.859,1.056-1.752,2.087-1.66,1.918-3.427,3.741a82.447,82.447,0,0,1-7.591,6.918l-.422.335c-.074.059-.665.518-.317.25.315-.242-.156.117-.179.135l-.431.323q-1.079.806-2.187,1.572-2.065,1.429-4.227,2.717-2.241,1.332-4.575,2.5-1.048.522-2.115,1.009c-.383.175-.769.345-1.155.514-.41.179.026-.008.093-.036-.278.117-.558.231-.838.344a70.611,70.611,0,0,1-11.314,3.463q-1.464.319-2.94.58-.738.13-1.478.248l-.635.1c-.084.012-.949.135-.456.069-1.985.266-3.983.443-5.982.559a99.7,99.7,0,0,1-23.714-1.564c-4.036-.744-8.039-1.687-11.984-2.819-7.7-2.209-14.506-4.939-21.165-9.548-.667-.462-1.322-.942-1.972-1.428-.105-.078-.577-.453-.039-.027l-.406-.322q-.537-.429-1.065-.872-1.834-1.536-3.542-3.217t-3.262-3.463q-.783-.9-1.531-1.818c-.25-.307-.5-.618-.742-.929.038.048.353.462.086.112-.172-.226-.343-.451-.512-.679A85.68,85.68,0,0,1,27.425,155.5q-.247-.562-.488-1.126c-.242-.562.215.52-.02-.046l-.2-.487q-.5-1.223-.978-2.457-.894-2.317-1.7-4.667c-1.1-3.218-2.093-6.475-3-9.755-1.8-6.53-3.251-13.149-4.559-19.792-1.563-7.939-2.965-15.911-4.425-23.869-.785-4.284-1.6-8.564-2.346-12.854A94.022,94.022,0,0,1,8.225,68.71a56.117,56.117,0,0,1-.04-6.028,28.864,28.864,0,0,1,.65-5.3q.3-1.459.73-2.889.215-.717.462-1.425.106-.3.22-.606c.057-.155.427-1.07.09-.282a23.229,23.229,0,0,1,2.237-4.027c.188-.273.387-.539.581-.809-.454.633.2-.239.327-.389q.805-.956,1.7-1.831c.555-.543,1.139-1.052,1.734-1.551.562-.472-.331.221.263-.207.357-.256.715-.51,1.083-.752q.956-.628,1.969-1.164.5-.264,1.016-.5c.146-.068.294-.132.44-.2-.31.144-.414.161-.036.022.7-.256,1.394-.5,2.112-.691q.531-.143,1.07-.253c.153-.031.307-.062.461-.089.117-.021.987-.118.409-.07-.52.043.6-.037.72-.044q.462-.024.926-.023.54,0,1.078.042c.34.024,1.136.179.35.023a18.943,18.943,0,0,1,2.116.51c.3.1.6.207.893.318-.786-.295.324.17.536.278a3.872,3.872,0,1,0,3.909-6.686Z"/>
    <path id="Path_2" data-name="Path 2" d="M146.167,162.427c-2.6-7.591-6.239-14.955-11.93-20.722-6.222-6.305-14.457-9.731-22.98-11.655-9.039-2.04-18.615-2.528-27.639-.136a45.368,45.368,0,0,0-20.36,12.007,61.964,61.964,0,0,0-13.819,22.2,3.891,3.891,0,0,0,2.7,4.763,3.977,3.977,0,0,0,4.763-2.7c.3-.793.6-1.582.929-2.362-.255.606.184-.408.26-.577q.3-.665.612-1.322,1.138-2.387,2.482-4.669,1.3-2.2,2.782-4.275c.247-.344.5-.685.754-1.025s-.007,0-.053.063c.148-.192.3-.381.45-.57q.851-1.059,1.755-2.074a48.627,48.627,0,0,1,3.547-3.589q.93-.846,1.9-1.641c.142-.116,1-.779.485-.39q.573-.431,1.158-.844A40.639,40.639,0,0,1,78.4,140.19q1.032-.546,2.1-1.029c.218-.1.438-.2.659-.291-.067.028-.508.207-.092.043.5-.2,1.01-.394,1.521-.576A38.723,38.723,0,0,1,94.236,136.1a54.311,54.311,0,0,1,6.079.083,47.279,47.279,0,0,1,5.679.692,64.221,64.221,0,0,1,11.822,3.2,34.9,34.9,0,0,1,5.015,2.45q1.216.723,2.369,1.546c.152.109.3.22.453.331.51.373-.391-.318.1.075q.578.461,1.136.946a35.367,35.367,0,0,1,4.07,4.2c.116.141.23.284.345.426.43.531-.067-.1.176.229.289.394.576.788.854,1.19q.837,1.209,1.589,2.475a52.158,52.158,0,0,1,2.743,5.285c.078.171.154.343.23.515-.011-.025.4.929.251.578s.088.222.094.236c.117.294.235.587.349.882.392,1.007.758,2.024,1.109,3.046a3.873,3.873,0,1,0,7.467-2.058Z"/>
    <g id="Group_1" data-name="Group 1">
      <path id="Path_3" data-name="Path 3" d="M63.643,7.466,48.033,17.1c-3.637,2.246-7.371,4.58-9.872,8.046a16.335,16.335,0,0,0,11.155,25.76c7.025.907,14.167-3.07,18.014-9.017s4.66-13.522,3.259-20.465c-1.043-5.168-3.5-10.388-8.035-13.083" fill="#da3831"/>
      <path id="Path_4" data-name="Path 4" d="M61.688,4.123,48.48,12.279c-4,2.469-8.271,4.85-11.529,8.3-6.435,6.808-7.766,17.874-2.131,25.618a20.459,20.459,0,0,0,23.9,7.341C67.73,50,73.483,41.845,74.759,32.351,76.071,22.579,73.466,10.5,64.508,5A3.872,3.872,0,1,0,60.6,11.689c.2.125.4.256.605.383.026.017.515.348.185.114-.36-.255.224.185.3.25q.2.172.4.353c.3.28.592.575.869.88.16.175.312.355.465.535.394.46-.3-.436.048.058a19.683,19.683,0,0,1,1.33,2.125c.2.372.384.751.566,1.131.328.682.108.229.044.074.093.225.18.451.265.678a30.173,30.173,0,0,1,1.4,5.373s.1.655.049.281c-.062-.422.046.4.055.484.05.467.091.936.12,1.4q.095,1.509.044,3.021-.024.7-.081,1.406-.024.3-.056.6c-.009.085-.114.9-.053.481-.055.383-.349,1.861-.548,2.624a27.8,27.8,0,0,1-.849,2.656c0-.007-.241.6-.1.275.155-.368-.176.378-.208.447q-.342.721-.731,1.417a20.606,20.606,0,0,1-1.454,2.254c-.265.354-.007,0,.042-.059-.158.189-.314.377-.476.562q-.484.553-1.009,1.072-.459.453-.945.877c-.131.114-.995.8-.506.435a20.224,20.224,0,0,1-2.316,1.489c-.375.207-.757.4-1.141.583-.679.333-.235.112-.078.048-.169.069-.34.133-.51.2a18.3,18.3,0,0,1-2.615.755c-.236.049-.474.09-.712.132.161-.028.731-.065-.047,0-.361.032-.721.06-1.084.071-.483.016-.969.01-1.452-.018-.18-.01-.364-.039-.545-.042-.624-.012.838.173-.211-.027a17.537,17.537,0,0,1-2.377-.615c-.211-.073-.974-.383-.382-.122q-.723-.319-1.413-.708-.537-.3-1.051-.639c-.146-.1-.291-.2-.435-.3-.082-.058-.658-.508-.311-.224.317.259-.128-.117-.154-.141-.175-.156-.353-.307-.525-.467-.343-.319-.674-.652-.989-1-.118-.13-.234-.263-.348-.4-.065-.076-.517-.651-.247-.292.246.328-.095-.142-.116-.172-.13-.195-.264-.386-.39-.584-.219-.345-.425-.7-.618-1.061-.082-.155-.159-.313-.24-.469-.5-.972.123.38-.117-.234a15.7,15.7,0,0,1-.743-2.511c-.042-.2-.186-1.344-.12-.635-.046-.5-.079-1-.086-1.5-.006-.438.007-.875.035-1.312.013-.2.167-1.312.052-.647a17.606,17.606,0,0,1,.685-2.722c.06-.175.5-1.186.236-.639.189-.4.383-.784.6-1.165a8.775,8.775,0,0,1,1.3-1.885,21.839,21.839,0,0,1,2.423-2.357q.229-.192.463-.381c.993-.8-.262.184.329-.249q.651-.475,1.316-.928c1.943-1.321,3.967-2.525,5.965-3.76L65.6,10.81a3.93,3.93,0,0,0,1.389-5.3,3.937,3.937,0,0,0-5.3-1.389Z"/>
    </g>
    <g id="Group_2" data-name="Group 2">
      <path id="Path_5" data-name="Path 5" d="M136.225,7.466l15.61,9.639c3.637,2.246,7.37,4.58,9.872,8.046a16.335,16.335,0,0,1-11.155,25.76c-7.025.907-14.168-3.07-18.015-9.017s-4.66-13.522-3.259-20.465c1.043-5.168,3.505-10.388,8.036-13.083" fill="#da3831"/>
      <path id="Path_6" data-name="Path 6" d="M134.271,10.81l11.607,7.167c1.9,1.176,3.818,2.337,5.709,3.534.795.5,1.584,1.017,2.356,1.556q.5.345.979.7c-.409-.3.121.092.168.13.258.21.514.422.766.641a21.514,21.514,0,0,1,1.988,1.949c.132.148.262.3.39.451.043.051.427.577.13.162.291.407.565.825.816,1.257.22.378.417.767.611,1.159s.021.006-.011-.069c.1.228.183.465.266.7a18.213,18.213,0,0,1,.714,2.716c.086.452.01-.025,0-.1.032.247.054.5.073.746.033.436.048.874.047,1.311s-.038.874-.053,1.311c0,.123-.082.764.011.087-.034.247-.079.493-.127.738A17.332,17.332,0,0,1,160,39.477c-.043.12-.314.677-.034.092-.076.158-.151.317-.23.474q-.315.627-.686,1.224c-.217.348-.448.685-.687,1.018.405-.565-.264.3-.389.443a18.6,18.6,0,0,1-1.9,1.823c.543-.459-.49.344-.631.437q-.439.29-.9.553c-.407.234-.824.444-1.246.648-.039.019-.572.243-.181.086.426-.173-.541.188-.521.182a17.523,17.523,0,0,1-2.376.615c-.725.138.366,0-.393.044-.546.032-1.087.059-1.635.047-.423-.009-.843-.038-1.265-.075-.047,0-.634-.092-.2-.022.473.078-.273-.059-.378-.079a18.1,18.1,0,0,1-2.621-.726c-.172-.062-.342-.128-.512-.193-.581-.225.482.229-.082-.038-.386-.183-.77-.368-1.146-.571a21.4,21.4,0,0,1-2.328-1.47c-.357-.258-.009,0,.052.048q-.288-.229-.568-.47-.489-.42-.951-.87t-.9-.926c-.165-.181-.323-.368-.485-.553s-.335-.4-.084-.077a18.8,18.8,0,0,1-1.466-2.227c-.231-.4-.449-.815-.655-1.232q-.176-.358-.34-.721c-.273-.6.166.441-.074-.175A26.548,26.548,0,0,1,132.7,31.2c.091.59-.009-.073-.018-.164-.033-.334-.067-.667-.092-1q-.06-.8-.076-1.608a31.486,31.486,0,0,1,.1-3.221c.017-.2.035-.4.055-.6,0,.023.127-1.031.077-.684-.062.421.068-.4.082-.479.045-.264.093-.528.144-.79a29.02,29.02,0,0,1,.752-3.006c.144-.463.3-.924.47-1.379.063-.17.13-.339.2-.509.155-.393-.2.385.111-.243A25.221,25.221,0,0,1,135.892,15c.1-.144.876-1.183.442-.656.338-.41.69-.807,1.066-1.183a13.842,13.842,0,0,1,1.049-.948c.344-.279-.023.028-.079.066.3-.2.591-.4.9-.586a3.927,3.927,0,0,0,1.389-5.3A3.936,3.936,0,0,0,135.359,5c-7.848,4.817-10.83,14.867-10.582,23.63.266,9.389,4.587,18.606,12.977,23.335a20.756,20.756,0,0,0,24.967-3A20.373,20.373,0,0,0,165.37,23.66c-3.028-4.54-7.625-7.456-12.182-10.269L138.179,4.123a3.91,3.91,0,0,0-5.3,1.389,3.951,3.951,0,0,0,1.389,5.3Z"/>
    </g>
    <g id="Group_3" data-name="Group 3">
      <path id="Path_7" data-name="Path 7" d="M212.893,349.985c-7.012-9.627-21.814-11.468-32.158-5.566s-16.206,17.934-16.867,29.826c-.794,14.27,8.383,30.827,22.675,30.8,12.295-.024,21.293-12.187,24.223-24.127,3.4-13.868.532-30.415-10.984-38.856" fill="#da3831"/>
      <path id="Path_8" data-name="Path 8" d="M216.236,348.031A26.449,26.449,0,0,0,198.772,337.6a30.973,30.973,0,0,0-20.766,3.939,36.75,36.75,0,0,0-14.252,16.853,42.591,42.591,0,0,0-3.584,21.4c1.53,13.27,9.837,27.371,24.223,29.007,15.278,1.737,26.445-12.956,29.937-26.184,3.579-13.559,1.649-29.876-8.4-40.307a33.465,33.465,0,0,0-4.19-3.585c-1.632-1.212-4.394-.321-5.3,1.389a3.985,3.985,0,0,0,1.389,5.3c.038.028.487.369.148.107-.367-.286.187.155.268.223q.389.321.765.656.87.777,1.67,1.629c.493.523.96,1.068,1.413,1.626.036.043.365.482.1.13-.283-.382.127.183.191.272q.339.469.658.953a30.91,30.91,0,0,1,2.186,3.91c.1.219.509,1.144.218.45.13.309.253.621.373.935q.42,1.1.767,2.229a39.04,39.04,0,0,1,1.085,4.459c.072.394.134.788.2,1.183.125.762-.041-.437.047.332.091.8.169,1.6.221,2.4a45.677,45.677,0,0,1,.059,4.666q-.042,1.123-.139,2.244-.051.6-.119,1.2c-.019.172-.042.343-.06.514.039-.374.057-.386,0-.005a43.789,43.789,0,0,1-2.289,8.994c-.083.219-.169.436-.254.654-.014.038-.23.578-.071.187.125-.308-.228.518-.295.666q-.51,1.122-1.087,2.212a37.306,37.306,0,0,1-2.472,4.033c-.133.189-.271.376-.407.564-.023.033-.367.494-.115.161.2-.262-.348.432-.45.554q-.765.924-1.6,1.785-.765.789-1.588,1.517c-.293.258-.6.5-.9.754-.333.286.079-.059.127-.094-.178.13-.355.263-.535.391-.581.412-1.182.8-1.8,1.155q-.5.287-1.005.546c-.17.086-1.066.515-.719.356.382-.176-.585.224-.748.282-.307.109-.618.21-.93.3a21.041,21.041,0,0,1-2.235.518c-.739.134-.1.012.044,0-.166.015-.332.034-.5.048-.336.028-.673.047-1.009.057a22.107,22.107,0,0,1-2.359-.081c-.769-.059.583.123-.168-.023-.294-.057-.589-.108-.881-.172a17.912,17.912,0,0,1-1.991-.566c-.115-.04-1.116-.429-.633-.228s-.5-.238-.6-.292a19.58,19.58,0,0,1-1.791-1.012c-.5-.317-.983-.658-1.456-1.013.734.552-.1-.1-.258-.239q-.456-.391-.89-.806-.714-.679-1.372-1.415-.306-.342-.6-.694c-.1-.117-.189-.245-.293-.357-.383-.415.525.725-.057-.07a32.472,32.472,0,0,1-2.279-3.564q-.5-.908-.936-1.845c-.136-.289-.262-.583-.4-.875.329.723-.114-.3-.216-.562a35.785,35.785,0,0,1-1.3-4.157q-.251-1.018-.443-2.051c-.059-.316-.109-.634-.163-.952-.013-.076-.1-.612-.024-.122.088.561-.039-.33-.051-.44a32.967,32.967,0,0,1-.2-4.284c.015-.728.056-1.455.116-2.18.03-.36.064-.721.1-1.081.019-.18.044-.36.062-.54.047-.452-.086.508.034-.229a45.89,45.89,0,0,1,1.024-4.8,41.071,41.071,0,0,1,1.584-4.642c-.237.579.1-.226.185-.406.174-.384.356-.766.543-1.144q.56-1.133,1.2-2.225.586-1.011,1.238-1.982.3-.447.614-.884c.139-.194.281-.385.423-.577-.236.32-.124.152.052-.065a32.892,32.892,0,0,1,3.277-3.522c.568-.524,1.154-1.028,1.762-1.505-.486.382.2-.139.359-.253q.584-.416,1.188-.8c.632-.4,1.28-.786,1.944-1.135q.432-.228.872-.437c.2-.093.4-.178.59-.272.52-.251-.568.207-.025.011a32.314,32.314,0,0,1,4.206-1.279c.32-.069.64-.132.962-.189.132-.024,1.242-.178.777-.127s.474-.043.623-.056q.651-.055,1.3-.082a31.714,31.714,0,0,1,4.39.174c-.7-.069-.068-.006.254.048q.558.1,1.112.215,1.1.237,2.182.569c.665.205,1.312.452,1.962.7-.634-.239-.027-.008.246.12.384.18.764.37,1.137.572q.909.489,1.77,1.061c.308.2.6.426.908.638-.607-.423.127.109.333.286a20.206,20.206,0,0,1,1.5,1.424c.22.232.436.469.645.712.14.163.275.329.412.494-.091-.11-.45-.6-.014-.013,1.2,1.622,3.408,2.607,5.3,1.389,1.606-1.035,2.679-3.557,1.389-5.3Z"/>
    </g>
    <path id="Path_9" data-name="Path 9" d="M97.872,204.875a168.334,168.334,0,0,0,17.97,87.584c3.947,7.756,8.656,15.346,14.958,21.424,6.439,6.211,14.6,10.543,23.668,10.84,9.887.324,19.369-4.061,26.773-10.362,7.313-6.223,12.71-14.484,17.239-22.864a186.794,186.794,0,0,0,11.991-27.626c6.508-18.763,10.466-38.284,14.114-57.767q.673-3.6,1.338-7.2c.441-2.384-1.039-4.97-3.733-4.9q-9,.229-17.975.836-4.489.306-8.97.708c-2.621.236-5.551.2-8.051,1.086a7.774,7.774,0,0,0-5.4,7.255,58.269,58.269,0,0,0,.715,8.511c.6,5.96,1.252,11.915,1.91,17.869,2.594,23.451,5.324,46.958,5.427,70.583a240.957,240.957,0,0,1-2.787,39.171c-.323,1.991.515,4.264,2.7,4.763,1.862.424,4.416-.567,4.763-2.7,3.729-22.98,3.59-46.278,1.859-69.435-.859-11.482-2.076-22.933-3.337-34.376-.639-5.8-1.291-11.606-1.914-17.411q-.453-4.229-.882-8.46c-.277-2.75-.714-5.552-.72-8.317,0-.63-.148.494,0-.1q.115-.393-.074.048.344-.558.1-.177c-.128.085-.728.672-.117.192l.284-.146q-.641.27-.006.051c.217-.036.438-.113.651-.157s1.2-.156.3-.061c.737-.079,1.475-.148,2.213-.219q4.833-.462,9.674-.811,9.8-.706,19.629-.952l-3.734-4.9c-3.5,18.945-7.041,37.945-12.665,56.4-1.4,4.582-2.921,9.126-4.6,13.611-1.726,4.6-3.27,8.3-5.335,12.691-2.009,4.275-4.191,8.477-6.594,12.545a77.523,77.523,0,0,1-7.4,10.657,55.371,55.371,0,0,1-4.589,4.8,33.209,33.209,0,0,1-4.886,3.872,40.118,40.118,0,0,1-5.8,3.178c-.723.322-.341.143-.181.078q-.371.15-.745.292-.747.284-1.5.533a34.069,34.069,0,0,1-3.453.94c-.517.112-1.037.2-1.557.295-.1.018-.758.113-.145.032-.261.034-.524.061-.786.087a28.661,28.661,0,0,1-3.353.135q-.792-.015-1.581-.075c-.264-.02-.527-.047-.79-.071-.665-.063.509.084-.153-.014a26.754,26.754,0,0,1-2.98-.62c-.9-.241-1.795-.526-2.67-.855-.218-.082-.434-.168-.65-.253.649.256.088.04-.038-.017-.528-.24-1.053-.486-1.57-.752a35.644,35.644,0,0,1-5.026-3.174c.6.444-.489-.4-.6-.491q-.549-.453-1.082-.925-1.142-1.01-2.213-2.094a55.712,55.712,0,0,1-3.978-4.488c-.152-.191-.3-.383-.454-.576.38.491,0-.006-.064-.091-.292-.394-.586-.786-.872-1.184q-.969-1.346-1.877-2.732c-1.107-1.684-2.15-3.411-3.14-5.166A145.549,145.549,0,0,1,113.9,268.079a159.363,159.363,0,0,1-8.616-56.111q.088-3.549.334-7.093A3.892,3.892,0,0,0,101.744,201a3.964,3.964,0,0,0-3.872,3.872Z"/>
  </g>
</svg>
