<svg xmlns="http://www.w3.org/2000/svg" width="24" height="24" viewBox="0 0 24 24">
  <g id="Group_5" data-name="Group 5" transform="translate(-176 -320)">
    <circle id="Ellipse_2" data-name="Ellipse 2" cx="12" cy="12" r="12" transform="translate(176 320)" fill="#fff"/>
    <g id="Group_2" data-name="Group 2" transform="translate(-1.942 -1.741)">
      <g id="noun_date_3486071" transform="translate(182.442 326.8)">
        <g id="Group" transform="translate(0)">
          <path id="Compound_Path" data-name="Compound Path" d="M29.87,61.4H37.52a4,4,0,0,1-.306-1.531,4.053,4.053,0,0,1,.05-.63h-.6a.274.274,0,0,1,0-.549h.67a.282.282,0,0,1,.052.011,3.962,3.962,0,0,1,1.726-2.2.268.268,0,0,1-.041-.142.272.272,0,0,1,.274-.272h.706a3.956,3.956,0,0,1,2.323,0V51.639a.884.884,0,0,0-.884-.875h-1v-1.4a.274.274,0,1,0-.549,0v1.4H35.964v-1.4a.274.274,0,1,0-.549,0v1.4H31.4v-1.4a.274.274,0,1,0-.549,0v1.4H29.87a.872.872,0,0,0-.87.875v8.886a.87.87,0,0,0,.87.873Zm9.48-7.959h.67a.274.274,0,1,1,0,.549h-.67a.274.274,0,1,1,0-.549Zm-2.681,0h.67a.274.274,0,0,1,0,.549h-.67a.274.274,0,0,1,0-.549Zm0,2.641h.67a.274.274,0,1,1,0,.549h-.67a.274.274,0,1,1,0-.549ZM34.006,53.44h.67a.274.274,0,1,1,0,.549h-.67a.274.274,0,1,1,0-.549Zm0,2.641h.67a.274.274,0,1,1,0,.549h-.67a.274.274,0,1,1,0-.549Zm0,2.607h.67a.274.274,0,1,1,0,.549h-.67a.274.274,0,1,1,0-.549Zm-2.681-2.607H32a.274.274,0,1,1,0,.549h-.67a.274.274,0,1,1,0-.549Zm0,2.607H32a.274.274,0,1,1,0,.549h-.67a.274.274,0,1,1,0-.549Z" transform="translate(-29 -49.086)" fill="#999"/>
        </g>
      </g>
      <g id="noun_Time_2630927" transform="translate(191.232 334.144)">
        <path id="Path_11" data-name="Path 11" d="M6.05,2.5A3.55,3.55,0,1,0,9.6,6.05,3.553,3.553,0,0,0,6.05,2.5Zm1.4,4.529a.341.341,0,0,1-.284.149.4.4,0,0,1-.2-.06L5.848,6.334A.361.361,0,0,1,5.7,6.05V4.174a.351.351,0,1,1,.7,0v1.7l.964.68A.338.338,0,0,1,7.447,7.029Z" transform="translate(-2.5 -2.5)" fill="#999"/>
      </g>
    </g>
  </g>
</svg>
