<svg width="24" height="24" viewBox="0 0 24 24" fill="none" xmlns="http://www.w3.org/2000/svg">
<path d="M5.37001 17.373H13.02C12.8184 16.8877 12.7145 16.3675 12.714 15.842C12.7142 15.631 12.731 15.4204 12.764 15.212H12.164C12.0912 15.212 12.0214 15.1831 11.9699 15.1316C11.9184 15.0801 11.8895 15.0103 11.8895 14.9375C11.8895 14.8647 11.9184 14.7949 11.9699 14.7434C12.0214 14.6919 12.0912 14.663 12.164 14.663H12.834C12.8516 14.665 12.8691 14.6687 12.886 14.674C13.1748 13.7553 13.7884 12.9732 14.612 12.474C14.5853 12.4314 14.5711 12.3822 14.571 12.332C14.571 12.2961 14.5781 12.2606 14.5919 12.2274C14.6057 12.1943 14.6259 12.1642 14.6514 12.139C14.6768 12.1137 14.7071 12.0937 14.7403 12.0801C14.7735 12.0666 14.8091 12.0597 14.845 12.06H15.551C16.3079 11.8275 17.1171 11.8275 17.874 12.06V7.612C17.8716 7.37911 17.7775 7.15657 17.6119 6.99273C17.4464 6.82888 17.2229 6.73699 16.99 6.737H15.99V5.337C15.99 5.2642 15.9611 5.19438 15.9096 5.1429C15.8581 5.09142 15.7883 5.0625 15.7155 5.0625C15.6427 5.0625 15.5729 5.09142 15.5214 5.1429C15.4699 5.19438 15.441 5.2642 15.441 5.337V6.737H11.464V5.337C11.464 5.2642 11.4351 5.19438 11.3836 5.1429C11.3321 5.09142 11.2623 5.0625 11.1895 5.0625C11.1167 5.0625 11.0469 5.09142 10.9954 5.1429C10.9439 5.19438 10.915 5.2642 10.915 5.337V6.737H6.9V5.337C6.9 5.2642 6.87109 5.19438 6.81961 5.1429C6.76813 5.09142 6.69831 5.0625 6.6255 5.0625C6.5527 5.0625 6.48288 5.09142 6.4314 5.1429C6.37992 5.19438 6.351 5.2642 6.351 5.337V6.737H5.37001C5.25541 6.73726 5.14199 6.76011 5.03623 6.80424C4.93046 6.84836 4.83444 6.91291 4.75364 6.99417C4.67284 7.07544 4.60885 7.17183 4.56533 7.27784C4.52181 7.38385 4.49961 7.4974 4.50001 7.612V16.498C4.49961 16.6125 4.52182 16.726 4.56537 16.8319C4.60891 16.9378 4.67293 17.034 4.75376 17.1151C4.83459 17.1962 4.93063 17.2606 5.03638 17.3045C5.14213 17.3484 5.2555 17.371 5.37001 17.371V17.373ZM14.85 9.414H15.52C15.5928 9.414 15.6626 9.44292 15.7141 9.4944C15.7656 9.54588 15.7945 9.6157 15.7945 9.6885C15.7945 9.7613 15.7656 9.83112 15.7141 9.8826C15.6626 9.93408 15.5928 9.963 15.52 9.963H14.85C14.7772 9.963 14.7074 9.93408 14.6559 9.8826C14.6044 9.83112 14.5755 9.7613 14.5755 9.6885C14.5755 9.6157 14.6044 9.54588 14.6559 9.4944C14.7074 9.44292 14.7772 9.414 14.85 9.414ZM12.169 9.414H12.839C12.9118 9.414 12.9816 9.44292 13.0331 9.4944C13.0846 9.54588 13.1135 9.6157 13.1135 9.6885C13.1135 9.7613 13.0846 9.83112 13.0331 9.8826C12.9816 9.93408 12.9118 9.963 12.839 9.963H12.169C12.0962 9.963 12.0264 9.93408 11.9749 9.8826C11.9234 9.83112 11.8945 9.7613 11.8945 9.6885C11.8945 9.6157 11.9234 9.54588 11.9749 9.4944C12.0264 9.44292 12.0962 9.414 12.169 9.414ZM12.169 12.055H12.839C12.9118 12.055 12.9816 12.0839 13.0331 12.1354C13.0846 12.1869 13.1135 12.2567 13.1135 12.3295C13.1135 12.4023 13.0846 12.4721 13.0331 12.5236C12.9816 12.5751 12.9118 12.604 12.839 12.604H12.169C12.0962 12.604 12.0264 12.5751 11.9749 12.5236C11.9234 12.4721 11.8945 12.4023 11.8945 12.3295C11.8945 12.2567 11.9234 12.1869 11.9749 12.1354C12.0264 12.0839 12.0962 12.055 12.169 12.055ZM9.50601 9.413H10.176C10.2488 9.413 10.3186 9.44192 10.3701 9.4934C10.4216 9.54488 10.4505 9.6147 10.4505 9.6875C10.4505 9.7603 10.4216 9.83012 10.3701 9.8816C10.3186 9.93308 10.2488 9.962 10.176 9.962H9.50601C9.4332 9.962 9.36339 9.93308 9.31191 9.8816C9.26043 9.83012 9.2315 9.7603 9.2315 9.6875C9.2315 9.6147 9.26043 9.54488 9.31191 9.4934C9.36339 9.44192 9.4332 9.413 9.50601 9.413V9.413ZM9.50601 12.054H10.176C10.2488 12.054 10.3186 12.0829 10.3701 12.1344C10.4216 12.1859 10.4505 12.2557 10.4505 12.3285C10.4505 12.4013 10.4216 12.4711 10.3701 12.5226C10.3186 12.5741 10.2488 12.603 10.176 12.603H9.50601C9.4332 12.603 9.36339 12.5741 9.31191 12.5226C9.26043 12.4711 9.2315 12.4013 9.2315 12.3285C9.2315 12.2557 9.26043 12.1859 9.31191 12.1344C9.36339 12.0829 9.4332 12.054 9.50601 12.054V12.054ZM9.50601 14.661H10.176C10.2488 14.661 10.3186 14.6899 10.3701 14.7414C10.4216 14.7929 10.4505 14.8627 10.4505 14.9355C10.4505 15.0083 10.4216 15.0781 10.3701 15.1296C10.3186 15.1811 10.2488 15.21 10.176 15.21H9.50601C9.4332 15.21 9.36339 15.1811 9.31191 15.1296C9.26043 15.0781 9.2315 15.0083 9.2315 14.9355C9.2315 14.8627 9.26043 14.7929 9.31191 14.7414C9.36339 14.6899 9.4332 14.661 9.50601 14.661V14.661ZM6.82501 12.054H7.50001C7.57281 12.054 7.64263 12.0829 7.6941 12.1344C7.74558 12.1859 7.77451 12.2557 7.77451 12.3285C7.77451 12.4013 7.74558 12.4711 7.6941 12.5226C7.64263 12.5741 7.57281 12.603 7.50001 12.603H6.83001C6.7572 12.603 6.68738 12.5741 6.6359 12.5226C6.58443 12.4711 6.55551 12.4013 6.55551 12.3285C6.55551 12.2557 6.58443 12.1859 6.6359 12.1344C6.68738 12.0829 6.7572 12.054 6.83001 12.054H6.82501ZM6.82501 14.661H7.50001C7.57281 14.661 7.64263 14.6899 7.6941 14.7414C7.74558 14.7929 7.77451 14.8627 7.77451 14.9355C7.77451 15.0083 7.74558 15.0781 7.6941 15.1296C7.64263 15.1811 7.57281 15.21 7.50001 15.21H6.83001C6.7572 15.21 6.68738 15.1811 6.6359 15.1296C6.58443 15.0781 6.55551 15.0083 6.55551 14.9355C6.55551 14.8627 6.58443 14.7929 6.6359 14.7414C6.68738 14.6899 6.7572 14.661 6.83001 14.661H6.82501Z" fill="#999999"/>
<path d="M16.84 12.4031C16.1379 12.4031 15.4516 12.6113 14.8678 13.0014C14.284 13.3914 13.829 13.9459 13.5603 14.5946C13.2916 15.2432 13.2213 15.957 13.3583 16.6456C13.4952 17.3343 13.8333 17.9668 14.3298 18.4633C14.8263 18.9598 15.4588 19.2979 16.1475 19.4349C16.8361 19.5718 17.5499 19.5015 18.1986 19.2328C18.8472 18.9642 19.4017 18.5091 19.7918 17.9254C20.1818 17.3416 20.39 16.6552 20.39 15.9531C20.3892 15.0118 20.015 14.1093 19.3494 13.4437C18.6838 12.7781 17.7813 12.4039 16.84 12.4031V12.4031ZM18.24 16.9321C18.2086 16.9783 18.1662 17.0161 18.1167 17.042C18.0671 17.068 18.012 17.0814 17.956 17.0811C17.8852 17.0791 17.8162 17.0584 17.756 17.0211L16.638 16.2371C16.5932 16.2043 16.5565 16.1616 16.5308 16.1124C16.5052 16.0631 16.4912 16.0086 16.49 15.9531V14.0771C16.4864 14.0289 16.4927 13.9805 16.5087 13.9348C16.5246 13.8892 16.5498 13.8474 16.5827 13.8119C16.6155 13.7765 16.6553 13.7482 16.6996 13.7289C16.7439 13.7096 16.7917 13.6996 16.84 13.6996C16.8884 13.6996 16.9362 13.7096 16.9805 13.7289C17.0247 13.7482 17.0646 13.7765 17.0974 13.8119C17.1303 13.8474 17.1555 13.8892 17.1714 13.9348C17.1873 13.9805 17.1937 14.0289 17.19 14.0771V15.7771L18.154 16.4571C18.191 16.4826 18.2225 16.5151 18.2467 16.5529C18.271 16.5907 18.2874 16.633 18.2951 16.6772C18.3029 16.7214 18.3017 16.7667 18.2917 16.8105C18.2818 16.8542 18.2632 16.8956 18.237 16.9321H18.24Z" fill="#999999"/>
</svg>
