<svg xmlns="http://www.w3.org/2000/svg" width="101.187" height="74.515" viewBox="0 0 101.187 74.515">
  <g id="Group_2" data-name="Group 2" transform="translate(0.084 1.953)">
    <g id="Group_1" data-name="Group 1">
      <path id="Path_1" data-name="Path 1" d="M52.187,45.205,49.776,31.224a15.288,15.288,0,0,0-1.819-5.788c-2.386-3.7-7.284-4.6-11.252-6.518a41.411,41.411,0,0,1-6.916-4.57L97.9,0c-2.959,3.627-4.212,8.306-5.537,12.8a217.006,217.006,0,0,1-11.77,30.953,1.466,1.466,0,0,1-.709.84c-.586.212-1.135-.354-1.548-.82a17.553,17.553,0,0,0-5.108-3.609C67.64,37.2,61.74,34.6,57.089,30.325L52.358,45.164" fill="none" stroke="#fff" stroke-linecap="round" stroke-linejoin="round" stroke-miterlimit="10" stroke-width="2.5"/>
      <path id="Path_2" data-name="Path 2" d="M52.912,44.693q5.961-3.827,11.658-8.042" fill="none" stroke="#fff" stroke-linecap="round" stroke-miterlimit="10" stroke-width="2.5"/>
      <path id="Path_3" data-name="Path 3" d="M48.581,23.959Q72.824,13.168,96.205.565" fill="none" stroke="#fff" stroke-linecap="round" stroke-miterlimit="10" stroke-width="2.5"/>
      <path id="Path_4" data-name="Path 4" d="M57.235,30.634c-.072-.765.607-1.368,1.221-1.829Q77.6,14.408,97.263.715" fill="none" stroke="#fff" stroke-linecap="round" stroke-linejoin="round" stroke-miterlimit="10" stroke-width="2.5"/>
    </g>
    <path id="Path_5" data-name="Path 5" d="M47.256,52.388a18.748,18.748,0,0,1-18.6,8.674,11.67,11.67,0,0,1-6.936-3.426A6.828,6.828,0,0,1,20.4,50.32c1.161-2.36,4.436-3.584,6.644-2.156a6.7,6.7,0,0,1,2.115,2.56c1.678,3.132,2.389,7.006.933,10.248-1.528,3.4-5.061,5.423-8.524,6.811A49.251,49.251,0,0,1,0,71.2" fill="none" stroke="#fff" stroke-linecap="round" stroke-linejoin="round" stroke-miterlimit="10" stroke-width="2.5"/>
    <path id="Path_6" data-name="Path 6" d="M54.4,22.668c.174,1.4,1.05,10.857,1.225,12.253" fill="none" stroke="#fff" stroke-linecap="round" stroke-miterlimit="10" stroke-width="2.5"/>
    <path id="Path_7" data-name="Path 7" d="M62.975,17.767c.046.593-.157,5.552,0,6.126" fill="none" stroke="#fff" stroke-linecap="round" stroke-miterlimit="10" stroke-width="2.5"/>
    <path id="Path_8" data-name="Path 8" d="M70.327,14.091c.046.593-.157,4.327,0,4.9" fill="none" stroke="#fff" stroke-linecap="round" stroke-miterlimit="10" stroke-width="2.5"/>
    <path id="Path_9" data-name="Path 9" d="M76.453,11.64c.047.593-.157,3.1,0,3.676" fill="none" stroke="#fff" stroke-linecap="round" stroke-miterlimit="10" stroke-width="2.5"/>
  </g>
</svg>
