<svg xmlns="http://www.w3.org/2000/svg" width="53.225" height="29.149" viewBox="0 0 53.225 29.149">
  <g id="Group_2" data-name="Group 2" transform="translate(-0.164 -0.395)">
    <g id="Group_1" data-name="Group 1">
      <path id="Path_1" data-name="Path 1" d="M2.933,15.034c7.051-6,15.2-12.805,25.084-12.125,4.669.321,9,2.471,13.009,4.731,3.8,2.141,7.737,4.475,10.038,8.312l.2-1.515C45.467,19.576,39.42,24.8,31.641,26.468a27.122,27.122,0,0,1-21.434-4.5A27.283,27.283,0,0,1,2.5,13.35,1.251,1.251,0,0,0,.34,14.611a29.865,29.865,0,0,0,17.083,13.7,30.228,30.228,0,0,0,24.438-3.335A79.586,79.586,0,0,0,53.028,16.2a1.263,1.263,0,0,0,.195-1.515,23.019,23.019,0,0,0-7.889-7.416,58.361,58.361,0,0,0-10.352-5.3A23.315,23.315,0,0,0,23.233.645,30.586,30.586,0,0,0,12.1,4.92,86.138,86.138,0,0,0,1.165,13.267c-1.227,1.044.549,2.805,1.768,1.767Z" fill="#00a147"/>
      <path id="Path_2" data-name="Path 2" d="M28.766,5.838A8.5,8.5,0,0,0,19.3,10.91a10.086,10.086,0,0,0,2.637,11.248,7.659,7.659,0,0,0,10.258.219,9.642,9.642,0,0,0,2.349-10.738,13.914,13.914,0,0,0-1.591-3.028,9.115,9.115,0,0,0-2.379-2.626c-1.441-.869-4.571-.51-3.8,1.843.5,1.522,2.915.87,2.411-.664l-.256.666-.232.157c-.018-.022-.113-.109.111-.007.165.074.335.053.5.164a6.4,6.4,0,0,1,1.33,1.517,11.081,11.081,0,0,1,1.906,3.986,6.925,6.925,0,0,1-2.206,7.033,5.139,5.139,0,0,1-6.816-.447,7.642,7.642,0,0,1-2.163-7.7A6.007,6.007,0,0,1,28.1,8.249c1.57.328,2.241-2.081.665-2.411Z" fill="#00a147"/>
    </g>
  </g>
</svg>
