<svg width="36" height="36" viewBox="0 0 36 36" fill="none" xmlns="http://www.w3.org/2000/svg">
<path d="M28.0894 33.7512H2.24715V5.64163H18.0334L20.3053 3.45133L20.2468 3.39286H2.24715C1.00616 3.39286 0 4.39975 0 5.64163V33.7512C0 34.9931 1.00616 36 2.24715 36H28.0894C29.3304 36 30.3366 34.9931 30.3366 33.7512V17.2841L28.0894 19.4305V33.7512ZM34.2298 1.46567C33.2157 0.493077 32.0967 0 30.9029 0C29.0344 0 27.6715 1.20759 27.3007 1.57755C26.7749 2.09701 11.8807 16.98 11.8807 16.98C11.7639 17.0991 11.6785 17.2447 11.6347 17.4066C11.2313 18.8981 9.20943 25.523 9.18921 25.5888C9.08471 25.9283 9.17797 26.2983 9.42797 26.5451C9.51503 26.6326 9.61853 26.7019 9.7325 26.7492C9.84647 26.7965 9.96866 26.8207 10.092 26.8206C10.1887 26.8206 10.2859 26.8065 10.3813 26.7767C10.4499 26.7537 17.2806 24.5431 18.4048 24.2075C18.5531 24.1636 18.6874 24.0833 18.7986 23.9748C19.5081 23.2743 33.1983 9.78671 34.3062 8.64152C35.4517 7.45867 36.0213 6.22912 35.9994 4.98387C35.9786 3.75379 35.3809 2.56981 34.2298 1.46567ZM32.6922 7.07631C32.0669 7.72171 27.1709 12.5633 18.1401 21.4662L17.4491 22.1481C16.4138 22.4686 13.9346 23.2658 12.0604 23.8707C12.6638 21.8766 13.3879 19.4676 13.711 18.3281C15.6407 16.3997 28.4012 3.64979 28.886 3.1708C28.9804 3.07631 29.8416 2.24821 30.9028 2.24821C31.5051 2.24821 32.0854 2.52312 32.6747 3.08868C33.3792 3.765 33.7421 4.41489 33.7522 5.02206C33.7635 5.64722 33.4067 6.33815 32.6922 7.07631Z" fill="black"/>
</svg>
