<svg width="36" height="36" viewBox="0 0 36 36" fill="none" xmlns="http://www.w3.org/2000/svg">
<path d="M5 24C5 23.4477 5.4477 23 6 23H20C20.5523 23 21 23.4477 21 24C21 24.5523 20.5523 25 20 25H6C5.4477 25 5 24.5523 5 24Z" fill="black"/>
<path d="M6 28C5.4477 28 5 28.4477 5 29C5 29.5523 5.4477 30 6 30H20C20.5523 30 21 29.5523 21 29C21 28.4477 20.5523 28 20 28H6Z" fill="black"/>
<path d="M8 15V12H10V15H13V17H10V20H8V17H5V15H8Z" fill="black"/>
<path fill-rule="evenodd" clip-rule="evenodd" d="M9 0C7.3431 0 6 1.34315 6 3H3C1.34315 3 0 4.3431 0 6V33C0 34.6569 1.34315 36 3 36H23C24.6569 36 26 34.6569 26 33V6C26 4.3431 24.6569 3 23 3H20C20 1.34315 18.6569 0 17 0H9ZM17 6C17.5523 6 18 5.5523 18 5V3C18 2.44772 17.5523 2 17 2H9C8.4477 2 8 2.44772 8 3V5C8 5.5523 8.4477 6 9 6H17ZM6 5C6 6.6569 7.3431 8 9 8H17C18.6569 8 20 6.6569 20 5H23C23.5523 5 24 5.4477 24 6V33C24 33.5523 23.5523 34 23 34H3C2.44772 34 2 33.5523 2 33V6C2 5.4477 2.44772 5 3 5H6Z" fill="black"/>
<path fill-rule="evenodd" clip-rule="evenodd" d="M30 11C30 9.3431 31.3431 8 33 8C34.6569 8 36 9.3431 36 11V31.3028L33 35.8028L30 31.3028V11ZM33 10C32.4477 10 32 10.4477 32 11V13H34V11C34 10.4477 33.5523 10 33 10ZM33 32.1972L34 30.6972V15H32V30.6972L33 32.1972Z" fill="black"/>
</svg>
