<svg width="38" height="33" viewBox="0 0 38 33" fill="none" xmlns="http://www.w3.org/2000/svg">
<path fill-rule="evenodd" clip-rule="evenodd" d="M0.00147173 3.79983C0.151582 6.49093 0.917521 8.15683 2.03922 9.18343C1.49154 9.59133 1.17402 10.276 1.2906 11.0163C1.86296 14.6509 3.29391 22.3389 6.22726 31.0048C6.81026 32.7272 9.13876 32.7272 9.72176 31.0048C12.6551 22.3389 14.0861 14.6509 14.6585 11.0163C14.775 10.276 14.4575 9.59134 13.9098 9.18334C15.0315 8.15684 15.7974 6.49093 15.9475 3.79983C15.9783 3.24843 15.5253 2.79423 14.9731 2.80213C13.345 2.82554 12.0519 2.92444 11.0431 3.26354C10.6267 2.16513 9.78596 1.12809 8.52076 0.181395C8.19756 -0.060465 7.75136 -0.060465 7.42816 0.181395C6.17326 1.1204 5.33586 2.14823 4.91607 3.23673C3.93643 2.94783 2.6536 2.83323 0.978481 2.80393C0.426281 2.79423 -0.0292883 3.24843 0.00147173 3.79983ZM9.85536 5.77274L9.17296 3.97244C8.98396 3.47404 8.61466 2.91353 7.97446 2.32233C7.34096 2.90733 6.97276 3.46223 6.78206 3.95653L6.11866 5.67654L4.35032 5.15503C3.82867 5.00123 3.11637 4.89854 2.11564 4.84384C2.41295 6.77194 3.12759 7.58683 3.77907 8.00823C4.71059 8.61063 6.06786 8.79393 7.94456 8.79583H8.00436C9.88116 8.79393 11.2384 8.61063 12.1699 8.00823C12.822 7.58643 13.5374 6.77043 13.8342 4.83833C12.8644 4.88913 12.1836 4.99014 11.6804 5.15924L9.85536 5.77274ZM3.28057 10.7958H12.6685C12.382 12.6032 11.8846 15.395 11.0987 18.7958H6.97436V20.7958H10.6194C9.92866 23.5781 9.05886 26.6783 7.97446 29.9258C7.62026 28.8648 7.28886 27.8194 6.97916 26.7958H7.97436V24.7958H6.39296C5.43546 21.4218 4.71908 18.3438 4.19542 15.7958H6.97436V13.7958H3.80182C3.58075 12.6196 3.40934 11.6083 3.28057 10.7958Z" fill="black"/>
<path d="M33.2173 19.825C33.7531 19.959 34.0789 20.5019 33.9449 21.0377C33.3554 23.396 31.5756 25.1757 29.2173 25.7653C28.6815 25.8993 28.1386 25.5735 28.0047 25.0377C27.8707 24.5019 28.1965 23.959 28.7323 23.825C30.374 23.4146 31.5942 22.1943 32.0047 20.5526C32.1386 20.0168 32.6815 19.6911 33.2173 19.825Z" fill="black"/>
<path fill-rule="evenodd" clip-rule="evenodd" d="M27.6254 12.8224C26.5166 10.2295 26.7088 7.47499 28.6817 5.50209L27.2675 4.08789C24.9381 6.41719 24.5336 9.46529 25.3149 12.2658C20.7392 10.1956 15.9746 14.0027 15.9746 19.795C15.9746 25.3178 20.8995 29.795 26.9746 29.795C33.0497 29.795 37.9746 25.3178 37.9746 19.795C37.9746 13.5748 32.4801 9.64399 27.6254 12.8224ZM26.9746 15.8562L25.7252 14.8567C23.8673 13.3703 22.0368 13.4529 20.6506 14.3091C19.185 15.2143 17.9746 17.1525 17.9746 19.795C17.9746 24.0381 21.8204 27.795 26.9746 27.795C32.1288 27.795 35.9746 24.0381 35.9746 19.795C35.9746 17.1525 34.7642 15.2143 33.2986 14.3091C31.9124 13.4529 30.0819 13.3703 28.224 14.8567L26.9746 15.8562Z" fill="black"/>
<path d="M28.9746 9.79492C31.9746 9.79492 33.9746 7.79492 33.9746 4.79492C30.9746 4.79492 28.9746 6.79492 28.9746 9.79492Z" fill="black"/>
</svg>
