<svg xmlns="http://www.w3.org/2000/svg" width="160" height="160" viewBox="0 0 160 160">
  <g id="Group_200" data-name="Group 200" transform="translate(17891 6437)">
    <circle id="Ellipse_122" data-name="Ellipse 122" cx="80" cy="80" r="80" transform="translate(-17891 -6437)" fill="#1877f1"/>
    <circle id="Ellipse_124" data-name="Ellipse 124" cx="38" cy="38" r="38" transform="translate(-17849.52 -6395.44)" fill="#fff"/>
    <path id="Path_1312" data-name="Path 1312" d="M118.5,79.24a38.8,38.8,0,1,0-44.86,38.32V90.45H63.79V79.24h9.85V70.69c0-9.73,5.79-15.1,14.65-15.1a59.512,59.512,0,0,1,8.69.76V65.9H92.09c-4.82,0-6.33,3-6.33,6.06v7.28H96.52L94.8,90.45h-9v27.11a38.81,38.81,0,0,0,32.7-38.32" transform="translate(-17891 -6437)" fill="#1877f1"/>
  </g>
</svg>
