<svg xmlns="http://www.w3.org/2000/svg" width="50" height="66.632" viewBox="0 0 50 66.632">
  <g id="Group_1" data-name="Group 1" transform="translate(0.459 2.875)">
    <path id="Path_1" data-name="Path 1" d="M24.94,21.3c-1.442,0-2.789-1.155-4.14-1.724a11.075,11.075,0,0,0-10.177,1.146A15.119,15.119,0,0,0,4.6,29.352a23.039,23.039,0,0,0-.17,10.7,30.725,30.725,0,0,0,7.8,15c1.6,1.675,3.628,3.251,5.92,3.123,2.354-.132,4.408-1.817,6.778-1.817" fill="none" stroke="#fff" stroke-linecap="round" stroke-linejoin="round" stroke-miterlimit="10" stroke-width="2.5"/>
    <path id="Path_2" data-name="Path 2" d="M24.94,21.3c1.442,0,2.9-1.155,4.252-1.724a11.075,11.075,0,0,1,10.177,1.146,15.119,15.119,0,0,1,6.021,8.63,23.066,23.066,0,0,1,.17,10.7,30.718,30.718,0,0,1-7.8,15c-1.6,1.675-3.627,3.251-5.919,3.123-2.354-.132-4.539-1.812-6.9-1.812" fill="none" stroke="#fff" stroke-linecap="round" stroke-linejoin="round" stroke-miterlimit="10" stroke-width="2.5"/>
    <path id="Path_3" data-name="Path 3" d="M24.925,21.082A13.719,13.719,0,0,1,27.9,11.49a21.852,21.852,0,0,1,8.026-6.165" fill="none" stroke="#fff" stroke-linecap="round" stroke-linejoin="round" stroke-miterlimit="10" stroke-width="2.5"/>
    <path id="Path_4" data-name="Path 4" d="M26.783,12.4a6.267,6.267,0,0,0-1.7-6.863,14.369,14.369,0,0,0-3.564-1.66A15.636,15.636,0,0,1,15.947,0a16.89,16.89,0,0,0,.5,6.834,9.566,9.566,0,0,0,4,5.391,6.588,6.588,0,0,0,6.493.27" fill="none" stroke="#fff" stroke-linecap="round" stroke-linejoin="round" stroke-miterlimit="10" stroke-width="2.5"/>
    <path id="Path_5" data-name="Path 5" d="M.416,8.5A505.686,505.686,0,0,1,48.547,63" fill="none" stroke="#fff" stroke-linecap="round" stroke-miterlimit="10" stroke-width="2.5"/>
  </g>
</svg>
