<svg xmlns="http://www.w3.org/2000/svg" width="44.945" height="68.959" viewBox="0 0 44.945 68.959">
  <g id="Group_1" data-name="Group 1" transform="translate(-0.649 -0.207)">
    <path id="Path_1" data-name="Path 1" d="M2.46,32.527l7.378,7.387c1.171,1.173,2.348,2.34,3.513,3.518a5.726,5.726,0,0,1,2.07,3.954c.388,6.816.374,13.679.558,20.5.019.73.8,1.521,1.582,1.205a44.717,44.717,0,0,0,4.668-2.171q1.162-.632,2.28-1.337A11.277,11.277,0,0,0,26.957,63.9c.534-.612.427-1.584.493-2.347l.252-2.927.525-6.1q.242-2.8.483-5.61a3.7,3.7,0,0,1,.7-2.343,15.661,15.661,0,0,1,2.334-1.844,81.183,81.183,0,0,0,8.222-7.282q1.723-1.752,3.341-3.605c1.031-1.182,2.323-2.447,2.289-4.136-.056-2.772-3.243-3.7-5.5-3.845a210.784,210.784,0,0,0-24.044.111q-3.188.162-6.369.4a24.487,24.487,0,0,0-5.659.695A4.858,4.858,0,0,0,.773,28c-.452,1.454.435,2.775,1.068,4.023.728,1.436,2.886.172,2.159-1.261-.381-.753-1.191-1.646-.584-2.425a4.2,4.2,0,0,1,2.992-1.18c3.116-.347,6.271-.5,9.4-.662q9.313-.483,18.646-.3,2.333.047,4.662.135a7.5,7.5,0,0,1,3.119.529c1.153.578.887,1.3.175,2.2-.92,1.165-1.96,2.258-2.977,3.338a80.746,80.746,0,0,1-6.116,5.845c-1.04.9-2.1,1.766-3.19,2.6a13.789,13.789,0,0,0-2.936,2.5,7.132,7.132,0,0,0-1,3.819l-.441,5.122-.925,10.732.62-1.08A40.9,40.9,0,0,1,16.9,66.684l1.583,1.206-.294-10.9-.146-5.452a42.306,42.306,0,0,0-.242-5.378C17.3,43,14.254,40.8,12.132,38.674l-7.9-7.915A1.251,1.251,0,0,0,2.46,32.527Z" fill="#0068ff"/>
    <path id="Path_2" data-name="Path 2" d="M9.824,21.261q4.865-6.27,10.217-12.133H18.273c1.092,1.139,2.993,3.468,4.762,3.28.983-.1,1.482-.842,2.034-1.571q1.1-1.461,2.2-2.927l2.2-2.927c.382-.507,1.459-2.45,2.148-2.217.365.123.766.759,1.02,1.027l1.3,1.373,2.6,2.745c1.108,1.171,2.874-.6,1.768-1.768A61.836,61.836,0,0,0,33.268.872c-1.574-1.3-3.323-.524-4.478.9-1.539,1.892-2.947,3.906-4.413,5.856Q23.79,8.4,23.2,9.185q-.285.382-.578.761.678.051-.107-.31A20.848,20.848,0,0,1,20.041,7.36a1.263,1.263,0,0,0-1.768,0Q12.923,13.221,8.056,19.493c-.974,1.256.783,3.038,1.768,1.768Z" fill="#0068ff"/>
  </g>
</svg>
