<svg xmlns="http://www.w3.org/2000/svg" width="37.932" height="83" viewBox="0 0 37.932 83">
  <g id="Group_1" data-name="Group 1" transform="translate(-1.079 -1)">
    <path id="Path_1" data-name="Path 1" d="M16.836,67.463V61.012a1.671,1.671,0,0,1,1.671-1.671h3.321a1.664,1.664,0,0,1,1.665,1.665V79.281A4.719,4.719,0,0,0,28.212,84h.374a4.719,4.719,0,0,0,4.719-4.719V60.342a1,1,0,0,1,1-1h3.711a.983.983,0,0,0,.956-1.211l-5.668-23.8c-2.32-7.181-5.983-13.363-13.364-13.363h0c-7.133,0-11.011,6.173-12.916,12.917L1.108,58.1a1,1,0,0,0,.974,1.241H6.027a1,1,0,0,1,1,1v7.125h0V79.281A4.719,4.719,0,0,0,11.742,84h.373a4.719,4.719,0,0,0,4.719-4.719V67.463" fill="#757575"/>
    <path id="Path_2" data-name="Path 2" d="M13.668,3.4a9.985,9.985,0,0,1,13.005.011,16.611,16.611,0,0,1,3.059-1.088,11.123,11.123,0,0,1,5.356-.3,4.987,4.987,0,0,1,3.273,1.785,4.261,4.261,0,0,1,.6,1.488c.579,3.08-3.588,7.17-3.868,7.44A8.134,8.134,0,0,0,32.41,9.467a7.994,7.994,0,0,0-2.641-1.226,9.986,9.986,0,1,1-19.211.01,8.012,8.012,0,0,0-2.6,1.216,8.134,8.134,0,0,0-2.678,3.274c-.28-.27-4.447-4.36-3.868-7.44A4.283,4.283,0,0,1,2,3.813,4.987,4.987,0,0,1,5.275,2.028a11.128,11.128,0,0,1,5.357.3A16.713,16.713,0,0,1,13.668,3.4Z" fill="#757575"/>
  </g>
</svg>
