<svg xmlns="http://www.w3.org/2000/svg" width="77.986" height="97.181" viewBox="0 0 77.986 97.181">
  <g id="Group_1" data-name="Group 1" transform="translate(-0.014 -0.316)">
    <path id="Path_1" data-name="Path 1" d="M75.578,41.057A30.278,30.278,0,0,1,21.969,60.368a30.288,30.288,0,0,1,29.314-49,30.187,30.187,0,0,1,24.3,29.691,1.212,1.212,0,0,0,2.422,0A33.064,33.064,0,0,0,56.608,10.368a32.711,32.711,0,0,0-39.3,47.6,32.7,32.7,0,0,0,60.28-11.746A35.078,35.078,0,0,0,78,41.057,1.212,1.212,0,0,0,75.578,41.057Z" fill="#272727"/>
    <path id="Path_2" data-name="Path 2" d="M64.6,79.354A42.9,42.9,0,0,1,6.209,23.4,43.559,43.559,0,0,1,26.383,2.565c1.4-.7.169-2.787-1.222-2.092A45.728,45.728,0,0,0,.388,46.929,45.287,45.287,0,0,0,65.824,81.446c1.393-.7.168-2.789-1.223-2.092Z" fill="#272727"/>
    <path id="Path_3" data-name="Path 3" d="M58.532,69.742l4.935,9.87.7,1.4a1.211,1.211,0,1,0,2.092-1.222l-4.935-9.871-.7-1.4a1.211,1.211,0,0,0-2.091,1.223Z" fill="#272727"/>
    <path id="Path_4" data-name="Path 4" d="M24.726,2.13,29.661,12l.7,1.4a1.211,1.211,0,1,0,2.091-1.222L27.517,2.307l-.7-1.4A1.211,1.211,0,1,0,24.726,2.13Z" fill="#272727"/>
    <path id="Path_5" data-name="Path 5" d="M44.572,85.143V95.8a1.212,1.212,0,0,0,2.422,0V85.143a1.212,1.212,0,0,0-2.422,0Z" fill="#272727"/>
    <path id="Path_6" data-name="Path 6" d="M26.888,97.5h36.82a1.212,1.212,0,0,0,0-2.422H26.888a1.212,1.212,0,0,0,0,2.422Z" fill="#272727"/>
  </g>
</svg>
