<svg xmlns="http://www.w3.org/2000/svg" width="160" height="160" viewBox="0 0 160 160">
  <g id="Group_202" data-name="Group 202" transform="translate(17311 6436)">
    <circle id="Ellipse_123" data-name="Ellipse 123" cx="80" cy="80" r="80" transform="translate(-17311 -6436)" fill="#fff"/>
    <path id="Path_1313" data-name="Path 1313" d="M692.46,81.48a28.811,28.811,0,0,0-.7-6.77H660.64V87H678.9a16.17,16.17,0,0,1-6.77,10.76l-.06.41,9.84,7.62.68.07c6.26-5.78,9.87-14.29,9.87-24.38" transform="translate(-17891 -6437)" fill="#4284f3"/>
    <path id="Path_1314" data-name="Path 1314" d="M660.64,113.88c9,0,16.46-2.94,22-8l-10.46-8.1a19.62,19.62,0,0,1-11.49,3.31,20,20,0,0,1-18.9-13.79h-.39l-10.23,7.92-.13.37a33.09,33.09,0,0,0,29.6,18.26" transform="translate(-17891 -6437)" fill="#34a753"/>
    <path id="Path_1315" data-name="Path 1315" d="M641.79,87.3a20.39,20.39,0,0,1-1.11-6.56,21.5,21.5,0,0,1,1.07-6.55v-.44l-10.36-8-.33.16a33,33,0,0,0,0,29.75l10.75-8.32" transform="translate(-17891 -6437)" fill="#fabb05"/>
    <path id="Path_1316" data-name="Path 1316" d="M660.64,60.42a18.43,18.43,0,0,1,12.82,4.93l9.35-9.13a31.85,31.85,0,0,0-22.17-8.62A33.1,33.1,0,0,0,631,65.87l10.71,8.32A20,20,0,0,1,660.6,60.42" transform="translate(-17891 -6437)" fill="#ea4335"/>
  </g>
</svg>
