<svg xmlns="http://www.w3.org/2000/svg" width="359.88" height="557" viewBox="0 0 359.88 557">
  <g id="Group_8" data-name="Group 8" opacity="0.2">
    <g id="Group_7" data-name="Group 7">
      <g id="Group_1" data-name="Group 1">
        <path id="Path_1" data-name="Path 1" d="M176.432,211.135H359.88V190.468H187.243V162.535l.915-.5c36.073-18.705,54.349-44.345,54.349-76.2C242.507,32.825,196.974,0,154.783,0S67.026,32.825,67.026,85.834c0,33.972,21.59,62.74,59.214,78.934l1.021.438.4,25.262H0v20.667H138.589a11.01,11.01,0,0,0,7.716-3.121,9.825,9.825,0,0,0,3.056-7.345L148.7,158.08a10.4,10.4,0,0,0-6.96-9.5c-19.853-7.232-53.162-24.983-53.162-62.747,0-40.249,34.376-65.159,66.207-65.159,31.851,0,66.187,24.91,66.187,65.159,0,25.395-15.677,44.83-49.35,61.222a10.252,10.252,0,0,0-5.946,9.161v44.572a10.007,10.007,0,0,0,3.135,7.278,11.118,11.118,0,0,0,7.623,3.068" fill="#FFFFFF"/>
      </g>
      <g id="Group_2" data-name="Group 2">
        <path id="Path_2" data-name="Path 2" d="M285.491,412.639h74.386V392.846H295.97l.193-11.56.974-.437c23.353-10.865,36.2-30.009,36.2-53.9,0-36.829-31.671-59.638-61.017-59.638-29.371,0-61.069,22.809-61.069,59.638,0,29.219,20.708,46.653,33.03,53.506l.882.471v11.918H197.184v19.793h58.292a10.437,10.437,0,0,0,7.311-2.929,9.624,9.624,0,0,0,3.01-6.987V374.949a9.763,9.763,0,0,0-5.654-8.829c-19.794-9.586-28.238-22.4-28.238-39.169,0-24.6,20.986-39.825,40.414-39.825,19.4,0,40.336,15.22,40.336,39.825,0,26.475-19.018,34.316-30.379,38.479a9.914,9.914,0,0,0-6.629,9.115l-.477,28.006a9.576,9.576,0,0,0,2.956,7.066,10.527,10.527,0,0,0,7.365,3.022" fill="#FFFFFF"/>
      </g>
      <g id="Group_3" data-name="Group 3">
        <path id="Path_3" data-name="Path 3" d="M145.1,230.131a10.956,10.956,0,0,0-8.671-4.195H0V246.6H121.927L23.85,555.771H46.374L146.732,239.226a10.052,10.052,0,0,0-1.637-9.1" fill="#FFFFFF"/>
      </g>
      <g id="Group_4" data-name="Group 4">
        <path id="Path_4" data-name="Path 4" d="M359.875,225.933h-187.4a10.553,10.553,0,0,0-10.759,10.321V555.768h21.53V246.6H359.875Z" fill="#FFFFFF"/>
      </g>
      <g id="Group_5" data-name="Group 5">
        <path id="Path_5" data-name="Path 5" d="M265.9,557V433.065a10.142,10.142,0,0,0-10.334-9.9H197.183v19.807h48.025V557Z" fill="#FFFFFF"/>
      </g>
      <g id="Group_6" data-name="Group 6">
        <path id="Path_6" data-name="Path 6" d="M359.875,442.973V423.167H286.927a10.449,10.449,0,0,0-8.319,4.05,9.854,9.854,0,0,0-1.591,8.717L312.858,557h21.537L300.774,442.973Z" fill="#FFFFFF"/>
      </g>
    </g>
  </g>
</svg>
