<svg xmlns="http://www.w3.org/2000/svg" width="409.677" height="150" viewBox="0 0 409.677 150">
  <g id="Group_25" data-name="Group 25" transform="translate(-0.275)">
    <g id="Group_24" data-name="Group 24">
      <g id="Group_16" data-name="Group 16">
        <g id="Group_8" data-name="Group 8">
          <g id="Group_1" data-name="Group 1">
            <path id="Path_1" data-name="Path 1" d="M173.153,33.182h-32.61v8.846h24.134c-.122,6.287-2.506,10.964-7.279,14.29a23.49,23.49,0,0,1-13.718,4.2c-6.781,0-12.355-1.774-16.564-5.269-5.2-4.378-7.841-11.271-7.841-20.486,0-9.047,2.6-15.888,7.732-20.339,4.186-3.7,9.626-5.579,16.169-5.579,11.893,0,18.416,4.808,20.53,15.134l.588,2.84h9.076l-.8-4.217c-1.583-8.322-5.673-14.486-12.154-18.318C155.653,1.442,149.817,0,143.066,0c-8.724,0-16.133,2.593-22.023,7.71C113.984,13.918,110.4,23.053,110.4,34.86c0,11.972,3.711,21.127,11.026,27.208,5.787,4.85,13.273,7.308,22.25,7.308a31.516,31.516,0,0,0,19.8-6.421c6.752-5.25,10.176-12.821,10.176-22.5,0-1.5-.06-2.824-.182-4.045Z" fill="#253084"/>
          </g>
          <g id="Group_2" data-name="Group 2">
            <path id="Path_2" data-name="Path 2" d="M222.956,42.768c0,12.278-5.393,17.753-17.487,17.753-12.134,0-17.546-5.584-17.546-18.106V.638h-8.868V42.506c0,10.173,2.888,17.573,8.589,22,4.213,3.233,10.211,4.872,17.825,4.872,7.57,0,13.546-1.637,17.762-4.865,5.7-4.357,8.6-11.7,8.6-21.827V.638h-8.871Z" fill="#253084"/>
          </g>
          <g id="Group_3" data-name="Group 3">
            <path id="Path_3" data-name="Path 3" d="M265.765,53.481,244.522.638h-9.428l27.251,68.115h6.781L295.734.638h-9.446Z" fill="#253084"/>
          </g>
          <g id="Group_4" data-name="Group 4">
            <path id="Path_4" data-name="Path 4" d="M309.33,37.726h34.3V28.959h-34.3V9.478h38.748V.638H300.512V68.753H348.5V59.889H309.33Z" fill="#253084"/>
          </g>
          <g id="Group_5" data-name="Group 5">
            <path id="Path_5" data-name="Path 5" d="M399.132.638V51.959c-4.515-6.288-9.529-13.136-14.932-20.392-9.635-12.985-16.8-22.88-21.311-29.421L361.81.638h-8.02V68.753h8.876V17.114l37.093,51.271.265.368H408V.638Z" fill="#253084"/>
          </g>
          <g id="Group_6" data-name="Group 6">
            <rect id="Rectangle_1" data-name="Rectangle 1" width="8.589" height="10.198" transform="translate(195.01 0.737)" fill="#253084"/>
          </g>
          <g id="Group_7" data-name="Group 7">
            <rect id="Rectangle_2" data-name="Rectangle 2" width="8.574" height="10.198" transform="translate(206.792 0.737)" fill="#253084"/>
          </g>
        </g>
        <g id="Group_15" data-name="Group 15">
          <g id="Group_9" data-name="Group 9">
            <path id="Path_6" data-name="Path 6" d="M116.838,147.414V89.157h39.115v7.317H124.748v17.481H152v7.119h-27.25v26.34Z" fill="#253084"/>
            <path id="Path_7" data-name="Path 7" d="M125.713,148.381h-9.841V88.191H156.92v9.25H125.713v15.548h27.251v9.051H125.713Zm-7.91-1.931h5.978V120.108h27.251v-5.187H123.781V95.51h31.207V90.122H117.8Z" fill="#253084"/>
          </g>
          <g id="Group_10" data-name="Group 10">
            <path id="Path_8" data-name="Path 8" d="M161.315,125.306V89.157h7.909v36.228q0,8.187,3.619,12.1t11.213,3.916q7.514,0,11.212-3.975t3.7-12.043V89.157h7.95v36.149q0,11.707-6.032,17.718t-17.738,6.012q-10.915,0-16.374-5.933T161.315,125.306Z" fill="#253084"/>
            <path id="Path_9" data-name="Path 9" d="M183.146,150c-7.525,0-13.273-2.1-17.085-6.244-3.79-4.116-5.712-10.326-5.712-18.449V88.191h9.841v37.195c0,5.184,1.13,9.032,3.362,11.443,2.211,2.392,5.746,3.607,10.5,3.607,4.707,0,8.242-1.234,10.505-3.663,2.283-2.456,3.439-6.286,3.439-11.387V88.191h9.883v37.116c0,8.036-2.126,14.227-6.317,18.4S191.18,150,183.146,150ZM162.281,90.122v35.185c0,7.625,1.75,13.39,5.2,17.144,3.432,3.727,8.7,5.617,15.663,5.617,7.5,0,13.242-1.928,17.057-5.727s5.747-9.534,5.747-17.034V90.122h-6.019v35.264c0,5.6-1.332,9.878-3.956,12.7-2.644,2.84-6.655,4.282-11.92,4.282-5.319,0-9.33-1.423-11.922-4.226-2.571-2.78-3.874-7.07-3.874-12.756V90.122Z" fill="#253084"/>
          </g>
          <g id="Group_11" data-name="Group 11">
            <path id="Path_10" data-name="Path 10" d="M229.482,147.414V96.237H211.091v-7.08h44.731v7.08H237.431v51.177Z" fill="#253084"/>
            <path id="Path_11" data-name="Path 11" d="M238.4,148.381h-9.881V97.2h-18.39V88.191h46.664V97.2H238.4Zm-7.949-1.931h6.018V95.272h18.392v-5.15h-42.8v5.15h18.39Z" fill="#253084"/>
          </g>
          <g id="Group_12" data-name="Group 12">
            <path id="Path_12" data-name="Path 12" d="M260.115,125.306V89.157h7.91v36.228q0,8.187,3.619,12.1t11.212,3.916q7.515,0,11.213-3.975t3.7-12.043V89.157h7.949v36.149q0,11.707-6.031,17.718t-17.738,6.012q-10.915,0-16.374-5.933T260.115,125.306Z" fill="#253084"/>
            <path id="Path_13" data-name="Path 13" d="M281.947,150c-7.526,0-13.274-2.1-17.085-6.244-3.791-4.12-5.714-10.326-5.714-18.449V88.191h9.844v37.195c0,5.184,1.13,9.032,3.361,11.443,2.211,2.392,5.746,3.607,10.5,3.607,4.706,0,8.241-1.234,10.505-3.663,2.282-2.456,3.439-6.29,3.439-11.387V88.191h9.881v37.116c0,8.032-2.124,14.224-6.316,18.4S289.98,150,281.947,150ZM261.08,90.122v35.185c0,7.621,1.751,13.39,5.205,17.144,3.429,3.727,8.7,5.617,15.662,5.617,7.5,0,13.241-1.928,17.057-5.727s5.746-9.534,5.746-17.034V90.122h-6.018v35.264c0,5.6-1.329,9.874-3.955,12.7-2.645,2.84-6.656,4.282-11.92,4.282-5.32,0-9.33-1.423-11.922-4.226-2.572-2.78-3.875-7.07-3.875-12.756V90.122Z" fill="#253084"/>
          </g>
          <g id="Group_13" data-name="Group 13">
            <path id="Path_14" data-name="Path 14" d="M315.428,89.157h22.583a49.361,49.361,0,0,1,8.088.475,15.7,15.7,0,0,1,4.647,1.582,13.6,13.6,0,0,1,5.6,5.616,17.749,17.749,0,0,1,1.918,8.464,15.288,15.288,0,0,1-2.017,8.048,13.609,13.609,0,0,1-6.012,5.241,8,8,0,0,1,4.845,3.2q1.443,2.254,1.8,7.633l.672,9.611a15.779,15.779,0,0,0,.811,4.607,3.964,3.964,0,0,0,1.839,2.156v1.621h-9.136q-1.107-1.818-1.542-7.791v-.238l-.475-7.593q-.4-5.853-2.492-7.594t-10.481-1.74H323.259v24.956h-7.831ZM323.18,96v19.736h13.526q7.317,0,10.343-2.373t3.025-7.91q0-5.181-2.848-7.317T336.706,96Z" fill="#253084"/>
            <path id="Path_15" data-name="Path 15" d="M361.164,148.381H350.519l-.283-.464c-.826-1.362-1.375-4.052-1.68-8.22l-.474-7.844c-.3-4.49-1.334-6.236-2.145-6.912-.833-.69-3.223-1.516-9.864-1.516H324.225v24.956h-9.762V88.191h23.548a50.024,50.024,0,0,1,8.262.49A16.878,16.878,0,0,1,351.2,90.36a14.612,14.612,0,0,1,5.993,6.018,18.745,18.745,0,0,1,2.032,8.915,16.3,16.3,0,0,1-2.156,8.549,13.969,13.969,0,0,1-4.531,4.569,7.949,7.949,0,0,1,3.35,2.856c1.062,1.656,1.7,4.3,1.95,8.088l.672,9.606a14.975,14.975,0,0,0,.743,4.316,3.027,3.027,0,0,0,1.387,1.66l.522.268Zm-9.509-1.931,7.578-.117a5.1,5.1,0,0,1-1.77-2.332,16.532,16.532,0,0,1-.879-4.912l-.671-9.6c-.225-3.41-.781-5.825-1.649-7.179a7.089,7.089,0,0,0-4.29-2.792l-2.49-.694,2.334-1.109a12.776,12.776,0,0,0,5.6-4.867,14.446,14.446,0,0,0,1.877-7.553,16.876,16.876,0,0,0-1.805-8.01,12.749,12.749,0,0,0-5.208-5.225,15,15,0,0,0-4.356-1.475,48.645,48.645,0,0,0-7.915-.461H316.395V146.45h5.9V121.493h13.78c5.956,0,9.483.622,11.1,1.962s2.554,4.055,2.839,8.273l.475,7.9A23.6,23.6,0,0,0,351.655,146.45ZM336.7,116.7H322.214V95.034H336.7c5.384,0,9.015.763,11.1,2.328,2.145,1.607,3.233,4.328,3.233,8.089,0,3.988-1.143,6.9-3.4,8.67C345.43,115.856,341.853,116.7,336.7,116.7Zm-12.559-1.932H336.7c4.633,0,7.914-.728,9.747-2.166,1.762-1.384,2.656-3.788,2.656-7.153,0-3.116-.828-5.32-2.461-6.542-1.715-1.29-5.06-1.943-9.942-1.943H324.146Z" fill="#253084"/>
          </g>
          <g id="Group_14" data-name="Group 14">
            <path id="Path_16" data-name="Path 16" d="M366.786,147.414V89.157h41.528v7.238h-33.7v17.4h31.126v6.8H374.617v19.537h34.369v7.277Z" fill="#253084"/>
            <path id="Path_17" data-name="Path 17" d="M409.952,148.381H365.82V88.191h43.46v9.171h-33.7v15.469h31.125v8.734H375.584v17.607h34.368Zm-42.2-1.931H408.02V141.1H373.652V119.633h31.126v-4.871H373.652V95.431h33.7V90.122h-39.6Z" fill="#253084"/>
          </g>
        </g>
      </g>
      <g id="Group_23" data-name="Group 23">
        <g id="Group_17" data-name="Group 17">
          <path id="Path_18" data-name="Path 18" d="M47.259,56.931H96.111v-5.5H50.138V43.989l.243-.133c9.607-4.981,14.473-11.809,14.473-20.292C64.854,9.447,52.729.706,41.493.706S18.124,9.447,18.124,23.564c0,9.046,5.749,16.707,15.768,21.02l.272.116.106,6.728H.276v5.5h36.9a2.933,2.933,0,0,0,2.055-.831,2.62,2.62,0,0,0,.814-1.956L39.873,42.8a2.769,2.769,0,0,0-1.853-2.53c-5.287-1.926-14.158-6.653-14.158-16.709,0-10.719,9.155-17.352,17.631-17.352s17.626,6.633,17.626,17.352c0,6.762-4.175,11.938-13.142,16.3a2.73,2.73,0,0,0-1.583,2.44V54.176a2.662,2.662,0,0,0,.835,1.938,2.958,2.958,0,0,0,2.03.817" fill="#253084"/>
        </g>
        <g id="Group_18" data-name="Group 18">
          <path id="Path_19" data-name="Path 19" d="M76.3,110.592H96.11v-5.271H79.092l.051-3.078.26-.117c6.219-2.893,9.639-7.991,9.639-14.353,0-9.807-8.434-15.881-16.248-15.881S56.531,77.966,56.531,87.773c0,7.781,5.514,12.424,8.8,14.249l.235.126v3.173H52.785v5.271H68.308a2.779,2.779,0,0,0,1.947-.78,2.561,2.561,0,0,0,.8-1.861v-7.4A2.6,2.6,0,0,0,69.551,98.2c-5.271-2.553-7.52-5.966-7.52-10.431a10.753,10.753,0,0,1,21.5,0c0,7.051-5.064,9.139-8.09,10.247a2.64,2.64,0,0,0-1.765,2.428l-.127,7.458a2.546,2.546,0,0,0,.787,1.881,2.8,2.8,0,0,0,1.961.805" fill="#253084"/>
        </g>
        <g id="Group_19" data-name="Group 19">
          <path id="Path_20" data-name="Path 20" d="M38.913,61.99A2.913,2.913,0,0,0,36.6,60.873H.275v5.5H32.744L6.626,148.708h6l26.725-84.3a2.673,2.673,0,0,0-.436-2.422" fill="#253084"/>
        </g>
        <g id="Group_20" data-name="Group 20">
          <path id="Path_21" data-name="Path 21" d="M96.11,60.872h-49.9a2.811,2.811,0,0,0-2.865,2.749v85.087h5.734V66.374H96.11Z" fill="#253084"/>
        </g>
        <g id="Group_21" data-name="Group 21">
          <path id="Path_22" data-name="Path 22" d="M71.083,149.036v-33a2.7,2.7,0,0,0-2.752-2.636H52.785v5.275H65.574v30.365Z" fill="#253084"/>
        </g>
        <g id="Group_22" data-name="Group 22">
          <path id="Path_23" data-name="Path 23" d="M96.11,118.67V113.4H76.684a2.782,2.782,0,0,0-2.216,1.078,2.625,2.625,0,0,0-.423,2.322l9.544,32.24h5.735L80.371,118.67Z" fill="#253084"/>
        </g>
      </g>
    </g>
  </g>
</svg>
