<svg xmlns="http://www.w3.org/2000/svg" width="96.789" height="28.871" viewBox="0 0 96.789 28.871">
  <g id="Group_10" data-name="Group 10" transform="translate(0 0.089)">
    <g id="Group_361" data-name="Group 361">
      <path id="Path_275" data-name="Path 275" d="M9.055,10.853h9.414V9.79H9.609V8.354l.048-.024c1.85-.963,2.788-2.281,2.788-3.919a4.5,4.5,0,0,0-9,0A4.47,4.47,0,0,0,6.483,8.469l.052.023.021,1.3H0v1.063H7.113a.568.568,0,0,0,.4-.16.515.515,0,0,0,.158-.379L7.635,8.127a.531.531,0,0,0-.356-.487C6.261,7.269,4.551,6.355,4.551,4.413a3.4,3.4,0,0,1,6.794,0c0,1.306-.805,2.306-2.533,3.148a.524.524,0,0,0-.3.471v2.287a.515.515,0,0,0,.16.373.573.573,0,0,0,.392.158" fill="#fff"/>
      <path id="Path_276" data-name="Path 276" d="M14.651,21.211h3.818V20.193h-3.28l.01-.593.05-.023a2.967,2.967,0,0,0,1.858-2.77,3.133,3.133,0,0,0-6.265,0,3.2,3.2,0,0,0,1.695,2.749l.045.025v.612H10.119v1.018h2.992a.53.53,0,0,0,.375-.151.492.492,0,0,0,.155-.359V19.274a.5.5,0,0,0-.291-.454A2.154,2.154,0,0,1,11.9,16.807a2.072,2.072,0,0,1,4.144,0,1.993,1.993,0,0,1-1.56,1.977.51.51,0,0,0-.34.469l-.024,1.44a.5.5,0,0,0,.151.363.541.541,0,0,0,.378.155" fill="#fff"/>
      <path id="Path_277" data-name="Path 277" d="M7.446,11.829A.56.56,0,0,0,7,11.613H0v1.063H6.258L1.225,28.568H2.381L7.531,12.3a.517.517,0,0,0-.084-.468" fill="#fff"/>
      <path id="Path_278" data-name="Path 278" d="M18.469,11.613H8.851a.543.543,0,0,0-.552.531V28.568H9.4V12.676h9.064V11.613" fill="#fff"/>
      <path id="Path_279" data-name="Path 279" d="M13.645,28.632v-6.37a.521.521,0,0,0-.531-.509h-3V22.77h2.465v5.862h1.066" fill="#fff"/>
      <path id="Path_280" data-name="Path 280" d="M18.469,22.77V21.753H14.725a.539.539,0,0,0-.427.208.5.5,0,0,0-.082.447l1.84,6.224h1.1L15.432,22.77h3.033" fill="#fff"/>
    </g>
    <path id="Path_281" data-name="Path 281" d="M39,8.161H31.409V9.9h5.928v.093a4.317,4.317,0,0,1-1.882,3.816,5.942,5.942,0,0,1-3.493,1.074,6.371,6.371,0,0,1-4.206-1.349,6.444,6.444,0,0,1-2-5.2,6.508,6.508,0,0,1,1.969-5.169A6.013,6.013,0,0,1,31.841,1.74c3.039,0,4.708,1.238,5.253,3.9l.108.529H38.99l-.149-.782a6.131,6.131,0,0,0-2.88-4.358A8,8,0,0,0,31.812,0a7.73,7.73,0,0,0-5.259,1.844,8.245,8.245,0,0,0-2.539,6.512c0,2.877.884,5.07,2.626,6.523a8.059,8.059,0,0,0,5.323,1.744,7.541,7.541,0,0,0,4.729-1.531,6.419,6.419,0,0,0,2.417-5.365,9.552,9.552,0,0,0-.049-.971L39,8.157" fill="#fff"/>
    <path id="Path_282" data-name="Path 282" d="M51.649,10.306c0,3.125-1.433,4.582-4.514,4.582s-4.527-1.485-4.527-4.669V.155H40.87V10.237c0,2.43.681,4.191,2.025,5.232a6.84,6.84,0,0,0,4.243,1.154,6.825,6.825,0,0,0,4.227-1.151c1.346-1.028,2.028-2.773,2.028-5.193V.155H51.649V10.306" fill="#fff"/>
    <path id="Path_283" data-name="Path 283" d="M61.939,13.528,56.571.155H54.73l6.516,16.316h1.365L68.978.155H67.123L61.939,13.528" fill="#fff"/>
    <path id="Path_284" data-name="Path 284" d="M72.414,8.84h8.42V7.122h-8.42V1.895h9.514V.155H70.689V16.471H82.034V14.73h-9.62V8.84" fill="#fff"/>
    <path id="Path_293" data-name="Path 293" d="M95.55,16.471h1.089V.155H94.9V13.24c-1.062-1.492-2.424-3.357-4.059-5.565C88.494,4.508,86.733,2.075,85.6.438L85.4.155H83.768V16.471h1.741V3.316l9.5,13.155h.54" fill="#fff"/>
    <rect id="Rectangle_1522" data-name="Rectangle 1522" width="1.671" height="2.072" transform="translate(44.786 0.182)" fill="#fff"/>
    <rect id="Rectangle_1523" data-name="Rectangle 1523" width="1.671" height="2.072" transform="translate(47.676 0.182)" fill="#fff"/>
    <g id="Group_9" data-name="Group 9">
      <g id="Group_1" data-name="Group 1">
        <path id="Path_1" data-name="Path 1" d="M24,17.19h1.1v5.121h6.53V17.19h1.105V28.44H31.63V23.3H25.1V28.44H24Z" fill="#fff"/>
        <path id="Path_2" data-name="Path 2" d="M32.884,28.591h-1.4V23.454H25.25v5.137h-1.4V17.039h1.4V22.16h6.23V17.039h1.4Zm-1.1-.3h.8V17.34h-.8v5.121H24.951V17.34h-.805V28.29h.805V23.154H31.78Z" fill="#fff"/>
      </g>
      <g id="Group_2" data-name="Group 2">
        <path id="Path_3" data-name="Path 3" d="M40.967,17A5.687,5.687,0,0,1,46.7,22.743a5.732,5.732,0,1,1-11.459,0A5.687,5.687,0,0,1,40.967,17Zm0,10.61a4.687,4.687,0,0,0,4.577-4.865,4.579,4.579,0,1,0-9.154,0A4.676,4.676,0,0,0,40.967,27.608Z" fill="#fff"/>
        <path id="Path_4" data-name="Path 4" d="M40.967,28.782a5.9,5.9,0,0,1-5.88-6.039,5.88,5.88,0,1,1,11.759,0A5.9,5.9,0,0,1,40.967,28.782Zm0-11.633a5.527,5.527,0,0,0-5.58,5.594,5.582,5.582,0,1,0,11.159,0A5.527,5.527,0,0,0,40.967,17.149Zm0,10.609a4.825,4.825,0,0,1-4.727-5.015,4.729,4.729,0,1,1,9.454,0A4.825,4.825,0,0,1,40.967,27.758Zm0-9.585a4.452,4.452,0,0,0-4.427,4.57,4.436,4.436,0,1,0,8.854,0A4.452,4.452,0,0,0,40.967,18.173Z" fill="#fff"/>
      </g>
      <g id="Group_3" data-name="Group 3">
        <path id="Path_5" data-name="Path 5" d="M49.023,26.344a4.389,4.389,0,0,0,2.945,1.233,2.028,2.028,0,0,0,2.24-1.953c0-2.832-5.617-2.113-5.617-5.6A3.237,3.237,0,0,1,52.1,17,4.369,4.369,0,0,1,55.1,18.086l-.545.928a3.837,3.837,0,0,0-2.464-.96,2.154,2.154,0,0,0-2.369,1.936c0,2.673,5.617,1.905,5.617,5.6a3.1,3.1,0,0,1-3.409,3.04,4.96,4.96,0,0,1-3.568-1.44Z" fill="#fff"/>
        <path id="Path_6" data-name="Path 6" d="M51.936,28.782a5.066,5.066,0,0,1-3.682-1.491l-.082-.093.84-1.084.12.126a4.274,4.274,0,0,0,2.836,1.186,1.876,1.876,0,0,0,2.09-1.8c0-1.244-1.214-1.768-2.5-2.322-1.461-.631-3.118-1.346-3.118-3.279A3.4,3.4,0,0,1,52.1,16.848a4.484,4.484,0,0,1,3.116,1.134l.08.082-.7,1.19-.138-.133A3.716,3.716,0,0,0,52.1,18.2a2.006,2.006,0,0,0-2.218,1.786c0,1.128,1.1,1.594,2.376,2.133,1.519.643,3.241,1.371,3.241,3.469A3.243,3.243,0,0,1,51.936,28.782Zm-3.371-1.6a4.929,4.929,0,0,0,3.371,1.3,2.956,2.956,0,0,0,3.258-2.89c0-1.9-1.553-2.557-3.057-3.192-1.316-.557-2.56-1.082-2.56-2.41A2.3,2.3,0,0,1,52.1,17.9a3.962,3.962,0,0,1,2.425.878l.393-.667a4.373,4.373,0,0,0-2.818-.966,3.108,3.108,0,0,0-3.355,2.874c0,1.736,1.493,2.381,2.937,3,1.317.569,2.68,1.157,2.68,2.6a2.162,2.162,0,0,1-2.39,2.1,4.5,4.5,0,0,1-2.928-1.159Z" fill="#fff"/>
      </g>
      <g id="Group_4" data-name="Group 4">
        <path id="Path_7" data-name="Path 7" d="M57.814,17.19H61.7a3.255,3.255,0,0,1,3.473,3.393,3.284,3.284,0,0,1-3.473,3.44H58.917V28.44h-1.1Zm3.743,5.841a2.286,2.286,0,0,0,2.481-2.448,2.252,2.252,0,0,0-2.464-2.4H58.917v4.848Z" fill="#fff"/>
        <path id="Path_8" data-name="Path 8" d="M59.067,28.591h-1.4V17.039H61.7a3.394,3.394,0,0,1,3.623,3.544,3.451,3.451,0,0,1-3.623,3.59H59.067Zm-1.1-.3h.8V23.872H61.7a3.129,3.129,0,0,0,3.322-3.289A3.108,3.108,0,0,0,61.7,17.34H57.964Zm3.594-5.108H58.767v-5.15h2.807a2.4,2.4,0,0,1,2.614,2.551A2.426,2.426,0,0,1,61.558,23.182Zm-2.491-.3h2.491a2.147,2.147,0,0,0,2.33-2.3,2.1,2.1,0,0,0-2.314-2.25H59.067Z" fill="#fff"/>
      </g>
      <g id="Group_5" data-name="Group 5">
        <path id="Path_9" data-name="Path 9" d="M67.389,17.19h1.1V28.44h-1.1Z" fill="#fff"/>
        <path id="Path_10" data-name="Path 10" d="M68.643,28.591h-1.4V17.039h1.4Zm-1.1-.3h.8V17.34h-.8Z" fill="#fff"/>
      </g>
      <g id="Group_6" data-name="Group 6">
        <path id="Path_11" data-name="Path 11" d="M74.289,18.183H70.24V17.19h9.185v.993H75.394V28.44h-1.1Z" fill="#fff"/>
        <path id="Path_12" data-name="Path 12" d="M75.544,28.591H74.138V18.333H70.09V17.039h9.485v1.294H75.544Zm-1.106-.3h.8V18.032h4.031V17.34H70.391v.692h4.047Z" fill="#fff"/>
      </g>
      <g id="Group_7" data-name="Group 7">
        <path id="Path_13" data-name="Path 13" d="M86.007,24.856H81.479L80.2,28.44H79.03l4.129-11.25h1.184l4.13,11.25H87.3Zm-2.272-6.5s-.24.928-.432,1.456L81.8,23.9h3.873L84.2,19.814c-.193-.528-.433-1.456-.433-1.456Z" fill="#fff"/>
        <path id="Path_14" data-name="Path 14" d="M88.688,28.591H87.2l-.035-.1L85.9,25.006H81.584L80.3,28.591H78.815l4.239-11.552h1.393Zm-1.279-.3h.849l-4.02-10.95h-.975L79.245,28.29h.848l1.28-3.585h4.739l.035.1Zm-1.524-4.244h-4.3l1.58-4.284c.187-.514.424-1.432.426-1.441l.029-.113h.266l.029.113c0,.009.239.927.428,1.441Zm-3.872-.3h3.444l-1.4-3.881c-.1-.286-.221-.682-.308-.991-.086.309-.2.7-.307.991Z" fill="#fff"/>
      </g>
      <g id="Group_8" data-name="Group 8">
        <path id="Path_15" data-name="Path 15" d="M90.318,17.19h1.1V27.449h5.218v.991H90.318Z" fill="#fff"/>
        <path id="Path_16" data-name="Path 16" d="M96.789,28.591H90.167V17.039h1.4V27.3h5.217Zm-6.321-.3h6.02V27.6H91.271V17.34h-.8Z" fill="#fff"/>
      </g>
    </g>
  </g>
</svg>
