<svg id="Group_1" data-name="Group 1" xmlns="http://www.w3.org/2000/svg" width="316.856" height="254" viewBox="0 0 316.856 254">
  <path id="Fill-2" d="M199.727,254H110.792a9.5,9.5,0,0,1-9.4-9.6V188.936c0-16.648,13.262-30.186,29.565-30.186h48.6c16.3,0,29.568,13.542,29.568,30.186V244.4a9.5,9.5,0,0,1-9.4,9.6Zm-79.541-19.191h70.145V188.936a10.9,10.9,0,0,0-10.771-11h-48.6a10.9,10.9,0,0,0-10.773,11Z" fill="#f6f5f5" fill-rule="evenodd"/>
  <path id="Fill-4" d="M66.658,254H9.39A9.623,9.623,0,0,1,0,244.16V150.7c0-20.07,15.583-36.4,34.737-36.4a9.849,9.849,0,0,1,0,19.676c-8.8,0-15.96,7.5-15.96,16.723v83.625H66.658a9.849,9.849,0,0,1,0,19.676Z" fill="#f6f5f5" fill-rule="evenodd"/>
  <path id="Fill-6" d="M307.466,254H250.2a9.85,9.85,0,0,1,0-19.679h47.882V150.7c0-9.222-7.159-16.723-15.961-16.723a9.849,9.849,0,0,1,0-19.676c19.155,0,34.738,16.329,34.738,36.4V244.16a9.624,9.624,0,0,1-9.39,9.84Z" fill="#f6f5f5" fill-rule="evenodd"/>
  <path id="Fill-7" d="M206,133.35H104.515a9.525,9.525,0,0,1,0-19.05H206a9.525,9.525,0,0,1,0,19.05Z" fill="#f6f5f5" fill-rule="evenodd"/>
  <path id="Fill-8" d="M206,88.9H104.515a9.525,9.525,0,0,1,0-19.05H206a9.525,9.525,0,0,1,0,19.05Z" fill="#f6f5f5" fill-rule="evenodd"/>
  <path id="Fill-9" d="M250.164,254H66.692a9.628,9.628,0,0,1-9.658-9.6V42.316A42.566,42.566,0,0,1,96.987.018C97.192.006,97.39,0,97.6,0H219.261c.2,0,.4.006.6.018a42.564,42.564,0,0,1,39.956,42.3V244.4a9.629,9.629,0,0,1-9.658,9.6ZM76.347,234.8H240.506V42.316a23.282,23.282,0,0,0-21.573-23.124H97.923A23.284,23.284,0,0,0,76.347,42.316Z" fill="#f6f5f5" fill-rule="evenodd"/>
</svg>
