<svg xmlns="http://www.w3.org/2000/svg" width="76.916" height="127.56" viewBox="0 0 76.916 127.56">
  <g id="Group_2" data-name="Group 2" transform="translate(1.254 1.184)">
    <path id="Path_1" data-name="Path 1" d="M38.535,1.739A139.793,139.793,0,0,0,11.277,37.747C4.944,49.752.332,62.928.016,76.5s4.025,27.582,13.563,37.239,24.6,14.172,37.346,9.5c14.017-5.138,22.7-20.268,23.426-35.18S69.078,58.616,60.967,46.082C51.578,31.573,38.707,17.368,39.058.091" fill="none" stroke="#fff" stroke-linecap="round" stroke-linejoin="round" stroke-miterlimit="10" stroke-width="2.5"/>
    <g id="Group_1" data-name="Group 1">
      <path id="Path_2" data-name="Path 2" d="M53.069,58.475l-29.9,43.584" fill="none" stroke="#fff" stroke-linecap="round" stroke-miterlimit="10" stroke-width="2.5"/>
      <path id="Path_3" data-name="Path 3" d="M53.479,88.954c-2.961-1.46-6.065,1.9-7.1,5.036-.961,2.9-1.109,6.549,1.205,8.543,2.786,2.4,7.592.489,9-2.907s.19-7.375-1.891-10.407" fill="none" stroke="#fff" stroke-linecap="round" stroke-linejoin="round" stroke-miterlimit="10" stroke-width="2.5"/>
      <path id="Path_4" data-name="Path 4" d="M26.816,57.163c-2.961-1.459-6.065,1.9-7.1,5.036-.96,2.9-1.108,6.55,1.206,8.543,2.786,2.4,7.592.49,9-2.907s.19-7.375-1.891-10.407" fill="none" stroke="#fff" stroke-linecap="round" stroke-linejoin="round" stroke-miterlimit="10" stroke-width="2.5"/>
    </g>
  </g>
</svg>
