<svg xmlns="http://www.w3.org/2000/svg" width="79.474" height="70.018" viewBox="0 0 79.474 70.018">
  <g id="Group_1" data-name="Group 1" transform="translate(-0.526 -5.337)">
    <path id="Path_1" data-name="Path 1" d="M40.031,15.544c-2.783-3.024-5.852-5.993-9.586-7.814A21.868,21.868,0,0,0,19,5.565,20.268,20.268,0,0,0,1.763,18.391,21.88,21.88,0,0,0,.736,29.046a47.1,47.1,0,0,0,.9,5.885,25.238,25.238,0,0,0,2.032,5.293,80.405,80.405,0,0,0,12.743,18.8A76.634,76.634,0,0,0,34.13,73.477c1.631.963,3.482,2.3,5.476,1.748,1.867-.518,3.655-2.161,5.2-3.284a109.7,109.7,0,0,0,9.833-8.09c3.113-2.876,6.067-5.923,8.881-9.092a86.065,86.065,0,0,0,7.791-9.806,30.707,30.707,0,0,0,4.416-23.629,25.249,25.249,0,0,0-5.048-10.746c-2.69-3.17-6.773-4.561-10.787-5.066A24.545,24.545,0,0,0,40.48,11.853a22.362,22.362,0,0,0-3.394,4.053c-1.344,2.029,1.919,3.919,3.255,1.9A20.214,20.214,0,0,1,55.417,9.174a18.056,18.056,0,0,1,9.569,1.64c3.127,1.621,4.94,4.9,6.107,8.1a26.463,26.463,0,0,1-1.166,20.931,49.44,49.44,0,0,1-6.356,9.092c-2.442,2.911-4.992,5.733-7.664,8.436s-5.46,5.281-8.382,7.706q-2.09,1.732-4.272,3.345-1.146.843-2.317,1.652c-.548.378-1.661,1.47-2.332,1.511-.539.032-1.452-.719-1.885-.968Q35.6,69.979,34.508,69.3q-2.179-1.359-4.262-2.869a71.42,71.42,0,0,1-7.611-6.4A75.9,75.9,0,0,1,10.022,44.075a42.3,42.3,0,0,1-4.4-8.826,35.331,35.331,0,0,1-1.4-9.945A16.287,16.287,0,0,1,14.28,10.477C20.934,7.851,28.128,9.666,33.4,14.27a51.333,51.333,0,0,1,3.963,3.94c1.646,1.789,4.307-.882,2.666-2.666Z" fill="#fff"/>
    <path id="Path_2" data-name="Path 2" d="M4.431,47.8c5.267-.405,10.64-.542,15.873-1.269a6.948,6.948,0,0,0,5.084-2.714A12.46,12.46,0,0,0,26.5,41.357c.177-.449.254-.954.742-1.029l-2.129-.866a43.727,43.727,0,0,0,5.152,7.448c1.021,1.2,2.668.351,3.151-.832A175.659,175.659,0,0,1,41.5,28.993l-3.446-.451,6.126,27.2c.434,1.927,3.069,1.651,3.636,0L52.737,41.4l-3.445.45,1.983,3.65a7.823,7.823,0,0,0,2.151,2.973,4.616,4.616,0,0,0,3.256.566c1.479-.164,2.956-.338,4.434-.507l17-1.941A1.943,1.943,0,0,0,80,44.7a1.9,1.9,0,0,0-1.885-1.885L63.087,44.532l-3.7.422a17.648,17.648,0,0,1-3.492.385c-.521-.052-.209.1-.6-.339a8.925,8.925,0,0,1-.887-1.623l-1.867-3.435a1.908,1.908,0,0,0-3.445.451l-4.92,14.348h3.636l-6.126-27.2a1.905,1.905,0,0,0-3.446-.45,185.014,185.014,0,0,0-8.469,17.986l3.151-.832a39.021,39.021,0,0,1-4.563-6.685,1.946,1.946,0,0,0-2.129-.866c-1.856.284-2.706,1.944-3.321,3.521a4.626,4.626,0,0,1-.932,1.832,4.36,4.36,0,0,1-2.325.8c-5.021.669-10.176.793-15.227,1.181-2.4.185-2.423,3.957,0,3.771Z" fill="#fff"/>
  </g>
</svg>
