<svg xmlns="http://www.w3.org/2000/svg" width="25.5" height="25.011" viewBox="0 0 25.5 25.011">
  <g id="Group_1" data-name="Group 1" transform="translate(0 -0.001)">
    <g id="Screen">
      <g id="_25_Doctor-Details" data-name=" 25 Doctor-Details">
        <g id="calendar">
          <g id="ic_hospital_blue" data-name="ic hospital blue">
            <path id="Fill-2" d="M16.383,25.012H9.115a.768.768,0,0,1-.769-.767h0V19.8a2.42,2.42,0,0,1,2.417-2.416h3.971A2.42,2.42,0,0,1,17.151,19.8v4.441a.768.768,0,0,1-.769.767h0Zm-6.5-1.535V19.8a.882.882,0,0,1,.881-.88h3.972a.881.881,0,0,1,.88.88v3.674Zm-4.43,1.535H.767A.766.766,0,0,1,0,24.245H0v-7.3A2.845,2.845,0,0,1,2.841,14.1a.768.768,0,0,1,0,1.536,1.306,1.306,0,0,0-1.3,1.3v6.529H5.453a.768.768,0,0,1,0,1.535h0Zm19.277,0H20.045a.768.768,0,0,1,0-1.535h3.916V16.948a1.306,1.306,0,0,0-1.305-1.305.768.768,0,0,1,0-1.536h0A2.846,2.846,0,0,1,25.5,16.948v7.3a.766.766,0,0,1-.77.764Zm-7.86-9.677H8.628a.768.768,0,0,1,0-1.535H16.87a.768.768,0,1,1,0,1.535Zm0-3.225H8.628a.768.768,0,1,1,0-1.536H16.87a.768.768,0,0,1,0,1.536Z" fill="#63c1b8" fill-rule="evenodd"/>
            <path id="Fill-9" d="M20.045,25.012H5.452a.766.766,0,0,1-.767-.767h0V8.07A3.4,3.4,0,0,1,7.863,4.685h9.773A3.4,3.4,0,0,1,20.814,8.07V24.245A.769.769,0,0,1,20.045,25.012ZM6.22,23.477H19.277V8.07a1.86,1.86,0,0,0-1.716-1.851H7.936A1.86,1.86,0,0,0,6.22,8.07Z" fill="#63c1b8" fill-rule="evenodd"/>
            <path id="Fill-10" d="M12.749,0A1.654,1.654,0,0,0,11.1,1.653v1.3H9.8a1.653,1.653,0,0,0,0,3.306h1.3v1.3a1.652,1.652,0,0,0,3.3.163,1.477,1.477,0,0,0,0-.163v-1.3h1.3a1.653,1.653,0,1,0,0-3.306H14.4v-1.3A1.652,1.652,0,0,0,12.749,0Z" fill="#63c1b8" fill-rule="evenodd"/>
          </g>
        </g>
      </g>
    </g>
  </g>
</svg>
