<svg xmlns="http://www.w3.org/2000/svg" width="306.367" height="257.851" viewBox="0 0 306.367 257.851">
  <g id="Group_1" data-name="Group 1" transform="translate(-0.3 -0.134)">
    <path id="Path_1" data-name="Path 1" d="M306.617,214.609l-.008-.128c0-.183-.012-.364-.024-.551-.008-.123-.018-.25-.018-.385l0-.145c-.262-7.883-.961-28.823-22.268-35.421l-.517-.143a134.433,134.433,0,0,1-36.8-15.214l-.106-.061A9.022,9.022,0,0,0,236,164.348a7.649,7.649,0,0,0-1.988,5.929,7.845,7.845,0,0,0,3.208,5.552l.193.13a150.08,150.08,0,0,0,41.806,17.357c7.98,2.634,9.825,9.83,10.192,20.577a9.875,9.875,0,0,0,.048,1.171,65.122,65.122,0,0,1-.711,10.806,178.165,178.165,0,0,1-77.345,16.019A179.2,179.2,0,0,1,134.1,225.837a61.915,61.915,0,0,1-.655-10.955l0-.943c.307-8.849,1.348-17.729,10.2-20.646a150.663,150.663,0,0,0,41.754-17.327,8.727,8.727,0,0,0,1-.643,7.839,7.839,0,0,0,3.207-5.55,7.648,7.648,0,0,0-1.987-5.931,8.973,8.973,0,0,0-11.831-1.184,132.67,132.67,0,0,1-36.766,15.176l-.5.143c-21.238,6.623-21.939,27.541-22.205,35.46l0,.077,0,.078a4.731,4.731,0,0,1-.028.674l-.017.142,0,.161a59.994,59.994,0,0,0,2.411,19.376l.1.272A7.979,7.979,0,0,0,122.2,238l.1.052a186.9,186.9,0,0,0,84.339,19.935c1.638,0,3.282-.021,4.922-.063a187.718,187.718,0,0,0,89.171-19.871l.133-.072a8.154,8.154,0,0,0,3.376-3.723l.125-.347A62.619,62.619,0,0,0,306.617,214.609Z" fill="#fff"/>
    <path id="Path_2" data-name="Path 2" d="M265.723,23.423A78.061,78.061,0,0,0,231.28,3.44C223.506,1.347,217.773.134,211.556.134c-.059,0-.119,0-.181,0-6.685,0-11.317,1.247-18.966,3.306a78.05,78.05,0,0,0-34.443,19.983,7,7,0,0,0-.916,8.837l14.577,22.052a48.544,48.544,0,0,0-9.407,30.4c-.43,4.572-2.9,38.139,14.816,58.109a43.881,43.881,0,0,0,32.669,14.606c.318,0,.639,0,.958-.01h1.4a44.088,44.088,0,0,0,33.732-14.606c17.719-19.985,15.239-53.522,14.808-58.1a48.549,48.549,0,0,0-8.947-29.776L266.64,32.259A7,7,0,0,0,265.723,23.423ZM233.028,131.431a27.009,27.009,0,0,1-21.267,8.834l-.057,0-.649,0a26.924,26.924,0,0,1-21.214-8.822C176.4,116.3,179.213,86.529,179.235,86.3l.027-.216c.021-.141.035-.274.041-.394h0c1.348-29.106,20.505-33.452,31.8-33.452h.484c13.849.316,30.62,6.376,31.859,33.375a3.452,3.452,0,0,0,.119.838C244.007,91.82,245.369,117.535,233.028,131.431ZM243.757,41.49a64.55,64.55,0,0,0-6.975-3.772,60.04,60.04,0,0,0-25.215-5.933h-.224c-5.609.09-13.454.846-24.437,5.933a64.7,64.7,0,0,0-6.974,3.771l-7.9-11.945A63.362,63.362,0,0,1,196.048,16.96c7.193-1.937,10.493-2.826,15.352-2.826h.132c4.144,0,8.372.743,16.109,2.826a63.365,63.365,0,0,1,24.011,12.584Z" fill="#fff"/>
    <path id="Path_3" data-name="Path 3" d="M127.8,128.985a6.506,6.506,0,0,1-1.949-.3l-24.476-7.692A82.617,82.617,0,0,1,72.8,125.985c-39.977,0-72.5-27.813-72.5-62s32.523-62,72.5-62,72.5,27.813,72.5,62c0,14.231-5.654,27.9-16,38.89l4.782,17.935a6.5,6.5,0,0,1-6.281,8.175Zm-55-114c-32.809,0-59.5,21.981-59.5,49s26.691,49,59.5,49a69.489,69.489,0,0,0,25.353-4.671c1.617-.8,3.656-.81,6.1-.042l14.219,4.469-2.679-10.048c-.04-.142-.074-.284-.1-.428a6.511,6.511,0,0,1,2.035-6.189c9.4-8.914,14.575-20.3,14.575-32.091C132.3,36.966,105.608,14.985,72.8,14.985Z" fill="#fff"/>
    <circle id="Ellipse_1" data-name="Ellipse 1" cx="9" cy="9" r="9" transform="translate(63.8 55.485)" fill="#fff"/>
    <circle id="Ellipse_2" data-name="Ellipse 2" cx="9" cy="9" r="9" transform="translate(37.8 55.485)" fill="#fff"/>
    <circle id="Ellipse_3" data-name="Ellipse 3" cx="9" cy="9" r="9" transform="translate(91.8 55.485)" fill="#fff"/>
  </g>
</svg>
