<svg xmlns="http://www.w3.org/2000/svg" width="12.929" height="26.5" viewBox="0 0 12.929 26.5">
  <g id="Group_1" data-name="Group 1" transform="translate(-6.037 0.75)">
    <path id="Path_1" data-name="Path 1" d="M12.04,17.572h1a.5.5,0,0,1,.5.5v5.505A1.422,1.422,0,0,0,14.964,25h.112A1.421,1.421,0,0,0,16.5,23.579v-5.7a.3.3,0,0,1,.3-.3h1.118a.3.3,0,0,0,.288-.364L16.5,10.041c-.7-2.163-1.8-4.025-4.025-4.025h0c-2.148,0-3.316,1.859-3.89,3.89L6.8,17.2a.3.3,0,0,0,.293.373H8.281a.3.3,0,0,1,.3.3v5.452A1.477,1.477,0,0,0,10.059,24.8h0a1.478,1.478,0,0,0,1.478-1.477V18.076A.5.5,0,0,1,12.04,17.572Z" fill="none" stroke="#969696" stroke-miterlimit="10" stroke-width="1.5"/>
    <circle id="Ellipse_1" data-name="Ellipse 1" cx="3.008" cy="3.008" r="3.008" transform="translate(9.532 0)" fill="none" stroke="#969696" stroke-miterlimit="10" stroke-width="1.5"/>
  </g>
</svg>
