<svg xmlns="http://www.w3.org/2000/svg" width="24.696" height="19.798" viewBox="0 0 24.696 19.798">
  <g id="Group_1" data-name="Group 1" transform="translate(-0.152 -2.601)">
    <path id="Fill-2" d="M15.719,22.4H8.787a.74.74,0,0,1-.732-.748V17.328a2.331,2.331,0,0,1,2.3-2.353h3.788a2.332,2.332,0,0,1,2.3,2.353v4.323a.741.741,0,0,1-.733.748Zm-6.2-1.5h5.468V17.328a.85.85,0,0,0-.84-.858H10.359a.85.85,0,0,0-.84.858Z" fill="#ff6f59" fill-rule="evenodd"/>
    <path id="Fill-4" d="M5.347,22.4H.883a.75.75,0,0,1-.731-.767V14.347A2.777,2.777,0,0,1,2.859,11.51a.768.768,0,0,1,0,1.534,1.276,1.276,0,0,0-1.244,1.3v6.518H5.347a.768.768,0,0,1,0,1.534Z" fill="#ff6f59" fill-rule="evenodd"/>
    <path id="Fill-6" d="M24.117,22.4H19.653a.768.768,0,0,1,0-1.534h3.732V14.347a1.276,1.276,0,0,0-1.244-1.3.768.768,0,0,1,0-1.534,2.777,2.777,0,0,1,2.707,2.837v7.285a.75.75,0,0,1-.731.767Z" fill="#ff6f59" fill-rule="evenodd"/>
    <path id="Fill-7" d="M16.208,12.995H8.3a.743.743,0,0,1,0-1.485h7.91a.743.743,0,0,1,0,1.485Z" fill="#ff6f59" fill-rule="evenodd"/>
    <path id="Fill-8" d="M16.208,9.53H8.3a.742.742,0,0,1,0-1.484h7.91a.742.742,0,0,1,0,1.484Z" fill="#ff6f59" fill-rule="evenodd"/>
    <path id="Fill-9" d="M19.65,22.4H5.35a.751.751,0,0,1-.753-.748V5.9A3.317,3.317,0,0,1,7.711,2.6l.047,0h9.484l.047,0A3.317,3.317,0,0,1,20.4,5.9V21.651a.751.751,0,0,1-.753.748ZM6.1,20.9H18.9V5.9a1.814,1.814,0,0,0-1.681-1.8H7.784A1.815,1.815,0,0,0,6.1,5.9Z" fill="#ff6f59" fill-rule="evenodd"/>
  </g>
</svg>
