<svg xmlns="http://www.w3.org/2000/svg" width="36.5" height="22.461" viewBox="0 0 36.5 22.461">
  <g id="Group_1" data-name="Group 1" transform="translate(0.75 -5.243)">
    <path id="Path_1" data-name="Path 1" d="M14.553,19.666V13.545a.906.906,0,0,1,1.364-.782l5.224,3.061a.906.906,0,0,1,0,1.563l-5.224,3.061A.906.906,0,0,1,14.553,19.666Z" fill="none" stroke="#969696" stroke-miterlimit="10" stroke-width="1.5"/>
    <path id="Path_2" data-name="Path 2" d="M28.564,8.376a16.879,16.879,0,0,1-.007,16.471" fill="none" stroke="#969696" stroke-linecap="round" stroke-miterlimit="10" stroke-width="1.5"/>
    <path id="Path_3" data-name="Path 3" d="M32.3,6.264a21.182,21.182,0,0,1,.143,20.423" fill="none" stroke="#969696" stroke-linecap="round" stroke-miterlimit="10" stroke-width="1.5"/>
    <path id="Path_4" data-name="Path 4" d="M6.436,8.376a16.879,16.879,0,0,0,.007,16.471" fill="none" stroke="#969696" stroke-linecap="round" stroke-miterlimit="10" stroke-width="1.5"/>
    <path id="Path_5" data-name="Path 5" d="M2.7,6.264a21.182,21.182,0,0,0-.143,20.423" fill="none" stroke="#969696" stroke-linecap="round" stroke-miterlimit="10" stroke-width="1.5"/>
    <rect id="Rectangle_1" data-name="Rectangle 1" width="16.458" height="16.458" rx="1.782" transform="translate(9.271 8.376)" fill="none" stroke="#969696" stroke-miterlimit="10" stroke-width="1.5"/>
  </g>
</svg>
