<svg xmlns="http://www.w3.org/2000/svg" width="9.416" height="26.5" viewBox="0 0 9.416 26.5">
  <g id="Group_1" data-name="Group 1" transform="translate(-7.792 0.75)">
    <path id="Path_1" data-name="Path 1" d="M8.542,17.572V9.749a3.733,3.733,0,0,1,3.734-3.733H12.6a3.863,3.863,0,0,1,3.863,3.862v13.7A1.418,1.418,0,0,1,15.04,25h-.119A1.418,1.418,0,0,1,13.5,23.582V18.07a.5.5,0,0,0-.5-.5H12a.5.5,0,0,0-.5.5v5.254A1.477,1.477,0,0,1,10.02,24.8h0a1.478,1.478,0,0,1-1.478-1.477Z" fill="none" stroke="#969696" stroke-miterlimit="10" stroke-width="1.5"/>
    <circle id="Ellipse_1" data-name="Ellipse 1" cx="3.008" cy="3.008" r="3.008" transform="translate(9.492 0)" fill="none" stroke="#969696" stroke-miterlimit="10" stroke-width="1.5"/>
  </g>
</svg>
