<svg xmlns="http://www.w3.org/2000/svg" width="25" height="24.97" viewBox="0 0 25 24.97">
  <g id="Group_1" data-name="Group 1" transform="translate(0 -0.015)">
    <g id="Screen">
      <g id="_32_List-Doctors-Active" data-name="32_List-Doctors-Active">
        <g id="action">
          <g id="phone-call">
            <path id="Fill-1" d="M20.35,18.773c-.282-.3-.575-.591-.862-.868-.144-.138-.288-.282-.432-.426L17.8,16.226a2.4,2.4,0,0,0-3.6,0c-.129.129-.262.257-.39.385-.3.293-.606.6-.9.914a9.331,9.331,0,0,1-1.694-1.1,17.578,17.578,0,0,1-2.136-2.043A.924.924,0,0,0,7.685,15.6a18.812,18.812,0,0,0,2.366,2.269c.006,0,.006,0,.011,0a10.122,10.122,0,0,0,2.49,1.525.294.294,0,0,0,.061.021,1.225,1.225,0,0,0,1.355-.308l.037-.036c.349-.4.718-.755,1.109-1.14.133-.129.266-.262.4-.4a.812.812,0,0,1,.5-.277.8.8,0,0,1,.5.277l1.253,1.253c.149.149.3.3.446.442.288.277.555.544.812.816a.081.081,0,0,0,.02.021.59.59,0,0,1-.01.944l-1.566,1.566a1.791,1.791,0,0,1-1.171.549,6.274,6.274,0,0,1-2.746-.5,18.226,18.226,0,0,1-5.406-3.25A20.122,20.122,0,0,1,2.9,12.694a9.816,9.816,0,0,1-1.048-3.47,1.962,1.962,0,0,1,.622-1.7,12.157,12.157,0,0,0,.934-.9c.185-.2.359-.375.544-.544l.005-.005a.62.62,0,0,1,1.007-.016L7.495,8.6l.015.016a.685.685,0,0,1,.241.436.777.777,0,0,1-.251.483L5.929,11.1a.926.926,0,0,0,1.309,1.309l1.571-1.571a2.5,2.5,0,0,0,.8-1.807,2.433,2.433,0,0,0-.8-1.746L6.278,4.762a2.434,2.434,0,0,0-3.589-.015c-.215.2-.41.4-.606.605a10.116,10.116,0,0,1-.806.781.237.237,0,0,1-.036.031A3.781,3.781,0,0,0,.009,9.342,11.541,11.541,0,0,0,1.231,13.49v.005A22.034,22.034,0,0,0,6.95,20.8,20.167,20.167,0,0,0,12.9,24.359a8.885,8.885,0,0,0,3.054.626c.16,0,.324-.005.488-.02h.005a3.641,3.641,0,0,0,2.321-1.084l1.571-1.571.015-.015a2.427,2.427,0,0,0,0-3.522Z" fill="#fff" fill-rule="evenodd"/>
            <path id="Fill-3" d="M19.986,12.494a9.154,9.154,0,0,0-7.47-7.475A.924.924,0,0,0,12.2,6.841a7.33,7.33,0,0,1,5.966,5.966.923.923,0,0,0,.909.77.8.8,0,0,0,.154-.015.925.925,0,0,0,.755-1.068Z" fill="#fff" fill-rule="evenodd"/>
            <path id="Fill-4" d="M24.986,12.268A15.018,15.018,0,0,0,12.747.029a.924.924,0,1,0-.313,1.822A13.154,13.154,0,0,1,23.159,12.576a.923.923,0,0,0,.908.77.8.8,0,0,0,.154-.015.916.916,0,0,0,.765-1.063Z" fill="#fff" fill-rule="evenodd"/>
          </g>
        </g>
      </g>
    </g>
  </g>
</svg>
