<svg xmlns="http://www.w3.org/2000/svg" width="25.06" height="24.592" viewBox="0 0 25.06 24.592">
  <g id="Group_1" data-name="Group 1" transform="translate(0.53 0.452)">
    <g id="ic_lock" data-name="ic lock">
      <path id="Path_1" data-name="Path 1" d="M16.667,9.983h-.239V7.865a4.978,4.978,0,0,0-9.955,0,.456.456,0,0,0,.911,0,4.067,4.067,0,0,1,8.133,0V9.983H6.237a.881.881,0,0,0-.881.879v5.66a2.64,2.64,0,0,0,2.639,2.633h6.914a2.64,2.64,0,0,0,2.639-2.633v-5.66a.881.881,0,0,0-.881-.879Zm-.03,6.539a1.728,1.728,0,0,1-1.728,1.724H8a1.727,1.727,0,0,1-1.727-1.724v-5.63H16.637Zm-4.846-.077A1.693,1.693,0,1,0,10.1,14.752a1.695,1.695,0,0,0,1.694,1.693Zm0-2.484a.79.79,0,1,1-.788.791.789.789,0,0,1,.788-.791Z" fill="#969696" fill-rule="evenodd"/>
    </g>
    <path id="Path_2" data-name="Path 2" d="M1.569,18.007a12,12,0,1,1,16.36,4.5" fill="none" stroke="#969696" stroke-linecap="round" stroke-linejoin="round" stroke-width="1" fill-rule="evenodd"/>
    <line id="Line_1" data-name="Line 1" y1="3.695" x2="1.017" transform="translate(17.929 18.814)" fill="none" stroke="#969696" stroke-linecap="round" stroke-linejoin="round" stroke-width="1"/>
    <line id="Line_2" data-name="Line 2" x2="3.695" y2="1.017" transform="translate(17.929 22.508)" fill="none" stroke="#969696" stroke-linecap="round" stroke-linejoin="round" stroke-width="1"/>
  </g>
</svg>
