<svg xmlns="http://www.w3.org/2000/svg" width="12.192" height="16.256" viewBox="0 0 12.192 16.256">
  <g id="Group_1" data-name="Group 1" transform="translate(-5.356 -2.899)">
    <g id="ic_lock" data-name="ic lock">
      <path id="Path_1" data-name="Path 1" d="M16.667,9.983h-.239V7.865a4.978,4.978,0,0,0-9.955,0,.456.456,0,0,0,.911,0,4.067,4.067,0,0,1,8.133,0V9.983H6.237a.881.881,0,0,0-.881.879v5.66a2.64,2.64,0,0,0,2.639,2.633h6.914a2.64,2.64,0,0,0,2.639-2.633v-5.66a.881.881,0,0,0-.881-.879Zm-.03,6.539a1.728,1.728,0,0,1-1.728,1.724H8a1.727,1.727,0,0,1-1.727-1.724v-5.63H16.637Zm-4.846-.077A1.693,1.693,0,1,0,10.1,14.752a1.695,1.695,0,0,0,1.694,1.693Zm0-2.484a.79.79,0,1,1-.788.791.789.789,0,0,1,.788-.791Z" fill="#969696" fill-rule="evenodd"/>
    </g>
  </g>
</svg>
