<svg xmlns="http://www.w3.org/2000/svg" width="21.274" height="18.806" viewBox="0 0 21.274 18.806">
  <g id="Group_1" data-name="Group 1" transform="translate(0.004 -3.097)">
    <g id="Symbols">
      <g id="tabbar">
        <g id="ic_Profile_grey" data-name="ic Profile grey">
          <g id="Group_350" data-name="Group 350">
            <g id="ic_profile" data-name="ic profile">
              <path id="Path_259" data-name="Path 259" d="M6.693,11.65H6.8a3.031,3.031,0,0,0,2.317-1c1.266-1.427,1.055-3.873,1.033-4.106A3.355,3.355,0,0,0,8.553,3.558,3.652,3.652,0,0,0,6.784,3.1H6.73a3.655,3.655,0,0,0-1.769.45A3.357,3.357,0,0,0,3.346,6.542c-.022.234-.233,2.679,1.033,4.106A3.015,3.015,0,0,0,6.693,11.65ZM4.223,6.627c0-.01,0-.02,0-.027a2.391,2.391,0,0,1,2.5-2.61h.039a2.4,2.4,0,0,1,2.5,2.61.066.066,0,0,0,.006.027c0,.023.234,2.258-.812,3.435a2.154,2.154,0,0,1-1.693.7H6.73a2.144,2.144,0,0,1-1.69-.7C4,8.89,4.221,6.644,4.223,6.627Zm9.277,9.08a5.305,5.305,0,0,1-.157,1.485.447.447,0,0,1-.172.207,12.463,12.463,0,0,1-6.413,1.572A12.426,12.426,0,0,1,.339,17.4a.421.421,0,0,1-.172-.207A5.052,5.052,0,0,1,0,15.7v-.009a.576.576,0,0,0,0-.083c.02-.647.064-2.169,1.49-2.658l.032-.01A9.364,9.364,0,0,0,4.253,11.7a.444.444,0,1,1,.563.688.358.358,0,0,1-.055.038,10.279,10.279,0,0,1-3,1.371C1,14.07.91,14.888.886,15.638v.083a5.658,5.658,0,0,0,.065,1.015,12.175,12.175,0,0,0,5.8,1.35,12.083,12.083,0,0,0,5.8-1.348,5.957,5.957,0,0,0,.069-1.016.562.562,0,0,1,0-.082c-.023-.749-.108-1.568-.874-1.841a10.254,10.254,0,0,1-3-1.371.444.444,0,0,1,.508-.726,9.539,9.539,0,0,0,2.73,1.243l.033.01c1.427.486,1.47,2.008,1.489,2.658,0,.03,0,.056,0,.083Z" fill="#696969" fill-rule="evenodd"/>
            </g>
          </g>
        </g>
      </g>
    </g>
    <g id="Symbols-2" data-name="Symbols">
      <g id="tabbar-2" data-name="tabbar">
        <g id="ic_Profile_grey-2" data-name="ic Profile grey">
          <g id="Group_350-2" data-name="Group 350">
            <g id="ic_profile-2" data-name="ic profile">
              <path id="Path_259-2" data-name="Path 259" d="M16.712,17h.071a2.031,2.031,0,0,0,1.55-.671,4.026,4.026,0,0,0,.691-2.747,2.244,2.244,0,0,0-1.067-2,2.449,2.449,0,0,0-1.183-.308h-.037a2.449,2.449,0,0,0-1.184.3,2.242,2.242,0,0,0-1.079,2,4.017,4.017,0,0,0,.69,2.747A2.02,2.02,0,0,0,16.712,17ZM15.06,13.64l0-.017a1.6,1.6,0,0,1,1.672-1.747h.026a1.608,1.608,0,0,1,1.672,1.747.047.047,0,0,0,0,.017,3.493,3.493,0,0,1-.543,2.3,1.443,1.443,0,0,1-1.133.47h-.023a1.435,1.435,0,0,1-1.13-.47A3.519,3.519,0,0,1,15.06,13.64Zm6.207,6.076a3.545,3.545,0,0,1-.1.994.293.293,0,0,1-.115.138A8.345,8.345,0,0,1,16.756,21.9a8.32,8.32,0,0,1-4.3-1.052.288.288,0,0,1-.115-.138,3.421,3.421,0,0,1-.112-1v-.006a.506.506,0,0,0,0-.055,1.728,1.728,0,0,1,1-1.779l.021-.007a6.261,6.261,0,0,0,1.826-.831.3.3,0,1,1,.377.46.309.309,0,0,1-.037.026,6.907,6.907,0,0,1-2.008.917c-.512.182-.569.73-.585,1.232v.055a3.762,3.762,0,0,0,.044.679,8.151,8.151,0,0,0,3.88.9,8.088,8.088,0,0,0,3.877-.9,3.966,3.966,0,0,0,.046-.68.506.506,0,0,1,0-.055c-.015-.5-.072-1.049-.585-1.232a6.849,6.849,0,0,1-2.007-.917.3.3,0,0,1,.339-.486,6.344,6.344,0,0,0,1.827.831l.022.007a1.724,1.724,0,0,1,1,1.779c0,.02,0,.037,0,.055Z" fill="#696969" fill-rule="evenodd"/>
            </g>
          </g>
        </g>
      </g>
    </g>
  </g>
</svg>
