<svg xmlns="http://www.w3.org/2000/svg" width="28.886" height="30.55" viewBox="0 0 28.886 30.55">
  <g id="Group_9" data-name="Group 9" transform="translate(-0.602 -0.75)">
    <path id="Path_1" data-name="Path 1" d="M27,28.3v-15a2.875,2.875,0,0,0-.7-1.8L16.8,2a2.417,2.417,0,0,0-3.5,0L3.8,11.5A2.5,2.5,0,0,0,3,13.3v15a2.476,2.476,0,0,0,2.5,2.5h19A2.476,2.476,0,0,0,27,28.3Z" fill="none" stroke="#6a6a6a" stroke-miterlimit="10" stroke-width="1"/>
    <path id="Path_2" data-name="Path 2" d="M.752,14.652h0a.483.483,0,0,1,0-.7l3.1-3.2a.483.483,0,0,1,.7,0h0a.483.483,0,0,1,0,.7l-3.1,3.2A.483.483,0,0,1,.752,14.652Z" fill="#6a6a6a"/>
    <path id="Path_3" data-name="Path 3" d="M29.338,14.6h0a.483.483,0,0,0,0-.7l-3.1-3.2a.483.483,0,0,0-.7,0h0a.483.483,0,0,0,0,.7l3.1,3.2A.483.483,0,0,0,29.338,14.6Z" fill="#6a6a6a"/>
    <g id="Group_8" data-name="Group 8">
      <g id="Group_7" data-name="Group 7">
        <g id="Group_1" data-name="Group 1">
          <path id="Path_4" data-name="Path 4" d="M14.88,15.876h6.265v-.705h-5.9v-.954l.032-.017a2.917,2.917,0,0,0,1.856-2.6,3,3,0,0,0-5.993,0,2.97,2.97,0,0,0,2.022,2.7l.035.015.014.863H8.855v.705h4.733a.376.376,0,0,0,.263-.106.337.337,0,0,0,.105-.251l-.023-1.454a.355.355,0,0,0-.238-.325A2.413,2.413,0,0,1,11.88,11.6a2.261,2.261,0,0,1,4.521,0c0,.867-.535,1.53-1.685,2.09a.35.35,0,0,0-.2.313v1.522a.343.343,0,0,0,.107.249.38.38,0,0,0,.26.1" fill="#6b6b6b"/>
        </g>
        <g id="Group_2" data-name="Group 2">
          <path id="Path_5" data-name="Path 5" d="M18.6,22.758h2.541v-.676H18.962l.007-.4L19,21.672a1.97,1.97,0,0,0,1.236-1.841,2.085,2.085,0,0,0-4.169,0A2.128,2.128,0,0,0,17.2,21.659l.03.016v.407H15.589v.676h1.99a.357.357,0,0,0,.25-.1.331.331,0,0,0,.1-.239V21.47a.334.334,0,0,0-.193-.3,1.431,1.431,0,0,1-.964-1.338,1.379,1.379,0,0,1,2.757,0A1.324,1.324,0,0,1,18.5,21.145a.341.341,0,0,0-.227.312l-.016.956a.323.323,0,0,0,.1.241.36.36,0,0,0,.251.1" fill="#6b6b6b"/>
        </g>
        <g id="Group_3" data-name="Group 3">
          <path id="Path_6" data-name="Path 6" d="M13.81,16.525a.374.374,0,0,0-.3-.143H8.855v.7h4.164L9.67,27.645h.769l3.427-10.809a.345.345,0,0,0-.056-.311" fill="#6b6b6b"/>
        </g>
        <g id="Group_4" data-name="Group 4">
          <path id="Path_7" data-name="Path 7" d="M21.145,16.382h-6.4a.36.36,0,0,0-.367.352V27.645h.735V17.087h6.032Z" fill="#6b6b6b"/>
        </g>
        <g id="Group_5" data-name="Group 5">
          <path id="Path_8" data-name="Path 8" d="M17.935,27.687V23.455a.346.346,0,0,0-.353-.338H15.589v.676h1.64v3.894Z" fill="#6b6b6b"/>
        </g>
        <g id="Group_6" data-name="Group 6">
          <path id="Path_9" data-name="Path 9" d="M21.145,23.793v-.676H18.653a.359.359,0,0,0-.284.138.342.342,0,0,0-.054.3l1.224,4.134h.735l-1.148-3.894Z" fill="#6b6b6b"/>
        </g>
      </g>
    </g>
  </g>
</svg>
