<svg width="28" height="28" viewBox="0 0 28 28" fill="none" xmlns="http://www.w3.org/2000/svg">
<path fill-rule="evenodd" clip-rule="evenodd" d="M13.7534 25.7877C16.9451 25.7877 20.0061 24.5198 22.263 22.263C24.5198 20.0061 25.7877 16.9451 25.7877 13.7534C25.7877 10.5618 24.5198 7.5008 22.263 5.24394C20.0061 2.98707 16.9451 1.71918 13.7534 1.71918C10.5618 1.71918 7.5008 2.98707 5.24394 5.24394C2.98707 7.5008 1.71918 10.5618 1.71918 13.7534C1.71918 16.9451 2.98707 20.0061 5.24394 22.263C7.5008 24.5198 10.5618 25.7877 13.7534 25.7877V25.7877ZM13.7534 27.5069C17.4011 27.5069 20.8993 26.0579 23.4786 23.4786C26.0579 20.8993 27.5069 17.4011 27.5069 13.7534C27.5069 10.1058 26.0579 6.60756 23.4786 4.02829C20.8993 1.44902 17.4011 0 13.7534 0C10.1058 0 6.60756 1.44902 4.02829 4.02829C1.44902 6.60756 0 10.1058 0 13.7534C0 17.4011 1.44902 20.8993 4.02829 23.4786C6.60756 26.0579 10.1058 27.5069 13.7534 27.5069V27.5069Z" fill="black"/>
<path d="M15.3522 11.3258L11.4153 11.8192L11.2743 12.4725L12.0479 12.6152C12.5534 12.7355 12.6531 12.9178 12.5431 13.4215L11.2743 19.3836C10.9408 20.9257 11.4548 21.6512 12.6634 21.6512C13.6004 21.6512 14.6886 21.218 15.182 20.6231L15.3333 19.908C14.9895 20.2105 14.4875 20.3309 14.1539 20.3309C13.6812 20.3309 13.5092 19.9991 13.6313 19.4146L15.3522 11.3258Z" fill="black"/>
<path d="M13.7535 9.45557C14.7029 9.45557 15.4726 8.68587 15.4726 7.73639C15.4726 6.78692 14.7029 6.01721 13.7535 6.01721C12.804 6.01721 12.0343 6.78692 12.0343 7.73639C12.0343 8.68587 12.804 9.45557 13.7535 9.45557Z" fill="black"/>
</svg>
