<svg width="28" height="28" viewBox="0 0 28 28" fill="none" xmlns="http://www.w3.org/2000/svg">
<path d="M13.755 11.4626C14.3881 11.4626 14.9013 11.9758 14.9013 12.6089V19.4864C14.9013 20.1194 14.3881 20.6326 13.755 20.6326C13.122 20.6326 12.6088 20.1194 12.6088 19.4864V12.6089C12.6088 11.9758 13.122 11.4626 13.755 11.4626Z" fill="black"/>
<path d="M13.755 9.74097C14.7034 9.74097 15.4722 8.97215 15.4722 8.02379C15.4722 7.07543 14.7034 6.30664 13.755 6.30664C12.8066 6.30664 12.0378 7.07543 12.0378 8.02379C12.0378 8.97215 12.8066 9.74097 13.755 9.74097Z" fill="black"/>
<path d="M0 13.755C0 6.15832 6.15832 0 13.755 0C21.3517 0 27.51 6.15832 27.51 13.755C27.51 21.3517 21.3517 27.51 13.755 27.51C6.15832 27.51 0 21.3517 0 13.755ZM13.755 2.2925C7.42444 2.2925 2.2925 7.42444 2.2925 13.755C2.2925 20.0855 7.42444 25.2175 13.755 25.2175C20.0855 25.2175 25.2175 20.0855 25.2175 13.755C25.2175 7.42444 20.0855 2.2925 13.755 2.2925Z" fill="black"/>
</svg>
