<svg xmlns="http://www.w3.org/2000/svg" width="25.014" height="25" viewBox="0 0 25.014 25">
  <g id="career" transform="translate(0 -0.146)">
    <g id="Group_359" data-name="Group 359" transform="translate(0 0.146)">
      <path id="Path_263" data-name="Path 263" d="M174.867,50.854h-9.71a.467.467,0,0,0,0,.935h9.71a.467.467,0,1,0,0-.935Z" transform="translate(-157.754 -47.693)" fill="#969696"/>
      <path id="Path_264" data-name="Path 264" d="M174.867,94.756h-9.71a.467.467,0,0,0,0,.935h9.71a.467.467,0,1,0,0-.935Z" transform="translate(-157.754 -90.172)" fill="#969696"/>
      <path id="Path_265" data-name="Path 265" d="M177.153,192.821h-2.775v-1.305a3.123,3.123,0,0,0-3.119-3.119H166a3.123,3.123,0,0,0-3.119,3.119v1.305h-2.775a2.523,2.523,0,0,0-2.523,2.523v10.691a2.526,2.526,0,0,0,2.523,2.523h17.045a2.526,2.526,0,0,0,2.523-2.523v-2.026a.467.467,0,1,0-.935,0v2.026a1.59,1.59,0,0,1-1.588,1.588H160.109a1.59,1.59,0,0,1-1.588-1.588V199.41a4.187,4.187,0,0,0,3.091,1.552v.714a1.708,1.708,0,0,0,3.417,0v-.71h7.2v.71a1.708,1.708,0,0,0,3.417,0v-.714a4.187,4.187,0,0,0,3.091-1.552v2.414a.467.467,0,0,0,.935,0v-6.48A2.522,2.522,0,0,0,177.153,192.821Zm-13.335-1.305A2.187,2.187,0,0,1,166,189.332h5.256a2.187,2.187,0,0,1,2.184,2.184v1.305h-.974v-1.305a1.212,1.212,0,0,0-1.211-1.211H166a1.212,1.212,0,0,0-1.211,1.211v1.305h-.974Zm1.909,1.305v-1.305a.276.276,0,0,1,.276-.276h5.256a.276.276,0,0,1,.276.276v1.305Zm-1.634,8.854a.773.773,0,0,1-1.547,0V200a.773.773,0,0,1,1.547,0Zm10.621,0a.773.773,0,1,1-1.547,0V200.5s0,0,0,0,0,0,0,0V200a.773.773,0,1,1,1.547,0Zm.935-1.65V200a1.708,1.708,0,1,0-3.417,0v.026h-7.2V200a1.708,1.708,0,1,0-3.417,0v.021a3.261,3.261,0,0,1-3.091-3.253v-1.429a1.588,1.588,0,0,1,1.588-1.588h17.045a1.588,1.588,0,0,1,1.588,1.588v1.429A3.261,3.261,0,0,1,175.65,200.026Z" transform="translate(-154.662 -183.558)" fill="#969696"/>
      <path id="Path_266" data-name="Path 266" d="M6.7,24.413H1.681a1.044,1.044,0,0,1-1-1.079V5.733A1.168,1.168,0,0,1,.7,5.5H3.8A1.221,1.221,0,0,0,4.968,4.239V.9A.941.941,0,0,1,5.184.879H16.71a1.044,1.044,0,0,1,1,1.079V8.245a.341.341,0,1,0,.68,0V1.958A1.752,1.752,0,0,0,16.71.146H5.184A1.612,1.612,0,0,0,4,.677L.492,4.452A1.874,1.874,0,0,0,0,5.733v17.6a1.752,1.752,0,0,0,1.681,1.812H6.7a.367.367,0,0,0,0-.733ZM4.288,1.4V4.238a.512.512,0,0,1-.492.53H1.161Z" transform="translate(0 -0.146)" fill="#969696"/>
    </g>
  </g>
</svg>
