<svg xmlns="http://www.w3.org/2000/svg" width="120" height="120" viewBox="0 0 120 120">
  <g id="Group_2" data-name="Group 2" transform="translate(0 0)">
    <circle id="Ellipse_1" data-name="Ellipse 1" cx="60" cy="60" r="60" transform="translate(0 0)" fill="#007ab9"/>
    <g id="Group_1" data-name="Group 1">
      <path id="Path_1" data-name="Path 1" d="M95.849,64.828V89.565H81.508V66.486c0-5.795-2.071-9.752-7.264-9.752a7.845,7.845,0,0,0-7.356,5.244,9.8,9.8,0,0,0-.475,3.495V89.564H52.07s.193-39.088,0-43.135H66.414v6.113c-.029.048-.069.1-.1.141h.1v-.141A14.24,14.24,0,0,1,79.34,45.417c9.435,0,16.509,6.165,16.509,19.411ZM37.067,25.637c-4.906,0-8.116,3.221-8.116,7.452,0,4.141,3.116,7.455,7.927,7.455h.093c5,0,8.113-3.314,8.113-7.455-.1-4.231-3.11-7.452-8.017-7.452ZM29.8,89.565H44.141V46.429H29.8Z" fill="#f1f2f2"/>
    </g>
  </g>
</svg>
