<svg id="Group_8" data-name="Group 8" xmlns="http://www.w3.org/2000/svg" width="275" height="425.628" viewBox="0 0 275 425.628">
  <g id="Group_7" data-name="Group 7">
    <g id="Group_1" data-name="Group 1">
      <path id="Path_1" data-name="Path 1" d="M134.819,161.338H275V145.545H143.081V124.2l.7-.38c27.565-14.294,41.53-33.887,41.53-58.23C185.31,25.083,150.517,0,118.276,0S51.218,25.083,51.218,65.59c0,25.959,16.5,47.942,45.247,60.316l.781.335.3,19.3H0v15.793H105.9a8.411,8.411,0,0,0,5.9-2.386,7.5,7.5,0,0,0,2.335-5.612l-.506-32.544a7.944,7.944,0,0,0-5.319-7.258c-15.17-5.527-40.623-19.092-40.623-47.948,0-30.757,26.268-49.791,50.591-49.791,24.339,0,50.577,19.034,50.577,49.791,0,19.405-11.979,34.256-37.711,46.782a7.833,7.833,0,0,0-4.543,7v34.058a7.65,7.65,0,0,0,2.4,5.562,8.494,8.494,0,0,0,5.825,2.345" fill="#fff"/>
    </g>
    <g id="Group_2" data-name="Group 2">
      <path id="Path_2" data-name="Path 2" d="M218.156,315.316H275V300.191H226.164l.147-8.834.744-.334c17.845-8.3,27.662-22.931,27.662-41.185,0-28.143-24.2-45.573-46.626-45.573-22.444,0-46.666,17.43-46.666,45.573,0,22.327,15.824,35.649,25.24,40.886l.674.36v9.107H150.677v15.125H195.22a7.979,7.979,0,0,0,5.587-2.239,7.351,7.351,0,0,0,2.3-5.339V286.515a7.46,7.46,0,0,0-4.321-6.747c-15.124-7.325-21.578-17.121-21.578-29.93,0-18.8,16.037-30.432,30.883-30.432,14.826,0,30.822,11.629,30.822,30.432,0,20.23-14.532,26.222-23.214,29.4a7.576,7.576,0,0,0-5.065,6.965l-.365,21.4a7.319,7.319,0,0,0,2.259,5.4,8.047,8.047,0,0,0,5.628,2.31" fill="#fff"/>
    </g>
    <g id="Group_3" data-name="Group 3">
      <path id="Path_3" data-name="Path 3" d="M110.873,175.853a8.369,8.369,0,0,0-6.625-3.206H0v15.788H93.17L18.225,424.689H35.436L112.124,182.8a7.678,7.678,0,0,0-1.251-6.95" fill="#fff"/>
    </g>
    <g id="Group_4" data-name="Group 4">
      <path id="Path_4" data-name="Path 4" d="M275,172.645H131.8a8.064,8.064,0,0,0-8.221,7.887V424.687h16.452V188.434H275Z" fill="#fff"/>
    </g>
    <g id="Group_5" data-name="Group 5">
      <path id="Path_5" data-name="Path 5" d="M203.182,425.628v-94.7a7.75,7.75,0,0,0-7.9-7.563h-44.61V338.5h36.7v87.132Z" fill="#fff"/>
    </g>
    <g id="Group_6" data-name="Group 6">
      <path id="Path_6" data-name="Path 6" d="M275,338.495V323.36H219.253a7.98,7.98,0,0,0-6.356,3.1,7.527,7.527,0,0,0-1.216,6.661l27.388,92.511h16.457l-25.691-87.132Z" fill="#fff"/>
    </g>
  </g>
</svg>
