<svg xmlns="http://www.w3.org/2000/svg" width="48.536" height="62.849" viewBox="0 0 48.536 62.849">
  <g id="Group_1" data-name="Group 1" transform="translate(1.286 1.25)">
    <path id="Path_1" data-name="Path 1" d="M11.149,19.766" fill="none" stroke="#fff" stroke-linecap="round" stroke-miterlimit="10" stroke-width="2.5"/>
    <path id="Path_2" data-name="Path 2" d="M17.926,30.984a173.1,173.1,0,0,1,27.69.277" fill="none" stroke="#fff" stroke-linecap="round" stroke-miterlimit="10" stroke-width="2.5"/>
    <path id="Path_3" data-name="Path 3" d="M39.535,26.6A34.1,34.1,0,0,1,46,31.086a69.083,69.083,0,0,0-6.151,6.081" fill="none" stroke="#fff" stroke-linecap="round" stroke-linejoin="round" stroke-miterlimit="10" stroke-width="2.5"/>
    <path id="Path_4" data-name="Path 4" d="M31.1,22.238a112.754,112.754,0,0,0-1.388-19.2A3.457,3.457,0,0,0,28.755.8,3.471,3.471,0,0,0,26.678.249,226.12,226.12,0,0,0-.036.575q.612,28.486,1.678,56.96a2.755,2.755,0,0,0,.49,1.782,2.709,2.709,0,0,0,1.819.659,78.429,78.429,0,0,0,24.322-1.442,6.046,6.046,0,0,0,3.2-1.435A6.156,6.156,0,0,0,32.7,53.108a117.61,117.61,0,0,0-.059-14.555" fill="none" stroke="#fff" stroke-linecap="round" stroke-linejoin="round" stroke-miterlimit="10" stroke-width="2.5"/>
  </g>
</svg>
