<svg id="logout" xmlns="http://www.w3.org/2000/svg" width="25.006" height="25.006" viewBox="0 0 25.006 25.006">
  <g id="Group_354" data-name="Group 354">
    <g id="Group_353" data-name="Group 353">
      <path id="Path_260" data-name="Path 260" d="M16.852,9.785a.544.544,0,0,0,.544-.544V2.718A2.721,2.721,0,0,0,14.677,0H2.718A2.721,2.721,0,0,0,0,2.718v19.57a2.721,2.721,0,0,0,2.718,2.718H14.677A2.721,2.721,0,0,0,17.4,22.288V15.765a.544.544,0,1,0-1.087,0v6.523a1.633,1.633,0,0,1-1.631,1.631H2.718a1.633,1.633,0,0,1-1.631-1.631V2.718A1.633,1.633,0,0,1,2.718,1.087H14.677a1.633,1.633,0,0,1,1.631,1.631V9.241A.544.544,0,0,0,16.852,9.785Z" fill="#969696"/>
    </g>
  </g>
  <g id="Group_356" data-name="Group 356" transform="translate(6.523 11.959)">
    <g id="Group_355" data-name="Group 355">
      <path id="Path_261" data-name="Path 261" d="M145.939,234.667h-17.4a.544.544,0,1,0,0,1.087h17.4a.544.544,0,1,0,0-1.087Z" transform="translate(-128 -234.667)" fill="#969696"/>
    </g>
  </g>
  <g id="Group_358" data-name="Group 358" transform="translate(20.657 8.7)">
    <g id="Group_357" data-name="Group 357">
      <path id="Path_262" data-name="Path 262" d="M409.517,174.125l-3.262-3.262a.544.544,0,1,0-.769.769l2.877,2.877-2.877,2.877a.544.544,0,0,0,.769.77l3.262-3.262A.544.544,0,0,0,409.517,174.125Z" transform="translate(-405.328 -170.704)" fill="#969696"/>
    </g>
  </g>
</svg>
