<svg xmlns="http://www.w3.org/2000/svg" width="50.826" height="31.627" viewBox="0 0 50.826 31.627">
  <g id="Group_1" data-name="Group 1" transform="translate(-0.739 -0.558)">
    <path id="Path_1" data-name="Path 1" d="M2.321,3.626a171.391,171.391,0,0,0-.26,24.584,3.008,3.008,0,0,0,.244,1.2c.479.935,1.719,1.106,2.768,1.158q21.639,1.063,43.316.285a1.15,1.15,0,0,0,1.341-1.31,150.839,150.839,0,0,0,.449-26.618,1.63,1.63,0,0,0-.3-.993,1.636,1.636,0,0,0-1.248-.36q-23.043-.118-46.079.639" fill="none" stroke="#333" stroke-linecap="round" stroke-linejoin="round" stroke-miterlimit="10" stroke-width="2"/>
    <path id="Path_2" data-name="Path 2" d="M2.759,2.732,22.508,14.886a8.639,8.639,0,0,0,4.142,1.639,7.942,7.942,0,0,0,3.48-.963c7.249-3.372,13.581-8.4,19.837-13.379.178-.141-.294-.327-.261-.1" fill="none" stroke="#333" stroke-linecap="round" stroke-linejoin="round" stroke-miterlimit="10" stroke-width="2"/>
    <path id="Path_3" data-name="Path 3" d="M2.257,30.156l15.7-17.21" fill="none" stroke="#333" stroke-linecap="round" stroke-miterlimit="10" stroke-width="2"/>
    <path id="Path_4" data-name="Path 4" d="M49.148,29.6l-7.955-9.36a57.429,57.429,0,0,0-6.026-6.4" fill="none" stroke="#333" stroke-linecap="round" stroke-linejoin="round" stroke-miterlimit="10" stroke-width="2"/>
  </g>
</svg>
