<svg xmlns="http://www.w3.org/2000/svg" width="34.473" height="108.876" viewBox="0 0 34.473 108.876">
  <g id="Group_1" data-name="Group 1" transform="translate(-0.683 -0.124)">
    <path id="Path_1" data-name="Path 1" d="M.683,84.787v-42.2A16.261,16.261,0,0,1,16.944,26.322h1.389A16.823,16.823,0,0,1,35.156,43.145v59.679A6.176,6.176,0,0,1,28.98,109h-.519a6.176,6.176,0,0,1-6.175-6.176V78.817a2.164,2.164,0,0,0-2.165-2.164h-4.4a2.173,2.173,0,0,0-2.173,2.173v5.961h0v18.037A6.176,6.176,0,0,1,7.38,109H6.861a6.176,6.176,0,0,1-6.175-6.176V84.787" fill="#757575"/>
    <circle id="Ellipse_1" data-name="Ellipse 1" cx="13.099" cy="13.099" r="13.099" transform="translate(4.82 0.124)" fill="#757575"/>
  </g>
</svg>
