<svg xmlns="http://www.w3.org/2000/svg" width="86.858" height="95.537" viewBox="0 0 86.858 95.537">
  <g id="Group_3" data-name="Group 3" transform="translate(-0.142 -0.298)">
    <path id="Path_1" data-name="Path 1" d="M57.663,2.855C41.843-4.23,19.911,4.235,9.5,18.093S-2.285,51.346,3.646,67.635A48.161,48.161,0,0,0,10.2,80.1c10.026,13.373,28.975,18.909,44.93,13.93S83.307,74.347,86.256,57.9,83.2,23.878,71.512,11.934c-3.6-3.672-9.093-7.89-13.849-9.079" fill="#0068FF"/>
    <g id="Group_1" data-name="Group 1">
      <path id="Path_2" data-name="Path 2" d="M34.15,14.23l16.211.393c-.413,13.358-4.847,26.351-5.216,39.709a1.259,1.259,0,0,1-.33,1,1.244,1.244,0,0,1-.8.163L39.6,55.38c-1.363-13.654-4.253-27.1-7.138-40.518" fill="#fff"/>
      <path id="Path_3" data-name="Path 3" d="M34.15,17.2l16.211.393-2.973-2.973c-.232,6.748-1.478,13.369-2.688,19.994-.607,3.329-1.2,6.66-1.654,10.014-.248,1.818-.472,3.64-.629,5.469q-.1,1.173-.166,2.349c-.025.467-.064.944-.063,1.412l-.015.471q.114-.477-.053.015l.765-1.312c.4-.466,1.848-.489.392-.528l-1.225-.034L39.6,52.407l2.973,2.973c-1.41-13.933-4.3-27.635-7.245-41.309A2.974,2.974,0,0,0,29.6,15.652c2.828,13.147,5.677,26.33,7.033,39.728A3.051,3.051,0,0,0,39.6,58.352c2.017.055,4.909.659,6.714-.449,2.087-1.281,1.779-3.822,1.909-5.924a109.946,109.946,0,0,1,1.542-12.06c1.46-8.389,3.274-16.758,3.567-25.3a3.015,3.015,0,0,0-2.972-2.972L34.15,11.257c-3.827-.092-3.825,5.853,0,5.946Z" fill="#fff"/>
    </g>
    <g id="Group_2" data-name="Group 2">
      <path id="Path_4" data-name="Path 4" d="M44.789,70.45a3.3,3.3,0,0,0-4.305-.187A6.618,6.618,0,0,0,38.218,74.3c-.464,2.14-.3,4.647,1.307,6.135,2.079,1.925,5.834,1,7.274-1.438s.8-5.727-.992-7.92" fill="#fff"/>
      <path id="Path_5" data-name="Path 5" d="M46.891,68.348a5.752,5.752,0,0,0-4.777-1.719,7.045,7.045,0,0,0-2.789.847,7.576,7.576,0,0,0-2.3,2.156,10.1,10.1,0,0,0-1.732,4.173,11.839,11.839,0,0,0,.026,5.035,7.215,7.215,0,0,0,7.15,5.6A8.2,8.2,0,0,0,49.7,79.826a9.835,9.835,0,0,0,.63-5.971,11.151,11.151,0,0,0-2.423-4.879,2.976,2.976,0,0,0-2.1-.871,3.025,3.025,0,0,0-2.1.871,2.992,2.992,0,0,0-.871,2.1,3.438,3.438,0,0,0,.871,2.1c-.612-.764-.136-.175-.013.01q.127.19.244.389c.077.132.151.267.221.4.05.1.331.73.107.2s.032.113.067.218c.049.145.093.292.133.439a8.428,8.428,0,0,1,.206,1.045l-.107-.791a7.35,7.35,0,0,1-.009,1.8l.106-.79a6.332,6.332,0,0,1-.19.872c-.043.142-.1.28-.145.423.233-.787.18-.407.054-.164-.066.127-.136.252-.213.373-.147.233-.411.43.172-.19-.174.185-.331.381-.52.553s-.555.339.21-.142c-.107.068-.207.148-.314.217-.044.028-.67.366-.67.364-.009-.034.842-.321.238-.109-.1.035-.2.067-.3.1a5.78,5.78,0,0,1-.8.167l.791-.106a5.461,5.461,0,0,1-1.239.006l.79.106a4.894,4.894,0,0,1-.6-.118c-.1-.027-.193-.066-.291-.092-.326-.088.712.35.316.136-.031-.017-.526-.313-.529-.31.034-.027.647.559.259.192-.087-.082-.174-.163-.257-.251-.067-.071-.125-.151-.193-.221.552.568.276.367.13.128-.086-.142-.392-.8-.177-.292s.034.064,0-.055-.071-.235-.1-.354a7.05,7.05,0,0,1-.152-.805l.106.791a9.2,9.2,0,0,1,.034-2.274l-.106.79a11.025,11.025,0,0,1,.374-1.664c.048-.153.1-.3.155-.453.166-.478-.247.519-.088.195a8.653,8.653,0,0,1,.407-.767c.068-.111.145-.216.218-.324.195-.294-.467.532-.124.176.108-.113.217-.222.328-.332.364-.36-.559.341-.127.088.1-.057.191-.121.291-.175.442-.239-.162.1-.276.1a5.785,5.785,0,0,0,.794-.208l-.79.106a4.093,4.093,0,0,1,.945-.018l-.791-.106a3.768,3.768,0,0,1,.393.072q.127.031.252.075-.724-.327-.408-.174c.106.073.525.351.09.006-.454-.361.006.03.092.123a3,3,0,0,0,4.2,0,3.037,3.037,0,0,0,0-4.2Z" fill="#fff"/>
    </g>
  </g>
</svg>
