<svg xmlns="http://www.w3.org/2000/svg" width="102.686" height="126.273" viewBox="0 0 102.686 126.273">
  <g id="Group_1" data-name="Group 1" transform="translate(1.251 1.294)">
    <path id="Path_1" data-name="Path 1" d="M16.9,21.8C16.386,30.4,8.61,36.518,4.559,44.115,1.152,50.5.426,57.954.149,65.189A204.417,204.417,0,0,0,2.14,102.483a18.317,18.317,0,0,0,2.034,6.964c1.752,2.889,4.88,4.631,7.972,5.994a63.932,63.932,0,0,0,25.49,5.417" fill="none" stroke="#fff" stroke-linecap="round" stroke-linejoin="round" stroke-miterlimit="10" stroke-width="2.5"/>
    <path id="Path_2" data-name="Path 2" d="M55.547,118.223a63.925,63.925,0,0,1-17.9,2.635" fill="none" stroke="#fff" stroke-linecap="round" stroke-miterlimit="10" stroke-width="2.5"/>
    <path id="Path_3" data-name="Path 3" d="M58.383,21.8c.511,8.594,8.287,14.714,12.338,22.311,3.407,6.389,4.133,13.839,4.41,21.074a204.37,204.37,0,0,1-.978,29.229" fill="none" stroke="#fff" stroke-linecap="round" stroke-linejoin="round" stroke-miterlimit="10" stroke-width="2.5"/>
    <path id="Path_4" data-name="Path 4" d="M37.64,20.381c-6.612.174-14.6.152-21.162-.121a8.891,8.891,0,0,1-2.963-.475c-3.27-1.314-3.887-5.6-3.925-9.129-.027-2.454.042-5.1,1.5-7.069C13.118.849,16.976.425,20.377.235,26.492-.1,31.536.024,38.149.024" fill="none" stroke="#fff" stroke-linecap="round" stroke-linejoin="round" stroke-miterlimit="10" stroke-width="2.5"/>
    <path id="Path_5" data-name="Path 5" d="M37.64,20.381c6.782.319,15.677.152,22.241-.121a8.893,8.893,0,0,0,2.964-.475c3.269-1.314,3.887-5.6,3.925-9.129.026-2.454-.043-5.1-1.5-7.069C63.242.849,59.383.425,55.983.235,49.867-.1,44.264.365,38.149.024" fill="none" stroke="#fff" stroke-linecap="round" stroke-linejoin="round" stroke-miterlimit="10" stroke-width="2.5"/>
    <path id="Path_6" data-name="Path 6" d="M36.737,104.381A71.068,71.068,0,0,1,20.21,101.43a9.269,9.269,0,0,1-4.748-2.644c-1.329-1.662-1.44-3.956-1.492-6.082L13.319,66.5c-.029-1.187,0-2.527.865-3.342a4.314,4.314,0,0,1,3.007-.784l19.832-.122" fill="none" stroke="#fff" stroke-linecap="round" stroke-linejoin="round" stroke-miterlimit="10" stroke-width="2.5"/>
    <path id="Path_7" data-name="Path 7" d="M36.737,104.381A86.909,86.909,0,0,0,55.07,101.43a9.269,9.269,0,0,0,4.748-2.644c1.329-1.662,1.44-3.956,1.492-6.082L61.961,66.5c.029-1.187,0-2.527-.865-3.342a4.314,4.314,0,0,0-3.007-.784c-6.61-.041-14.455-.081-21.066-.122" fill="none" stroke="#fff" stroke-linecap="round" stroke-linejoin="round" stroke-miterlimit="10" stroke-width="2.5"/>
    <path id="Path_8" data-name="Path 8" d="M33.322,72.168,33.3,79.5c-1.958,1.377-4.58,1.032-6.973,1.041a2.1,2.1,0,0,0-1.514.432,2.081,2.081,0,0,0-.441,1.409,19.452,19.452,0,0,0,.223,3.961,3.1,3.1,0,0,0,1.187,2.315,3.337,3.337,0,0,0,1.7.305l6.316,0,.026,6.28a1.43,1.43,0,0,0,.386,1.193,1.412,1.412,0,0,0,.928.163l5.631-.308a1.006,1.006,0,0,0,1.2-1.194q.084-3.633-.141-7.264a66.714,66.714,0,0,1,6.906-.438,30.44,30.44,0,0,0-.3-8,1.467,1.467,0,0,0-.495-1.033,1.5,1.5,0,0,0-1.014-.114l-5.05.62a1.222,1.222,0,0,1-.908-.124,1.253,1.253,0,0,1-.3-1.094,41.563,41.563,0,0,0-.1-5.5,1.561,1.561,0,0,0-.331-1,1.509,1.509,0,0,0-1.142-.3,13.12,13.12,0,0,0-5.279,1.3" fill="none" stroke="#fff" stroke-linecap="round" stroke-linejoin="round" stroke-miterlimit="10" stroke-width="2.5"/>
    <path id="Path_9" data-name="Path 9" d="M79.207,93a13.367,13.367,0,0,0-7.67,2.876" fill="none" stroke="#fff" stroke-linecap="round" stroke-miterlimit="10" stroke-width="2.5"/>
    <path id="Path_10" data-name="Path 10" d="M72.225,96.277a64.378,64.378,0,0,0-14.7,13.271,12.112,12.112,0,0,0-2.635,4.6,4.708,4.708,0,0,0,1.4,4.847c1.354,1.02,3.243.93,4.89.527,3.9-.953,7.285-3.335,10.423-5.84a68.191,68.191,0,0,0,9.743-9.273" fill="none" stroke="#fff" stroke-linecap="round" stroke-linejoin="round" stroke-miterlimit="10" stroke-width="2.5"/>
    <path id="Path_11" data-name="Path 11" d="M66.288,101.863l7.6,8.571" fill="none" stroke="#fff" stroke-linecap="round" stroke-miterlimit="10" stroke-width="2.5"/>
    <path id="Path_12" data-name="Path 12" d="M80.361,101.791a64.394,64.394,0,0,0,9.26,17.509,12.1,12.1,0,0,0,3.811,3.682,4.706,4.706,0,0,0,5.043-.173c1.321-1.063,1.7-2.915,1.71-4.611.032-4.015-1.447-7.881-3.106-11.537a59.364,59.364,0,0,0-9.915-15.807c-.966-1.053-2.127-2.119-3.553-2.181-2.028-.088-3.544,1.878-4.225,3.79a13.338,13.338,0,0,0,.418,9.9" fill="none" stroke="#fff" stroke-linecap="round" stroke-linejoin="round" stroke-miterlimit="10" stroke-width="2.5"/>
    <path id="Path_13" data-name="Path 13" d="M84.32,108.917l10.173-5.264" fill="none" stroke="#fff" stroke-linecap="round" stroke-miterlimit="10" stroke-width="2.5"/>
  </g>
</svg>
