<svg xmlns="http://www.w3.org/2000/svg" width="64.397" height="47.284" viewBox="0 0 64.397 47.284">
  <g id="Group_1" data-name="Group 1" transform="translate(-0.603 -8.005)">
    <path id="Path_1" data-name="Path 1" d="M2.32,12.212q23.748.482,47.5-.179,6.734-.189,13.464-.471c2.279-.1,2.291-3.651,0-3.555Q39.553,9,15.79,8.84,9.055,8.8,2.32,8.656c-2.289-.046-2.289,3.509,0,3.556Z" fill="#fff"/>
    <path id="Path_2" data-name="Path 2" d="M2.32,33.648q23.748.482,47.5-.179Q56.556,33.28,63.286,33c2.279-.1,2.291-3.65,0-3.555q-23.733.988-47.5.834-6.735-.047-13.47-.184c-2.289-.047-2.289,3.508,0,3.555Z" fill="#fff"/>
    <path id="Path_3" data-name="Path 3" d="M2.32,55.084q23.748.483,47.5-.179,6.734-.189,13.464-.471c2.279-.095,2.291-3.65,0-3.555q-23.733.988-47.5.834-6.735-.047-13.47-.184c-2.289-.047-2.289,3.509,0,3.555Z" fill="#fff"/>
  </g>
</svg>
