<svg xmlns="http://www.w3.org/2000/svg" width="29.506" height="55.022" viewBox="0 0 29.506 55.022">
  <g id="Group_1" data-name="Group 1" transform="translate(0.997 1.018)">
    <path id="Path_1" data-name="Path 1" d="M22.577,4.535C21.319.961,16.827-.6,13.127.211a11.448,11.448,0,0,0-8.84,13.022c.605,3.71,3.349,7.158,7.019,7.97a10.2,10.2,0,0,0,6.913-1.165,12.228,12.228,0,0,0,5.616-6.146,10.2,10.2,0,0,0-.27-8.243" fill="none" stroke="#333" stroke-linecap="round" stroke-linejoin="round" stroke-miterlimit="10" stroke-width="2"/>
    <path id="Path_2" data-name="Path 2" d="M0,51.128A58.387,58.387,0,0,1,4.241,33.235c1.592-3.862,3.781-7.742,7.4-9.819A7.039,7.039,0,0,1,16.408,22.4a7.646,7.646,0,0,1,3.962,2.5c3.269,3.523,4.716,8.37,5.414,13.125s.754,9.6,1.746,14.307" fill="none" stroke="#333" stroke-linecap="round" stroke-linejoin="round" stroke-miterlimit="10" stroke-width="2"/>
    <path id="Path_3" data-name="Path 3" d="M.333,51.264a101.834,101.834,0,0,0,27.218,1.381" fill="none" stroke="#333" stroke-linecap="round" stroke-miterlimit="10" stroke-width="2"/>
  </g>
</svg>
