<svg xmlns="http://www.w3.org/2000/svg" width="606.319" height="374.074" viewBox="0 0 606.319 374.074">
  <g id="Group_3" data-name="Group 3" transform="translate(6.075 7.924)">
    <path id="Path_1" data-name="Path 1" d="M94,8.477c-10.832-11.35-31.545-10-41.708,1.953S43.473,42,54.321,53.333C60.8,60.106,70.8,64.083,79.8,61.477c5.372-1.554,9.921-5.25,13.457-9.582C104.921,37.608,105.605,15.428,94.846.449" fill="#fff" stroke="#000" stroke-linecap="round" stroke-linejoin="round" stroke-width="12"/>
    <path id="Path_2" data-name="Path 2" d="M41.644,29.479C27.471,22.047,9.285,33.225,3.388,48.1S.294,79.708,3.182,95.448q3.246,17.7,6.493,35.4c7.48,40.775,17.76,85.986,52.267,108.959,10.474,6.973,22.5,11.3,34.7,14.4,25.54,6.486,53.193,7.683,77.769-1.824,32.138-12.432,55.4-41.994,67.357-74.313s13.945-67.41,13.976-101.869c.009-11.055-.264-22.528-5.111-32.463s-15.586-17.874-26.464-15.907" fill="none" stroke="#000" stroke-linecap="round" stroke-linejoin="round" stroke-width="12"/>
    <path id="Path_3" data-name="Path 3" d="M46.742,166.271c6.052,17.8,15.161,33.863,30.582,44.13,8.029,5.345,17.25,8.661,26.6,11.035,19.577,4.972,40.775,5.889,59.613-1.4,24.636-9.529,42.468-32.19,51.633-56.964" fill="none" stroke="#000" stroke-linecap="round" stroke-linejoin="round" stroke-width="12"/>
    <path id="Path_4" data-name="Path 4" d="M421.949,177.89c-9.743-13.377-30.311-15.934-44.685-7.733s-22.518,24.919-23.437,41.443c-1.1,19.829,11.648,42.835,31.508,42.8,17.083-.033,29.587-16.934,33.658-33.525,4.727-19.269.739-42.261-15.263-53.992" fill="#fff" stroke="#000" stroke-linecap="round" stroke-linejoin="round" stroke-width="12"/>
    <path id="Path_5" data-name="Path 5" d="M496.969,173.478c-8.314-3.741-17.177-7.3-26.253-6.439s-18.246,7.606-18.688,16.712c-.619,12.761,14.249,19.987,26.677,22.951s27.527,7.42,30.22,19.909c2.083,9.663-5.363,19.333-14.459,23.206s-19.375,3.371-29.244,2.8c-6.223-.359-14.5-2.939-13.894-9.142" fill="none" stroke="#000" stroke-linecap="round" stroke-linejoin="round" stroke-width="12"/>
    <path id="Path_6" data-name="Path 6" d="M527.649,167.06,541,225.218c1.175,5.121,2.45,10.447,5.806,14.488,7.88,9.49,22.669,7.661,34.708,4.974,2.37-.529,5.329-1.807,5.117-4.226s-5.018.1-2.705.835" fill="none" stroke="#000" stroke-linecap="round" stroke-linejoin="round" stroke-width="12"/>
    <path id="Path_7" data-name="Path 7" d="M530.358,208.125a130.217,130.217,0,0,1,39.805-12.385" fill="none" stroke="#000" stroke-linecap="round" stroke-linejoin="round" stroke-width="12"/>
    <path id="Path_8" data-name="Path 8" d="M523.68,167.16q34.168-3.224,68.137-8.23" fill="none" stroke="#000" stroke-linecap="round" stroke-linejoin="round" stroke-width="12"/>
    <path id="Path_9" data-name="Path 9" d="M527.91,50.571l13.35,58.159c1.175,5.12,2.45,10.446,5.806,14.488,7.88,9.49,22.669,7.661,34.709,4.974,2.369-.529,5.328-1.807,5.116-4.226s-5.018.1-2.705.835" fill="none" stroke="#000" stroke-linecap="round" stroke-linejoin="round" stroke-width="12"/>
    <path id="Path_10" data-name="Path 10" d="M530.619,91.637a130.246,130.246,0,0,1,39.8-12.386" fill="none" stroke="#000" stroke-linecap="round" stroke-linejoin="round" stroke-width="12"/>
    <path id="Path_11" data-name="Path 11" d="M523.941,50.672q34.168-3.224,68.137-8.23" fill="none" stroke="#000" stroke-linecap="round" stroke-linejoin="round" stroke-width="12"/>
    <path id="Path_12" data-name="Path 12" d="M424.283,67.626c-9.743-13.377-30.311-15.934-44.685-7.733s-22.518,24.919-23.437,41.443c-1.1,19.829,11.648,42.835,31.508,42.8,17.083-.033,29.587-16.934,33.658-33.525,4.727-19.269.739-42.261-15.263-53.991" fill="none" stroke="#000" stroke-linecap="round" stroke-linejoin="round" stroke-width="12"/>
    <path id="Path_13" data-name="Path 13" d="M450.154,133.327a317.594,317.594,0,0,1,2.926-71.538,670.176,670.176,0,0,0,50.047,71.18q-1.742-40.924-6.369-81.658" fill="none" stroke="#000" stroke-linecap="round" stroke-linejoin="round" stroke-width="12"/>
    <path id="Path_14" data-name="Path 14" d="M122.285,259.67c4.919,34.934,30.924,64.788,62.913,79.664s69.07,16.118,103.664,9.2a146.387,146.387,0,0,0,29.159-8.654c33.587-14.429,58.529-47.315,63.367-83.548" fill="none" stroke="#000" stroke-linecap="round" stroke-linejoin="round" stroke-width="12"/>
    <path id="Path_15" data-name="Path 15" d="M274.592,170.524l5.762,74.07c.156,2,.384,4.176,1.766,5.634a7.767,7.767,0,0,0,4.068,1.923c13.694,3.042,28.455-4.526,35.906-16.412s8.216-27.159,4.233-40.61c-3.38-11.414-10.357-22.162-20.75-27.966s-24.4-5.737-33.53,1.9" fill="none" stroke="#000" stroke-linecap="round" stroke-linejoin="round" stroke-width="12"/>
    <g id="Group_1" data-name="Group 1">
      <path id="Path_16" data-name="Path 16" d="M425.229,289.356c-3.751-1.687-7.749-3.292-11.844-2.9s-8.232,3.431-8.431,7.539c-.279,5.757,6.429,9.017,12.035,10.355s12.419,3.347,13.633,8.981c.94,4.36-2.419,8.722-6.522,10.469s-8.741,1.521-13.194,1.264c-2.807-.162-6.542-1.325-6.268-4.124" fill="none" stroke="#fff" stroke-linecap="round" stroke-linejoin="round" stroke-width="7"/>
      <path id="Path_17" data-name="Path 17" d="M442.911,291.011a92.33,92.33,0,0,0,5.021,25.178c.995,2.842,2.339,5.874,5.032,7.221,3.289,1.644,7.479.007,9.807-2.84s3.192-6.594,3.786-10.223a107.168,107.168,0,0,0,1.251-21.973,82.674,82.674,0,0,0,9.051,32.553" fill="none" stroke="#fff" stroke-linecap="round" stroke-linejoin="round" stroke-width="7"/>
      <path id="Path_18" data-name="Path 18" d="M515.485,290.3c-4.773-5.352-14.119-4.589-19.223.449s-6.388,13-4.984,20.031c.788,3.944,2.582,8.032,6.124,9.939,4.086,2.2,9.441.708,12.744-2.552s4.871-7.9,5.622-12.481a45.372,45.372,0,0,0-.455-17.012c-2.979,18.786,3.055,37.773,3.408,56.789.074,4.014-.145,8.187-2.006,11.744-2.139,4.087-7.585,6.972-11.443,4.442-1.915-1.255-2.935-3.489-3.628-5.672a33.136,33.136,0,0,1-1.227-14.551" fill="none" stroke="#fff" stroke-linecap="round" stroke-linejoin="round" stroke-width="7"/>
      <path id="Path_19" data-name="Path 19" d="M546.648,285.768c-2.577-1.517-6-.977-8.469.711a16.547,16.547,0,0,0-5.355,7.056,35.53,35.53,0,0,0-2.871,10.1c-.441,3.4-.347,7.025,1.278,10.048s5.1,5.243,8.46,4.538c4.03-.846,6.194-5.163,7.57-9.044a115.615,115.615,0,0,0,4.566-16.794,97.248,97.248,0,0,0,5.648,27.139" fill="none" stroke="#fff" stroke-linecap="round" stroke-linejoin="round" stroke-width="7"/>
      <path id="Path_20" data-name="Path 20" d="M572.928,286.9c.116,10.339.233,20.689,1.1,30.993a99.59,99.59,0,0,1-2.707-23.155c0-2.276.126-4.691,1.4-6.577,1.783-2.636,5.368-3.481,8.526-3.087s6.094,1.775,9.135,2.711c1.7.523,3.871.771,4.957-.636" fill="none" stroke="#fff" stroke-linecap="round" stroke-linejoin="round" stroke-width="7"/>
    </g>
    <path id="Path_21" data-name="Path 21" d="M217.4,8.477c-10.831-11.35-31.545-10-41.707,1.953S166.872,42,177.72,53.333c6.482,6.773,16.475,10.75,25.481,8.144,5.371-1.554,9.92-5.25,13.456-9.582C228.32,37.608,229,15.428,218.245.449" fill="#fff" stroke="#000" stroke-linecap="round" stroke-linejoin="round" stroke-width="12"/>
  </g>
</svg>
