<svg id="Layer_1" data-name="Layer 1" xmlns="http://www.w3.org/2000/svg" viewBox="0 0 604.27 364.29"><path d="M94.05,8C83.22-3.32,62.51-2,52.35,10s-8.81,31.56,2,42.89C60.86,59.64,70.86,63.62,79.86,61c5.37-1.55,9.92-5.25,13.45-9.58C105,37.15,105.66,15,94.9,0" transform="translate(6.12 6.13)" fill="#fff"/><path d="M98.39,3.68C88.24-6.81,72.05-8.22,59.12-2.53,45.82,3.32,38.46,17.79,39.37,32a40.18,40.18,0,0,0,6.84,20.48A36.55,36.55,0,0,0,65.64,66.73,28.29,28.29,0,0,0,89.73,63a42.35,42.35,0,0,0,14.6-18,50.74,50.74,0,0,0-1.43-43.8,38.8,38.8,0,0,0-2.7-4.34,6.55,6.55,0,0,0-3.67-2.82,6.25,6.25,0,0,0-4.73.61C89.2-3.63,87.6.3,89.59,3.1A39.78,39.78,0,0,1,92,7c.38.69.74,1.39,1.08,2.11.16.32.31.66.46,1,.42.92-.49-1.24,0,0a43.32,43.32,0,0,1,2.46,9c0,.18,0,.36.08.54.12.68-.1-.79-.09-.73,0,.37.08.73.12,1.09q.12,1.18.18,2.37a44.27,44.27,0,0,1,0,4.75c0,.73-.1,1.46-.17,2.19,0,.25-.19,1.52-.05.45s-.06.36-.1.63A43.7,43.7,0,0,1,95,35a41.16,41.16,0,0,1-1.45,4.31c-.07.17-.14.34-.2.51s.54-1.24.26-.63l-.45,1c-.36.77-.75,1.53-1.16,2.28a39.5,39.5,0,0,1-2.41,3.86c-.21.29-.46.57-.65.88,0,0,.82-1,.4-.52-.12.14-.23.29-.34.43-.59.72-1.21,1.43-1.85,2.1S86,50.34,85.4,50.88l-.9.8-.47.38c-.6.54,1-.69.3-.22a27.78,27.78,0,0,1-4.24,2.59l-.72.33s1.19-.45.55-.24c-.38.12-.74.27-1.12.39a18.55,18.55,0,0,1-2.44.62l-.56.1c-.67.14.73-.09.69-.09a10.77,10.77,0,0,0-1.13.1,22.43,22.43,0,0,1-2.46,0,4.69,4.69,0,0,0-1.33-.11s1.36.22.69.1l-.56-.09c-.82-.15-1.63-.33-2.42-.55s-1.48-.45-2.2-.72c-.21-.08-1.43-.56-.52-.19s-.43-.22-.67-.34a34.43,34.43,0,0,1-4.32-2.61c-.93-.65.88.73,0,0-.3-.25-.6-.49-.89-.75-.64-.55-1.24-1.12-1.83-1.73s-1-1.11-1.52-1.69L57,46.56c-.43-.5.46.61.43.56-.22-.34-.49-.65-.72-1a31.88,31.88,0,0,1-2.22-3.73c-.32-.61-.58-1.26-.89-1.88,0,.07.57,1.44.21.5l-.18-.48c-.15-.38-.29-.77-.42-1.15a36.16,36.16,0,0,1-1.13-4.2c-.08-.34-.14-.69-.2-1s-.22-1.48-.08-.39,0-.14,0-.39c0-.46-.08-.92-.11-1.39a34.75,34.75,0,0,1,0-4.33c0-.69.15-1.38.19-2.07,0-.09-.22,1.45-.1.78,0-.17,0-.34.08-.51.08-.46.16-.91.26-1.36a29.85,29.85,0,0,1,1.17-4.13c.11-.33.24-.64.36-1,.23-.62-.32.74-.29.68s.14-.31.21-.47c.31-.68.64-1.34,1-2s.74-1.29,1.15-1.91c.19-.29.39-.57.59-.85.78-1.09-.65.76,0,0a28.48,28.48,0,0,1,2.83-3l.86-.74c.8-.69-1.08.78-.22.16.57-.4,1.14-.81,1.74-1.18A31.31,31.31,0,0,1,65,8.21c1-.46-1.27.48-.27.11l1.07-.4q1-.34,2-.63c.63-.18,1.27-.33,1.9-.46l1-.19c.28,0,1.61-.24.47-.09s.06,0,.32,0l1-.08c.76-.05,1.52-.08,2.28-.07s1.3,0,1.94.07l1,.08.49.05c.86.08-.54-.1-.68-.09a13.71,13.71,0,0,1,4.08.91c.62.18,1.22.39,1.82.62l.45.17c.61.22-.8-.35-.73-.31.32.19.68.31,1,.47a29.77,29.77,0,0,1,3.57,2.13c.13.09.25.21.39.29s-1.08-.9-.61-.47c.24.22.5.41.74.62.53.47,1,.95,1.53,1.46a6.14,6.14,0,1,0,8.68-8.69Z" transform="translate(6.12 6.13)" fill="#010101"/><path d="M217.42,8c-10.83-11.35-31.54-10-41.7,2s-8.81,31.56,2,42.89c6.48,6.77,16.47,10.75,25.48,8.14,5.37-1.55,9.91-5.25,13.45-9.58C228.34,37.15,229,15,218.27,0" transform="translate(6.12 6.13)" fill="#fff"/><path d="M221.76,3.68c-10.15-10.49-26.34-11.9-39.27-6.21C169.18,3.32,161.83,17.79,162.74,32a40.09,40.09,0,0,0,6.84,20.48A36.55,36.55,0,0,0,189,66.73,28.27,28.27,0,0,0,213.09,63,42.44,42.44,0,0,0,227.7,45a50.74,50.74,0,0,0-1.43-43.8,40.32,40.32,0,0,0-2.7-4.34,6.59,6.59,0,0,0-3.67-2.82,6.28,6.28,0,0,0-4.74.61C212.57-3.63,211,.3,213,3.1A41.8,41.8,0,0,1,215.4,7c.38.69.74,1.39,1.08,2.11l.45,1c.43.92-.49-1.24,0,0a42.68,42.68,0,0,1,2.45,9c0,.18,0,.36.09.54.11.68-.1-.79-.1-.73,0,.37.09.73.13,1.09q.12,1.18.18,2.37a47,47,0,0,1,0,4.75q-.06,1.09-.18,2.19c0,.25-.19,1.52,0,.45s-.06.36-.1.63a43.85,43.85,0,0,1-2.48,9c-.07.17-.15.34-.21.51s.55-1.24.27-.63c-.16.33-.3.66-.46,1-.36.77-.74,1.53-1.15,2.28a39.59,39.59,0,0,1-2.42,3.86c-.21.29-.45.57-.64.88,0,0,.82-1,.4-.52l-.35.43c-.59.72-1.2,1.43-1.85,2.1s-1.12,1.15-1.71,1.69c-.3.27-.6.54-.91.8l-.46.38c-.6.54,1-.69.3-.22a28.28,28.28,0,0,1-4.24,2.59l-.72.33s1.18-.45.55-.24c-.38.12-.75.27-1.13.39a18.41,18.41,0,0,1-2.43.62l-.56.1c-.68.14.72-.09.69-.09a10.77,10.77,0,0,0-1.13.1,22.61,22.61,0,0,1-2.47,0,4.65,4.65,0,0,0-1.32-.11s1.36.22.69.1l-.56-.09c-.82-.15-1.63-.33-2.43-.55s-1.47-.45-2.19-.72c-.22-.08-1.43-.56-.52-.19s-.44-.22-.67-.34a33.73,33.73,0,0,1-4.32-2.61c-.93-.65.87.73,0,0l-.89-.75c-.63-.55-1.24-1.12-1.82-1.73s-1-1.11-1.52-1.69l-.33-.41c-.43-.5.46.61.42.56-.22-.34-.48-.65-.71-1a32,32,0,0,1-2.23-3.73c-.31-.61-.57-1.26-.89-1.88,0,.07.58,1.44.22.5l-.19-.48c-.14-.38-.28-.77-.41-1.15a34.31,34.31,0,0,1-1.14-4.2c-.07-.34-.13-.69-.19-1s-.22-1.48-.08-.39,0-.14,0-.39c0-.46-.09-.92-.12-1.39a34.75,34.75,0,0,1,0-4.33c0-.69.14-1.38.19-2.07,0-.09-.22,1.45-.1.78,0-.17,0-.34.08-.51.07-.46.16-.91.25-1.36a32.91,32.91,0,0,1,1.17-4.13c.12-.33.25-.64.37-1,.22-.62-.33.74-.29.68l.21-.47c.3-.68.64-1.34,1-2s.75-1.29,1.16-1.91c.19-.29.39-.57.59-.85.78-1.09-.65.76,0,0a27.48,27.48,0,0,1,2.83-3l.86-.74c.79-.69-1.08.78-.22.16.57-.4,1.14-.81,1.73-1.18a32.32,32.32,0,0,1,3.58-1.91c1-.46-1.27.48-.27.11l1.06-.4c.67-.23,1.34-.44,2-.63s1.26-.33,1.9-.46l1-.19c.28,0,1.61-.24.47-.09s.06,0,.32,0l1-.08c.76-.05,1.52-.08,2.28-.07s1.29,0,1.94.07l1,.08.48.05c.87.08-.54-.1-.67-.09a13.78,13.78,0,0,1,4.08.91c.61.18,1.22.39,1.82.62l.45.17c.61.22-.81-.35-.73-.31.31.19.68.31,1,.47A30.57,30.57,0,0,1,211,10.47c.13.09.25.21.38.29s-1.08-.9-.6-.47c.23.22.49.41.74.62.53.47,1,.95,1.52,1.46a6.21,6.21,0,0,0,8.69,0,6.27,6.27,0,0,0,0-8.69Z" transform="translate(6.12 6.13)" fill="#010101"/><path d="M44.81,23.72C35.28,18.82,24.3,20,15.19,25.33a42,42,0,0,0-19,24.5C-7.37,62-6.24,74.83-4.3,87.16c2,12.53,4.49,25,6.77,37.46C6.08,144.29,9.66,164.05,16.08,183c6.27,18.54,15.25,36.64,29.29,50.56a89.37,89.37,0,0,0,26.51,18.08,153.74,153.74,0,0,0,34.75,10.47c23.64,4.34,48.89,4.15,71.39-5.14a110,110,0,0,0,27.13-16.15,126.55,126.55,0,0,0,21.26-22.25c13.07-17.14,21.79-37.29,27.08-58.11,6.08-23.89,7.91-48.71,8.31-73.3.2-12,.77-24.53-2-36.35-2.62-11.14-9.32-21.9-20-26.93a28.21,28.21,0,0,0-17.29-2.47c-3.17.54-5.24,4.61-4.29,7.55,1.11,3.43,4.15,4.88,7.56,4.29,1.3-.22-1.22.11-.34,0l.93-.08q.74,0,1.47,0a11.38,11.38,0,0,0,1.83.11,5.49,5.49,0,1,0-.55-.07l1.08.21a26.71,26.71,0,0,1,3.16,1c1,.35-.36-.13-.44-.2a4,4,0,0,0,.84.39c.62.3,1.22.62,1.81,1,1,.57,1.88,1.24,2.82,1.88-1.49-1,0,.06.38.37q.8.69,1.53,1.44c.36.36.71.73,1.06,1.11.16.18,1,1.44,1.24,1.46-.07,0-.91-1.22-.26-.33.15.2.3.41.44.62.41.57.79,1.15,1.15,1.75a32.92,32.92,0,0,1,1.66,3.1,7.71,7.71,0,0,1,.45,1c-.05-.16-.5-1.28-.11-.24.27.7.53,1.39.76,2.09a52.69,52.69,0,0,1,2,8.2c0,.3.09.59.13.89.24,1.47-.11-1,0-.08.07.67.16,1.34.22,2,.15,1.49.26,3,.34,4.49.15,2.85.19,5.71.2,8.57,0,11.7-.19,23.41-.9,35.08-.36,5.85-.85,11.69-1.51,17.51-.16,1.4-.33,2.79-.5,4.18,0,.39-.1.77-.16,1.16,0-.19.2-1.39,0-.24l-.33,2.31q-.65,4.38-1.44,8.75a198.21,198.21,0,0,1-9.09,33.61q-.6,1.62-1.23,3.21l-.72,1.77-.3.71c.68-1.68.16-.38,0-.06q-1.44,3.36-3,6.63-3.16,6.48-6.95,12.63c-1.24,2-2.53,4-3.87,5.95-.66,1-1.32,1.89-2,2.82l-1.13,1.54c-.29.38-1.58,2-.44.58A139.12,139.12,0,0,1,206.55,223a112.71,112.71,0,0,1-10.38,9.4l-.74.59c-.68.54,1.24-.94.2-.15l-1.21.91c-1,.75-2,1.48-3.07,2.19-2,1.35-4,2.64-6,3.85s-4.18,2.35-6.32,3.41c-1,.5-2.05,1-3.09,1.45l-1.39.61c-1.2.53,1.05-.43.24-.1l-1.06.43a98.42,98.42,0,0,1-16,4.83c-1.32.28-2.65.53-4,.76-.74.13-1.48.25-2.23.36l-.89.13c-1.55.23,1.4-.16-.16,0-2.84.35-5.69.61-8.56.76a132.8,132.8,0,0,1-16.81-.2c-2.87-.21-5.79-.42-8.63-.89,1.53.25.44.06.05,0l-1.13-.16-1.8-.28c-1.51-.25-3-.51-4.5-.79q-8.35-1.57-16.53-4-4-1.17-7.93-2.56c-1.27-.45-2.53-.93-3.79-1.43l-1-.41c-.4-.17-1.17-.7,0,0a21,21,0,0,0-2.06-.9,85.62,85.62,0,0,1-14.38-8.14c-.89-.62-1.74-1.33-2.64-1.94.09.06,1.18.93.39.29-.19-.15-.38-.29-.57-.45-.51-.41-1-.83-1.52-1.26-1.69-1.42-3.32-2.92-4.89-4.47s-3.14-3.24-4.62-4.95c-.69-.81-1.38-1.63-2-2.46-.26-.32-1.51-2.05-.36-.43-.34-.48-.72-.95-1.07-1.42a120,120,0,0,1-13.34-23.52c-.17-.38-.94-2.43-.25-.56-.17-.46-.38-.9-.56-1.36-.47-1.14-.92-2.29-1.36-3.44q-1.26-3.3-2.4-6.64c-1.49-4.39-2.83-8.82-4.05-13.29-2.51-9.14-4.54-18.41-6.36-27.72-2.19-11.14-4.15-22.32-6.2-33.49-1.1-6-2.23-11.92-3.26-17.89C8,86.38,7.72,85,7.51,83.67c-.11-.68-.21-1.36-.31-2,0-.31-.08-.61-.13-.91-.2-1.42.14,1.12,0-.19-.35-2.87-.65-5.75-.8-8.64a79,79,0,0,1,0-8.57,29.75,29.75,0,0,1,.38-4c0,.16-.21,1.43,0,.31l.15-.88c.13-.81.29-1.61.47-2.41.29-1.31.63-2.6,1-3.88.2-.65.41-1.28.64-1.92.13-.35.26-.7.4-1.06.51-1.3-.3.65-.07.15a35.62,35.62,0,0,1,3.16-5.57c.16-.24.33-.47.51-.71.32-.43.85-.72-.22.27a10.43,10.43,0,0,0,.89-1.08c.76-.88,1.57-1.73,2.41-2.54s1.56-1.41,2.37-2.08-.35.28-.42.32c.24-.14.47-.35.7-.51.51-.37,1-.73,1.57-1.07.87-.56,1.76-1.07,2.68-1.54.4-.21.81-.41,1.22-.6.17-.08,1.23-.54.2-.1s.14-.05.36-.13a28.72,28.72,0,0,1,2.86-.9c.48-.13,1-.24,1.45-.34l.81-.14c1.34-.26-1,.07-.34,0,1-.05,1.94-.16,2.92-.14.49,0,1,0,1.46.07.2,0,.44.06.65.07-1.68,0-1.06-.17-.51-.06a25.34,25.34,0,0,1,2.86.69c.47.15.93.39,1.41.51-1.41-.37-1-.43-.55-.21s.62.29.92.45c2.86,1.47,6.8.84,8.41-2.21,1.48-2.81.84-6.83-2.21-8.4Z" transform="translate(6.12 6.13)" fill="#010101"/><path d="M40.88,167.41c4.8,14,11.53,27.67,22,38.38a68.61,68.61,0,0,0,18.93,13.7,110,110,0,0,0,24.25,8.25c16.71,3.76,34.38,4.66,51.07.32a84.39,84.39,0,0,0,38.17-22.4c10.42-10.46,18.27-23.12,24-36.7q1-2.36,1.87-4.74c1.13-3-1.25-6.87-4.29-7.56-3.48-.8-6.35,1.06-7.56,4.29-.57,1.54-1.2,3.05-1.8,4.57.66-1.67.12-.28-.05.1s-.3.7-.46,1c-.36.81-.73,1.62-1.11,2.42-1.44,3-3,6-4.71,8.9s-3.53,5.71-5.5,8.43q-.66.93-1.35,1.83c-.9,1.2.59-.74-.08.11l-.82,1q-1.59,2-3.29,3.89a95.7,95.7,0,0,1-6.88,6.93c-1.25,1.13-2.54,2.22-3.85,3.27-.18.15-1.19.93-.41.33l-.56.43c-.65.48-1.31,1-2,1.42a77.31,77.31,0,0,1-8.44,5.15q-2.23,1.19-4.55,2.2l-.52.22.6-.25-1,.42c-.94.37-1.88.72-2.84,1.06a77.36,77.36,0,0,1-11.42,3c-.95.18-1.9.33-2.86.47-.21,0-.46,0-.66.1,0,0,1.24-.15.53-.07-.52.06-1,.13-1.56.18-2,.22-4,.37-6,.46a105,105,0,0,1-11.9-.2c-1.94-.15-3.89-.34-5.83-.58l-.67-.09.51.07a11.27,11.27,0,0,0-1.56-.23c-1-.16-2.08-.33-3.12-.52a119.69,119.69,0,0,1-22.62-6.2L91,210.27l.44.18a2.8,2.8,0,0,0-.61-.26c-.95-.42-1.89-.85-2.82-1.31q-2.59-1.26-5.07-2.75T78.25,203c-.31-.23-.61-.48-.93-.69,0,0,1,.79.48.37l-.45-.36c-.7-.56-1.39-1.13-2.06-1.72a66.21,66.21,0,0,1-7-7.17c-.53-.63-1-1.27-1.55-1.91-.7-.87.7.95,0,0l-.79-1.07q-1.5-2.07-2.88-4.25a91.88,91.88,0,0,1-5-8.89Q57,175.11,56,172.79c-.57-1.31.34.85-.07-.15l-.45-1.09c-.34-.85-.68-1.7-1-2.56-.61-1.61-1.18-3.22-1.74-4.84-1-3-4.27-5.36-7.56-4.3-3,1-5.4,4.31-4.29,7.56Z" transform="translate(6.12 6.13)" fill="#010101"/><path d="M421.92,177.39c-9.74-13.37-30.31-15.93-44.68-7.73s-22.51,24.92-23.43,41.44c-1.1,19.82,11.65,42.82,31.5,42.78,17.08,0,29.58-16.93,33.65-33.52,4.73-19.26.74-42.25-15.26-54" transform="translate(6.12 6.13)" fill="#fff"/><path d="M427.22,174.29a37.49,37.49,0,0,0-24.93-14.87,43.74,43.74,0,0,0-29.11,5.51,51.48,51.48,0,0,0-20.12,23.6c-4.05,9.4-6.32,19.89-5.17,30.14,1.07,9.47,4.21,18.82,10,26.47a40.58,40.58,0,0,0,10.78,10.12,32.68,32.68,0,0,0,13.74,4.61c10.2,1.15,20.17-3.55,27.34-10.55,7.32-7.15,12.39-16.79,14.94-26.64,4.94-19.06,2.18-41.89-12-56.53a48,48,0,0,0-5.95-5.07,6.16,6.16,0,0,0-4.73-.62,6.24,6.24,0,0,0-3.67,2.83c-1.7,3.21-.57,6.35,2.2,8.4l.22.16c-.88-.64.06.06.2.17.35.3.71.6,1.05.91.82.73,1.6,1.49,2.35,2.29s1.36,1.54,2,2.33c.49.6-.78-1.05-.33-.43l.51.69c.33.46.66.93,1,1.41a42.57,42.57,0,0,1,3,5.4c.2.42.89,2.34.22.43.15.44.35.86.52,1.29.39,1,.75,2.08,1.07,3.14a54.57,54.57,0,0,1,1.54,6.33c.08.46.16.93.23,1.4,0,.19.18,1.38,0,.24s0,.05,0,.24c.12,1.06.22,2.13.29,3.2.14,2.2.16,4.42.08,6.62-.05,1.08-.12,2.15-.21,3.22-.05.53-.11,1.07-.17,1.6,0,.24-.05.47-.08.71-.16,1.32.23-1.53,0-.22a61.64,61.64,0,0,1-3.31,12.75c-.17.45-.36.89-.54,1.34.7-1.79,0,0-.18.37-.48,1.05-1,2.08-1.54,3.1a51.69,51.69,0,0,1-3.44,5.54c-.29.41-1.64,1.84-.33.49-.33.33-.59.74-.9,1.11-.75.9-1.54,1.78-2.37,2.61s-1.42,1.39-2.17,2c-.39.34-.82.65-1.19,1,0-.06,1.22-.92.42-.33l-.83.6a50.35,50.35,0,0,1-5.31,3c1.76-.94.07-.06-.42.11s-.85.29-1.28.41c-1.08.32-2.26.39-3.32.73.07,0,1.63-.17.62-.08l-.69.07c-.52,0-1.05.07-1.57.08a26.6,26.6,0,0,1-3.09-.12l-.63-.07c1.86.13,1,.16.55.06s-.92-.17-1.37-.28a24.31,24.31,0,0,1-2.8-.82c-.48-.17-1.94-.93-.1,0-.36-.18-.74-.33-1.1-.51a25.61,25.61,0,0,1-2.66-1.5c-.35-.22-.69-.45-1-.68s-1.55-1.14-.61-.44-.36-.31-.58-.5c-.39-.34-.78-.69-1.16-1.05-.68-.65-1.34-1.34-2-2-.28-.32-.56-.64-.83-1s-.33-.42-.51-.62c-.41-.47,1,1.3.18.23a44.25,44.25,0,0,1-3.24-5.09c-.45-.82-.87-1.66-1.27-2.51-.21-.45-.4-.91-.61-1.37.84,1.86.05.08-.13-.39a50.85,50.85,0,0,1-1.84-5.93c-.22-.92-.42-1.85-.59-2.79-.1-.55-.18-1.1-.27-1.65s-.05-1.12.08.64c0-.33-.08-.66-.11-1a45.33,45.33,0,0,1-.25-5.94c0-1.06.1-2.11.19-3.17,0-.5.09-1,.15-1.49,0-.17.18-1.42,0-.3s.05-.26.08-.48a58.29,58.29,0,0,1,1.49-6.79c.29-1,.61-2,1-3q.27-.81.57-1.59l.27-.7c.1-.24.19-.47.28-.7l-.33.78a67.27,67.27,0,0,1,3.12-6.17c.53-.91,1.1-1.8,1.69-2.67.35-.51.7-1,1.07-1.51.15-.2.31-.39.44-.59l-.5.66c.15-.2.3-.39.46-.58a42.33,42.33,0,0,1,4.55-4.82c.41-.37.83-.74,1.25-1.09s1.87-1.35.34-.31c1-.66,1.9-1.37,2.9-2,.85-.53,1.72-1,2.61-1.5.5-.26,1-.5,1.51-.74.2-.09.41-.17.61-.27-1.69.81-.62.26-.22.11a35.74,35.74,0,0,1,5.8-1.72c.5-.1,1-.2,1.5-.28.27-.05.56-.07.83-.13-.06,0-1.64.2-.63.09s2.12-.21,3.19-.24,1.91,0,2.87,0c.56,0,1.11.05,1.67.1s2.43.38.37,0a47,47,0,0,1,5.85,1.31c.95.29,1.86.69,2.8,1-1.86-.64-.29-.11.18.12s1,.49,1.47.75c.81.44,1.61.92,2.38,1.44.44.3.87.68,1.33.95,0,0-1.21-1-.46-.36l.75.63a25.89,25.89,0,0,1,2.13,2.06c.31.32.6.65.88,1l.43.51c.8.95-.89-1.19-.15-.18a6.71,6.71,0,0,0,3.67,2.82,6.33,6.33,0,0,0,4.74-.62c2.55-1.65,4.24-5.64,2.2-8.41Z" transform="translate(6.12 6.13)" fill="#010101"/><path d="M500,167.68c-8.6-3.86-17.66-7.62-27.28-7.4-7.93.19-16.27,3.42-21.44,9.63a21.67,21.67,0,0,0-5.15,10.67,22.24,22.24,0,0,0,1.68,12.34c2.71,6.21,8.61,10.8,14.49,13.82a65.59,65.59,0,0,0,10.21,4.15c3,.93,6,1.57,9,2.36a85.16,85.16,0,0,1,9.1,2.9c.2.08,1.54.64.51.2s.27.12.5.22c.76.34,1.5.7,2.24,1.09a32.84,32.84,0,0,1,3.85,2.33c.41.29,1.25,1.13-.11-.12.22.21.48.39.71.59A20.88,20.88,0,0,1,500,222c.25.26.48.52.71.79.1.11.19.24.29.35.43.45-.53-.73-.49-.65.37.65.86,1.23,1.24,1.89.17.31.34.62.49.94l.2.42c.34.66-.5-1.33-.27-.62s.49,1.39.66,2.1c.1.38.12.84.25,1.2,0-.09-.15-1.58-.07-.55,0,.18,0,.36,0,.54.05.9-.11,1.81-.07,2.69,0,.06.24-1.4.11-.74,0,.17-.06.35-.1.53-.08.41-.17.81-.28,1.22s-.23.8-.36,1.2c-.06.17-.12.34-.19.51-.34.92-.11.11.14-.29-.41.66-.69,1.43-1.09,2.11s-1,1.53-1.55,2.3c0,0,.83-1,.39-.51l-.49.57c-.29.33-.58.66-.89,1-.61.63-1.25,1.24-1.92,1.81a5.38,5.38,0,0,0-.59.48s1-.77.5-.39c-.36.26-.71.52-1.08.77-.73.48-1.48.94-2.25,1.35-.39.21-.78.4-1.17.59-.16.07-.35.14-.51.23,1.13-.69.72-.29.3-.13-1,.39-2.09.76-3.16,1.07s-1.87.5-2.81.69q-.76.17-1.53.3l-.66.1c-1.18.21.88-.09.09,0a84.29,84.29,0,0,1-12.61.38q-3.12-.1-6.24-.31c-.35,0-.71,0-1.06-.09a3.11,3.11,0,0,1-.62-.06c-.12,0,1.53.24.86.11s-1.58-.27-2.36-.46-1.34-.35-2-.57c-.35-.12-.68-.29-1-.38-.08,0,1.3.62.76.32-.22-.12-.46-.22-.69-.33s-.52-.28-.77-.43-1.24-.88-.33-.16,0-.05-.22-.23l-.28-.29c-.82-.78.46.46.37.53s-.46-.76-.47-.77c-.3-.39.42.83.35.88l-.16-.5a2.34,2.34,0,0,0-.09-.38c-.24-.49.26,1,.12,1a7.31,7.31,0,0,1,0-1.14c.25-3.21-3-6.28-6.14-6.14a6.3,6.3,0,0,0-6.15,6.14c-.64,8.48,7.77,13.38,15,14.67a84.16,84.16,0,0,0,12.7,1,78.84,78.84,0,0,0,14-.83c8.29-1.27,16.49-5,21.9-11.61s8.43-15.43,5.45-23.83c-5-14-20.47-18.83-33.58-22a66.83,66.83,0,0,1-9.18-2.86l-.64-.26c-.62-.24.74.32.68.29-.35-.19-.74-.33-1.1-.49-.78-.36-1.54-.74-2.3-1.13a37.06,37.06,0,0,1-4-2.43c-.32-.21-.62-.45-.93-.67-.62-.43,1,.86.48.37l-.38-.3c-.6-.51-1.19-1-1.75-1.6s-.95-1.07-1.44-1.6.54.72.49.65a5.6,5.6,0,0,0-.36-.49c-.22-.32-.44-.66-.65-1-.34-.55-.61-1.13-.91-1.7s.49,1.35.28.64c0-.14-.11-.27-.16-.41-.13-.38-.25-.76-.35-1.14s-.16-.68-.23-1c-.31-1.35.08,1.29,0,.28a21.18,21.18,0,0,1,0-2.39c.09-1.37-.25,1.14,0,.09.08-.4.16-.78.26-1.17s.21-.76.34-1.13c.06-.16.13-.32.18-.48.23-.66-.7,1.44-.15.38.35-.65.69-1.29,1.1-1.9.12-.19.26-.37.39-.56.34-.54-.48.58-.45.56a10,10,0,0,0,.9-1,18.71,18.71,0,0,1,1.77-1.68l.4-.33c.6-.5-1,.75-.4.32.39-.26.77-.54,1.17-.79.65-.41,1.33-.79,2-1.14.19-.09,1.55-.69.56-.29s.5-.18.76-.27q1.19-.41,2.4-.69c.4-.1.8-.18,1.21-.25l.52-.09c.77-.13-1.5.14-.41.07a39.33,39.33,0,0,1,6.42.08c1.23.12-.2,0-.27,0a2.42,2.42,0,0,0,.68.11c.53.08,1.06.18,1.58.29,1.13.24,2.25.52,3.37.84,2.16.61,4.29,1.37,6.39,2.19l1.31.52.86.36s-1-.44-.39-.16c1.06.47,2.13.93,3.19,1.41a6.68,6.68,0,0,0,4.74.62,6.27,6.27,0,0,0,3.67-2.83c1.42-2.68.93-7-2.2-8.4Z" transform="translate(6.12 6.13)" fill="#010101"/><path d="M521.66,168.2l7.57,33L533,217.62c1.16,5.06,2.1,10.24,3.68,15.19s4,9.77,8.11,13.12a26.89,26.89,0,0,0,12.32,5.79,47.23,47.23,0,0,0,13.11.48A86.8,86.8,0,0,0,583.54,250c3.13-.82,6.31-2.52,8-5.39,2.3-4,1.15-9.35-3.24-11.2a8.55,8.55,0,0,0-9.09,1.91,6.75,6.75,0,0,0-1.89,6.57,7.33,7.33,0,0,0,4.92,4.83c3,1.14,6.86-1.26,7.55-4.29.8-3.49-1.06-6.34-4.29-7.56,2.74,1,6.53,3.16,3.13,8.16.14-.2-1.11,1.35-.73,1,.1-.11-1.53,1-.61.53.21-.1-1.59.63-1,.45.29-.09.81-.15-.36,0s-.71.07-.46.08a4.64,4.64,0,0,1-3.4-1.62,4.22,4.22,0,0,1-1.53-3.72c0-.24.73-1.81.41-1.34s.62-.75.54-.66c-.43.46-.34,0,.55-.35a4.53,4.53,0,0,0-.4.26l-.43.24c-.95.61,1-.33.39-.14a70.23,70.23,0,0,1-9.87,2c-1.09.17,1.52-.18,0,0l-1.27.14c-.84.08-1.68.15-2.53.2a44.75,44.75,0,0,1-5.18,0c-.75,0-1.5-.14-2.25-.2,1.95.17.59.07.11,0s-.89-.17-1.33-.27A22.27,22.27,0,0,1,557,239l-1.09-.39c-.19-.07-.77-.31.13.06s.06,0-.17-.1a19.47,19.47,0,0,1-2-1.12c-.28-.18-.55-.38-.82-.56-.8-.55.41.3.46.35-.15-.16-.35-.29-.51-.43-.6-.53-1.12-1.12-1.67-1.69-.13-.14-.46-.63,0,0s0,0-.14-.21a15.33,15.33,0,0,1-.88-1.38c-.45-.76-.74-1.64-1.21-2.38.82,1.3.11.23-.07-.26s-.36-1-.53-1.58c-.61-1.92-1.07-3.89-1.53-5.86q-3.18-13.77-6.32-27.54l-7.12-31a6.19,6.19,0,0,0-7.55-4.29,6.29,6.29,0,0,0-4.3,7.56Z" transform="translate(6.12 6.13)" fill="#010101"/><path d="M533.4,212.93c1.58-.79,3.17-1.54,4.78-2.27a9.34,9.34,0,0,1,2.32-1l-.62.26.85-.35,1.06-.43q4.82-1.92,9.76-3.45a131.25,131.25,0,0,1,20.17-4.52,6.13,6.13,0,0,0,3.68-2.82,6.15,6.15,0,0,0-2.21-8.41,7.27,7.27,0,0,0-4.73-.62,136.16,136.16,0,0,0-41.26,13c-2.89,1.43-3.92,5.74-2.21,8.4a6.3,6.3,0,0,0,8.41,2.21Z" transform="translate(6.12 6.13)" fill="#010101"/><path d="M523.62,172.81q27.36-2.58,54.6-6.3c5-.69,10.11-1.4,15.15-2.15a6,6,0,0,0,3.67-2.82,6.15,6.15,0,0,0-2.2-8.41,7.14,7.14,0,0,0-4.73-.61q-6.6,1-13.2,1.87l-1.47.2-1.14.16-.89.12-2,.25-6.61.86q-13.11,1.65-26.24,3-7.49.79-15,1.5a6.63,6.63,0,0,0-4.34,1.8,6.24,6.24,0,0,0-1.8,4.35c.13,3.07,2.71,6.47,6.14,6.14Z" transform="translate(6.12 6.13)" fill="#010101"/><path d="M521.92,51.74l7.57,32.95,3.78,16.47c1.16,5.06,2.1,10.24,3.69,15.19s4,9.77,8.1,13.12a26.84,26.84,0,0,0,12.32,5.79,47.23,47.23,0,0,0,13.11.49,86.82,86.82,0,0,0,13.31-2.23c3.13-.81,6.31-2.51,8-5.39,2.3-4,1.15-9.34-3.24-11.2a8.55,8.55,0,0,0-9.09,1.91,6.77,6.77,0,0,0-1.89,6.57,7.33,7.33,0,0,0,4.92,4.83c3,1.14,6.86-1.25,7.55-4.29.8-3.49-1.06-6.34-4.29-7.56,2.74,1,6.53,3.16,3.13,8.17.14-.2-1.11,1.34-.73,1,.1-.11-1.53,1-.61.53.21-.1-1.58.63-1,.45.29-.09.81-.14-.36,0s-.71.07-.46.08a4.64,4.64,0,0,1-3.4-1.62,4.23,4.23,0,0,1-1.53-3.71c0-.25.73-1.82.42-1.34s.61-.75.53-.66c-.43.45-.34,0,.55-.36a4.53,4.53,0,0,0-.4.26,4.77,4.77,0,0,0-.43.25c-.95.6,1-.34.39-.15a70.26,70.26,0,0,1-9.87,2c-1.09.16,1.53-.19,0,0l-1.27.14c-.85.09-1.69.15-2.54.2a42.47,42.47,0,0,1-5.17,0c-.76,0-1.51-.13-2.26-.2,1.95.17.59.08.11,0s-.89-.17-1.33-.27c-.76-.17-1.52-.38-2.26-.62-.36-.12-.72-.26-1.09-.4-.19-.07-.77-.31.13.06s.06,0-.16-.09a18.68,18.68,0,0,1-2-1.13c-.28-.18-.55-.37-.82-.56-.8-.55.41.3.46.35a5.27,5.27,0,0,0-.51-.43c-.6-.53-1.12-1.11-1.67-1.69-.13-.13-.46-.62,0,0l-.14-.2c-.31-.45-.61-.91-.88-1.39-.45-.76-.74-1.64-1.21-2.38.82,1.3.11.23-.06-.26s-.37-1-.54-1.58c-.6-1.92-1.07-3.89-1.53-5.86Q544,93.26,540.89,79.49l-7.12-31a6.19,6.19,0,0,0-7.55-4.3,6.29,6.29,0,0,0-4.3,7.56Z" transform="translate(6.12 6.13)" fill="#010101"/><path d="M533.66,96.47c1.58-.78,3.17-1.54,4.78-2.26a9,9,0,0,1,2.32-1l-.62.26.85-.35,1.06-.43q4.82-1.9,9.76-3.44A131.25,131.25,0,0,1,572,84.71a6.18,6.18,0,0,0,3.68-2.83,6.13,6.13,0,0,0-2.21-8.4,7.15,7.15,0,0,0-4.73-.62,136.42,136.42,0,0,0-41.26,13c-2.89,1.43-3.92,5.75-2.21,8.41a6.31,6.31,0,0,0,8.41,2.2Z" transform="translate(6.12 6.13)" fill="#010101"/><path d="M523.88,56.35q27.36-2.58,54.6-6.3,7.59-1,15.15-2.14a6.15,6.15,0,0,0,3.68-2.83,6.15,6.15,0,0,0-2.21-8.4,7.09,7.09,0,0,0-4.73-.62q-6.6,1-13.2,1.87l-1.47.2-1.14.16-.89.12-2,.26-6.61.85q-13.11,1.65-26.24,3-7.49.78-15,1.5a6.58,6.58,0,0,0-4.34,1.8,6.2,6.2,0,0,0-1.8,4.34c.13,3.07,2.71,6.47,6.14,6.14Z" transform="translate(6.12 6.13)" fill="#010101"/><path d="M429.55,64.06a37.44,37.44,0,0,0-24.93-14.88,43.85,43.85,0,0,0-29.11,5.51A51.5,51.5,0,0,0,355.39,78.3c-4,9.39-6.31,19.88-5.16,30.13,1.06,9.47,4.2,18.83,10,26.47A40.5,40.5,0,0,0,371,145a32.48,32.48,0,0,0,13.74,4.6c10.19,1.15,20.16-3.55,27.33-10.55S424.49,122.3,427,112.45c4.95-19.07,2.18-41.89-12-56.53a47.15,47.15,0,0,0-5.95-5.07,6.18,6.18,0,0,0-4.74-.62,6.25,6.25,0,0,0-3.67,2.82c-1.7,3.21-.56,6.36,2.2,8.41.14.1,1.1.79.22.15s.06.06.2.18c.36.29.71.59,1.06.9.81.73,1.59,1.5,2.34,2.29s1.37,1.54,2,2.34c.49.59-.79-1-.34-.43.17.23.35.45.51.69.34.46.66.93,1,1.41a42.5,42.5,0,0,1,3,5.4c.2.42.89,2.34.23.43.15.43.34.86.51,1.29.39,1,.75,2.08,1.08,3.13a55.54,55.54,0,0,1,1.53,6.33c.08.47.16.94.23,1.4,0,.19.19,1.38.05.24s0,.06,0,.25c.13,1.06.22,2.13.29,3.19a63.76,63.76,0,0,1,.08,6.63q-.06,1.6-.21,3.21c-.05.54-.1,1.07-.16,1.6l-.09.71c-.16,1.32.23-1.53,0-.22a61,61,0,0,1-3.32,12.75c-.17.45-.36.9-.54,1.35.7-1.8,0-.05-.18.37-.48,1-1,2.08-1.54,3.09a50.27,50.27,0,0,1-3.44,5.55c-.28.4-1.64,1.83-.32.48-.33.34-.6.75-.9,1.11-.76.91-1.55,1.78-2.38,2.62s-1.42,1.38-2.16,2c-.39.34-.82.64-1.2,1,.06,0,1.23-.92.42-.33-.27.2-.55.41-.83.6a47.71,47.71,0,0,1-5.31,3c1.76-.93.08,0-.41.12s-.86.28-1.29.41c-1.08.31-2.25.39-3.31.73.07,0,1.63-.17.61-.08l-.69.06c-.52.05-1,.07-1.57.08a24.55,24.55,0,0,1-3.09-.11c-.21,0-.42-.06-.62-.07,1.85.13,1,.15.54.05l-1.37-.27a24.91,24.91,0,0,1-2.8-.82c-.48-.18-1.94-.94-.09,0-.36-.19-.74-.34-1.11-.51a30.21,30.21,0,0,1-2.66-1.5q-.53-.33-1-.69c-.24-.16-1.56-1.13-.62-.44s-.36-.31-.58-.5c-.39-.34-.78-.69-1.15-1q-1-1-2-2c-.28-.31-.56-.63-.83-1s-.33-.42-.5-.62c-.42-.47,1,1.3.17.23a48.14,48.14,0,0,1-3.24-5.09c-.44-.82-.87-1.66-1.26-2.51-.21-.46-.41-.92-.61-1.37.83,1.85,0,.08-.14-.39a51.4,51.4,0,0,1-1.83-5.93c-.23-.93-.42-1.86-.6-2.79-.1-.55-.18-1.1-.27-1.65s-.05-1.13.09.64c0-.34-.09-.67-.12-1a45.25,45.25,0,0,1-.24-5.94c0-1,.09-2.11.18-3.16l.15-1.49c0-.17.19-1.43,0-.3s0-.26.08-.49a58.29,58.29,0,0,1,1.49-6.79c.29-1,.61-2,1-3.05.18-.53.38-1.06.58-1.59.08-.23.17-.46.27-.7s.18-.46.28-.69l-.33.77A68.48,68.48,0,0,1,369,78.5c.54-.9,1.1-1.79,1.69-2.66.35-.51.71-1,1.07-1.52.15-.19.31-.39.45-.59l-.51.66c.15-.19.31-.38.46-.58A45.14,45.14,0,0,1,376.76,69c.4-.37.82-.73,1.24-1.09s1.87-1.35.35-.3c1-.67,1.89-1.38,2.89-2,.85-.54,1.72-1,2.62-1.51.49-.25,1-.5,1.5-.73l.62-.28c-1.7.81-.62.27-.23.11a37.64,37.64,0,0,1,5.81-1.72l1.49-.28a7.94,7.94,0,0,0,.83-.13c-.05,0-1.64.2-.63.09s2.13-.2,3.2-.24,1.91,0,2.86,0c.56,0,1.12.06,1.68.11s2.43.38.36,0a48.49,48.49,0,0,1,5.85,1.31c.95.3,1.86.69,2.8,1-1.86-.64-.29-.11.19.12s1,.48,1.46.74c.81.45,1.61.93,2.38,1.45.45.29.88.68,1.34.94-.06,0-1.21-1-.47-.35.25.21.51.41.75.63a27.59,27.59,0,0,1,2.14,2c.3.32.59.65.88,1l.42.51c.81,1-.89-1.19-.15-.18a6.69,6.69,0,0,0,3.68,2.82,6.25,6.25,0,0,0,4.73-.61c2.55-1.65,4.24-5.65,2.2-8.41Z" transform="translate(6.12 6.13)" fill="#010101"/><path d="M456.26,132.84a318.82,318.82,0,0,1,.85-55.44q.39-3.78.87-7.56c0-.33.08-.65.13-1,0-.15.16-1.23.05-.4s0-.19,0-.4.09-.65.14-1c.2-1.38.4-2.76.61-4.13l-11.23,1.46a672.33,672.33,0,0,0,38.44,56.34q6.16,8.11,12.56,16.07c1.52,1.89,4.67,2.13,6.71,1.27a6.11,6.11,0,0,0,3.78-5.61q-1.37-31.88-4.47-63.62-.87-9-1.9-18a6.72,6.72,0,0,0-1.8-4.35,6.31,6.31,0,0,0-4.35-1.8c-3,.14-6.53,2.73-6.14,6.15q3.6,31.68,5.46,63.54.53,9,.91,18.1l10.49-4.35q-2.66-3.3-5.27-6.63c-.87-1.11-1.75-2.22-2.61-3.34.12.16.79,1,.1.13l-.57-.75c-.48-.62-1-1.24-1.43-1.87q-5.14-6.74-10.11-13.59-9.86-13.64-19-27.74-5.19-8-10.16-16.13a6.16,6.16,0,0,0-6.12-2.93c-2.18.29-4.74,2-5.11,4.4a328,328,0,0,0-3.89,57.2q.18,8,.75,16c.23,3.2,2.66,6.3,6.14,6.15,3.14-.14,6.39-2.71,6.15-6.15Z" transform="translate(6.12 6.13)" fill="#010101"/><path d="M116.41,260.79c3.18,22.27,14.84,42.82,30.61,58.64,17,17.08,38.89,28.57,62.28,34.19,25.86,6.21,52.93,5.66,79,.73,13.18-2.49,26.19-6.16,38.22-12.2a110.68,110.68,0,0,0,27.07-19.36,114.66,114.66,0,0,0,32.36-57.45c.57-2.61,1-5.24,1.38-7.89a6.84,6.84,0,0,0-.62-4.74,6.28,6.28,0,0,0-3.67-2.82c-2.89-.66-7.1.89-7.56,4.29a101.56,101.56,0,0,1-3.38,15.64c-.73,2.44-1.55,4.84-2.45,7.22-.23.59-.46,1.18-.7,1.77-.14.36-.28.71-.43,1.06s-.54.81.18-.41c-.69,1.18-1.14,2.58-1.72,3.82a110.33,110.33,0,0,1-7.69,13.61q-1,1.59-2.16,3.15c-.37.52-.75,1-1.13,1.54-.22.31-.45.62-.68.92s-1.13,1.09,0,0a34.48,34.48,0,0,0-2.39,3c-.9,1.08-1.82,2.13-2.76,3.17a107.73,107.73,0,0,1-11.26,10.84l-1.47,1.21c-.35.28-2.08,1.58-.56.45-1.07.79-2.13,1.6-3.22,2.38q-3.18,2.25-6.53,4.28t-7,3.86c-1.14.56-2.29,1.11-3.45,1.64a18.2,18.2,0,0,1-1.75.77c1.22-.39.42-.18.14-.06l-1.57.63a137.75,137.75,0,0,1-19.16,5.91c-6.21,1.48-12.49,2.65-18.8,3.56-.45.06-.91.14-1.36.19.18,0,1.41-.18.27,0l-2.27.28q-2.51.3-5,.54-4.68.43-9.38.65a181.88,181.88,0,0,1-19-.1c-3.11-.18-6.21-.44-9.31-.8-.75-.08-1.51-.17-2.26-.27-.44-.06-1.37-.36.06,0-.28-.07-.62-.09-.9-.13-1.65-.24-3.3-.5-4.94-.79a145.36,145.36,0,0,1-18.28-4.45q-4.44-1.38-8.78-3.08l-2.11-.85c-.06,0-1.44-.61-.52-.21s-.46-.2-.52-.23c-1.45-.63-2.88-1.28-4.3-2a117.89,117.89,0,0,1-13.76-7.8c-2.27-1.49-4.47-3.07-6.64-4.7-.41-.31-.4-.61.33.26a6.49,6.49,0,0,0-.92-.72l-1.5-1.22c-1-.81-2-1.65-3-2.5a116.85,116.85,0,0,1-11.42-11.49c-.83-1-1.65-2-2.46-3l-.48-.6c-.28-.36-.8-1.38,0,0A17.09,17.09,0,0,0,146,299.6q-2.4-3.24-4.55-6.64a105.91,105.91,0,0,1-7.29-13.82c-.55-1.26.55,1.33,0,.06-.09-.24-.19-.47-.28-.71-.24-.59-.47-1.18-.7-1.77-.49-1.31-.95-2.62-1.39-4q-1.25-3.81-2.15-7.71c-.58-2.5-1-5-1.4-7.54a6.16,6.16,0,0,0-2.83-3.67,6.26,6.26,0,0,0-4.73-.62,6.19,6.19,0,0,0-3.67,2.82,7.17,7.17,0,0,0-.62,4.74Z" transform="translate(6.12 6.13)" fill="#010101"/><path d="M268.45,170,273,228.67l1.12,14.42a22.65,22.65,0,0,0,1.69,8.18,11.63,11.63,0,0,0,6.71,5.69,26.44,26.44,0,0,0,6.55,1.31,30.06,30.06,0,0,0,5.45.11,38.63,38.63,0,0,0,11.72-2.61,45.11,45.11,0,0,0,19.68-15.3c5.22-7.11,7.8-15.85,8.66-24.54,1.61-16.53-4.18-34.54-15.7-46.59a41,41,0,0,0-20.94-12,36.78,36.78,0,0,0-24.89,3.17,32.94,32.94,0,0,0-5.36,3.73c-2.49,2.05-2.28,6.6,0,8.69,2.65,2.43,6,2.19,8.69,0,.83-.68-1.14.81.07-.06.3-.22.6-.43.91-.63a26.78,26.78,0,0,1,2.38-1.38l1-.47c1-.47-1.35.51.05,0,.8-.3,1.61-.57,2.44-.8s1.54-.39,2.33-.54c.36-.07.73-.11,1.09-.19-1.84.42-.32.05.2,0a32.36,32.36,0,0,1,5.21,0l1.11.1c1.1.1-1.48-.24,0,0,.86.14,1.72.31,2.57.51,1.65.41,3.19,1,4.8,1.56-.11,0-1.37-.61-.44-.17l.5.24,1,.49c.85.44,1.67.92,2.47,1.42s1.38.91,2.05,1.4c.15.11.3.24.46.34s-1-.81-.49-.38.79.64,1.17,1a40.22,40.22,0,0,1,3.68,3.59c.6.66,1.17,1.34,1.74,2,.71.88-.69-.94,0,0,.31.42.61.83.9,1.25a75.36,75.36,0,0,1,5,9.09c-.79-1.54-.12-.27.05.14l.48,1.26c.31.84.6,1.69.88,2.55q.82,2.63,1.41,5.31.28,1.32.51,2.64c.08.48.15,1,.22,1.44.11.69-.09-.61-.08-.61a4.22,4.22,0,0,1,.12,1,55.11,55.11,0,0,1,.31,5.59,51.79,51.79,0,0,1-.26,5.57c0,.27-.07.55-.09.82-.07.7.09-.63.09-.61-.08.4-.12.81-.19,1.22-.17,1-.37,2-.6,3a44.56,44.56,0,0,1-1.57,5.29c-.16.45-.35.89-.51,1.34-.24.64.22-.53.22-.53a5.62,5.62,0,0,0-.25.56c-.39.88-.81,1.73-1.26,2.58a47.41,47.41,0,0,1-2.91,4.59c-.38.55.42-.53.4-.5l-.35.43c-.27.34-.54.67-.83,1-.56.65-1.15,1.28-1.77,1.9s-1.15,1.12-1.75,1.65l-1,.84-.43.35c-.58.49,1.25-.92.21-.17a41.26,41.26,0,0,1-4.2,2.72c-.7.38-1.41.75-2.13,1.09-.22.11-1.6.7-.61.3s-.39.14-.63.23a33.71,33.71,0,0,1-4.91,1.45l-1.08.2c-.28.06-1.69.27-.62.11s-.2,0-.45,0c-.48,0-1,.07-1.45.09a40.33,40.33,0,0,1-4.91-.21c.1,0,1.58.26.55.06l-.54-.09c-.43-.08-.86-.17-1.28-.27l-1.11-.32c-.17-.05-.83-.29,0,0,1.16.44-.3-.19-.27-.21s1,.84.51.37.37.52.36.53-.42-.67-.37-.63.39,1.2.28.61c-.08-.37-.21-.73-.29-1.1s-.18-1.11,0-.13,0,.08,0-.13c-.4-4.49-.7-9-1.05-13.49l-4.24-54.42-.52-6.71c-.25-3.2-2.65-6.3-6.14-6.14-3.12.14-6.41,2.71-6.15,6.14Z" transform="translate(6.12 6.13)" fill="#010101"/><path d="M51.91,14.13A6.22,6.22,0,0,0,58.05,8,6.14,6.14,0,0,0,45.77,8a6.26,6.26,0,0,0,6.14,6.15Z" transform="translate(6.12 6.13)" fill="#010101"/><path d="M497.34,297.93c-5.7-3.09-11.82.07-15.18,5a31.81,31.81,0,0,0-5,16.43c-.19,5.84,2.37,11.86,8.27,13.81,5.4,1.79,10.15-2,12.44-6.59a55.63,55.63,0,0,0,3.18-8.71c1-3.38,1.84-6.81,2.52-10.28l-6.27-.85a93.35,93.35,0,0,0,5.27,25.6,3.27,3.27,0,0,0,3.92,2.23,3.23,3.23,0,0,0,2.23-3.92,87.1,87.1,0,0,1-5-23.91,3.2,3.2,0,0,0-2.77-3.13,3.15,3.15,0,0,0-3.49,2.28,108.53,108.53,0,0,1-3.85,14.41,18.91,18.91,0,0,1-2.06,4.6,3.73,3.73,0,0,1-.51.73,8,8,0,0,1-.81.84c-.4.36.31-.2-.12.11l-.42.26c-.46.28-.28.18-.11.11a4.59,4.59,0,0,1-.8.24c-.53.13.36,0-.2,0H488c-.77,0-.32-.05-.2,0a5.41,5.41,0,0,1-.69-.19,4.66,4.66,0,0,1-1.63-1.08,7.38,7.38,0,0,1-1.9-4.44A24.54,24.54,0,0,1,486,309a12.32,12.32,0,0,1,3.6-5,4.43,4.43,0,0,1,4.48-.62c3.61,2,6.83-3.54,3.22-5.5Z" transform="translate(6.12 6.13)" fill="#fff"/><path d="M517.24,277.12q-1,27.15-.4,54.34c.09,4.1,6.45,4.12,6.38,0l-.09-4.82c-.08-4.1-6.46-4.11-6.38,0l.09,4.82h6.38q-.62-27.16.4-54.34a3.19,3.19,0,0,0-6.38,0Z" transform="translate(6.12 6.13)" fill="#fff"/><path d="M542.52,277.11q-1,27.17-.41,54.35c.1,4.1,6.46,4.12,6.38,0l-.09-4.82c-.07-4.1-6.45-4.11-6.37,0l.08,4.82h6.38q-.6-27.16.41-54.35a3.19,3.19,0,1,0-6.38,0Z" transform="translate(6.12 6.13)" fill="#fff"/><path d="M535.55,304.8A92.18,92.18,0,0,1,557,302.89v-6.38l-2.26,0a3.19,3.19,0,1,0,0,6.37l2.26,0a3.19,3.19,0,1,0,0-6.38,100.21,100.21,0,0,0-23.17,2.14,3.19,3.19,0,1,0,1.7,6.15Z" transform="translate(6.12 6.13)" fill="#fff"/><path d="M414.67,277.11l-3.57,54.35h6.37a43.4,43.4,0,0,1,.44-13.36c.81-4.09,2-8.52,4.48-11.94a7.15,7.15,0,0,1,3.54-2.72,3.5,3.5,0,0,1,3.42.46c1,1,1.37,2.4,1.66,4.17.06.35.17,1.42.23,2.13l.33,3.95,1.45,17a3.27,3.27,0,0,0,3.18,3.19,3.21,3.21,0,0,0,3.19-3.19l-1.46-17.29c-.41-4.8-.28-10.52-3.83-14.26-3.86-4.08-10.23-3.27-14.27,0s-6,8.65-7.29,13.44a48.43,48.43,0,0,0-1.44,18.36,3.28,3.28,0,0,0,3.19,3.19,3.24,3.24,0,0,0,3.18-3.19l3.58-54.35a3.19,3.19,0,0,0-6.38,0Z" transform="translate(6.12 6.13)" fill="#fff"/><path d="M569.38,277.12l-3.57,54.34h6.37a43.4,43.4,0,0,1,.44-13.36c.81-4.09,2-8.52,4.48-11.94a7.15,7.15,0,0,1,3.54-2.72,3.5,3.5,0,0,1,3.42.46c1,1,1.37,2.4,1.66,4.17.06.35.17,1.42.23,2.13l.33,3.95,1.44,17a3.29,3.29,0,0,0,3.19,3.19,3.21,3.21,0,0,0,3.19-3.19l-1.46-17.29c-.41-4.8-.28-10.52-3.83-14.26-3.86-4.08-10.23-3.27-14.28,0s-5.95,8.65-7.28,13.44a48.43,48.43,0,0,0-1.44,18.36,3.28,3.28,0,0,0,3.18,3.19,3.25,3.25,0,0,0,3.19-3.19l3.58-54.34a3.19,3.19,0,1,0-6.38,0Z" transform="translate(6.12 6.13)" fill="#fff"/><path d="M451.9,319.7a31.34,31.34,0,0,0,9.33-5.53c2.67-2.31,5.51-5.33,5.79-9,.49-6.3-7.25-10-12.53-7.88-6.71,2.66-8.74,10.79-9.36,17.24-.65,6.93,1.55,14.4,7.73,18.24A12.14,12.14,0,0,0,463.2,334a11,11,0,0,0,7.31-7.76,3.26,3.26,0,0,0-2.23-3.92,3.22,3.22,0,0,0-3.92,2.23,7.06,7.06,0,0,1-.21.79c-.16.52.36-.53-.12.28-.1.17-.68,1-.42.68a7.67,7.67,0,0,1-.56.58c-.08.08-.62.49-.25.22a7.05,7.05,0,0,1-1.44.82c.4-.17-.12,0-.17,0-.26.08-.53.16-.8.22s-.82.12-.31.07l-.66,0a5.3,5.3,0,0,1-2.4-.51,9,9,0,0,1-4.07-3.92,13.87,13.87,0,0,1-1.56-6.61,27.48,27.48,0,0,1,1.07-7.64,15.88,15.88,0,0,1,.94-2.65,9.51,9.51,0,0,1,1.69-2.54,6.65,6.65,0,0,1,.83-.72,7.3,7.3,0,0,1,.77-.44c-.14.06-.54.14,0,0l.55-.15c.85-.23-.35,0,.17,0h.73c.65,0-.36-.16.31.05.19.06,1.17.37.62.13.22.1.42.23.63.33s.65.44.16.06c.19.14.81.85.43.34a3.48,3.48,0,0,1,.34.56c.11.21.08.16-.07-.15a1.64,1.64,0,0,1,.1.38l0,.13c-.06-.4-.08-.4-.06,0,.26-.45-.18.57-.19.6a8.59,8.59,0,0,1-.66,1,21.13,21.13,0,0,1-2.95,3,22.65,22.65,0,0,1-6.66,4,3.28,3.28,0,0,0-2.23,3.92c.42,1.54,2.31,2.86,3.92,2.23Z" transform="translate(6.12 6.13)" fill="#fff"/></svg>