<svg xmlns="http://www.w3.org/2000/svg" width="603.705" height="368.607" viewBox="0 0 603.705 368.607">
  <g id="Group_3" data-name="Group 3" transform="translate(4.497 3.754)" opacity="0.2">
    <path id="Path_1" data-name="Path 1" d="M94.31,8.581C83.452-2.8,62.686-1.444,52.5,10.539s-8.838,31.647,2.037,43.01c6.5,6.79,16.516,10.777,25.544,8.165,5.386-1.558,9.946-5.264,13.491-9.607C105.261,37.784,105.948,15.549,95.161.532" fill="#009e46" stroke="#000" stroke-linecap="round" stroke-linejoin="round" stroke-miterlimit="10" stroke-width="9"/>
    <path id="Path_2" data-name="Path 2" d="M218.018,8.581C207.159-2.8,186.394-1.444,176.206,10.539s-8.838,31.647,2.037,43.01c6.5,6.79,16.516,10.777,25.544,8.165,5.385-1.558,9.946-5.264,13.491-9.607,11.691-14.323,12.378-36.558,1.591-51.575" fill="#009e46" stroke="#000" stroke-linecap="round" stroke-linejoin="round" stroke-miterlimit="10" stroke-width="9"/>
    <path id="Path_3" data-name="Path 3" d="M41.826,29.635c-14.208-7.45-32.44,3.756-38.351,18.67S.373,79.99,3.268,95.77l6.51,35.487c7.5,40.877,17.8,86.2,52.4,109.231,10.5,6.99,22.558,11.327,34.784,14.432,25.6,6.5,53.326,7.7,77.963-1.828,32.219-12.463,55.54-42.1,67.526-74.5s13.98-67.579,14.011-102.124c.009-11.083-.265-22.584-5.123-32.545S235.711,26.006,224.8,27.978" fill="none" stroke="#000" stroke-linecap="round" stroke-linejoin="round" stroke-width="9"/>
    <path id="Path_4" data-name="Path 4" d="M46.938,166.77C53,184.617,62.136,200.717,77.6,211.009c8.049,5.359,17.292,8.683,26.664,11.064,19.627,4.984,40.877,5.9,59.762-1.4,24.7-9.553,42.575-32.271,51.762-57.107" fill="none" stroke="#000" stroke-linecap="round" stroke-linejoin="round" stroke-width="9"/>
    <path id="Path_5" data-name="Path 5" d="M423.082,178.418c-9.767-13.411-30.386-15.975-44.8-7.753s-22.574,24.981-23.5,41.546c-1.106,19.88,11.678,42.943,31.587,42.9,17.126-.033,29.661-16.977,33.742-33.609,4.739-19.318.741-42.367-15.3-54.127" fill="#009e46" stroke="#000" stroke-linecap="round" stroke-linejoin="round" stroke-miterlimit="10" stroke-width="9"/>
    <path id="Path_6" data-name="Path 6" d="M498.29,173.994c-8.335-3.75-17.219-7.315-26.318-6.455s-18.292,7.625-18.735,16.754c-.62,12.793,14.285,20.037,26.744,23.009s27.6,7.438,30.3,19.958c2.088,9.688-5.377,19.381-14.495,23.264s-19.424,3.38-29.317,2.809c-6.239-.36-14.538-2.946-13.929-9.165" fill="none" stroke="#000" stroke-linecap="round" stroke-linejoin="round" stroke-width="9"/>
    <path id="Path_7" data-name="Path 7" d="M529.047,167.56l13.383,58.3c1.179,5.133,2.456,10.472,5.821,14.524,7.9,9.514,22.726,7.681,34.8,4.986,2.376-.53,5.342-1.811,5.13-4.236s-5.031.1-2.713.837" fill="none" stroke="#000" stroke-linecap="round" stroke-linejoin="round" stroke-width="9"/>
    <path id="Path_8" data-name="Path 8" d="M531.763,208.728a130.534,130.534,0,0,1,39.9-12.416" fill="none" stroke="#000" stroke-linecap="round" stroke-linejoin="round" stroke-width="9"/>
    <path id="Path_9" data-name="Path 9" d="M525.068,167.661q34.254-3.232,68.307-8.251" fill="none" stroke="#000" stroke-linecap="round" stroke-linejoin="round" stroke-width="9"/>
    <path id="Path_10" data-name="Path 10" d="M529.309,50.78l13.383,58.3c1.178,5.134,2.456,10.473,5.82,14.525,7.9,9.513,22.727,7.68,34.8,4.986,2.376-.531,5.342-1.812,5.129-4.237s-5.031.1-2.712.837" fill="none" stroke="#000" stroke-linecap="round" stroke-linejoin="round" stroke-width="9"/>
    <path id="Path_11" data-name="Path 11" d="M532.024,91.949a130.55,130.55,0,0,1,39.905-12.417" fill="none" stroke="#000" stroke-linecap="round" stroke-linejoin="round" stroke-width="9"/>
    <path id="Path_12" data-name="Path 12" d="M525.33,50.881q34.254-3.231,68.307-8.25" fill="none" stroke="#000" stroke-linecap="round" stroke-linejoin="round" stroke-width="9"/>
    <path id="Path_13" data-name="Path 13" d="M425.422,67.878c-9.767-13.41-30.386-15.974-44.8-7.752s-22.574,24.981-23.5,41.546c-1.106,19.879,11.677,42.942,31.587,42.9,17.126-.033,29.661-16.976,33.742-33.609,4.739-19.317.741-42.367-15.3-54.126" fill="none" stroke="#000" stroke-linecap="round" stroke-linejoin="round" stroke-width="9"/>
    <path id="Path_14" data-name="Path 14" d="M451.359,133.743a318.358,318.358,0,0,1,2.933-71.717,671.756,671.756,0,0,0,50.172,71.358q-1.746-41.027-6.386-81.862" fill="none" stroke="#000" stroke-linecap="round" stroke-linejoin="round" stroke-width="9"/>
    <path id="Path_15" data-name="Path 15" d="M122.669,260.4c4.932,35.022,31,64.95,63.071,79.863s69.242,16.159,103.923,9.223a146.7,146.7,0,0,0,29.232-8.676c33.671-14.465,58.675-47.433,63.525-83.757" fill="none" stroke="#000" stroke-linecap="round" stroke-linejoin="round" stroke-width="9"/>
    <path id="Path_16" data-name="Path 16" d="M275.357,171.033l5.777,74.256c.156,2.008.385,4.186,1.77,5.647a7.786,7.786,0,0,0,4.078,1.928c13.729,3.05,28.526-4.538,36-16.453s8.237-27.227,4.244-40.711c-3.389-11.443-10.383-22.218-20.8-28.037s-24.458-5.75-33.615,1.9" fill="none" stroke="#000" stroke-linecap="round" stroke-linejoin="round" stroke-width="9"/>
    <g id="Group_1" data-name="Group 1">
      <path id="Path_17" data-name="Path 17" d="M425.324,288.748c-3.741-1.683-7.729-3.283-11.813-2.9s-8.211,3.423-8.41,7.52c-.278,5.743,6.412,8.994,12,10.328s12.387,3.339,13.6,8.959c.937,4.349-2.414,8.7-6.507,10.443s-8.718,1.517-13.16,1.26c-2.8-.161-6.525-1.322-6.252-4.113" fill="none" stroke="#009f47" stroke-linecap="round" stroke-linejoin="round" stroke-width="6"/>
      <path id="Path_18" data-name="Path 18" d="M442.962,290.4a92.059,92.059,0,0,0,5.009,25.114c.992,2.835,2.332,5.859,5.019,7.2,3.28,1.641,7.46.007,9.782-2.833s3.184-6.577,3.776-10.2a106.9,106.9,0,0,0,1.248-21.917,82.436,82.436,0,0,0,9.029,32.47" fill="none" stroke="#009f47" stroke-linecap="round" stroke-linejoin="round" stroke-width="6"/>
      <path id="Path_19" data-name="Path 19" d="M515.352,289.687c-4.761-5.339-14.083-4.578-19.174.447s-6.372,12.966-4.971,19.98c.786,3.935,2.575,8.012,6.108,9.914,4.075,2.194,9.417.706,12.711-2.545s4.859-7.882,5.608-12.45a45.242,45.242,0,0,0-.454-16.968c-2.97,18.737,3.048,37.676,3.4,56.645.074,4-.144,8.166-2,11.714-2.133,4.077-7.565,6.954-11.413,4.431-1.911-1.253-2.928-3.481-3.619-5.658a33.034,33.034,0,0,1-1.224-14.515" fill="none" stroke="#009f47" stroke-linecap="round" stroke-linejoin="round" stroke-width="6"/>
      <path id="Path_20" data-name="Path 20" d="M546.437,285.169c-2.571-1.513-5.985-.974-8.448.709a16.517,16.517,0,0,0-5.342,7.039,35.526,35.526,0,0,0-2.864,10.072c-.439,3.395-.345,7.006,1.275,10.022s5.088,5.23,8.439,4.527c4.019-.844,6.178-5.151,7.551-9.022a115.27,115.27,0,0,0,4.554-16.751,97,97,0,0,0,5.634,27.07" fill="none" stroke="#009f47" stroke-linecap="round" stroke-linejoin="round" stroke-width="6"/>
      <path id="Path_21" data-name="Path 21" d="M572.649,286.3c.117,10.313.233,20.636,1.093,30.914a99.353,99.353,0,0,1-2.7-23.1c0-2.271.126-4.679,1.4-6.56,1.778-2.63,5.354-3.472,8.5-3.08s6.078,1.771,9.112,2.705c1.694.522,3.861.769,4.944-.635" fill="none" stroke="#009f47" stroke-linecap="round" stroke-linejoin="round" stroke-width="6"/>
    </g>
  </g>
</svg>
