<svg xmlns="http://www.w3.org/2000/svg" width="78.911" height="79.258" viewBox="0 0 78.911 79.258">
  <g id="Group_1" data-name="Group 1" transform="translate(-0.701 -0.109)">
    <path id="Path_1" data-name="Path 1" d="M62.324,1.684Q41.105,22.851,19.047,43.152,12.807,48.891,6.5,54.56c-1.77,1.592.847,4.2,2.611,2.611Q31.4,37.13,52.864,16.2,58.933,10.283,64.935,4.3a1.847,1.847,0,0,0-2.611-2.611Z" fill="#333"/>
    <path id="Path_2" data-name="Path 2" d="M75.144,14.505Q53.978,35.724,33.677,57.782q-5.74,6.239-11.408,12.544c-1.585,1.762,1.017,4.381,2.61,2.61q20.042-22.284,40.969-43.75,5.919-6.069,11.907-12.071a1.847,1.847,0,0,0-2.611-2.61Z" fill="#333"/>
    <path id="Path_3" data-name="Path 3" d="M22.689,69.945c-3.354,1.161-6.718,2.3-10.1,3.363q-2.536.8-5.091,1.545-1.184.345-2.372.676a4.652,4.652,0,0,0-.879.219c.174-.124.077.051.081.038.881-2.7,1.535-6.239,2.278-9.247.82-3.322,1.7-6.63,2.813-9.868.773-2.252-2.792-3.219-3.56-.981C4.571,59.432,3.6,63.266,2.663,67.108c-.468,1.929-.924,3.862-1.406,5.788-.438,1.749-1.065,3.492.156,5.086,1.2,1.571,2.948,1.591,4.69,1.107q2.964-.825,5.9-1.734c3.913-1.207,7.8-2.511,11.665-3.85,2.231-.772,1.272-4.34-.982-3.56Z" fill="#333"/>
    <path id="Path_4" data-name="Path 4" d="M65.148,4.1a1.835,1.835,0,0,1,.741-.3c.128-.022.136-.029.024-.02.1-.012.209-.019.314-.022a4.444,4.444,0,0,1,.632.015,6.8,6.8,0,0,1,2.15.839A23.147,23.147,0,0,1,73.191,7.59a11.326,11.326,0,0,1,1.6,1.76,6.64,6.64,0,0,1,.98,1.994c.054.188.1.377.136.568.1.489.03-.245.022.257,0,.188,0,.379,0,.567.007.4.058-.105-.024.254-.041.181-.089.358-.139.536-.1.357.085-.06-.1.225a3.513,3.513,0,0,1-.188.3c.092-.113.1-.121.011-.025a2.259,2.259,0,0,1-.189.19q.214-.142-.061.04a1.891,1.891,0,0,0-.662,2.526,1.865,1.865,0,0,0,2.526.662A6.128,6.128,0,0,0,79.5,11.116a11.052,11.052,0,0,0-3.543-5.99,24.282,24.282,0,0,0-5.808-4.079C67.628-.179,64.8-.372,62.537,1.492a1.86,1.86,0,0,0,0,2.611,1.888,1.888,0,0,0,2.611,0Z" fill="#333"/>
    <path id="Path_5" data-name="Path 5" d="M2.5,71.41a52.884,52.884,0,0,0,5.974,5.82,1.978,1.978,0,0,0,1.3.541,1.846,1.846,0,0,0,1.305-3.151A52.884,52.884,0,0,1,5.114,68.8a1.856,1.856,0,0,0-2.611,0,1.892,1.892,0,0,0,0,2.611Z" fill="#333"/>
    <path id="Path_6" data-name="Path 6" d="M58.1,10.254l7.876,7.173,1.907,1.736c.779.709,1.588,1.673,2.732,1.673A2.025,2.025,0,0,0,72.375,17.8a1.969,1.969,0,0,0-3.394-.034,1.846,1.846,0,0,0,3.188,1.863l.036-.059-1.594.914.055-.005-.932-.252-.514-.488-.252-.931,0,.075.54-1.3-.05.061.815-.474-.145.04h.981c.171.039.55.435.218.1-.1-.106-.222-.2-.332-.3l-.663-.6-1.41-1.284-2.736-2.492L60.712,7.643a1.846,1.846,0,1,0-2.61,2.611Z" fill="#333"/>
  </g>
</svg>
