<svg xmlns="http://www.w3.org/2000/svg" width="53.326" height="53.554" viewBox="0 0 53.326 53.554">
  <g id="Group_1" data-name="Group 1" transform="translate(1.026 0.779)">
    <path id="Path_1" data-name="Path 1" d="M41.455,1.215Q23.107,19.524,3.823,36.861" fill="none" stroke="#333" stroke-linecap="round" stroke-miterlimit="10" stroke-width="2.5"/>
    <path id="Path_2" data-name="Path 2" d="M50.1,9.858Q31.791,28.206,14.452,47.49" fill="none" stroke="#333" stroke-linecap="round" stroke-miterlimit="10" stroke-width="2.5"/>
    <path id="Path_3" data-name="Path 3" d="M14.186,47.553c-4.114,1.426-8.175,2.762-12.379,3.913a1.24,1.24,0,0,1-1.528-1.51c1.111-4.25,2-8.764,3.428-12.882" fill="none" stroke="#333" stroke-linecap="round" stroke-linejoin="round" stroke-miterlimit="10" stroke-width="2.5"/>
    <path id="Path_4" data-name="Path 4" d="M41.6,1.085A2.874,2.874,0,0,1,44.122.578a7.646,7.646,0,0,1,2.394,1.157c1.884,1.223,3.81,2.743,4.365,4.919a2.942,2.942,0,0,1-.966,3.234" fill="none" stroke="#333" stroke-linecap="round" stroke-linejoin="round" stroke-miterlimit="10" stroke-width="2.5"/>
    <path id="Path_5" data-name="Path 5" d="M1.126,46.461a35.213,35.213,0,0,0,4.028,3.924" fill="none" stroke="#333" stroke-linecap="round" stroke-miterlimit="10" stroke-width="2.5"/>
    <path id="Path_6" data-name="Path 6" d="M38.609,5.232l7.266,6.617c.109.1.265.2.389.125s-.092-.31-.126-.167" fill="none" stroke="#333" stroke-linecap="round" stroke-linejoin="round" stroke-miterlimit="10" stroke-width="2.5"/>
  </g>
</svg>
