<svg xmlns="http://www.w3.org/2000/svg" width="20.286" height="25" viewBox="0 0 20.286 25">
  <g id="resume" transform="translate(-48.272)">
    <g id="Group_360" data-name="Group 360" transform="translate(48.272 0)">
      <path id="Path_267" data-name="Path 267" d="M149.193,274.636H136.464a.366.366,0,1,0,0,.732h12.729a.366.366,0,1,0,0-.732Z" transform="translate(-131.81 -261.226)" fill="#969696"/>
      <path id="Path_268" data-name="Path 268" d="M149.193,322.961H136.464a.366.366,0,1,0,0,.732h12.729a.366.366,0,1,0,0-.732Z" transform="translate(-131.81 -307.191)" fill="#969696"/>
      <path id="Path_269" data-name="Path 269" d="M149.193,371.286H136.464a.366.366,0,1,0,0,.732h12.729a.366.366,0,0,0,0-.732Z" transform="translate(-131.81 -353.157)" fill="#969696"/>
      <path id="Path_270" data-name="Path 270" d="M149.193,419.611H136.464a.366.366,0,1,0,0,.732h12.729a.366.366,0,1,0,0-.732Z" transform="translate(-131.81 -399.122)" fill="#969696"/>
      <path id="Path_271" data-name="Path 271" d="M306.04,175.7h-4.677a.366.366,0,0,0,0,.732h4.677a.366.366,0,0,0,0-.732Z" transform="translate(-288.656 -167.123)" fill="#969696"/>
      <path id="Path_272" data-name="Path 272" d="M306.04,136.06h-4.677a.366.366,0,0,0,0,.732h4.677a.366.366,0,0,0,0-.732Z" transform="translate(-288.656 -129.416)" fill="#969696"/>
      <path id="Path_273" data-name="Path 273" d="M68.192,20.365A.366.366,0,0,0,68.558,20V3.577a1.442,1.442,0,0,0-1.44-1.44h-.7v-.7A1.442,1.442,0,0,0,64.981,0H49.712a1.442,1.442,0,0,0-1.44,1.44V21.423a1.442,1.442,0,0,0,1.44,1.44h.7v.7A1.442,1.442,0,0,0,51.848,25H67.118a1.442,1.442,0,0,0,1.44-1.44V21.711a.366.366,0,1,0-.732,0V23.56a.708.708,0,0,1-.708.708H51.849a.708.708,0,0,1-.708-.708V3.577a.708.708,0,0,1,.708-.708H67.118a.708.708,0,0,1,.708.708V20A.366.366,0,0,0,68.192,20.365ZM50.408,3.577V22.131h-.7A.708.708,0,0,1,49,21.424V1.44a.708.708,0,0,1,.708-.708H64.981a.708.708,0,0,1,.708.708v.7H51.849a1.442,1.442,0,0,0-1.44,1.44Z" transform="translate(-48.272 0)" fill="#969696"/>
      <path id="Path_274" data-name="Path 274" d="M135.862,94.279a.366.366,0,0,0-.366.366V97.41a1.118,1.118,0,0,0,1,1.115c.138.015,4.085,0,4.091,0h0a1.118,1.118,0,0,0,1-1.115V92.634a1.122,1.122,0,0,0-1.121-1.121h-3.852a1.122,1.122,0,0,0-1.121,1.121v.287a.366.366,0,0,0,.732,0v-.287a.389.389,0,0,1,.389-.389h3.852a.389.389,0,0,1,.389.389v3.749a3.169,3.169,0,0,0-.99-.708,1.569,1.569,0,1,0-2.649,0,3.169,3.169,0,0,0-.99.708V94.645A.366.366,0,0,0,135.862,94.279Zm2.681-.28a.836.836,0,1,1-.836.836A.837.837,0,0,1,138.543,94Zm-.72,2.229a1.562,1.562,0,0,0,1.439,0,2.442,2.442,0,0,1,1.537,1.387.386.386,0,0,1-.29.182c-.024,0-3.871.005-3.926,0h-.009a.387.387,0,0,1-.289-.182A2.443,2.443,0,0,1,137.823,96.227Z" transform="translate(-131.237 -87.045)" fill="#969696"/>
    </g>
  </g>
</svg>
