<svg id="Layer_1" data-name="Layer 1" xmlns="http://www.w3.org/2000/svg" viewBox="0 0 32.8 53.09"><defs><style>.cls-1,.cls-2{fill:none;stroke:#333;stroke-linecap:round;stroke-width:2px;}.cls-1{stroke-linejoin:round;}.cls-2{stroke-miterlimit:10;}</style></defs><g id="Group_1" data-name="Group 1"><path id="Path_1" data-name="Path 1" class="cls-1" d="M1.24,24.26a127.85,127.85,0,0,0,0,16.26,12.73,12.73,0,0,0,1.06,5A9.27,9.27,0,0,0,5.73,49c4.07,2.55,9,3.18,13.7,3.14,3.81,0,8.11-.75,10.33-4.05,1.32-2,1.63-4.52,1.8-6.95a95.93,95.93,0,0,0-.43-18.17q-15-.67-30.07-.48" transform="translate(0 -0.01)"/><path id="Path_2" data-name="Path 2" class="cls-1" d="M14.68,34.69c-.86,0-1.22-1.14-1.06-2a3.92,3.92,0,0,1,4.06-3.16,3.42,3.42,0,0,1,2.94,3.85l0,.2c-.32,1.17-1.29,2-1.82,3.15-1,2.06-.3,4.5-.23,6.79a.79.79,0,0,1-.2.67.77.77,0,0,1-.47.1l-2.9.06" transform="translate(0 -0.01)"/><path id="Path_3" data-name="Path 3" class="cls-1" d="M4.24,21.34c.71-3,.65-6.14,1.07-9.21S6.74,5.9,9.07,3.87A10.94,10.94,0,0,1,12.34,2a12.46,12.46,0,0,1,6-.9,10.71,10.71,0,0,1,7.5,4.74,12.3,12.3,0,0,1,1.74,8.77" transform="translate(0 -0.01)"/><path id="Path_4" data-name="Path 4" class="cls-1" d="M8.86,21.59c.46-2,1.2-6.37,1.47-8.36s.46-4.59,2-5.9a5.9,5.9,0,0,1,2-1c1.23-.48,2.62-.15,3.94,0,2,.24,3.07.68,4.16,2.33a8,8,0,0,1,1.13,5.7" transform="translate(0 -0.01)"/><path id="Path_5" data-name="Path 5" class="cls-2" d="M23.53,14.27l3.4.15" transform="translate(0 -0.01)"/></g></svg>