<svg xmlns="http://www.w3.org/2000/svg" width="32.803" height="53.101" viewBox="0 0 32.803 53.101">
  <g id="Group_1" data-name="Group 1" transform="translate(0.801 0.678)">
    <path id="Path_1" data-name="Path 1" d="M.44,23.58A127,127,0,0,0,.48,39.844a12.753,12.753,0,0,0,1.061,5.018,9.128,9.128,0,0,0,3.388,3.416C9,50.835,13.9,51.463,18.624,51.421c3.815-.034,8.111-.749,10.33-4.054,1.329-1.979,1.633-4.517,1.805-6.943a96.525,96.525,0,0,0-.429-18.171Q15.3,21.578.258,21.767" fill="none" stroke="#333" stroke-linecap="round" stroke-linejoin="round" stroke-miterlimit="10" stroke-width="2"/>
    <path id="Path_2" data-name="Path 2" d="M13.877,34.014c-.859-.006-1.222-1.143-1.063-1.987a3.934,3.934,0,0,1,4.068-3.156,3.424,3.424,0,0,1,2.905,4.047c-.315,1.178-1.288,2.057-1.818,3.154-1,2.064-.3,4.5-.232,6.787a.776.776,0,0,1-.2.67.8.8,0,0,1-.472.108l-2.893.052" fill="none" stroke="#333" stroke-linecap="round" stroke-linejoin="round" stroke-miterlimit="10" stroke-width="2"/>
    <path id="Path_3" data-name="Path 3" d="M3.44,20.662c.709-3.011.652-6.145,1.072-9.21S5.936,5.221,8.266,3.187a11.078,11.078,0,0,1,3.272-1.9A12.473,12.473,0,0,1,17.509.394a10.682,10.682,0,0,1,7.5,4.736,12.279,12.279,0,0,1,1.738,8.77" fill="none" stroke="#333" stroke-linecap="round" stroke-linejoin="round" stroke-miterlimit="10" stroke-width="2"/>
    <path id="Path_4" data-name="Path 4" d="M8.056,20.914c.46-1.957,1.2-6.374,1.476-8.365s.454-4.584,1.969-5.9a5.791,5.791,0,0,1,1.968-.985c1.23-.481,2.625-.156,3.936,0,1.97.235,3.073.677,4.164,2.333a7.978,7.978,0,0,1,1.129,5.7" fill="none" stroke="#333" stroke-linecap="round" stroke-linejoin="round" stroke-miterlimit="10" stroke-width="2"/>
    <path id="Path_5" data-name="Path 5" d="M22.731,13.593l3.394.148" fill="none" stroke="#333" stroke-linecap="round" stroke-miterlimit="10" stroke-width="2"/>
  </g>
</svg>
