<svg xmlns="http://www.w3.org/2000/svg" width="58.601" height="70.439" viewBox="0 0 58.601 70.439">
  <g id="Group_1" data-name="Group 1" transform="translate(1.24 1.254)">
    <path id="Path_1" data-name="Path 1" d="M47.657,5.1C39.664-1.125,27.819-1.635,19.075,3.481S5.015,18.86,5.4,28.984A18.964,18.964,0,0,0,7.273,36.97a18.058,18.058,0,0,0,7.057,7.05,26.249,26.249,0,0,0,30.543-3.549,26.251,26.251,0,0,0,4.938-30.35,51,51,0,0,0-4.54-6.75" fill="none" stroke="#333" stroke-linecap="round" stroke-linejoin="round" stroke-miterlimit="10" stroke-width="2.5"/>
    <path id="Path_2" data-name="Path 2" d="M10.233,41.34A204.4,204.4,0,0,0,.01,61.037q4.707-.772,9.346-1.9l3.793,8.793c1.393-.1,2.249-1.528,2.862-2.783q4.352-8.9,8.467-17.914" fill="none" stroke="#333" stroke-linecap="round" stroke-linejoin="round" stroke-miterlimit="10" stroke-width="2.5"/>
    <path id="Path_3" data-name="Path 3" d="M45.888,41.34a204.4,204.4,0,0,1,10.223,19.7q-4.707-.772-9.346-1.9l-3.793,8.793c-1.393-.1-2.249-1.528-2.862-2.783q-4.352-8.9-8.467-17.914" fill="none" stroke="#333" stroke-linecap="round" stroke-linejoin="round" stroke-miterlimit="10" stroke-width="2.5"/>
    <path id="Path_4" data-name="Path 4" d="M24.688,18.744l.5-1.025,3.535-7.244q1.809,4.254,3.9,8.384" fill="none" stroke="#333" stroke-linecap="round" stroke-linejoin="round" stroke-miterlimit="10" stroke-width="2.5"/>
    <path id="Path_5" data-name="Path 5" d="M32.887,18.912a56.04,56.04,0,0,1,7.373,1.046A66.8,66.8,0,0,1,34.6,25.776" fill="none" stroke="#333" stroke-linecap="round" stroke-linejoin="round" stroke-miterlimit="10" stroke-width="2.5"/>
    <path id="Path_6" data-name="Path 6" d="M34.518,25.918c.363,2.578,1.594,4.987,1.825,7.579a8.33,8.33,0,0,1-1.634-.676L28.674,29.8" fill="none" stroke="#333" stroke-linecap="round" stroke-linejoin="round" stroke-miterlimit="10" stroke-width="2.5"/>
    <path id="Path_7" data-name="Path 7" d="M28.679,29.857q-3.562,2.017-7.2,3.9a69.145,69.145,0,0,1,1.045-7.851" fill="none" stroke="#333" stroke-linecap="round" stroke-linejoin="round" stroke-miterlimit="10" stroke-width="2.5"/>
    <path id="Path_8" data-name="Path 8" d="M22.433,25.742a92.3,92.3,0,0,0-6.58-6.527q4.42-.562,8.88-.7" fill="none" stroke="#333" stroke-linecap="round" stroke-linejoin="round" stroke-miterlimit="10" stroke-width="2.5"/>
  </g>
</svg>
