<svg xmlns="http://www.w3.org/2000/svg" width="59.603" height="79.859" viewBox="0 0 59.603 79.859">
  <g id="Group_3" data-name="Group 3" transform="translate(-9.97 -0.141)">
    <g id="Group_1" data-name="Group 1">
      <path id="Path_1" data-name="Path 1" d="M45.195,7.829C43.047,2.094,36.719-.514,30.905.281A17.9,17.9,0,0,0,16.47,12.988c-1.806,6.3.018,13.542,5.224,17.715,5.659,4.535,13.4,3.545,18.973-.654,6.522-4.915,9.378-13.551,5.722-21.1-1.039-2.149-4.24-.27-3.2,1.872,2.473,5.11.778,11.111-3.167,14.943-3.738,3.632-9.836,5.811-14.65,3-4.344-2.533-6.449-7.832-5.775-12.709A14.3,14.3,0,0,1,29.221,4.461c4.29-1.393,10.608-.421,12.4,4.355.83,2.215,4.418,1.256,3.578-.987Z" fill="#fff"/>
      <path id="Path_2" data-name="Path 2" d="M13.687,73.483a74.958,74.958,0,0,1,7.347-27.759c1.785-3.53,4.112-6.978,7.533-9.1,1.85-1.149,4.1-2,6.287-1.384a10.458,10.458,0,0,1,4.83,3.639c3.2,3.787,4.826,8.644,5.832,13.425.491,2.335,4.068,1.347,3.577-.987a34.471,34.471,0,0,0-5.734-13.734c-3.122-4.15-7.5-7.36-12.924-5.842-9.822,2.746-14.257,14.439-16.96,23.166a84.886,84.886,0,0,0-3.5,18.577c-.184,2.381,3.527,2.369,3.71,0Z" fill="#fff"/>
      <path id="Path_3" data-name="Path 3" d="M11.8,75.462a147.5,147.5,0,0,0,27.835,2.49c2.387-.015,2.392-3.725,0-3.71a142.188,142.188,0,0,1-26.848-2.358c-2.334-.433-3.335,3.142-.987,3.578Z" fill="#fff"/>
    </g>
    <g id="Group_2" data-name="Group 2">
      <path id="Path_4" data-name="Path 4" d="M64.471,28.176c-1.655-4.375-6.377-6.468-10.864-5.886A13.575,13.575,0,0,0,42.572,31.8,12.857,12.857,0,0,0,46.4,45.3c4.267,3.509,10.169,2.894,14.461-.277,5.066-3.744,7.224-10.341,4.435-16.155-1.032-2.151-4.232-.272-3.2,1.873,1.719,3.585.448,7.758-2.332,10.4-2.618,2.485-6.837,3.953-10.136,1.938a8.851,8.851,0,0,1-3.816-8.808A9.932,9.932,0,0,1,52.575,26.3c2.826-.888,7.122-.3,8.319,2.867a1.908,1.908,0,0,0,2.282,1.3,1.869,1.869,0,0,0,1.3-2.282Z" fill="#fff"/>
      <path id="Path_5" data-name="Path 5" d="M41.483,76.248a58.387,58.387,0,0,1,2.749-13.681c1.256-3.822,2.808-7.947,5.616-10.922A8.789,8.789,0,0,1,54.787,48.7c1.918-.244,3.408,1.026,4.6,2.371,2.655,3.005,3.869,7.039,4.561,10.911.945,5.3.928,10.71,2.007,15.989.478,2.338,4.055,1.349,3.578-.986-1.976-9.663-.52-20.811-7.656-28.685A9.342,9.342,0,0,0,55.967,45,9.944,9.944,0,0,0,49.3,47.2c-3.83,2.848-5.966,7.218-7.643,11.568a62.056,62.056,0,0,0-3.885,17.483c-.187,2.381,3.524,2.369,3.71,0Z" fill="#fff"/>
      <path id="Path_6" data-name="Path 6" d="M39.474,78.176a107.485,107.485,0,0,0,28.288,1.477c2.363-.193,2.384-3.9,0-3.71a103.749,103.749,0,0,1-27.3-1.345c-2.334-.431-3.335,3.144-.987,3.578Z" fill="#fff"/>
    </g>
  </g>
</svg>
