<svg id="Group_1" data-name="Group 1" xmlns="http://www.w3.org/2000/svg" width="101" height="101" viewBox="0 0 101 101">
  <circle id="Ellipse_1" data-name="Ellipse 1" cx="50.5" cy="50.5" r="50.5" fill="#969696"/>
  <path id="Path_1" data-name="Path 1" d="M61.47,29.42q3.94,3.61,3.94,10,0,7.14-4.41,10.68T48.92,53.77v7.94H43.13V49.59h2.69q6.2,0,9.86-2.15t3.67-8A8.38,8.38,0,0,0,57,33.16a8.613,8.613,0,0,0-6.29-2.29A9.41,9.41,0,0,0,44,33.23a8.06,8.06,0,0,0-2.53,6.19H35.59a13.386,13.386,0,0,1,1.88-7.13,12.382,12.382,0,0,1,5.39-4.78,18.281,18.281,0,0,1,8.08-1.69Q57.54,25.82,61.47,29.42ZM49.79,68v7.21h-7.4V68Z" fill="#fff"/>
</svg>
