<svg xmlns="http://www.w3.org/2000/svg" width="54.91" height="54.491" viewBox="0 0 54.91 54.491">
  <g id="Group_1" data-name="Group 1" transform="translate(1.696 1.677)">
    <path id="Path_1" data-name="Path 1" d="M45.29,11.912c-2.93-5.961-9.061-9.248-15.42-9.844C17.836.942,5.6,9.862,3.247,21.718S9.028,46.626,20.771,49.489s25.111-5.207,27.8-16.992c1.272-5.586.3-15.116-3.348-20.514" fill="none" stroke="#333" stroke-linecap="round" stroke-linejoin="round" stroke-width="2.5"/>
    <path id="Path_2" data-name="Path 2" d="M42.912,0a23.538,23.538,0,0,1,9.052,8.012l-.017-.33" fill="none" stroke="#333" stroke-linecap="round" stroke-linejoin="round" stroke-width="2.5"/>
    <path id="Path_3" data-name="Path 3" d="M.036,8.852A29.267,29.267,0,0,1,8.213.643" fill="none" stroke="#333" stroke-linecap="round" stroke-linejoin="round" stroke-width="2.5"/>
    <path id="Path_4" data-name="Path 4" d="M1.593,51.047a94.333,94.333,0,0,0,6.968-8.335" fill="none" stroke="#333" stroke-linecap="round" stroke-linejoin="round" stroke-width="2.5"/>
    <path id="Path_5" data-name="Path 5" d="M43.271,43.544,50,50.32c.067.067.161.14.246.1s-.018-.212-.066-.13" fill="none" stroke="#333" stroke-linecap="round" stroke-linejoin="round" stroke-width="2.5"/>
    <path id="Path_6" data-name="Path 6" d="M25.619,11.649q.452,7.4.629,14.808l8.353-.166" fill="none" stroke="#333" stroke-linecap="round" stroke-linejoin="round" stroke-width="2.5"/>
  </g>
</svg>
