<svg xmlns="http://www.w3.org/2000/svg" width="21.015" height="25" viewBox="0 0 21.015 25">
  <g id="Screen" transform="translate(-8)">
    <g id="_12_Main-Services" data-name=" 12 Main-Services" transform="translate(8)">
      <g id="Group-2" transform="translate(0)">
        <g id="find-appointment">
          <path id="ic_price" data-name="ic price" d="M28.1,2.649H23.223V.916A.914.914,0,0,0,22.307,0h-7.6a.93.93,0,0,0-.916.916V5.743a.914.914,0,0,0,.916.916h5.619a.921.921,0,0,0,.817-1.015.946.946,0,0,0-.817-.817h-4.7v-3h5.792V3.589a.914.914,0,0,0,.916.916h4.876V23.168H9.832V4.5h1.386a.914.914,0,0,0,.916-.916.93.93,0,0,0-.916-.916h-2.3A.93.93,0,0,0,8,3.589v20.5A.914.914,0,0,0,8.916,25H28.1a.93.93,0,0,0,.916-.916V3.589A.935.935,0,0,0,28.1,2.649ZM23.817,12H16.589a.986.986,0,0,0-.668,1.238.958.958,0,0,0,.668.668h7.228a.986.986,0,0,0,.668-1.238A1,1,0,0,0,23.817,12Zm0-3.366H16.589A.99.99,0,0,0,15.9,9.876a.98.98,0,0,0,.693.693h7.228a.99.99,0,0,0,.693-1.238A.94.94,0,0,0,23.817,8.639Zm0,7.2H16.589a.986.986,0,0,0-.668,1.238.958.958,0,0,0,.668.668h7.228a.986.986,0,0,0,.668-1.238A1.056,1.056,0,0,0,23.817,15.842Zm-9.6-6.213a.99.99,0,1,1-.99-.99A.977.977,0,0,1,14.213,9.629Zm0,3.366a.99.99,0,1,1-.99-.99A.993.993,0,0,1,14.213,13Zm0,3.366a.99.99,0,1,1-.99-.99A.993.993,0,0,1,14.213,16.361Zm9.6,2.9a.986.986,0,0,1,.668,1.238.958.958,0,0,1-.668.668H16.589a.986.986,0,0,1-.668-1.238.958.958,0,0,1,.668-.668Zm-9.6.47a.99.99,0,1,1-.99-.99.977.977,0,0,1,.99.99Z" transform="translate(-8)" fill="#862634" fill-rule="evenodd"/>
        </g>
      </g>
    </g>
  </g>
</svg>
