<svg xmlns="http://www.w3.org/2000/svg" width="61.519" height="64.754" viewBox="0 0 61.519 64.754">
  <g id="Group_1" data-name="Group 1" transform="translate(-1.481 -0.115)">
    <path id="Path_1" data-name="Path 1" d="M29.12.686A22.971,22.971,0,0,0,4.376,11.4,23.866,23.866,0,0,0,7.982,39.137a24.882,24.882,0,0,0,27.281,5.339c8.746-3.842,15.112-13.308,14.584-22.964A23.1,23.1,0,0,0,29.735.192a1.8,1.8,0,0,0-1.793,1.793,1.834,1.834,0,0,0,1.793,1.793c7.946.857,14.54,7.576,16.188,15.235,1.74,8.086-2.762,16.582-9.6,20.853a21.13,21.13,0,0,1-23.405-1.157C6.006,33.651,3.4,24.178,6.139,16.163c3-8.8,13.031-14.149,22.028-12.019,2.244.531,3.2-2.926.953-3.458Z" fill="#fff"/>
    <path id="Path_2" data-name="Path 2" d="M41.049,40.545l18.9,23.8a1.8,1.8,0,0,0,2.536,0,1.835,1.835,0,0,0,0-2.536l-18.905-23.8a1.807,1.807,0,0,0-2.536,0,1.835,1.835,0,0,0,0,2.536Z" fill="#fff"/>
    <path id="Path_3" data-name="Path 3" d="M13.471,13.413A17.073,17.073,0,0,0,15,33.212a1.807,1.807,0,0,0,2.536,0,1.831,1.831,0,0,0,0-2.536,13.417,13.417,0,0,1-.964-15.453c1.231-1.96-1.871-3.762-3.1-1.81Z" fill="#fff"/>
  </g>
</svg>
