<svg xmlns="http://www.w3.org/2000/svg" width="80" height="76.025" viewBox="0 0 80 76.025">
  <path id="Path_1" data-name="Path 1" d="M3.421,7.693.264,62.1c-.224,3.86-.9,8.318,1.462,11.7a11.663,11.663,0,0,0,8.4,4.626c3.913.454,7.75-.966,11.22-2.632,3.931-1.888,7.758-4.014,11.621-6.034,7.752-4.054,15.55-8.032,23.249-12.185C62.669,54.1,69.07,50.245,74.287,45.033a42.345,42.345,0,0,0,3.732-4.285c1.1-1.447,2.137-3.044,1.961-4.944-.185-2-1.674-3.29-3.161-4.439q-2.3-1.781-4.7-3.434A128.836,128.836,0,0,0,51.486,16.574c-7.191-3.2-14.579-5.934-22.034-8.452-3.759-1.27-7.535-2.488-11.314-3.694-3.306-1.054-6.759-2.366-10.286-1.8A7.058,7.058,0,0,0,3.758,4.8,1.965,1.965,0,0,0,5.13,8.112l3.248.238c2.491.182,2.48-3.7,0-3.88L5.13,4.233,6.5,7.544c1.964-2.127,5.463-1,7.833-.257,3.425,1.067,6.839,2.176,10.247,3.3,6.969,2.291,13.9,4.713,20.683,7.51a143.88,143.88,0,0,1,19.1,9.467,106.136,106.136,0,0,1,9.237,6.19c.765.575,2.625,1.563,2.512,2.7a4.942,4.942,0,0,1-1.189,2c-.568.754-1.18,1.476-1.81,2.179-4.565,5.093-10.336,8.848-16.26,12.17C50.168,56.555,43.3,59.988,36.51,63.539l-11.455,5.99c-3.353,1.754-6.7,3.777-10.405,4.7a9.99,9.99,0,0,1-8.315-1.169c-2.962-2.152-2.484-5.924-2.3-9.152L7.3,7.693c.145-2.494-3.735-2.486-3.879,0Z" transform="translate(0 -2.491)" fill="#333"/>
</svg>
