<svg xmlns="http://www.w3.org/2000/svg" width="64.497" height="64.388" viewBox="0 0 64.497 64.388">
  <g id="Group_1" data-name="Group 1" transform="translate(1.248 0.956)">
    <path id="Path_1" data-name="Path 1" d="M38.426,21.266a12.879,12.879,0,0,0-15.7,2.775,15.685,15.685,0,0,0-3.051,6.293c-.73,2.909-.779,6.207.954,8.666a10.029,10.029,0,0,0,6.233,3.661,14.578,14.578,0,0,0,8.136-.509,12.711,12.711,0,0,0,7.945-9.809A12.61,12.61,0,0,0,38.159,20.7" fill="none" stroke="#333" stroke-linecap="round" stroke-linejoin="round" stroke-width="2.5"/>
    <path id="Path_2" data-name="Path 2" d="M24.93,6.992l1.463-5.145a2.348,2.348,0,0,1,.47-1.008A2.442,2.442,0,0,1,28.617.32a27.52,27.52,0,0,1,6.4.32,1.813,1.813,0,0,1,.933.4,1.885,1.885,0,0,1,.383.681q1,2.584,1.851,5.224" fill="none" stroke="#333" stroke-linecap="round" stroke-linejoin="round" stroke-width="2.5"/>
    <path id="Path_3" data-name="Path 3" d="M38.023,7.223" fill="none" stroke="#333" stroke-linecap="round" stroke-linejoin="round" stroke-width="2.5"/>
    <path id="Path_4" data-name="Path 4" d="M38.579,7.434l3.265,1.73a3.432,3.432,0,0,0,1.664.54,3.419,3.419,0,0,0,1.7-.716l3.5-2.3a1.3,1.3,0,0,1,1.981.161L55.761,11.4a.962.962,0,0,1,.36.505.95.95,0,0,1-.169.594l-3.387,6.225" fill="none" stroke="#333" stroke-linecap="round" stroke-linejoin="round" stroke-width="2.5"/>
    <path id="Path_5" data-name="Path 5" d="M52.581,18.919a53.112,53.112,0,0,0,2.085,5.016,2.657,2.657,0,0,0,.775,1.086,2.914,2.914,0,0,0,1.14.388A26.286,26.286,0,0,1,61.4,26.861a.808.808,0,0,1,.6.993l-.177,6.7a1,1,0,0,1-.124.553,1.025,1.025,0,0,1-.6.324l-5.224,1.4" fill="none" stroke="#333" stroke-linecap="round" stroke-linejoin="round" stroke-width="2.5"/>
    <path id="Path_6" data-name="Path 6" d="M55.634,37.316l-2.64,5.093a3.523,3.523,0,0,0-.507,1.49,3.569,3.569,0,0,0,1.022,2.172l2.228,2.81a.779.779,0,0,1-.017,1.266l-4.544,4.918a1.159,1.159,0,0,1-1.9.234l-4.863-3.521" fill="none" stroke="#333" stroke-linecap="round" stroke-linejoin="round" stroke-width="2.5"/>
    <path id="Path_7" data-name="Path 7" d="M44.26,52.011l-5.73,2.335a2.282,2.282,0,0,0-.717.4,2.354,2.354,0,0,0-.516,1.618,24.509,24.509,0,0,1-.735,4.452,2.055,2.055,0,0,1-.417.912,2.219,2.219,0,0,1-1.692.454l-6.807-.08a2.76,2.76,0,0,1-2.129-.64,2.617,2.617,0,0,1-.476-1.382q-.354-2.543-.533-5.105" fill="none" stroke="#333" stroke-linecap="round" stroke-linejoin="round" stroke-width="2.5"/>
    <path id="Path_8" data-name="Path 8" d="M24.548,54.932a40.088,40.088,0,0,0-4.794-2.095,2.253,2.253,0,0,0-.975-.192,2.463,2.463,0,0,0-1.151.581,22.842,22.842,0,0,1-5.08,2.839,2.044,2.044,0,0,1-1.02.209,2.131,2.131,0,0,1-1.1-.682L6.845,52.174a1.873,1.873,0,0,1-.779-1.384,1.845,1.845,0,0,1,.416-.872L10.306,44.6" fill="none" stroke="#333" stroke-linecap="round" stroke-linejoin="round" stroke-width="2.5"/>
    <path id="Path_9" data-name="Path 9" d="M10.342,44.252A10.461,10.461,0,0,1,7.98,39.491a2.38,2.38,0,0,0-.523-1.305,2.162,2.162,0,0,0-.794-.414l-5.9-2.1A1.228,1.228,0,0,1,.144,35.3,1.2,1.2,0,0,1,0,34.534q.168-3.78.578-7.543a60.637,60.637,0,0,0,6.063-1.238" fill="none" stroke="#333" stroke-linecap="round" stroke-linejoin="round" stroke-width="2.5"/>
    <path id="Path_10" data-name="Path 10" d="M6.863,25.244l2.143-4.283a3.208,3.208,0,0,0,.5-2.183,3.59,3.59,0,0,0-.829-1.3,15.176,15.176,0,0,1-2.754-4.93,1.145,1.145,0,0,1-.074-.694,1.211,1.211,0,0,1,.458-.54l5-3.951a2.134,2.134,0,0,1,.944-.514,2.167,2.167,0,0,1,1.588.668l3.915,3.133" fill="none" stroke="#333" stroke-linecap="round" stroke-linejoin="round" stroke-width="2.5"/>
    <path id="Path_11" data-name="Path 11" d="M18.008,10.3a38.107,38.107,0,0,1,6.911-2.694" fill="none" stroke="#333" stroke-linecap="round" stroke-linejoin="round" stroke-width="2.5"/>
  </g>
</svg>
