<svg xmlns="http://www.w3.org/2000/svg" width="64.93" height="55.848" viewBox="0 0 64.93 55.848">
  <g id="Group_1" data-name="Group 1" transform="translate(0 -0.152)">
    <path id="Path_1" data-name="Path 1" d="M.839,2.5c2.309.656,4.635-.1,6.94.341,2.246.427,3.043,2.627,3.595,4.581,1.457,5.152,2.65,10.395,3.749,15.634.525,2.5.951,5.029,1.492,7.528A11.568,11.568,0,0,0,19.1,36.109,8.646,8.646,0,0,0,24.854,38.5c2.59.25,5.234.211,7.833.213q8.181.008,16.34-.738c2.287-.21,5.2-.1,7.14-1.511,1.735-1.264,2.562-3.565,3.4-5.455a70.84,70.84,0,0,0,4.727-14.7c.388-1.917,1.4-4.728-.4-6.215-1.661-1.375-4.567-.857-6.541-.849L20.095,9.4a1.191,1.191,0,0,0,0,2.381l30.894-.131,7.782-.033a13.667,13.667,0,0,1,2.993.073c.6.137.762.274.766.926a10.952,10.952,0,0,1-.321,1.977,69.215,69.215,0,0,1-4.122,13.883c-.438,1.055-.91,2.1-1.4,3.127a8.416,8.416,0,0,1-1.689,2.758,5.5,5.5,0,0,1-3.176.955q-1.976.213-3.955.38-7.57.642-15.176.636c-2.475,0-4.973.008-7.442-.18-2.186-.167-4.146-.838-5.238-2.861a19.272,19.272,0,0,1-1.539-5.631q-.717-3.767-1.535-7.512-.893-4.086-1.905-8.145a49.53,49.53,0,0,0-2.089-7.339A6.529,6.529,0,0,0,8.775.629C6.374-.03,3.858.881,1.472.2A1.192,1.192,0,0,0,.839,2.5Z" fill="#fff"/>
    <path id="Path_2" data-name="Path 2" d="M32.625,41.873a7.121,7.121,0,0,0-9.046,1.786c-2.007,2.494-2.849,6.336-1.174,9.23,1.6,2.77,5.211,3.661,8.141,2.79a7.469,7.469,0,0,0,5.383-5.872,7.988,7.988,0,0,0-3.919-8.168c-1.351-.722-2.556,1.333-1.2,2.057a5.553,5.553,0,0,1,2.842,4.752,4.952,4.952,0,0,1-2.9,4.616,5.136,5.136,0,0,1-5.619-.556c-1.75-1.6-1.427-4.494-.363-6.389,1.3-2.319,4.218-3.661,6.658-2.189a1.192,1.192,0,0,0,1.2-2.057Z" fill="#fff"/>
    <path id="Path_3" data-name="Path 3" d="M51.654,41.873a7.121,7.121,0,0,0-9.046,1.786c-2.007,2.494-2.849,6.336-1.175,9.23,1.6,2.77,5.212,3.661,8.141,2.79a7.466,7.466,0,0,0,5.383-5.872,7.987,7.987,0,0,0-3.919-8.168c-1.351-.722-2.555,1.333-1.2,2.057a5.555,5.555,0,0,1,2.842,4.752,4.952,4.952,0,0,1-2.9,4.616,5.136,5.136,0,0,1-5.619-.556c-1.751-1.6-1.427-4.494-.363-6.389,1.3-2.319,4.218-3.661,6.658-2.189a1.192,1.192,0,0,0,1.2-2.057Z" fill="#fff"/>
  </g>
</svg>
