<svg xmlns="http://www.w3.org/2000/svg" width="337.139" height="252.181" viewBox="0 0 337.139 252.181">
  <g id="Group_1" data-name="Group 1" transform="translate(0 0)">
    <path id="Path_1" data-name="Path 1" d="M48.779,216.523H16.57A16.589,16.589,0,0,1,0,199.952v-98.5A16.589,16.589,0,0,1,16.57,84.879H48.779a16.589,16.589,0,0,1,16.57,16.571v98.5A16.589,16.589,0,0,1,48.779,216.523ZM16.57,100.008a1.444,1.444,0,0,0-1.442,1.442v98.5a1.444,1.444,0,0,0,1.442,1.442H48.779a1.444,1.444,0,0,0,1.443-1.442v-98.5a1.444,1.444,0,0,0-1.443-1.442Z" fill="#f3f2f2"/>
    <path id="Path_2" data-name="Path 2" d="M256.417,252.181H162.742a25.782,25.782,0,0,1-15.372-5.125L84.681,200.039a10.563,10.563,0,0,0-6.3-2.1h-20.6a7.564,7.564,0,0,1,0-15.129h20.6a25.785,25.785,0,0,1,15.372,5.124l62.69,47.017a10.552,10.552,0,0,0,6.295,2.1h93.675a10.121,10.121,0,0,0,9.692-6.453,9.9,9.9,0,0,0,.571-3.164,10.655,10.655,0,0,0-5.284-9.151,9.677,9.677,0,0,0-5-1.259H184.6a25.617,25.617,0,0,1-16.871-6.339l-24.617-21.54-.063-.055L132.658,180a7.564,7.564,0,0,1,9.962-11.385h0l10.434,9.13a10.309,10.309,0,0,0,12.715.784,11.681,11.681,0,0,0,3.4-3.837,10.91,10.91,0,0,0,1.324-4.61,10.073,10.073,0,0,0-4.052-8.541l-53.671-41.744a10.543,10.543,0,0,0-6.442-2.21H57.786a7.564,7.564,0,1,1,0-15.128h48.546a25.74,25.74,0,0,1,15.73,5.4L175.734,149.6a25.176,25.176,0,0,1,9.858,21.5,26.1,26.1,0,0,1-3.15,10.857,26.685,26.685,0,0,1-7.755,8.792,24.237,24.237,0,0,1-4.043,2.386l7.048,6.167a10.486,10.486,0,0,0,6.909,2.6h71.8a24.76,24.76,0,0,1,12.8,3.43,25.824,25.824,0,0,1,12.6,22.32,24.96,24.96,0,0,1-1.438,8.006A25.265,25.265,0,0,1,256.417,252.181Z" fill="#f3f2f2"/>
    <path id="Path_3" data-name="Path 3" d="M244.857,164.031a7.557,7.557,0,0,1-2.922-.588c-19.764-8.278-67.481-32.5-83.688-78.522-3.083-8.752-9.5-26.965-2.579-47.4C158,30.632,167.369,7.682,190,1.507c11.556-3.152,21.3-.554,25.455.555,13.428,3.582,23.069,11.549,29.4,18.725,6.332-7.176,15.972-15.142,29.4-18.725,4.161-1.109,13.9-3.707,25.456-.555,22.636,6.176,32,29.126,34.332,36.013,6.919,20.434.505,38.648-2.578,47.4-16.208,46.021-63.925,70.244-83.688,78.522A7.558,7.558,0,0,1,244.857,164.031Zm-43.512-148.9a27.89,27.89,0,0,0-7.362.966C178.556,20.311,171.725,37.272,170,42.37c-5.244,15.488-.2,29.824,2.518,37.525,13.472,38.254,53.044,59.83,72.341,68.338,19.3-8.508,58.869-30.085,72.342-68.337,2.712-7.7,7.761-22.039,2.517-37.526-1.726-5.1-8.554-22.059-23.984-26.268-7.614-2.078-14.342-.285-17.575.577-14.275,3.809-23.009,14.6-26.945,20.7a7.564,7.564,0,0,1-12.709,0c-3.937-6.095-12.672-16.89-26.946-20.7A38.457,38.457,0,0,0,201.345,15.136Z" fill="#f3f2f2"/>
  </g>
</svg>
