<svg xmlns="http://www.w3.org/2000/svg" width="120.004" height="120" viewBox="0 0 120.004 120">
  <g id="Group_1" data-name="Group 1" transform="translate(0.002)">
    <path id="Path_1" data-name="Path 1" d="M60,0a60,60,0,1,0,60,60A60,60,0,0,0,60,0Z" fill="#1ed760"/>
    <path id="Path_2" data-name="Path 2" d="M87.515,86.538a3.737,3.737,0,0,1-5.144,1.239C68.283,79.173,50.549,77.223,29.663,82A3.74,3.74,0,0,1,28,74.7c22.856-5.222,42.461-2.974,58.277,6.691A3.739,3.739,0,0,1,87.515,86.538Z" fill="#1a1515"/>
    <path id="Path_3" data-name="Path 3" d="M94.859,70.2a4.676,4.676,0,0,1-6.433,1.542C72.3,61.828,47.712,58.958,28.636,64.749A4.678,4.678,0,1,1,25.917,55.8c21.791-6.611,48.881-3.409,67.4,7.973a4.676,4.676,0,0,1,1.54,6.431Z" fill="#1a1515"/>
    <path id="Path_4" data-name="Path 4" d="M95.49,53.188C76.152,41.7,44.247,40.646,25.784,46.25a5.612,5.612,0,0,1-3.259-10.741c21.2-6.434,56.429-5.191,78.692,8.027a5.611,5.611,0,1,1-5.724,9.652Z" fill="#1a1515"/>
  </g>
</svg>
