<svg xmlns="http://www.w3.org/2000/svg" width="248.735" height="384.387" viewBox="0 0 248.735 384.387">
  <g id="Group_4" data-name="Group 4" transform="translate(-0.064 -2.305)">
    <g id="Group_1" data-name="Group 1">
      <path id="Path_1" data-name="Path 1" d="M74.351,12.257C66.324,3.845,50.972,4.846,43.44,13.7s-6.534,23.4,1.505,31.8c4.805,5.02,12.211,7.967,18.885,6.036a20.721,20.721,0,0,0,9.974-7.1c8.644-10.589,9.151-27.028,1.176-38.129" fill="#2b9034"/>
      <path id="Path_2" data-name="Path 2" d="M77.171,9.437C69.818,1.874,58.1.791,48.737,4.922c-9.715,4.287-15.046,14.8-14.351,25.187.758,11.313,7.833,21.74,18.948,25.09a20.438,20.438,0,0,0,17.372-2.548,30.809,30.809,0,0,0,10.72-13.1c4.934-11.28,4.217-25.068-3-35.253-1.2-1.7-3.536-2.668-5.455-1.43C71.283,3.95,70.248,6.5,71.537,8.319a30.06,30.06,0,0,1,1.789,2.829q.383.693.729,1.4c.128.263.239.536.371.8.115.261.1.213-.053-.147.068.162.133.325.2.489a35.81,35.81,0,0,1,1.8,6.6c.029.16.115.785.008-.013.039.291.071.583.1.876q.081.789.123,1.582a33.484,33.484,0,0,1,0,3.528q-.045.881-.137,1.759c-.025.234-.053.468-.081.7.1-.8.022-.173-.007-.012-.211,1.158-.429,2.307-.737,3.445A31.636,31.636,0,0,1,74.6,35.336c-.07.183-.375.905-.064.186q-.14.323-.287.642-.4.877-.864,1.728a29.272,29.272,0,0,1-1.752,2.843c-.144.206-.9,1.2-.431.606q-.719.9-1.505,1.742a22.794,22.794,0,0,1-2.576,2.384c.476-.372-.045.024-.125.077-.324.214-.638.439-.968.644-.548.342-1.115.644-1.69.935-.693.351-.275.136-.107.066-.357.148-.725.275-1.093.392q-.715.226-1.45.381c.033-.007-1.152.193-.558.112s-.6.043-.565.041a16.191,16.191,0,0,1-1.83.013c-.305-.015-.609-.055-.914-.07-.688-.035.916.192-.214-.035-.544-.109-1.085-.218-1.622-.362s-1.069-.314-1.594-.5c.057.02-1.072-.431-.564-.212.351.151-.6-.286-.714-.346a26.265,26.265,0,0,1-3.052-1.844c-.094-.064-.6-.458-.092-.057-.195-.156-.388-.316-.578-.478a22.146,22.146,0,0,1-1.63-1.539q-.522-.544-1-1.124c-.131-.157-.583-.759-.1-.111-.133-.179-.265-.358-.393-.54a23.654,23.654,0,0,1-1.724-2.861q-.151-.3-.3-.6c-.057-.119-.5-1.143-.142-.271-.171-.412-.329-.83-.477-1.251a25.768,25.768,0,0,1-.9-3.226c-.116-.548-.208-1.1-.294-1.651.148.954-.039-.523-.057-.771a25.657,25.657,0,0,1-.028-3.339c.028-.5.08-1,.129-1.493-.087.89-.017.136.021-.092.045-.273.094-.545.149-.817a23.274,23.274,0,0,1,.879-3.187c.1-.278.553-1.344.208-.582.227-.5.464-1,.724-1.484s.542-.961.84-1.425q.18-.279.369-.552c.063-.092.734-.96.17-.264a20.233,20.233,0,0,1,1.954-2.112q.578-.536,1.2-1.021c-.654.515-.2.154-.053.058.263-.172.516-.359.781-.529a22.814,22.814,0,0,1,3.05-1.629c-.773.347-.25.1-.076.044.347-.122.69-.256,1.041-.371q.825-.273,1.67-.482.768-.189,1.547-.327c.034-.006,1.062-.162.408-.072-.6.082.449-.042.57-.053a23.131,23.131,0,0,1,3.309-.051c.314.017.628.042.941.073.238.023,1.184.2.184.015.514.093,1.027.179,1.536.3q.835.194,1.652.454c.247.079.492.162.736.251.148.053,1.106.468.2.058a20.156,20.156,0,0,1,2.989,1.637c.172.116.339.238.509.357.839.589-.591-.539.176.146.472.421.935.838,1.377,1.292a3.987,3.987,0,0,0,5.639-5.639Z" fill="#040506"/>
    </g>
    <path id="Path_3" data-name="Path 3" d="M36.97,25.814C30.083,22.3,22.182,23.172,15.6,26.994A30.518,30.518,0,0,0,1.838,44.647C-.833,53.5-.052,62.882,1.34,71.879c1.435,9.27,3.312,18.485,5,27.711,2.709,14.765,5.38,29.607,10.215,43.857,4.617,13.61,11.223,26.883,21.539,37.1,12.135,12.015,28.549,17.936,45.063,20.979,17.478,3.22,36.151,3.062,52.777-3.827,14.358-5.95,26.239-16.019,35.583-28.339,9.632-12.7,16.056-27.593,19.949-42.992,4.485-17.744,5.81-36.159,6.091-54.4.137-8.9.569-18.164-1.6-26.874-1.99-7.983-6.9-15.668-14.586-19.2a20.366,20.366,0,0,0-12.2-1.7c-2.063.346-3.4,3-2.785,4.9a4.1,4.1,0,0,0,4.9,2.785c.176-.03.763-.053.006-.008.177-.011.354-.032.532-.043.411-.026.824-.035,1.236-.026s.818.051,1.227.082c.471.037-.134-.01-.192-.023.285.064.575.106.861.171a22.8,22.8,0,0,1,2.356.725c.43.147-.071-.031-.134-.06.215.1.432.2.645.3q.642.318,1.26.684c.363.214.718.441,1.067.678.169.114,1.07.788.51.345a22.05,22.05,0,0,1,2.038,1.839q.45.459.877.942c.162.184.318.372.477.559.021.025.4.5.146.173s.112.155.131.182c.142.2.285.4.423.6q.411.6.784,1.234a19.234,19.234,0,0,1,2.1,4.749,39.6,39.6,0,0,1,1.375,5.938c.043.279.086.558.123.837-.012-.093-.062-.481-.008-.008q.087.738.157,1.479c.1,1.061.171,2.125.224,3.19.1,2.061.131,4.124.137,6.187.026,8.662-.138,17.333-.669,25.979a206.571,206.571,0,0,1-2.927,25.191,146.736,146.736,0,0,1-6.746,24.887q-.447,1.2-.922,2.386-.237.594-.481,1.187l-.211.507c.282-.677-.044.1-.1.228q-1.055,2.445-2.223,4.837-2.341,4.792-5.139,9.343-1.4,2.268-2.909,4.463-.729,1.058-1.484,2.1-.376.519-.76,1.033c-.126.168-.923,1.215-.486.65a91.733,91.733,0,0,1-6.941,7.981,84.713,84.713,0,0,1-7.782,7.057l-.425.336c-.49.39.448-.339-.049.041q-.5.384-1.01.761-1.089.8-2.2,1.572-2.155,1.483-4.411,2.814t-4.608,2.5q-1.137.563-2.293,1.086c-.387.174-.776.343-1.164.513.651-.286-.491.2-.728.294a72.889,72.889,0,0,1-11.851,3.575q-1.476.312-2.963.57c-.5.086-.992.166-1.489.243l-.64.1-.427.061q.414-.054-.01,0-3.108.4-6.241.564a98.679,98.679,0,0,1-12.59-.14,117.259,117.259,0,0,1-24.145-4.478c-2-.581-3.99-1.214-5.954-1.913q-1.42-.506-2.824-1.058c-1.141-.451-1.326-.527-2.417-1.017a64.342,64.342,0,0,1-10.569-5.944c-.666-.466-1.319-.95-1.969-1.439.538.406-.091-.074-.284-.229q-.606-.485-1.2-.984-1.9-1.6-3.665-3.351T40.363,171.3q-.724-.835-1.422-1.695c-.286-.352-.567-.708-.848-1.065.5.629-.286-.384-.408-.548a88.622,88.622,0,0,1-9.891-17.371c-.141-.322-.279-.645-.418-.967.33.763-.215-.52-.278-.673q-.468-1.145-.913-2.3-.961-2.487-1.822-5.013c-1.122-3.283-2.129-6.606-3.049-9.952-1.847-6.719-3.342-13.53-4.687-20.365-1.6-8.122-3.033-16.277-4.526-24.419-.812-4.423-1.648-8.843-2.424-13.272-.354-2.019-.69-4.043-.967-6.074.057.418-.087-.7-.111-.9q-.091-.762-.172-1.526c-.12-1.16-.219-2.322-.288-3.486a58.611,58.611,0,0,1-.068-6.06q.065-1.5.223-2.994c.031-.283.061-.567.1-.849-.014.094-.068.47.007,0,.091-.562.186-1.123.3-1.682a43.986,43.986,0,0,1,1.749-5.966c-.29.824.095-.208.191-.411q.249-.525.523-1.037a24.8,24.8,0,0,1,1.293-2.145c.219-.325.446-.643.677-.959.443-.608.088-.107-.007.008.107-.13.212-.262.32-.391q.808-.971,1.706-1.862.835-.828,1.741-1.583c.172-.143.347-.282.521-.423-.044.036-.513.37-.143.116s.721-.519,1.092-.765q.964-.64,1.985-1.189.505-.271,1.023-.519c.2-.093.4-.178.593-.272-.306.146-.457.18-.054.028.7-.264,1.408-.509,2.133-.706q.537-.145,1.081-.261c.206-.044.414-.081.621-.121.1-.019.8-.118.248-.047s.553-.044.717-.054c.364-.023.728-.033,1.092-.032s.727.013,1.09.038c.207.015.415.045.621.056-.037,0-.736-.142-.287-.038.719.166,1.434.281,2.142.5.355.111.7.24,1.052.372-.817-.31.294.157.525.275a3.988,3.988,0,0,0,4.025-6.886Z" fill="#040506"/>
    <path id="Path_4" data-name="Path 4" d="M35.484,130.266C39.028,140.635,44,150.71,51.762,158.6c8.555,8.693,19.889,13.356,31.62,16,12.245,2.757,25.184,3.425,37.426.276a61.879,61.879,0,0,0,28.234-16.534A84.968,84.968,0,0,0,168,127.9a4.006,4.006,0,0,0-2.785-4.9,4.1,4.1,0,0,0-4.9,2.784c-.425,1.143-.867,2.278-1.339,3.4.286-.683-.029.059-.1.227q-.183.42-.371.839-.412.921-.848,1.833-1.621,3.4-3.54,6.652-1.87,3.162-4.024,6.144c-.358.495-.724.984-1.092,1.472-.074.1-.465.593-.047.062q-.284.36-.569.716-1.2,1.494-2.48,2.924a68.01,68.01,0,0,1-5.124,5.149q-1.344,1.211-2.756,2.344-.282.227-.566.449c.664-.521-.28.209-.341.254q-.723.54-1.463,1.057a56.822,56.822,0,0,1-6.319,3.843q-1.527.795-3.1,1.494c-.076.033-1.184.493-.385.169-.225.091-.45.183-.676.272q-1.171.463-2.365.87a57.273,57.273,0,0,1-8.305,2.146c-1.44.261-2.375.39-3.4.5q-2.247.244-4.506.337a77.794,77.794,0,0,1-16.839-1.171,88.772,88.772,0,0,1-16.81-4.62c-.266-.1-.531-.211-.8-.319-1.288-.523.639.306-.626-.269-.585-.265-1.17-.529-1.749-.809-1.348-.652-2.67-1.359-3.954-2.13q-1.725-1.035-3.355-2.218c-.2-.147-.4-.3-.6-.444-.958-.712.332.271-.223-.175-.529-.425-1.051-.857-1.563-1.3a49.29,49.29,0,0,1-5.844-6.06c-.154-.189-.306-.38-.458-.57-.576-.718.226.327-.27-.352-.433-.592-.867-1.181-1.284-1.785q-1.152-1.665-2.189-3.406a73.059,73.059,0,0,1-3.941-7.611c-.1-.23-.205-.459-.306-.689s-.2-.462-.3-.693q.2.471.035.081-.4-.963-.778-1.936c-.555-1.424-1.073-2.861-1.567-4.307a4.064,4.064,0,0,0-4.9-2.785c-1.954.633-3.508,2.792-2.785,4.905Z" fill="#040506"/>
    <g id="Group_2" data-name="Group 2">
      <path id="Path_5" data-name="Path 5" d="M165.809,12.257c-8.028-8.412-23.38-7.411-30.912,1.448s-6.534,23.4,1.506,31.8c4.8,5.02,12.21,7.967,18.885,6.036a20.723,20.723,0,0,0,9.973-7.1c8.644-10.589,9.151-27.028,1.177-38.129" fill="#2b9034"/>
      <path id="Path_6" data-name="Path 6" d="M168.628,9.437C161.276,1.874,149.557.791,140.2,4.922c-9.715,4.287-15.047,14.8-14.351,25.187.757,11.313,7.833,21.74,18.948,25.09a20.438,20.438,0,0,0,17.372-2.548,30.824,30.824,0,0,0,10.72-13.1c4.933-11.28,4.216-25.068-3-35.253-1.2-1.7-3.536-2.668-5.456-1.43-1.685,1.086-2.72,3.635-1.43,5.455a30.254,30.254,0,0,1,1.788,2.829q.384.693.729,1.4c.128.263.24.536.372.8.115.261.1.213-.054-.147q.1.243.2.489a35.807,35.807,0,0,1,1.8,6.6c.03.16.115.785.009-.013.039.291.07.583.1.876q.079.789.123,1.582a33.754,33.754,0,0,1,0,3.528q-.047.881-.138,1.759c-.024.234-.052.468-.081.7.1-.8.023-.173-.006-.012-.211,1.158-.429,2.307-.737,3.445a32.152,32.152,0,0,1-1.041,3.174c-.071.183-.375.905-.064.186q-.14.323-.287.642-.4.877-.865,1.728a29.272,29.272,0,0,1-1.752,2.843c-.144.206-.9,1.2-.43.606-.48.6-.979,1.182-1.505,1.742a22.966,22.966,0,0,1-2.576,2.384c.476-.372-.046.024-.126.077-.323.214-.638.439-.967.644-.549.342-1.115.644-1.691.935-.693.351-.275.136-.107.066-.357.148-.725.275-1.093.392q-.714.226-1.45.381c.033-.007-1.151.193-.558.112s-.6.043-.564.041a16.192,16.192,0,0,1-1.83.013c-.306-.015-.61-.055-.914-.07-.689-.035.915.192-.215-.035-.544-.109-1.085-.218-1.621-.362s-1.07-.314-1.594-.5c.056.02-1.073-.431-.565-.212.351.151-.6-.286-.714-.346a26.432,26.432,0,0,1-3.052-1.844c-.094-.064-.6-.458-.091-.057-.2-.156-.389-.316-.579-.478a22.346,22.346,0,0,1-1.63-1.539q-.521-.544-1-1.124c-.131-.157-.584-.759-.1-.111-.133-.179-.264-.358-.393-.54A23.782,23.782,0,0,1,136,38.046q-.151-.3-.3-.6c-.057-.119-.5-1.143-.141-.271-.172-.412-.33-.83-.478-1.251a25.768,25.768,0,0,1-.9-3.226c-.116-.548-.208-1.1-.294-1.651.149.954-.038-.523-.056-.771a25.657,25.657,0,0,1-.029-3.339c.029-.5.081-1,.129-1.493-.087.89-.017.136.021-.092q.067-.409.149-.817a23.135,23.135,0,0,1,.88-3.187c.1-.278.553-1.344.207-.582.228-.5.464-1,.725-1.484s.541-.961.84-1.425q.18-.279.369-.552c.063-.092.733-.96.17-.264a20.124,20.124,0,0,1,1.954-2.112c.384-.357.784-.7,1.195-1.021-.653.515-.2.154-.052.058.262-.172.516-.359.78-.529a22.886,22.886,0,0,1,3.051-1.629c-.773.347-.251.1-.077.044.348-.122.691-.256,1.041-.371.55-.182,1.108-.342,1.67-.482q.768-.189,1.547-.327c.035-.006,1.063-.162.408-.072-.6.082.45-.042.57-.053a23.145,23.145,0,0,1,3.31-.051c.313.017.627.042.94.073.239.023,1.184.2.185.015.513.093,1.026.179,1.535.3q.836.194,1.653.454c.246.079.492.162.735.251.148.053,1.106.468.2.058a20.105,20.105,0,0,1,2.989,1.637c.172.116.34.238.51.357.838.589-.591-.539.176.146.471.421.935.838,1.376,1.292a3.987,3.987,0,1,0,5.639-5.639Z" fill="#040506"/>
    </g>
    <path id="Path_7" data-name="Path 7" d="M96.385,201.274c-1.59,15.447,1.466,32.213,10.014,45.344A46.866,46.866,0,0,0,123.335,262.6a46.141,46.141,0,0,0,26.669,4.9c19.459-2.133,37.295-13.118,51.812-25.728,7.394-6.423,14.522-14.1,18.466-23.179a32.224,32.224,0,0,0,3.016-15.125,23.783,23.783,0,0,0-5.242-13.243c-5.622-7.065-15.4-10.138-23.561-5.568-7.087,3.967-10.548,12.342-11.9,19.971a60.7,60.7,0,0,0-.77,6.172l6-3.443c-6.19-4.4-12.631-8.615-20.362-9.455-6.965-.757-14.339,1.917-18.153,8.007-3.691,5.894-2.9,13.338-.24,19.441,2.788,6.4,8.349,10.975,14.179,14.528,5.767,3.514,11.965,6.243,17.6,9.992q1.97,1.311,3.861,2.735.219.163.436.329c.028.021.5.391.173.132s.142.115.17.137c.189.151.38.3.569.453q.921.741,1.822,1.508a86.638,86.638,0,0,1,6.857,6.515q1.625,1.721,3.156,3.528.765.9,1.507,1.826.342.426.679.856c.022.028.389.5.135.173s.2.265.241.32a90.89,90.89,0,0,1,9.832,16.378q.461.991.9,1.994c.089.2.423,1,.17.389.185.449.37.9.549,1.349q.876,2.2,1.633,4.445a87.385,87.385,0,0,1,2.539,9.113q.51,2.31.892,4.645.177,1.077.325,2.159c-.1-.7.012.128.042.384q.087.723.16,1.447.24,2.355.344,4.721c.072,1.655-.2,3.622.341,5.2a5.527,5.527,0,0,0,6.439,3.532,5.161,5.161,0,0,0,3.712-6.2,5.445,5.445,0,0,0-5.235-4.191,3.988,3.988,0,0,0,0,7.975,2.566,2.566,0,0,1-2.478-3.279c.791-2.91,5.89-2.737,5.273.614a11.267,11.267,0,0,0-.027-2.187q-.056-2.186-.23-4.365c-.239-3.014-.633-6.022-1.159-9a87.667,87.667,0,0,0-4.614-16.448,95.648,95.648,0,0,0-18.616-30.078A90.951,90.951,0,0,0,188,245.181a124.49,124.49,0,0,0-15.348-9.152c-5.583-2.983-10.383-5.671-14.237-10.372.571.7-.127-.184-.2-.281q-.3-.42-.572-.854-.555-.87-1.029-1.79-.157-.306-.307-.617c-.051-.107-.5-1.158-.155-.309a22.8,22.8,0,0,1-.781-2.272q-.232-.817-.4-1.653c-.065-.331-.123-.664-.171-1,.143.994.008-.113,0-.27a17.417,17.417,0,0,1-.034-1.979c.012-.27.05-.543.055-.813q.047-.453-.048.255.047-.319.107-.636a18.519,18.519,0,0,1,.594-2.158c.313-.978-.4.678.1-.221.155-.28.291-.57.454-.847s.348-.542.524-.814q.395-.541-.028.029.211-.255.438-.5.354-.383.741-.733.259-.235.534-.456-.519.4.035,0c.6-.36,1.189-.713,1.816-1.03.979-.5-.714.183.34-.13.45-.134.89-.295,1.345-.413q.515-.132,1.036-.232c.2-.037,1.234-.154.349-.068a21,21,0,0,1,2.508-.107q.54.012,1.078.053c.266.02,1.093.117.371.016a20.256,20.256,0,0,1,2.45.509,21.223,21.223,0,0,1,4.549,1.744,74.936,74.936,0,0,1,9.685,6.164c2.664,1.9,5.8-.71,6-3.443.062-.848.15-1.692.243-2.537.021-.19.122-.776-.016.1.034-.214.063-.429.1-.644q.114-.726.25-1.45a40.6,40.6,0,0,1,1.291-5.083q.2-.616.428-1.226c.056-.153.516-1.293.333-.87-.176.408.232-.5.32-.687q.339-.71.72-1.4a22.3,22.3,0,0,1,1.221-1.963c.116-.166.242-.326.355-.494.313-.464-.456.491-.066.094.312-.317.581-.683.89-1.006q.409-.427.848-.825c.215-.193,1.137-.842.331-.307a19.688,19.688,0,0,1,2-1.235c.177-.089.361-.166.537-.256-.758.389-.329.128-.119.06.389-.127.77-.267,1.164-.375.424-.115.85-.2,1.279-.283-.153.031-.815.06-.051.015.278-.016.556-.037.836-.042.445-.007.884.044,1.327.048.459,0-.184-.035-.239-.045.217.038.434.072.65.117.432.088.86.2,1.281.327.212.065.419.142.63.209,1.015.324-.686-.357.281.1a17.892,17.892,0,0,1,2.2,1.237c.189.126.369.267.56.388.5.321-.442-.392.008,0,.39.342.788.669,1.163,1.028q.5.481.967,1c.163.18.948,1.141.488.539a19.4,19.4,0,0,1,1.529,2.348c.227.41.426.832.637,1.249.07.138.283.7.016.011.084.217.169.434.248.653a17.78,17.78,0,0,1,.769,2.851c.031.17.061.34.087.512-.111-.728-.013-.034,0,.1.037.545.082,1.086.093,1.633s0,1.084-.021,1.625c-.012.27-.03.541-.051.81-.007.089-.107,1.108-.058.68.052-.447-.059.382-.074.474q-.067.4-.146.8-.159.8-.362,1.588a32.163,32.163,0,0,1-1.056,3.32c-.1.258-.2.514-.3.769.067-.166.25-.554-.083.191q-.3.664-.616,1.318c-.52,1.062-1.087,2.1-1.691,3.12q-.855,1.438-1.808,2.818-.473.687-.967,1.36c-.123.168-.248.334-.372.5q-.248.324-.007.018l-.255.326a85.03,85.03,0,0,1-9.432,10.029,112.558,112.558,0,0,1-10.279,8.314,122.472,122.472,0,0,1-11.115,7.213q-2.936,1.674-5.977,3.153-1.378.669-2.781,1.291c-.248.11-.5.219-.747.327-.625.273.455-.187-.173.075q-.844.353-1.7.684a68.136,68.136,0,0,1-12.485,3.6c-.452.082-.9.16-1.359.231q-.387.062-.776.117c.676-.1.014,0-.106.011-1.1.126-2.2.231-3.3.292a46.281,46.281,0,0,1-6.385-.076c-.513-.043-1.026-.1-1.538-.156-.128-.014-.778-.121-.09-.01-.191-.031-.383-.058-.574-.089q-1.631-.264-3.236-.657-1.522-.375-3.013-.868-.753-.249-1.494-.529c-.249-.093-.495-.193-.743-.288-.4-.154-.265-.109.05.028a40.013,40.013,0,0,1-4.7-2.415q-1.015-.614-1.993-1.289-.519-.358-1.026-.733c-.169-.125-.336-.252-.5-.378.769.581-.077-.072-.181-.156a41.8,41.8,0,0,1-3.7-3.406q-.875-.907-1.7-1.865-.36-.42-.71-.848c-.154-.188-.99-1.281-.454-.561a54.365,54.365,0,0,1-5.4-8.9q-.282-.587-.551-1.179c-.068-.151-.563-1.271-.389-.869.186.429-.235-.576-.3-.734q-.3-.762-.588-1.532-.915-2.479-1.624-5.029-.717-2.565-1.233-5.179-.259-1.311-.47-2.63c-.07-.44-.133-.881-.2-1.322.139.929-.062-.514-.09-.763a73.967,73.967,0,0,1-.452-10.8q.083-2.628.357-5.244c.214-2.082-1.987-4.077-3.988-3.987a4.1,4.1,0,0,0-3.987,3.987Z" fill="#040506"/>
    <g id="Group_3" data-name="Group 3">
      <path id="Path_8" data-name="Path 8" d="M244.767,325.985c-7.222-9.914-22.465-11.81-33.118-5.731s-16.69,18.468-17.371,30.715c-.818,14.7,8.633,31.747,23.352,31.718,12.662-.024,21.929-12.551,24.946-24.847,3.5-14.281.547-31.322-11.312-40.016" fill="#2b9034"/>
      <path id="Path_9" data-name="Path 9" d="M248.209,323.972a27.238,27.238,0,0,0-17.976-10.743,31.906,31.906,0,0,0-21.218,3.946A37.761,37.761,0,0,0,194.2,334.538a43.933,43.933,0,0,0-3.748,22.014c1.525,13.675,10.057,28.23,24.855,29.983,15.784,1.869,27.34-13.3,30.94-26.97,3.674-13.945,1.694-30.7-8.618-41.449a34.253,34.253,0,0,0-4.357-3.735c-1.68-1.248-4.525-.33-5.455,1.431a4.1,4.1,0,0,0,1.43,5.455c.046.034.5.377.141.1-.388-.3.173.145.261.217q.392.322.77.659.94.835,1.8,1.755c.495.528.949,1.088,1.419,1.637.293.342-.079-.107-.112-.151.132.179.266.356.4.536q.389.54.754,1.1a31.865,31.865,0,0,1,2.193,3.936c.167.355.329.713.482,1.073-.3-.709.07.206.165.455q.42,1.11.767,2.245a40.211,40.211,0,0,1,1.123,4.654c.072.4.135.793.2,1.19.125.79-.046-.486.042.31.1.862.179,1.724.232,2.59q.141,2.344.049,4.694-.048,1.217-.157,2.43-.046.519-.1,1.037c-.026.23-.056.459-.082.689.042-.371.066-.444,0-.03a45.432,45.432,0,0,1-2.419,9.356c-.126.328-.257.655-.39.98.29-.706-.133.287-.231.5q-.515,1.124-1.1,2.214a38.6,38.6,0,0,1-2.578,4.183c-.236.33-.474.66-.723.98.414-.532-.081.087-.239.276q-.82.99-1.72,1.91-.77.786-1.6,1.512c-.294.258-.6.5-.9.754-.344.292.1-.081.149-.113-.225.162-.446.328-.672.486a23.93,23.93,0,0,1-3.852,2.175c.817-.37-.208.064-.413.136-.359.127-.722.245-1.088.351a22.03,22.03,0,0,1-2.243.506c-.2.036-.752.041.071-.008-.166.01-.333.033-.5.047-.393.032-.787.053-1.181.06-.738.015-1.469-.032-2.205-.085s.72.151-.3-.043c-.3-.056-.592-.11-.886-.177a18.388,18.388,0,0,1-2.145-.623c-.279-.1-.554-.209-.829-.319.936.373-.044-.041-.259-.147a20.19,20.19,0,0,1-1.933-1.093q-.376-.24-.742-.5c-.162-.113-.319-.239-.484-.349.025.017.554.456.214.168-.538-.457-1.081-.9-1.593-1.387s-1.012-1.005-1.487-1.538q-.308-.345-.6-.7l-.3-.36c-.632-.769.276.427-.042-.055-.817-1.237-1.665-2.424-2.376-3.73q-.5-.917-.939-1.862-.1-.219-.2-.44c-.052-.114-.327-.746-.121-.264.192.449-.02-.052-.047-.122-.079-.2-.16-.4-.237-.6a37.046,37.046,0,0,1-1.353-4.346q-.271-1.105-.473-2.226c-.058-.32-.108-.641-.16-.961-.032-.189-.089-.781.008.1-.023-.214-.051-.428-.074-.642a33.788,33.788,0,0,1-.186-4.475c.019-.738.065-1.474.128-2.209.036-.421.082-.84.126-1.26.006-.054.079-.653.02-.19-.066.516.086-.563.083-.547a43.073,43.073,0,0,1,1.043-4.793q.341-1.225.755-2.43.177-.516.367-1.026.128-.341.26-.678c.027-.067.3-.754.142-.363s.066-.152.084-.19c.1-.221.2-.441.3-.66q.228-.492.468-.979.6-1.212,1.286-2.379.591-1.008,1.244-1.977.351-.519.72-1.027c.1-.145.212-.288.318-.432-.236.321-.169.209.034-.041a34.2,34.2,0,0,1,3.4-3.651c.61-.562,1.242-1.11,1.9-1.615-.523.4.157-.1.339-.23q.585-.414,1.189-.8.949-.606,1.946-1.135.5-.266,1.02-.509c.147-.07.3-.132.444-.2.431-.213-.613.23.1-.042a29.372,29.372,0,0,1,4.378-1.315c.32-.067.642-.129.964-.186.215-.037.433-.065.647-.105-.039.007-.717.081-.248.033.761-.08,1.519-.154,2.284-.185a31.345,31.345,0,0,1,4.564.183c.469.049-.217-.026-.254-.033.212.04.428.067.641.105.319.056.638.118.955.186q1.185.252,2.343.612c.665.208,1.318.447,1.966.7-.745-.292.092.047.366.177q.576.275,1.137.578.909.495,1.772,1.068c.309.206.6.435.909.642.371.248-.142-.107-.177-.138.161.139.329.268.491.406a21.03,21.03,0,0,1,1.62,1.539q.332.351.645.716c.141.164.276.331.413.5-.09-.109-.475-.634-.031-.035,1.237,1.671,3.509,2.685,5.455,1.431,1.654-1.066,2.758-3.663,1.43-5.456Z" fill="#040506"/>
    </g>
  </g>
</svg>
