<svg xmlns="http://www.w3.org/2000/svg" width="116.838" height="149.884" viewBox="0 0 116.838 149.884">
  <g id="Group_1" data-name="Group 1" transform="translate(1.763 1.25)">
    <path id="Path_1" data-name="Path 1" d="M48.859,76.281,73.016,12a3.283,3.283,0,0,0,.247-2.437,3.263,3.263,0,0,0-2-1.438A263.558,263.558,0,0,0,46.01,0Q22.358,65.634.538,131.91" fill="none" stroke="#fff" stroke-linecap="round" stroke-linejoin="round" stroke-miterlimit="10" stroke-width="2.5"/>
    <path id="Path_2" data-name="Path 2" d="M37.873,29.624Q49.708,34.6,61.814,38.888" fill="none" stroke="#fff" stroke-linecap="round" stroke-miterlimit="10" stroke-width="2.5"/>
    <path id="Path_3" data-name="Path 3" d="M.58,132.8l16.337,13.263a4.933,4.933,0,0,0,2.432,1.3c1.51.167,2.785-1.04,3.821-2.151l89.5-96.074a3.276,3.276,0,0,0,1.155-2.16,3.256,3.256,0,0,0-1.3-2.089A263.453,263.453,0,0,0,92.264,27.772Q45.407,79.46,0,132.439" fill="none" stroke="#fff" stroke-linecap="round" stroke-linejoin="round" stroke-miterlimit="10" stroke-width="2.5"/>
    <path id="Path_4" data-name="Path 4" d="M73.463,52.067q9.051,9.1,18.611,17.681" fill="none" stroke="#fff" stroke-linecap="round" stroke-miterlimit="10" stroke-width="2.5"/>
  </g>
</svg>
