<svg xmlns="http://www.w3.org/2000/svg" width="247.604" height="382.637" viewBox="0 0 247.604 382.637">
  <g id="Group_4" data-name="Group 4" transform="translate(-0.472 -3.363)">
    <g id="Group_1" data-name="Group 1">
      <path id="Path_1" data-name="Path 1" d="M74.422,13.269C66.431,4.895,51.149,5.892,43.651,14.71S37.147,38,45.15,46.363c4.782,5,12.155,7.931,18.8,6.009a20.634,20.634,0,0,0,9.928-7.07c8.605-10.541,9.11-26.9,1.171-37.956" fill="#009e46"/>
      <path id="Path_2" data-name="Path 2" d="M77.229,10.462c-7.319-7.529-18.985-8.606-28.3-4.494C39.254,10.235,33.947,20.7,34.639,31.04c.754,11.261,7.8,21.641,18.862,24.976A20.353,20.353,0,0,0,70.794,53.48,30.676,30.676,0,0,0,81.465,40.435c4.911-11.229,4.2-24.954-2.989-35.092-1.2-1.69-3.52-2.656-5.431-1.424C71.368,5,70.337,7.538,71.621,9.349a29.869,29.869,0,0,1,1.78,2.817q.382.688.726,1.4c.127.262.238.533.37.793q.171.39-.053-.146.1.243.2.487a35.561,35.561,0,0,1,1.795,6.575c.03.158.115.781.009-.013.039.289.07.58.1.871q.08.786.122,1.576a33.432,33.432,0,0,1,0,3.511q-.045.878-.137,1.752c-.024.232-.052.465-.081.7.1-.792.023-.172-.006-.012-.21,1.153-.427,2.3-.734,3.429a31.53,31.53,0,0,1-1.036,3.16c-.07.183-.373.9-.064.186-.092.214-.188.427-.285.638q-.4.875-.861,1.721a29.126,29.126,0,0,1-1.744,2.83c-.143.205-.9,1.192-.429.6-.477.6-.974,1.177-1.5,1.734a22.847,22.847,0,0,1-2.564,2.373c.474-.37-.045.024-.125.077-.322.213-.635.437-.963.641-.546.34-1.11.64-1.683.931-.69.349-.274.135-.107.065-.355.148-.721.274-1.087.39q-.712.225-1.444.38c.033-.007-1.146.192-.555.111s-.593.043-.562.042a16.286,16.286,0,0,1-1.822.012c-.3-.015-.606-.054-.91-.07-.685-.035.912.192-.213-.034-.542-.109-1.08-.217-1.614-.361s-1.065-.312-1.587-.5c.056.021-1.068-.428-.562-.211.35.151-.592-.285-.711-.344a26.251,26.251,0,0,1-3.038-1.836c-.093-.063-.593-.456-.091-.057-.195-.154-.387-.314-.576-.475a21.937,21.937,0,0,1-1.622-1.532q-.519-.542-1-1.119c-.131-.157-.581-.756-.1-.11-.132-.179-.264-.357-.391-.539a23.56,23.56,0,0,1-1.717-2.847c-.1-.2-.2-.4-.294-.6-.057-.119-.5-1.138-.141-.27-.171-.41-.328-.826-.476-1.246a25.7,25.7,0,0,1-.9-3.211c-.115-.545-.206-1.093-.292-1.643.148.949-.038-.521-.056-.768a25.427,25.427,0,0,1-.029-3.324c.028-.5.08-.991.129-1.486-.087.886-.017.136.021-.092q.068-.406.148-.812a23.226,23.226,0,0,1,.875-3.174c.1-.276.551-1.337.207-.579.226-.5.462-.993.721-1.476s.539-.958.837-1.419c.119-.185.241-.369.367-.55.062-.091.73-.955.169-.262a20.055,20.055,0,0,1,1.945-2.1q.574-.532,1.19-1.017c-.65.513-.2.154-.052.058.261-.171.514-.357.777-.526a22.784,22.784,0,0,1,3.036-1.622c-.769.346-.249.1-.076.044.346-.121.688-.255,1.036-.369q.822-.271,1.663-.48.763-.189,1.54-.326c.034-.006,1.058-.161.406-.072-.594.082.448-.041.567-.052a23.082,23.082,0,0,1,3.295-.051q.468.027.936.072c.238.024,1.179.2.184.016.511.093,1.022.178,1.528.3q.831.193,1.645.453c.246.079.49.161.733.249.147.053,1.1.466.2.058a20.056,20.056,0,0,1,2.975,1.629c.171.116.338.237.507.356.834.586-.588-.537.175.145.47.419.931.835,1.37,1.287a3.97,3.97,0,0,0,5.614-5.614Z"/>
    </g>
    <path id="Path_3" data-name="Path 3" d="M37.211,26.765c-6.856-3.5-14.721-2.63-21.269,1.174a30.385,30.385,0,0,0-13.7,17.573C-.42,54.324.357,63.664,1.743,72.62c1.428,9.228,3.3,18.4,4.982,27.585,2.7,14.7,5.355,29.472,10.167,43.658,4.6,13.547,11.173,26.76,21.441,36.926,12.081,11.959,28.42,17.854,44.859,20.883,17.4,3.205,35.987,3.048,52.536-3.81,14.293-5.922,26.12-15.945,35.421-28.209,9.589-12.643,15.984-27.468,19.859-42.8,4.464-17.664,5.783-35.994,6.063-54.157.136-8.86.567-18.081-1.6-26.751-1.981-7.947-6.87-15.6-14.519-19.115a20.272,20.272,0,0,0-12.144-1.688c-2.053.344-3.385,2.988-2.772,4.883a4.083,4.083,0,0,0,4.883,2.772c.175-.029.759-.053.006-.008.176-.011.352-.032.529-.043q.615-.039,1.231-.026c.409.01.814.051,1.221.082.469.036-.134-.01-.191-.023.284.064.573.106.857.17a22.592,22.592,0,0,1,2.345.722c.428.146-.071-.03-.133-.06.214.1.43.2.642.3q.639.316,1.254.681c.361.213.715.439,1.062.674.168.115,1.065.785.508.344a21.99,21.99,0,0,1,2.028,1.831q.45.458.873.937c.162.183.318.371.476.557.02.025.4.5.145.172s.112.155.131.181c.141.2.283.4.42.6q.409.6.781,1.228a19.171,19.171,0,0,1,2.086,4.727,39.488,39.488,0,0,1,1.368,5.911c.043.278.086.556.123.834-.013-.093-.063-.479-.008-.009.057.491.11.981.156,1.473.1,1.056.17,2.115.223,3.175.1,2.052.131,4.106.137,6.16.025,8.622-.138,17.253-.666,25.86a205.919,205.919,0,0,1-2.914,25.076A146.085,146.085,0,0,1,178.9,139.1q-.445,1.192-.918,2.375-.237.593-.48,1.182-.1.252-.209.5c.28-.675-.044.1-.1.227q-1.049,2.433-2.212,4.815-2.332,4.77-5.116,9.3-1.392,2.257-2.9,4.443-.725,1.053-1.477,2.087-.375.516-.757,1.028c-.125.167-.919,1.209-.484.647a91.387,91.387,0,0,1-6.909,7.945,84.365,84.365,0,0,1-7.747,7.025c-.14.112-.282.223-.423.335-.488.388.446-.338-.049.041-.333.254-.668.507-1,.756q-1.083.8-2.194,1.566-2.146,1.476-4.391,2.8t-4.587,2.485q-1.131.561-2.283,1.081c-.384.174-.771.341-1.158.511.648-.284-.489.2-.725.293a72.55,72.55,0,0,1-11.8,3.558q-1.469.312-2.949.568-.741.127-1.483.242l-.637.095-.425.061c.275-.036.271-.036-.01,0q-3.094.395-6.212.561a98.341,98.341,0,0,1-12.533-.138A116.742,116.742,0,0,1,72.7,191.037q-2.989-.865-5.926-1.9-1.415-.5-2.811-1.053c-1.136-.449-1.32-.524-2.407-1.012a64.008,64.008,0,0,1-10.52-5.917c-.663-.464-1.313-.946-1.96-1.432.536.4-.091-.074-.283-.228q-.6-.483-1.194-.981-1.892-1.593-3.649-3.335t-3.358-3.59q-.721-.831-1.416-1.686c-.285-.351-.564-.706-.844-1.061.494.627-.284-.382-.406-.546A88.231,88.231,0,0,1,28.077,151c-.141-.321-.278-.642-.417-.963.329.76-.213-.518-.276-.67q-.467-1.14-.909-2.289-.957-2.477-1.813-4.99c-1.118-3.269-2.12-6.576-3.036-9.907-1.838-6.689-3.326-13.469-4.665-20.273-1.591-8.085-3.02-16.2-4.506-24.308-.808-4.4-1.64-8.8-2.413-13.211-.352-2.01-.686-4.025-.962-6.047.057.417-.087-.7-.111-.9q-.091-.759-.171-1.519c-.12-1.155-.218-2.312-.287-3.47a58.654,58.654,0,0,1-.068-6.033q.065-1.492.223-2.98c.03-.282.061-.565.1-.846-.013.094-.068.468.007,0,.091-.559.186-1.118.3-1.674a43.956,43.956,0,0,1,1.74-5.939c-.288.82.095-.207.191-.409q.247-.522.52-1.033a24.811,24.811,0,0,1,1.288-2.134c.217-.324.444-.641.674-.956.441-.6.087-.106-.008.009.107-.13.212-.261.319-.389q.806-.966,1.7-1.853.831-.826,1.732-1.577c.171-.142.345-.281.519-.42-.044.035-.511.368-.142.115s.717-.517,1.086-.762q.962-.637,1.977-1.184.5-.27,1.018-.516c.195-.093.395-.178.59-.271-.305.146-.455.179-.054.028.7-.262,1.4-.507,2.124-.7q.534-.144,1.076-.259c.2-.044.412-.081.618-.121.1-.019.794-.118.247-.047s.55-.044.714-.054q.543-.033,1.087-.032c.362,0,.724.013,1.085.039.206.014.413.044.618.055-.037,0-.732-.141-.285-.038.715.165,1.426.28,2.131.5.354.111.7.239,1.048.37-.814-.308.292.157.522.274a3.97,3.97,0,1,0,4.007-6.854Z"/>
    <path id="Path_4" data-name="Path 4" d="M35.732,130.742c3.528,10.321,8.48,20.35,16.2,28.2,8.515,8.654,19.8,13.295,31.475,15.924,12.19,2.744,25.07,3.409,37.257.274a61.593,61.593,0,0,0,28.1-16.459,84.582,84.582,0,0,0,18.874-30.3,3.988,3.988,0,0,0-2.772-4.882,4.076,4.076,0,0,0-4.883,2.772c-.423,1.137-.864,2.268-1.334,3.386.286-.679-.028.059-.1.226-.122.279-.244.557-.369.835q-.411.917-.844,1.825-1.614,3.387-3.525,6.622-1.861,3.147-4.005,6.116c-.356.493-.72.98-1.086,1.465-.074.1-.464.59-.048.062q-.282.357-.566.713-1.2,1.486-2.468,2.91a67.409,67.409,0,0,1-5.1,5.125q-1.338,1.206-2.743,2.334-.28.225-.564.447c.662-.519-.278.208-.339.253q-.72.537-1.456,1.052a56.623,56.623,0,0,1-6.291,3.826q-1.52.792-3.086,1.487c-.075.033-1.178.491-.383.168-.224.091-.448.182-.673.271q-1.167.46-2.354.866a56.959,56.959,0,0,1-8.268,2.136c-1.433.26-2.364.388-3.385.5q-2.236.243-4.486.335a77.489,77.489,0,0,1-16.763-1.165,88.47,88.47,0,0,1-16.733-4.6c-.265-.1-.529-.211-.792-.318-1.282-.521.636.3-.623-.267-.582-.265-1.165-.527-1.741-.806-1.342-.649-2.658-1.353-3.936-2.12q-1.718-1.03-3.34-2.208c-.2-.146-.4-.295-.6-.443-.954-.708.33.271-.222-.173-.526-.423-1.047-.853-1.557-1.3a49.208,49.208,0,0,1-5.817-6.033c-.153-.188-.3-.378-.456-.567-.573-.715.226.325-.268-.351-.431-.589-.864-1.176-1.279-1.776q-1.146-1.659-2.179-3.391a72.891,72.891,0,0,1-3.923-7.577c-.1-.228-.2-.457-.3-.686s-.2-.459-.3-.689q.2.47.034.08-.4-.959-.775-1.927c-.552-1.417-1.068-2.848-1.56-4.287a4.043,4.043,0,0,0-4.882-2.772c-1.945.629-3.491,2.779-2.772,4.883Z"/>
    <g id="Group_2" data-name="Group 2">
      <path id="Path_5" data-name="Path 5" d="M165.463,13.269c-7.991-8.374-23.273-7.377-30.77,1.441s-6.5,23.291,1.5,31.653c4.783,5,12.155,7.931,18.8,6.009a20.632,20.632,0,0,0,9.929-7.07c8.6-10.541,9.109-26.9,1.171-37.956" fill="#009e46"/>
      <path id="Path_6" data-name="Path 6" d="M168.27,10.462c-7.319-7.529-18.984-8.606-28.3-4.494C130.295,10.235,124.988,20.7,125.68,31.04c.754,11.261,7.8,21.641,18.862,24.976a20.353,20.353,0,0,0,17.293-2.536,30.676,30.676,0,0,0,10.671-13.045c4.911-11.229,4.2-24.954-2.989-35.092-1.2-1.69-3.52-2.656-5.431-1.424-1.677,1.081-2.708,3.619-1.424,5.43a29.875,29.875,0,0,1,1.781,2.817q.381.688.725,1.4c.127.262.239.533.37.793q.173.39-.053-.146c.067.162.133.324.2.487a35.561,35.561,0,0,1,1.795,6.575c.03.158.115.781.009-.013.039.289.07.58.1.871q.079.786.122,1.576a33.43,33.43,0,0,1,0,3.511q-.045.878-.137,1.752c-.024.232-.052.465-.08.7.1-.792.022-.172-.007-.012-.21,1.153-.427,2.3-.733,3.429a31.532,31.532,0,0,1-1.037,3.16c-.07.183-.373.9-.064.186-.092.214-.188.427-.285.638q-.4.875-.861,1.721a28.933,28.933,0,0,1-1.744,2.83c-.143.205-.9,1.192-.428.6-.478.6-.975,1.177-1.5,1.734a22.771,22.771,0,0,1-2.565,2.373c.474-.37-.045.024-.124.077-.322.213-.636.437-.964.641-.545.34-1.11.64-1.683.931-.69.349-.273.135-.106.065-.355.148-.722.274-1.088.39q-.711.225-1.443.38c.032-.007-1.147.192-.556.111s-.593.043-.562.042a16.27,16.27,0,0,1-1.821.012c-.3-.015-.607-.054-.91-.07-.686-.035.911.192-.214-.034-.542-.109-1.08-.217-1.614-.361s-1.065-.312-1.587-.5c.056.021-1.068-.428-.562-.211.35.151-.592-.285-.71-.344a26.25,26.25,0,0,1-3.038-1.836c-.094-.063-.594-.456-.091-.057-.2-.154-.387-.314-.577-.475A22.135,22.135,0,0,1,139,43.556q-.519-.542-1-1.119c-.131-.157-.581-.756-.1-.11-.132-.179-.263-.357-.391-.539a23.428,23.428,0,0,1-1.716-2.847c-.1-.2-.2-.4-.295-.6-.057-.119-.5-1.138-.141-.27-.171-.41-.328-.826-.476-1.246a25.7,25.7,0,0,1-.9-3.211c-.115-.545-.207-1.093-.293-1.643.148.949-.038-.521-.056-.768a25.6,25.6,0,0,1-.029-3.324c.029-.5.081-.991.129-1.486-.087.886-.017.136.021-.092q.067-.406.148-.812a23.089,23.089,0,0,1,.876-3.174c.1-.276.55-1.337.206-.579.227-.5.462-.993.721-1.476s.539-.958.837-1.419c.119-.185.242-.369.367-.55.063-.091.73-.955.169-.262a20.163,20.163,0,0,1,1.945-2.1c.383-.355.781-.694,1.19-1.017-.65.513-.2.154-.052.058.262-.171.514-.357.777-.526a22.8,22.8,0,0,1,3.037-1.622c-.77.346-.25.1-.077.044.347-.121.688-.255,1.037-.369q.822-.271,1.662-.48.765-.189,1.54-.326c.035-.006,1.058-.161.406-.072-.594.082.448-.041.567-.052a23.084,23.084,0,0,1,3.295-.051c.312.018.625.042.936.072.238.024,1.179.2.184.016.511.093,1.022.178,1.528.3q.833.193,1.645.453c.246.079.49.161.733.249.147.053,1.1.466.2.058a20.057,20.057,0,0,1,2.975,1.629c.171.116.338.237.507.356.835.586-.588-.537.175.145.47.419.931.835,1.371,1.287a3.969,3.969,0,1,0,5.613-5.614Z"/>
    </g>
    <path id="Path_7" data-name="Path 7" d="M96.356,201.426c-1.583,15.377,1.459,32.066,9.968,45.138a46.651,46.651,0,0,0,16.859,15.912,45.927,45.927,0,0,0,26.547,4.879c19.371-2.122,37.126-13.058,51.577-25.611,7.361-6.393,14.456-14.033,18.382-23.072a32.1,32.1,0,0,0,3-15.057,23.668,23.668,0,0,0-5.218-13.182c-5.6-7.034-15.329-10.092-23.454-5.544-7.054,3.95-10.5,12.286-11.851,19.881a60.43,60.43,0,0,0-.766,6.144l5.973-3.427c-6.162-4.382-12.574-8.576-20.27-9.413-6.933-.753-14.274,1.909-18.07,7.971-3.674,5.867-2.888,13.278-.239,19.352,2.776,6.366,8.311,10.926,14.115,14.462,5.74,3.5,11.91,6.215,17.515,9.947q1.961,1.3,3.844,2.722l.433.328c.029.021.5.389.173.132s.141.114.169.136l.567.451q.917.738,1.814,1.5a86.541,86.541,0,0,1,6.825,6.485q1.617,1.713,3.141,3.512.762.9,1.5,1.818c.227.282.452.567.676.852.021.027.387.5.134.172s.2.264.24.319a90.431,90.431,0,0,1,9.787,16.3q.459.987.894,1.985c.088.2.42,1,.168.387.185.447.369.894.547,1.344q.871,2.19,1.626,4.424a87.161,87.161,0,0,1,2.527,9.072q.508,2.3.888,4.623.175,1.072.323,2.15c-.094-.7.012.127.043.382.057.479.11.96.159,1.44q.238,2.345.342,4.7c.072,1.648-.2,3.607.34,5.174A5.5,5.5,0,0,0,224,323.732a5.137,5.137,0,0,0,3.7-6.174,5.421,5.421,0,0,0-5.212-4.172,3.969,3.969,0,0,0,0,7.938,2.554,2.554,0,0,1-2.466-3.264c.787-2.9,5.862-2.725,5.248.611a11.241,11.241,0,0,0-.026-2.177q-.057-2.175-.229-4.345c-.239-3-.63-5.995-1.154-8.958a87.279,87.279,0,0,0-4.593-16.374,95.23,95.23,0,0,0-18.532-29.941,90.625,90.625,0,0,0-13.178-11.743,123.88,123.88,0,0,0-15.278-9.11c-5.558-2.969-10.336-5.646-14.173-10.325.569.694-.126-.183-.195-.28q-.294-.418-.569-.85-.552-.865-1.024-1.781-.158-.306-.306-.615c-.051-.107-.494-1.153-.154-.308a22.5,22.5,0,0,1-.778-2.261q-.231-.814-.4-1.646c-.065-.329-.123-.661-.17-.993.142.99.008-.113,0-.269a17.25,17.25,0,0,1-.034-1.969c.012-.27.05-.541.055-.81q.046-.45-.048.254.047-.318.106-.633a18.3,18.3,0,0,1,.592-2.148c.312-.974-.4.675.1-.221.155-.278.29-.567.452-.842s.347-.54.522-.811q.393-.538-.028.029.212-.254.436-.5.353-.381.737-.729c.173-.157.35-.308.532-.455q-.516.4.035,0c.6-.359,1.184-.711,1.808-1.026.975-.493-.711.183.339-.13.448-.133.885-.292,1.338-.41q.512-.132,1.032-.231c.194-.037,1.228-.154.347-.068a21.019,21.019,0,0,1,2.5-.106q.537.012,1.074.052c.265.02,1.087.117.369.016a20.266,20.266,0,0,1,2.439.507,21.174,21.174,0,0,1,4.528,1.736,74.715,74.715,0,0,1,9.641,6.136c2.652,1.886,5.773-.707,5.973-3.427.061-.844.149-1.685.241-2.526.021-.189.122-.772-.015.1.034-.213.062-.427.1-.641q.114-.725.249-1.444a40.391,40.391,0,0,1,1.285-5.059c.135-.41.276-.817.426-1.221.056-.152.513-1.287.332-.866-.175.406.231-.5.319-.683q.336-.707.715-1.392a22.6,22.6,0,0,1,1.216-1.955c.116-.165.242-.324.354-.491.311-.462-.454.488-.066.094.31-.317.578-.681.886-1q.406-.426.845-.821c.213-.192,1.131-.839.328-.306a19.6,19.6,0,0,1,2-1.23c.176-.088.359-.164.534-.254-.754.387-.327.127-.118.059.387-.125.766-.265,1.159-.372.421-.116.845-.2,1.273-.283-.153.032-.812.06-.052.015.278-.016.554-.036.833-.041.443-.008.88.044,1.321.047.457,0-.183-.034-.238-.044.216.037.432.072.647.116.43.088.856.2,1.275.326.211.064.417.141.627.208,1.011.322-.682-.356.28.1a17.734,17.734,0,0,1,2.193,1.232c.188.125.367.265.557.386.5.319-.44-.39.008,0,.388.34.785.666,1.158,1.023q.5.479.962.993c.163.18.944,1.136.486.537a19.116,19.116,0,0,1,1.522,2.338c.226.408.424.827.635,1.243.069.137.281.7.015.011.084.216.169.431.247.65a17.609,17.609,0,0,1,.766,2.837q.047.255.086.51c-.11-.725-.013-.034,0,.1.037.542.081,1.081.092,1.625s0,1.079-.02,1.618q-.02.4-.051.807c-.007.088-.107,1.1-.058.676.051-.445-.059.381-.074.472-.045.266-.093.531-.146.795q-.158.8-.36,1.581a32.134,32.134,0,0,1-1.051,3.306q-.146.384-.3.765c.066-.165.249-.552-.083.19-.2.44-.4.878-.613,1.311-.518,1.058-1.082,2.094-1.684,3.106q-.851,1.432-1.8,2.8-.471.686-.963,1.355c-.122.167-.247.333-.37.5-.164.215-.166.22-.007.017l-.254.325a84.735,84.735,0,0,1-9.389,9.983,112.194,112.194,0,0,1-10.233,8.277,122.2,122.2,0,0,1-11.064,7.18q-2.922,1.666-5.949,3.139-1.374.665-2.769,1.284c-.247.11-.5.218-.744.326-.622.271.454-.186-.172.075q-.84.349-1.69.68a67.754,67.754,0,0,1-12.428,3.588q-.675.123-1.353.23c-.257.041-.515.079-.773.116.673-.1.014,0-.1.011-1.093.125-2.187.23-3.286.291a46.173,46.173,0,0,1-6.356-.076c-.511-.042-1.021-.1-1.531-.154-.127-.015-.774-.121-.09-.011-.19-.031-.381-.058-.571-.089q-1.623-.263-3.221-.654-1.517-.374-3-.864-.749-.248-1.487-.526c-.247-.093-.493-.192-.74-.287-.4-.153-.263-.109.051.028a39.809,39.809,0,0,1-4.681-2.4q-1.011-.612-1.984-1.283-.518-.357-1.022-.73c-.168-.124-.334-.25-.5-.376.765.578-.077-.072-.18-.155a41.731,41.731,0,0,1-3.681-3.391q-.87-.9-1.689-1.857-.359-.417-.707-.843c-.153-.188-.985-1.276-.452-.559a54.194,54.194,0,0,1-5.376-8.862q-.28-.584-.548-1.173c-.068-.15-.561-1.265-.387-.865.185.427-.235-.574-.3-.73q-.3-.759-.586-1.526-.911-2.468-1.617-5.006t-1.226-5.156q-.259-1.3-.468-2.617c-.07-.438-.133-.877-.2-1.316.138.924-.062-.512-.091-.76a73.707,73.707,0,0,1-.449-10.752c.054-1.745.176-3.485.355-5.221.213-2.072-1.978-4.058-3.969-3.969a4.078,4.078,0,0,0-3.969,3.969Z"/>
    <g id="Group_3" data-name="Group 3">
      <path id="Path_8" data-name="Path 8" d="M244.062,325.57c-7.188-9.87-22.363-11.757-32.967-5.706S194.481,338.249,193.8,350.44c-.814,14.629,8.594,31.6,23.246,31.574,12.6-.025,21.829-12.494,24.832-24.734,3.488-14.217.545-31.18-11.26-39.834" fill="#009e46"/>
      <path id="Path_9" data-name="Path 9" d="M247.489,323.566a27.112,27.112,0,0,0-17.894-10.7,31.765,31.765,0,0,0-21.122,3.929,37.581,37.581,0,0,0-14.743,17.284A43.729,43.729,0,0,0,190,356c1.519,13.612,10.012,28.1,24.743,29.846,15.712,1.86,27.215-13.245,30.8-26.847,3.657-13.882,1.686-30.565-8.579-41.261a34.148,34.148,0,0,0-4.337-3.717c-1.673-1.243-4.5-.33-5.431,1.424a4.086,4.086,0,0,0,1.424,5.43c.045.034.5.375.14.1-.386-.3.173.144.26.216q.39.32.766.656.936.831,1.794,1.746c.492.526.944,1.083,1.412,1.63.292.341-.079-.106-.111-.15.131.178.264.354.394.533q.387.539.751,1.092a31.848,31.848,0,0,1,2.183,3.919q.249.529.479,1.068c-.3-.706.07.2.164.453q.419,1.1.764,2.234A40.06,40.06,0,0,1,238.731,339c.071.4.134.79.2,1.185.124.786-.046-.484.042.309.094.858.178,1.716.23,2.578a46.669,46.669,0,0,1,.049,4.672q-.046,1.212-.156,2.419c-.031.344-.065.689-.1,1.032-.026.229-.056.457-.082.686.042-.369.065-.442,0-.03a45.215,45.215,0,0,1-2.408,9.314q-.187.49-.388.975c.288-.7-.133.286-.23.5q-.513,1.119-1.09,2.2a38.162,38.162,0,0,1-2.567,4.164c-.234.329-.471.657-.719.976.411-.53-.081.086-.238.275q-.817.984-1.713,1.9-.765.783-1.588,1.506c-.293.257-.6.5-.895.75-.343.291.1-.08.148-.112-.223.161-.443.326-.669.484a23.829,23.829,0,0,1-3.834,2.165c.814-.369-.207.063-.411.136-.357.126-.718.243-1.083.348a22.1,22.1,0,0,1-2.233.5c-.2.036-.749.041.071-.008-.166.01-.332.033-.5.047q-.587.048-1.176.06c-.735.015-1.462-.033-2.194-.085s.716.151-.3-.042c-.295-.056-.59-.111-.882-.177a18.161,18.161,0,0,1-2.135-.62c-.278-.1-.552-.208-.826-.317.932.371-.044-.041-.257-.147a20.019,20.019,0,0,1-1.925-1.088q-.373-.238-.738-.494c-.162-.114-.318-.238-.482-.348.024.017.551.454.212.167-.535-.455-1.076-.9-1.585-1.381s-1.007-1-1.48-1.53q-.306-.345-.6-.7c-.1-.118-.195-.239-.293-.358-.629-.765.275.425-.042-.055-.813-1.231-1.657-2.412-2.365-3.713q-.5-.912-.935-1.853c-.068-.146-.134-.292-.2-.438-.051-.113-.326-.743-.121-.263.191.448-.02-.052-.047-.121-.078-.2-.158-.4-.235-.6a36.748,36.748,0,0,1-1.347-4.325q-.27-1.1-.471-2.217c-.057-.318-.107-.637-.159-.956-.031-.189-.088-.778.008.1-.023-.213-.051-.426-.074-.639a33.821,33.821,0,0,1-.185-4.455c.019-.734.065-1.467.127-2.2.036-.419.082-.837.126-1.255.006-.054.078-.649.019-.188-.065.513.087-.561.084-.545a42.7,42.7,0,0,1,1.038-4.772q.339-1.219.751-2.419.177-.513.366-1.021c.084-.225.171-.45.259-.674.026-.067.3-.751.141-.362s.066-.151.083-.189c.1-.22.2-.439.3-.657q.227-.49.466-.974.6-1.207,1.28-2.369.588-1,1.238-1.968.35-.518.717-1.022.157-.216.317-.43c-.235.319-.168.208.034-.041a33.984,33.984,0,0,1,3.381-3.634c.608-.56,1.236-1.105,1.892-1.608-.52.4.157-.1.338-.229q.582-.412,1.184-.8c.63-.4,1.275-.781,1.937-1.13q.5-.266,1.015-.507c.146-.069.3-.131.442-.2.429-.212-.61.229.1-.042a29.084,29.084,0,0,1,4.358-1.308c.319-.068.64-.129.961-.186.214-.037.43-.064.643-.1-.038.007-.713.081-.247.032.758-.079,1.513-.153,2.274-.184a31.336,31.336,0,0,1,4.543.182c.467.049-.216-.025-.253-.032.212.04.427.067.639.1q.477.084.95.185,1.179.252,2.333.61c.662.206,1.311.445,1.957.7-.742-.291.092.047.364.176q.573.273,1.132.576c.6.328,1.193.682,1.764,1.063.307.2.6.433.9.639.369.247-.141-.107-.176-.137.159.138.327.267.488.4a20.651,20.651,0,0,1,1.613,1.532q.33.35.642.713c.14.163.274.329.411.494-.09-.109-.473-.63-.031-.034,1.232,1.663,3.494,2.672,5.43,1.424,1.647-1.062,2.746-3.646,1.424-5.431Z"/>
    </g>
  </g>
</svg>
