<svg id="Group_11" data-name="Group 11" xmlns="http://www.w3.org/2000/svg" width="120" height="120" viewBox="0 0 120 120">
  <g id="Group_2" data-name="Group 2">
    <g id="Group_1" data-name="Group 1">
      <circle id="Ellipse_1" data-name="Ellipse 1" cx="58.378" cy="58.378" r="58.378" transform="translate(1.622 1.622)" fill="#fff"/>
      <path id="Path_1" data-name="Path 1" d="M60,120a60,60,0,1,1,60-60A60.068,60.068,0,0,1,60,120ZM60,3.243A56.757,56.757,0,1,0,116.757,60,56.822,56.822,0,0,0,60,3.243Z" fill="#862734"/>
    </g>
  </g>
  <g id="Group_10" data-name="Group 10">
    <g id="Group_9" data-name="Group 9">
      <g id="Group_3" data-name="Group 3">
        <path id="Path_2" data-name="Path 2" d="M59.026,48.78H88.109V45.5H60.74V41.075L60.885,41c5.719-2.965,8.616-7.03,8.616-12.08,0-8.4-7.218-13.608-13.907-13.608s-13.912,5.2-13.912,13.608c0,5.385,3.422,9.946,9.387,12.513l.162.07.063,4.005H31.056V48.78H53.027a1.743,1.743,0,0,0,1.223-.495,1.552,1.552,0,0,0,.484-1.164l-.1-6.752a1.648,1.648,0,0,0-1.1-1.506C50.378,37.717,45.1,34.9,45.1,28.916a10.5,10.5,0,0,1,20.989,0c0,4.026-2.486,7.107-7.824,9.7a1.625,1.625,0,0,0-.943,1.453V47.14a1.586,1.586,0,0,0,.5,1.154,1.758,1.758,0,0,0,1.208.486" fill="#862734"/>
      </g>
      <g id="Group_4" data-name="Group 4">
        <path id="Path_3" data-name="Path 3" d="M76.315,80.725H88.108V77.587H77.977l.03-1.832.155-.07A9.146,9.146,0,0,0,83.9,67.141a9.68,9.68,0,0,0-19.355,0,9.875,9.875,0,0,0,5.236,8.482l.14.075v1.889H62.316v3.138h9.241a1.657,1.657,0,0,0,1.159-.464,1.527,1.527,0,0,0,.477-1.108v-4.4a1.547,1.547,0,0,0-.9-1.4c-3.138-1.519-4.477-3.552-4.477-6.209a6.4,6.4,0,0,1,12.8,0c0,4.2-3.015,5.44-4.816,6.1a1.57,1.57,0,0,0-1.051,1.445l-.076,4.44a1.519,1.519,0,0,0,.469,1.12,1.667,1.667,0,0,0,1.167.479" fill="#862734"/>
      </g>
      <g id="Group_5" data-name="Group 5">
        <path id="Path_4" data-name="Path 4" d="M54.058,51.792a1.734,1.734,0,0,0-1.375-.666H31.056V54.4H50.385L34.837,103.416h3.57L54.318,53.233a1.594,1.594,0,0,0-.26-1.441" fill="#862734"/>
      </g>
      <g id="Group_6" data-name="Group 6">
        <path id="Path_5" data-name="Path 5" d="M88.108,51.126H58.4a1.673,1.673,0,0,0-1.706,1.636v50.654h3.414V54.4h28Z" fill="#862734"/>
      </g>
      <g id="Group_7" data-name="Group 7">
        <path id="Path_6" data-name="Path 6" d="M73.209,103.611V83.963a1.608,1.608,0,0,0-1.638-1.569H62.316v3.14h7.613v18.077Z" fill="#862734"/>
      </g>
      <g id="Group_8" data-name="Group 8">
        <path id="Path_7" data-name="Path 7" d="M88.108,85.534v-3.14H76.543a1.658,1.658,0,0,0-1.319.642,1.563,1.563,0,0,0-.252,1.382l5.682,19.193h3.414l-5.33-18.077Z" fill="#862734"/>
      </g>
    </g>
  </g>
</svg>
