<svg xmlns="http://www.w3.org/2000/svg" width="87.703" height="96.468" viewBox="0 0 87.703 96.468">
  <g id="Group_3" data-name="Group 3" transform="translate(-4.536 -0.343)">
    <path id="Path_1" data-name="Path 1" d="M62.617,2.925C46.643-4.229,24.5,4.318,13.984,18.311s-11.9,33.577-5.91,50.024a48.619,48.619,0,0,0,6.62,12.587c10.123,13.5,29.257,19.093,45.367,14.066S88.511,75.113,91.488,58.5,88.4,24.153,76.6,12.092c-3.629-3.708-9.181-7.966-13.983-9.167" fill="#00a147"/>
    <g id="Group_1" data-name="Group 1">
      <path id="Path_2" data-name="Path 2" d="M38.875,14.411l16.368.4C54.827,28.3,50.35,41.415,49.977,54.9a1.272,1.272,0,0,1-.334,1.014,1.246,1.246,0,0,1-.81.164l-4.454-.12C43,42.174,40.084,28.594,37.171,15.048" fill="#fff"/>
      <path id="Path_3" data-name="Path 3" d="M38.875,17.412l16.368.4-3-3c-.234,6.81-1.491,13.492-2.712,20.178-.621,3.4-1.221,6.8-1.687,10.226-.236,1.741-.45,3.484-.6,5.235q-.112,1.287-.185,2.577c-.026.466-.064.943-.063,1.41l-.015.47c.077-.321.059-.317-.053.015l.772-1.325c.406-.471,1.866-.494.4-.533l-1.237-.034-2.475-.067,3,3c-1.423-14.068-4.346-27.9-7.315-41.711a3,3,0,0,0-5.789,1.6c2.855,13.276,5.732,26.587,7.1,40.115a3.08,3.08,0,0,0,3,3l3.464.094a5.732,5.732,0,0,0,3.315-.547c2.1-1.287,1.8-3.843,1.926-5.955a110.639,110.639,0,0,1,1.568-12.259c1.473-8.453,3.3-16.885,3.593-25.488a3.045,3.045,0,0,0-3-3l-16.368-.4c-3.864-.094-3.862,5.909,0,6Z" fill="#fff"/>
    </g>
    <g id="Group_2" data-name="Group 2">
      <path id="Path_4" data-name="Path 4" d="M49.617,71.178a3.337,3.337,0,0,0-4.347-.189,6.68,6.68,0,0,0-2.287,4.077c-.468,2.161-.3,4.693,1.32,6.195,2.1,1.944,5.89,1.012,7.344-1.452s.81-5.783-1-8" fill="#fff"/>
      <path id="Path_5" data-name="Path 5" d="M51.74,69.056a5.811,5.811,0,0,0-4.824-1.737,7.106,7.106,0,0,0-2.815.856,7.63,7.63,0,0,0-2.323,2.177,10.2,10.2,0,0,0-1.749,4.213,11.976,11.976,0,0,0,.026,5.085,7.286,7.286,0,0,0,7.22,5.655,8.285,8.285,0,0,0,7.3-4.66,9.946,9.946,0,0,0,.636-6.029,11.276,11.276,0,0,0-2.447-4.927,3.006,3.006,0,0,0-2.123-.879,3.055,3.055,0,0,0-2.122.879,3.02,3.02,0,0,0-.879,2.123,3.467,3.467,0,0,0,.879,2.122c-.618-.771-.137-.176-.013.011q.129.192.246.392t.223.407c.051.1.334.737.108.2s.033.115.068.22c.049.147.094.295.134.444a8.217,8.217,0,0,1,.208,1.054l-.107-.8a7.447,7.447,0,0,1-.01,1.815l.108-.8a6.641,6.641,0,0,1-.193.88c-.043.144-.1.283-.146.427.235-.794.181-.411.054-.165-.066.128-.137.254-.214.376-.148.236-.415.435.173-.191-.176.187-.334.385-.524.558s-.561.342.212-.143c-.109.068-.209.149-.318.218-.044.029-.676.37-.677.369-.008-.035.851-.325.241-.111-.1.036-.2.068-.305.1a5.915,5.915,0,0,1-.81.169l.8-.107a5.4,5.4,0,0,1-1.251,0l.8.108a4.774,4.774,0,0,1-.606-.12c-.1-.027-.195-.066-.294-.092-.33-.089.719.353.319.137-.032-.017-.531-.316-.534-.313.034-.027.653.565.262.194-.089-.083-.177-.164-.26-.253-.067-.072-.126-.153-.195-.223.557.573.279.37.131.128-.087-.142-.4-.807-.179-.294.211.5.035.065,0-.056s-.073-.237-.1-.357a7.016,7.016,0,0,1-.154-.813l.107.8a9.335,9.335,0,0,1,.034-2.3l-.107.8a11.212,11.212,0,0,1,.378-1.68c.048-.154.1-.305.156-.458.168-.482-.249.524-.088.2.129-.263.255-.524.41-.774.07-.112.147-.218.22-.328.2-.3-.471.538-.125.178.11-.113.219-.224.332-.335.367-.363-.565.344-.129.089.1-.057.193-.122.294-.177.446-.241-.164.1-.278.1a5.753,5.753,0,0,0,.8-.211l-.8.107a4.115,4.115,0,0,1,.954-.017l-.8-.107a3.577,3.577,0,0,1,.4.072q.129.032.255.075-.733-.329-.412-.175c.106.073.529.355.09.006-.459-.364.006.03.093.124a3.025,3.025,0,0,0,4.245,0,3.066,3.066,0,0,0,0-4.244Z" fill="#fff"/>
    </g>
  </g>
</svg>
