<?xml version="1.0" encoding="utf-8"?>
<!-- Generator: Adobe Illustrator 24.2.3, SVG Export Plug-In . SVG Version: 6.00 Build 0)  -->
<svg version="1.1" id="Layer_1" xmlns="http://www.w3.org/2000/svg" xmlns:xlink="http://www.w3.org/1999/xlink" x="0px" y="0px"
	 viewBox="0 0 25 25" style="enable-background:new 0 0 25 25;" xml:space="preserve">

<path fill="#0F0A9F" class="st0" d="M12.5,11.7c1.4,0,2.5-1.1,2.5-2.4s-1.1-2.5-2.4-2.5c-1.4,0-2.5,1.1-2.5,2.4c0,0,0,0,0,0
	C10.1,10.6,11.2,11.7,12.5,11.7z M12.5,7.8c0.8,0,1.5,0.6,1.5,1.5c0,0.8-0.6,1.5-1.5,1.5c-0.8,0-1.5-0.6-1.5-1.5c0,0,0,0,0,0
	C11,8.4,11.7,7.8,12.5,7.8C12.5,7.8,12.5,7.8,12.5,7.8L12.5,7.8z"/>
<path fill="#0F0A9F" class="st0" d="M18.9,21.1h-0.5v-0.5c0-0.8-0.7-1.5-1.5-1.5h-1.6l-0.5-1.9c4.4-1.3,6.9-6,5.6-10.4c-0.7-2.5-2.6-4.4-5-5.4l0,0
	C15.4,0.7,14.8,0,14,0H11c-0.8,0-1.5,0.7-1.5,1.5l0,0C5.3,3.1,3.1,8,4.8,12.3c0.9,2.4,2.9,4.2,5.4,5l-0.5,1.9H8.1
	c-0.8,0-1.5,0.7-1.5,1.5v0.5H6.2c-1.1,0-2,0.9-2,2v1.5c0,0.3,0.2,0.5,0.5,0.5h15.7c0.3,0,0.5-0.2,0.5-0.5V23
	C20.9,22,20,21.1,18.9,21.1L18.9,21.1z M12.5,5.8c1.9,0,3.4,1.5,3.4,3.4s-1.5,3.4-3.4,3.4c-1.9,0-3.4-1.5-3.4-3.4
	C9.1,7.4,10.6,5.8,12.5,5.8C12.5,5.8,12.5,5.8,12.5,5.8L12.5,5.8z M11,0.9H14c0.3,0,0.5,0.2,0.5,0.5v3.9c-0.6-0.3-1.3-0.5-2-0.5
	c-0.7,0-1.3,0.2-2,0.5V1.4C10.5,1.2,10.7,0.9,11,0.9C11,0.9,11,0.9,11,0.9L11,0.9z M5.2,9.3c0-2.9,1.7-5.6,4.4-6.7V6
	c-1.8,1.6-2,4.4-0.3,6.2s4.4,2,6.2,0.3c1.8-1.6,2-4.4,0.3-6.2c-0.1-0.1-0.2-0.2-0.3-0.3V2.6c3.7,1.6,5.3,6,3.7,9.6
	c-1.6,3.7-6,5.3-9.6,3.7C6.9,14.7,5.2,12.1,5.2,9.3z M11.1,17.5c0.9,0.2,1.8,0.2,2.8,0l0.4,1.7h-3.7L11.1,17.5z M19.8,24.1H5.1v-1
	c0-0.5,0.4-1,1-1l0,0h4.2c0.3,0,0.5-0.2,0.5-0.5s-0.2-0.5-0.5-0.5H7.6v-0.5c0-0.3,0.2-0.5,0.5-0.5h8.8c0.3,0,0.5,0.2,0.5,0.5v0.5
	h-2.7c-0.3,0-0.5,0.2-0.5,0.5s0.2,0.5,0.5,0.5h4.2c0.5,0,0.9,0.5,1,1L19.8,24.1z"/>
<path fill="#0F0A9F" class="st0" d="M12.5,21.1L12.5,21.1c-0.3,0-0.5,0.2-0.5,0.5c0,0,0,0,0,0c0,0.3,0.2,0.5,0.5,0.5c0.3,0,0.5-0.2,0.5-0.5
	C13,21.3,12.8,21.1,12.5,21.1C12.5,21.1,12.5,21.1,12.5,21.1z"/>
</svg>
