<svg xmlns="http://www.w3.org/2000/svg" width="80" height="78.292" viewBox="0 0 80 78.292">
  <g id="Group_1" data-name="Group 1" transform="translate(0.003 -1.683)">
    <path id="Path_1" data-name="Path 1" d="M1.044,17.9a180.92,180.92,0,0,0-.7,30.673C.67,53.66,1.17,58.755,1.96,63.79c.612,3.9,1.737,8.016,4.694,10.823,3.135,2.976,7.473,3.815,11.631,4.181,5,.439,10.034.6,15.046.791q7.8.291,15.616.353a95.377,95.377,0,0,0,12.83-.383c3.67-.467,7.435-1.38,10.49-3.569a15.876,15.876,0,0,0,6.181-10.141,96.091,96.091,0,0,0,1.324-14.554c.223-5.153.259-10.313.2-15.469s-.209-10.321-.365-15.48c-.133-4.37-.522-8.708-3.693-12.018-5.571-5.816-15.2-5.931-22.648-6.337-10.316-.562-20.653-.254-30.967.2-2.445.107-4.892.194-7.335.341a21.671,21.671,0,0,0-6.4,1.107,10.305,10.305,0,0,0-6.8,8.288c-.3,1.818-.384,3.662-.647,5.485a2,2,0,0,0,1.347,2.373A1.941,1.941,0,0,0,4.829,18.43c.419-2.9.09-6.862,2.1-9.235C9.413,6.259,13.99,6.421,17.478,6.26,27.034,5.818,36.6,5.4,46.169,5.588c4.791.093,9.586.326,14.355.808a27.135,27.135,0,0,1,9.42,2.346,9.536,9.536,0,0,1,5.559,7.44,58.213,58.213,0,0,1,.322,6.7q.108,3.678.194,7.359a272.883,272.883,0,0,1-.579,28.643c-.327,3.923-.556,8.362-2.988,11.647-1.9,2.57-4.9,3.915-7.931,4.646a44.743,44.743,0,0,1-10.452.922q-7.17.014-14.339-.17-7.3-.183-14.585-.568c-4.052-.213-8.368-.14-12.257-1.449-3.6-1.211-5.54-4.066-6.49-7.617A76.937,76.937,0,0,1,4.573,53.345a179.3,179.3,0,0,1-.294-28.42q.243-3.516.624-7.022a1.942,1.942,0,0,0-1.929-1.929A1.974,1.974,0,0,0,1.044,17.9Z" fill="#fff"/>
    <path id="Path_2" data-name="Path 2" d="M14.528,26.6c9.991,10.266,25.574,11.73,38.6,7.139a56.242,56.242,0,0,0,10.2-4.812c1.27-.761,2.565-1.578,2.858-3.138.387-2.059-1.622-3.631-2.848-4.99L59.3,16.337c-1.131-1.254-2.238-2.856-3.835-3.545-1.762-.761-3.508-.177-5.1.72a25.358,25.358,0,0,1-4.411,2.155,20.866,20.866,0,0,1-19.355-3.19,1.968,1.968,0,0,0-3.031.391c-2.494,3.851-4.827,8.007-8.627,10.742a1.987,1.987,0,0,0-.692,2.64,1.942,1.942,0,0,0,2.639.692c4.393-3.162,7.12-7.661,10.012-12.127l-3.03.391a24.871,24.871,0,0,0,20.355,4.909,23.612,23.612,0,0,0,4.987-1.6,22.515,22.515,0,0,0,2.365-1.225c.514-.3,1.6-1.195,2.28-1.016.744.2,1.571,1.535,2.038,2.052l2.35,2.606,2.35,2.6c.547.606,1.716,1.466,1.856,2.261V24.767c-.081.561-1.735,1.22-2.248,1.512q-1.37.779-2.78,1.48a47.432,47.432,0,0,1-6.182,2.553,39.835,39.835,0,0,1-12.633,2.135,29.867,29.867,0,0,1-21.36-8.571c-1.735-1.783-4.463.947-2.729,2.728Z" fill="#fff"/>
    <path id="Path_3" data-name="Path 3" d="M32.461,26.062l3.843-6.4a1.93,1.93,0,0,0-3.332-1.948l-3.843,6.4a1.93,1.93,0,0,0,3.332,1.947Z" fill="#fff"/>
  </g>
</svg>
