<svg xmlns="http://www.w3.org/2000/svg" width="49.983" height="109.4" viewBox="0 0 49.983 109.4">
  <g id="Group_1" data-name="Group 1" transform="translate(-0.017 0.101)">
    <path id="Path_1" data-name="Path 1" d="M20.786,83.347V79a2.2,2.2,0,0,1,2.2-2.2h4.376a2.2,2.2,0,0,1,2.2,2.2v24.087a6.22,6.22,0,0,0,6.22,6.22h.492a6.22,6.22,0,0,0,6.22-6.22V78.116a1.32,1.32,0,0,1,1.319-1.32H48.7a1.3,1.3,0,0,0,1.26-1.6L42.493,43.837c-3.058-9.466-7.886-17.614-17.614-17.614h0c-9.4,0-14.513,8.137-17.025,17.026L.055,75.161A1.322,1.322,0,0,0,1.339,76.8h5.2a1.315,1.315,0,0,1,1.315,1.315v5.236h0v19.732a6.22,6.22,0,0,0,6.22,6.22h.492a6.22,6.22,0,0,0,6.22-6.22V83.347" fill="#757575"/>
    <circle id="Ellipse_1" data-name="Ellipse 1" cx="13.162" cy="13.162" r="13.162" transform="translate(12.011 -0.101)" fill="#757575"/>
  </g>
</svg>
