<svg width="18" height="26" viewBox="0 0 18 26" fill="none" xmlns="http://www.w3.org/2000/svg">
<path d="M4.5 3.85H4.55V3.8C4.55 2.8367 5.38773 2.05 6.42857 2.05H11.5714C12.6123 2.05 13.45 2.8367 13.45 3.8V3.85H13.5H16.0714C17.1123 3.85 17.95 4.6367 17.95 5.6V24.2C17.95 25.1633 17.1123 25.95 16.0714 25.95H1.92857C0.88773 25.95 0.05 25.1633 0.05 24.2V5.6C0.05 4.6367 0.887731 3.85 1.92857 3.85H4.5ZM4.55 5V4.95H4.5H1.92857C1.54921 4.95 1.23571 5.23783 1.23571 5.6V12.1932V12.2432H1.28571H4.90667H4.93492L4.9495 12.219L7.06972 8.70101L8.39785 13.0396L8.42491 13.128L8.48407 13.057L10.1345 11.0765H13.6398C13.9706 11.0765 14.2327 11.3259 14.2327 11.6265C14.2327 11.9271 13.9706 12.1765 13.6398 12.1765H10.74H10.7165L10.7015 12.1945L7.9261 15.525L6.74272 11.6592L6.70992 11.552L6.65208 11.648L5.63038 13.3432H1.28571H1.23571V13.3932V24.2C1.23571 24.5622 1.54921 24.85 1.92857 24.85H16.0714C16.4508 24.85 16.7643 24.5622 16.7643 24.2V5.6C16.7643 5.23782 16.4508 4.95 16.0714 4.95H13.5H13.45V5C13.45 5.96333 12.6123 6.75 11.5714 6.75H6.42857C5.38773 6.75 4.55 5.96333 4.55 5ZM6.42857 3.15C6.04921 3.15 5.73571 3.43783 5.73571 3.8V5C5.73571 5.36217 6.04921 5.65 6.42857 5.65H11.5714C11.9508 5.65 12.2643 5.36217 12.2643 5V3.8C12.2643 3.43783 11.9508 3.15 11.5714 3.15H6.42857ZM3.90714 18.2C3.90714 17.8994 4.16926 17.65 4.5 17.65H13.5C13.8307 17.65 14.0929 17.8994 14.0929 18.2C14.0929 18.5006 13.8307 18.75 13.5 18.75H4.5C4.16926 18.75 3.90714 18.5006 3.90714 18.2ZM3.90714 21.8C3.90714 21.4994 4.16926 21.25 4.5 21.25H8.35714C8.68788 21.25 8.95 21.4994 8.95 21.8C8.95 22.1006 8.68788 22.35 8.35714 22.35H4.5C4.16926 22.35 3.90714 22.1006 3.90714 21.8Z" fill="black" stroke="black" stroke-width="0.1"/>
</svg>
