<svg width="48" height="48" viewBox="0 0 48 48" fill="none" xmlns="http://www.w3.org/2000/svg">
<circle cx="24" cy="24" r="24" fill="#00A147"/>
<path d="M24 27.9474C26.6086 27.9474 28.6986 25.8316 28.6986 23.2105L28.7143 13.7368C28.7143 11.1158 26.6086 9 24 9C21.3914 9 19.2857 11.1158 19.2857 13.7368V23.2105C19.2857 25.8316 21.3914 27.9474 24 27.9474ZM32.3286 23.2105C32.3286 27.9474 28.3371 31.2632 24 31.2632C19.6629 31.2632 15.6714 27.9474 15.6714 23.2105H13C13 28.6105 17.2743 33.0474 22.4286 33.8211V39H25.5714V33.8211C30.7257 33.0632 35 28.6105 35 23.2105H32.3286Z" fill="white"/>
</svg>
