<svg width="27" height="27" viewBox="0 0 27 27" fill="none" xmlns="http://www.w3.org/2000/svg">
<path d="M8.7609 7.42009L11.7393 4.42865V16.9017C11.7393 17.2466 11.8764 17.5774 12.1203 17.8213C12.3642 18.0653 12.695 18.2023 13.04 18.2023C13.3849 18.2023 13.7157 18.0653 13.9596 17.8213C14.2036 17.5774 14.3406 17.2466 14.3406 16.9017V4.42865L17.319 7.42009C17.4399 7.542 17.5838 7.63876 17.7423 7.70479C17.9008 7.77082 18.0708 7.80482 18.2425 7.80482C18.4142 7.80482 18.5842 7.77082 18.7427 7.70479C18.9012 7.63876 19.045 7.542 19.1659 7.42009C19.2878 7.29918 19.3846 7.15533 19.4506 6.99684C19.5166 6.83835 19.5506 6.66835 19.5506 6.49665C19.5506 6.32495 19.5166 6.15495 19.4506 5.99646C19.3846 5.83796 19.2878 5.69411 19.1659 5.5732L13.9634 0.370696C13.8397 0.252286 13.6939 0.159467 13.5342 0.0975646C13.2175 -0.0325215 12.8624 -0.0325215 12.5457 0.0975646C12.3861 0.159467 12.2402 0.252286 12.1165 0.370696L6.91401 5.5732C6.79274 5.69447 6.69654 5.83844 6.63091 5.99688C6.56528 6.15533 6.5315 6.32515 6.5315 6.49665C6.5315 6.66815 6.56528 6.83797 6.63091 6.99641C6.69654 7.15486 6.79274 7.29883 6.91401 7.42009C7.03528 7.54136 7.17924 7.63756 7.33769 7.70319C7.49613 7.76882 7.66595 7.8026 7.83745 7.8026C8.00895 7.8026 8.17877 7.76882 8.33722 7.70319C8.49566 7.63756 8.63963 7.54136 8.7609 7.42009ZM24.7456 12.9998C24.4007 12.9998 24.0698 13.1368 23.8259 13.3807C23.582 13.6246 23.445 13.9555 23.445 14.3004V22.1042C23.445 22.4491 23.3079 22.7799 23.064 23.0239C22.8201 23.2678 22.4893 23.4048 22.1444 23.4048H3.93557C3.59062 23.4048 3.25981 23.2678 3.01589 23.0239C2.77198 22.7799 2.63495 22.4491 2.63495 22.1042V14.3004C2.63495 13.9555 2.49792 13.6246 2.254 13.3807C2.01009 13.1368 1.67927 12.9998 1.33432 12.9998C0.989371 12.9998 0.658551 13.1368 0.414636 13.3807C0.170721 13.6246 0.0336914 13.9555 0.0336914 14.3004V22.1042C0.0336914 23.139 0.444781 24.1315 1.17653 24.8632C1.90827 25.595 2.90073 26.0061 3.93557 26.0061H22.1444C23.1792 26.0061 24.1717 25.595 24.9034 24.8632C25.6351 24.1315 26.0462 23.139 26.0462 22.1042V14.3004C26.0462 13.9555 25.9092 13.6246 25.6653 13.3807C25.4214 13.1368 25.0906 12.9998 24.7456 12.9998Z" fill="black"/>
</svg>
