<svg width="27" height="27" viewBox="0 0 27 27" fill="none" xmlns="http://www.w3.org/2000/svg">
<path d="M22.0721 17.153C19.3552 17.153 17.1447 19.3618 17.1447 22.0765C17.1447 22.2816 17.1613 22.4826 17.1859 22.6813H11.6428C10.7639 22.6813 10.0486 21.9672 10.0486 21.0894V17.0262L12.7661 20.0297C12.9529 20.2363 13.2198 20.3544 13.4978 20.3544C13.7758 20.3544 14.0427 20.2363 14.2295 20.0297L20.0374 13.6159C21.631 11.863 20.7046 7.99389 17.6748 7.53099V5.2141C17.6748 3.71612 16.4553 2.49718 14.9562 2.49718H9.37394C8.97638 1.05963 7.07973 0 4.72687 0C2.07642 0 0 1.34418 0 3.05969C0 4.77575 2.07642 6.11993 4.72687 6.11993C7.07987 6.11993 8.97638 5.06017 9.37408 3.62219H14.9562C15.8351 3.62219 16.5498 4.3363 16.5498 5.21411V7.5152C15.2748 7.68157 14.1509 8.43605 13.4984 9.58063C12.6699 8.12562 11.1195 7.35015 9.53724 7.49652C6.68479 7.75952 5.28172 11.1838 6.917 13.5577C6.93073 13.578 6.94612 13.5978 6.96314 13.6159L8.96114 15.8243C8.9404 15.8831 8.92365 15.9443 8.92365 16.0104V21.0894C8.92365 22.5874 10.1437 23.8063 11.6428 23.8063H17.4647C18.1677 25.669 19.965 27 22.0721 27C24.7896 27 27 24.7912 27 22.0765C27 19.3618 24.7896 17.153 22.0721 17.153ZM4.72687 4.99493C2.80811 4.99493 1.125 4.09076 1.125 3.05969C1.125 2.02917 2.80811 1.125 4.72687 1.125C6.64618 1.125 8.32929 2.02917 8.32929 3.05969C8.32929 4.09076 6.64618 4.99493 4.72687 4.99493ZM13.4978 19.1618L10.0371 15.3369H11.5642C11.751 15.3369 11.9257 15.2441 12.0306 15.0892L12.9293 13.7571L14.1158 16.1274C14.1976 16.2911 14.3542 16.4048 14.5349 16.4317C14.708 16.4589 14.8937 16.4018 15.0249 16.2653L16.4092 14.8228H17.4272L13.4978 19.1618ZM9.6405 8.61712C10.9024 8.50241 12.055 9.18197 12.6096 10.3041C12.7787 10.6479 13.1193 10.8616 13.4984 10.8616C13.8763 10.8616 14.2169 10.6485 14.3871 10.3046C14.9486 9.17138 16.1219 8.48968 17.3606 8.61767C19.3507 8.80162 20.2898 11.2291 19.1772 12.8903L18.4459 13.6978H16.1691C16.0159 13.6978 15.8692 13.7604 15.7632 13.8708L14.7651 14.9112L13.5049 12.3931C13.4154 12.2141 13.2374 12.0965 13.038 12.0833C12.843 12.0756 12.6469 12.1646 12.5354 12.33L11.2654 14.2119H9.01923L7.82337 12.8903C6.71048 11.2287 7.64952 8.79981 9.6405 8.61712ZM22.0721 25.875C19.9753 25.875 18.2697 24.171 18.2697 22.0765C18.2697 19.9819 19.9753 18.278 22.0721 18.278C24.1688 18.278 25.875 19.9819 25.875 22.0765C25.875 24.171 24.1688 25.875 22.0721 25.875Z" fill="black"/>
</svg>
