<svg width="21" height="20" viewBox="0 0 21 20" fill="none" xmlns="http://www.w3.org/2000/svg">
<path d="M7.00009 1.42857C7.69232 1.42857 8.36901 1.63803 8.94458 2.03047C9.52015 2.4229 9.96876 2.98068 10.2337 3.63328C10.4986 4.28587 10.5679 5.00396 10.4328 5.69675C10.2978 6.38954 9.96444 7.02591 9.47496 7.52539C8.98548 8.02486 8.36184 8.36501 7.68291 8.50281C7.00397 8.64061 6.30024 8.56989 5.6607 8.29958C5.02116 8.02926 4.47454 7.5715 4.08995 6.98418C3.70537 6.39686 3.5001 5.70637 3.5001 5C3.5001 4.0528 3.86885 3.14439 4.52522 2.47462C5.1816 1.80485 6.07183 1.42857 7.00009 1.42857ZM7.00009 0C6.03096 0 5.0836 0.293245 4.2778 0.842652C3.472 1.39206 2.84396 2.17295 2.47309 3.08658C2.10222 4.00022 2.00518 5.00555 2.19425 5.97545C2.38332 6.94536 2.85 7.83628 3.53527 8.53554C4.22055 9.2348 5.09365 9.71101 6.04415 9.90393C6.99466 10.0969 7.97988 9.99784 8.87524 9.6194C9.77059 9.24096 10.5359 8.6001 11.0743 7.77786C11.6127 6.95561 11.9001 5.98891 11.9001 5C11.9001 3.67392 11.3838 2.40215 10.4649 1.46447C9.54598 0.526785 8.29965 0 7.00009 0Z" fill="black"/>
<path d="M14 20H12.6V16.4286C12.6 15.4814 12.2312 14.573 11.5749 13.9032C10.9185 13.2334 10.0282 12.8572 9.09998 12.8572H4.89999C3.97173 12.8572 3.0815 13.2334 2.42512 13.9032C1.76875 14.573 1.4 15.4814 1.4 16.4286V20H0V16.4286C0 15.1025 0.516247 13.8307 1.43517 12.8931C2.3541 11.9554 3.60043 11.4286 4.89999 11.4286H9.09998C10.3995 11.4286 11.6459 11.9554 12.5648 12.8931C13.4837 13.8307 14 15.1025 14 16.4286V20Z" fill="black"/>
<path d="M14 1.42834H21V2.85692H14V1.42834Z" fill="black"/>
<path d="M14 5H21V6.42857H14V5Z" fill="black"/>
<path d="M14 8.57129H18.9V9.99986H14V8.57129Z" fill="black"/>
</svg>
