<svg width="22" height="21" viewBox="0 0 22 21" fill="none" xmlns="http://www.w3.org/2000/svg">
<path d="M2.27627 17.9395V3.50255C2.27627 3.17732 2.40547 2.86541 2.63544 2.63544C2.86541 2.40547 3.17732 2.27627 3.50255 2.27627H18.5178C18.8431 2.27627 19.155 2.40547 19.3849 2.63544C19.6149 2.86541 19.7441 3.17732 19.7441 3.50255V13.5127C19.7441 13.838 19.6149 14.1499 19.3849 14.3799C19.155 14.6098 18.8431 14.739 18.5178 14.739H6.52313C5.85283 14.7392 5.21004 15.0056 4.73615 15.4796L2.27627 17.9395ZM3.50255 0.975C2.8322 0.975 2.18931 1.24129 1.7153 1.7153C1.24129 2.18931 0.975 2.8322 0.975 3.50255V19.5101C0.975027 19.6389 1.01325 19.7647 1.08482 19.8717C1.1564 19.9787 1.25811 20.0621 1.37709 20.1113C1.49607 20.1604 1.62697 20.1732 1.75321 20.148C1.87945 20.1227 1.99537 20.0606 2.08629 19.9695L5.65615 16.3996L5.63847 16.3819L5.65615 16.3996C5.88607 16.1696 6.19793 16.0404 6.52313 16.0403H18.5178C19.1882 16.0403 19.8311 15.774 20.3051 15.3C20.7791 14.826 21.0454 14.1831 21.0454 13.5127V3.50255C21.0454 2.8322 20.7791 2.18931 20.3051 1.7153C19.8311 1.24129 19.1882 0.975 18.5178 0.975H3.50255Z" fill="black" stroke="black" stroke-width="0.05"/>
<path d="M4.91935 4.91941C4.79733 5.04143 4.72878 5.20692 4.72878 5.37948C4.72878 5.55204 4.79733 5.71753 4.91935 5.83955C5.04137 5.96157 5.20686 6.03012 5.37942 6.03012H16.6409C16.8134 6.03012 16.9789 5.96157 17.101 5.83955C17.223 5.71753 17.2915 5.55204 17.2915 5.37948C17.2915 5.20692 17.223 5.04143 17.101 4.91941C16.9789 4.79739 16.8134 4.72885 16.6409 4.72885H5.37942C5.20686 4.72885 5.04137 4.79739 4.91935 4.91941ZM4.91935 8.0476C4.79733 8.16962 4.72878 8.33511 4.72878 8.50767C4.72878 8.68023 4.79733 8.84572 4.91935 8.96774C5.04137 9.08976 5.20686 9.15831 5.37942 9.15831H16.6409C16.8134 9.15831 16.9789 9.08976 17.101 8.96774C17.223 8.84572 17.2915 8.68023 17.2915 8.50767C17.2915 8.33511 17.223 8.16962 17.101 8.0476C16.9789 7.92558 16.8134 7.85703 16.6409 7.85703H5.37942C5.20686 7.85703 5.04137 7.92558 4.91935 8.0476ZM4.91935 11.1758C4.79733 11.2978 4.72878 11.4633 4.72878 11.6359C4.72878 11.8084 4.79733 11.9739 4.91935 12.0959C5.04137 12.2179 5.20686 12.2865 5.37942 12.2865H11.6358C11.8084 12.2865 11.9738 12.2179 12.0959 12.0959C12.2179 11.9739 12.2864 11.8084 12.2864 11.6359C12.2864 11.4633 12.2179 11.2978 12.0959 11.1758C11.9738 11.0538 11.8084 10.9852 11.6358 10.9852H5.37942C5.20686 10.9852 5.04137 11.0538 4.91935 11.1758Z" fill="black" stroke="black" stroke-width="0.05"/>
</svg>
