<svg width="25" height="26" viewBox="0 0 25 26" fill="none" xmlns="http://www.w3.org/2000/svg">
<path d="M24.4446 23.9209V23.9159H21.9819V8.84125C21.9819 7.83897 21.1509 7.02671 20.126 7.02671H17.046V2.80954C17.046 1.80729 16.215 0.995 15.1901 0.995H10.2544C9.22949 0.995 8.3985 1.80729 8.3985 2.80954V7.02671H5.31869C4.29379 7.02671 3.4628 7.83897 3.4628 8.84125V23.9159H1V23.9209H0.995V25.1272H1V25.1322H24.4446V25.1272H24.4496V23.9209H24.4446ZM15.1951 23.9159V20.3017C15.1951 18.9663 14.0879 17.8839 12.7223 17.8839C11.3567 17.8839 10.2494 18.9663 10.2494 20.3017V23.9159H4.70673V8.84125C4.70673 8.51098 4.98059 8.24307 5.31869 8.24307H8.50527C8.76099 8.94619 9.44761 9.44952 10.2544 9.44952H15.1901C15.9969 9.44952 16.6835 8.94619 16.9392 8.24307H20.126C20.4641 8.24307 20.738 8.51098 20.738 8.84125V23.9159H15.1951ZM11.4933 23.9159V20.3017C11.4933 19.6383 12.0434 19.1003 12.7223 19.1003C13.4011 19.1003 13.9512 19.6383 13.9512 20.3017V23.9159H11.4933ZM13.3443 7.03183V5.83051H14.5732C14.9166 5.83051 15.1951 5.55833 15.1951 5.22233C15.1951 4.88633 14.9166 4.61415 14.5732 4.61415H13.3443V3.41276C13.3443 3.07676 13.0657 2.80458 12.7223 2.80458C12.3789 2.80458 12.1003 3.07676 12.1003 3.41276V4.61415H10.8714C10.528 4.61415 10.2494 4.88633 10.2494 5.22233C10.2494 5.55833 10.528 5.83051 10.8714 5.83051H12.1003V7.03183C12.1003 7.36784 12.3789 7.64001 12.7223 7.64001C13.0657 7.64001 13.3443 7.36784 13.3443 7.03183ZM10.2544 2.21136H15.1901C15.5282 2.21136 15.8021 2.47928 15.8021 2.80954V7.63498C15.8021 7.96524 15.5282 8.23316 15.1901 8.23316H10.2544C9.9163 8.23316 9.64243 7.96524 9.64243 7.63498V2.80954C9.64243 2.47928 9.9163 2.21136 10.2544 2.21136ZM9.02542 13.0636V10.6509H9.02042V10.6459H6.55256V10.6509H6.54756V13.0636H6.55256V13.0686H9.02042V13.0636H9.02542ZM9.02542 16.6825V14.2698H9.02042V14.2648H6.55256V14.2698H6.54756V16.6825H6.55256V16.6875H9.02042V16.6825H9.02542ZM13.9611 13.0636V10.6509H13.9561V10.6459H11.4883V10.6509H11.4833V13.0636H11.4883V13.0686H13.9561V13.0636H13.9611ZM13.9611 16.6825V14.2698H13.9561V14.2648H11.4883V14.2698H11.4833V16.6825H11.4883V16.6875H13.9561V16.6825H13.9611ZM18.897 13.0636V10.6509H18.892V10.6459H16.4242V10.6509H16.4192V13.0636H16.4242V13.0686H18.892V13.0636H18.897ZM18.897 16.6825V14.2698H18.892V14.2648H16.4242V14.2698H16.4192V16.6825H16.4242V16.6875H18.892V16.6825H18.897Z" fill="black" stroke="black" stroke-width="0.01"/>
</svg>
