<svg width="25" height="23" viewBox="0 0 25 23" fill="none" xmlns="http://www.w3.org/2000/svg">
<path d="M15.8468 2.11645L15.8941 2.13294C19.9152 3.53576 22.8001 7.36138 22.8001 11.8606C22.8001 15.0213 21.3766 17.8494 19.1355 19.7388L19.098 19.7704L19.1288 19.8085L19.8521 20.7029L19.8841 20.7425L19.9231 20.7098C22.4461 18.5911 24.0501 15.4132 24.0501 11.8606C24.0501 6.81557 20.8154 2.52612 16.307 0.952792L16.2599 0.936333L16.2434 0.983482L15.8634 2.06921L15.8468 2.11645ZM6.18811 20.063L6.21772 20.0237L6.17888 19.9934C3.75747 18.1088 2.2 15.1666 2.2 11.8606C2.2 7.36139 5.08492 3.53578 9.10601 2.13296L9.15326 2.11647L9.13673 2.06923L8.75671 0.983499L8.74021 0.93635L8.69304 0.952809C4.18466 2.52613 0.95 6.81558 0.95 11.8606C0.95 15.5741 2.70254 18.8783 5.42545 20.9911L5.46552 21.0222L5.49603 20.9817L6.18811 20.063ZM9.33668 9.24165L9.32766 9.29083L9.33668 9.24165C8.39636 9.06932 7.40343 8.83584 6.31322 8.54452L6.31321 8.54452C6.05314 8.47507 5.90367 8.21724 5.97469 7.97062C6.046 7.7232 6.31361 7.57566 6.57434 7.64533C9.07012 8.31212 10.9851 8.65329 12.8855 8.66153C14.7842 8.66972 16.6971 8.34559 19.1865 7.64698C19.4463 7.57409 19.7159 7.71827 19.7905 7.9648C19.8649 8.21055 19.7189 8.47019 19.4598 8.54288L19.4733 8.59102L19.4598 8.54288C18.3658 8.84988 17.3709 9.08894 16.4304 9.26113C15.9016 9.35799 15.5167 9.80382 15.5167 10.3256V21.0133C15.5167 21.2693 15.3006 21.48 15.03 21.48H14.9834C14.7301 21.48 14.5213 21.2943 14.4988 21.0553L14.0067 15.8434C14.0038 15.2455 13.5001 14.7651 12.8834 14.7651C12.2668 14.7651 11.7631 15.2455 11.7602 15.8435L11.2681 21.0553C11.2456 21.2943 11.0368 21.48 10.7835 21.48H10.7369C10.4663 21.48 10.2502 21.2693 10.2502 21.0133V10.3061C10.2502 9.7844 9.86538 9.33857 9.33668 9.24165ZM12.383 21.4418L12.383 21.4417C12.401 21.3791 12.4152 21.3148 12.4253 21.2491L12.4253 21.2491C12.4299 21.2192 12.4337 21.1889 12.4366 21.1583L12.8834 16.4249L13.3303 21.1583C13.3332 21.1889 13.337 21.2192 13.3416 21.2491L13.3416 21.2491C13.3517 21.3148 13.3659 21.3791 13.3839 21.4417L13.3839 21.4418C13.5799 22.1239 14.2275 22.6135 14.9834 22.6135H15.03C15.945 22.6135 16.6899 21.8988 16.6899 21.0133V10.3672C17.6639 10.1873 18.6831 9.94115 19.7871 9.63134C20.6662 9.38464 21.174 8.49692 20.9166 7.64667C20.6595 6.79731 19.7376 6.312 18.8592 6.55851C16.4312 7.23989 14.6369 7.53558 12.8907 7.52806C11.1388 7.52049 9.33733 7.20753 6.8871 6.55287C6.00549 6.31731 5.0901 6.81403 4.84441 7.66658C4.5985 8.52 5.11813 9.40125 6.00041 9.63698C7.09525 9.92953 8.10789 10.1687 9.07696 10.3478V21.0133C9.07696 21.8988 9.82191 22.6135 10.7369 22.6135H10.7835C11.5394 22.6135 12.187 22.1239 12.383 21.4418ZM14.4434 4.47783C14.4434 5.30463 13.7468 5.97803 12.8835 5.97803C12.0201 5.97803 11.3236 5.30463 11.3236 4.47783C11.3236 3.65105 12.0201 2.97762 12.8835 2.97762C13.7468 2.97762 14.4434 3.65105 14.4434 4.47783ZM12.8835 7.1115C14.3912 7.1115 15.6167 5.93412 15.6167 4.47783C15.6167 3.02153 14.3912 1.84415 12.8835 1.84415C11.3758 1.84415 10.1503 3.02153 10.1503 4.47783C10.1503 5.93412 11.3758 7.1115 12.8835 7.1115Z" fill="black" stroke="black" stroke-width="0.1"/>
</svg>
