<svg width="19" height="24" viewBox="0 0 19 24" fill="none" xmlns="http://www.w3.org/2000/svg">
<path d="M12.23 10.3975C12.23 10.8873 11.8302 11.2843 11.3382 11.2843C10.8461 11.2843 10.4464 10.8873 10.4464 10.3975C10.4464 9.90825 10.8461 9.51074 11.3382 9.51074C11.8302 9.51074 12.23 9.90825 12.23 10.3975Z" fill="black"/>
<path d="M8.66276 10.3975C8.66276 10.8873 8.26301 11.2843 7.77095 11.2843C7.2789 11.2843 6.87915 10.8873 6.87915 10.3975C6.87915 9.90825 7.2789 9.51074 7.77095 9.51074C8.26301 9.51074 8.66276 9.90825 8.66276 10.3975Z" fill="black"/>
<path d="M9.55464 14.8326C9.04101 14.8326 8.52742 14.7057 8.01749 14.4522C7.79717 14.3426 7.7079 14.0763 7.81808 13.8572C7.92804 13.6383 8.1954 13.5493 8.41639 13.6589C9.18232 14.04 9.92697 14.04 10.6929 13.6589C10.9135 13.5493 11.1811 13.6383 11.2912 13.8572C11.4014 14.0763 11.3121 14.3426 11.0918 14.4522C10.5819 14.7057 10.0683 14.8326 9.55464 14.8326Z" fill="black"/>
<path d="M4.54095 8.6951C4.51308 8.9622 4.49872 9.23458 4.49872 9.51113C4.49872 12.9818 6.76234 15.7954 9.55462 15.7954C12.3469 15.7954 14.6105 12.9818 14.6105 9.51113C14.6105 8.99759 14.561 8.49846 14.4675 8.0207C14.1189 6.23927 13.1595 4.75492 11.8806 3.92981" stroke="black" stroke-miterlimit="10"/>
<path d="M15.7807 17.3019C18.5482 18.6846 17.9443 22.5876 17.9443 22.5876" stroke="black" stroke-miterlimit="10" stroke-linecap="round" stroke-linejoin="round"/>
<path d="M6.27319 17.3072C7.38657 17.9826 8.40665 18.4186 9.52796 18.4163H9.47223C10.5274 18.4185 11.493 18.0325 12.531 17.4242" stroke="black" stroke-miterlimit="10" stroke-linecap="round" stroke-linejoin="round"/>
<path d="M1.05574 22.5876C1.05574 22.5876 0.41605 18.4531 3.47074 17.1873" stroke="black" stroke-miterlimit="10" stroke-linecap="round" stroke-linejoin="round"/>
<path d="M11.8804 3.92981C10.9675 5.5584 6.67452 7.74947 4.57941 8.69905" stroke="black" stroke-miterlimit="10" stroke-linecap="round" stroke-linejoin="round"/>
<path d="M1.69843 16.5678L1.44855 16.1601C0.262005 13.4658 2.56206 10.9832 2.59474 9.14244C2.20877 -1.53064 11.9124 0.717944 12.6947 2.52637C15.8884 2.41672 16.2363 6.24756 16.2915 8.99997C18.0691 12.4449 18.2891 14.5882 17.3272 16.1608L17.2025 16.4791" stroke="black" stroke-miterlimit="10" stroke-linecap="round" stroke-linejoin="round"/>
<path d="M4.49865 22.5355C5.23745 22.5355 5.83636 21.94 5.83636 21.2054C5.83636 20.4707 5.23745 19.8752 4.49865 19.8752C3.75986 19.8752 3.16095 20.4707 3.16095 21.2054C3.16095 21.94 3.75986 22.5355 4.49865 22.5355Z" stroke="black" stroke-miterlimit="10" stroke-linecap="round" stroke-linejoin="round"/>
<path d="M4.49867 19.8751C4.49867 19.8751 3.90683 17.4543 5.51488 15.7949" stroke="black" stroke-miterlimit="10" stroke-linecap="round" stroke-linejoin="round"/>
<path d="M13.347 15.7949C14.0536 16.524 14.4293 18.1534 14.4293 18.1534C12.9023 18.2037 12.9536 19.8751 12.9536 19.8751C12.9536 19.8751 12.6061 22.3414 13.6915 22.2834L13.6182 23L13.7446 21.6862" stroke="black" stroke-miterlimit="10" stroke-linecap="round" stroke-linejoin="round"/>
<path d="M14.6105 18.1534C16.1375 18.2037 16.0862 19.8751 16.0862 19.8751C16.0862 19.8751 16.4337 22.3415 15.3483 22.2834L15.4217 23.0001L15.2952 21.6862" stroke="black" stroke-miterlimit="10" stroke-linecap="round" stroke-linejoin="round"/>
<path d="M6.84576 17.6514L9.3685 22.5876" stroke="black" stroke-miterlimit="10" stroke-linecap="round" stroke-linejoin="round"/>
<path d="M11.8912 17.7711L9.36847 22.5876" stroke="black" stroke-miterlimit="10" stroke-linecap="round" stroke-linejoin="round"/>
</svg>
