<svg width="17" height="26" viewBox="0 0 17 26" fill="none" xmlns="http://www.w3.org/2000/svg">
<path d="M13.2704 17.6328V20.4613H4.25644V17.6328C4.25644 17.4195 4.38247 17.2258 4.61403 17.1244L4.61405 17.1245L4.6156 17.1237C7.41053 15.6602 10.1226 15.6597 12.9449 17.1398L12.9449 17.1399L12.9466 17.1406C13.1435 17.2255 13.2704 17.4186 13.2704 17.6328ZM15.0346 0.975H2.5C1.65904 0.975 0.975 1.65904 0.975 2.5V23.5C0.975 24.3409 1.65904 25.025 2.5 25.025H15.0346C15.8756 25.025 16.5596 24.3409 16.5596 23.5V2.5C16.5596 1.65904 15.8756 0.975 15.0346 0.975ZM2.5 2.025H15.0346C15.2967 2.025 15.5096 2.23816 15.5096 2.5V4.48891H2.025V2.5C2.025 2.23816 2.23793 2.025 2.5 2.025ZM14.3204 17.6328C14.3204 17 13.9451 16.4285 13.3979 16.1935C10.3268 14.5816 7.20789 14.5813 4.16305 16.1771C3.58212 16.4283 3.20644 16.9996 3.20644 17.6328V20.4613H2.02744V5.53891H15.4994V20.4613H14.3204V17.6328ZM15.0346 23.975H2.5C2.23793 23.975 2.025 23.7618 2.025 23.5V21.5113H15.5096V23.5C15.5096 23.7618 15.2967 23.975 15.0346 23.975ZM9.56152 22.2252H7.88428C7.5941 22.2252 7.35928 22.4603 7.35928 22.7502C7.35928 23.0401 7.5941 23.2752 7.88428 23.2752H9.56152C9.8517 23.2752 10.0865 23.0401 10.0865 22.7502C10.0865 22.4603 9.8517 22.2252 9.56152 22.2252ZM8.71142 7.53042C7.88201 7.53042 7.19724 7.81459 6.71991 8.3204C6.24273 8.82606 5.975 9.55095 5.975 10.4287C5.975 12.3069 7.19757 13.8448 8.71142 13.8448C10.2253 13.8448 11.4478 12.3069 11.4478 10.4287C11.4478 9.55095 11.1801 8.82606 10.7029 8.3204C10.2256 7.81459 9.54084 7.53042 8.71142 7.53042ZM8.71142 12.7948C8.24967 12.7948 7.82865 12.5324 7.5221 12.1041C7.21558 11.6758 7.025 11.0832 7.025 10.4287C7.025 9.83763 7.1799 9.37608 7.46639 9.06251C7.75259 8.74927 8.17311 8.58042 8.71142 8.58042C9.24973 8.58042 9.67025 8.74927 9.95645 9.06251C10.2429 9.37608 10.3978 9.83763 10.3978 10.4287C10.3978 11.0832 10.2073 11.6758 9.90075 12.1041C9.59419 12.5324 9.17317 12.7948 8.71142 12.7948Z" fill="black" stroke="black" stroke-width="0.05"/>
</svg>
