<svg width="18" height="24" viewBox="0 0 18 24" fill="none" xmlns="http://www.w3.org/2000/svg">
<path d="M4.5 1.85H4.55V1.8C4.55 0.836697 5.38773 0.05 6.42857 0.05H11.5714C12.6123 0.05 13.45 0.836697 13.45 1.8V1.85H13.5H16.0714C17.1123 1.85 17.95 2.6367 17.95 3.6V22.2C17.95 23.1633 17.1123 23.95 16.0714 23.95H1.92857C0.88773 23.95 0.05 23.1633 0.05 22.2V3.6C0.05 2.6367 0.887731 1.85 1.92857 1.85H4.5ZM4.55 3V2.95H4.5H1.92857C1.54921 2.95 1.23571 3.23783 1.23571 3.6V10.1932V10.2432H1.28571H4.90667H4.93492L4.9495 10.219L7.06972 6.70101L8.39785 11.0396L8.42491 11.128L8.48407 11.057L10.1345 9.07652H13.6398C13.9706 9.07652 14.2327 9.32595 14.2327 9.62652C14.2327 9.92709 13.9706 10.1765 13.6398 10.1765H10.74H10.7165L10.7015 10.1945L7.9261 13.525L6.74272 9.65917L6.70992 9.55203L6.65208 9.64799L5.63038 11.3432H1.28571H1.23571V11.3932V22.2C1.23571 22.5622 1.54921 22.85 1.92857 22.85H16.0714C16.4508 22.85 16.7643 22.5622 16.7643 22.2V3.6C16.7643 3.23782 16.4508 2.95 16.0714 2.95H13.5H13.45V3C13.45 3.96333 12.6123 4.75 11.5714 4.75H6.42857C5.38773 4.75 4.55 3.96333 4.55 3ZM6.42857 1.15C6.04921 1.15 5.73571 1.43783 5.73571 1.8V3C5.73571 3.36217 6.04921 3.65 6.42857 3.65H11.5714C11.9508 3.65 12.2643 3.36217 12.2643 3V1.8C12.2643 1.43783 11.9508 1.15 11.5714 1.15H6.42857ZM3.90714 16.2C3.90714 15.8994 4.16926 15.65 4.5 15.65H13.5C13.8307 15.65 14.0929 15.8994 14.0929 16.2C14.0929 16.5006 13.8307 16.75 13.5 16.75H4.5C4.16926 16.75 3.90714 16.5006 3.90714 16.2ZM3.90714 19.8C3.90714 19.4994 4.16926 19.25 4.5 19.25H8.35714C8.68788 19.25 8.95 19.4994 8.95 19.8C8.95 20.1006 8.68788 20.35 8.35714 20.35H4.5C4.16926 20.35 3.90714 20.1006 3.90714 19.8Z" fill="black" stroke="black" stroke-width="0.1"/>
</svg>
