<svg width="26" height="22" viewBox="0 0 26 22" fill="none" xmlns="http://www.w3.org/2000/svg">
<path d="M16.282 16.2014V18.6817C16.282 19.3396 16.0207 19.9704 15.5555 20.4356C15.0904 20.9007 14.4595 21.1621 13.8017 21.1621H3.88035C3.22253 21.1621 2.59165 20.9007 2.1265 20.4356C1.66134 19.9704 1.40002 19.3396 1.40002 18.6817V3.79978C1.40002 3.14196 1.66134 2.51108 2.1265 2.04593C2.59165 1.58078 3.22253 1.31946 3.88035 1.31946H13.3056C14.6753 1.31946 16.282 2.43002 16.282 3.79978V6.28011M20.2505 16.2014L25.2112 11.2408L20.2505 6.28013M8.34498 11.2408H24.2191" stroke="#FF0000" stroke-width="1.5" stroke-linecap="round" stroke-linejoin="round"/>
</svg>
