<svg width="19" height="24" viewBox="0 0 19 24" fill="none" xmlns="http://www.w3.org/2000/svg">
<path fill-rule="evenodd" clip-rule="evenodd" d="M9.2101 4.7296C10.2274 4.7296 11.052 3.93556 11.052 2.956C11.052 1.97647 10.2274 1.1824 9.2101 1.1824C8.19281 1.1824 7.36818 1.97647 7.36818 2.956C7.36818 3.93556 8.19281 4.7296 9.2101 4.7296ZM9.2101 5.912C10.9055 5.912 12.28 4.58854 12.28 2.956C12.28 1.32345 10.9055 0 9.2101 0C7.51467 0 6.14023 1.32345 6.14023 2.956C6.14023 4.58854 7.51467 5.912 9.2101 5.912Z" fill="black"/>
<path fill-rule="evenodd" clip-rule="evenodd" d="M5.14187 8.46264C5.7211 8.56882 6.14019 9.05644 6.14019 9.62423V21.8744C6.14019 22.2009 6.41507 22.4656 6.75417 22.4656H6.80746C7.12501 22.4656 7.39018 22.2324 7.41892 21.9279L7.98212 15.9624C7.9839 15.3106 8.53316 14.783 9.21007 14.783C9.88697 14.783 10.4362 15.3105 10.438 15.9623L11.0012 21.9279C11.0299 22.2324 11.2951 22.4656 11.6127 22.4656H11.666C12.0051 22.4656 12.2799 22.2009 12.2799 21.8744V9.64651C12.2799 9.07867 12.6992 8.59104 13.2785 8.48492C14.3566 8.28752 15.4967 8.01356 16.7495 7.66197C17.0751 7.57063 17.2621 7.24246 17.1672 6.92895C17.0724 6.61549 16.7316 6.43547 16.406 6.52681C13.5607 7.32529 11.3778 7.69479 9.21271 7.68544C7.04538 7.67604 4.85981 7.28703 2.00655 6.52474C1.67979 6.43742 1.34143 6.6217 1.25075 6.93634C1.16012 7.25097 1.3515 7.57678 1.67826 7.66404C2.92653 7.9976 4.0641 8.26512 5.14187 8.46264ZM8.58252 22.3488C8.36554 23.1039 7.64762 23.648 6.80746 23.648H6.75417C5.73687 23.648 4.91224 22.8539 4.91224 21.8744V9.62423C3.79125 9.41878 2.61923 9.14258 1.3499 8.8034C0.369681 8.5415 -0.204465 7.56407 0.0675258 6.62016C0.339517 5.67631 1.35463 5.12348 2.33484 5.38538C5.14034 6.13496 7.20673 6.49435 9.21817 6.50305C11.2232 6.51168 13.2816 6.17203 16.0624 5.39165C17.039 5.11757 18.0615 5.65775 18.3461 6.59811C18.6308 7.53853 18.0698 8.52306 17.0931 8.79714C15.8135 9.15623 14.6342 9.4403 13.5079 9.64651V21.8744C13.5079 22.8539 12.6833 23.648 11.666 23.648H11.6127C10.7725 23.648 10.0546 23.1039 9.83761 22.3488C9.81772 22.2794 9.802 22.2082 9.79076 22.1355C9.78567 22.1023 9.78149 22.0687 9.7783 22.0349L9.2151 16.0694C9.21185 16.0347 9.21019 16 9.21007 15.9654C9.20994 16 9.20829 16.0347 9.20503 16.0694L8.64183 22.0349C8.63864 22.0687 8.63446 22.1023 8.62937 22.1355C8.61813 22.2082 8.60242 22.2794 8.58252 22.3488Z" fill="black"/>
</svg>
