<svg width="24" height="22" viewBox="0 0 24 22" fill="none" xmlns="http://www.w3.org/2000/svg">
<path d="M19.1253 20.9015H13.5375C13.5036 20.9015 13.4711 20.888 13.4471 20.864C13.4231 20.84 13.4096 20.8075 13.4096 20.7736C13.4007 20.5971 13.1973 16.4366 13.8074 15.4378C14.154 14.8725 14.8306 14.4402 15.5378 13.9823C16.0967 13.6229 16.6748 13.252 17.1212 12.7967C17.5555 12.3441 17.9497 11.8545 18.2991 11.3336C18.7109 10.7478 19.0358 10.2848 19.5781 10.0303C20.0897 9.79497 20.4516 9.90241 20.6703 10.0226C20.646 9.16317 20.5923 6.78941 20.7394 6.44153C20.8532 6.17679 21.1806 5.7688 21.618 5.73554C21.9889 5.70869 22.3368 5.94913 22.6502 6.45304C23.4559 7.7448 23.4559 11.6968 22.92 14.1166C22.5504 15.7792 21.1231 16.9764 20.1779 17.7655C19.7942 18.0903 19.4527 18.3717 19.3939 18.5328C19.1829 19.0982 19.2507 20.7455 19.2519 20.7608C19.2527 20.7782 19.25 20.7955 19.2438 20.8118C19.2376 20.8281 19.2282 20.8429 19.2161 20.8554C19.205 20.8689 19.1911 20.88 19.1755 20.8879C19.1599 20.8958 19.1428 20.9004 19.1253 20.9015ZM13.659 20.6457H18.9936C18.9808 20.23 18.9616 18.9703 19.156 18.4497C19.2379 18.2297 19.564 17.9573 20.0155 17.58C20.9338 16.8126 22.3176 15.6539 22.6719 14.0718C23.195 11.7185 23.1835 7.80491 22.4353 6.59884C22.1795 6.18318 21.9071 5.98238 21.6385 6.00285C21.3047 6.02843 21.0476 6.38654 20.9747 6.55408C20.8647 6.80987 20.8916 8.98411 20.9351 10.2976C20.9358 10.3246 20.928 10.3511 20.9128 10.3733C20.8975 10.3956 20.8757 10.4125 20.8503 10.4215C20.8249 10.4306 20.7973 10.4314 20.7714 10.4239C20.7455 10.4163 20.7226 10.4008 20.7061 10.3795C20.6921 10.3628 20.3621 9.95485 19.683 10.2695C19.2008 10.4933 18.8926 10.932 18.5025 11.487C18.1454 12.0193 17.7427 12.5196 17.299 12.9821C16.8321 13.4579 16.2425 13.8378 15.6708 14.2048C14.984 14.6448 14.3356 15.0617 14.021 15.5772C13.512 16.42 13.6309 19.9435 13.659 20.6457Z" fill="black"/>
<path d="M18.0944 15.4582C18.0621 15.4581 18.0311 15.4458 18.0075 15.4237C17.9837 15.3998 17.9703 15.3673 17.9703 15.3335C17.9703 15.2998 17.9837 15.2673 18.0075 15.2434C18.9245 14.2496 19.8684 13.1702 20.4375 11.8605C20.6532 11.3795 20.7375 10.85 20.6818 10.3258C20.6788 10.3092 20.6792 10.2923 20.6828 10.2758C20.6864 10.2594 20.6932 10.2439 20.7028 10.2301C20.7125 10.2163 20.7247 10.2046 20.7389 10.1956C20.753 10.1865 20.7688 10.1803 20.7854 10.1774C20.802 10.1745 20.8191 10.1749 20.8356 10.1786C20.852 10.1823 20.8676 10.1892 20.8814 10.1989C20.8952 10.2087 20.9069 10.2211 20.9159 10.2354C20.9249 10.2497 20.931 10.2656 20.9337 10.2823C21.001 10.8563 20.9104 11.4378 20.6716 11.9641C20.0794 13.3109 19.1202 14.4082 18.1891 15.4173C18.177 15.4303 18.1624 15.4407 18.1461 15.4477C18.1298 15.4548 18.1122 15.4584 18.0944 15.4582Z" fill="black"/>
<path d="M10.7571 20.9015H5.16927C5.15204 20.9014 5.135 20.8979 5.11918 20.8911C5.10335 20.8843 5.08907 20.8743 5.07718 20.8618C5.06509 20.8493 5.05568 20.8345 5.04952 20.8182C5.04336 20.8019 5.04059 20.7846 5.04137 20.7672C5.04137 20.7519 5.11044 19.1046 4.89941 18.5393C4.84057 18.3832 4.50421 18.1018 4.1154 17.7719C3.17025 16.9828 1.74293 15.7895 1.37331 14.123C0.83742 11.7083 0.83742 7.7512 1.64317 6.45945C1.95651 5.95553 2.30183 5.71381 2.67529 5.74195C3.1127 5.7752 3.44267 6.18319 3.55394 6.44794C3.70102 6.7907 3.6473 9.16445 3.623 10.029C3.8417 9.90114 4.20877 9.80138 4.71524 10.0367C5.2588 10.2925 5.58365 10.7542 5.9942 11.34C6.34365 11.8609 6.73778 12.3505 7.17212 12.8031C7.61848 13.2584 8.19529 13.6293 8.75548 13.9887C9.46786 14.4466 10.1393 14.884 10.4859 15.4442C11.096 16.443 10.8926 20.6035 10.8837 20.78C10.882 20.8126 10.868 20.8433 10.8445 20.8659C10.821 20.8885 10.7897 20.9012 10.7571 20.9015ZM5.301 20.6457H10.6356C10.6637 19.9436 10.7826 16.4251 10.2685 15.5772C9.95387 15.0656 9.30544 14.6448 8.61863 14.2048C8.04694 13.8378 7.45733 13.4579 6.99051 12.9822C6.54678 12.5196 6.1441 12.0193 5.78701 11.4871C5.39692 10.932 5.08869 10.4933 4.60652 10.2695C3.93251 9.95485 3.60254 10.3628 3.58335 10.3807C3.56666 10.4019 3.54369 10.4173 3.51773 10.4247C3.49178 10.432 3.46416 10.431 3.43883 10.4217C3.41284 10.4123 3.39057 10.3948 3.37535 10.3718C3.36013 10.3487 3.35279 10.3214 3.35442 10.2938C3.3979 8.98412 3.42476 6.8086 3.31477 6.55025C3.24187 6.38143 2.9848 6.0246 2.65099 5.99902C2.38241 5.97856 2.11382 6.17935 1.85419 6.59502C1.10216 7.80492 1.09449 11.7109 1.61759 14.068C1.9693 15.6501 3.3557 16.8101 4.27399 17.5762C4.72547 17.9535 5.0516 18.2259 5.13346 18.4459C5.33298 18.9715 5.31379 20.23 5.301 20.6457Z" fill="black"/>
<path d="M6.20011 15.4583C6.18226 15.4582 6.16462 15.4544 6.14832 15.4472C6.13202 15.4399 6.11742 15.4293 6.10546 15.4161C5.17438 14.407 4.21516 13.3096 3.623 11.9629C3.38637 11.4359 3.29793 10.8545 3.3672 10.281C3.36999 10.2644 3.37604 10.2484 3.38502 10.2341C3.394 10.2198 3.40573 10.2074 3.41952 10.1977C3.43332 10.1879 3.44891 10.181 3.46539 10.1773C3.48188 10.1736 3.49893 10.1732 3.51556 10.1761C3.53211 10.1791 3.54792 10.1852 3.56208 10.1943C3.57624 10.2033 3.58849 10.2151 3.59811 10.2289C3.60773 10.2426 3.61454 10.2582 3.61815 10.2746C3.62176 10.291 3.62211 10.308 3.61916 10.3245C3.56347 10.8487 3.64776 11.3783 3.86344 11.8593C4.43897 13.1689 5.38285 14.2484 6.29347 15.2421C6.31729 15.2661 6.33066 15.2985 6.33066 15.3323C6.33066 15.3661 6.31729 15.3985 6.29347 15.4224C6.28111 15.4344 6.26647 15.4437 6.25043 15.4499C6.23439 15.456 6.21728 15.4589 6.20011 15.4583Z" fill="black"/>
<path d="M13.5375 20.7737L13.1879 20.7914L13.2048 21.1237H13.5375V20.7737ZM17.2171 12.8927L17.4668 13.1379L17.467 13.1378L17.2171 12.8927ZM19.6369 10.1532L19.4891 9.8359L19.4887 9.8361L19.6369 10.1532ZM20.811 10.3028L20.5325 10.5148L21.1969 11.3877L21.1608 10.2913L20.811 10.3028ZM19.1317 20.7737V21.1237H19.4969L19.4814 20.7588L19.1317 20.7737ZM19.1253 20.9015V21.2515H19.1358L19.1463 21.2509L19.1253 20.9015ZM13.4096 20.7736H13.7596V20.7647L13.7592 20.7559L13.4096 20.7736ZM13.8074 15.4378L13.509 15.2548L13.5087 15.2553L13.8074 15.4378ZM15.5378 13.9823L15.3485 13.6879L15.3476 13.6885L15.5378 13.9823ZM17.1212 12.7967L17.3711 13.0417L17.3737 13.039L17.1212 12.7967ZM18.2991 11.3336L18.0127 11.1322L18.0085 11.1386L18.2991 11.3336ZM19.5781 10.0303L19.4318 9.71232L19.4294 9.71346L19.5781 10.0303ZM20.6703 10.0226L20.5017 10.3293L21.0375 10.6238L21.0202 10.0127L20.6703 10.0226ZM20.7394 6.44153L20.4178 6.30328L20.417 6.30524L20.7394 6.44153ZM21.618 5.73554L21.5927 5.38646L21.5915 5.38655L21.618 5.73554ZM22.6502 6.45304L22.3529 6.63786L22.3532 6.63828L22.6502 6.45304ZM22.92 14.1166L23.2617 14.1925L23.2617 14.1923L22.92 14.1166ZM20.1779 17.7655L19.9536 17.4968L19.9518 17.4984L20.1779 17.7655ZM19.3939 18.5328L19.7218 18.6553L19.7227 18.6529L19.3939 18.5328ZM19.2519 20.7608L19.6018 20.7451L19.6007 20.7317L19.2519 20.7608ZM19.2161 20.8554L18.9645 20.6122L18.9552 20.6218L18.9467 20.6321L19.2161 20.8554ZM13.659 20.6457L13.3093 20.6597L13.3228 20.9957H13.659V20.6457ZM18.9936 20.6457V20.9957H19.3545L19.3434 20.6349L18.9936 20.6457ZM19.156 18.4497L19.4839 18.5722L19.4841 18.5718L19.156 18.4497ZM20.0155 17.58L19.7911 17.3115L19.791 17.3115L20.0155 17.58ZM22.6719 14.0718L23.0134 14.1483L23.0136 14.1478L22.6719 14.0718ZM22.4353 6.59884L22.1372 6.78228L22.1379 6.78335L22.4353 6.59884ZM21.6385 6.00285L21.6119 5.65386L21.6117 5.65387L21.6385 6.00285ZM20.9747 6.55408L20.6538 6.41444L20.6532 6.41582L20.9747 6.55408ZM20.9351 10.2976L21.2849 10.288L21.2849 10.286L20.9351 10.2976ZM20.7061 10.3795L20.9828 10.165L20.9782 10.1591L20.9733 10.1534L20.7061 10.3795ZM19.683 10.2695L19.5358 9.9519L19.5356 9.95201L19.683 10.2695ZM18.5025 11.487L18.216 11.2858L18.2118 11.2921L18.5025 11.487ZM17.299 12.9821L17.5488 13.2273L17.5515 13.2244L17.299 12.9821ZM15.6708 14.2048L15.8596 14.4996L15.8599 14.4994L15.6708 14.2048ZM14.021 15.5772L13.7222 15.3948L13.7214 15.3962L14.021 15.5772ZM18.0944 15.4582L18.0968 15.1083L18.0957 15.1082L18.0944 15.4582ZM18.0075 15.4237L17.7591 15.6706L17.7683 15.6792L18.0075 15.4237ZM18.0075 15.2434L18.2559 15.4903L18.2647 15.4807L18.0075 15.2434ZM20.4375 11.8605L20.1181 11.7173L20.1165 11.721L20.4375 11.8605ZM20.6818 10.3258L21.0298 10.2888L21.0285 10.2765L21.0264 10.2644L20.6818 10.3258ZM20.7854 10.1774L20.7246 9.83273L20.7243 9.83278L20.7854 10.1774ZM20.9337 10.2823L21.2814 10.2415L21.2804 10.233L21.279 10.2246L20.9337 10.2823ZM20.6716 11.9641L20.3528 11.8195L20.3512 11.8232L20.6716 11.9641ZM18.1891 15.4173L18.4457 15.6553L18.4463 15.6547L18.1891 15.4173ZM10.757 20.7737V21.1237H11.0897L11.1066 20.7914L10.757 20.7737ZM7.07746 12.8927L6.82756 13.1378L6.82768 13.1379L7.07746 12.8927ZM4.65766 10.1532L4.80584 9.8361L4.80541 9.8359L4.65766 10.1532ZM3.48357 10.3028L3.13376 10.2913L3.09767 11.3877L3.76207 10.5148L3.48357 10.3028ZM5.16285 20.7737L4.81317 20.7588L4.79763 21.1237H5.16285V20.7737ZM10.7571 20.9015V21.2515L10.7601 21.2515L10.7571 20.9015ZM5.16927 20.9015L5.16793 21.2515H5.16927V20.9015ZM5.07718 20.8618L5.33052 20.6203L5.32883 20.6186L5.07718 20.8618ZM5.04137 20.7672L5.39102 20.7829L5.39137 20.7751V20.7672H5.04137ZM4.89941 18.5393L5.22731 18.4168L5.2269 18.4158L4.89941 18.5393ZM4.1154 17.7719L4.34188 17.505L4.33972 17.5032L4.1154 17.7719ZM1.37331 14.123L1.715 14.0472L1.71499 14.0472L1.37331 14.123ZM1.64317 6.45945L1.94013 6.64468L1.94039 6.64427L1.64317 6.45945ZM2.67529 5.74195L2.70182 5.39295L2.70158 5.39294L2.67529 5.74195ZM3.55394 6.44794L3.23127 6.58355L3.2323 6.58595L3.55394 6.44794ZM3.623 10.029L3.27314 10.0192L3.25543 10.6494L3.79969 10.3312L3.623 10.029ZM4.71524 10.0367L4.86427 9.72002L4.86272 9.7193L4.71524 10.0367ZM5.9942 11.34L6.28492 11.145L6.28081 11.1391L5.9942 11.34ZM7.17212 12.8031L6.91958 13.0455L6.92219 13.0481L7.17212 12.8031ZM8.75548 13.9887L8.94472 13.6943L8.94447 13.6941L8.75548 13.9887ZM10.4859 15.4442L10.7846 15.2617L10.7836 15.26L10.4859 15.4442ZM10.8837 20.78L10.5341 20.7623L10.5341 20.7625L10.8837 20.78ZM5.301 20.6457L4.95117 20.6349L4.94007 20.9957H5.301V20.6457ZM10.6356 20.6457V20.9957H10.9718L10.9853 20.6597L10.6356 20.6457ZM10.2685 15.5772L10.5678 15.3957L10.5666 15.3938L10.2685 15.5772ZM8.61863 14.2048L8.42953 14.4994L8.42984 14.4996L8.61863 14.2048ZM6.99051 12.9822L6.73792 13.2245L6.74068 13.2273L6.99051 12.9822ZM5.78701 11.4871L6.07773 11.292L6.07337 11.2858L5.78701 11.4871ZM4.60652 10.2695L4.45848 10.5866L4.45916 10.5869L4.60652 10.2695ZM3.58335 10.3807L3.34454 10.1249L3.32497 10.1431L3.30841 10.1642L3.58335 10.3807ZM3.43883 10.4217L3.55939 10.0931L3.55722 10.0923L3.43883 10.4217ZM3.35442 10.2938L3.70393 10.3144L3.70423 10.3054L3.35442 10.2938ZM3.31477 6.55025L3.63681 6.41315L3.63609 6.4115L3.31477 6.55025ZM2.65099 5.99902L2.67773 5.65004L2.67758 5.65003L2.65099 5.99902ZM1.85419 6.59502L1.55734 6.4096L1.55694 6.41025L1.85419 6.59502ZM1.61759 14.068L1.2759 14.1438L1.27593 14.144L1.61759 14.068ZM4.27399 17.5762L4.49843 17.3076L4.49821 17.3074L4.27399 17.5762ZM5.13346 18.4459L4.80542 18.5679L4.80624 18.5701L5.13346 18.4459ZM6.20011 15.4583L6.21249 15.1083L6.20093 15.1083L6.20011 15.4583ZM6.10546 15.4161L6.36531 15.1815L6.36269 15.1787L6.10546 15.4161ZM3.623 11.9629L3.9434 11.822L3.94228 11.8195L3.623 11.9629ZM3.3672 10.281L3.02199 10.2233L3.02068 10.2312L3.01973 10.239L3.3672 10.281ZM3.51556 10.1761L3.57664 9.83151L3.57635 9.83146L3.51556 10.1761ZM3.61916 10.3245L3.27458 10.2631L3.27242 10.2753L3.27112 10.2875L3.61916 10.3245ZM3.86344 11.8593L4.18387 11.7184L4.1828 11.7161L3.86344 11.8593ZM6.29347 15.2421L6.03542 15.4786L6.04023 15.4838L6.04525 15.4889L6.29347 15.2421ZM6.29347 15.4224L6.53664 15.6743L6.54169 15.6692L6.29347 15.4224ZM13.5375 20.7737C13.887 20.756 13.887 20.756 13.887 20.756C13.887 20.7559 13.887 20.7559 13.887 20.7559C13.887 20.7558 13.887 20.7556 13.887 20.7554C13.887 20.7549 13.887 20.7542 13.8869 20.7533C13.8868 20.7513 13.8867 20.7484 13.8865 20.7445C13.8861 20.7366 13.8855 20.7248 13.8848 20.7093C13.8834 20.6783 13.8814 20.6325 13.879 20.5736C13.8743 20.4559 13.8682 20.2863 13.8628 20.0795C13.8519 19.6658 13.8436 19.1049 13.8539 18.5147C13.8642 17.9232 13.893 17.3091 13.9552 16.7867C13.9863 16.5254 14.025 16.2929 14.0721 16.1007C14.1203 15.9035 14.1722 15.7707 14.2193 15.6942L13.6231 15.3274C13.5199 15.4951 13.4471 15.7099 13.3922 15.9342C13.336 16.1634 13.2932 16.4261 13.2601 16.704C13.1939 17.2599 13.1645 17.9005 13.154 18.5026C13.1435 19.106 13.152 19.6777 13.163 20.098C13.1686 20.3083 13.1748 20.4812 13.1796 20.6016C13.182 20.6619 13.1841 20.7091 13.1856 20.7413C13.1863 20.7574 13.1869 20.7698 13.1873 20.7783C13.1875 20.7825 13.1877 20.7857 13.1878 20.7879C13.1878 20.789 13.1879 20.7898 13.1879 20.7904C13.1879 20.7907 13.1879 20.791 13.1879 20.7911C13.1879 20.7912 13.1879 20.7913 13.1879 20.7913C13.1879 20.7914 13.1879 20.7914 13.5375 20.7737ZM14.2193 15.6942C14.4714 15.2844 14.9674 14.9303 15.6011 14.52C16.2061 14.1282 16.9213 13.6936 17.4668 13.1379L16.9673 12.6475C16.4896 13.1342 15.8575 13.52 15.2206 13.9324C14.6124 14.3262 13.9721 14.76 13.6231 15.3274L14.2193 15.6942ZM17.467 13.1378C18.1047 12.4874 18.5028 11.8804 18.8348 11.4143C19.1746 10.9373 19.4267 10.6377 19.7851 10.4703L19.4887 9.8361C18.9467 10.0894 18.6027 10.5336 18.2647 11.0081C17.9189 11.4936 17.5572 12.0459 16.9672 12.6477L17.467 13.1378ZM19.7846 10.4705C20.0878 10.3293 20.278 10.3699 20.3808 10.4135C20.4383 10.4379 20.481 10.4689 20.508 10.4924C20.5214 10.504 20.5303 10.5132 20.5346 10.5179C20.5367 10.5202 20.5376 10.5213 20.5373 10.5209C20.5371 10.5207 20.5366 10.5201 20.5358 10.5191C20.5354 10.5186 20.5349 10.518 20.5344 10.5173C20.5341 10.517 20.5338 10.5166 20.5335 10.5161C20.5333 10.5159 20.5332 10.5157 20.533 10.5155C20.5329 10.5154 20.5328 10.5152 20.5327 10.5152C20.5326 10.515 20.5325 10.5148 20.811 10.3028C21.0895 10.0908 21.0893 10.0907 21.0892 10.0905C21.0891 10.0904 21.089 10.0902 21.0889 10.0901C21.0887 10.0898 21.0885 10.0896 21.0883 10.0893C21.0879 10.0888 21.0874 10.0882 21.087 10.0876C21.086 10.0864 21.085 10.085 21.0838 10.0836C21.0815 10.0807 21.0787 10.0772 21.0755 10.0734C21.069 10.0656 21.0608 10.056 21.0507 10.045C21.0305 10.023 21.0027 9.99488 20.9671 9.96398C20.8963 9.90247 20.7922 9.82767 20.6541 9.76909C20.3656 9.64675 19.9687 9.61257 19.4891 9.8359L19.7846 10.4705ZM20.811 10.3028C21.1608 10.2913 21.1608 10.2913 21.1608 10.2913C21.1608 10.2913 21.1608 10.2912 21.1608 10.2912C21.1608 10.2911 21.1608 10.291 21.1608 10.2908C21.1607 10.2904 21.1607 10.2898 21.1607 10.289C21.1606 10.2874 21.1606 10.285 21.1605 10.2818C21.1603 10.2754 21.16 10.2659 21.1596 10.2534C21.1588 10.2285 21.1577 10.1918 21.1563 10.1449C21.1535 10.0512 21.1498 9.91672 21.1458 9.75413C21.1378 9.42881 21.1289 8.99158 21.125 8.54297C21.1211 8.09355 21.1223 7.63625 21.1343 7.26957C21.1404 7.08578 21.149 6.92935 21.1605 6.81003C21.1737 6.67215 21.1871 6.6315 21.1827 6.64191L20.539 6.36669C20.494 6.47206 20.4754 6.62134 20.4637 6.74312C20.4502 6.88348 20.441 7.05644 20.4347 7.24657C20.4222 7.62772 20.4211 8.09632 20.425 8.54905C20.4289 9.00259 20.438 9.44376 20.446 9.77131C20.45 9.93516 20.4538 10.0707 20.4566 10.1654C20.458 10.2128 20.4591 10.2499 20.4599 10.2753C20.4603 10.2879 20.4606 10.2977 20.4608 10.3042C20.4609 10.3075 20.461 10.31 20.4611 10.3117C20.4611 10.3126 20.4611 10.3132 20.4611 10.3136C20.4611 10.3139 20.4611 10.314 20.4611 10.3141C20.4611 10.3142 20.4611 10.3143 20.4611 10.3143C20.4611 10.3143 20.4611 10.3143 20.811 10.3028ZM21.1827 6.64191C21.2063 6.58653 21.2604 6.49653 21.3397 6.41148C21.4191 6.32624 21.5048 6.26629 21.5846 6.23962C21.6541 6.21638 21.729 6.21393 21.8229 6.26074C21.9271 6.31267 22.0767 6.43708 22.2508 6.71636L22.8448 6.34596C22.6301 6.00175 22.3947 5.76357 22.1351 5.63421C21.8652 5.49973 21.5974 5.49728 21.3627 5.57571C21.1383 5.65072 20.9581 5.79412 20.8275 5.9343C20.6967 6.07467 20.5966 6.23215 20.539 6.36669L21.1827 6.64191ZM22.2508 6.71636C22.4089 6.96987 22.5456 7.39666 22.6447 7.96625C22.7423 8.52699 22.7981 9.19345 22.814 9.9014C22.8458 11.3196 22.7167 12.8713 22.4618 14.0245L23.1453 14.1756C23.4148 12.9564 23.5466 11.3471 23.5138 9.88571C23.4974 9.15387 23.4396 8.45088 23.3344 7.84624C23.2307 7.25046 23.0755 6.71594 22.8448 6.34596L22.2508 6.71636ZM22.4618 14.0245C22.2235 15.1027 21.4659 15.9909 20.6923 16.706C20.3059 17.0632 19.9353 17.3602 19.6262 17.6229C19.4754 17.7511 19.336 17.874 19.2256 17.9873C19.1233 18.0923 19.0098 18.2243 18.9546 18.3724L19.6106 18.6168C19.6088 18.6217 19.6122 18.6109 19.6337 18.5821C19.6541 18.5546 19.6844 18.5195 19.7269 18.4758C19.8129 18.3877 19.9308 18.2827 20.0796 18.1563C20.3696 17.9097 20.767 17.5903 21.1675 17.22C21.9676 16.4804 22.8593 15.4699 23.1453 14.1756L22.4618 14.0245ZM18.9546 18.3724C18.8826 18.5656 18.8421 18.8198 18.8169 19.0673C18.791 19.3219 18.7788 19.5985 18.7738 19.8511C18.7687 20.1045 18.7707 20.3382 18.774 20.5084C18.7757 20.5935 18.7777 20.6631 18.7792 20.7116C18.78 20.7358 18.7807 20.7548 18.7812 20.7679C18.7814 20.7744 18.7816 20.7794 18.7818 20.7829C18.7818 20.7847 18.7819 20.786 18.7819 20.787C18.7819 20.7874 18.782 20.7878 18.782 20.7881C18.782 20.7882 18.782 20.7883 18.782 20.7884C18.782 20.7884 18.782 20.7885 18.782 20.7885C18.782 20.7886 18.782 20.7886 19.1317 20.7737C19.4814 20.7588 19.4814 20.7588 19.4814 20.7588C19.4814 20.7588 19.4814 20.7588 19.4814 20.7588C19.4814 20.7588 19.4814 20.7588 19.4814 20.7587C19.4814 20.7586 19.4813 20.7583 19.4813 20.758C19.4813 20.7573 19.4813 20.7562 19.4812 20.7548C19.4811 20.7519 19.4809 20.7474 19.4807 20.7415C19.4802 20.7296 19.4796 20.7119 19.4789 20.689C19.4774 20.6431 19.4755 20.5766 19.4739 20.4948C19.4707 20.3309 19.4688 20.1068 19.4736 19.8651C19.4785 19.6227 19.4901 19.3668 19.5133 19.1381C19.5373 18.9022 19.5713 18.7222 19.6106 18.6168L18.9546 18.3724ZM19.1317 20.4237H13.5375V21.1237H19.1317V20.4237ZM19.1253 20.5515H13.5375V21.2515H19.1253V20.5515ZM13.5375 20.5515C13.5964 20.5515 13.6529 20.5749 13.6946 20.6165L13.1996 21.1115C13.2892 21.2011 13.4108 21.2515 13.5375 21.2515V20.5515ZM13.6946 20.6165C13.7362 20.6582 13.7596 20.7147 13.7596 20.7736H13.0596C13.0596 20.9003 13.11 21.0219 13.1996 21.1115L13.6946 20.6165ZM13.7592 20.7559C13.7549 20.6706 13.7023 19.596 13.7263 18.4212C13.7384 17.8333 13.7695 17.2276 13.8339 16.7114C13.9007 16.1762 13.9971 15.7987 14.1061 15.6202L13.5087 15.2553C13.3127 15.5763 13.2057 16.0933 13.1393 16.6247C13.0706 17.1751 13.0387 17.8078 13.0265 18.4069C13.0019 19.6062 13.0555 20.7001 13.0601 20.7913L13.7592 20.7559ZM14.1058 15.6207C14.2482 15.3884 14.4679 15.1691 14.7534 14.9451C15.0392 14.721 15.3705 14.5076 15.728 14.2761L15.3476 13.6885C14.9979 13.9149 14.6373 14.1466 14.3214 14.3943C14.0051 14.6424 13.7132 14.9218 13.509 15.2548L14.1058 15.6207ZM15.7271 14.2767C16.2785 13.9222 16.8921 13.5303 17.3711 13.0417L16.8713 12.5517C16.4575 12.9737 15.915 13.3236 15.3485 13.6879L15.7271 14.2767ZM17.3737 13.039C17.8221 12.5718 18.229 12.0664 18.5898 11.5285L18.0085 11.1386C17.6703 11.6427 17.2889 12.1164 16.8687 12.5544L17.3737 13.039ZM18.5854 11.5349C19.0092 10.9322 19.2835 10.5552 19.7268 10.3471L19.4294 9.71346C18.7881 10.0145 18.4127 10.5634 18.0128 11.1323L18.5854 11.5349ZM19.7243 10.3483C20.1201 10.1662 20.3648 10.2541 20.5017 10.3293L20.8389 9.71592C20.5385 9.55075 20.0592 9.42371 19.4318 9.71233L19.7243 10.3483ZM21.0202 10.0127C21.0081 9.58402 20.9887 8.78001 20.9906 8.04114C20.9915 7.67119 20.9978 7.32185 21.0126 7.04571C21.02 6.90731 21.0294 6.79192 21.0405 6.7037C21.053 6.60405 21.0641 6.57228 21.0617 6.57783L20.417 6.30524C20.3779 6.39775 20.3585 6.51626 20.3459 6.61637C20.3319 6.72791 20.3215 6.86176 20.3136 7.00825C20.2979 7.30189 20.2915 7.66492 20.2906 8.03933C20.2886 8.78918 20.3083 9.60178 20.3205 10.0325L21.0202 10.0127ZM21.0609 6.57978C21.0988 6.49166 21.1808 6.36419 21.2948 6.25884C21.4085 6.15383 21.5288 6.09334 21.6446 6.08454L21.5915 5.38655C21.2698 5.41101 21.0077 5.57113 20.8199 5.74462C20.6324 5.91776 20.4938 6.12666 20.4178 6.30329L21.0609 6.57978ZM21.6433 6.08463C21.8193 6.07189 22.0649 6.17467 22.3529 6.63786L22.9474 6.26822C22.6087 5.72359 22.1586 5.34548 21.5927 5.38646L21.6433 6.08463ZM22.3532 6.63828C22.519 6.90414 22.6606 7.34072 22.763 7.91644C22.864 8.48409 22.9217 9.15621 22.9383 9.86993C22.9715 11.2995 22.839 12.8636 22.5783 14.0409L23.2617 14.1923C23.5369 12.9498 23.6724 11.328 23.6381 9.85367C23.6209 9.11544 23.5611 8.40612 23.4522 7.79385C23.3447 7.18965 23.1842 6.64782 22.9471 6.26781L22.3532 6.63828ZM22.5784 14.0406C22.2387 15.5684 20.9159 16.6934 19.9536 17.4968L20.4022 18.0341C21.3303 17.2593 22.8621 15.9901 23.2617 14.1925L22.5784 14.0406ZM19.9518 17.4984C19.7639 17.6574 19.574 17.8161 19.4255 17.9545C19.3508 18.0241 19.2799 18.0947 19.2213 18.1632C19.1677 18.2258 19.1019 18.3122 19.0651 18.4128L19.7227 18.6529C19.7154 18.6729 19.7143 18.6637 19.7533 18.6181C19.7873 18.5784 19.8367 18.5281 19.9027 18.4666C20.0356 18.3428 20.2082 18.1984 20.4041 18.0326L19.9518 17.4984ZM19.066 18.4104C18.9966 18.5965 18.958 18.8434 18.9342 19.0826C18.9097 19.3296 18.8981 19.5992 18.8934 19.8464C18.884 20.3362 18.9011 20.7652 18.9032 20.7899L19.6007 20.7317C19.6015 20.741 19.5841 20.3387 19.5932 19.8598C19.5978 19.6225 19.6088 19.3733 19.6308 19.152C19.6536 18.9228 19.6858 18.7518 19.7218 18.6553L19.066 18.4104ZM18.9023 20.7765C18.9009 20.7463 18.9058 20.7162 18.9164 20.688L19.5711 20.9357C19.5941 20.8749 19.6045 20.81 19.6016 20.7451L18.9023 20.7765ZM18.9164 20.688C18.9271 20.6597 18.9435 20.6339 18.9645 20.6122L19.4678 21.0987C19.513 21.052 19.5481 20.9965 19.5711 20.9357L18.9164 20.688ZM18.9467 20.6321C18.9661 20.6087 18.9901 20.5895 19.0172 20.5757L19.3338 21.2001C19.3921 21.1705 19.4438 21.1292 19.4856 21.0788L18.9467 20.6321ZM19.0172 20.5757C19.0444 20.562 19.074 20.5539 19.1044 20.5521L19.1463 21.2509C19.2116 21.2469 19.2754 21.2297 19.3338 21.2001L19.0172 20.5757ZM13.659 20.9957H18.9936V20.2957H13.659V20.9957ZM19.3434 20.6349C19.3372 20.4312 19.3294 20.0216 19.3468 19.6015C19.3649 19.1648 19.4088 18.7732 19.4839 18.5722L18.8281 18.3273C18.7088 18.6468 18.6651 19.1453 18.6474 19.5725C18.629 20.0164 18.6372 20.4446 18.6438 20.6565L19.3434 20.6349ZM19.4841 18.5718C19.4949 18.5425 19.5438 18.4667 19.69 18.3259C19.8273 18.1936 20.0108 18.0401 20.2399 17.8486L19.791 17.3115C19.5687 17.4973 19.3634 17.6685 19.2043 17.8218C19.0541 17.9665 18.899 18.1369 18.828 18.3277L19.4841 18.5718ZM20.2399 17.8486C21.1395 17.0969 22.6289 15.8656 23.0134 14.1483L22.3304 13.9953C22.0063 15.4423 20.7281 16.5284 19.7911 17.3115L20.2399 17.8486ZM23.0136 14.1478C23.2825 12.9377 23.4117 11.342 23.3802 9.8975C23.3645 9.17405 23.3083 8.48024 23.2064 7.88533C23.1062 7.2998 22.9562 6.77464 22.7327 6.41434L22.1379 6.78335C22.2884 7.02608 22.4205 7.4424 22.5165 8.00342C22.6109 8.55506 22.6652 9.21287 22.6804 9.91275C22.711 11.3149 22.5844 12.8527 22.3302 13.9959L23.0136 14.1478ZM22.7334 6.41541C22.4637 5.97723 22.0901 5.61743 21.6119 5.65386L21.6651 6.35184C21.7241 6.34734 21.8953 6.38913 22.1372 6.78228L22.7334 6.41541ZM21.6117 5.65387C21.3285 5.67557 21.1072 5.83358 20.9628 5.97619C20.8165 6.12074 20.7083 6.28914 20.6538 6.41444L21.2956 6.69372C21.314 6.65147 21.3708 6.55705 21.4547 6.47427C21.5405 6.38954 21.6146 6.3557 21.6652 6.35182L21.6117 5.65387ZM20.6532 6.41582C20.616 6.50225 20.6009 6.61441 20.5918 6.69547C20.5809 6.79267 20.5727 6.91215 20.5664 7.04573C20.5538 7.31373 20.5481 7.65653 20.5473 8.02845C20.5457 8.77322 20.5634 9.64939 20.5853 10.3092L21.2849 10.286C21.2632 9.63233 21.2457 8.76463 21.2473 8.02996C21.2481 7.66215 21.2537 7.33135 21.2656 7.07869C21.2716 6.95194 21.279 6.84933 21.2875 6.77354C21.2978 6.6816 21.3059 6.66986 21.2962 6.69234L20.6532 6.41582ZM20.5852 10.3072C20.5839 10.2604 20.5974 10.2144 20.6239 10.1757L21.2016 10.571C21.2586 10.4878 21.2877 10.3887 21.2849 10.288L20.5852 10.3072ZM20.6239 10.1757C20.6503 10.1371 20.6883 10.1077 20.7324 10.092L20.9681 10.7511C21.063 10.7172 21.1447 10.6541 21.2016 10.571L20.6239 10.1757ZM20.7324 10.092C20.7765 10.0762 20.8245 10.0748 20.8694 10.0879L20.6733 10.7599C20.77 10.7881 20.8732 10.785 20.9681 10.7511L20.7324 10.092ZM20.8694 10.0879C20.9144 10.101 20.9541 10.128 20.9828 10.165L20.4295 10.5939C20.4912 10.6735 20.5766 10.7316 20.6733 10.7599L20.8694 10.0879ZM20.9733 10.1534C20.9751 10.1555 20.969 10.1482 20.9629 10.1412C20.9563 10.1337 20.948 10.1246 20.938 10.1142C20.918 10.0934 20.8913 10.0678 20.8577 10.0403C20.7907 9.98543 20.6948 9.92152 20.5691 9.87338C20.3064 9.77285 19.956 9.75725 19.5358 9.9519L19.8301 10.587C20.0891 10.4671 20.2431 10.4982 20.3188 10.5271C20.3622 10.5437 20.3939 10.5653 20.414 10.5817C20.4239 10.5899 20.4306 10.5965 20.434 10.6C20.4368 10.6029 20.4367 10.6029 20.4389 10.6055L20.9733 10.1534ZM19.5356 9.95201C18.9521 10.2229 18.5917 10.7514 18.2161 11.2858L18.7888 11.6883C19.1934 11.1126 19.4495 10.7637 19.8303 10.5869L19.5356 9.95201ZM18.2118 11.2921C17.866 11.8075 17.4761 12.2919 17.0464 12.7399L17.5515 13.2244C18.0093 12.7472 18.4247 12.2312 18.7931 11.682L18.2118 11.2921ZM17.0491 12.737C16.6147 13.1798 16.0597 13.5392 15.4818 13.9103L15.8599 14.4994C16.4254 14.1363 17.0496 13.736 17.5488 13.2273L17.0491 12.737ZM15.4821 13.9101C15.1416 14.1282 14.7936 14.3512 14.4913 14.5865C14.1898 14.8213 13.9114 15.085 13.7222 15.3948L14.3197 15.7595C14.4452 15.5539 14.6484 15.3514 14.9214 15.1389C15.1936 14.9269 15.5133 14.7214 15.8596 14.4996L15.4821 13.9101ZM13.7214 15.3962C13.5521 15.6766 13.4584 16.1226 13.3987 16.5807C13.3365 17.0572 13.3041 17.6118 13.2887 18.1543C13.258 19.2404 13.2952 20.3062 13.3093 20.6597L14.0088 20.6317C13.9948 20.2831 13.9584 19.236 13.9884 18.1741C14.0035 17.6425 14.035 17.1143 14.0928 16.6712C14.153 16.2096 14.2354 15.8992 14.3206 15.7581L13.7214 15.3962ZM18.0957 15.1082C18.1518 15.1084 18.2057 15.1299 18.2467 15.1682L17.7683 15.6792C17.8564 15.7617 17.9725 15.8078 18.0932 15.8082L18.0957 15.1082ZM18.2557 15.177C18.2971 15.2186 18.3203 15.2749 18.3203 15.3335H17.6203C17.6203 15.4598 17.6703 15.5809 17.7593 15.6705L18.2557 15.177ZM18.3203 15.3335C18.3203 15.3922 18.2971 15.4485 18.2557 15.4901L17.7593 14.9966C17.6703 15.0862 17.6203 15.2073 17.6203 15.3335H18.3203ZM18.2647 15.4807C19.1813 14.4874 20.1633 13.3697 20.7585 12L20.1165 11.721C19.5734 12.9707 18.6677 14.0118 17.7503 15.006L18.2647 15.4807ZM20.7569 12.0037C20.9979 11.4663 21.0921 10.8745 21.0298 10.2888L20.3337 10.3627C20.3829 10.8254 20.3085 11.2928 20.1181 11.7173L20.7569 12.0037ZM21.0264 10.2644C21.0315 10.2931 21.0309 10.3226 21.0246 10.3511L20.341 10.2006C20.3275 10.262 20.3262 10.3253 20.3372 10.3871L21.0264 10.2644ZM21.0246 10.3511C21.0183 10.3796 21.0065 10.4066 20.9898 10.4305L20.4159 10.0297C20.3799 10.0812 20.3545 10.1393 20.341 10.2006L21.0246 10.3511ZM20.9898 10.4305C20.9731 10.4544 20.9518 10.4748 20.9272 10.4905L20.5505 9.90057C20.4976 9.93436 20.4518 9.97826 20.4159 10.0297L20.9898 10.4305ZM20.9272 10.4905C20.9026 10.5062 20.8752 10.5169 20.8465 10.522L20.7243 9.83278C20.6625 9.84374 20.6034 9.86677 20.5505 9.90057L20.9272 10.4905ZM20.8462 10.5221C20.8173 10.5272 20.7877 10.5265 20.759 10.5201L20.9121 9.83702C20.8505 9.82323 20.7868 9.82176 20.7246 9.83273L20.8462 10.5221ZM20.759 10.5201C20.7305 10.5137 20.7034 10.5017 20.6794 10.4847L21.0835 9.91312C21.0319 9.87666 20.9736 9.85081 20.9121 9.83702L20.759 10.5201ZM20.6794 10.4847C20.6554 10.4678 20.6351 10.4463 20.6195 10.4214L21.2124 10.0493C21.1788 9.99587 21.135 9.94958 21.0835 9.91312L20.6794 10.4847ZM20.6195 10.4214C20.6039 10.3966 20.5934 10.3689 20.5885 10.34L21.279 10.2246C21.2686 10.1623 21.2459 10.1028 21.2124 10.0493L20.6195 10.4214ZM20.5861 10.323C20.646 10.8338 20.5653 11.3512 20.3528 11.8195L20.9903 12.1087C21.2554 11.5244 21.3561 10.8788 21.2814 10.2415L20.5861 10.323ZM20.3512 11.8232C19.7849 13.1112 18.8629 14.171 17.9319 15.18L18.4463 15.6547C19.3775 14.6455 20.3739 13.5106 20.992 12.105L20.3512 11.8232ZM17.9325 15.1793C17.9534 15.1567 17.9789 15.1387 18.0072 15.1265L18.285 15.769C18.3459 15.7427 18.4006 15.704 18.4457 15.6553L17.9325 15.1793ZM18.0072 15.1265C18.0355 15.1143 18.066 15.108 18.0968 15.1083L18.0921 15.8082C18.1584 15.8087 18.2241 15.7953 18.285 15.769L18.0072 15.1265ZM10.757 20.7737C11.1066 20.7914 11.1066 20.7914 11.1066 20.7913C11.1066 20.7913 11.1066 20.7912 11.1066 20.7911C11.1066 20.791 11.1066 20.7907 11.1066 20.7904C11.1067 20.7898 11.1067 20.789 11.1068 20.7879C11.1069 20.7857 11.107 20.7825 11.1072 20.7783C11.1076 20.7698 11.1082 20.7574 11.109 20.7413C11.1104 20.7091 11.1125 20.6619 11.1149 20.6016C11.1197 20.4812 11.126 20.3083 11.1315 20.098C11.1426 19.6777 11.1511 19.106 11.1406 18.5026C11.1301 17.9005 11.1006 17.2599 11.0344 16.704C11.0014 16.4261 10.9585 16.1634 10.9024 15.9342C10.8475 15.7099 10.7747 15.4951 10.6715 15.3274L10.0752 15.6942C10.1223 15.7707 10.1742 15.9035 10.2225 16.1007C10.2695 16.2929 10.3083 16.5254 10.3393 16.7867C10.4015 17.3091 10.4304 17.9232 10.4407 18.5147C10.4509 19.1049 10.4426 19.6658 10.4317 20.0795C10.4263 20.2863 10.4202 20.4559 10.4155 20.5736C10.4131 20.6325 10.4111 20.6783 10.4097 20.7093C10.409 20.7248 10.4084 20.7366 10.408 20.7445C10.4079 20.7484 10.4077 20.7513 10.4076 20.7533C10.4076 20.7542 10.4075 20.7549 10.4075 20.7554C10.4075 20.7556 10.4075 20.7558 10.4075 20.7559C10.4075 20.7559 10.4075 20.7559 10.4075 20.756C10.4075 20.756 10.4075 20.756 10.757 20.7737ZM10.6715 15.3274C10.3224 14.76 9.6821 14.3262 9.07391 13.9324C8.43706 13.52 7.80489 13.1342 7.32723 12.6475L6.82768 13.1379C7.3732 13.6936 8.08842 14.1282 8.69344 14.52C9.32712 14.9303 9.82314 15.2844 10.0752 15.6942L10.6715 15.3274ZM7.32736 12.6477C6.73731 12.0459 6.37566 11.4936 6.02984 11.0081C5.6918 10.5336 5.34787 10.0894 4.80584 9.8361L4.50948 10.4703C4.86784 10.6377 5.11991 10.9373 5.45971 11.4143C5.79174 11.8804 6.1898 12.4874 6.82756 13.1378L7.32736 12.6477ZM4.80541 9.8359C4.32583 9.61257 3.92898 9.64675 3.64046 9.76909C3.50231 9.82766 3.39818 9.90247 3.32739 9.96398C3.29184 9.99487 3.26404 10.023 3.24387 10.045C3.23376 10.056 3.22549 10.0656 3.21905 10.0734C3.21583 10.0772 3.21305 10.0807 3.21072 10.0836C3.20956 10.085 3.20851 10.0864 3.20757 10.0876C3.2071 10.0882 3.20665 10.0888 3.20624 10.0893C3.20603 10.0896 3.20583 10.0898 3.20564 10.0901C3.20554 10.0902 3.2054 10.0904 3.20535 10.0905C3.20521 10.0907 3.20507 10.0908 3.48357 10.3028C3.76207 10.5148 3.76193 10.515 3.7618 10.5152C3.76176 10.5152 3.76163 10.5154 3.76154 10.5155C3.76137 10.5157 3.76121 10.5159 3.76105 10.5161C3.76073 10.5166 3.76043 10.517 3.76015 10.5173C3.75959 10.518 3.75911 10.5186 3.75871 10.5191C3.75791 10.5201 3.75743 10.5207 3.75726 10.5209C3.75694 10.5213 3.75784 10.5202 3.75996 10.5179C3.76425 10.5132 3.77314 10.504 3.78651 10.4924C3.81356 10.4689 3.85619 10.4379 3.91372 10.4135C4.01657 10.3699 4.20677 10.3293 4.5099 10.4705L4.80541 9.8359ZM3.48357 10.3028C3.83338 10.3143 3.83338 10.3143 3.83338 10.3143C3.83338 10.3143 3.83338 10.3142 3.83339 10.3141C3.83339 10.314 3.8334 10.3139 3.8334 10.3136C3.83342 10.3132 3.83344 10.3126 3.83347 10.3117C3.83352 10.31 3.8336 10.3075 3.83371 10.3042C3.83392 10.2977 3.83423 10.2879 3.83462 10.2753C3.83542 10.2499 3.83655 10.2128 3.83794 10.1654C3.84071 10.0707 3.84449 9.93516 3.84851 9.77131C3.85655 9.44376 3.86559 9.00259 3.86953 8.54905C3.87346 8.09632 3.87235 7.62772 3.85982 7.24657C3.85357 7.05644 3.84434 6.88348 3.83087 6.74312C3.81917 6.62134 3.80056 6.47206 3.7555 6.36669L3.11188 6.64191C3.10743 6.6315 3.12083 6.67215 3.13407 6.81003C3.14553 6.92935 3.15416 7.08578 3.1602 7.26957C3.17225 7.63625 3.17346 8.09355 3.16955 8.54297C3.16566 8.99158 3.15671 9.42881 3.14872 9.75413C3.14473 9.91672 3.14099 10.0512 3.13824 10.1449C3.13687 10.1918 3.13574 10.2285 3.13496 10.2534C3.13458 10.2659 3.13427 10.2754 3.13407 10.2818C3.13397 10.285 3.13389 10.2874 3.13384 10.289C3.13381 10.2898 3.13379 10.2904 3.13378 10.2908C3.13377 10.2909 3.13377 10.2911 3.13376 10.2912C3.13376 10.2912 3.13376 10.2913 3.13376 10.2913C3.13376 10.2913 3.13376 10.2913 3.48357 10.3028ZM3.7555 6.36669C3.69797 6.23215 3.59779 6.07467 3.467 5.9343C3.3364 5.79412 3.15628 5.65072 2.93185 5.57571C2.69716 5.49728 2.42933 5.49973 2.15944 5.63421C1.89983 5.76357 1.6644 6.00175 1.44975 6.34596L2.04373 6.71636C2.21788 6.43708 2.36742 6.31267 2.47164 6.26074C2.56557 6.21393 2.64043 6.21638 2.70997 6.23962C2.78977 6.26629 2.87544 6.32624 2.95486 6.41148C3.0341 6.49653 3.08819 6.58653 3.11188 6.64191L3.7555 6.36669ZM1.44975 6.34596C1.21904 6.71594 1.06384 7.25046 0.960159 7.84624C0.854941 8.45088 0.797101 9.15387 0.780686 9.88571C0.747908 11.3471 0.879716 12.9564 1.14919 14.1756L1.8327 14.0245C1.5778 12.8713 1.4487 11.3196 1.48051 9.9014C1.49639 9.19345 1.55222 8.52699 1.6498 7.96625C1.74891 7.39666 1.88564 6.96987 2.04373 6.71636L1.44975 6.34596ZM1.14919 14.1756C1.43527 15.4699 2.32691 16.4804 3.12704 17.22C3.52755 17.5903 3.92488 17.9097 4.21495 18.1563C4.36371 18.2827 4.48166 18.3877 4.56758 18.4758C4.61016 18.5195 4.64042 18.5546 4.66087 18.5821C4.68234 18.6109 4.68578 18.6217 4.68396 18.6168L5.33991 18.3724C5.28472 18.2243 5.17122 18.0923 5.06893 17.9873C4.9585 17.874 4.81911 17.7511 4.66832 17.6229C4.35927 17.3602 3.98859 17.0632 3.60221 16.706C2.82858 15.9909 2.071 15.1027 1.8327 14.0245L1.14919 14.1756ZM4.68396 18.6168C4.72323 18.7222 4.7572 18.9022 4.78119 19.1381C4.80445 19.3668 4.81606 19.6227 4.82091 19.8651C4.82575 20.1068 4.82381 20.3309 4.82063 20.4948C4.81904 20.5766 4.81716 20.6431 4.81567 20.689C4.81493 20.7119 4.8143 20.7296 4.81385 20.7415C4.81362 20.7474 4.81345 20.7519 4.81333 20.7548C4.81327 20.7562 4.81323 20.7573 4.8132 20.758C4.81319 20.7583 4.81318 20.7586 4.81317 20.7587C4.81317 20.7588 4.81317 20.7588 4.81317 20.7588C4.81316 20.7588 4.81317 20.7588 4.81317 20.7588C4.81317 20.7588 4.81317 20.7588 5.16285 20.7737C5.51253 20.7886 5.51253 20.7886 5.51254 20.7885C5.51254 20.7885 5.51254 20.7884 5.51254 20.7884C5.51254 20.7883 5.51255 20.7882 5.51255 20.7881C5.51257 20.7878 5.51258 20.7874 5.5126 20.787C5.51264 20.786 5.5127 20.7847 5.51277 20.7829C5.51291 20.7794 5.5131 20.7744 5.51335 20.7679C5.51384 20.7548 5.51453 20.7358 5.51531 20.7116C5.51688 20.6631 5.51885 20.5935 5.5205 20.5084C5.5238 20.3382 5.52585 20.1045 5.52077 19.8511C5.51572 19.5985 5.5035 19.3219 5.4776 19.0673C5.45243 18.8198 5.41191 18.5656 5.33991 18.3724L4.68396 18.6168ZM5.16285 21.1237H10.757V20.4237H5.16285V21.1237ZM10.7571 20.5515H5.16927V21.2515H10.7571V20.5515ZM5.1706 20.5515C5.20051 20.5516 5.23009 20.5578 5.25759 20.5696L4.98077 21.2125C5.03991 21.238 5.10357 21.2512 5.16793 21.2515L5.1706 20.5515ZM5.25759 20.5696C5.28508 20.5814 5.30989 20.5987 5.33052 20.6204L4.82385 21.1033C4.86825 21.1499 4.92163 21.1871 4.98077 21.2125L5.25759 20.5696ZM5.32883 20.6186C5.34983 20.6403 5.36618 20.6661 5.37687 20.6944L4.72217 20.9421C4.74518 21.0029 4.78035 21.0584 4.82554 21.1051L5.32883 20.6186ZM5.37687 20.6944C5.38756 20.7226 5.39238 20.7528 5.39102 20.7829L4.69173 20.7515C4.6888 20.8164 4.69916 20.8813 4.72217 20.9421L5.37687 20.6944ZM5.39137 20.7672C5.39137 20.791 5.40849 20.3325 5.39946 19.8529C5.39481 19.6058 5.38338 19.3362 5.35891 19.0892C5.33521 18.85 5.2968 18.603 5.2273 18.4168L4.57151 18.6617C4.60753 18.7582 4.63962 18.9291 4.66232 19.1582C4.68425 19.3796 4.69512 19.6288 4.69959 19.866C4.70879 20.3552 4.69137 20.7281 4.69137 20.7672H5.39137ZM5.2269 18.4158C5.19002 18.3179 5.12507 18.2334 5.07239 18.172C5.01463 18.1047 4.94454 18.0347 4.87033 17.9653C4.72249 17.8269 4.5331 17.6673 4.34187 17.505L3.88893 18.0387C4.08651 18.2064 4.2597 18.3525 4.39196 18.4763C4.4578 18.5379 4.50713 18.5882 4.54113 18.6278C4.58022 18.6734 4.57938 18.6825 4.57191 18.6627L5.2269 18.4158ZM4.33972 17.5032C3.37713 16.6995 2.05464 15.5785 1.715 14.0472L1.03161 14.1988C1.43121 16.0004 2.96337 17.266 3.89109 18.0405L4.33972 17.5032ZM1.71499 14.0472C1.45432 12.8726 1.32182 11.3085 1.35503 9.87825C1.37161 9.1642 1.42934 8.49159 1.53032 7.92352C1.63273 7.34735 1.77432 6.9105 1.94013 6.64468L1.3462 6.27421C1.10914 6.65427 0.948576 7.19646 0.841119 7.80102C0.732221 8.41367 0.672369 9.12346 0.655218 9.862C0.620966 11.3369 0.756409 12.9587 1.03162 14.1988L1.71499 14.0472ZM1.94039 6.64427C2.22928 6.17969 2.47213 6.07763 2.64899 6.09096L2.70158 5.39294C2.13154 5.34999 1.68375 5.73138 1.34594 6.27463L1.94039 6.64427ZM2.64876 6.09094C2.76477 6.09976 2.88578 6.16049 2.99971 6.26549C3.11413 6.37096 3.19519 6.4977 3.23128 6.58355L3.8766 6.31232C3.80141 6.13343 3.66185 5.9238 3.47412 5.75077C3.28589 5.57728 3.02321 5.41739 2.70182 5.39296L2.64876 6.09094ZM3.2323 6.58595C3.22928 6.57891 3.24032 6.60916 3.25289 6.70864C3.26396 6.79628 3.27328 6.9112 3.2807 7.04928C3.2955 7.32475 3.30178 7.67375 3.30274 8.04371C3.30464 8.78258 3.28526 9.58787 3.27314 10.0192L3.97286 10.0389C3.98504 9.60562 4.00467 8.79174 4.00274 8.0419C4.00177 7.6675 3.99543 7.30476 3.97969 7.01173C3.97184 6.86556 3.96141 6.73204 3.94737 6.62088C3.93482 6.52157 3.91537 6.40265 3.87558 6.30992L3.2323 6.58595ZM3.79969 10.3312C3.92671 10.2569 4.1728 10.1706 4.56775 10.3541L4.86272 9.7193C4.24473 9.43215 3.75669 9.5454 3.44632 9.7269L3.79969 10.3312ZM4.56621 10.3534C5.01106 10.5627 5.28585 10.9391 5.70759 11.5408L6.28081 11.1391C5.88145 10.5693 5.50653 10.0223 4.86426 9.72002L4.56621 10.3534ZM5.70354 11.5349C6.0643 12.0728 6.47119 12.5782 6.91959 13.0454L7.42466 12.5608C7.00438 12.1228 6.623 11.6491 6.28486 11.145L5.70354 11.5349ZM6.92219 13.0481C7.40118 13.5367 8.01328 13.9284 8.56649 14.2833L8.94447 13.6941C8.3773 13.3302 7.83579 12.9801 7.42206 12.5581L6.92219 13.0481ZM8.56624 14.2831C9.29974 14.7546 9.89203 15.1495 10.1883 15.6283L10.7836 15.26C10.3866 14.6185 9.63598 14.1386 8.94472 13.6943L8.56624 14.2831ZM10.1872 15.6266C10.2962 15.8051 10.3926 16.1827 10.4594 16.7178C10.5238 17.234 10.555 17.8397 10.567 18.4276C10.591 19.6024 10.5384 20.677 10.5341 20.7623L11.2332 20.7977C11.2379 20.7065 11.2914 19.6126 11.2669 18.4133C11.2546 17.8142 11.2227 17.1815 11.154 16.6311C11.0877 16.0997 10.9806 15.5827 10.7846 15.2617L10.1872 15.6266ZM10.5341 20.7625C10.5369 20.7059 10.5613 20.6526 10.6022 20.6134L11.0868 21.1184C11.1748 21.034 11.2271 20.9192 11.2332 20.7975L10.5341 20.7625ZM10.6022 20.6134C10.643 20.5741 10.6974 20.552 10.754 20.5515L10.7601 21.2515C10.882 21.2504 10.9989 21.2028 11.0868 21.1184L10.6022 20.6134ZM5.301 20.9957H10.6356V20.2957H5.301V20.9957ZM10.9853 20.6597C10.9994 20.3062 11.0366 19.2415 11.0052 18.156C10.9896 17.6138 10.9566 17.0592 10.8937 16.5823C10.8332 16.1237 10.7384 15.6772 10.5678 15.3957L9.96921 15.7586C10.0556 15.9012 10.1388 16.2124 10.1997 16.6739C10.2582 17.1171 10.2902 17.6451 10.3055 18.1762C10.3362 19.2374 10.2998 20.2831 10.2858 20.6317L10.9853 20.6597ZM10.5666 15.3938C10.3777 15.0866 10.0997 14.8233 9.79842 14.5882C9.49616 14.3524 9.14844 14.1286 8.80743 13.9101L8.42984 14.4996C8.77563 14.7211 9.09553 14.9277 9.36784 15.1401C9.64108 15.3533 9.84468 15.5562 9.97036 15.7605L10.5666 15.3938ZM8.80773 13.9103C8.22979 13.5393 7.67482 13.1798 7.24034 12.737L6.74068 13.2273C7.23984 13.736 7.86408 14.1363 8.42953 14.4994L8.80773 13.9103ZM7.24309 12.7399C6.8134 12.2919 6.42346 11.8075 6.07766 11.2921L5.49635 11.682C5.86474 12.2312 6.28017 12.7473 6.73794 13.2245L7.24309 12.7399ZM6.07337 11.2858C5.69779 10.7514 5.33739 10.2229 4.75389 9.95201L4.45916 10.5869C4.84 10.7637 5.09605 11.1126 5.50065 11.6883L6.07337 11.2858ZM4.75457 9.95233C4.33622 9.75705 3.98655 9.77289 3.72398 9.87365C3.47556 9.96898 3.33078 10.1377 3.34454 10.1249L3.82216 10.6366C3.85511 10.6059 3.8849 10.5617 3.97477 10.5272C4.05049 10.4981 4.20281 10.4673 4.45848 10.5866L4.75457 9.95233ZM3.30841 10.1642C3.3374 10.1274 3.37729 10.1007 3.42237 10.0879L3.6131 10.7614C3.71009 10.734 3.79591 10.6765 3.85829 10.5973L3.30841 10.1642ZM3.42237 10.0879C3.46745 10.0751 3.51541 10.077 3.55939 10.0931L3.31827 10.7503C3.41291 10.785 3.51611 10.7889 3.6131 10.7614L3.42237 10.0879ZM3.55722 10.0923C3.60234 10.1085 3.64103 10.1389 3.66746 10.179L3.08324 10.5646C3.1401 10.6507 3.22333 10.7161 3.32044 10.751L3.55722 10.0923ZM3.66746 10.179C3.69389 10.219 3.70664 10.2665 3.70381 10.3144L3.00503 10.2731C2.99894 10.3762 3.02638 10.4784 3.08324 10.5646L3.66746 10.179ZM3.70423 10.3054C3.72607 9.64749 3.74376 8.77195 3.74215 8.02702C3.74134 7.65502 3.73573 7.31195 3.7231 7.04355C3.7168 6.90976 3.70857 6.79007 3.69767 6.69265C3.68854 6.61104 3.67348 6.4993 3.6368 6.41315L2.99274 6.68735C2.98356 6.66579 2.99172 6.67855 3.00201 6.77048C3.01052 6.84659 3.0179 6.94949 3.02387 7.07645C3.03578 7.32955 3.04135 7.66065 3.04215 8.02853C3.04374 8.76336 3.02625 9.63041 3.00461 10.2822L3.70423 10.3054ZM3.63609 6.4115C3.58143 6.2849 3.47298 6.11618 3.32647 5.97171C3.1818 5.82904 2.96057 5.67172 2.67773 5.65004L2.62425 6.348C2.67522 6.3519 2.74943 6.38578 2.83497 6.47013C2.91868 6.55268 2.97522 6.64678 2.99345 6.689L3.63609 6.4115ZM2.67758 5.65003C2.19858 5.61354 1.82875 5.97509 1.55734 6.4096L2.15105 6.78043C2.3989 6.38362 2.56624 6.34358 2.6244 6.34801L2.67758 5.65003ZM1.55694 6.41025C1.33242 6.77147 1.18188 7.29684 1.08144 7.88246C0.979409 8.47736 0.92332 9.17077 0.907799 9.89379C0.876805 11.3375 1.00699 12.9321 1.2759 14.1438L1.95927 13.9922C1.70508 12.8468 1.57756 11.3098 1.60764 9.90881C1.62265 9.20945 1.67679 8.5522 1.77136 8.00079C1.86753 7.4401 1.99996 7.02351 2.15145 6.77978L1.55694 6.41025ZM1.27593 14.144C1.65782 15.8618 3.15028 17.0945 4.04978 17.8449L4.49821 17.3074C3.56112 16.5257 2.28079 15.4384 1.95925 13.992L1.27593 14.144ZM4.04956 17.8448C4.27869 18.0362 4.46219 18.1898 4.59951 18.3221C4.74568 18.4629 4.79455 18.5387 4.80543 18.5679L5.46148 18.3238C5.39051 18.1331 5.23539 17.9627 5.08515 17.818C4.92607 17.6647 4.72077 17.4934 4.49843 17.3076L4.04956 17.8448ZM4.80624 18.5701C4.88333 18.7732 4.92844 19.1654 4.94717 19.602C4.96519 20.0222 4.95744 20.4312 4.95117 20.6349L5.65084 20.6565C5.65736 20.4446 5.66559 20.0165 5.64652 19.572C5.62816 19.1441 5.5831 18.6442 5.46068 18.3217L4.80624 18.5701ZM6.20093 15.1083C6.23194 15.1083 6.26257 15.1149 6.29087 15.1275L6.00577 15.7668C6.06666 15.794 6.13258 15.8081 6.19928 15.8083L6.20093 15.1083ZM6.29087 15.1275C6.31917 15.1401 6.34452 15.1585 6.36529 15.1816L5.84563 15.6506C5.89032 15.7001 5.94487 15.7397 6.00577 15.7668L6.29087 15.1275ZM6.36269 15.1787C5.4317 14.1697 4.50969 13.1099 3.94339 11.822L3.3026 12.1037C3.92062 13.5093 4.91705 14.6442 5.84823 15.6534L6.36269 15.1787ZM3.94228 11.8195C3.73173 11.3506 3.65304 10.8332 3.71468 10.323L3.01973 10.239C2.94282 10.8757 3.04101 11.5212 3.30371 12.1062L3.94228 11.8195ZM3.71242 10.3387C3.70759 10.3676 3.69708 10.3953 3.68147 10.4202L3.08858 10.048C3.05501 10.1015 3.03239 10.1611 3.02199 10.2233L3.71242 10.3387ZM3.68147 10.4202C3.66587 10.445 3.6455 10.4665 3.62156 10.4835L3.21749 9.91185C3.16596 9.94828 3.12214 9.99456 3.08858 10.048L3.68147 10.4202ZM3.62156 10.4835C3.59758 10.5004 3.57051 10.5124 3.54191 10.5188L3.38888 9.83576C3.32731 9.84955 3.26905 9.87541 3.21749 9.91185L3.62156 10.4835ZM3.54191 10.5188C3.51331 10.5252 3.4837 10.5259 3.45478 10.5208L3.57635 9.83146C3.51416 9.82049 3.45044 9.82197 3.38888 9.83576L3.54191 10.5188ZM3.45448 10.5208C3.42575 10.5157 3.3983 10.505 3.3737 10.4893L3.75045 9.8993C3.69753 9.8655 3.63847 9.84247 3.57664 9.83151L3.45448 10.5208ZM3.3737 10.4893C3.34912 10.4736 3.32786 10.4532 3.31114 10.4292L3.88507 10.0285C3.84911 9.97698 3.80336 9.93309 3.75045 9.8993L3.3737 10.4893ZM3.31114 10.4292C3.29443 10.4053 3.2826 10.3783 3.27633 10.3498L3.95997 10.1993C3.94647 10.138 3.92103 10.08 3.88507 10.0285L3.31114 10.4292ZM3.27633 10.3498C3.27006 10.3213 3.26946 10.2919 3.27458 10.2631L3.96374 10.3859C3.97475 10.324 3.97347 10.2607 3.95997 10.1993L3.27633 10.3498ZM3.27112 10.2875C3.20889 10.8732 3.30308 11.465 3.54408 12.0025L4.1828 11.7161C3.99244 11.2915 3.91805 10.8241 3.9672 10.3615L3.27112 10.2875ZM3.54302 12.0001C4.1444 13.3686 5.12576 14.4859 6.03542 15.4786L6.55152 15.0057C5.63994 14.0109 4.73355 12.9693 4.18386 11.7184L3.54302 12.0001ZM6.04525 15.4889C6.00389 15.4473 5.98066 15.391 5.98066 15.3323H6.68066C6.68066 15.206 6.6307 15.0849 6.54169 14.9954L6.04525 15.4889ZM5.98066 15.3323C5.98066 15.2736 6.00389 15.2173 6.04525 15.1757L6.54169 15.6692C6.6307 15.5797 6.68066 15.4585 6.68066 15.3323H5.98066ZM6.05035 15.1707C6.07182 15.1499 6.09724 15.1338 6.12509 15.1231L6.37578 15.7766C6.43571 15.7537 6.4904 15.7188 6.53659 15.6742L6.05035 15.1707ZM6.12509 15.1231C6.15293 15.1124 6.18265 15.1074 6.21249 15.1085L6.18772 15.808C6.2519 15.8103 6.31585 15.7996 6.37578 15.7766L6.12509 15.1231Z" fill="black"/>
<path fill-rule="evenodd" clip-rule="evenodd" d="M7.33748 2.75449C6.7996 3.40798 6.47368 4.30083 6.47368 5.23297C6.47368 5.77383 6.57112 6.29134 6.74264 6.78409H9.94244L11.1907 4.66551L11.9706 7.27173L12.9251 6.10017H15.3158V6.80364H13.2855L11.6609 8.7977L10.9672 6.47962L10.3733 7.48756H5V6.78409H5.97111C5.8217 6.29211 5.73684 5.77418 5.73684 5.23297C5.73684 4.15127 6.11308 3.10352 6.75811 2.31985C7.40491 1.53402 8.33646 1 9.43255 1C10.7233 1 11.7049 1.69059 12.3684 2.66505C13.0319 1.69063 14.0135 1 15.3043 1C16.4005 1 17.332 1.53411 17.9788 2.31996C18.6238 3.1037 19 4.15145 19 5.23297C19 7.54827 17.326 9.48173 15.7423 10.8015C14.9413 11.4689 14.1421 11.9972 13.544 12.3584C13.2445 12.5393 12.9945 12.6789 12.8185 12.7736C12.7305 12.821 12.6609 12.8572 12.6129 12.8818C12.5889 12.8941 12.5703 12.9035 12.5574 12.9099L12.5425 12.9173L12.5383 12.9194L12.5371 12.92L12.5367 12.9202C12.5367 12.9202 12.5364 12.9203 12.3684 12.6073C12.2086 12.9242 12.2085 12.9242 12.2085 12.9242L12.2063 12.9231L12.2012 12.9208L12.1826 12.912C12.1666 12.9045 12.1434 12.8934 12.1136 12.8789C12.0541 12.8499 11.9681 12.8072 11.8599 12.7512C11.6435 12.6391 11.338 12.4736 10.9779 12.2579C10.2591 11.8274 9.31609 11.1934 8.42934 10.3822C7.95632 9.94957 7.4969 9.46431 7.09543 8.93027C6.97679 8.77245 7.01461 8.55269 7.17992 8.43943C7.34522 8.32617 7.57541 8.36229 7.69404 8.52011C8.06412 9.01237 8.49197 9.4653 8.93908 9.8743C9.77872 10.6423 10.6778 11.2478 11.3695 11.662C11.7147 11.8687 12.0065 12.0268 12.2112 12.1328C12.2693 12.1629 12.3204 12.1888 12.3636 12.2104C12.3914 12.1958 12.4224 12.1792 12.4566 12.1608C12.6231 12.0712 12.8624 11.9377 13.1501 11.7639C13.7263 11.416 14.4929 10.9089 15.2577 10.2715C16.8056 8.98166 18.2632 7.22794 18.2632 5.23297C18.2632 4.30097 17.9373 3.40813 17.3994 2.7546C16.8633 2.10322 16.1313 1.70347 15.3043 1.70347C14.1612 1.70347 13.2745 2.41426 12.6991 3.53313L12.3684 4.17621L12.0377 3.53313C11.4623 2.41419 10.5756 1.70347 9.43255 1.70347C8.60566 1.70347 7.87357 2.10315 7.33748 2.75449ZM12.3684 12.6073L12.2085 12.9242L12.3735 13L12.5367 12.9202L12.3684 12.6073Z" fill="black" stroke="black" stroke-width="0.4"/>
</svg>
