<svg width="22" height="23" viewBox="0 0 22 23" fill="none" xmlns="http://www.w3.org/2000/svg">
<path d="M3.93787 0.56255C3.93787 0.251865 4.18972 0 4.50042 0C4.81111 0 5.06297 0.251865 5.06297 0.56255V3.93785C5.06297 4.24855 4.81111 4.5004 4.50042 4.5004C4.18972 4.5004 3.93787 4.24855 3.93787 3.93785V0.56255Z" fill="black"/>
<path d="M12.9387 0.56255C12.9387 0.251865 13.1905 0 13.5012 0C13.8119 0 14.0638 0.251865 14.0638 0.56255V3.93785C14.0638 4.24855 13.8119 4.5004 13.5012 4.5004C13.1905 4.5004 12.9387 4.24855 12.9387 3.93785V0.56255Z" fill="black"/>
<path fill-rule="evenodd" clip-rule="evenodd" d="M2.2502 3.37528H15.7514C16.3728 3.37528 16.8765 3.87899 16.8765 4.50038V13.5012C17.265 13.5012 17.642 13.5504 18.0016 13.6429V4.50038C18.0016 3.25763 16.9941 2.25018 15.7514 2.25018H2.2502C1.00745 2.25018 0 3.25763 0 4.50038V18.0016C0 19.2443 1.00745 20.2518 2.2502 20.2518H12.9782C12.7767 19.9036 12.6206 19.5258 12.5179 19.1267H2.2502C1.62882 19.1267 1.1251 18.623 1.1251 18.0016V4.50038C1.1251 3.87899 1.62882 3.37528 2.2502 3.37528Z" fill="black"/>
<path fill-rule="evenodd" clip-rule="evenodd" d="M17.4391 8.43827H0.562561V7.31317H17.4391V8.43827Z" fill="black"/>
<path fill-rule="evenodd" clip-rule="evenodd" d="M16.8765 21.3769C18.7406 21.3769 20.2518 19.8657 20.2518 18.0016C20.2518 16.1374 18.7406 14.6263 16.8765 14.6263C15.0124 14.6263 13.5012 16.1374 13.5012 18.0016C13.5012 19.8657 15.0124 21.3769 16.8765 21.3769ZM16.8765 22.502C19.362 22.502 21.3769 20.4871 21.3769 18.0016C21.3769 15.516 19.362 13.5012 16.8765 13.5012C14.391 13.5012 12.3761 15.516 12.3761 18.0016C12.3761 20.4871 14.391 22.502 16.8765 22.502Z" fill="black"/>
<path fill-rule="evenodd" clip-rule="evenodd" d="M16.8765 15.2894C17.1872 15.2894 17.4391 15.5412 17.4391 15.8519V18.2698L18.8182 19.2271C19.0734 19.4043 19.1367 19.7548 18.9595 20.01C18.7823 20.2652 18.4318 20.3285 18.1766 20.1514L16.314 18.8585V15.8519C16.314 15.5412 16.5658 15.2894 16.8765 15.2894Z" fill="black"/>
<mask id="path-7-inside-1_138_6" fill="white">
<rect x="3" y="10" width="3" height="3" rx="0.5"/>
</mask>
<rect x="3" y="10" width="3" height="3" rx="0.5" stroke="black" stroke-width="1.4" mask="url(#path-7-inside-1_138_6)"/>
<mask id="path-8-inside-2_138_6" fill="white">
<rect x="8" y="10" width="3" height="3" rx="0.5"/>
</mask>
<rect x="8" y="10" width="3" height="3" rx="0.5" stroke="black" stroke-width="1.4" mask="url(#path-8-inside-2_138_6)"/>
<mask id="path-9-inside-3_138_6" fill="white">
<rect x="13" y="10" width="3" height="3" rx="0.5"/>
</mask>
<rect x="13" y="10" width="3" height="3" rx="0.5" stroke="black" stroke-width="1.4" mask="url(#path-9-inside-3_138_6)"/>
<mask id="path-10-inside-4_138_6" fill="white">
<rect x="8" y="15" width="3" height="3" rx="0.5"/>
</mask>
<rect x="8" y="15" width="3" height="3" rx="0.5" stroke="black" stroke-width="1.4" mask="url(#path-10-inside-4_138_6)"/>
<mask id="path-11-inside-5_138_6" fill="white">
<rect x="3" y="15" width="3" height="3" rx="0.5"/>
</mask>
<rect x="3" y="15" width="3" height="3" rx="0.5" stroke="black" stroke-width="1.4" mask="url(#path-11-inside-5_138_6)"/>
</svg>
