<svg width="20" height="21" viewBox="0 0 20 21" fill="none" xmlns="http://www.w3.org/2000/svg">
<path d="M17.5644 7.61834V9.08205H18.2963V12.0095C18.2963 12.5918 18.065 13.1502 17.6532 13.5619C17.2415 13.9737 16.683 14.205 16.1007 14.205C15.5184 14.205 14.96 13.9737 14.5483 13.5619C14.1365 13.1502 13.9052 12.5918 13.9052 12.0095V9.08205H14.637V7.61834H12.4415V12.0095C12.4426 12.8526 12.7344 13.6695 13.2677 14.3226C13.8009 14.9757 14.543 15.425 15.3689 15.5947V16.4006C15.3689 17.177 15.0605 17.9216 14.5115 18.4706C13.9625 19.0196 13.2179 19.328 12.4415 19.328C11.6651 19.328 10.9205 19.0196 10.3715 18.4706C9.8225 17.9216 9.51408 17.177 9.51408 16.4006V14.802C10.0024 14.6293 10.4139 14.2896 10.676 13.8429C10.9381 13.3962 11.0337 12.8712 10.9462 12.3607C10.8586 11.8503 10.5934 11.3872 10.1974 11.0534C9.8014 10.7195 9.30015 10.5364 8.78223 10.5364C8.26431 10.5364 7.76306 10.7195 7.36708 11.0534C6.97109 11.3872 6.70587 11.8503 6.61829 12.3607C6.53071 12.8712 6.62641 13.3962 6.88847 13.8429C7.15053 14.2896 7.56208 14.6293 8.05038 14.802V16.4006C8.05038 17.5652 8.51301 18.6821 9.3365 19.5056C10.16 20.329 11.2769 20.7917 12.4415 20.7917C13.6061 20.7917 14.723 20.329 15.5465 19.5056C16.37 18.6821 16.8326 17.5652 16.8326 16.4006V15.5947C17.6585 15.425 18.4006 14.9757 18.9338 14.3226C19.4671 13.6695 19.7588 12.8526 19.76 12.0095V7.61834H17.5644ZM8.78223 12.0095C8.92698 12.0095 9.06847 12.0524 9.18882 12.1328C9.30918 12.2132 9.40298 12.3275 9.45837 12.4612C9.51376 12.595 9.52826 12.7421 9.50002 12.8841C9.47178 13.026 9.40208 13.1565 9.29973 13.2588C9.19737 13.3612 9.06697 13.4309 8.92501 13.4591C8.78304 13.4873 8.63589 13.4728 8.50216 13.4174C8.36843 13.3621 8.25413 13.2683 8.17372 13.1479C8.0933 13.0275 8.05038 12.8861 8.05038 12.7413C8.05055 12.5473 8.12771 12.3612 8.26492 12.224C8.40213 12.0868 8.58818 12.0096 8.78223 12.0095Z" fill="black"/>
<path d="M16.6039 1.66498H13.585V0.208313H12.0756V1.66498H6.03778V0.208313H4.52833V1.66498H1.50944C1.10911 1.66498 0.725182 1.81845 0.442106 2.09163C0.15903 2.36481 0 2.73531 0 3.12165V17.6883C0 18.0746 0.15903 18.4452 0.442106 18.7183C0.725182 18.9915 1.10911 19.145 1.50944 19.145H4.52833V17.6883H1.50944V3.12165H4.52833V4.57831H6.03778V3.12165H12.0756V4.57831H13.585V3.12165H16.6039V6.03498H18.1133V3.12165C18.1133 2.73531 17.9543 2.36481 17.6712 2.09163C17.3882 1.81845 17.0042 1.66498 16.6039 1.66498Z" fill="black"/>
</svg>
