<svg xmlns="http://www.w3.org/2000/svg" width="106.398" height="160.815" viewBox="0 0 106.398 160.815">
  <g id="Group_1" data-name="Group 1" transform="translate(-27.654 1.368)">
    <path id="Path_1" data-name="Path 1" d="M89.307,3.1a174.344,174.344,0,0,0-34,44.91c-7.9,14.973-13.651,31.407-14.045,48.331s5.021,34.4,16.917,46.444,30.683,17.676,46.578,11.85c17.482-6.408,28.308-25.279,29.217-43.877S127.4,74.04,117.284,58.407C105.575,40.312,89.521,22.6,89.96,1.047" fill="#b5d9c5"/>
    <path id="Path_2" data-name="Path 2" d="M100.785,88.924c6.5,9,7.022,21.538,1.794,31.276a27.368,27.368,0,0,1-5.753,7.368c-2.388,2.168,1.156,5.7,3.535,3.536,9.47-8.6,12.918-22.792,9.426-34.97A31.461,31.461,0,0,0,105.1,86.4a2.573,2.573,0,0,0-3.421-.9,2.521,2.521,0,0,0-.9,3.421Z" fill="#040506"/>
    <path id="Path_3" data-name="Path 3" d="M76.4,1.334A178.143,178.143,0,0,0,50.059,33.059,150.218,150.218,0,0,0,31.861,71C27.9,84.06,26.419,97.892,28.8,111.4c2.187,12.411,7.751,24.478,16.746,33.427a50.461,50.461,0,0,0,32.582,14.57,41.727,41.727,0,0,0,31.746-12.4,54.776,54.776,0,0,0,14.892-30.532c1.939-13.372-.76-27-5.9-39.379a123.557,123.557,0,0,0-9.618-18.464c-3.413-5.416-7.16-10.612-10.794-15.88-6.964-10.1-14.015-20.779-16.4-33.017a41.848,41.848,0,0,1-.734-8.674c.05-3.219-4.95-3.22-5,0-.4,25.721,20.18,44.814,31.978,65.742,6.392,11.338,11.217,23.926,12,37.023a53.662,53.662,0,0,1-7.915,32.044c-5.736,9.059-14.582,15.929-25.226,17.976-11.031,2.12-22.691-1.129-31.853-7.379-9.716-6.628-16.324-17.066-19.725-28.195-3.7-12.087-3.733-24.932-1.137-37.245C37.253,67.694,42.8,55.113,49.6,43.37A171.589,171.589,0,0,1,73.187,11.656Q76.469,8.17,79.939,4.87C82.273,2.645,78.733-.887,76.4,1.334Z" fill="#040506"/>
  </g>
</svg>
