<svg xmlns="http://www.w3.org/2000/svg" width="104.952" height="158.645" viewBox="0 0 104.952 158.645">
  <g id="Group_2" data-name="Group 2" transform="translate(-20.806 -0.802)">
    <path id="Path_1" data-name="Path 1" d="M81.636,5.243A171.917,171.917,0,0,0,48.111,49.528C40.323,64.292,34.651,80.5,34.262,97.186s4.951,33.922,16.681,45.8,30.257,17.43,45.93,11.685c17.24-6.319,27.914-24.927,28.811-43.266S119.2,75.194,109.223,59.779C97.677,41.936,81.846,24.465,82.279,3.216" fill="#ffc890"/>
    <g id="Group_1" data-name="Group 1">
      <path id="Path_2" data-name="Path 2" d="M86.37,73.759,57.741,115.5,49.6,127.362a2.524,2.524,0,0,0,.9,3.42,2.55,2.55,0,0,0,3.421-.9L82.548,88.149l8.14-11.866a2.525,2.525,0,0,0-.9-3.421,2.55,2.55,0,0,0-3.421.9Z" fill="#040506"/>
      <path id="Path_3" data-name="Path 3" d="M90.295,110.347a7.1,7.1,0,0,0-6.625.195,12.223,12.223,0,0,0-4.442,4.534c-2.015,3.383-2.985,8.183-1.7,11.989a8.217,8.217,0,0,0,9.519,5.813,10.767,10.767,0,0,0,8.317-6.834c1.812-4.84.1-10.368-2.678-14.474a2.561,2.561,0,0,0-3.42-.9,2.522,2.522,0,0,0-.9,3.42,16.145,16.145,0,0,1,2.172,4.316q.183.587.319,1.186c.05.221.09.443.134.664.009.044.07.487.027.136a10.031,10.031,0,0,1,0,2.659c.019-.126.073-.365-.036.121-.039.173-.074.346-.119.518q-.084.324-.19.641c-.035.106-.248.64-.065.224a6.612,6.612,0,0,1-.381.727c-.089.148-.186.288-.281.432s-.077.114.082-.093c-.064.081-.131.16-.2.237-.213.229-.421.457-.651.668-.1.094-.209.182-.313.274.378-.332.042-.027-.073.049-.26.172-.519.343-.792.494-.121.066-.247.123-.367.191-.5.28.335-.093-.158.074-.323.11-.64.22-.972.3-.22.052-.881.118-.323.079a8.522,8.522,0,0,1-.985.03c-.13-.005-.26-.022-.39-.029.618.033.045-.007-.1-.042s-.309-.091-.465-.134-.5-.258-.034,0c-.233-.126-.459-.256-.684-.395-.512-.313.191.243-.064-.057a5.239,5.239,0,0,0-.411-.4c-.062-.057-.3-.368-.04-.02a5.788,5.788,0,0,1-.365-.565c-.075-.131-.14-.264-.209-.4-.325-.618.081.268-.05-.13a9.377,9.377,0,0,1-.276-.987c-.033-.151-.06-.3-.085-.455.079.486,0-.023,0-.148A11.67,11.67,0,0,1,82,122.944c.012-.322.039-.642.072-.962-.047.461.01-.061.029-.176.034-.2.071-.4.112-.6a15.513,15.513,0,0,1,.618-2.187c.035-.1.243-.569.074-.2q.156-.342.332-.674a12.443,12.443,0,0,1,.648-1.089q.141-.211.291-.416c-.235.321.185-.223.236-.282a9.784,9.784,0,0,1,.954-.956c.083-.073.5-.365.146-.124.191-.13.383-.257.584-.37.131-.074.264-.141.4-.207-.459.226.14-.034.223-.057.138-.039.277-.069.418-.1-.568.113.042.032.183.022.534-.04-.156-.135.086,0,.064.037.823.3.369.087a2.572,2.572,0,0,0,3.42-.9,2.52,2.52,0,0,0-.9-3.42Z" fill="#040506"/>
      <path id="Path_4" data-name="Path 4" d="M57.5,71.249a7.1,7.1,0,0,0-6.625.195,12.223,12.223,0,0,0-4.442,4.534c-2.015,3.383-2.985,8.183-1.7,11.989a8.217,8.217,0,0,0,9.52,5.813,10.769,10.769,0,0,0,8.316-6.834c1.812-4.84.1-10.368-2.678-14.474a2.561,2.561,0,0,0-3.42-.9,2.523,2.523,0,0,0-.9,3.42,16.145,16.145,0,0,1,2.172,4.316q.183.587.319,1.186c.05.221.09.442.134.664.009.044.07.487.027.136a10.023,10.023,0,0,1,0,2.658c.019-.126.073-.364-.036.122-.039.173-.074.346-.119.518-.055.216-.119.43-.19.641-.035.106-.248.64-.065.223a6.536,6.536,0,0,1-.381.728c-.089.148-.186.288-.281.432s-.077.114.082-.093c-.064.081-.131.16-.2.237-.213.229-.421.457-.651.668-.1.094-.209.182-.313.273.378-.331.042-.026-.073.05-.26.172-.518.343-.792.494-.121.066-.247.123-.367.191-.5.28.335-.094-.158.074-.323.11-.64.22-.972.3-.22.053-.881.119-.323.08a8.522,8.522,0,0,1-.985.03c-.13-.006-.26-.022-.39-.029.618.033.045-.007-.1-.042s-.309-.091-.465-.134-.5-.259-.034,0c-.233-.127-.459-.257-.684-.395-.512-.313.191.243-.063-.057a5.431,5.431,0,0,0-.412-.4c-.062-.058-.3-.368-.04-.02a5.981,5.981,0,0,1-.365-.565c-.075-.131-.14-.264-.209-.4-.325-.618.081.267-.05-.13a9.625,9.625,0,0,1-.276-.987c-.033-.151-.06-.3-.085-.455.079.486,0-.023,0-.148a11.67,11.67,0,0,1-.023-1.309c.012-.322.039-.642.072-.963-.047.462.01-.061.029-.175.034-.2.071-.4.112-.6a15.514,15.514,0,0,1,.618-2.187c.035-.1.243-.569.074-.2q.156-.342.332-.674.3-.561.648-1.089.141-.211.291-.416c-.235.321.185-.223.236-.282a9.784,9.784,0,0,1,.954-.956c.083-.073.5-.365.146-.124.191-.13.383-.257.584-.37.131-.074.265-.141.4-.208-.459.227.14-.033.223-.056.138-.039.277-.069.418-.1-.568.113.042.032.183.022.534-.041-.156-.135.086,0,.064.037.823.3.369.087a2.572,2.572,0,0,0,3.42-.9,2.52,2.52,0,0,0-.9-3.42Z" fill="#040506"/>
    </g>
    <path id="Path_5" data-name="Path 5" d="M68.887,3.475A175.608,175.608,0,0,0,42.919,34.744,148.088,148.088,0,0,0,24.955,72.187c-3.921,12.923-5.375,26.609-3,39.964,2.172,12.208,7.658,24.061,16.5,32.867a49.865,49.865,0,0,0,31.662,14.348A41.155,41.155,0,0,0,101.6,147.5a53.848,53.848,0,0,0,14.975-30.042c2.011-13.2-.576-26.706-5.623-38.956a121.555,121.555,0,0,0-9.372-18.137C98.234,55.02,94.548,49.9,90.967,44.717c-6.934-10.033-14-20.626-16.413-32.787A41.412,41.412,0,0,1,73.8,3.216c.05-3.218-4.95-3.219-5,0-.4,25.414,19.963,44.271,31.6,64.959,6.322,11.238,11.072,23.723,11.781,36.7a52.762,52.762,0,0,1-8.011,31.556c-5.729,8.907-14.541,15.585-25.072,17.485-10.788,1.946-22.145-1.294-31.072-7.417-9.47-6.5-15.932-16.684-19.283-27.543C25.068,107.05,25,94.384,27.536,82.239c2.75-13.153,8.216-25.576,14.913-37.172A169.251,169.251,0,0,1,65.663,13.81q3.283-3.494,6.759-6.8c2.334-2.225-1.2-5.757-3.535-3.536Z" fill="#040506"/>
  </g>
</svg>
