<svg xmlns="http://www.w3.org/2000/svg" width="130.585" height="159.92" viewBox="0 0 130.585 159.92">
  <g id="Group_1" data-name="Group 1" transform="translate(-14.161 -0.317)">
    <path id="Path_1" data-name="Path 1" d="M98,33.613c.641,10.771,10.386,18.441,15.463,27.962,4.27,8.008,5.181,17.344,5.528,26.412a256.217,256.217,0,0,1-2.5,46.739c-.441,3.021-.966,6.119-2.55,8.729-2.2,3.62-6.116,5.8-9.991,7.512A80.134,80.134,0,0,1,72,157.756h2.9a80.139,80.139,0,0,1-31.947-6.789c-3.874-1.708-7.794-3.892-9.991-7.512-1.583-2.61-2.108-5.708-2.549-8.729a256.128,256.128,0,0,1-2.495-46.739c.347-9.068,1.258-18.4,5.527-26.412,5.077-9.521,14.822-17.191,15.464-27.962" fill="#f1acbf"/>
    <path id="Path_2" data-name="Path 2" d="M75.546,6.317c7.665.427,14.687-.162,22.352.265,4.261.237,9.1.769,11.636,4.2,1.83,2.473,1.916,5.784,1.883,8.86-.048,4.416-.822,9.794-4.919,11.441a11.152,11.152,0,0,1-3.715.595c-8.226.342-19.374.551-27.874.152-8.287.218-18.295.19-26.522-.152a11.15,11.15,0,0,1-3.714-.595c-4.1-1.647-4.871-7.025-4.919-11.441-.033-3.076.053-6.387,1.883-8.86,2.539-3.431,7.375-3.963,11.636-4.2C60.938,6.155,67.259,6.317,75.546,6.317Z" fill="#f1acbf"/>
    <path id="Path_3" data-name="Path 3" d="M62.71,131.136A86.986,86.986,0,0,1,43.581,127.8c-2.155-.63-4.893-1.268-6.027-3.426-1.269-2.414-.887-5.733-.952-8.36l-.494-19.906c-.085-3.441-.239-6.887-.254-10.329,0-.631-.112-1.645.427-2.073a2.318,2.318,0,0,1,1.2-.208c.9-.055,1.82-.021,2.724-.027l22.867-.14c3.217-.02,3.224-5.02,0-5l-22.867.14c-3.138.019-6.867-.15-8.546,3.109a9.5,9.5,0,0,0-.794,4.575c.035,1.99.1,3.981.148,5.972l.556,22.394c.083,3.365-.191,7.076.821,10.331,1.05,3.378,3.54,5.466,6.743,6.738a62.412,62.412,0,0,0,11.037,2.956,96.031,96.031,0,0,0,12.544,1.589c3.213.195,3.2-4.805,0-5Z" fill="#040506"/>
    <path id="Path_4" data-name="Path 4" d="M62.71,136.136a114.516,114.516,0,0,0,20.674-2.974c3.2-.8,6.72-1.683,9.233-3.946,2.783-2.505,3.27-6.277,3.38-9.814.25-8.094.4-16.193.6-24.288l.148-5.972a25.307,25.307,0,0,0-.137-5.92,5.67,5.67,0,0,0-3-3.988,12.333,12.333,0,0,0-5.414-.758q-12.562-.075-25.127-.144c-3.218-.02-3.221,4.98,0,5q10.143.062,20.285.116l4.842.028c.748.005,2.712-.305,3.343.314.718.7.268,3.01.247,3.859l-.135,5.474-.556,22.394c-.042,1.7-.047,3.4-.147,5.1a8.425,8.425,0,0,1-1.013,4.1c-1.371,2.127-4.466,2.725-6.737,3.332a103.4,103.4,0,0,1-20.487,3.09c-3.2.191-3.22,5.193,0,5Z" fill="#040506"/>
    <path id="Path_5" data-name="Path 5" d="M116.182,116.864a19.747,19.747,0,0,0-11.626,4.346,2.5,2.5,0,0,0-.732,1.768,2.5,2.5,0,0,0,2.5,2.5,2.907,2.907,0,0,0,1.768-.733q.316-.249-.111.085.133-.1.27-.2c.18-.13.364-.256.55-.378q.487-.319,1-.6.582-.326,1.19-.6c.1-.047.2-.092.305-.136q-.513.213-.135.059c.182-.069.363-.141.546-.207a16.874,16.874,0,0,1,2.41-.67q.287-.059.574-.105.165-.027.33-.051-.583.077-.168.025c.444-.041.885-.08,1.331-.1a2.5,2.5,0,0,0,0-5Z" fill="#040506"/>
    <path id="Path_6" data-name="Path 6" d="M105.925,121.32a85.036,85.036,0,0,0-13.064,10.547,80.227,80.227,0,0,0-5.593,6.138c-1.76,2.145-3.567,4.445-4.222,7.2a8.865,8.865,0,0,0,1.158,7.142,7.849,7.849,0,0,0,7.075,3.088c5.444-.363,10.449-3.445,14.686-6.66a90,90,0,0,0,14.406-13.326,2.565,2.565,0,0,0,0-3.535,2.52,2.52,0,0,0-3.535,0,83.871,83.871,0,0,1-10.779,10.456c-3.476,2.86-7.218,5.8-11.523,7.276-1.551.534-3.822,1.327-5.43.534-1.315-.648-1.524-2.349-1.237-3.646.467-2.1,2.008-3.889,3.355-5.5q2.312-2.769,4.865-5.324a78.386,78.386,0,0,1,12.361-10.073c2.677-1.763.175-6.094-2.523-4.318Z" fill="#040506"/>
    <path id="Path_7" data-name="Path 7" d="M97.978,132.247,107.5,142.99a2.516,2.516,0,0,0,3.536,0,2.561,2.561,0,0,0,0-3.536l-9.523-10.742a2.515,2.515,0,0,0-3.535,0,2.558,2.558,0,0,0,0,3.535Z" fill="#040506"/>
    <path id="Path_8" data-name="Path 8" d="M114.972,131.055a83.511,83.511,0,0,0,11.592,22.183c2.391,3.239,5.14,6.41,9.37,6.936a7.605,7.605,0,0,0,8.473-6.234c.854-4.077-.027-8.477-1.337-12.361a83.438,83.438,0,0,0-5.138-11.639,74.249,74.249,0,0,0-6.274-10.167c-2.223-2.986-4.966-7.141-8.792-8.128-4.668-1.2-8.077,3.025-9.316,6.993a19.559,19.559,0,0,0,.976,13.727,2.517,2.517,0,0,0,3.421.9,2.563,2.563,0,0,0,.9-3.42,14.148,14.148,0,0,1-.757-8.854c.37-1.541,1.563-5.2,3.809-4.417,1.146.4,2.05,1.649,2.827,2.524q1.662,1.874,3.13,3.9a73.658,73.658,0,0,1,5.254,8.5c3.071,5.752,6.53,12.332,6.619,19,.029,2.1-.355,4.98-3.086,4.752-2.841-.237-4.765-3.146-6.283-5.252a79.221,79.221,0,0,1-10.564-20.27,2.562,2.562,0,0,0-3.075-1.747,2.525,2.525,0,0,0-1.746,3.076Z" fill="#040506"/>
    <path id="Path_9" data-name="Path 9" d="M123.607,141.479l12.749-6.6a2.518,2.518,0,0,0,.9-3.42,2.557,2.557,0,0,0-3.42-.9l-12.75,6.6a2.519,2.519,0,0,0-.9,3.42,2.558,2.558,0,0,0,3.421.9Z" fill="#040506"/>
    <path id="Path_10" data-name="Path 10" d="M61.6,93.187c7.552-.531,10.808,8.007,10.646,14.272a10.447,10.447,0,0,1-3.765,8.292,12.376,12.376,0,0,1-7.557,2.325,12.12,12.12,0,0,1-4.608-.885,6.7,6.7,0,0,1-1.949-1.224,3.057,3.057,0,0,1-.68-.856c-.047-.1.02.083-.089-.189a2.227,2.227,0,0,1-.1-.333q-.087-.364.009.054l-.643,1.1.232-.225-1.1.643a6.228,6.228,0,0,1,2.137-.033,25.506,25.506,0,0,0,2.695-.085,15.477,15.477,0,0,0,5.225-1.334,13.47,13.47,0,0,0,1.414-23.538c-2.688-1.785-5.195,2.544-2.523,4.318a8.546,8.546,0,0,1,.454,13.8c-2.771,2.15-5.971,1.663-9.239,1.791a3.545,3.545,0,0,0-3.548,4.491,7.486,7.486,0,0,0,2.483,4.166c4.817,4.2,12.515,4.176,18.022,1.457,6.554-3.235,8.805-10.453,7.915-17.332A20.22,20.22,0,0,0,72.267,92.7,13.51,13.51,0,0,0,61.6,88.187a2.56,2.56,0,0,0-2.5,2.5,2.521,2.521,0,0,0,2.5,2.5Z" fill="#040506"/>
    <path id="Path_11" data-name="Path 11" d="M35.345,30.144c-.616,8.891-8.008,15.749-12.715,22.74C16.538,61.933,14.891,72.5,14.409,83.2a253.384,253.384,0,0,0,.955,35.813q.441,4.543,1.043,9.067a65.717,65.717,0,0,0,1.434,8.57c1.4,5.165,4.852,8.85,9.473,11.389a70.74,70.74,0,0,0,17.277,6.394,83.987,83.987,0,0,0,19.246,2.354c3.218.02,3.221-4.98,0-5a76.982,76.982,0,0,1-31.389-6.764c-4.028-1.843-8.008-4.229-9.473-8.66a44.393,44.393,0,0,1-1.525-7.969q-.572-4.189-.989-8.4a256.368,256.368,0,0,1-1.125-34.984c.367-10.07,1.481-20.188,7.1-28.825C31.838,47.871,39.62,40.61,40.345,30.144a2.522,2.522,0,0,0-2.5-2.5,2.548,2.548,0,0,0-2.5,2.5Z" fill="#040506"/>
    <path id="Path_12" data-name="Path 12" d="M86.205,148.4a79.023,79.023,0,0,1-22.358,3.389c-3.217.02-3.224,5.02,0,5a84.041,84.041,0,0,0,23.687-3.568c3.073-.926,1.764-5.754-1.329-4.821Z" fill="#040506"/>
    <path id="Path_13" data-name="Path 13" d="M63.842,25.86q-8.988.231-17.979.086c-2.848-.046-5.7-.11-8.543-.238-2.222-.1-3.807-.506-4.845-2.433a14,14,0,0,1-1.258-5.953c-.1-2.4-.245-5.124.706-7.387C33.77,5.543,40.071,5.7,44.022,5.52c6.815-.309,13.638-.175,20.457-.173,3.218,0,3.223-5,0-5-6.745,0-13.493-.132-20.234.164-5.706.25-12.6.554-16.063,5.867-1.721,2.638-2,5.922-2,8.988a26.148,26.148,0,0,0,.984,8.075,10.193,10.193,0,0,0,4.6,6.064c2.9,1.537,6.535,1.258,9.726,1.346q11.169.311,22.348.009c3.211-.082,3.224-5.082,0-5Z" fill="#040506"/>
    <path id="Path_14" data-name="Path 14" d="M63.842,30.86c6.477.3,12.969.261,19.449.116,3.085-.069,6.188-.1,9.267-.31,3.225-.22,5.977-1.35,7.84-4.078a16.338,16.338,0,0,0,2.321-7.756,27.749,27.749,0,0,0-.4-8.96A10.845,10.845,0,0,0,97.143,2.91,20.7,20.7,0,0,0,88.632.735C80.6.048,72.522.774,64.479.347c-3.215-.17-3.206,4.83,0,5,6.479.344,12.963-.027,19.445.147,4.118.11,11-.221,13.1,4.265,1.042,2.228.89,5,.8,7.4a14.733,14.733,0,0,1-1.193,5.981C95.61,25.17,94,25.6,91.716,25.708c-2.736.123-5.474.2-8.212.263-6.551.15-13.115.188-19.662-.111-3.217-.146-3.21,4.854,0,5Z" fill="#040506"/>
    <path id="Path_15" data-name="Path 15" d="M87.338,30.144c.782,11.28,9.712,18.739,15.085,27.936a43.936,43.936,0,0,1,5.251,17.193,168.971,168.971,0,0,1,.839,20.135q-.054,12.132-1.254,24.219a2.518,2.518,0,0,0,2.5,2.5,2.555,2.555,0,0,0,2.5-2.5,228.09,228.09,0,0,0,.679-41.716,58.062,58.062,0,0,0-4.33-18.707c-2.24-5.054-5.732-9.35-9-13.756-3.36-4.525-6.864-9.5-7.266-15.3a2.56,2.56,0,0,0-2.5-2.5,2.52,2.52,0,0,0-2.5,2.5Z" fill="#040506"/>
  </g>
</svg>
