<svg xmlns="http://www.w3.org/2000/svg" width="135.079" height="162.149" viewBox="0 0 135.079 162.149">
  <g id="Group_1" data-name="Group 1" transform="translate(-11.223 1.081)">
    <path id="Path_1" data-name="Path 1" d="M77.546,81.373,102.785,14.21a3.494,3.494,0,0,0,.262-2.6,3.467,3.467,0,0,0-2.127-1.533A280.742,280.742,0,0,0,73.987,1.418Q48.765,71.406,25.5,142.079" fill="#ffd84f"/>
    <path id="Path_2" data-name="Path 2" d="M25.543,143.034l17.42,14.142a5.272,5.272,0,0,0,2.594,1.39c1.61.178,2.97-1.109,4.074-2.294L145.069,53.824a3.5,3.5,0,0,0,1.232-2.3,3.472,3.472,0,0,0-1.383-2.227A280.968,280.968,0,0,0,123.31,31.032Q73.344,86.15,24.924,142.643" fill="#ffd84f"/>
    <path id="Path_3" data-name="Path 3" d="M90.267,58.707q9.656,9.7,19.846,18.853a2.557,2.557,0,0,0,3.536,0,2.525,2.525,0,0,0,0-3.535Q103.463,64.88,93.8,55.172c-2.272-2.285-5.808,1.25-3.535,3.535Z" fill="#040506"/>
    <path id="Path_4" data-name="Path 4" d="M68.731,82.037l15.336-40.81,7.624-20.289,1.928-5.131c.593-1.579,1.185-3.176.613-4.86a5.075,5.075,0,0,0-2.958-2.9c-1.762-.77-3.607-1.384-5.417-2.033q-11.064-3.969-22.431-7A2.563,2.563,0,0,0,60.35.753Q50.505,28.074,40.956,55.5t-18.8,54.956q-5.2,15.463-10.3,30.957c-1.009,3.064,3.818,4.377,4.821,1.33q9.084-27.585,18.463-55.07t19.06-54.865Q59.641,17.428,65.172,2.082L62.1,3.828Q71.713,6.4,81.134,9.638q2.268.782,4.522,1.6,1.128.409,2.251.829a15.836,15.836,0,0,0,1.766.747c.074-.038-.16-.391-.175-.387s-.234.8-.217.753c-.248.752-.556,1.489-.834,2.23l-1.928,5.131L72.147,58.787,63.909,80.708a2.521,2.521,0,0,0,1.746,3.075,2.555,2.555,0,0,0,3.076-1.746Z" fill="#040506"/>
    <path id="Path_5" data-name="Path 5" d="M12.549,144.8l16.646,13.513a12.609,12.609,0,0,0,3.757,2.486,5.655,5.655,0,0,0,4.71-.612,15.559,15.559,0,0,0,3.19-2.879l3.736-4.01,28.7-30.807,57.569-61.8,4.075-4.375c1.222-1.312,2.6-2.691,2.63-4.613s-1.124-3.266-2.446-4.5q-2.065-1.935-4.179-3.818-8.5-7.61-17.591-14.513a2.5,2.5,0,0,0-3.029.391Q90.794,50.8,71.5,72.548,52.3,94.2,33.327,116.064q-10.735,12.374-21.4,24.812a2.564,2.564,0,0,0,0,3.535,2.522,2.522,0,0,0,3.536,0q18.917-22.069,38.072-43.935Q72.612,78.7,91.921,57.14q10.928-12.2,21.93-24.34l-3.029.39q7.431,5.676,14.46,11.854c2.33,2.044,4.759,4.066,6.924,6.287-.268-.275.363.391.361.391l.047.089q.154-.872-.18-.149a16.793,16.793,0,0,0-1.208,1.305L127.66,56.8,100.829,85.6q-27.087,29.075-54.172,58.151l-7.642,8.2a34.406,34.406,0,0,1-3.469,3.629c-.881.7-1.174.488-2.041-.173-5.94-4.524-11.623-9.436-17.42-14.142a2.575,2.575,0,0,0-3.536,0,2.519,2.519,0,0,0,0,3.536Z" fill="#040506"/>
    <path id="Path_6" data-name="Path 6" d="M53.42,35.417q12.623,5.3,25.529,9.879a2.524,2.524,0,0,0,3.075-1.746,2.55,2.55,0,0,0-1.746-3.075q-12.9-4.581-25.529-9.879a2.515,2.515,0,0,0-3.076,1.746,2.565,2.565,0,0,0,1.747,3.075Z" fill="#040506"/>
  </g>
</svg>
