<svg xmlns="http://www.w3.org/2000/svg" width="123.399" height="157.966" viewBox="0 0 123.399 157.966">
  <g id="Group_1" data-name="Group 1" transform="translate(-15.07 -1.017)">
    <path id="Path_1" data-name="Path 1" d="M43.705,41.654l10.46,82.283c.611,4.81,1.57,10.211,5.585,12.93,2.676,1.813,6.1,1.968,9.335,2.063l36.321,1.065c3.54.1,7.4.106,10.184-2.09,2.443-1.93,3.457-5.112,4.3-8.11a318.393,318.393,0,0,0,11.726-77.8c.087-3.383.027-7.057-2.052-9.727-2.221-2.851-6.127-3.738-9.734-3.979-13.2-.881-25.947,4.263-38.807,7.375s-27.743,3.788-37.988-4.586" fill="#9cd7f1"/>
    <path id="Path_2" data-name="Path 2" d="M15.107,7.8l6.914,50.928,6.914,50.928c1.13,8.325,2.182,16.665,3.4,24.978,1,6.845,2.941,13.762,8.861,17.966,5.764,4.092,13.409,4.264,20.186,4.77,8.051.6,16.153,1.517,24.23,1.611,7.214.085,14.7-.971,20.789-5.118a34.273,34.273,0,0,0,11.421-14.03,81.443,81.443,0,0,0,5.646-17.993c1.648-7.877,2.984-15.831,4.284-23.772,2.735-16.709,4.968-33.5,6.915-50.316q1.457-12.573,2.721-25.167.311-3.057.613-6.113a48.158,48.158,0,0,0,.466-5.809,7.859,7.859,0,0,0-6.091-7.823c-3.615-.944-7.647-.746-11.353-.921q-6.458-.3-12.919-.5-12.8-.4-25.6-.394-25.608.007-51.183,1.625-6.2.393-12.4.88a2.562,2.562,0,0,0-2.5,2.5,2.52,2.52,0,0,0,2.5,2.5,816.49,816.49,0,0,1,99.375-1.73q2.98.131,5.96.283c1.894.1,3.846.078,5.724.357a4.81,4.81,0,0,1,2.887,1.157c.917,1.017.621,2.821.513,4.064-.691,7.963-1.586,15.915-2.449,23.861-1.762,16.226-3.749,32.43-6.17,48.572q-1.821,12.147-3.988,24.239a185.933,185.933,0,0,1-4.256,19.813c-1.574,5.324-3.693,10.643-7.1,15.081a24.3,24.3,0,0,1-15.074,9.143c-7.144,1.354-14.642.371-21.822-.164l-12.371-.924a64.513,64.513,0,0,1-9.722-1.178,16.323,16.323,0,0,1-7.946-3.883,16.777,16.777,0,0,1-4.16-7.921,79.6,79.6,0,0,1-1.673-9.708l-1.678-12.361L21.54,18.335,19.929,6.468c-.182-1.339-1.9-2.069-3.076-1.746A2.568,2.568,0,0,0,15.107,7.8Z" fill="#040506"/>
    <path id="Path_3" data-name="Path 3" d="M29.438,41.654l9.61,75.591c.661,5.2.847,10.835,2.9,15.73a13.434,13.434,0,0,0,4.345,5.741,15,15,0,0,0,7.559,2.519c2.876.3,5.8.264,8.689.348l9.454.278,19.155.561c5.222.154,11.3.629,15.26-3.495A16.753,16.753,0,0,0,110,132.269c.875-2.733,1.57-5.534,2.287-8.312a318.4,318.4,0,0,0,7.075-35.845,313,313,0,0,0,3-36.514c.106-5.242-.8-10.684-5.7-13.565-4.5-2.645-10.43-2.578-15.465-2.2-11.73.875-22.72,5.217-34.11,7.77-9.084,2.036-19.315,2.914-28.11-.783a24.947,24.947,0,0,1-5.938-3.512,2.575,2.575,0,0,0-3.535,0,2.516,2.516,0,0,0,0,3.535c7.688,6.192,17.52,7.986,27.187,7.33,10.641-.723,20.675-4.281,30.935-6.894a72.735,72.735,0,0,1,16.31-2.58c3.847-.083,9.728-.217,12.15,3.462,1.2,1.817,1.286,4.15,1.289,6.254,0,2.768-.137,5.543-.266,8.307q-.417,8.889-1.33,17.745a312.852,312.852,0,0,1-5.531,34.466q-1.894,8.694-4.274,17.274a22.112,22.112,0,0,1-2.357,6.249,6.876,6.876,0,0,1-5.065,2.919,44.85,44.85,0,0,1-7.644.043l-9.205-.27-18.161-.532c-2.884-.085-5.785-.089-8.664-.29-2.059-.144-4.319-.5-5.956-1.862-3.157-2.626-3.631-7.47-4.113-11.268L35.573,50.576l-1.135-8.922a2.581,2.581,0,0,0-2.5-2.5,2.515,2.515,0,0,0-2.5,2.5Z" fill="#040506"/>
  </g>
</svg>
