<svg width="340" height="276" viewBox="0 0 340 276" fill="none" xmlns="http://www.w3.org/2000/svg">
<rect width="340" height="276" rx="10" fill="#00A147"/>
<path d="M93.7619 55.6209C89.573 51.5264 81.6174 51.9904 77.7566 56.2984C75.9514 58.5503 75.0564 61.3375 75.2276 64.1704C75.3989 67.0031 76.6254 69.6995 78.6947 71.7859C79.9056 73.0422 81.4453 73.9776 83.156 74.4963C84.8697 75.0152 86.6914 75.0989 88.4398 74.7387C90.5016 74.1239 92.3106 72.937 93.6304 71.3327C95.791 68.7051 96.997 65.4892 97.0727 62.1515C97.1485 58.8138 96.0903 55.5282 94.0518 52.7718" fill="white"/>
<path d="M95.4234 54.0275C93.4186 52.246 90.8916 51.0775 88.1766 50.678C85.4615 50.2789 82.6925 50.6683 80.2412 51.7939C77.7869 52.9196 75.7665 54.7278 74.4522 56.9758C73.1348 59.2238 72.5858 61.8041 72.8802 64.3711C73.0548 67.134 74.1151 69.792 75.9206 71.9964C77.723 74.2007 80.1874 75.8487 82.9912 76.7246C89.4437 78.5816 95.2598 74.4801 97.7717 69.1071C99.1027 66.31 99.6482 63.2311 99.3536 60.1626C99.0591 57.0941 97.9367 54.1381 96.0932 51.5761C95.7626 51.0784 95.2405 50.7178 94.6402 50.5697C94.0369 50.4217 93.4005 50.4976 92.8623 50.7816C92.329 51.0796 91.942 51.5641 91.788 52.1305C91.6341 52.6969 91.7236 53.3002 92.0376 53.8101C93.2472 55.4163 94.0785 57.245 94.4719 59.1714C94.8654 61.098 94.8129 63.0768 94.3176 64.9726C93.3514 68.6335 90.3613 72.9678 85.8461 72.7538C77.5964 72.3576 74.4656 60.3507 81.2465 56.3247C82.8832 55.3006 84.8427 54.825 86.8126 54.9745C88.7824 55.1243 90.6523 55.8905 92.119 57.1505C92.5729 57.515 93.1568 57.7066 93.7509 57.6866C94.3451 57.6666 94.9061 57.4366 95.3249 57.0426C95.7406 56.6483 95.9837 56.1191 96.0012 55.5602C96.0217 55.0016 95.8129 54.4542 95.4234 54.0275Z" fill="black"/>
<path d="M74.9132 61.2513C68.1445 58.4382 60.7684 61.7912 57.5259 67.7957C53.3426 75.4742 56.4703 85.1692 58.0521 93.1903C61.1231 108.161 63.5597 125.534 75.6795 136.876C87.8023 148.219 110.503 151.423 126.068 145.84C142.259 140.019 152.031 124.953 155.748 109.598C158.118 99.0648 158.982 88.2659 158.314 77.4858C157.947 69.6709 153.959 59.5068 143.712 60.4591C140.725 60.7352 140.731 65.1706 143.76 64.8984C154.125 63.9302 153.701 77.2228 153.673 83.6038C153.756 91.2495 153.054 98.8762 151.577 106.378C148.809 119.361 142.031 132.378 129.506 139.289C116.646 146.384 97.8784 145.061 85.0279 138.072C73.12 131.601 68.5412 118.534 65.6636 106.725C63.8327 99.0977 62.2391 91.3713 60.8444 83.6633C60.0334 79.1001 59.3241 73.7667 61.7722 69.557C63.7441 66.1637 68.2984 63.3037 72.4615 65.0306C75.2182 66.1847 77.5866 62.3709 74.8024 61.2143L74.9132 61.2513Z" fill="black"/>
<path d="M73.9169 113.115C76.3843 119.591 79.9806 125.768 86.0601 129.835C92.8627 134.425 102.281 136.273 110.48 136.113C126.359 135.827 137.77 125.508 143.081 112.114C144.141 109.443 139.569 108.27 138.527 110.916C133.96 122.429 124.089 131.439 110.427 131.687C103.506 131.803 95.6705 130.329 89.7108 126.838C83.9977 123.45 80.6747 117.755 78.4482 111.946C77.4215 109.258 72.8651 110.397 73.9169 113.115Z" fill="black"/>
<path d="M220.211 117.035C216.436 112.199 208.524 111.256 203.045 114.206C197.563 117.155 194.492 123.175 194.187 129.141C193.843 136.299 198.816 144.605 206.427 144.607C212.981 144.619 217.734 138.525 219.228 132.547C220.984 125.599 219.373 117.294 213.181 113.042" fill="white"/>
<path d="M222.245 115.918C219.833 113.128 216.451 111.229 212.709 110.564C208.966 109.9 205.106 110.512 201.833 112.292C194.774 116.051 190.989 124.532 191.96 132.013C192.778 138.687 197.461 145.958 205.187 146.749C213.502 147.636 219.51 140.38 221.396 133.566C223.562 125.58 221.65 116.32 214.359 111.133C213.812 110.84 213.169 110.758 212.569 110.907C211.966 111.055 211.451 111.421 211.137 111.925C210.843 112.437 210.769 113.037 210.933 113.603C211.097 114.168 211.484 114.655 212.017 114.963C216.746 118.314 218.075 124.565 217.379 129.782C216.683 135 213.548 141.404 207.639 142.325C202.111 143.161 198.338 138.137 197.086 133.708C196.357 130.928 196.39 128.028 197.179 125.279C197.972 122.531 199.495 120.025 201.607 117.996C205.876 114.048 214.172 113.172 218.218 118.181C218.552 118.674 219.074 119.03 219.675 119.178C220.275 119.325 220.908 119.253 221.449 118.976C221.982 118.677 222.369 118.193 222.523 117.627C222.677 117.06 222.587 116.457 222.273 115.947L222.245 115.918Z" fill="black"/>
<path d="M250.162 113.593C244.736 111.307 238.268 109.287 233.046 113C232.021 113.679 231.174 114.568 230.564 115.6C229.957 116.632 229.604 117.782 229.532 118.965C229.46 120.148 229.672 121.335 230.151 122.437C230.629 123.539 231.362 124.529 232.296 125.335C236.102 128.763 241.196 129.232 245.92 130.795C247.957 131.29 249.754 132.439 251.001 134.044C252.246 136.04 251.192 138.174 249.584 139.626C247.199 141.771 243.642 142.009 240.5 141.961C239.035 141.99 237.568 141.904 236.115 141.706C235.541 141.569 234.978 141.391 234.433 141.175C234.287 141.115 234.16 141.025 234.056 140.912C233.978 140.824 234.069 141.544 234.073 140.725C234.119 137.88 229.413 137.864 229.366 140.722C229.258 146.719 238.557 146.58 242.825 146.355C248.709 146.05 255.233 143.236 256.151 137.152C256.982 131.705 252.234 128.258 247.333 126.598C244.935 125.772 242.394 125.391 239.98 124.577C238.009 123.898 235.505 122.821 234.52 120.917C233.297 118.681 235.148 116.607 237.296 115.796C240.722 114.499 244.664 116.111 247.822 117.437C248.37 117.713 249.005 117.785 249.605 117.638C250.201 117.491 250.715 117.136 251.041 116.644C251.347 116.136 251.427 115.532 251.261 114.963C251.097 114.395 250.701 113.908 250.161 113.607L250.162 113.593Z" fill="black"/>
<path d="M258.473 113.794L261.957 127.554C262.541 129.892 263.129 132.217 263.732 134.557C264.088 136.519 264.821 138.408 265.893 140.132C268.126 143.227 271.896 144.394 275.723 144.342C277.672 144.287 279.608 144.06 281.508 143.665C283.27 143.33 285.277 142.668 285.843 140.879C286.035 140.402 286.073 139.881 285.959 139.38C285.845 138.878 285.582 138.417 285.199 138.049C284.813 137.682 284.328 137.424 283.796 137.306C283.267 137.189 282.712 137.216 282.2 137.386C279.998 138.016 279.017 140.896 281.428 142.059C284.169 143.373 286.48 139.554 283.781 138.243L283.582 138.225L284.441 139.016L284.379 138.917L284.636 140.62L284.647 140.5L284.057 141.481C283.882 141.604 283.68 141.691 283.469 141.736C283.255 141.781 283.032 141.784 282.817 141.743L281.765 141.176L281.899 141.295L281.289 140.312L281.197 139.9L281.801 138.935C281.194 139.631 279.202 139.663 278.289 139.794C276.868 140.018 275.42 140.061 273.983 139.922C270.875 139.636 269.443 137.798 268.704 135.096C266.52 127.718 264.921 120.22 263.043 112.803C262.337 110.051 257.796 111.192 258.499 113.971L258.473 113.794Z" fill="black"/>
<path d="M263.112 129.932C267.737 127.812 272.695 126.395 277.806 125.734C278.109 125.661 278.392 125.533 278.639 125.357C278.887 125.181 279.096 124.96 279.251 124.707C279.407 124.455 279.51 124.175 279.549 123.884C279.591 123.594 279.569 123.297 279.488 123.013C279.308 122.447 278.908 121.966 278.365 121.666C277.825 121.366 277.183 121.271 276.576 121.401C271.071 122.155 265.737 123.728 260.778 126.062C260.509 126.203 260.272 126.393 260.085 126.621C259.894 126.849 259.756 127.11 259.674 127.389C259.593 127.669 259.569 127.961 259.608 128.25C259.649 128.539 259.747 128.818 259.899 129.072C260.052 129.326 260.256 129.55 260.502 129.731C260.747 129.912 261.025 130.046 261.323 130.126C261.621 130.206 261.934 130.23 262.239 130.196C262.547 130.163 262.843 130.073 263.112 129.932Z" fill="black"/>
<path d="M259.247 115.466C268.191 114.694 277.1 113.722 285.975 112.55C286.275 112.477 286.558 112.349 286.806 112.173C287.053 111.997 287.262 111.776 287.418 111.523C287.574 111.27 287.677 110.991 287.716 110.7C287.758 110.409 287.736 110.113 287.657 109.829C287.481 109.26 287.082 108.774 286.539 108.473C285.996 108.172 285.35 108.08 284.742 108.217C276.279 109.373 267.782 110.316 259.253 111.045C258.635 111.062 258.048 111.302 257.612 111.713C257.179 112.126 256.931 112.68 256.917 113.263C256.925 113.851 257.182 114.416 257.628 114.832C258.077 115.249 258.678 115.483 259.304 115.485L259.247 115.466Z" fill="black"/>
<path d="M258.159 71.7691L261.644 85.5286L263.42 92.5192C263.784 94.4593 264.519 96.3254 265.59 98.0272C267.823 101.122 271.593 102.289 275.416 102.251C277.368 102.197 279.304 101.97 281.204 101.574C282.967 101.225 284.958 100.575 285.523 98.7862C285.712 98.3106 285.751 97.7922 285.636 97.2927C285.522 96.7932 285.262 96.3333 284.879 95.9665C284.499 95.5999 284.014 95.3418 283.485 95.2225C282.959 95.1038 282.405 95.1283 281.896 95.2944C279.676 95.9233 278.71 98.8044 281.125 99.9539C283.862 101.281 286.177 97.4489 283.463 96.1373L283.286 96.0405L284.141 96.8447L284.068 96.7307L284.324 98.4475L284.335 98.3276L283.731 99.2931C283.556 99.418 283.356 99.5073 283.142 99.5546C282.928 99.6021 282.705 99.6069 282.49 99.5689L281.454 98.9896L281.573 99.1082L280.963 98.1247L280.87 97.7265L281.475 96.7472C280.879 97.4584 278.874 97.4889 277.963 97.6068C276.542 97.8287 275.094 97.8762 273.655 97.7479C270.551 97.4622 269.117 95.6101 268.378 92.9082C266.193 85.5443 264.594 78.0457 262.716 70.6295C262.01 67.8766 257.469 69.0176 258.172 71.7971L258.159 71.7691Z" fill="black"/>
<path d="M262.828 87.923C267.45 85.7974 272.412 84.3764 277.523 83.7111C277.826 83.64 278.112 83.513 278.36 83.3371C278.607 83.1612 278.816 82.9404 278.975 82.6875C279.131 82.4344 279.231 82.1539 279.27 81.8626C279.312 81.5713 279.287 81.2743 279.205 80.9901C279.029 80.4229 278.629 79.9391 278.086 79.6387C277.543 79.3385 276.901 79.2452 276.29 79.3778C270.79 80.1403 265.457 81.713 260.495 84.0394C259.965 84.3398 259.581 84.8252 259.43 85.3919C259.279 85.9586 259.371 86.561 259.686 87.0693C260.016 87.5692 260.535 87.9323 261.138 88.0828C261.738 88.2333 262.377 88.1598 262.918 87.8773L262.828 87.923Z" fill="black"/>
<path d="M258.937 73.4405C267.882 72.6507 276.797 71.6521 285.684 70.4452C286.285 70.287 286.789 69.911 287.092 69.3999C287.395 68.8889 287.466 68.284 287.296 67.7174C287.12 67.1514 286.723 66.6679 286.183 66.3678C285.643 66.0676 285.001 65.9739 284.396 66.1068C275.92 67.2979 267.414 68.2847 258.88 69.0672C258.258 69.081 257.672 69.3192 257.236 69.732C256.8 70.1447 256.555 70.7008 256.544 71.2848C256.555 71.8722 256.812 72.4345 257.258 72.8503C257.707 73.2665 258.305 73.502 258.931 73.5068L258.937 73.4405Z" fill="black"/>
<path d="M222.744 76.1299C220.338 73.3391 216.956 71.4392 213.214 70.7746C209.474 70.11 205.617 70.7238 202.343 72.5055C195.288 76.2644 191.503 84.7455 192.474 92.2264C193.291 98.9003 197.972 106.171 205.698 106.963C214.016 107.849 220.021 100.594 221.907 93.7789C224.073 85.7939 222.164 76.5334 214.87 71.3466C214.326 71.0534 213.683 70.972 213.08 71.1202C212.477 71.2686 211.965 71.6346 211.651 72.139C211.357 72.6503 211.283 73.2509 211.447 73.8164C211.611 74.3818 211.998 74.8687 212.531 75.1766C217.245 78.5266 218.584 84.7916 217.893 89.9961C217.198 95.2003 214.059 101.618 208.153 102.539C202.637 103.375 198.849 98.3501 197.612 93.9223C196.884 91.1424 196.916 88.2424 197.706 85.4939C198.498 82.746 200.021 80.2399 202.133 78.2112C206.405 74.2634 214.698 73.3871 218.744 78.3958C219.078 78.8877 219.598 79.2446 220.198 79.3946C220.798 79.5445 221.433 79.4765 221.977 79.2041C222.51 78.9037 222.894 78.4155 223.049 77.8457C223.2 77.2759 223.104 76.6702 222.784 76.1605L222.744 76.1299Z" fill="black"/>
<path d="M233.234 100.99C232.513 92.5669 232.783 84.1047 234.041 75.7588L229.698 76.2863C235.719 85.3898 242.343 94.1327 249.526 102.462C250.823 103.926 253.639 102.72 253.548 100.897C252.995 91.0536 252.081 81.2308 250.808 71.4285C250.785 70.8467 250.527 70.2924 250.087 69.8795C249.647 69.4666 249.055 69.2262 248.437 69.2078C248.128 69.2066 247.821 69.2622 247.536 69.3724C247.252 69.4822 246.993 69.6445 246.777 69.8492C246.56 70.0538 246.39 70.2976 246.273 70.5657C246.159 70.8341 246.098 71.1213 246.102 71.4122C247.357 81.2128 248.264 91.0394 248.825 100.893L252.835 99.3263C245.89 91.2881 239.497 82.8444 233.696 74.047C232.726 72.614 229.697 72.5771 229.357 74.5616C227.984 83.2874 227.65 92.1407 228.36 100.958C228.599 103.789 233.32 103.82 233.066 100.975L233.234 100.99Z" fill="black"/>
<path d="M161.287 114.246L163.457 137.292C163.75 140.478 163.389 144.57 167.39 145.718C170.403 146.46 173.583 146.237 176.422 145.084C189.553 140.003 189.762 122.309 180.327 113.673C175.05 108.834 166.849 107.743 161.023 112.112C160.587 112.527 160.344 113.09 160.349 113.677C160.356 114.264 160.607 114.828 161.05 115.246C161.503 115.652 162.102 115.88 162.722 115.882C163.345 115.884 163.939 115.66 164.383 115.257C167.995 112.552 173.469 113.714 176.678 116.483C178.439 118.104 179.84 120.039 180.794 122.173C181.749 124.307 182.239 126.595 182.23 128.9C182.376 131.235 181.839 133.556 180.672 135.607C179.508 137.66 177.76 139.364 175.622 140.535C173.765 141.507 171.62 141.889 169.5 141.625C168.775 141.558 168.732 141.554 168.545 141.241C168.386 140.652 168.325 140.043 168.369 139.438L167.958 134.884L165.991 114.276C165.737 111.444 161.017 111.413 161.285 114.26L161.287 114.246Z" fill="black"/>
<path d="M203.744 166.614C203.237 182.488 203.25 198.37 203.781 214.259C203.891 217.118 208.597 217.135 208.503 214.277L208.361 210.044C208.281 207.201 203.56 207.17 203.654 210.041L203.781 214.259L208.503 214.277C207.931 198.393 207.921 182.507 208.467 166.618C208.557 163.764 203.834 163.76 203.744 166.614Z" fill="white"/>
<path d="M230.069 166.671C229.561 182.555 229.574 198.441 230.105 214.33C230.201 217.174 234.907 217.191 234.828 214.334L234.687 210.101C234.59 207.257 229.884 207.24 229.964 210.097L230.105 214.33L234.828 214.334C234.238 198.449 234.219 182.562 234.777 166.674C234.882 163.822 230.159 163.817 230.069 166.671Z" fill="white"/>
<path d="M221.778 190.367C229.234 189.06 236.825 188.497 244.428 188.689L244.376 184.249L242.026 184.275C238.991 184.305 239.027 188.743 242.062 188.713L244.428 188.689C245.032 188.66 245.597 188.413 246.009 188C246.423 187.588 246.649 187.04 246.643 186.471C246.637 185.902 246.397 185.354 245.976 184.94C245.554 184.527 244.981 184.279 244.376 184.249C236.372 184.073 228.378 184.689 220.527 186.087C220.225 186.159 219.941 186.287 219.694 186.463C219.446 186.639 219.238 186.86 219.082 187.113C218.926 187.366 218.826 187.646 218.784 187.936C218.742 188.227 218.764 188.523 218.846 188.808C219.015 189.378 219.414 189.867 219.961 190.168C220.504 190.469 221.149 190.56 221.758 190.419L221.778 190.367Z" fill="white"/>
<path d="M258.038 166.732L254.77 214.382L259.49 214.386C258.765 209.493 259.142 204.522 260.604 199.8C261.837 195.882 263.92 190.509 268.652 189.306C274.513 187.802 275.303 193.371 275.747 197.43L277.595 214.184C277.909 217.008 282.627 217.039 282.317 214.202C281.524 207.262 281.127 200.21 279.943 193.328C279.014 187.867 274.939 183.944 268.811 184.764C262.683 185.585 259.454 190.206 257.362 195.067C254.743 201.17 253.85 207.822 254.77 214.382C254.808 214.951 255.076 215.487 255.518 215.879C255.963 216.271 256.548 216.491 257.152 216.491C257.76 216.492 258.338 216.273 258.772 215.882C259.209 215.49 259.465 214.955 259.49 214.386L262.744 166.749C263.006 163.897 258.228 163.901 258.038 166.732Z" fill="white"/>
<path d="M156.888 210.092C153.477 212.157 149.187 214.154 145.069 212.579C140.95 211.004 140.614 206.108 140.458 202.506C140.327 200.175 140.431 197.84 140.77 195.533C140.842 194.648 141.124 193.793 141.593 193.027C142.061 192.261 142.708 191.605 143.482 191.106C146.357 189.395 151.06 190.687 151.788 194.141C152.205 196.141 149.191 197.49 147.625 198.179C146.698 198.695 145.655 198.997 144.579 199.061C143.502 199.126 142.42 198.95 141.424 198.55C138.686 197.195 136.388 201.016 139.083 202.366C140.492 203.041 142.037 203.424 143.61 203.49C145.186 203.556 146.752 203.303 148.204 202.748C151.134 201.881 153.7 200.184 155.549 197.887C159.23 192.42 152.725 186.298 147.012 185.866C145.56 185.788 144.112 185.998 142.762 186.483C141.41 186.968 140.187 187.716 139.17 188.679C136.79 190.906 136.223 193.784 135.926 196.875C135.594 200.15 135.679 203.456 136.177 206.722C136.426 209.679 137.755 212.476 139.944 214.634C145.641 219.567 153.642 217.373 159.341 213.906C161.872 212.378 159.464 208.542 156.917 210.081L156.888 210.092Z" fill="white"/>
<path d="M103.237 146.87C107.386 170.206 132.572 182.469 155.799 182.133C167.894 181.902 180.856 179.6 190.574 172.592C199.597 166.087 205.555 156.522 207.196 145.9C207.611 143.102 203.042 141.889 202.625 144.713C201.287 154.027 196.276 162.49 188.581 168.431C179.591 175.318 167.166 177.548 155.763 177.695C134.428 177.989 111.587 167.166 107.75 145.7C107.253 142.886 102.719 144.082 103.221 146.869L103.237 146.87Z" fill="black"/>
<path d="M100.998 166.38L97.73 214.03L102.453 214.034C101.724 209.141 102.105 204.17 103.563 199.447C104.797 195.529 106.895 190.159 111.612 188.953C117.476 187.45 118.264 193.032 118.706 197.078L120.555 213.832C120.869 216.656 125.589 216.687 125.277 213.849C124.484 206.909 124.102 199.859 122.906 192.976C121.977 187.515 117.885 183.603 111.759 184.411C105.632 185.217 102.401 189.852 100.309 194.713C97.6902 200.816 96.7974 207.468 97.7147 214.028C97.7519 214.597 98.0203 215.133 98.4654 215.525C98.9106 215.918 99.4951 216.137 100.1 216.137C100.704 216.138 101.286 215.92 101.72 215.528C102.154 215.137 102.413 214.601 102.437 214.033L105.704 166.396C105.895 163.551 101.172 163.547 100.982 166.378L100.998 166.38Z" fill="white"/>
<path d="M170.443 193.399C173.854 191.334 178.143 189.337 182.263 190.898C186.386 192.46 186.721 197.369 186.874 200.972C187.007 203.307 186.897 205.647 186.546 207.957C186.48 208.841 186.2 209.697 185.735 210.464C185.27 211.23 184.623 211.886 183.849 212.386C180.975 214.083 176.271 212.804 175.543 209.35C175.126 207.349 178.14 206.001 179.695 205.297C180.624 204.788 181.67 204.491 182.749 204.429C183.828 204.367 184.91 204.543 185.91 204.942C188.645 206.295 190.943 202.475 188.248 201.125C186.838 200.45 185.294 200.066 183.721 200C182.147 199.934 180.579 200.187 179.127 200.743C176.191 201.605 173.619 203.302 171.766 205.602C168.089 211.07 174.609 217.193 180.319 217.624C181.771 217.703 183.222 217.492 184.575 217.005C185.925 216.517 187.151 215.766 188.165 214.798C190.544 212.585 191.109 209.694 191.407 206.617C191.74 203.341 191.652 200.035 191.154 196.77C190.911 193.812 189.579 191.014 187.39 188.857C181.689 183.924 173.69 186.105 167.991 189.572C165.458 191.113 167.871 194.936 170.414 193.41L170.443 193.399Z" fill="white"/>
<path d="M141.155 55.7341C136.955 51.6251 129.013 52.104 125.154 56.3988C123.349 58.6488 122.447 61.4349 122.619 64.2675C122.787 67.0999 124.01 69.797 126.076 71.8849C127.287 73.1387 128.83 74.0726 130.541 74.5912C132.252 75.1099 134.073 75.1948 135.821 74.8377C137.866 74.2071 139.652 73.0081 140.944 71.3983C143.095 68.7775 144.3 65.5739 144.387 62.2474C144.471 58.9206 143.431 55.6418 141.417 52.8825" fill="white"/>
<path d="M142.731 54.1596C140.727 52.3765 138.197 51.2068 135.481 50.8077C132.763 50.408 129.994 50.7986 127.54 51.9261C125.085 53.0536 123.065 54.8643 121.75 57.115C120.435 59.3654 119.889 61.9485 120.187 64.5166C120.364 67.2789 121.425 69.936 123.23 72.1404C125.033 74.3444 127.497 75.993 130.298 76.8702C136.751 78.7137 142.583 74.6139 145.094 69.2541C146.424 66.4588 146.973 63.382 146.684 60.3147C146.396 57.2473 145.28 54.2907 143.442 51.7256C143.112 51.2284 142.593 50.8676 141.99 50.7171C141.39 50.5668 140.754 50.6385 140.213 50.9176C139.68 51.2159 139.293 51.7001 139.139 52.2665C138.985 52.8329 139.074 53.4363 139.388 53.9461C140.607 55.5492 141.448 57.3769 141.851 59.3041C142.253 61.2316 142.21 63.2134 141.723 65.114C140.772 68.776 137.781 73.1238 133.266 72.9098C125.004 72.5124 121.885 60.5067 128.667 56.4672C130.301 55.4437 132.26 54.9697 134.23 55.1216C136.197 55.2732 138.063 56.0425 139.523 57.3051C139.986 57.6028 140.548 57.7377 141.102 57.686C141.656 57.6339 142.171 57.3987 142.557 57.0221C142.94 56.6453 143.171 56.1513 143.201 55.6271C143.234 55.1032 143.069 54.5833 142.731 54.1596Z" fill="black"/>
</svg>
