<svg xmlns="http://www.w3.org/2000/svg" width="26.613" height="26.511" viewBox="0 0 26.613 26.511">
  <path id="Path_1" data-name="Path 1" d="M6.149,8.73,8.378,6.5a1.66,1.66,0,0,0,.451-2.154L5.015.533a1.938,1.938,0,0,0-1-.51A2.03,2.03,0,0,0,2.758.26,5.964,5.964,0,0,0,.2,4.081C0,4.82-.616,7.642,1.41,12.225A22.924,22.924,0,0,0,13.849,24.131a14.982,14.982,0,0,0,6.16.8,6.627,6.627,0,0,0,1.718-.415,6.98,6.98,0,0,0,2.843-2.162,1.854,1.854,0,0,0,.385-.548,1.837,1.837,0,0,0-.148-1.421l-4.073-4.074a1.524,1.524,0,0,0-.739-.4,1.652,1.652,0,0,0-1.333.356l-2.385,2.385A18.552,18.552,0,0,1,6.149,8.73Z" transform="translate(0.815 0.749)" fill="none" stroke="#862635" stroke-miterlimit="10" stroke-width="1.5"/>
</svg>
