<svg xmlns="http://www.w3.org/2000/svg" width="28.886" height="30.705" viewBox="0 0 28.886 30.705">
  <g id="Group_9" data-name="Group 9" transform="translate(-0.577 -0.57)">
    <path id="Path_1" data-name="Path 1" d="M26.975,28.275v-15a2.875,2.875,0,0,0-.7-1.8l-9.5-9.5a2.417,2.417,0,0,0-3.5,0l-9.5,9.5a2.5,2.5,0,0,0-.8,1.8v15a2.476,2.476,0,0,0,2.5,2.5h19A2.476,2.476,0,0,0,26.975,28.275Z" fill="none" stroke="#fff" stroke-miterlimit="10" stroke-width="1"/>
    <path id="Path_2" data-name="Path 2" d="M.727,14.627h0a.483.483,0,0,1,0-.7l3.1-3.2a.483.483,0,0,1,.7,0h0a.483.483,0,0,1,0,.7l-3.1,3.2A.483.483,0,0,1,.727,14.627Z" fill="#fff"/>
    <path id="Path_3" data-name="Path 3" d="M29.313,14.575h0a.483.483,0,0,0,0-.7l-3.1-3.2a.483.483,0,0,0-.7,0h0a.483.483,0,0,0,0,.7l3.1,3.2A.483.483,0,0,0,29.313,14.575Z" fill="#fff"/>
    <g id="Group_8" data-name="Group 8">
      <g id="Group_7" data-name="Group 7">
        <g id="Group_1" data-name="Group 1">
          <path id="Path_4" data-name="Path 4" d="M14.855,15.851H21.12v-.7h-5.9v-.954l.032-.017a2.917,2.917,0,0,0,1.856-2.6,3,3,0,0,0-5.993,0,2.97,2.97,0,0,0,2.022,2.695l.035.015.014.863H8.83v.7h4.733a.376.376,0,0,0,.263-.106.337.337,0,0,0,.1-.251l-.023-1.454a.354.354,0,0,0-.238-.325,2.414,2.414,0,0,1-1.815-2.142,2.261,2.261,0,0,1,4.521,0c0,.867-.535,1.53-1.685,2.09a.35.35,0,0,0-.2.313V15.5a.343.343,0,0,0,.107.249.38.38,0,0,0,.26.1" fill="#fff"/>
        </g>
        <g id="Group_2" data-name="Group 2">
          <path id="Path_5" data-name="Path 5" d="M18.58,22.733h2.54v-.676H18.937l.007-.395.033-.015a1.97,1.97,0,0,0,1.236-1.841,2.085,2.085,0,0,0-4.169,0,2.128,2.128,0,0,0,1.128,1.828l.03.016v.407H15.564v.676h1.991a.357.357,0,0,0,.249-.1.331.331,0,0,0,.1-.239v-.949a.334.334,0,0,0-.193-.3,1.431,1.431,0,0,1-.964-1.338,1.379,1.379,0,0,1,2.757,0A1.324,1.324,0,0,1,18.47,21.12a.341.341,0,0,0-.227.312l-.016.956a.323.323,0,0,0,.1.241.361.361,0,0,0,.252.1" fill="#fff"/>
        </g>
        <g id="Group_3" data-name="Group 3">
          <path id="Path_6" data-name="Path 6" d="M13.785,16.5a.374.374,0,0,0-.3-.143H8.83v.7h4.164L9.645,27.62h.769l3.427-10.809a.345.345,0,0,0-.056-.311" fill="#fff"/>
        </g>
        <g id="Group_4" data-name="Group 4">
          <path id="Path_7" data-name="Path 7" d="M21.12,16.357h-6.4a.36.36,0,0,0-.367.352V27.62h.735V17.062H21.12Z" fill="#fff"/>
        </g>
        <g id="Group_5" data-name="Group 5">
          <path id="Path_8" data-name="Path 8" d="M17.91,27.662V23.43a.346.346,0,0,0-.353-.338H15.564v.676H17.2v3.894Z" fill="#fff"/>
        </g>
        <g id="Group_6" data-name="Group 6">
          <path id="Path_9" data-name="Path 9" d="M21.12,23.768v-.676H18.629a.361.361,0,0,0-.285.138.342.342,0,0,0-.054.3l1.224,4.134h.736L19.1,23.768Z" fill="#fff"/>
        </g>
      </g>
    </g>
  </g>
</svg>
