<svg xmlns="http://www.w3.org/2000/svg" width="21.265" height="25" viewBox="0 0 21.265 25">
  <g id="Symbols" transform="translate(-0.5 -0.541)">
    <g id="tabbar" transform="translate(0.5 0.541)">
      <g id="ic_Profile_grey" data-name="ic Profile grey">
        <g id="Group_350" data-name="Group 350">
          <g id="ic_profile" data-name="ic profile">
            <path id="Path_259" data-name="Path 259" d="M11.042,14.012h.166a4.776,4.776,0,0,0,3.649-1.579c1.993-2.248,1.662-6.1,1.626-6.466a5.279,5.279,0,0,0-2.511-4.7A5.757,5.757,0,0,0,11.186.541H11.1a5.77,5.77,0,0,0-2.786.709A5.283,5.283,0,0,0,5.772,5.967c-.036.368-.368,4.218,1.626,6.466a4.756,4.756,0,0,0,3.644,1.579ZM7.153,6.1c0-.015.005-.031.005-.042.172-3.711,2.806-4.111,3.935-4.111h.062c1.4.032,3.774.6,3.935,4.111A.1.1,0,0,0,15.1,6.1c0,.036.368,3.557-1.279,5.41a3.394,3.394,0,0,1-2.666,1.108H11.1a3.383,3.383,0,0,1-2.661-1.108C6.8,9.664,7.149,6.127,7.153,6.1Zm14.61,14.3a8.324,8.324,0,0,1-.248,2.34.7.7,0,0,1-.27.326,19.628,19.628,0,0,1-10.1,2.475A19.585,19.585,0,0,1,1.035,23.066a.667.667,0,0,1-.27-.326A7.957,7.957,0,0,1,.5,20.395V20.38a1.018,1.018,0,0,0,.005-.13c.031-1.019.1-3.416,2.346-4.187l.051-.016A14.754,14.754,0,0,0,7.2,14.09.7.7,0,1,1,8,15.234a16.207,16.207,0,0,1-4.726,2.158c-1.206.43-1.34,1.719-1.377,2.9,0,.047,0,.088,0,.13A8.853,8.853,0,0,0,2,22.021a19.166,19.166,0,0,0,9.132,2.127,19.053,19.053,0,0,0,9.127-2.123,9.344,9.344,0,0,0,.109-1.6,1.018,1.018,0,0,1-.005-.13c-.036-1.18-.17-2.469-1.377-2.9a16.147,16.147,0,0,1-4.726-2.158.7.7,0,0,1,.8-1.144,14.971,14.971,0,0,0,4.3,1.957l.052.016c2.247.766,2.314,3.163,2.345,4.187,0,.047.005.088.005.13Z" transform="translate(-0.5 -0.541)" fill="#696969" fill-rule="evenodd"/>
          </g>
        </g>
      </g>
    </g>
  </g>
</svg>
