<svg id="Screen" xmlns="http://www.w3.org/2000/svg" width="25" height="25" viewBox="0 0 25 25">
  <g id="_34_Quick-Search-Doctor" data-name="34_Quick-Search-Doctor">
    <g id="Group-2">
      <g id="search">
        <path id="Fill-1" d="M24.065,19.531l-2.211-2.213a.93.93,0,0,0-1.316,1.315l2.211,2.213a1.347,1.347,0,0,1-1.907,1.9L16.6,18.51l2.557-2.56a.93.93,0,1,0-1.314-1.315l-.953.955-1.341-1.342a8.739,8.739,0,1,0-1.314,1.315l1.341,1.342-.955.954a.922.922,0,0,0,0,1.31l4.9,4.9A3.288,3.288,0,0,0,21.8,25a3.2,3.2,0,0,0,2.263-5.469ZM13.63,13.619a6.892,6.892,0,0,1-9.744-9.75,6.892,6.892,0,0,1,9.744,9.75Z" fill="#862634" fill-rule="evenodd"/>
      </g>
    </g>
  </g>
</svg>
